<?xml version="1.0" encoding="UTF-8" standalone="no"?>
<!-- Created with Inkscape (http://www.inkscape.org/) -->

<svg
   width="64"
   height="64"
   viewBox="0 0 16.933333 16.933334"
   version="1.1"
   id="svg5"
   inkscape:version="1.2 (dc2aedaf03, 2022-05-15)"
   sodipodi:docname="folder-open.svg"
   xmlns:inkscape="http://www.inkscape.org/namespaces/inkscape"
   xmlns:sodipodi="http://sodipodi.sourceforge.net/DTD/sodipodi-0.dtd"
   xmlns="http://www.w3.org/2000/svg"
   xmlns:svg="http://www.w3.org/2000/svg">
  <sodipodi:namedview
     id="namedview7"
     pagecolor="#ffffff"
     bordercolor="#666666"
     borderopacity="1.0"
     inkscape:pageshadow="2"
     inkscape:pageopacity="0.0"
     inkscape:pagecheckerboard="0"
     inkscape:document-units="px"
     showgrid="false"
     units="px"
     height="64px"
     inkscape:zoom="12.421875"
     inkscape:cx="32"
     inkscape:cy="32.080503"
     inkscape:window-width="1920"
     inkscape:window-height="1011"
     inkscape:window-x="0"
     inkscape:window-y="0"
     inkscape:window-maximized="1"
     inkscape:current-layer="svg5"
     inkscape:showpageshadow="2"
     inkscape:deskcolor="#d1d1d1" />
  <defs
     id="defs2" />
  <path
     d="m 1.5874994,2.1166655 c -0.5863164,0 -1.0583329,0.4720169 -1.0583329,1.0583333 V 14.287499 c 0,0.586316 0.4720165,1.058333 1.0583329,1.058333 H 15.345833 c 0.586317,0 1.058334,-0.472017 1.058334,-1.058333 V 4.7624988 c 0,-0.5834056 -0.472018,-1.0583333 -1.058334,-1.0583333 H 8.731249 C 8.393949,3.7032745 7.931236,3.6563785 7.728727,3.4674874 L 6.5587721,2.3533435 C 6.3189903,2.1207517 5.8208326,2.1166655 5.8208326,2.1166655 Z"
     style="opacity:0.2;fill:#000000;fill-opacity:1;stroke-width:0.744501"
     id="path959" />
  <path
     id="rect846"
     style="fill:#46a1cf;fill-opacity:1;stroke-width:0.744501"
     d="m 1.5875002,1.8520834 h 4.2333331 c 0,0 0.4980811,0.00411 0.7378639,0.2366914 l 1.1701054,1.1141171 c 0.2025103,0.1888915 0.6651469,0.2358003 1.0024477,0.2366917 l 6.6145827,-2e-7 c 0.586316,0 1.058333,0.4765444 1.058333,1.0583336 V 8.7312486 H 0.52916663 V 2.910417 c 0,-0.5863168 0.47201677,-1.0583336 1.05833357,-1.0583336 z"
     sodipodi:nodetypes="sccccssccss" />
  <path
     id="rect846-7"
     style="opacity:0.1;fill:#000000;fill-opacity:1;stroke-width:0.744501"
     d="m 1.5875002,1.8520834 h 4.2333333 c 0,0 0.498081,0.0041 0.737863,0.236692 l 1.170106,1.114117 c 0.20251,0.188891 0.665146,0.2358 1.002447,0.236691 h 6.6145845 c 0.586316,0 1.058333,0.4749268 1.058333,1.058333 V 9.7895817 H 0.52916623 V 2.9104174 c 0,-0.586317 0.47201697,-1.058334 1.05833397,-1.058334 z"
     sodipodi:nodetypes="sccccssccss" />
  <path
     d="m 1.0583334,6.6145834 c -0.29315837,0 -0.52916677,0.2360083 -0.52916677,0.5291666 v 6.614583 c 0,0.586317 0.47201657,1.058334 1.05833347,1.058334 H 15.345833 c 0.586317,0 1.058334,-0.472017 1.058334,-1.058334 V 7.14375 c 0,-0.2931583 -0.236009,-0.5291666 -0.529167,-0.5291666 z"
     style="opacity:0.2;fill:#000000;fill-opacity:1;stroke-width:0.224129"
     id="path1660"
     sodipodi:nodetypes="sssssssss" />
  <path
     id="rect5146"
     style="fill:#7dcef7;fill-opacity:1;stroke-width:0.224129"
     d="m 1.0583334,6.8791668 c -0.29315834,0 -0.52916674,0.2360083 -0.52916674,0.5291666 v 6.6145836 c 0,0.586317 0.47201654,1.058334 1.05833344,1.058334 H 15.345833 c 0.586317,0 1.058334,-0.472017 1.058334,-1.058334 V 7.4083334 c 0,-0.2931583 -0.236009,-0.5291666 -0.529167,-0.5291666 z"
     sodipodi:nodetypes="sccssccss" />
  <path
     id="rect846-2"
     style="opacity:0.3;fill:#ffffff;fill-opacity:1;stroke-width:0.7445"
     d="m 1.5875,1.8520834 c -0.586317,0 -1.05833332,0.4720165 -1.05833332,1.0583333 v 0.2645834 c 0,-0.5863168 0.47201632,-1.0583334 1.05833332,-1.0583334 h 4.2333335 c 0,0 0.4981564,0.0041 0.7379393,0.2366781 l 1.1699547,1.114144 c 0.20251,0.1888913 0.6652218,0.2357866 1.0025227,0.236678 h 6.6145838 c 0.514859,0 0.997541,0.367597 1.058333,0.8511109 V 4.4979168 C 16.411967,3.9122943 15.93215,3.4395834 15.345834,3.4395834 H 8.7312502 C 8.3939493,3.4386838 7.9312375,3.3917968 7.7287275,3.2029054 L 6.5587728,2.0887614 C 6.3189899,1.85618 5.8208335,1.8520834 5.8208335,1.8520834 Z"
     sodipodi:nodetypes="sscsccccsccsccccs" />
  <rect
     style="opacity:0.2;fill:#1493c4;fill-opacity:1;stroke-width:0.0491318"
     id="rect23488"
     width="15.875"
     height="0.26458335"
     x="0.5291667"
     y="13.493751" />
  <path
     id="rect22163"
     style="opacity:0.2;fill:#000000;fill-opacity:1;stroke-width:0.262052"
     d="m 0.52916671,13.758335 v 0.264583 c 0,0.586317 0.47201639,1.058333 1.05833339,1.058333 H 15.345834 c 0.586317,0 1.058333,-0.472016 1.058333,-1.058333 v -0.264583 c 0,0.586317 -0.472016,1.058333 -1.058333,1.058333 H 1.5875001 c -0.586317,0 -1.05833339,-0.472016 -1.05833339,-1.058333 z"
     sodipodi:nodetypes="csssscssc" />
  <path
     id="rect6273"
     style="opacity:0.3;fill:#ffffff;fill-opacity:1;stroke-width:0.25971"
     d="m 1.0583334,6.8791669 c -0.29315838,0 -0.52916669,0.2360083 -0.52916669,0.5291667 v 0.2645833 c 0,-0.2931583 0.23600831,-0.5291667 0.52916669,-0.5291667 H 15.875 c 0.293159,0 0.529167,0.2360084 0.529167,0.5291667 V 7.4083336 c 0,-0.2931584 -0.236008,-0.5291667 -0.529167,-0.5291667 z"
     sodipodi:nodetypes="sscsscsss" />
</svg>
