<?xml version="1.0" encoding="UTF-8" standalone="no"?>
<!-- Created with Inkscape (http://www.inkscape.org/) -->

<svg
   width="64"
   height="64"
   viewBox="0 0 16.933333 16.933334"
   version="1.1"
   id="svg5"
   inkscape:version="1.2 (dc2aedaf03, 2022-05-15)"
   sodipodi:docname="folder-favorites.svg"
   xmlns:inkscape="http://www.inkscape.org/namespaces/inkscape"
   xmlns:sodipodi="http://sodipodi.sourceforge.net/DTD/sodipodi-0.dtd"
   xmlns="http://www.w3.org/2000/svg"
   xmlns:svg="http://www.w3.org/2000/svg">
  <sodipodi:namedview
     id="namedview7"
     pagecolor="#ffffff"
     bordercolor="#666666"
     borderopacity="1.0"
     inkscape:pageshadow="2"
     inkscape:pageopacity="0.0"
     inkscape:pagecheckerboard="0"
     inkscape:document-units="px"
     showgrid="false"
     units="px"
     height="64px"
     inkscape:zoom="12.421875"
     inkscape:cx="32.080503"
     inkscape:cy="32.161006"
     inkscape:window-width="1920"
     inkscape:window-height="1011"
     inkscape:window-x="0"
     inkscape:window-y="0"
     inkscape:window-maximized="1"
     inkscape:current-layer="svg5"
     inkscape:showpageshadow="2"
     inkscape:deskcolor="#d1d1d1" />
  <defs
     id="defs2" />
  <path
     d="m 1.5875005,2.1166668 c -0.5863164,0 -1.05833292,0.4720169 -1.05833292,1.0583333 V 14.287501 c 0,0.586316 0.47201652,1.058332 1.05833292,1.058332 H 15.345834 c 0.586317,0 1.058334,-0.472016 1.058334,-1.058332 V 4.7625001 c 0,-0.5834056 -0.472018,-1.0583333 -1.058334,-1.0583333 H 8.7312503 C 8.3939497,3.7032758 7.9312374,3.6563795 7.7287276,3.4674887 L 6.5587732,2.3533448 C 6.3189914,2.120753 5.8208337,2.1166668 5.8208337,2.1166668 Z"
     style="opacity:0.2;fill:#000000;fill-opacity:1;stroke-width:0.744501"
     id="path959" />
  <path
     id="rect846"
     style="fill:#46a1cf;fill-opacity:1;stroke-width:0.744501"
     d="m 1.5875002,1.8520834 h 4.2333331 c 0,0 0.4980811,0.00411 0.7378639,0.2366914 l 1.1701054,1.1141171 c 0.2025103,0.1888915 0.6651469,0.2358003 1.0024477,0.2366917 l 6.6145827,-2e-7 c 0.586316,0 1.058333,0.4765444 1.058333,1.0583336 V 8.7312486 H 0.52916663 V 2.910417 c 0,-0.5863168 0.47201677,-1.0583336 1.05833357,-1.0583336 z"
     sodipodi:nodetypes="sccccssccss" />
  <path
     id="rect846-7"
     style="opacity:0.1;fill:#000000;fill-opacity:1;stroke-width:0.744501"
     d="m 1.5875002,1.8520834 h 4.2333333 c 0,0 0.498081,0.0041 0.737863,0.236692 l 1.170106,1.114117 c 0.20251,0.188891 0.665146,0.2358 1.002447,0.236691 h 6.6145845 c 0.586316,0 1.058333,0.4749268 1.058333,1.058333 V 9.7895817 H 0.52916623 V 2.9104174 c 0,-0.586317 0.47201697,-1.058334 1.05833397,-1.058334 z"
     sodipodi:nodetypes="sccccssccss" />
  <path
     d="m 1.0583334,5.0270834 c -0.29315837,0 -0.52916677,0.2360083 -0.52916677,0.5291666 v 8.202083 c 0,0.586317 0.47201657,1.058334 1.05833347,1.058334 H 15.345833 c 0.586317,0 1.058334,-0.472017 1.058334,-1.058334 V 5.55625 c 0,-0.2931583 -0.236009,-0.5291666 -0.529167,-0.5291666 z"
     style="fill:#000000;fill-opacity:1;stroke-width:0.224129;opacity:0.2"
     id="path1660" />
  <path
     id="rect5146"
     style="fill:#7dcef7;fill-opacity:1;stroke-width:0.224129"
     d="m 1.0583334,5.2916668 c -0.29315834,0 -0.52916674,0.2360083 -0.52916674,0.5291666 v 8.2020836 c 0,0.586317 0.47201654,1.058334 1.05833344,1.058334 H 15.345833 c 0.586317,0 1.058334,-0.472017 1.058334,-1.058334 V 5.8208334 c 0,-0.2931583 -0.236009,-0.5291666 -0.529167,-0.5291666 z"
     sodipodi:nodetypes="sccssccss" />
  <path
     id="path1007"
     style="color:#000000;opacity:0.2;fill:#000000;fill-opacity:1;stroke-width:0.261073;stroke-linejoin:round;-inkscape-stroke:none"
     d="M 8.4586363,7.355682 C 8.3610423,7.3559431 8.2717347,7.410472 8.2271259,7.4972756 L 7.6173439,8.6816993 6.3032124,8.9033913 C 6.0948641,8.9388579 6.0124279,9.1939819 6.161102,9.3441912 l 0.9379273,0.9461948 -0.1953368,1.31775 c -0.031361,0.209497 0.1865511,0.367212 0.3756877,0.271818 l 1.1895913,-0.599963 1.1932089,0.592729 c 0.1894067,0.0941 0.4066356,-0.06431 0.3746536,-0.273369 L 9.8337461,10.283151 10.766505,9.3312721 C 10.914739,9.1802088 10.830692,8.9250808 10.621811,8.890989 L 9.3071634,8.6770485 8.6906631,7.4957252 C 8.6455531,7.4093519 8.5560797,7.3554682 8.4586363,7.355682 Z M 8.4591655,7.6166479 9.1361271,8.9137265 10.579954,9.1488543 9.5557274,10.193235 9.7784521,11.639142 8.4684548,10.988019 7.1620745,11.646894 7.3765317,10.199436 6.3466205,9.1607399 7.7894265,8.9173439 Z" />
  <path
     id="rect846-2"
     style="opacity:0.3;fill:#ffffff;fill-opacity:1;stroke-width:0.7445"
     d="m 1.5875,1.8520834 c -0.586317,0 -1.05833332,0.4720165 -1.05833332,1.0583333 v 0.2645834 c 0,-0.5863168 0.47201632,-1.0583334 1.05833332,-1.0583334 h 4.2333335 c 0,0 0.4981564,0.0041 0.7379393,0.2366781 l 1.1699547,1.114144 c 0.20251,0.1888913 0.6652218,0.2357866 1.0025227,0.236678 h 6.6145838 c 0.514859,0 0.997541,0.367597 1.058333,0.8511109 V 4.4979168 C 16.411967,3.9122943 15.93215,3.4395834 15.345834,3.4395834 H 8.7312502 C 8.3939493,3.4386838 7.9312375,3.3917968 7.7287275,3.2029054 L 6.5587728,2.0887614 C 6.3189899,1.85618 5.8208335,1.8520834 5.8208335,1.8520834 Z"
     sodipodi:nodetypes="sscsccccsccsccccs" />
  <rect
     style="opacity:0.2;fill:#1493c4;fill-opacity:1;stroke-width:0.0491318"
     id="rect23488"
     width="15.875"
     height="0.26458335"
     x="0.5291667"
     y="13.493751" />
  <path
     id="rect22163"
     style="opacity:0.2;fill:#000000;fill-opacity:1;stroke-width:0.262052"
     d="m 0.52916671,13.758335 v 0.264583 c 0,0.586317 0.47201639,1.058333 1.05833339,1.058333 H 15.345834 c 0.586317,0 1.058333,-0.472016 1.058333,-1.058333 v -0.264583 c 0,0.586317 -0.472016,1.058333 -1.058333,1.058333 H 1.5875001 c -0.586317,0 -1.05833339,-0.472016 -1.05833339,-1.058333 z"
     sodipodi:nodetypes="csssscssc" />
  <path
     id="rect6273"
     style="opacity:0.3;fill:#ffffff;fill-opacity:1;stroke-width:0.25971"
     d="m 1.0583334,5.2916668 c -0.29315838,0 -0.52916669,0.2360083 -0.52916669,0.5291667 v 0.2645833 c 0,-0.2931583 0.23600831,-0.5291667 0.52916669,-0.5291667 H 15.875 c 0.293159,0 0.529167,0.2360084 0.529167,0.5291667 V 5.8208335 c 0,-0.2931584 -0.236008,-0.5291667 -0.529167,-0.5291667 z"
     sodipodi:nodetypes="sscsscsss" />
</svg>
