<?xml version="1.0" encoding="UTF-8" standalone="no"?>
<!-- Created with Inkscape (http://www.inkscape.org/) -->

<svg
   width="32"
   height="32"
   viewBox="0 0 8.4666665 8.466667"
   version="1.1"
   id="svg5"
   inkscape:version="1.2 (dc2aedaf03, 2022-05-15)"
   sodipodi:docname="accessories-ebook-reader.svg"
   xmlns:inkscape="http://www.inkscape.org/namespaces/inkscape"
   xmlns:sodipodi="http://sodipodi.sourceforge.net/DTD/sodipodi-0.dtd"
   xmlns="http://www.w3.org/2000/svg"
   xmlns:svg="http://www.w3.org/2000/svg">
  <sodipodi:namedview
     id="namedview7"
     pagecolor="#ffffff"
     bordercolor="#666666"
     borderopacity="1.0"
     inkscape:pageshadow="2"
     inkscape:pageopacity="0.0"
     inkscape:pagecheckerboard="0"
     inkscape:document-units="px"
     showgrid="false"
     units="px"
     height="64px"
     inkscape:zoom="24.84375"
     inkscape:cx="16.040252"
     inkscape:cy="16.040252"
     inkscape:window-width="1920"
     inkscape:window-height="1011"
     inkscape:window-x="0"
     inkscape:window-y="0"
     inkscape:window-maximized="1"
     inkscape:current-layer="svg5"
     inkscape:showpageshadow="2"
     inkscape:deskcolor="#d1d1d1" />
  <defs
     id="defs2" />
  <rect
     style="fill:#f47c29;stroke-width:0.264583;fill-opacity:1"
     id="rect846"
     width="7.9375"
     height="7.9375"
     x="0.26458335"
     y="0.26458335"
     ry="1.5875" />
  <path
     id="path296"
     style="color:#000000;fill:#ffffff;fill-opacity:1;stroke:none;stroke-width:0.155637;stroke-linecap:round;stroke-linejoin:round;-inkscape-stroke:none"
     d="M 2.6453166 2.38125 C 1.9166549 2.3837167 1.4957454 2.7053051 1.4924154 2.7078451 C 1.4579488 2.7281801 1.4212405 2.7510517 1.3890625 2.7832927 C 1.3549745 2.8174458 1.3229167 2.8655797 1.3229167 2.9259196 L 1.3229167 6.194454 C 1.3230878 6.256864 1.3932842 6.293616 1.4448731 6.2585328 C 1.4448731 6.2585328 1.6106091 6.1452475 1.8463989 6.0311565 C 2.0821888 5.9170654 2.3867417 5.8055216 2.6473837 5.8053305 C 3.2565394 5.8144694 3.3363865 5.9336045 3.6633423 6.0549276 C 3.6895089 6.0565376 3.7153901 6.0603703 3.7713461 6.0513103 C 3.8108668 6.0449163 3.8538303 6.0341685 3.8938192 6.0068685 C 3.9338082 5.9795741 3.9687344 5.9266361 3.96875 5.8673422 L 3.96875 3.2375285 C 3.9687355 3.2353085 3.96844 3.2325338 3.9682333 3.2302938 C 3.9360389 2.8609904 3.6636153 2.6447872 3.3801555 2.5295614 C 3.096696 2.4143353 2.7938721 2.38715 2.6489339 2.38125 C 2.6478239 2.3812262 2.6464266 2.3812262 2.6453166 2.38125 z M 5.8177328 2.38125 C 5.6727954 2.38715 5.369971 2.4143354 5.0865113 2.5295614 C 4.8030515 2.6447871 4.5306277 2.8609907 4.4984335 3.2302938 C 4.4982277 3.2325338 4.4979315 3.2353085 4.4979167 3.2375285 L 4.4979167 5.8673422 C 4.4979317 5.9266371 4.5328646 5.9795742 4.5728475 6.0068685 C 4.6128335 6.0341685 4.6558036 6.0449163 4.6953207 6.0513103 C 4.7512736 6.0603703 4.7771526 6.0565376 4.8033244 6.0549276 C 5.1302791 5.9336046 5.2101275 5.8144694 5.8192831 5.8053305 C 6.0799248 5.8055216 6.384478 5.9170655 6.6202678 6.0311565 C 6.8560576 6.1452475 7.0223105 6.2585328 7.0223105 6.2585328 C 7.0739004 6.2936157 7.1435791 6.2568649 7.1437501 6.194454 L 7.1437501 2.9259196 C 7.1437501 2.8655797 7.1116842 2.8174458 7.0776042 2.7832927 C 7.0454243 2.7510517 7.0087173 2.7281801 6.9742514 2.7078451 C 6.9709514 2.7053051 6.5500114 2.3837166 5.8213502 2.38125 C 5.8202502 2.3812262 5.8188328 2.3812262 5.8177328 2.38125 z " />
  <path
     id="rect1107"
     style="opacity:0.2;fill:#ffffff;stroke-width:0.79375;stroke-linejoin:round"
     d="m 1.8520834,0.26458334 c -0.8794751,0 -1.58750006,0.70802492 -1.58750006,1.58750006 v 0.2645834 c 0,-0.8794751 0.70802496,-1.58750012 1.58750006,-1.58750012 h 4.7625001 c 0.879475,0 1.5875001,0.70802502 1.5875001,1.58750012 V 1.8520834 c 0,-0.87947514 -0.7080251,-1.58750006 -1.5875001,-1.58750006 z"
     sodipodi:nodetypes="sscsscsss" />
  <path
     id="rect1153"
     style="opacity:0.2;fill:#000000;stroke-width:0.79375;stroke-linejoin:round"
     d="m 0.26458334,6.3500001 v 0.2645834 c 0,0.879475 0.70802496,1.5875 1.58750006,1.5875 h 4.7625001 c 0.879475,0 1.5875001,-0.708025 1.5875001,-1.5875 V 6.3500001 c 0,0.879475 -0.7080251,1.5875001 -1.5875001,1.5875001 H 1.8520834 c -0.8794751,0 -1.58750006,-0.7080251 -1.58750006,-1.5875001 z"
     sodipodi:nodetypes="csssscssc" />
</svg>
