<?xml version="1.0" encoding="UTF-8" standalone="no"?>
<!-- Created with Inkscape (http://www.inkscape.org/) -->

<svg
   width="32"
   height="32"
   viewBox="0 0 8.4666665 8.466667"
   version="1.1"
   id="svg5"
   inkscape:version="1.2 (dc2aedaf03, 2022-05-15)"
   sodipodi:docname="accessories-podcast.svg"
   xmlns:inkscape="http://www.inkscape.org/namespaces/inkscape"
   xmlns:sodipodi="http://sodipodi.sourceforge.net/DTD/sodipodi-0.dtd"
   xmlns="http://www.w3.org/2000/svg"
   xmlns:svg="http://www.w3.org/2000/svg">
  <sodipodi:namedview
     id="namedview7"
     pagecolor="#ffffff"
     bordercolor="#666666"
     borderopacity="1.0"
     inkscape:pageshadow="2"
     inkscape:pageopacity="0.0"
     inkscape:pagecheckerboard="0"
     inkscape:document-units="px"
     showgrid="false"
     units="px"
     height="64px"
     inkscape:zoom="18.73833"
     inkscape:cx="2.1079787"
     inkscape:cy="18.17131"
     inkscape:window-width="1920"
     inkscape:window-height="1011"
     inkscape:window-x="0"
     inkscape:window-y="0"
     inkscape:window-maximized="1"
     inkscape:current-layer="svg5"
     inkscape:showpageshadow="2"
     inkscape:deskcolor="#d1d1d1" />
  <defs
     id="defs2" />
  <rect
     style="fill:#c462ed;stroke-width:0.264583;fill-opacity:1"
     id="rect846"
     width="7.9375"
     height="7.9375"
     x="0.26458335"
     y="0.26458335"
     ry="1.5875" />
  <path
     id="path863"
     style="fill:#ffffff;fill-opacity:1;stroke-width:0.996155;stroke-linecap:round;stroke-linejoin:round"
     d="M 4.2333334 1.5875 C 2.7720827 1.5874999 1.5874999 2.7720827 1.5875 4.2333334 C 1.5887766 5.2926718 2.2200079 6.2391999 3.175 6.6554078 L 3.175 6.3639527 C 2.3728385 5.9663289 1.8529665 5.1448849 1.8520834 4.2333334 C 1.8520833 2.9182079 2.9182079 1.8520833 4.2333334 1.8520834 C 5.5484589 1.8520833 6.6145835 2.9182079 6.6145834 4.2333334 C 6.6137002 5.1448849 6.0938282 5.9663289 5.2916667 6.3639527 L 5.2916667 6.6554078 C 6.2466588 6.2391998 6.8778903 5.2926718 6.8791667 4.2333334 C 6.8791668 2.7720828 5.6945838 1.5874999 4.2333334 1.5875 z M 4.2333334 2.6458334 C 3.3565831 2.6458333 2.6458333 3.3565831 2.6458334 4.2333334 C 2.6458973 4.6899685 2.8421591 5.1185029 3.175 5.4162069 L 3.175 5.0270834 L 3.1765503 5.0270834 C 3.0062598 4.8008744 2.9108403 4.5230785 2.9104167 4.2333334 C 2.9104166 3.5027081 3.5027081 2.9104166 4.2333334 2.9104167 C 4.9639585 2.9104166 5.5562502 3.5027081 5.5562501 4.2333334 C 5.5558265 4.5230785 5.4604071 4.8008744 5.2901164 5.0270834 L 5.2916667 5.0270834 L 5.2916667 5.4162069 C 5.6245077 5.1185029 5.8207695 4.6899685 5.8208334 4.2333334 C 5.8208335 3.3565831 5.1100837 2.6458333 4.2333334 2.6458334 z M 4.2333334 3.7041667 C 3.9410833 3.7041667 3.7041667 3.9410833 3.7041667 4.2333334 C 3.7041667 4.5255835 3.9410833 4.7625 4.2333334 4.7625 C 4.5255834 4.7625 4.7625 4.5255834 4.7625 4.2333334 C 4.7625 3.9410833 4.5255835 3.7041667 4.2333334 3.7041667 z M 4.2193807 5.0270834 C 3.9326046 5.0343004 3.7041667 5.2676728 3.7041667 5.5562501 L 3.7041667 6.8791667 C 3.7041667 7.1723245 3.9401756 7.4083334 4.2333334 7.4083334 C 4.5264911 7.4083334 4.7625 7.1723245 4.7625 6.8791667 L 4.7625 5.5562501 C 4.7625 5.2630922 4.5264911 5.0270834 4.2333334 5.0270834 C 4.2287528 5.0270834 4.2239327 5.0269688 4.2193807 5.0270834 z " />
  <path
     id="rect1107"
     style="opacity:0.2;fill:#ffffff;stroke-width:0.79375;stroke-linejoin:round"
     d="m 1.8520834,0.26458334 c -0.8794751,0 -1.58750006,0.70802492 -1.58750006,1.58750006 v 0.2645834 c 0,-0.8794751 0.70802496,-1.58750012 1.58750006,-1.58750012 h 4.7625001 c 0.879475,0 1.5875001,0.70802502 1.5875001,1.58750012 V 1.8520834 c 0,-0.87947514 -0.7080251,-1.58750006 -1.5875001,-1.58750006 z"
     sodipodi:nodetypes="sscsscsss" />
  <path
     id="rect1153"
     style="opacity:0.2;fill:#000000;stroke-width:0.79375;stroke-linejoin:round"
     d="m 0.26458334,6.3500001 v 0.2645834 c 0,0.879475 0.70802496,1.5875 1.58750006,1.5875 h 4.7625001 c 0.879475,0 1.5875001,-0.708025 1.5875001,-1.5875 V 6.3500001 c 0,0.879475 -0.7080251,1.5875001 -1.5875001,1.5875001 H 1.8520834 c -0.8794751,0 -1.58750006,-0.7080251 -1.58750006,-1.5875001 z"
     sodipodi:nodetypes="csssscssc" />
</svg>
