<?xml version="1.0" encoding="UTF-8" standalone="no"?>
<!-- Created with Inkscape (http://www.inkscape.org/) -->

<svg
   width="32"
   height="32"
   viewBox="0 0 8.4666665 8.466667"
   version="1.1"
   id="svg5"
   inkscape:version="1.2 (dc2aedaf03, 2022-05-15)"
   sodipodi:docname="accessories-calculator.svg"
   xmlns:inkscape="http://www.inkscape.org/namespaces/inkscape"
   xmlns:sodipodi="http://sodipodi.sourceforge.net/DTD/sodipodi-0.dtd"
   xmlns="http://www.w3.org/2000/svg"
   xmlns:svg="http://www.w3.org/2000/svg">
  <sodipodi:namedview
     id="namedview7"
     pagecolor="#ffffff"
     bordercolor="#666666"
     borderopacity="1.0"
     inkscape:pageshadow="2"
     inkscape:pageopacity="0.0"
     inkscape:pagecheckerboard="0"
     inkscape:document-units="px"
     showgrid="false"
     units="px"
     height="64px"
     inkscape:zoom="24.84375"
     inkscape:cx="16.040252"
     inkscape:cy="16.040252"
     inkscape:window-width="1920"
     inkscape:window-height="1011"
     inkscape:window-x="0"
     inkscape:window-y="0"
     inkscape:window-maximized="1"
     inkscape:current-layer="svg5"
     inkscape:showpageshadow="2"
     inkscape:deskcolor="#d1d1d1" />
  <defs
     id="defs2" />
  <rect
     style="fill:#cdcdcd;stroke-width:0.264583;fill-opacity:1"
     id="rect846"
     width="7.9375"
     height="7.9375"
     x="0.26458335"
     y="0.26458335"
     ry="1.5875" />
  <rect
     style="opacity:0.2;fill:#000000;fill-opacity:1;stroke-width:0.396875;stroke-linejoin:round"
     id="rect4685"
     width="4.2333336"
     height="5.8208332"
     x="2.1166666"
     y="1.5875003"
     ry="0.5291667" />
  <rect
     style="fill:#3e3e3e;fill-opacity:1;stroke-width:0.396875;stroke-linejoin:round"
     id="rect953"
     width="4.2333336"
     height="5.8208327"
     x="2.1166666"
     y="1.322917"
     ry="0.5291667" />
  <path
     id="path1563"
     style="fill:#e6e6e6;fill-opacity:1;stroke-width:0.297656;stroke-linejoin:round"
     d="M 2.9104165,3.307292 A 0.39687498,0.39687498 0 0 0 2.5135415,3.7041671 0.39687498,0.39687498 0 0 0 2.9104165,4.101042 0.39687498,0.39687498 0 0 0 3.3072914,3.7041671 0.39687498,0.39687498 0 0 0 2.9104165,3.307292 Z m 1.3229166,0 A 0.39687498,0.39687498 0 0 0 3.8364581,3.7041671 0.39687498,0.39687498 0 0 0 4.2333331,4.101042 0.39687498,0.39687498 0 0 0 4.6302081,3.7041671 0.39687498,0.39687498 0 0 0 4.2333331,3.307292 Z M 2.9104165,4.6302087 a 0.39687498,0.39687498 0 0 0 -0.396875,0.396875 0.39687498,0.39687498 0 0 0 0.396875,0.396875 0.39687498,0.39687498 0 0 0 0.3968749,-0.396875 0.39687498,0.39687498 0 0 0 -0.3968749,-0.396875 z m 1.3229166,0 a 0.39687498,0.39687498 0 0 0 -0.396875,0.396875 0.39687498,0.39687498 0 0 0 0.396875,0.396875 0.39687498,0.39687498 0 0 0 0.396875,-0.396875 0.39687498,0.39687498 0 0 0 -0.396875,-0.396875 z m -1.3229166,1.322917 c -0.2198688,0 -0.396875,0.177006 -0.396875,0.396875 0,0.2198685 0.1770062,0.396875 0.396875,0.396875 h 1.3229166 c 0.2198687,0 0.396875,-0.1770065 0.396875,-0.396875 0,-0.219869 -0.1770063,-0.396875 -0.396875,-0.396875 z" />
  <rect
     style="fill:#646464;fill-opacity:1;stroke-width:0.396875;stroke-linejoin:round"
     id="rect2098"
     width="3.4395831"
     height="1.0583334"
     x="2.5135415"
     y="1.8520837"
     ry="0.26458335" />
  <path
     id="path4122"
     style="fill:#ee8823;fill-opacity:1;stroke-width:0.396875;stroke-linejoin:round"
     d="m 5.5562498,3.3072921 a 0.39687498,0.39687498 0 0 0 -0.396875,0.396875 0.39687498,0.39687498 0 0 0 0.396875,0.396875 0.39687498,0.39687498 0 0 0 0.396875,-0.396875 0.39687498,0.39687498 0 0 0 -0.396875,-0.396875 z m 0,1.3229166 a 0.39687498,0.39687498 0 0 0 -0.396875,0.396875 0.39687498,0.39687498 0 0 0 0.396875,0.396875 0.39687498,0.39687498 0 0 0 0.396875,-0.396875 0.39687498,0.39687498 0 0 0 -0.396875,-0.396875 z m 0,1.3229166 a 0.39687498,0.39687498 0 0 0 -0.396875,0.396875 0.39687498,0.39687498 0 0 0 0.396875,0.396875 0.39687498,0.39687498 0 0 0 0.396875,-0.396875 0.39687498,0.39687498 0 0 0 -0.396875,-0.396875 z" />
  <path
     id="rect5017"
     style="opacity:0.2;fill:#ffffff;fill-opacity:1;stroke-width:0.396875;stroke-linejoin:round"
     d="m 2.6458331,1.3229172 c -0.2931583,0 -0.5291667,0.2360083 -0.5291667,0.5291667 v 0.2645832 c 0,-0.2931583 0.2360084,-0.5291666 0.5291667,-0.5291666 h 3.175 c 0.2931584,0 0.5291667,0.2360083 0.5291667,0.5291666 V 1.8520839 c 0,-0.2931584 -0.2360083,-0.5291667 -0.5291667,-0.5291667 z"
     sodipodi:nodetypes="sscsscsss" />
  <path
     id="rect1107"
     style="opacity:0.2;fill:#ffffff;stroke-width:0.79375;stroke-linejoin:round"
     d="m 1.8520834,0.26458334 c -0.8794751,0 -1.58750006,0.70802492 -1.58750006,1.58750006 v 0.2645834 c 0,-0.8794751 0.70802496,-1.58750012 1.58750006,-1.58750012 h 4.7625001 c 0.879475,0 1.5875001,0.70802502 1.5875001,1.58750012 V 1.8520834 c 0,-0.87947514 -0.7080251,-1.58750006 -1.5875001,-1.58750006 z"
     sodipodi:nodetypes="sscsscsss" />
  <path
     id="rect1153"
     style="opacity:0.2;fill:#000000;stroke-width:0.79375;stroke-linejoin:round"
     d="m 0.26458334,6.3500001 v 0.2645834 c 0,0.879475 0.70802496,1.5875 1.58750006,1.5875 h 4.7625001 c 0.879475,0 1.5875001,-0.708025 1.5875001,-1.5875 V 6.3500001 c 0,0.879475 -0.7080251,1.5875001 -1.5875001,1.5875001 H 1.8520834 c -0.8794751,0 -1.58750006,-0.7080251 -1.58750006,-1.5875001 z"
     sodipodi:nodetypes="csssscssc" />
</svg>
