<?xml version="1.0" encoding="UTF-8" standalone="no"?>
<!-- Created with Inkscape (http://www.inkscape.org/) -->

<svg
   width="32"
   height="32"
   viewBox="0 0 8.4666665 8.466667"
   version="1.1"
   id="svg5"
   inkscape:version="1.2 (dc2aedaf03, 2022-05-15)"
   sodipodi:docname="androidstudio-preview.svg"
   xmlns:inkscape="http://www.inkscape.org/namespaces/inkscape"
   xmlns:sodipodi="http://sodipodi.sourceforge.net/DTD/sodipodi-0.dtd"
   xmlns="http://www.w3.org/2000/svg"
   xmlns:svg="http://www.w3.org/2000/svg">
  <sodipodi:namedview
     id="namedview7"
     pagecolor="#ffffff"
     bordercolor="#666666"
     borderopacity="1.0"
     inkscape:pageshadow="2"
     inkscape:pageopacity="0.0"
     inkscape:pagecheckerboard="0"
     inkscape:document-units="px"
     showgrid="false"
     units="px"
     height="64px"
     inkscape:zoom="27.0625"
     inkscape:cx="16"
     inkscape:cy="16"
     inkscape:window-width="1920"
     inkscape:window-height="1024"
     inkscape:window-x="0"
     inkscape:window-y="32"
     inkscape:window-maximized="1"
     inkscape:current-layer="svg5"
     inkscape:showpageshadow="2"
     inkscape:deskcolor="#d1d1d1" />
  <defs
     id="defs2" />
  <rect
     style="fill:#f8f8f8;stroke-width:0.264583;fill-opacity:1"
     id="rect846"
     width="7.9375"
     height="7.9375"
     x="0.26458335"
     y="0.26458335"
     ry="1.5875" />
  <path
     d="M 2.116673,3.0046084 V 5.924327 c 7.514e-4,0.23431 0.1907517,0.4243057 0.4252971,0.4258138 h 3.2788695 v 0.6397543 c -2.11e-5,0.011605 0.00804,0.020979 0.018604,0.021704 h 0.1638139 c 0.1915797,-7.673e-4 0.34675,-0.1713356 0.3467487,-0.381372 V 6.3501408 3.8469344 c 0,-0.00348 6.82e-5,-0.00692 0,-0.010335 -0.0091,-0.4559002 -0.6206338,-0.396875 -0.6206338,-0.396875 H 2.5709089 C 2.3240393,3.4548714 2.115353,3.2516882 2.116673,3.0046084 Z"
     style="opacity:0.2;fill:#000000;stroke-width:0.264583"
     id="path6250" />
  <path
     d="M 3.6918491,2.3812788 H 2.5396804 C 2.3059391,2.3819861 2.1168541,2.5597525 2.1168554,2.7787935 2.1099069,2.9957449 2.2957498,3.1751236 2.5273667,3.1750257 H 3.704164 Z"
     style="fill:#ff8802;stroke-width:0.264583;fill-opacity:1"
     id="path407"
     sodipodi:nodetypes="cccccc" />
  <path
     id="path6130"
     style="opacity:0.2;fill:#000000;stroke-width:0.264583"
     d="m 2.5285279,2.3812501 c -0.2286804,0.00611 -0.4118624,0.1817734 -0.4118612,0.3973917 -0.00154,0.048013 0.00647,0.094148 0.022221,0.1369426 0.056601,-0.1564909 0.2149229,-0.2691879 0.401009,-0.269751 h 1.1518677 l 0.00827,0.5291667 h 0.00413 l -0.012402,-0.79375 H 2.5398967 c -0.00365,1.1e-5 -0.00774,-9.7e-5 -0.011369,0 z" />
  <path
     d="m 3.3750271,1.5875221 c -0.053012,-0.00132 -0.085955,0.057143 -0.057361,0.1018022 L 3.5414245,2.0489909 C 3.1498393,2.2893008 2.910978,2.7155733 2.9104577,3.175016 c 0,0.7306237 0.5922877,1.3229115 1.3229115,1.3229115 0.7306239,0 1.3229117,-0.5922875 1.3229117,-1.3229115 C 5.5556194,2.7156139 5.3166615,2.2894481 4.9250557,2.0492492 L 5.149072,1.6893243 C 5.177666,1.6446653 5.144722,1.5861998 5.091711,1.5875221 5.069187,1.5881756 5.048545,1.6002491 5.036934,1.6195611 L 4.8090425,1.9856875 C 4.6296793,1.8983205 4.4328783,1.8526534 4.2333692,1.8521044 4.033813,1.8524537 3.8369212,1.8979444 3.6574376,1.9851707 L 3.4298038,1.6195614 c -0.01161,-0.019312 -0.032253,-0.031386 -0.054777,-0.032039 z"
     style="fill:#3ddc84;stroke-width:0.264583"
     id="path440"
     sodipodi:nodetypes="ccccscccccccccc" />
  <path
     id="path5136"
     style="opacity:0.2;fill:#ffffff;stroke-width:0.264583"
     d="M 3.3749879,1.5875 C 3.3219759,1.58618 3.2890329,1.644643 3.3176269,1.6893026 l 0.024288,0.038757 c 0.00966,-0.00528 0.020691,-0.00858 0.033073,-0.00827 0.022524,6.533e-4 0.043167,0.012727 0.054777,0.032039 l 0.2273763,0.365869 c 0.1794834,-0.087226 0.3766362,-0.1329759 0.5761922,-0.1333252 0.1995089,5.49e-4 0.3963125,0.046475 0.5756755,0.1338419 L 5.036902,1.7518311 c 0.011611,-0.019312 0.032253,-0.031386 0.054777,-0.032039 0.012381,-3.088e-4 0.023409,0.00299 0.033073,0.00827 L 5.14904,1.6893051 C 5.177634,1.6446461 5.14469,1.5861802 5.091679,1.5875025 5.069155,1.588156 5.048513,1.6002295 5.036902,1.6195415 L 4.8090089,1.9859253 C 4.6296459,1.8985584 4.4328423,1.8526324 4.2333334,1.8520834 4.0337774,1.8524327 3.8371414,1.8981824 3.657658,1.9854086 L 3.4297649,1.6195394 C 3.4181549,1.6002274 3.3975119,1.5881534 3.3749879,1.5875 Z m 0.1080037,0.4997112 c -0.3567579,0.2456611 -0.572081,0.6516836 -0.5725748,1.0877889 0,0.022832 4.073e-4,0.045665 0.00155,0.068213 0.021529,-0.434728 0.2561119,-0.8328579 0.629419,-1.0619507 z m 1.5006836,0 -0.058911,0.094568 c 0.3733268,0.2289871 0.6082758,0.6267504 0.6299357,1.061434 0.00114,-0.022548 0.00155,-0.045381 0.00155,-0.068213 C 5.5556223,2.7389617 5.3404183,2.3327724 4.9836752,2.0872112 Z" />
  <path
     d="m 3.5718751,2.7781251 c -0.073063,0 -0.1322917,0.059229 -0.1322917,0.1322918 0,0.073063 0.059229,0.1322917 0.1322917,0.1322917 0.073063,0 0.1322917,-0.059229 0.1322917,-0.1322917 0,-0.073063 -0.059229,-0.1322918 -0.1322917,-0.1322918 z m 1.3229167,0 c -0.073063,0 -0.1322917,0.059229 -0.1322917,0.1322918 0,0.073063 0.059229,0.1322917 0.1322917,0.1322917 0.073063,-1e-7 0.1322916,-0.059229 0.1322916,-0.1322917 0,-0.073063 -0.059229,-0.1322917 -0.1322916,-0.1322918 z"
     style="opacity:0.2;fill:#000000;fill-opacity:1;stroke-width:0.132291"
     id="path5103" />
  <path
     d="M 6.3502084,6.085431 H 2.5417447 C 2.3071991,6.0839229 2.1176484,5.8939481 2.116897,5.6596378 V 2.7400323 c -0.00132,0.2470799 0.2069457,0.4501405 0.4538155,0.4349934 h 3.1587768 c 0,0 0.6207191,-0.060185 0.6207191,0.4069477 z"
     style="fill:#ffc802;stroke-width:0.264583;fill-opacity:1"
     id="path374" />
  <circle
     style="opacity:1;fill:#e7521d;fill-opacity:1;stroke-width:0.30868"
     id="path769"
     cx="4.2002602"
     cy="4.3986979"
     r="0.23151042" />
  <path
     d="m 4.099035,3.8364748 c -0.072921,0.00114 -0.131167,0.060651 -0.130224,0.1330664 v 0.1547701 c -0.1583769,0.055995 -0.2643465,0.2056353 -0.2645823,0.3736192 1.728e-4,0.1176179 0.052507,0.2291006 0.1428846,0.304373 L 2.9329608,6.7130321 c -0.034774,0.067248 -0.028768,0.147206 0.015761,0.2090307 0.045179,0.061246 0.1210945,0.094911 0.1994703,0.088624 0.078401,-0.00716 0.1465671,-0.054303 0.1780246,-0.1229894 L 3.9378053,5.6516023 c 0.029499,-0.057431 0.090675,-0.095076 0.1578708,-0.095343 0.00188,-5.5e-6 0.00356,7.144e-4 0.00543,7.673e-4 0.00188,-5.29e-5 0.00355,-7.673e-4 0.00543,-7.673e-4 0.067196,2.646e-4 0.1283711,0.037912 0.1578708,0.095343 L 4.875995,6.8876979 C 4.907453,6.9563839 4.975618,7.0035251 5.0540196,7.0106873 5.1323956,7.0169773 5.2083111,6.9833093 5.25349,6.9220633 5.298019,6.8602383 5.304025,6.7802802 5.269251,6.7130326 L 4.355349,4.8028202 C 4.445769,4.7273825 4.4980198,4.6156868 4.4979756,4.4979303 4.4978491,4.3298516 4.3918594,4.1800791 4.2333933,4.1240528 V 3.9695409 C 4.2343458,3.8955174 4.1735744,3.8353191 4.099035,3.8364748 Z m 0.00206,0.3968734 c 0.1461249,0 0.2645823,0.1184574 0.2645823,0.2645821 0,0.1461248 -0.1184574,0.2645822 -0.2645823,0.2645822 -0.1461249,0 -0.2645823,-0.1184574 -0.2645823,-0.2645822 0,-0.1461247 0.1184574,-0.2645821 0.2645823,-0.2645821 z"
     style="opacity:0.1;fill:#000000;stroke-width:0.264583"
     id="path6177" />
  <path
     d="M 4.099035,3.7042177 C 4.026114,3.7053577 3.967868,3.7648687 3.968811,3.8372841 V 3.9920542 C 3.8104341,4.0480492 3.7044645,4.1976895 3.7042287,4.3656734 3.7044015,4.4832913 3.7567357,4.594774 3.8471133,4.6700464 L 2.9329608,6.5807749 c -0.034774,0.067248 -0.028768,0.147206 0.015761,0.2090307 0.045179,0.061246 0.1210945,0.094911 0.1994703,0.088624 0.078401,-0.00716 0.1465671,-0.054303 0.1780246,-0.1229894 l 0.6115886,-1.236095 c 0.029499,-0.057431 0.090675,-0.095076 0.1578708,-0.095343 0.00188,-5.5e-6 0.00356,7.144e-4 0.00543,7.673e-4 0.00188,-5.29e-5 0.00355,-7.673e-4 0.00543,-7.673e-4 0.067196,2.646e-4 0.1283711,0.037912 0.1578708,0.095343 L 4.875995,6.7554407 C 4.907453,6.8241267 4.975618,6.8712679 5.0540196,6.8784301 5.1323956,6.8847201 5.2083111,6.8510521 5.25349,6.7898061 5.298019,6.7279811 5.304025,6.648023 5.269251,6.5807754 L 4.355349,4.6705631 C 4.445769,4.5951254 4.4980198,4.4834297 4.4979756,4.3656732 4.4978491,4.1975945 4.3918594,4.047822 4.2333933,3.9917957 V 3.8372838 C 4.2343458,3.7632603 4.1735744,3.703062 4.099035,3.7042177 Z m 0.00206,0.3968734 c 0.1461249,0 0.2645823,0.1184574 0.2645823,0.2645821 0,0.1461248 -0.1184574,0.2645822 -0.2645823,0.2645822 -0.1461249,0 -0.2645823,-0.1184574 -0.2645823,-0.2645822 0,-0.1461247 0.1184574,-0.2645821 0.2645823,-0.2645821 z"
     style="fill:#ff8802;stroke-width:0.264583;fill-opacity:1"
     id="path506"
     sodipodi:nodetypes="cccccccccccccccccccccccsssss" />
  <path
     d="M 5.9997535,3.9687727 H 5.8408784 c -0.01106,0 -0.020016,0.00745 -0.020016,0.019571 v 2.7365997 c -2.11e-5,0.011605 0.0082,0.02122 0.018764,0.021945 H 6.0035053 C 6.1950853,6.746121 6.3500272,6.5756521 6.3500259,6.3656155 V 3.5718991 c 5.3e-6,0.2116471 -0.1572279,0.3983961 -0.3502737,0.3968736 z"
     style="fill:#ff8802;stroke-width:0.264583;fill-opacity:1"
     id="path473" />
  <path
     id="rect1107"
     style="opacity:0.2;fill:#ffffff;stroke-width:0.79375;stroke-linejoin:round"
     d="m 1.8520834,0.26458334 c -0.8794751,0 -1.58750006,0.70802492 -1.58750006,1.58750006 v 0.2645834 c 0,-0.8794751 0.70802496,-1.58750012 1.58750006,-1.58750012 h 4.7625001 c 0.879475,0 1.5875001,0.70802502 1.5875001,1.58750012 V 1.8520834 c 0,-0.87947514 -0.7080251,-1.58750006 -1.5875001,-1.58750006 z"
     sodipodi:nodetypes="sscsscsss" />
  <path
     id="rect1153"
     style="opacity:0.2;fill:#000000;stroke-width:0.79375;stroke-linejoin:round"
     d="m 0.26458334,6.3500001 v 0.2645834 c 0,0.879475 0.70802496,1.5875 1.58750006,1.5875 h 4.7625001 c 0.879475,0 1.5875001,-0.708025 1.5875001,-1.5875 V 6.3500001 c 0,0.879475 -0.7080251,1.5875001 -1.5875001,1.5875001 H 1.8520834 c -0.8794751,0 -1.58750006,-0.7080251 -1.58750006,-1.5875001 z"
     sodipodi:nodetypes="csssscssc" />
  <path
     id="path3556"
     style="opacity:1;fill:#ffffff;fill-opacity:1;stroke-width:0.132291"
     d="m 3.5718751,2.6458334 c -0.073063,0 -0.1322917,0.059229 -0.1322917,0.1322917 0,0.073063 0.059229,0.1322917 0.1322917,0.1322917 0.073063,0 0.1322917,-0.059229 0.1322917,-0.1322917 0,-0.073063 -0.059229,-0.1322917 -0.1322917,-0.1322917 z m 1.3229167,0 c -0.073063,0 -0.1322917,0.059229 -0.1322917,0.1322917 0,0.073063 0.059229,0.1322917 0.1322917,0.1322917 0.073063,0 0.1322916,-0.059229 0.1322916,-0.1322917 0,-0.073063 -0.059229,-0.1322917 -0.1322916,-0.1322917 z"
     sodipodi:nodetypes="ssssssssss" />
</svg>
