<?xml version="1.0" encoding="UTF-8" standalone="no"?>
<!-- Created with Inkscape (http://www.inkscape.org/) -->

<svg
   width="32"
   height="32"
   viewBox="0 0 8.4666665 8.466667"
   version="1.1"
   id="svg5"
   inkscape:version="1.2 (dc2aedaf03, 2022-05-15)"
   sodipodi:docname="applications-all.svg"
   xmlns:inkscape="http://www.inkscape.org/namespaces/inkscape"
   xmlns:sodipodi="http://sodipodi.sourceforge.net/DTD/sodipodi-0.dtd"
   xmlns="http://www.w3.org/2000/svg"
   xmlns:svg="http://www.w3.org/2000/svg">
  <sodipodi:namedview
     id="namedview7"
     pagecolor="#ffffff"
     bordercolor="#666666"
     borderopacity="1.0"
     inkscape:pageshadow="2"
     inkscape:pageopacity="0.0"
     inkscape:pagecheckerboard="0"
     inkscape:document-units="px"
     showgrid="false"
     units="px"
     height="64px"
     inkscape:zoom="27.0625"
     inkscape:cx="16.018476"
     inkscape:cy="16"
     inkscape:window-width="1920"
     inkscape:window-height="1024"
     inkscape:window-x="0"
     inkscape:window-y="32"
     inkscape:window-maximized="1"
     inkscape:current-layer="svg5"
     inkscape:showpageshadow="2"
     inkscape:deskcolor="#d1d1d1" />
  <defs
     id="defs2" />
  <rect
     style="fill:#f8f8f8;stroke-width:0.264583;fill-opacity:1"
     id="rect846"
     width="7.9375"
     height="7.9375"
     x="0.26458335"
     y="0.26458335"
     ry="1.5875" />
  <path
     d="M 1.8381307,1.5875509 C 1.5513543,1.5947709 1.3229166,1.8281402 1.3229166,2.1167176 v 0.5291667 c 0,0.293158 0.2360087,0.5291666 0.5291667,0.5291666 H 2.38125 c 0.293158,0 0.5291666,-0.2360086 0.5291666,-0.5291666 V 2.1167176 c 0,-0.293158 -0.2360086,-0.5291667 -0.5291666,-0.5291667 H 1.8520833 c -0.00458,0 -0.0094,-1.145e-4 -0.013953,0 z m 2.1166667,0 C 3.6680209,1.5947709 3.4395833,1.8281402 3.4395833,2.1167176 v 0.5291667 c 0,0.293158 0.2360087,0.5291666 0.5291667,0.5291666 h 0.5291667 c 0.2931579,0 0.5291665,-0.2360086 0.5291665,-0.5291666 V 2.1167176 c 0,-0.293158 -0.2360086,-0.5291667 -0.5291665,-0.5291667 H 3.96875 c -0.00458,0 -0.0094,-1.145e-4 -0.013953,0 z m 2.1166665,0 c -0.2867764,0.00722 -0.515214,0.2405893 -0.515214,0.5291667 v 0.5291667 c 0,0.293158 0.2360087,0.5291666 0.5291667,0.5291666 h 0.5291671 c 0.293158,0 0.529167,-0.2360086 0.529167,-0.5291666 V 2.1167176 c 0,-0.293158 -0.236009,-0.5291667 -0.529167,-0.5291667 H 6.0854166 c -0.00458,0 -0.0094,-1.145e-4 -0.013953,0 z M 1.8381307,3.7042176 C 1.5513542,3.7114376 1.3229166,3.9448068 1.3229166,4.2333843 V 4.762551 c 0,0.2931581 0.2360086,0.5291667 0.5291667,0.5291667 H 2.38125 c 0.293158,0 0.5291666,-0.2360086 0.5291666,-0.5291667 V 4.2333843 C 2.9104166,3.9402262 2.674408,3.7042176 2.38125,3.7042176 H 1.8520833 c -0.00458,0 -0.0094,-1.146e-4 -0.013953,0 z m 2.1166667,0 C 3.6680209,3.7114376 3.4395833,3.9448068 3.4395833,4.2333843 V 4.762551 c 0,0.2931581 0.2360086,0.5291667 0.5291667,0.5291667 h 0.5291667 c 0.2931579,0 0.5291665,-0.2360086 0.5291665,-0.5291667 V 4.2333843 c 0,-0.2931581 -0.2360086,-0.5291667 -0.5291665,-0.5291667 H 3.96875 c -0.00458,0 -0.0094,-1.146e-4 -0.013953,0 z m 2.1166665,0 c -0.2867764,0.00722 -0.515214,0.2405892 -0.515214,0.5291667 V 4.762551 c 0,0.2931581 0.2360086,0.5291667 0.5291667,0.5291667 h 0.5291671 c 0.293158,0 0.529167,-0.2360086 0.529167,-0.5291667 V 4.2333843 c 0,-0.2931581 -0.236009,-0.5291667 -0.529167,-0.5291667 H 6.0854166 c -0.00458,0 -0.0094,-1.146e-4 -0.013953,0 z M 1.8381307,5.8208844 C 1.5513542,5.8281044 1.3229166,6.0614736 1.3229166,6.3500511 v 0.5291666 c 0,0.2931581 0.2360086,0.5291667 0.5291667,0.5291667 H 2.38125 c 0.293158,0 0.5291666,-0.2360086 0.5291666,-0.5291667 V 6.3500511 C 2.9104166,6.056893 2.674408,5.8208844 2.38125,5.8208844 H 1.8520833 c -0.00458,0 -0.0094,-1.146e-4 -0.013953,0 z m 2.1166667,0 C 3.6680209,5.8281044 3.4395833,6.0614736 3.4395833,6.3500511 v 0.5291666 c 0,0.2931581 0.2360086,0.5291667 0.5291667,0.5291667 h 0.5291667 c 0.2931579,0 0.5291665,-0.2360086 0.5291665,-0.5291667 V 6.3500511 c 0,-0.2931581 -0.2360086,-0.5291667 -0.5291665,-0.5291667 H 3.96875 c -0.00458,0 -0.0094,-1.146e-4 -0.013953,0 z m 2.1166665,0 c -0.2867764,0.00722 -0.515214,0.2405892 -0.515214,0.5291667 v 0.5291666 c 0,0.2931581 0.2360086,0.5291667 0.5291667,0.5291667 h 0.5291671 c 0.293158,0 0.529167,-0.2360086 0.529167,-0.5291667 V 6.3500511 c 0,-0.2931581 -0.236009,-0.5291667 -0.529167,-0.5291667 H 6.0854166 c -0.00458,0 -0.0094,-1.146e-4 -0.013953,0 z"
     style="fill:#000000;fill-opacity:1;stroke-width:0.55396;opacity:0.2"
     id="path15535" />
  <rect
     style="fill:#12e55b;fill-opacity:1;stroke-width:0.55396"
     id="rect1698"
     width="1.5875"
     height="1.5875"
     x="1.3229166"
     y="1.3229169"
     ry="0.52916664" />
  <rect
     style="fill:#e46b01;fill-opacity:1;stroke-width:0.55396"
     id="rect1698-3"
     width="1.5875"
     height="1.5875"
     x="5.5562501"
     y="1.3229169"
     ry="0.52916664" />
  <rect
     style="fill:#ffc901;fill-opacity:1;stroke-width:0.55396"
     id="rect1698-3-6"
     width="1.5875"
     height="1.5875"
     x="3.4395828"
     y="1.3229166"
     ry="0.52916664" />
  <rect
     style="fill:#cf1818;fill-opacity:1;stroke-width:0.461633"
     id="rect1698-7"
     width="1.5875"
     height="1.5875"
     x="1.3229166"
     y="3.4395833"
     ry="0.5291667" />
  <rect
     style="fill:#f16f58;fill-opacity:1;stroke-width:0.461633"
     id="rect1698-3-5"
     width="1.5875"
     height="1.5875"
     x="5.5562501"
     y="3.4395833"
     ry="0.5291667" />
  <rect
     style="fill:#bd23ab;fill-opacity:1;stroke-width:0.461633"
     id="rect1698-7-5"
     width="1.5875"
     height="1.5875"
     x="1.3229166"
     y="5.5562501"
     ry="0.5291667" />
  <rect
     style="fill:#60b5a8;fill-opacity:1;stroke-width:0.461633"
     id="rect1698-3-5-6"
     width="1.5875"
     height="1.5875"
     x="5.5562501"
     y="5.5562501"
     ry="0.5291667" />
  <rect
     style="fill:#2382e4;fill-opacity:1;stroke-width:0.461633"
     id="rect1698-3-6-3-2"
     width="1.5875"
     height="1.5875"
     x="3.4395828"
     y="5.5562501"
     ry="0.5291667" />
  <rect
     style="fill:#808080;fill-opacity:1;stroke-width:0.461633"
     id="rect1698-3-6-3"
     width="1.5875"
     height="1.5875"
     x="3.4395828"
     y="3.4395833"
     ry="0.5291667" />
  <path
     id="rect1107"
     style="opacity:0.2;fill:#ffffff;stroke-width:0.79375;stroke-linejoin:round"
     d="m 1.8520834,0.26458334 c -0.8794751,0 -1.58750006,0.70802492 -1.58750006,1.58750006 v 0.2645834 c 0,-0.8794751 0.70802496,-1.58750012 1.58750006,-1.58750012 h 4.7625001 c 0.879475,0 1.5875001,0.70802502 1.5875001,1.58750012 V 1.8520834 c 0,-0.87947514 -0.7080251,-1.58750006 -1.5875001,-1.58750006 z"
     sodipodi:nodetypes="sscsscsss" />
  <path
     id="rect1153"
     style="opacity:0.2;fill:#000000;stroke-width:0.79375;stroke-linejoin:round"
     d="m 0.26458334,6.3500001 v 0.2645834 c 0,0.879475 0.70802496,1.5875 1.58750006,1.5875 h 4.7625001 c 0.879475,0 1.5875001,-0.708025 1.5875001,-1.5875 V 6.3500001 c 0,0.879475 -0.7080251,1.5875001 -1.5875001,1.5875001 H 1.8520834 c -0.8794751,0 -1.58750006,-0.7080251 -1.58750006,-1.5875001 z"
     sodipodi:nodetypes="csssscssc" />
</svg>
