<?xml version="1.0" encoding="UTF-8" standalone="no"?>
<!-- Created with Inkscape (http://www.inkscape.org/) -->

<svg
   width="32"
   height="32"
   viewBox="0 0 8.4666665 8.466667"
   version="1.1"
   id="svg5"
   inkscape:version="1.2 (dc2aedaf03, 2022-05-15)"
   sodipodi:docname="desktop-environment-kde.svg"
   xmlns:inkscape="http://www.inkscape.org/namespaces/inkscape"
   xmlns:sodipodi="http://sodipodi.sourceforge.net/DTD/sodipodi-0.dtd"
   xmlns="http://www.w3.org/2000/svg"
   xmlns:svg="http://www.w3.org/2000/svg">
  <sodipodi:namedview
     id="namedview7"
     pagecolor="#ffffff"
     bordercolor="#666666"
     borderopacity="1.0"
     inkscape:pageshadow="2"
     inkscape:pageopacity="0.0"
     inkscape:pagecheckerboard="0"
     inkscape:document-units="px"
     showgrid="false"
     units="px"
     height="64px"
     inkscape:zoom="24.8125"
     inkscape:cx="14.911839"
     inkscape:cy="16.100756"
     inkscape:window-width="1409"
     inkscape:window-height="901"
     inkscape:window-x="176"
     inkscape:window-y="91"
     inkscape:window-maximized="0"
     inkscape:current-layer="svg5"
     inkscape:showpageshadow="2"
     inkscape:deskcolor="#d1d1d1" />
  <defs
     id="defs2" />
  <rect
     style="fill:#2696f7;stroke-width:0.264583;fill-opacity:1"
     id="rect846"
     width="7.9375"
     height="7.9375"
     x="0.26458335"
     y="0.26458335"
     ry="1.5875" />
  <path
     d="M 4.7624994,1.3229167 3.7041661,1.4831137 V 5.3113039 L 4.7624994,5.0270835 V 3.5481039 L 5.8208328,5.2916668 6.8791661,4.8947918 5.5562494,3.3072917 6.8796829,1.5880168 5.8528722,1.3229167 4.7624994,3.0582114 Z M 2.6075922,2.3610962 c -0.025027,0 -0.050055,0.00975 -0.069247,0.028939 L 2.1223504,2.8060304 c -0.038382,0.038382 -0.029142,0.093215 0,0.1390094 L 2.552815,3.6209677 c -0.031893,0.066204 -0.059511,0.1343846 -0.082682,0.2041218 -0.00101,0.003 -0.00262,0.00578 -0.00362,0.00878 L 1.685685,4.0075065 C 1.632697,4.0192835 1.5875,4.0514125 1.5875,4.1056925 V 4.365625 4.6255575 c 0,0.054281 0.045197,0.08641 0.098185,0.098185 l 0.7808307,0.1736328 c 0.00172,0.00513 0.00444,0.00987 0.0062,0.014986 0.022556,0.067744 0.049306,0.1340186 0.080099,0.1984375 L 2.1223516,5.7862104 c -0.029142,0.045795 -0.038382,0.1006271 0,0.1390094 l 0.4159955,0.4159954 c 0.038382,0.038382 0.1001096,0.038382 0.1384929,0 L 3.3517342,5.9112673 c 0.066347,0.032266 0.1347007,0.060229 0.2046385,0.083716 0.00459,0.00161 0.00883,0.00411 0.013436,0.00568 l 0.1731158,0.7803139 c 0,0.054281 0.043905,0.098185 0.098185,0.098185 h 0.587561 c 0.054281,0 0.08641,-0.045197 0.098185,-0.098185 L 4.6999718,5.976895 C 4.7795068,5.946994 4.8567157,5.911239 4.9309655,5.8699248 l 0.6588744,0.4712891 c 0.038383,0.038382 0.1001107,0.038382 0.138493,0 L 6.144328,5.9252185 c 0.038383,-0.038382 0.029142,-0.093215 0,-0.1390095 l -0.2506305,-0.3803385 -0.026355,0.00982 c -0.059598,0.022386 -0.1266891,-8.467e-4 -0.15968,-0.055294 L 5.4441129,4.9263145 c -0.2195872,0.5252495 -0.7381697,0.894519 -1.3430705,0.894519 -0.8036894,0 -1.4552084,-0.651519 -1.4552084,-1.4552084 0,-0.6167226 0.3843864,-1.1425635 0.9260417,-1.3544394 V 2.7212809 l -0.00206,0.0093 c -0.00584,0.00198 -0.011232,0.00518 -0.017052,0.00723 -0.06901,0.022918 -0.1364972,0.050188 -0.2020549,0.081649 L 2.67684,2.390035 C 2.657647,2.370845 2.632621,2.361096 2.6075922,2.3610962 Z"
     style="fill:#ffffff;stroke-width:0.264583"
     id="path304" />
  <path
     id="rect1107"
     style="opacity:0.2;fill:#ffffff;stroke-width:0.79375;stroke-linejoin:round"
     d="m 1.8520834,0.26458334 c -0.8794751,0 -1.58750006,0.70802492 -1.58750006,1.58750006 v 0.2645834 c 0,-0.8794751 0.70802496,-1.58750012 1.58750006,-1.58750012 h 4.7625001 c 0.879475,0 1.5875001,0.70802502 1.5875001,1.58750012 V 1.8520834 c 0,-0.87947514 -0.7080251,-1.58750006 -1.5875001,-1.58750006 z"
     sodipodi:nodetypes="sscsscsss" />
  <path
     id="rect1153"
     style="opacity:0.2;fill:#000000;stroke-width:0.79375;stroke-linejoin:round"
     d="m 0.26458334,6.3500001 v 0.2645834 c 0,0.879475 0.70802496,1.5875 1.58750006,1.5875 h 4.7625001 c 0.879475,0 1.5875001,-0.708025 1.5875001,-1.5875 V 6.3500001 c 0,0.879475 -0.7080251,1.5875001 -1.5875001,1.5875001 H 1.8520834 c -0.8794751,0 -1.58750006,-0.7080251 -1.58750006,-1.5875001 z"
     sodipodi:nodetypes="csssscssc" />
</svg>
