<?xml version="1.0" encoding="UTF-8" standalone="no"?>
<!-- Created with Inkscape (http://www.inkscape.org/) -->

<svg
   width="32"
   height="32"
   viewBox="0 0 8.4666665 8.466667"
   version="1.1"
   id="svg5"
   inkscape:version="1.2 (dc2aedaf03, 2022-05-15)"
   sodipodi:docname="discord.svg"
   xmlns:inkscape="http://www.inkscape.org/namespaces/inkscape"
   xmlns:sodipodi="http://sodipodi.sourceforge.net/DTD/sodipodi-0.dtd"
   xmlns="http://www.w3.org/2000/svg"
   xmlns:svg="http://www.w3.org/2000/svg">
  <sodipodi:namedview
     id="namedview7"
     pagecolor="#ffffff"
     bordercolor="#666666"
     borderopacity="1.0"
     inkscape:pageshadow="2"
     inkscape:pageopacity="0.0"
     inkscape:pagecheckerboard="0"
     inkscape:document-units="px"
     showgrid="false"
     units="px"
     height="64px"
     inkscape:zoom="27.0625"
     inkscape:cx="16"
     inkscape:cy="16"
     inkscape:window-width="1920"
     inkscape:window-height="1014"
     inkscape:window-x="0"
     inkscape:window-y="32"
     inkscape:window-maximized="1"
     inkscape:current-layer="svg5"
     inkscape:showpageshadow="2"
     inkscape:deskcolor="#d1d1d1" />
  <defs
     id="defs2" />
  <rect
     style="fill:#5865f2;stroke-width:0.264583;fill-opacity:1"
     id="rect846"
     width="7.9375"
     height="7.9375"
     x="0.26458335"
     y="0.26458335"
     ry="1.5875" />
  <path
     d="m 3.5098601,2.6458711 c 0,0 -0.6165069,-0.013518 -1.2694477,0.4716525 0,0 -0.6529127,1.1746133 -0.6529127,2.6210585 0,0 0.3808881,0.6525299 1.3829707,0.6842729 0,0 0.1675342,-0.1989975 0.3035635,-0.3713009 C 2.6981765,5.8792511 2.480629,5.5209446 2.480629,5.5209446 c 0,0 0.045077,0.0318 0.1266938,0.077146 0.00454,0 0.00912,0.0042 0.018188,0.00878 0.013604,0.00907 0.027164,0.01351 0.040769,0.022575 0.1133573,0.06348 0.2268714,0.113481 0.3311604,0.1542905 0.1859067,0.077084 0.4082554,0.145182 0.666711,0.1950585 0.3400731,0.063472 0.7388203,0.086008 1.174114,0.0044 C 5.051378,5.9423896 5.26948,5.8833566 5.4961955,5.7881361 5.654896,5.7291901 5.83149,5.6433761 6.0173965,5.5209496 c 0,0 -0.2270065,0.36723 -0.8210025,0.5349995 0.13603,0.1677689 0.2998015,0.3625204 0.2998015,0.3625204 1.0020824,-0.03174 1.3829709,-0.6844154 1.3829709,-0.6798824 0,-1.4464452 -0.6529129,-2.6210587 -0.6529129,-2.6210587 C 5.5778465,2.6323534 4.9561777,2.6458711 4.9561777,2.6458711 l -0.063346,0.072755 C 5.663663,2.9498759 6.0217865,3.2900032 6.0217865,3.2900032 5.550218,3.0360817 5.087763,2.9089957 4.6570042,2.8591184 4.3305343,2.8228424 4.0178894,2.8316244 3.741296,2.8678994 c -0.027206,0 -0.049939,0.00488 -0.077145,0.00941 -0.1587011,0.018138 -0.5440599,0.072263 -1.0292312,0.2853745 -0.1677695,0.072549 -0.2678132,0.1273214 -0.2678132,0.1273214 0,0 0.3717364,-0.358316 1.1879119,-0.5895657 z M 3.3875567,4.3192344 c 0.2584556,0 0.4667778,0.222029 0.4622445,0.498622 0,0.276593 -0.2037889,0.4986222 -0.4622445,0.4986222 -0.2539214,0 -0.4628717,-0.2220292 -0.4628717,-0.4986222 0,-0.276593 0.204416,-0.498622 0.4628717,-0.498622 z m 1.6551743,0 c 0.253921,0 0.4622445,0.222029 0.4622445,0.498622 0,0.276593 -0.203789,0.4986222 -0.4622445,0.4986222 -0.2539213,0 -0.4628718,-0.2220292 -0.4628718,-0.4986222 0,-0.276593 0.204416,-0.498622 0.4628718,-0.498622 z"
     style="opacity:0.2;fill:#000000;fill-opacity:1;stroke-width:0.295308"
     id="path299" />
  <path
     id="rect889"
     style="fill:#ffffff;fill-opacity:1;stroke-width:0.295309"
     d="m 3.5098605,2.3812877 c 0,0 -0.616507,-0.013518 -1.2694478,0.4716525 0,0 -0.6529127,1.1746136 -0.6529127,2.6210588 0,0 0.3808881,0.6525299 1.3829708,0.6842729 0,0 0.1675342,-0.1989975 0.3035634,-0.371301 C 2.6981769,5.614668 2.4806293,5.2563615 2.4806293,5.2563615 c 0,0 0.045077,0.0318 0.1266939,0.077145 0.00454,0 0.00911,0.0042 0.018188,0.00878 0.013604,0.00906 0.027164,0.01351 0.040769,0.022575 0.1133573,0.06348 0.2268713,0.113481 0.3311603,0.1542905 0.1859068,0.077083 0.4082554,0.145182 0.666711,0.1950585 0.3400732,0.063472 0.7388203,0.086007 1.1741139,0.0044 0.2131129,-0.040805 0.4312149,-0.099837 0.6579304,-0.195058 0.1587004,-0.058946 0.3352944,-0.14476 0.5212009,-0.2671865 0,0 -0.2270065,0.36723 -0.8210024,0.5349994 0.13603,0.167769 0.2998015,0.3625205 0.2998015,0.3625205 1.0020824,-0.03174 1.3829709,-0.6844154 1.3829709,-0.6798824 0,-1.4464457 -0.652913,-2.621059 -0.652913,-2.621059 C 5.5778468,2.36777 4.9561779,2.3812877 4.9561779,2.3812877 l -0.063346,0.072755 C 5.6636632,2.6852925 6.0217867,3.0254198 6.0217867,3.0254198 5.5502183,2.7714983 5.0877633,2.6444123 4.6570049,2.594535 4.3305346,2.5582595 4.0178898,2.567041 3.7412963,2.603316 c -0.027206,0 -0.049939,0.00488 -0.077145,0.00941 C 3.50545,2.63086 3.1200911,2.684985 2.6349199,2.8980965 2.4671503,2.9706455 2.3671066,3.025418 2.3671066,3.025418 c 0,0 0.3717364,-0.3583161 1.187912,-0.5895658 z M 3.387557,4.0546508 c 0.2584556,0 0.4667779,0.2220295 0.4622446,0.498622 0,0.2765935 -0.203789,0.4986227 -0.4622446,0.4986227 -0.2539213,0 -0.4628717,-0.2220292 -0.4628717,-0.4986227 0,-0.2765925 0.2044161,-0.498622 0.4628717,-0.498622 z m 1.6551743,0 c 0.253921,0 0.4622445,0.2220295 0.4622445,0.498622 0,0.2765935 -0.203789,0.4986227 -0.4622445,0.4986227 -0.2539214,0 -0.4628716,-0.2220292 -0.4628716,-0.4986227 0,-0.2765925 0.2044157,-0.498622 0.4628716,-0.498622 z"
     sodipodi:nodetypes="ccccccccccccccccccccccccccccscssssssss" />
  <path
     id="rect1107"
     style="opacity:0.2;fill:#ffffff;stroke-width:0.79375;stroke-linejoin:round"
     d="m 1.8520834,0.26458334 c -0.8794751,0 -1.58750006,0.70802492 -1.58750006,1.58750006 v 0.2645834 c 0,-0.8794751 0.70802496,-1.58750012 1.58750006,-1.58750012 h 4.7625001 c 0.879475,0 1.5875001,0.70802502 1.5875001,1.58750012 V 1.8520834 c 0,-0.87947514 -0.7080251,-1.58750006 -1.5875001,-1.58750006 z"
     sodipodi:nodetypes="sscsscsss" />
  <path
     id="rect1153"
     style="opacity:0.2;fill:#000000;stroke-width:0.79375;stroke-linejoin:round"
     d="m 0.26458334,6.3500001 v 0.2645834 c 0,0.879475 0.70802496,1.5875 1.58750006,1.5875 h 4.7625001 c 0.879475,0 1.5875001,-0.708025 1.5875001,-1.5875 V 6.3500001 c 0,0.879475 -0.7080251,1.5875001 -1.5875001,1.5875001 H 1.8520834 c -0.8794751,0 -1.58750006,-0.7080251 -1.58750006,-1.5875001 z"
     sodipodi:nodetypes="csssscssc" />
</svg>
