<?xml version="1.0" encoding="UTF-8" standalone="no"?>
<!-- Created with Inkscape (http://www.inkscape.org/) -->

<svg
   width="32"
   height="32"
   viewBox="0 0 8.4666665 8.466667"
   version="1.1"
   id="svg5"
   inkscape:version="1.2 (dc2aedaf03, 2022-05-15)"
   sodipodi:docname="disk-utility.svg"
   xmlns:inkscape="http://www.inkscape.org/namespaces/inkscape"
   xmlns:sodipodi="http://sodipodi.sourceforge.net/DTD/sodipodi-0.dtd"
   xmlns:xlink="http://www.w3.org/1999/xlink"
   xmlns="http://www.w3.org/2000/svg"
   xmlns:svg="http://www.w3.org/2000/svg">
  <sodipodi:namedview
     id="namedview7"
     pagecolor="#ffffff"
     bordercolor="#666666"
     borderopacity="1.0"
     inkscape:pageshadow="2"
     inkscape:pageopacity="0.0"
     inkscape:pagecheckerboard="0"
     inkscape:document-units="px"
     showgrid="false"
     units="px"
     height="64px"
     inkscape:zoom="27.0625"
     inkscape:cx="16.018476"
     inkscape:cy="16.036952"
     inkscape:window-width="1920"
     inkscape:window-height="1024"
     inkscape:window-x="0"
     inkscape:window-y="32"
     inkscape:window-maximized="1"
     inkscape:current-layer="svg5"
     inkscape:showpageshadow="2"
     inkscape:deskcolor="#d1d1d1" />
  <defs
     id="defs2">
    <linearGradient
       inkscape:collect="always"
       xlink:href="#linearGradient10743"
       id="linearGradient10745"
       x1="2.9104166"
       y1="2.9104371"
       x2="5.6719961"
       y2="4.4845524"
       gradientUnits="userSpaceOnUse"
       gradientTransform="matrix(0.49999993,0,0,0.49999993,0.92604183,1.2567454)" />
    <linearGradient
       inkscape:collect="always"
       id="linearGradient10743">
      <stop
         style="stop-color:#b3b3b3;stop-opacity:1;"
         offset="0"
         id="stop10739" />
      <stop
         style="stop-color:#ffffff;stop-opacity:1"
         offset="1"
         id="stop10741" />
    </linearGradient>
    <linearGradient
       inkscape:collect="always"
       xlink:href="#linearGradient10743"
       id="linearGradient11167"
       x1="33.111916"
       y1="11.271812"
       x2="49.959011"
       y2="44.755169"
       gradientUnits="userSpaceOnUse"
       gradientTransform="matrix(0.13229165,0,0,0.13229165,0.92604183,0.9921621)" />
    <linearGradient
       inkscape:collect="always"
       xlink:href="#linearGradient10743"
       id="linearGradient20713"
       x1="24"
       y1="27.5"
       x2="34"
       y2="31.5"
       gradientUnits="userSpaceOnUse"
       gradientTransform="matrix(0.13229165,0,0,0.13229165,0.66145843,0.8598703)" />
  </defs>
  <rect
     style="fill:#4d4d4d;stroke-width:0.264583;fill-opacity:1"
     id="rect846"
     width="7.9375"
     height="7.9375"
     x="0.26458335"
     y="0.26458335"
     ry="1.5875" />
  <path
     d="M 2.6460817,1.5874508 C 2.3394148,1.5873664 2.0828601,1.8203811 2.0533529,2.1256608 L 1.5903321,6.3590315 c -0.00862,0.089695 0.00296,0.176352 0.031006,0.25554 h -0.033848 l 0.1322916,0.529167 C 1.7908837,7.428144 1.9557905,7.672905 2.2489484,7.672905 h 3.9687499 c 0.293158,0 0.4580645,-0.244761 0.5291665,-0.5291665 l 0.132292,-0.529167 h -0.03385 c 0.02805,-0.079188 0.039625,-0.165845 0.031005,-0.25554 L 6.4132938,2.1256608 C 6.3837868,1.8203811 6.1272324,1.5873663 5.8205649,1.5874508 Z"
     style="opacity:0.2;fill:#1a1a1a;fill-opacity:1;stroke-width:1.44325;stroke-linecap:round;stroke-linejoin:round"
     id="path3343"
     sodipodi:nodetypes="cccccsssscccccc" />
  <path
     id="rect1078-8"
     style="fill:#5e5e5e;fill-opacity:1;stroke-width:1.44325;stroke-linecap:round;stroke-linejoin:round"
     d="M 6.8791668,6.349974 6.7468748,6.8791404 C 6.6757728,7.1635464 6.5108668,7.4083068 6.2177084,7.4083068 H 2.2489582 c -0.2931581,0 -0.4580648,-0.2447604 -0.5291663,-0.5291664 L 1.5875001,6.349974 Z"
     sodipodi:nodetypes="csssscc" />
  <circle
     style="fill:#74cc49;fill-opacity:1;stroke:none;stroke-width:1.19062;stroke-linecap:round;stroke-linejoin:round;stroke-miterlimit:4;stroke-dasharray:none;stroke-opacity:1"
     id="path16342-9"
     cx="6.0854173"
     cy="7.1437244"
     r="0.13229166" />
  <path
     style="color:#000000;fill:#dbdbdb;fill-opacity:1;stroke:none;stroke-width:0.499992;stroke-linecap:round;stroke-linejoin:round;-inkscape-stroke:none"
     d="M 2.6461275,1.3229167 C 2.3394603,1.3228323 2.0829025,1.555748 2.0533952,1.8610281 L 1.5902859,6.0944745 c -0.033621,0.349783 0.2413778,0.6524534 0.5927324,0.6523744 h 4.1006301 c 0.3513544,7.9e-5 0.6263539,-0.3025914 0.5927324,-0.6523744 L 6.4132734,1.8610281 C 6.3837664,1.555748 6.1272084,1.3228322 5.8205409,1.3229167 Z"
     id="path3247"
     sodipodi:nodetypes="ccccccccc" />
  <path
     id="path3247-7"
     style="color:#000000;fill:#b3b3b3;fill-opacity:1;stroke:none;stroke-width:0.499992;stroke-linecap:round;stroke-linejoin:round"
     d="m 1.5911174,6.0854232 -7.75e-4,0.1418193 C 1.5567224,6.577025 1.8317167,6.8797359 2.1830711,6.8796569 H 6.2835959 C 6.6349503,6.8797359 6.9099463,6.577025 6.8763248,6.227242 l -8e-4,-0.1418193 c -0.032355,0.29492 -0.282533,0.5297539 -0.5919484,0.5296839 H 2.1830709 C 1.8736556,6.6151761 1.6234779,6.3803422 1.5911174,6.0854232 Z"
     sodipodi:nodetypes="ccccccccc" />
  <path
     id="rect5838"
     style="fill:url(#linearGradient10745);fill-opacity:1;stroke-width:1.19062;stroke-linecap:round;stroke-linejoin:round"
     d="m 2.9116028,2.0504953 c -0.2198687,0 -0.3782907,0.1777931 -0.3968749,0.396875 l -0.067332,0.7937499 c -0.018584,0.2190819 0.1770062,0.396875 0.396875,0.396875 0.2934474,0.017432 0.9688073,-0.076902 1.2579569,-1.1906249 0.021878,-0.2187776 -0.1770062,-0.396875 -0.3968749,-0.396875 z m 0,0.1322917 h 0.79375 c 0.1465791,0 0.2791684,0.1187316 0.2645833,0.2645833 -0.1071303,0.4326878 -0.3484975,1.0563024 -1.1256653,1.0583332 -0.1465792,0 -0.2769729,-0.1185288 -0.2645834,-0.2645833 L 2.6470195,2.4473703 C 2.659409,2.3013158 2.7650237,2.182787 2.9116028,2.182787 Z"
     sodipodi:nodetypes="sssccssssccsss" />
  <path
     id="path6940"
     style="fill:url(#linearGradient11167);fill-opacity:1;stroke:none;stroke-width:1.23853;stroke-linecap:round;stroke-linejoin:round;stroke-miterlimit:4;stroke-dasharray:none;stroke-opacity:1"
     d="m 5.0270831,2.0504953 c -0.219869,0 -0.5158683,0.081928 -0.6614585,0.396875 C 4.2264882,2.9208278 4.2702395,3.2670103 3.5429361,3.824547 2.2981464,4.1980334 2.2489583,5.0932039 2.2489583,5.0932039 2.2433363,6.2664932 3.5427539,6.4138922 4.2333458,6.4161197 5.1163715,6.4189697 6.2211054,5.9887472 6.2177084,5.0932039 L 5.9531254,2.4473703 C 5.9312454,2.2285924 5.7761194,2.0504953 5.5562505,2.0504953 Z m 0,0.1322917 h 0.5291674 c 0.146579,0 0.2541394,0.1183766 0.2645829,0.2645833 l 0.219108,2.2740212 -0.00105,-0.00207 0.0354,0.2227257 c 0.0039,0.032595 0.00633,0.065248 0.00723,0.097926 l 2.65e-4,0.00415 c 0.00155,0.016355 0.0028,0.03272 0.0036,0.049095 C 6.0780664,5.8574969 5.0066586,6.2835784 4.2333203,6.2838439 3.4629251,6.2841082 2.3812245,6.0430172 2.3812245,5.0932024 2.405025,4.720606 2.8350582,4.1549925 3.6046639,3.9377173 l 0.012403,0.00439 C 4.4064674,3.4441533 4.3835093,2.9803713 4.5309893,2.4473703 4.6366253,2.2040191 4.8805039,2.182787 5.0270831,2.182787 Z"
     sodipodi:nodetypes="scccscssssscccccccsccccs" />
  <path
     id="path15442-6-1"
     style="fill:#666666;fill-opacity:1;stroke:none;stroke-width:1.05657;stroke-linecap:round;stroke-linejoin:round;stroke-miterlimit:4;stroke-dasharray:none;stroke-opacity:1"
     d="M 5.7515854,1.6267486 A 0.23151039,0.17859373 0 0 0 5.6554675,1.7714426 0.23151039,0.17859373 0 0 0 5.8869779,1.9502431 0.23151039,0.17859373 0 0 0 6.1184884,1.7714426 0.23151039,0.17859373 0 0 0 6.0231454,1.627007 0.19843748,0.14552081 0 0 1 6.0854154,1.7329437 0.19843748,0.14552081 0 0 1 5.8869779,1.8784129 0.19843748,0.14552081 0 0 1 5.6885405,1.7329437 0.19843748,0.14552081 0 0 1 5.7515854,1.6267486 Z" />
  <ellipse
     style="fill:#999999;fill-opacity:1;stroke:none;stroke-width:0.882995;stroke-linecap:round;stroke-linejoin:round;stroke-miterlimit:4;stroke-dasharray:none;stroke-opacity:1"
     id="path15442-2"
     cx="2.1828122"
     cy="6.1647663"
     rx="0.19843747"
     ry="0.14552082" />
  <ellipse
     style="fill:#999999;fill-opacity:1;stroke:none;stroke-width:0.882995;stroke-linecap:round;stroke-linejoin:round;stroke-miterlimit:4;stroke-dasharray:none;stroke-opacity:1"
     id="path15442-6-9"
     cx="6.2989955"
     cy="6.1647663"
     rx="0.19843747"
     ry="0.14552082" />
  <path
     id="path15442-6-1-2"
     style="fill:#666666;fill-opacity:1;stroke:none;stroke-width:1.05657;stroke-linecap:round;stroke-linejoin:round;stroke-miterlimit:4;stroke-dasharray:none;stroke-opacity:1"
     d="m 2.5693522,1.5874745 a 0.19843748,0.14552081 0 0 1 0.00827,2.58e-4 0.23151039,0.17859373 0 0 0 -0.00827,-2.58e-4 z m 0.010076,2.58e-4 A 0.19843748,0.14552081 0 0 1 2.7631386,1.7329433 0.19843748,0.14552081 0 0 1 2.5647011,1.8784125 0.19843748,0.14552081 0 0 1 2.3662636,1.7329433 0.19843748,0.14552081 0 0 1 2.5215513,1.5910915 0.23151039,0.17859373 0 0 0 2.3349994,1.7660162 0.23151039,0.17859373 0 0 0 2.5665097,1.9445582 0.23151039,0.17859373 0 0 0 2.7980202,1.7660162 0.23151039,0.17859373 0 0 0 2.5794282,1.5877325 Z" />
  <path
     id="path15442-6-1-6"
     style="fill:#666666;fill-opacity:1;stroke:none;stroke-width:1.05657;stroke-linecap:round;stroke-linejoin:round;stroke-miterlimit:4;stroke-dasharray:none;stroke-opacity:1"
     d="m 6.1616379,6.0585182 a 0.23151039,0.17859373 0 0 0 -0.096118,0.144694 0.23151039,0.17859373 0 0 0 0.2315105,0.1788005 0.23151039,0.17859373 0 0 0 0.2315104,-0.1788005 0.23151039,0.17859373 0 0 0 -0.095343,-0.1444355 0.19843748,0.14552081 0 0 1 0.06227,0.105937 0.19843748,0.14552081 0 0 1 -0.1984374,0.145469 0.19843748,0.14552081 0 0 1 -0.1984375,-0.145469 0.19843748,0.14552081 0 0 1 0.063045,-0.1061955 z" />
  <path
     id="path15442-6-1-2-0"
     style="fill:#666666;fill-opacity:1;stroke:none;stroke-width:1.05657;stroke-linecap:round;stroke-linejoin:round;stroke-miterlimit:4;stroke-dasharray:none;stroke-opacity:1"
     d="m 2.185655,6.0192442 a 0.19843748,0.14552081 0 0 1 0.00827,2.58e-4 0.23151039,0.17859373 0 0 0 -0.00827,-2.58e-4 z m 0.010076,2.58e-4 A 0.19843748,0.14552081 0 0 1 2.3794413,6.1647132 0.19843748,0.14552081 0 0 1 2.1810039,6.3101822 0.19843748,0.14552081 0 0 1 1.9825663,6.1647132 0.19843748,0.14552081 0 0 1 2.137854,6.0228612 0.23151039,0.17859373 0 0 0 1.9513021,6.1977862 0.23151039,0.17859373 0 0 0 2.1828125,6.3763282 0.23151039,0.17859373 0 0 0 2.4143229,6.1977862 0.23151039,0.17859373 0 0 0 2.195731,6.0195022 Z" />
  <ellipse
     style="fill:#999999;fill-opacity:1;stroke:none;stroke-width:0.882995;stroke-linecap:round;stroke-linejoin:round;stroke-miterlimit:4;stroke-dasharray:none;stroke-opacity:1"
     id="path15442"
     cx="2.5645447"
     cy="1.7329954"
     rx="0.19843747"
     ry="0.14552082" />
  <ellipse
     style="fill:#999999;fill-opacity:1;stroke:none;stroke-width:0.882995;stroke-linecap:round;stroke-linejoin:round;stroke-miterlimit:4;stroke-dasharray:none;stroke-opacity:1"
     id="path15442-6"
     cx="5.8869801"
     cy="1.7329954"
     rx="0.19843747"
     ry="0.14552082" />
  <path
     id="path20461"
     style="fill:url(#linearGradient20713);fill-opacity:1;stroke:none;stroke-width:1.12952;stroke-linecap:round;stroke-linejoin:round;stroke-miterlimit:4;stroke-dasharray:none;stroke-opacity:1"
     d="M 4.233333,4.4317449 A 0.92604157,0.59531242 0 0 0 3.3072914,5.0270571 0.92604157,0.59531242 0 0 0 4.233333,5.6223698 0.92604157,0.59531242 0 0 0 5.1593745,5.0270571 0.92604157,0.59531242 0 0 0 4.2891436,4.4330368 0.79374989,0.52916663 0 0 1 5.0270831,4.9609116 0.79374989,0.52916663 0 0 1 4.233333,5.4900783 0.79374989,0.52916663 0 0 1 3.4395831,4.9609116 0.79374989,0.52916663 0 0 1 4.233333,4.4317449 Z" />
  <path
     id="rect1107"
     style="opacity:0.2;fill:#ffffff;stroke-width:0.79375;stroke-linejoin:round"
     d="m 1.8520834,0.26458334 c -0.8794751,0 -1.58750006,0.70802492 -1.58750006,1.58750006 v 0.2645834 c 0,-0.8794751 0.70802496,-1.58750012 1.58750006,-1.58750012 h 4.7625001 c 0.879475,0 1.5875001,0.70802502 1.5875001,1.58750012 V 1.8520834 c 0,-0.87947514 -0.7080251,-1.58750006 -1.5875001,-1.58750006 z"
     sodipodi:nodetypes="sscsscsss" />
  <path
     id="rect1153"
     style="opacity:0.2;fill:#000000;stroke-width:0.79375;stroke-linejoin:round"
     d="m 0.26458334,6.3500001 v 0.2645834 c 0,0.879475 0.70802496,1.5875 1.58750006,1.5875 h 4.7625001 c 0.879475,0 1.5875001,-0.708025 1.5875001,-1.5875 V 6.3500001 c 0,0.879475 -0.7080251,1.5875001 -1.5875001,1.5875001 H 1.8520834 c -0.8794751,0 -1.58750006,-0.7080251 -1.58750006,-1.5875001 z"
     sodipodi:nodetypes="csssscssc" />
  <circle
     style="fill:#e6e6e6;fill-opacity:1;stroke-width:0.423333;stroke-linejoin:round"
     id="path849"
     cx="6.3500004"
     cy="6.3500004"
     r="2.1166668" />
  <circle
     style="fill:#666666;fill-opacity:1;stroke-width:0.427404;stroke-linejoin:round"
     id="path1107"
     cx="6.3500004"
     cy="6.3500004"
     r="1.8520833" />
  <path
     d="m 7.1946504,5.030089 -0.06636,0.1771672 c -0.0044,0.011675 0,0.027031 0.0098,0.034645 l 0.07815,0.059709 c 0.0096,0.00737 0.02581,0.00775 0.036,5.107e-4 l 0.153852,-0.1098386 c 0.01066,-0.00719 0.02488,-0.00596 0.03417,0.00294 l 0.06449,0.06438 c 0.0088,0.00929 0.01006,0.023525 0.0029,0.034153 l -0.109881,0.1538214 c -0.007,0.011005 -0.0068,0.025248 6.04e-4,0.035997 l 0.05983,0.078018 c 0.0072,0.00958 0.0231,0.014251 0.03464,0.00983 l 0.176922,-0.066346 c 0.01214,-0.00419 0.02556,6.965e-4 0.03219,0.011675 l 0.04558,0.078878 c 0.0063,0.011057 0.0036,0.0258 -0.006,0.033787 l -0.146028,0.120156 c -0.0098,0.00877 -0.01323,0.022573 -0.0087,0.034892 l 0.03748,0.090917 c 0.0048,0.011057 0.01856,0.019656 0.03096,0.018429 l 0.188224,-0.018304 c 0.01229,-0.00121 0.02506,0.0075 0.02827,0.019535 l 0.02345,0.088093 c 0.0032,0.012454 -0.0029,0.025395 -0.0145,0.030964 l -0.172375,0.078262 c -0.01176,0.006 -0.01869,0.01847 -0.01744,0.03159 l 0.01289,0.09731 c 0.0024,0.01286 0.01228,0.02306 0.02505,0.02581 l 0.186627,0.03108 c 0.01229,0.0022 0.02213,0.01377 0.02213,0.02617 v 0.09116 c -2.59e-4,0.01283 -0.0095,0.02371 -0.02213,0.02604 l -0.186382,0.03108 c -0.01286,0.0028 -0.0228,0.01286 -0.02505,0.0258 l -0.01277,0.09755 c -0.001,0.01305 0.0059,0.02546 0.01756,0.03145 l 0.172006,0.07827 c 0.01145,0.0058 0.01745,0.01854 0.0145,0.03096 l -0.02346,0.08798 c -0.0036,0.01246 -0.01535,0.02068 -0.02827,0.01966 l -0.187978,-0.01831 c -0.01313,-8.36e-4 -0.02542,0.0064 -0.03096,0.01844 l -0.03773,0.09091 c -0.0045,0.01233 -0.001,0.0261 0.0087,0.0349 l 0.146082,0.120159 c 0.0096,0.0079 0.01229,0.02298 0.0061,0.03379 l -0.04568,0.07887 c -0.0066,0.01104 -0.02013,0.01592 -0.03231,0.01167 l -0.177167,-0.06636 c -0.01245,-0.0042 -0.0261,-1.86e-4 -0.03451,0.0098 l -0.0597,0.07801 c -0.0073,0.01079 -0.0076,0.02497 -6.04e-4,0.036 l 0.10984,0.153947 c 0.0071,0.01063 0.006,0.02484 -0.0029,0.03417 l -0.06449,0.06437 c -0.0092,0.0088 -0.02348,0.01014 -0.03417,0.0029 l -0.153702,-0.109838 c -0.01101,-0.007 -0.02524,-0.0068 -0.036,6.04e-4 l -0.07815,0.05983 c -0.0099,0.0084 -0.01381,0.0221 -0.0098,0.03451 l 0.06636,0.177045 c 0.0043,0.01214 -6.97e-4,0.02555 -0.01167,0.03218 l -0.07887,0.04546 c -0.01125,0.0061 -0.02527,0.0038 -0.03367,-0.006 L 6.9503334,7.5953961 c -0.0087,-0.0098 -0.02257,-0.01323 -0.03489,-0.0087 l -0.09078,0.03748 c -0.01176,0.0058 -0.01903,0.01779 -0.01845,0.03083 l 0.01819,0.188349 c 0.0012,0.01229 -0.0072,0.02493 -0.01954,0.02824 l -0.08798,0.02347 c -0.0125,0.0031 -0.02544,-0.0031 -0.03096,-0.01462 l -0.07839,-0.172254 c -0.006,-0.01171 -0.01839,-0.01864 -0.03145,-0.01743 l -0.09743,0.01277 c -0.01289,0.0025 -0.02309,0.01235 -0.02581,0.02519 l -0.03108,0.186506 c -0.0026,0.01254 -0.01327,0.02172 -0.02604,0.02213 h -0.09116 c -0.01286,-1.99e-4 -0.02383,-0.0094 -0.02617,-0.02213 l -0.03096,-0.186383 c -0.0028,-0.01281 -0.01289,-0.0227 -0.0258,-0.02493 l -0.09755,-0.01277 c -0.01305,-10e-4 -0.02546,0.0061 -0.03145,0.01755 l -0.078264,0.171914 c -0.0057,0.01142 -0.018529,0.01744 -0.030964,0.0145 l -0.088093,-0.02358 c -0.012399,-0.0036 -0.020568,-0.01538 -0.019535,-0.02824 l 0.018184,-0.187979 c 7.43e-4,-0.01308 -0.00655,-0.02532 -0.018429,-0.03083 l -0.090942,-0.03767 c -0.012264,-0.0046 -0.025977,-0.001 -0.034771,0.0086 l -0.1202885,0.146199 c -0.00845,0.0097 -0.022506,0.0122 -0.033786,0.006 l -0.078878,-0.04558 c -0.01099,-0.0066 -0.015806,-0.02017 -0.011549,-0.03232 l 0.066346,-0.177168 c 0.0041,-0.01245 1.842e-4,-0.0261 -0.00983,-0.03451 l -0.078141,-0.05987 c -0.010811,-0.0073 -0.024993,-0.0075 -0.035997,-5.1e-4 l -0.1538105,0.109895 c -0.010628,0.0071 -0.024858,0.0061 -0.034153,-0.0029 l -0.064505,-0.06448 c -0.00888,-0.0092 -0.010048,-0.02351 -0.00284,-0.03417 l 0.1098435,-0.153756 c 0.00715,-0.011 0.0069,-0.02524 -6.036e-4,-0.036 l -0.059957,-0.07801 c -0.00846,-0.0099 -0.022002,-0.01375 -0.034399,-0.0098 l -0.1771678,0.06636 c -0.012139,0.0043 -0.025544,-6.97e-4 -0.03219,-0.01167 l -0.045461,-0.07887 c -0.00628,-0.01128 -0.00377,-0.02539 0.00602,-0.03379 l 0.1460784,-0.120165 c 0.00973,-0.0087 0.013132,-0.02259 0.0086,-0.03489 l -0.037475,-0.09092 c -0.00563,-0.01172 -0.017714,-0.01897 -0.030717,-0.01844 l -0.1884708,0.01844 c -0.01283,8.82e-4 -0.024533,-0.0072 -0.028136,-0.01966 l -0.023588,-0.08795 c -0.0031,-0.01252 0.00305,-0.02549 0.014743,-0.03096 l 0.1721301,-0.07839 c 0.011777,-0.006 0.018747,-0.01836 0.017571,-0.03146 l -0.012899,-0.09743 c -0.00237,-0.01286 -0.012269,-0.02305 -0.025061,-0.02581 l -0.1866303,-0.03107 c -0.012589,-0.0025 -0.021779,-0.01335 -0.022118,-0.02617 v -0.09104 c 1.964e-4,-0.01286 0.00945,-0.02383 0.022118,-0.02617 l 0.1863822,-0.03108 c 0.012816,-0.0028 0.022698,-0.01289 0.02494,-0.02581 l 0.012779,-0.09743 c 0.00106,-0.01307 -0.00579,-0.02554 -0.017447,-0.03159 L 4.8192304,6.0142169 c -0.011483,-0.00566 -0.017544,-0.018496 -0.014618,-0.030964 l 0.023589,-0.08797 c 0.00329,-0.012288 0.015974,-0.020887 0.028258,-0.019656 l 0.1879795,0.018304 c 0.013133,8.358e-4 0.025419,-0.0065 0.030964,-0.018429 l 0.037721,-0.090916 c 0.0044,-0.012323 9.698e-4,-0.026106 -0.00873,-0.034892 L 4.9583173,5.6295351 c -0.00973,-0.00842 -0.012283,-0.022481 -0.00615,-0.033786 l 0.045581,-0.078878 c 0.00668,-0.01099 0.020167,-0.015806 0.032316,-0.011549 l 0.17729,0.066346 c 0.011549,0.00431 0.027031,-1.229e-4 0.034399,-0.00983 l 0.059836,-0.07814 c 0.0074,-0.010811 0.00759,-0.024993 5.109e-4,-0.035997 L 5.1922405,5.2937517 c -0.00712,-0.010628 -0.0059,-0.024783 0.00294,-0.034032 l 0.064501,-0.064502 c 0.00926,-0.00892 0.023496,-0.010138 0.034153,-0.00294 l 0.1537009,0.1098395 c 0.011,0.00715 0.025249,0.0069 0.035997,-6.038e-4 l 0.078018,-0.059833 c 0.00993,-0.00848 0.013801,-0.022085 0.00983,-0.034524 l -0.06633,-0.176946 c -0.00421,-0.012204 6.966e-4,-0.025691 0.011796,-0.032314 l 0.078877,-0.045459 c 0.011232,-0.00621 0.025274,-0.00369 0.033666,0.00602 l 0.1202814,0.1459605 c 0.00785,0.00958 0.023468,0.013514 0.034771,0.00886 l 0.090917,-0.037598 c 0.011057,-0.00467 0.019656,-0.018428 0.018429,-0.030838 L 5.8754834,4.8564895 c -9.288e-4,-0.012875 0.00727,-0.024647 0.019656,-0.028258 l 0.08797,-0.023343 c 0.012453,-0.00313 0.025395,0.00293 0.030964,0.014497 l 0.078385,0.1722531 c 0.0059,0.011725 0.01839,0.018648 0.03146,0.017447 l 0.09743,-0.012777 c 0.01285,-0.00239 0.02306,-0.012269 0.0258,-0.025064 l 0.03108,-0.186628 c 0.002,-0.012287 0.01376,-0.022117 0.02603,-0.022117 h 0.09116 c 0.01283,2.58e-4 0.0237,0.0095 0.02604,0.022117 l 0.03108,0.1863821 c 0.0022,0.012287 0.01352,0.023344 0.02581,0.02494 l 0.09755,0.01278 c 0.01303,0.00103 0.02542,-0.00584 0.03146,-0.017447 l 0.07827,-0.1720074 c 0.0058,-0.011481 0.01851,-0.017542 0.03096,-0.01462 l 0.0881,0.023588 c 0.01229,0.00331 0.02078,0.015849 0.01954,0.02826 l -0.01819,0.1879794 c -7.43e-4,0.013087 0.0064,0.025314 0.01844,0.030838 l 0.09092,0.037843 c 0.01106,0.00454 0.02702,7.383e-4 0.03477,-0.00873 l 0.120281,-0.1462091 c 0.0084,-0.00962 0.0224,-0.012123 0.03367,-0.00602 l 0.07887,0.045581 c 0.01107,0.0064 0.01598,0.020765 0.01167,0.032314 z M 6.8926554,5.4076455 C 6.6472344,5.2654512 6.3558764,5.2250507 6.0810268,5.2951035 c -0.051111,0.013025 -0.02114,0.00589 -0.02114,0.00589 -0.071132,0.024327 -0.099514,0.097553 -0.063639,0.1630386 0,0 -0.020641,-0.037721 0.00173,0.00284 l 0.3191986,0.5823664 c 0.04817,0.08797 0.16832,0.157387 0.268698,0.155421 l 0.707566,-0.01476 c 0.04375,-9.28e-4 0,0 0,0 0.0725,-0.0016 0.11979,-0.06267 0.103941,-0.131094 -0.07606,-0.2749474 -0.257337,-0.5088852 -0.504599,-0.6511652 z m -0.01782,1.8941686 c 0.248278,-0.137202 0.432941,-0.366192 0.514424,-0.637902 0.01523,-0.05037 0.006,-0.02101 0.006,-0.02101 0.01598,-0.0736 -0.03231,-0.135517 -0.10689,-0.138588 0,0 0.04299,0.0017 -0.0034,0 l -0.66358,-0.02641 c -0.100134,-0.0042 -0.221643,0.06327 -0.271526,0.150261 l -0.3518775,0.614066 c -0.021747,0.03808 0,0 0,0 -0.035997,0.06314 -0.00785,0.135025 0.058974,0.156649 0,0 -0.042267,-0.01166 0,0 0.2747885,0.07641 0.5686225,0.04154 0.8178955,-0.09706 z M 5.5872405,7.1285771 c 0.052217,0.04693 0.1286369,0.03526 0.1651269,-0.02752 0,0 -0.022118,0.03783 0,0 l 0.3558084,-0.611732 c 0.05037,-0.08675 0.04791,-0.2255746 -0.0057,-0.3102266 L 5.7480655,5.6176158 c -0.02482,-0.039316 -0.00173,-0.00284 -0.00173,-0.00284 -0.039809,-0.063151 -0.1177016,-0.073841 -0.1734812,-0.023343 0,0 0.020887,-0.022852 -0.015236,0.015603 -0.1945465,0.2064328 -0.300525,0.4808387 -0.2952379,0.7644483 0.00454,0.28524 0.1213063,0.557199 0.3249711,0.756956 z"
     style="fill:#ffffff;stroke-width:0.122861;image-rendering:optimizeSpeed"
     id="path864" />
</svg>
