<?xml version="1.0" encoding="UTF-8" standalone="no"?>
<!-- Created with Inkscape (http://www.inkscape.org/) -->

<svg
   width="32"
   height="32"
   viewBox="0 0 8.4666665 8.466667"
   version="1.1"
   id="svg5"
   inkscape:version="1.2 (dc2aedaf03, 2022-05-15)"
   sodipodi:docname="emacs.svg"
   xmlns:inkscape="http://www.inkscape.org/namespaces/inkscape"
   xmlns:sodipodi="http://sodipodi.sourceforge.net/DTD/sodipodi-0.dtd"
   xmlns="http://www.w3.org/2000/svg"
   xmlns:svg="http://www.w3.org/2000/svg">
  <sodipodi:namedview
     id="namedview7"
     pagecolor="#ffffff"
     bordercolor="#666666"
     borderopacity="1.0"
     inkscape:pageshadow="2"
     inkscape:pageopacity="0.0"
     inkscape:pagecheckerboard="0"
     inkscape:document-units="px"
     showgrid="false"
     units="px"
     height="64px"
     inkscape:zoom="27.0625"
     inkscape:cx="16.018476"
     inkscape:cy="16"
     inkscape:window-width="1920"
     inkscape:window-height="1024"
     inkscape:window-x="0"
     inkscape:window-y="32"
     inkscape:window-maximized="1"
     inkscape:current-layer="svg5"
     inkscape:showpageshadow="2"
     inkscape:deskcolor="#d1d1d1" />
  <defs
     id="defs2" />
  <rect
     style="fill:#c462ed;stroke-width:0.264583;fill-opacity:1"
     id="rect846"
     width="7.9375"
     height="7.9375"
     x="0.26458335"
     y="0.26458335"
     ry="1.5875" />
  <path
     d="m 4.9841896,1.8523497 c -0.058632,0.00149 -0.1176243,0.00943 -0.1756977,0.0239 -0.3492903,0.086994 -1.1853137,0.3917672 -1.1853137,0.3917672 1.0553205,-0.070007 1.2331286,-0.061734 1.3203169,0.047477 0.051525,0.064407 -0.00961,0.1606747 -0.2877699,0.2241438 -0.3031774,0.069444 -0.9356547,0.1679462 -0.9356547,0.1679462 -0.6087798,0.072432 -1.0391085,0.099954 -1.1481718,0.3895065 -0.070757,0.1891139 0.1152678,0.341929 0.1992746,0.4395673 0.3494779,0.3519025 0.8303869,0.5252586 1.1413893,0.6549908 0.1170508,0.04891 0.4557162,0.1346803 0.4557162,0.1346803 -0.9780697,5.5e-4 -1.6584418,0.3493404 -2.0450701,0.7283056 -0.4342281,0.4719412 -0.1895366,0.9900437 0.788702,1.2618581 0.5561354,0.1331073 0.8761278,0.1702617 1.7001337,0.1088423 0.4935979,-0.056 0.5728633,-0.043885 0.5807073,-0.00225 0.01139,0.058619 -0.5357349,0.2371846 -0.6847046,0.2913225 -0.3787843,0.1372132 -1.3770048,0.4279256 -1.3820048,0.4292316 0,0 0.2931359,0.0049 0.6662947,-0.050383 0.1510262,-0.022965 0.7240646,-0.1148327 1.1488177,-0.23674 0,0 0.5180945,-0.1467922 0.7916089,-0.2700055 0.2865645,-0.1286267 0.4400552,-0.233224 0.5022241,-0.3717438 0.0224,-0.04649 0.049085,-0.1939346 -0.1566422,-0.25741 -0.3259524,-0.095769 -0.7283886,-0.051058 -1.52702,0.0281 C 3.8651317,6.0046711 3.5602118,5.8688594 3.3948356,5.7551646 3.2355909,5.6388574 3.2863803,5.2894265 3.9080411,4.9486991 4.2205495,4.768173 5.469942,4.3964141 5.469942,4.3964141 5.0263764,4.202638 4.2006471,3.8647183 4.0307709,3.7911614 3.8816072,3.7269421 3.6434677,3.6308237 3.5840983,3.501454 3.5183854,3.3774969 3.700753,3.2570232 3.8043663,3.2194979 4.1392812,3.0983407 4.6176053,3.0071653 5.0568583,2.9746837 5.2777104,2.9588153 5.3126538,2.9417403 5.3126538,2.9417403 5.6137753,2.8721084 5.7989444,2.6450808 5.6908561,2.3090346 5.6061113,2.0192044 5.3008019,1.8442996 4.9841896,1.8523497 Z"
     style="opacity:0.2;fill:#000000;fill-opacity:1;stroke-width:0.165362"
     id="path1501" />
  <path
     d="m 4.9841894,1.5877664 c -0.058632,0.00149 -0.1176242,0.00943 -0.1756976,0.0239 C 4.4592015,1.6986608 3.623178,2.0034336 3.623178,2.0034336 4.6784985,1.9334268 4.8563067,1.9417 4.943495,2.0509105 4.9950199,2.1153172 4.9338875,2.2115851 4.6557251,2.2750543 4.3525477,2.3444986 3.7200702,2.4430006 3.7200702,2.4430006 3.1112908,2.5154324 2.6809618,2.5429548 2.5718986,2.832507 2.5011418,3.0216209 2.6871664,3.1744361 2.7711734,3.2720743 3.1206509,3.6239768 3.6015603,3.7973329 3.9125625,3.9270651 4.0296133,3.975975 4.3682786,4.0617454 4.3682786,4.0617454 3.3902088,4.0622954 2.7098367,4.4110857 2.3232087,4.7900509 1.8889805,5.2619923 2.1336722,5.7800948 3.1119107,6.0519093 3.668046,6.1850165 3.9880384,6.2221709 4.8120443,6.1607516 c 0.4935979,-0.056 0.5728633,-0.043885 0.5807073,-0.00225 0.01139,0.058619 -0.5357349,0.2371845 -0.6847046,0.2913224 -0.3787843,0.1372132 -1.3770048,0.4279256 -1.3820047,0.4292316 0,0 0.2931358,0.0049 0.6662946,-0.050383 0.1510262,-0.022965 0.7240646,-0.1148327 1.1488177,-0.23674 0,0 0.5180945,-0.1467922 0.7916089,-0.2700055 C 6.219328,6.1933 6.3728187,6.0887027 6.4349875,5.950183 6.4573875,5.9036931 6.4840724,5.7562483 6.2783453,5.692773 5.952393,5.5970037 5.5499568,5.6417151 4.7513254,5.7208729 3.8651314,5.7400879 3.5602119,5.6042761 3.3948356,5.4905814 3.2355907,5.3742741 3.2863801,5.0248433 3.9080409,4.6841156 4.2205494,4.5035895 5.4699419,4.1318307 5.4699419,4.1318307 5.0263763,3.9380546 4.200647,3.6001349 4.0307708,3.526578 3.8816073,3.4623587 3.6434675,3.3662403 3.5840982,3.2368706 3.5183853,3.1129135 3.700753,2.9924399 3.8043664,2.9549145 4.1392811,2.8337573 4.6176051,2.7425819 5.0568582,2.7101004 5.2777103,2.6942319 5.3126537,2.6771569 5.3126537,2.6771569 5.6137751,2.6075251 5.7989443,2.3804975 5.690856,2.0444513 5.6061112,1.7546211 5.3008018,1.5797163 4.9841894,1.5877664 Z"
     style="fill:#ffffff;fill-opacity:1;stroke-width:0.165362"
     id="path1310"
     sodipodi:nodetypes="sccccccccccccccccccccccccccccccs" />
  <path
     id="rect1107"
     style="opacity:0.2;fill:#ffffff;stroke-width:0.79375;stroke-linejoin:round"
     d="m 1.8520834,0.26458334 c -0.8794751,0 -1.58750006,0.70802492 -1.58750006,1.58750006 v 0.2645834 c 0,-0.8794751 0.70802496,-1.58750012 1.58750006,-1.58750012 h 4.7625001 c 0.879475,0 1.5875001,0.70802502 1.5875001,1.58750012 V 1.8520834 c 0,-0.87947514 -0.7080251,-1.58750006 -1.5875001,-1.58750006 z"
     sodipodi:nodetypes="sscsscsss" />
  <path
     id="rect1153"
     style="opacity:0.2;fill:#000000;stroke-width:0.79375;stroke-linejoin:round"
     d="m 0.26458334,6.3500001 v 0.2645834 c 0,0.879475 0.70802496,1.5875 1.58750006,1.5875 h 4.7625001 c 0.879475,0 1.5875001,-0.708025 1.5875001,-1.5875 V 6.3500001 c 0,0.879475 -0.7080251,1.5875001 -1.5875001,1.5875001 H 1.8520834 c -0.8794751,0 -1.58750006,-0.7080251 -1.58750006,-1.5875001 z"
     sodipodi:nodetypes="csssscssc" />
</svg>
