<?xml version="1.0" encoding="UTF-8" standalone="no"?>
<!-- Created with Inkscape (http://www.inkscape.org/) -->

<svg
   width="32"
   height="32"
   viewBox="0 0 8.4666665 8.466667"
   version="1.1"
   id="svg5"
   inkscape:version="1.2 (dc2aedaf03, 2022-05-15)"
   sodipodi:docname="fbmessenger.svg"
   xmlns:inkscape="http://www.inkscape.org/namespaces/inkscape"
   xmlns:sodipodi="http://sodipodi.sourceforge.net/DTD/sodipodi-0.dtd"
   xmlns="http://www.w3.org/2000/svg"
   xmlns:svg="http://www.w3.org/2000/svg">
  <sodipodi:namedview
     id="namedview7"
     pagecolor="#ffffff"
     bordercolor="#666666"
     borderopacity="1.0"
     inkscape:pageshadow="2"
     inkscape:pageopacity="0.0"
     inkscape:pagecheckerboard="0"
     inkscape:document-units="px"
     showgrid="false"
     units="px"
     height="64px"
     inkscape:zoom="27.0625"
     inkscape:cx="16"
     inkscape:cy="16"
     inkscape:window-width="1920"
     inkscape:window-height="1024"
     inkscape:window-x="0"
     inkscape:window-y="32"
     inkscape:window-maximized="1"
     inkscape:current-layer="svg5"
     inkscape:showpageshadow="2"
     inkscape:deskcolor="#d1d1d1" />
  <defs
     id="defs2" />
  <rect
     style="fill:#f8f8f8;stroke-width:0.264583;fill-opacity:1"
     id="rect846"
     width="7.9375"
     height="7.9375"
     x="0.26458335"
     y="0.26458335"
     ry="1.5875" />
  <path
     d="m 4.2333333,1.8520843 c -1.4902657,0 -2.6458333,1.0920678 -2.6458333,2.5664583 0,0.7712603 0.3161772,1.4380107 0.8307916,1.8983852 0.042995,0.038365 0.069454,0.092605 0.070775,0.1508125 l 0.014552,0.4709584 c 0.00464,0.1501505 0.1594114,0.2480465 0.2969947,0.187192 L 3.3258124,6.8943812 c 0.044317,-0.019844 0.094588,-0.02315 0.141552,-0.010585 0.2414322,0.066145 0.4980781,0.101864 0.7659687,0.101864 1.4902657,0 2.6458336,-1.092067 2.6458336,-2.5664577 0,-1.47439 -1.1555679,-2.5671192 -2.6458336,-2.5671192 z"
     style="opacity:0.2;fill:#000000;fill-opacity:1;stroke-width:0.0066146"
     id="path11524" />
  <path
     d="M 4.2333332,1.5875 C 2.7430677,1.5875 1.5875,2.6795677 1.5875,4.1539583 c 0,0.7712603 0.3161771,1.4380105 0.8307917,1.898385 0.042995,0.038365 0.069453,0.092604 0.070777,0.1508125 l 0.014552,0.4709585 c 0.00462,0.1501511 0.1594112,0.2480471 0.2969945,0.1871924 L 3.3258123,6.6297968 c 0.044318,-0.019846 0.094589,-0.02315 0.1415521,-0.010584 0.2414323,0.066147 0.4980781,0.1018643 0.7659688,0.1018643 1.4902656,0 2.6458335,-1.0920673 2.6458335,-2.5664579 0,-1.474391 -1.1555679,-2.5671201 -2.6458335,-2.5671192 z"
     style="fill:#4a93f3;fill-opacity:1;stroke-width:0.0066146"
     id="path5193"
     sodipodi:nodetypes="csccccccsscc" />
  <path
     d="M 2.66605,4.9547104 3.432642,3.7386018 C 3.5546444,3.5448333 3.8156119,3.4972068 3.9989416,3.6342147 l 0.6100116,0.4573456 c 0.056109,0.041755 0.1330935,0.041755 0.1885491,-6.509e-4 L 5.620855,3.4658907 c 0.1096064,-0.08351 0.2531382,0.04828 0.1800677,0.1650619 L 5.0336781,4.846409 C 4.9116755,5.0401774 4.6507081,5.0878038 4.4673784,4.9507959 L 3.8573668,4.4934503 C 3.8012582,4.4516955 3.7242734,4.4516955 3.6688176,4.4941029 L 2.8454651,5.1191199 C 2.7358589,5.2026299 2.5923267,5.0714948 2.66605,4.9547104 Z"
     style="fill:#ffffff;stroke-width:0.0065242"
     id="path10974" />
  <path
     id="rect1107"
     style="opacity:0.2;fill:#ffffff;stroke-width:0.79375;stroke-linejoin:round"
     d="m 1.8520834,0.26458334 c -0.8794751,0 -1.58750006,0.70802492 -1.58750006,1.58750006 v 0.2645834 c 0,-0.8794751 0.70802496,-1.58750012 1.58750006,-1.58750012 h 4.7625001 c 0.879475,0 1.5875001,0.70802502 1.5875001,1.58750012 V 1.8520834 c 0,-0.87947514 -0.7080251,-1.58750006 -1.5875001,-1.58750006 z"
     sodipodi:nodetypes="sscsscsss" />
  <path
     id="rect1153"
     style="opacity:0.2;fill:#000000;stroke-width:0.79375;stroke-linejoin:round"
     d="m 0.26458334,6.3500001 v 0.2645834 c 0,0.879475 0.70802496,1.5875 1.58750006,1.5875 h 4.7625001 c 0.879475,0 1.5875001,-0.708025 1.5875001,-1.5875 V 6.3500001 c 0,0.879475 -0.7080251,1.5875001 -1.5875001,1.5875001 H 1.8520834 c -0.8794751,0 -1.58750006,-0.7080251 -1.58750006,-1.5875001 z"
     sodipodi:nodetypes="csssscssc" />
</svg>
