<?xml version="1.0" encoding="UTF-8" standalone="no"?>
<!-- Created with Inkscape (http://www.inkscape.org/) -->

<svg
   width="32"
   height="32"
   viewBox="0 0 8.4666665 8.466667"
   version="1.1"
   id="svg5"
   inkscape:version="1.2 (dc2aedaf03, 2022-05-15)"
   sodipodi:docname="gnome-boxes.svg"
   xmlns:inkscape="http://www.inkscape.org/namespaces/inkscape"
   xmlns:sodipodi="http://sodipodi.sourceforge.net/DTD/sodipodi-0.dtd"
   xmlns="http://www.w3.org/2000/svg"
   xmlns:svg="http://www.w3.org/2000/svg">
  <sodipodi:namedview
     id="namedview7"
     pagecolor="#ffffff"
     bordercolor="#666666"
     borderopacity="1.0"
     inkscape:pageshadow="2"
     inkscape:pageopacity="0.0"
     inkscape:pagecheckerboard="0"
     inkscape:document-units="px"
     showgrid="false"
     units="px"
     height="64px"
     inkscape:zoom="24.84375"
     inkscape:cx="16"
     inkscape:cy="16"
     inkscape:window-width="1920"
     inkscape:window-height="1011"
     inkscape:window-x="0"
     inkscape:window-y="0"
     inkscape:window-maximized="1"
     inkscape:current-layer="svg5"
     inkscape:showpageshadow="2"
     inkscape:deskcolor="#d1d1d1" />
  <defs
     id="defs2" />
  <rect
     style="fill:#4d4d4d;stroke-width:0.264583;fill-opacity:1"
     id="rect846"
     width="7.9375"
     height="7.9375"
     x="0.26458335"
     y="0.26458335"
     ry="1.5875" />
  <path
     d="m 2.1166987,1.5875 c -0.4383937,0 -0.7937819,0.3553858 -0.7937819,0.7937819 3.44e-5,0.3363622 0.212063,0.6361854 0.5291879,0.7483052 v 2.736657 C 1.5349798,5.9783693 1.3229506,6.2781926 1.3229168,6.6145548 c 0,0.438388 0.3553882,0.7937816 0.7937819,0.7937816 0.3363618,-3.7e-5 0.6361844,-0.212066 0.7483052,-0.5291878 h 2.7366588 c 0.11212,0.3171218 0.4119435,0.5291508 0.7483053,0.5291878 0.4383938,0 0.793782,-0.3553936 0.793782,-0.7937816 C 7.1437162,6.2781926 6.931687,5.9783693 6.614562,5.8662441 V 3.1295871 C 6.931687,3.0174671 7.1437162,2.7176441 7.14375,2.3812819 7.14375,1.9428858 6.7883618,1.5875 6.349968,1.5875 6.0137956,1.587754 5.7142369,1.799741 5.6021797,2.1166881 H 2.8650039 C 2.7528831,1.799561 2.4530605,1.5875318 2.1166987,1.5875 Z m 0.7483052,1.0583759 h 2.7366588 c 0.024532,0.069504 0.058622,0.13525 0.10129,0.195344 l -0.3726016,0.372602 c -0.053414,-0.025506 -0.11186,-0.038738 -0.171056,-0.038738 -0.1679919,2.382e-4 -0.3176385,0.106208 -0.3736355,0.264594 H 3.6820411 C 3.6259175,3.2809393 3.4757423,3.1748839 3.3073719,3.1750849 c -0.05906,2.382e-4 -0.117324,0.01366 -0.170538,0.039266 l -0.3731202,-0.37312 c 0.042668,-0.060094 0.07676,-0.12584 0.10129,-0.195344 z M 2.5761207,3.0288127 2.9492395,3.4019333 c -0.025362,0.053096 -0.038604,0.111176 -0.038758,0.170022 1.74e-5,0.168182 0.106032,0.31809 0.264594,0.3741526 v 1.1036167 c -0.158562,0.056062 -0.264577,0.2059754 -0.264594,0.3741579 8.58e-5,0.059404 0.0135,0.118038 0.039276,0.171566 L 2.5771557,5.9680559 c -0.060226,-0.042918 -0.126152,-0.07716 -0.195862,-0.101812 V 3.1295871 c 0.069294,-0.024394 0.134862,-0.058328 0.194827,-0.1007744 z m 3.3144253,0 c 0.059966,0.042442 0.125534,0.076362 0.194828,0.100774 v 2.736657 c -0.06971,0.02466 -0.135634,0.058914 -0.195862,0.101812 L 5.5169101,5.5954483 c 0.025766,-0.053528 0.039192,-0.112162 0.039276,-0.171566 C 5.5561695,5.2556994 5.4501551,5.1057866 5.2915925,5.049724 V 3.9461073 c 0.158562,-0.056062 0.264577,-0.2059702 0.264594,-0.3741526 -1.556e-4,-0.058846 -0.0134,-0.116924 -0.038758,-0.170022 z M 3.6820411,3.7042515 H 4.785142 c 0.039964,0.113004 0.128854,0.2018904 0.2418558,0.2418558 V 5.049724 C 4.914192,5.0898348 4.8255114,5.1786924 4.7856592,5.291585 H 3.6820411 C 3.6419711,5.1784702 3.5528683,5.0895544 3.4396687,5.049724 V 3.9461073 c 0.1132,-0.03985 0.2022998,-0.12874 0.2423724,-0.2418558 z m 0,1.8519274 H 4.785142 c 0.05606,0.15856 0.2059718,0.2645728 0.3741527,0.264594 0.059196,-5.4e-6 0.117642,-0.01322 0.171056,-0.038738 L 5.7034693,6.154637 c -0.042668,0.060094 -0.07676,0.125842 -0.10129,0.195344 H 2.8650039 C 2.8404779,6.280477 2.8063819,6.214731 2.7637139,6.154637 l 0.372602,-0.3726075 c 0.053416,0.025506 0.11186,0.038738 0.171056,0.038738 0.16837,2.012e-4 0.3185456,-0.105854 0.3746692,-0.2645938 z"
     style="fill:#000000;fill-opacity:1;stroke-width:0.529188;enable-background:new;opacity:0.2"
     id="path1292" />
  <path
     d="m 2.1166987,1.3229167 c -0.4383938,0 -0.793782,0.3553858 -0.793782,0.7937818 3.44e-5,0.3363622 0.212063,0.6361854 0.529188,0.7483052 v 2.7366569 c -0.317125,0.1121252 -0.5291542,0.4119485 -0.529188,0.7483107 0,0.438388 0.3553882,0.7937816 0.793782,0.7937816 0.3363618,-3.7e-5 0.6361844,-0.212066 0.7483052,-0.5291878 h 2.7366589 c 0.11212,0.3171218 0.4119435,0.5291508 0.7483053,0.5291878 0.4383938,0 0.793782,-0.3553936 0.793782,-0.7937816 C 7.1437163,6.0136091 6.9316871,5.7137858 6.6145621,5.6016606 V 2.8650037 c 0.317125,-0.11212 0.5291542,-0.411943 0.529188,-0.7483052 0,-0.438396 -0.3553882,-0.7937818 -0.793782,-0.7937818 -0.3361724,2.54e-4 -0.6357311,0.212241 -0.7477883,0.529188 H 2.8650039 C 2.7528831,1.5349777 2.4530605,1.3229485 2.1166987,1.3229167 Z m 0.7483052,1.0583758 h 2.7366589 c 0.024532,0.069504 0.058622,0.13525 0.10129,0.195344 l -0.3726016,0.372602 c -0.053414,-0.025506 -0.11186,-0.038738 -0.171056,-0.038738 -0.167992,2.382e-4 -0.3176386,0.106208 -0.3736356,0.264594 H 3.6820411 C 3.6259175,3.0163559 3.4757423,2.9103005 3.3073719,2.9105015 c -0.05906,2.382e-4 -0.117324,0.01366 -0.170538,0.039266 l -0.3731202,-0.37312 c 0.042668,-0.060094 0.07676,-0.12584 0.10129,-0.195344 z M 2.5761207,2.7642293 2.9492395,3.1373499 c -0.025362,0.053096 -0.038604,0.111176 -0.038758,0.170022 1.74e-5,0.168182 0.106032,0.31809 0.264594,0.3741526 v 1.1036167 c -0.158562,0.056062 -0.264577,0.2059754 -0.264594,0.3741578 8.58e-5,0.059404 0.0135,0.118038 0.039276,0.171566 L 2.5771557,5.7034724 c -0.060226,-0.042918 -0.126152,-0.07716 -0.195862,-0.101812 V 2.8650037 c 0.069294,-0.024394 0.134862,-0.058328 0.194827,-0.1007744 z m 3.3144254,0 c 0.059966,0.042442 0.125534,0.076362 0.194828,0.100774 v 2.7366569 c -0.06971,0.02466 -0.135634,0.058914 -0.195862,0.101812 L 5.5169102,5.3308648 c 0.025766,-0.053528 0.039192,-0.112162 0.039276,-0.171566 C 5.5561696,4.991116 5.4501552,4.8412032 5.2915926,4.7851406 V 3.6815239 c 0.158562,-0.056062 0.264577,-0.2059702 0.264594,-0.3741526 -1.556e-4,-0.058846 -0.0134,-0.116924 -0.038758,-0.170022 z M 3.6820411,3.4396681 H 4.785142 c 0.039964,0.113004 0.128854,0.2018904 0.2418558,0.2418558 V 4.7851406 C 4.914192,4.8252514 4.8255114,4.914109 4.7856592,5.0270016 H 3.6820411 C 3.6419711,4.9138868 3.5528683,4.824971 3.4396687,4.7851406 V 3.6815239 c 0.1132,-0.03985 0.2022998,-0.12874 0.2423724,-0.2418558 z m 0,1.8519273 H 4.785142 c 0.05606,0.15856 0.2059718,0.2645728 0.3741528,0.264594 0.059196,-5.4e-6 0.117642,-0.01322 0.171056,-0.038738 l 0.3731186,0.3726021 c -0.042668,0.060094 -0.07676,0.125842 -0.10129,0.195344 H 2.8650039 c -0.024526,-0.069504 -0.058622,-0.13525 -0.10129,-0.195344 L 3.1363159,5.517446 c 0.053416,0.025506 0.11186,0.038738 0.171056,0.038738 0.16837,2.012e-4 0.3185456,-0.105854 0.3746692,-0.2645938 z"
     style="fill:#ffffff;fill-opacity:1;stroke-width:0.529188;enable-background:new"
     id="path401"
     sodipodi:nodetypes="cccccccccccccccccccccccccccccccccccccccccccccccccccccccccccccccccccccccc" />
  <path
     id="rect1107"
     style="opacity:0.2;fill:#ffffff;stroke-width:0.79375;stroke-linejoin:round"
     d="m 1.8520834,0.26458334 c -0.8794751,0 -1.58750006,0.70802492 -1.58750006,1.58750006 v 0.2645834 c 0,-0.8794751 0.70802496,-1.58750012 1.58750006,-1.58750012 h 4.7625001 c 0.879475,0 1.5875001,0.70802502 1.5875001,1.58750012 V 1.8520834 c 0,-0.87947514 -0.7080251,-1.58750006 -1.5875001,-1.58750006 z"
     sodipodi:nodetypes="sscsscsss" />
  <path
     id="rect1153"
     style="opacity:0.2;fill:#000000;stroke-width:0.79375;stroke-linejoin:round"
     d="m 0.26458334,6.3500001 v 0.2645834 c 0,0.879475 0.70802496,1.5875 1.58750006,1.5875 h 4.7625001 c 0.879475,0 1.5875001,-0.708025 1.5875001,-1.5875 V 6.3500001 c 0,0.879475 -0.7080251,1.5875001 -1.5875001,1.5875001 H 1.8520834 c -0.8794751,0 -1.58750006,-0.7080251 -1.58750006,-1.5875001 z"
     sodipodi:nodetypes="csssscssc" />
</svg>
