<?xml version="1.0" encoding="UTF-8" standalone="no"?>
<!-- Created with Inkscape (http://www.inkscape.org/) -->

<svg
   width="32"
   height="32"
   viewBox="0 0 8.4666665 8.466667"
   version="1.1"
   id="svg5"
   inkscape:version="1.2 (dc2aedaf03, 2022-05-15)"
   sodipodi:docname="google-photos.svg"
   xmlns:inkscape="http://www.inkscape.org/namespaces/inkscape"
   xmlns:sodipodi="http://sodipodi.sourceforge.net/DTD/sodipodi-0.dtd"
   xmlns="http://www.w3.org/2000/svg"
   xmlns:svg="http://www.w3.org/2000/svg">
  <sodipodi:namedview
     id="namedview7"
     pagecolor="#ffffff"
     bordercolor="#666666"
     borderopacity="1.0"
     inkscape:pageshadow="2"
     inkscape:pageopacity="0.0"
     inkscape:pagecheckerboard="0"
     inkscape:document-units="px"
     showgrid="false"
     units="px"
     height="64px"
     inkscape:zoom="27.0625"
     inkscape:cx="15.020785"
     inkscape:cy="16.036952"
     inkscape:window-width="1920"
     inkscape:window-height="1024"
     inkscape:window-x="0"
     inkscape:window-y="32"
     inkscape:window-maximized="1"
     inkscape:current-layer="svg5"
     inkscape:showpageshadow="2"
     inkscape:deskcolor="#d1d1d1" />
  <defs
     id="defs2" />
  <rect
     style="fill:#f8f8f8;stroke-width:0.264583;fill-opacity:1"
     id="rect846"
     width="7.9375"
     height="7.9375"
     x="0.26458335"
     y="0.26458335"
     ry="1.5875" />
  <path
     d="m 4.3542566,1.8520834 c -0.066523,0 -0.120923,0.054399 -0.120923,0.1209229 v 2.4039879 c 0,-0.7302493 -0.5926675,-1.3229169 -1.3229165,-1.3229169 -0.7302496,0 -1.3229171,0.5926676 -1.3229171,1.3229169 0,0.066524 0.054399,0.120923 0.120923,0.120923 h 2.4039876 c -0.730249,0 -1.3229166,0.5926665 -1.3229166,1.3229167 0,0.7302495 0.5926676,1.322916 1.3229166,1.322916 0.066524,0 0.120923,-0.054399 0.120923,-0.1209225 V 4.6188397 c 0,0.7302501 0.5926675,1.3229172 1.3229161,1.3229172 0.7302495,0 1.322917,-0.5926676 1.322917,-1.3229177 0,-0.066523 -0.054399,-0.1209225 -0.120923,-0.1209225 H 4.3542566 c 0.7302495,0 1.3229161,-0.592667 1.3229161,-1.3229165 0,-0.7302494 -0.5926666,-1.3229168 -1.3229161,-1.3229168 z"
     style="opacity:0.2;fill:#000000;stroke-width:0.0151191"
     id="path718" />
  <path
     d="m 2.9104165,2.7894646 c -0.73025,0 -1.3229165,0.5926665 -1.3229165,1.3229166 0,0.066524 0.054429,0.1209526 0.1209525,0.1209526 H 4.2333336 V 4.1123812 c 0,-0.73025 -0.5926671,-1.3229166 -1.3229171,-1.3229166 z"
     style="fill:#fbbb05;stroke-width:0.0151191"
     id="path385" />
  <path
     d="m 4.3542855,1.5875 c -0.066523,0 -0.120952,0.054429 -0.120952,0.1209525 v 2.5248812 h 0.120952 c 0.7302506,0 1.3229172,-0.5926671 1.3229172,-1.3229171 C 5.6772027,2.1801665 5.0845361,1.5875 4.3542855,1.5875 Z"
     style="fill:#e94335;stroke-width:0.0151191"
     id="path352" />
  <path
     d="m 4.2333336,4.2333338 v 0.120952 c 0,0.7302503 0.5926667,1.3229174 1.3229166,1.3229174 0.73025,0 1.3229165,-0.5926671 1.3229165,-1.3229174 0,-0.066523 -0.054428,-0.120952 -0.120952,-0.120952 z"
     style="fill:#4285f4;stroke-width:0.0151191"
     id="path451" />
  <path
     d="m 4.1123811,4.2333338 c -0.7302501,0 -1.3229166,0.5926665 -1.3229166,1.3229169 0,0.73025 0.5926665,1.3229165 1.3229166,1.3229165 0.066524,0 0.1209525,-0.054429 0.1209525,-0.120952 V 4.2333338 Z"
     style="fill:#0f9d58;stroke-width:0.0151191"
     id="path418" />
  <path
     id="rect1107"
     style="opacity:0.2;fill:#ffffff;stroke-width:0.79375;stroke-linejoin:round"
     d="m 1.8520834,0.26458334 c -0.8794751,0 -1.58750006,0.70802492 -1.58750006,1.58750006 v 0.2645834 c 0,-0.8794751 0.70802496,-1.58750012 1.58750006,-1.58750012 h 4.7625001 c 0.879475,0 1.5875001,0.70802502 1.5875001,1.58750012 V 1.8520834 c 0,-0.87947514 -0.7080251,-1.58750006 -1.5875001,-1.58750006 z"
     sodipodi:nodetypes="sscsscsss" />
  <path
     id="rect1153"
     style="opacity:0.2;fill:#000000;stroke-width:0.79375;stroke-linejoin:round"
     d="m 0.26458334,6.3500001 v 0.2645834 c 0,0.879475 0.70802496,1.5875 1.58750006,1.5875 h 4.7625001 c 0.879475,0 1.5875001,-0.708025 1.5875001,-1.5875 V 6.3500001 c 0,0.879475 -0.7080251,1.5875001 -1.5875001,1.5875001 H 1.8520834 c -0.8794751,0 -1.58750006,-0.7080251 -1.58750006,-1.5875001 z"
     sodipodi:nodetypes="csssscssc" />
</svg>
