<?xml version="1.0" encoding="UTF-8" standalone="no"?>
<!-- Created with Inkscape (http://www.inkscape.org/) -->

<svg
   width="32"
   height="32"
   viewBox="0 0 8.4666665 8.466667"
   version="1.1"
   id="svg5"
   inkscape:version="1.2 (dc2aedaf03, 2022-05-15)"
   sodipodi:docname="google-docs.svg"
   xmlns:inkscape="http://www.inkscape.org/namespaces/inkscape"
   xmlns:sodipodi="http://sodipodi.sourceforge.net/DTD/sodipodi-0.dtd"
   xmlns="http://www.w3.org/2000/svg"
   xmlns:svg="http://www.w3.org/2000/svg">
  <sodipodi:namedview
     id="namedview7"
     pagecolor="#ffffff"
     bordercolor="#666666"
     borderopacity="1.0"
     inkscape:pageshadow="2"
     inkscape:pageopacity="0.0"
     inkscape:pagecheckerboard="0"
     inkscape:document-units="px"
     showgrid="false"
     units="px"
     height="64px"
     inkscape:zoom="24.6875"
     inkscape:cx="16.060759"
     inkscape:cy="16.060759"
     inkscape:window-width="1920"
     inkscape:window-height="1011"
     inkscape:window-x="0"
     inkscape:window-y="0"
     inkscape:window-maximized="1"
     inkscape:current-layer="svg5"
     inkscape:showpageshadow="2"
     inkscape:deskcolor="#d1d1d1" />
  <defs
     id="defs2" />
  <rect
     style="fill:#f8f8f8;stroke-width:0.264583;fill-opacity:1"
     id="rect846"
     width="7.9375"
     height="7.9375"
     x="0.26458335"
     y="0.26458335"
     ry="1.5875" />
  <path
     id="rect1150"
     style="fill:#3086f6;stroke-width:0.136545"
     d="m 2.6752316,1.5875 h 2.0872688 l 1.3229164,1.3229167 v 3.6747681 c 0,0.162866 -0.1311155,0.293982 -0.293981,0.293982 H 2.6752316 c -0.1628657,0 -0.2939815,-0.131116 -0.2939815,-0.293982 V 1.8814811 C 2.3812501,1.7186156 2.5123659,1.5875 2.6752316,1.5875 Z"
     sodipodi:nodetypes="sccssssss" />
  <path
     id="rect10694"
     style="fill:#0c67d6;stroke-width:0.293982"
     d="M 4.7624999,1.5875 6.0854168,2.9104167 H 4.7624999 Z"
     sodipodi:nodetypes="cccc" />
  <path
     id="rect20359"
     style="fill:#fdffff;stroke-width:0.272699"
     d="m 3.0427083,3.7041666 h 2.38125 v 0.2645833 h -2.38125 z"
     sodipodi:nodetypes="ccccc" />
  <path
     id="rect20361"
     style="fill:#fdffff;stroke-width:0.272699"
     d="m 3.0427083,4.3656252 h 2.38125 v 0.2645835 h -2.38125 z"
     sodipodi:nodetypes="ccccc" />
  <path
     id="rect20363"
     style="fill:#fdffff;stroke-width:0.25368"
     d="m 3.0427083,5.0270837 h 1.5875001 v 0.264583 H 3.0427083 Z"
     sodipodi:nodetypes="ccccc" />
  <path
     id="rect1107"
     style="opacity:0.2;fill:#ffffff;stroke-width:0.79375;stroke-linejoin:round"
     d="m 1.8520834,0.26458334 c -0.8794751,0 -1.58750006,0.70802492 -1.58750006,1.58750006 v 0.2645834 c 0,-0.8794751 0.70802496,-1.58750012 1.58750006,-1.58750012 h 4.7625001 c 0.879475,0 1.5875001,0.70802502 1.5875001,1.58750012 V 1.8520834 c 0,-0.87947514 -0.7080251,-1.58750006 -1.5875001,-1.58750006 z"
     sodipodi:nodetypes="sscsscsss" />
  <path
     id="rect1153"
     style="opacity:0.2;fill:#000000;stroke-width:0.79375;stroke-linejoin:round"
     d="m 0.26458334,6.3500001 v 0.2645834 c 0,0.879475 0.70802496,1.5875 1.58750006,1.5875 h 4.7625001 c 0.879475,0 1.5875001,-0.708025 1.5875001,-1.5875 V 6.3500001 c 0,0.879475 -0.7080251,1.5875001 -1.5875001,1.5875001 H 1.8520834 c -0.8794751,0 -1.58750006,-0.7080251 -1.58750006,-1.5875001 z"
     sodipodi:nodetypes="csssscssc" />
</svg>
