<?xml version="1.0" encoding="UTF-8" standalone="no"?>
<!-- Created with Inkscape (http://www.inkscape.org/) -->

<svg
   width="32"
   height="32"
   viewBox="0 0 8.4666665 8.466667"
   version="1.1"
   id="svg5"
   inkscape:version="1.2 (dc2aedaf03, 2022-05-15)"
   sodipodi:docname="google-chrome-beta.svg"
   xmlns:inkscape="http://www.inkscape.org/namespaces/inkscape"
   xmlns:sodipodi="http://sodipodi.sourceforge.net/DTD/sodipodi-0.dtd"
   xmlns="http://www.w3.org/2000/svg"
   xmlns:svg="http://www.w3.org/2000/svg">
  <sodipodi:namedview
     id="namedview7"
     pagecolor="#ffffff"
     bordercolor="#666666"
     borderopacity="1.0"
     inkscape:pageshadow="2"
     inkscape:pageopacity="0.0"
     inkscape:pagecheckerboard="0"
     inkscape:document-units="px"
     showgrid="false"
     units="px"
     height="64px"
     inkscape:zoom="27.0625"
     inkscape:cx="14.983834"
     inkscape:cy="16"
     inkscape:window-width="1920"
     inkscape:window-height="1024"
     inkscape:window-x="0"
     inkscape:window-y="32"
     inkscape:window-maximized="1"
     inkscape:current-layer="svg5"
     inkscape:showpageshadow="2"
     inkscape:deskcolor="#d1d1d1" />
  <defs
     id="defs2" />
  <rect
     style="fill:#f8f8f8;stroke-width:0.264583;fill-opacity:1"
     id="rect846"
     width="7.9375"
     height="7.9375"
     x="0.26458335"
     y="0.26458335"
     ry="1.5875" />
  <ellipse
     style="opacity:0.2;fill:#000000;fill-opacity:1;stroke-width:0.132291"
     id="path8534"
     cx="4.2333336"
     cy="4.4979172"
     rx="2.9104166"
     ry="2.9104168" />
  <circle
     style="fill:#df362a;fill-opacity:0.996078;stroke-width:0.121267"
     id="path354"
     cx="4.2333336"
     cy="4.2333331"
     r="2.9104166" />
  <path
     id="rect6234"
     style="fill:#229141;stroke-width:0.121267"
     d="m 1.7247009,2.7781253 c -0.010979,0.018668 -0.029101,0.044012 -0.050126,0.072347 A 2.9104165,2.9104165 0 0 0 1.3229167,4.2333336 2.9104165,2.9104165 0 0 0 4.2333333,7.1437502 L 5.4459209,6.4647217 5.4503109,5.0270837 2.97656,4.9795417 Z" />
  <path
     id="rect2054"
     style="fill:#fbbd0c;fill-opacity:1;stroke-width:0.121267"
     d="M 4.2333333,2.7781253 5.4503134,5.0270837 4.2333333,7.1437502 A 2.9104165,2.9104165 0 0 0 7.1437499,4.2333336 2.9104165,2.9104165 0 0 0 6.7535929,2.7781253 Z" />
  <circle
     style="fill:#ffffff;stroke-width:0.121267"
     id="path911"
     cx="4.2333336"
     cy="4.2333331"
     r="1.4552083" />
  <circle
     style="fill:#1a73e8;fill-opacity:1;stroke-width:0.0992185"
     id="path1724"
     cx="4.2333331"
     cy="4.2333331"
     r="1.190625" />
  <path
     id="rect1153"
     style="opacity:0.2;fill:#000000;stroke-width:0.79375;stroke-linejoin:round"
     d="m 0.26458334,6.3500001 v 0.2645834 c 0,0.879475 0.70802496,1.5875 1.58750006,1.5875 h 4.7625001 c 0.879475,0 1.5875001,-0.708025 1.5875001,-1.5875 V 6.3500001 c 0,0.879475 -0.7080251,1.5875001 -1.5875001,1.5875001 H 1.8520834 c -0.8794751,0 -1.58750006,-0.7080251 -1.58750006,-1.5875001 z"
     sodipodi:nodetypes="csssscssc" />
  <path
     id="path3131"
     style="fill:#414242;stroke-width:0.264583"
     d="M 1.4185181 4.966622 A 2.9104166 2.9104168 0 0 0 4.2333334 7.1437501 A 2.9104166 2.9104168 0 0 0 7.0481487 4.966622 L 1.4185181 4.966622 z " />
  <path
     id="path59350"
     style="font-size:33.394px;line-height:1.25;font-family:'Google Sans';-inkscape-font-specification:'Google Sans';fill:#ffffff;stroke-width:0.0347036"
     d="m 2.9104167,5.2916667 v 0.9938961 h 0.376283 c 0.05275,0 0.1019125,-0.012063 0.1472587,-0.036119 0.046271,-0.024062 0.082714,-0.057057 0.1095513,-0.099627 0.027763,-0.043494 0.041676,-0.092393 0.041676,-0.1460674 0,-0.0546 -0.015769,-0.1021738 -0.047233,-0.1428929 -0.031464,-0.040719 -0.072278,-0.069475 -0.1222518,-0.086133 v -0.0055 c 0.041644,-0.019431 0.074376,-0.047263 0.098436,-0.083354 0.024986,-0.036094 0.037708,-0.0781 0.037708,-0.1262221 0,-0.050901 -0.012986,-0.096616 -0.038899,-0.1373353 -0.025913,-0.040719 -0.061161,-0.072522 -0.1055813,-0.095659 -0.043495,-0.023138 -0.09014,-0.034931 -0.1401138,-0.034931 z m 1.6531851,0.086133 V 5.5778485 H 4.4401593 v 0.1067713 h 0.1234425 v 0.4151813 c 0,0.033313 0.00464,0.061408 0.013892,0.084545 0.00925,0.023137 0.023169,0.043544 0.041676,0.061126 0.016659,0.015731 0.037065,0.028062 0.061126,0.037306 0.024986,0.00926 0.051886,0.013894 0.080575,0.013894 0.022213,0 0.0401,-0.00119 0.053981,-0.00394 0.014806,-0.00275 0.029381,-0.00741 0.043263,-0.013894 V 6.1637336 c -0.024988,0.015731 -0.050956,0.023419 -0.077796,0.023419 -0.033313,0 -0.058626,-0.010212 -0.076209,-0.030562 -0.014807,-0.018506 -0.022228,-0.047263 -0.022228,-0.086133 v -0.38581 H 4.8537535 V 5.5778757 H 4.6818858 V 5.3778265 Z m -1.5364897,0.026594 h 0.2456954 c 0.03239,0 0.060484,0.00769 0.084545,0.023419 0.024986,0.015731 0.0442,0.036137 0.057158,0.061126 0.013882,0.024063 0.02064,0.048444 0.02064,0.073431 0,0.025906 -0.00676,0.05162 -0.02064,0.076606 -0.013883,0.024063 -0.034024,0.043806 -0.059936,0.059539 -0.024986,0.015731 -0.054007,0.023419 -0.087324,0.023419 H 3.0271116 Z m 1.0062004,0.1512287 c -0.068481,0 -0.1283791,0.016962 -0.1802031,0.0512 -0.051824,0.034237 -0.091976,0.079959 -0.1206651,0.1373354 -0.027763,0.057376 -0.041676,0.1204538 -0.041676,0.188936 0,0.071259 0.014843,0.1355272 0.044455,0.1929041 0.030539,0.056451 0.072546,0.1009763 0.1262216,0.1333666 0.053675,0.032388 0.114235,0.048425 0.1817907,0.048425 0.074034,0 0.1371114,-0.016694 0.1889354,-0.050012 0.05275,-0.033313 0.094095,-0.078371 0.1246338,-0.1357479 l -0.1000253,-0.04882 c -0.049048,0.085139 -0.1188838,0.1278097 -0.2095754,0.1278097 -0.038868,0 -0.076238,-0.00927 -0.1123288,-0.027781 -0.035166,-0.018506 -0.064188,-0.046337 -0.087324,-0.083354 -0.023136,-0.037019 -0.036121,-0.08247 -0.038899,-0.1361448 h 0.559265 c 0.00279,-0.010188 0.00437,-0.022238 0.00437,-0.036119 0,-0.070333 -0.013915,-0.1327472 -0.041676,-0.1873472 C 4.3037727,5.6756722 4.2648151,5.6333984 4.2139151,5.6028598 4.1630163,5.571391 4.1027226,5.5556222 4.0333153,5.5556222 Z m 1.2133936,0 c -0.059226,0 -0.1132938,0.012062 -0.1623411,0.036119 -0.048119,0.024063 -0.086154,0.057057 -0.1139175,0.099626 l 0.088911,0.066681 c 0.019431,-0.030544 0.045675,-0.053995 0.078988,-0.070653 0.033313,-0.017581 0.070154,-0.026594 0.1099476,-0.026594 0.056451,0 0.1030963,0.016431 0.1401136,0.048819 0.037019,0.031469 0.055576,0.073472 0.055576,0.1262216 V 5.879111 C 5.4245527,5.867074 5.3960587,5.856217 5.3590427,5.846961 5.3229487,5.837701 5.2837257,5.833067 5.2411564,5.833067 c -0.086065,0 -0.15749,0.021331 -0.2139419,0.063903 -0.056451,0.041644 -0.084545,0.1000826 -0.084545,0.1750433 0,0.04535 0.011138,0.085763 0.033338,0.1218551 0.022213,0.035163 0.05375,0.062998 0.094468,0.083354 0.040713,0.020356 0.087099,0.030563 0.1389228,0.030563 0.0509,0 0.096616,-0.012063 0.1373353,-0.036119 0.040719,-0.024063 0.07133,-0.053083 0.091689,-0.087323 h 0.0055 V 6.2855582 H 5.5562501 V 5.8374354 c 0,-0.08699 -0.027831,-0.1556331 -0.083354,-0.2056061 -0.0546,-0.0509 -0.1300015,-0.076209 -0.2262464,-0.076209 z M 4.0321216,5.6623931 c 0.048123,0 0.088009,0.010212 0.1194739,0.030562 0.03239,0.020356 0.055846,0.0454 0.070653,0.075019 0.014807,0.029612 0.023155,0.059301 0.025006,0.08891 H 3.8154016 c 0.012037,-0.058301 0.037075,-0.1053435 0.075019,-0.1405103 0.038867,-0.036094 0.086176,-0.053981 0.141701,-0.053981 z M 3.0271121,5.83307 h 0.2607786 c 0.035166,0 0.066439,0.00835 0.093277,0.025006 0.026838,0.015731 0.04751,0.037069 0.062318,0.063903 0.014806,0.025906 0.022228,0.052813 0.022228,0.080575 0,0.027762 -0.00743,0.054933 -0.022228,0.081766 -0.013882,0.025906 -0.034289,0.04725 -0.061126,0.063903 -0.025913,0.016662 -0.055596,0.025006 -0.088911,0.025006 H 3.027113 Z m 2.231899,0.095659 c 0.036094,0 0.070413,0.00462 0.1028026,0.013894 0.032394,0.00926 0.059958,0.021312 0.082164,0.036119 0,0.040719 -0.010212,0.078485 -0.030563,0.1127263 -0.020356,0.034237 -0.047919,0.061406 -0.082164,0.081766 -0.034237,0.020356 -0.070948,0.030563 -0.1107413,0.030563 -0.04535,0 -0.083113,-0.012063 -0.1127264,-0.036119 -0.029612,-0.024062 -0.044456,-0.0556 -0.044456,-0.094467 0,-0.042569 0.016431,-0.077158 0.048819,-0.1039938 0.033313,-0.026838 0.082081,-0.040488 0.1468616,-0.040488 z" />
  <path
     id="rect1107"
     style="opacity:0.2;fill:#ffffff;stroke-width:0.79375;stroke-linejoin:round"
     d="m 1.8520834,0.26458334 c -0.8794751,0 -1.58750006,0.70802492 -1.58750006,1.58750006 v 0.2645834 c 0,-0.8794751 0.70802496,-1.58750012 1.58750006,-1.58750012 h 4.7625001 c 0.879475,0 1.5875001,0.70802502 1.5875001,1.58750012 V 1.8520834 c 0,-0.87947514 -0.7080251,-1.58750006 -1.5875001,-1.58750006 z"
     sodipodi:nodetypes="sscsscsss" />
</svg>
