<?xml version="1.0" encoding="UTF-8" standalone="no"?>
<!-- Created with Inkscape (http://www.inkscape.org/) -->

<svg
   width="32"
   height="32"
   viewBox="0 0 8.4666665 8.466667"
   version="1.1"
   id="svg5"
   inkscape:version="1.2 (dc2aedaf03, 2022-05-15)"
   sodipodi:docname="internet-mail.svg"
   xmlns:inkscape="http://www.inkscape.org/namespaces/inkscape"
   xmlns:sodipodi="http://sodipodi.sourceforge.net/DTD/sodipodi-0.dtd"
   xmlns="http://www.w3.org/2000/svg"
   xmlns:svg="http://www.w3.org/2000/svg">
  <sodipodi:namedview
     id="namedview7"
     pagecolor="#ffffff"
     bordercolor="#666666"
     borderopacity="1.0"
     inkscape:pageshadow="2"
     inkscape:pageopacity="0.0"
     inkscape:pagecheckerboard="0"
     inkscape:document-units="px"
     showgrid="false"
     units="px"
     height="64px"
     inkscape:zoom="24.84375"
     inkscape:cx="15.979874"
     inkscape:cy="16"
     inkscape:window-width="1920"
     inkscape:window-height="1011"
     inkscape:window-x="0"
     inkscape:window-y="0"
     inkscape:window-maximized="1"
     inkscape:current-layer="svg5"
     inkscape:showpageshadow="2"
     inkscape:deskcolor="#d1d1d1" />
  <defs
     id="defs2" />
  <rect
     style="fill:#2696f7;stroke-width:0.264583;fill-opacity:1"
     id="rect846"
     width="7.9375"
     height="7.9375"
     x="0.26458335"
     y="0.26458335"
     ry="1.5875" />
  <rect
     style="opacity:0.2;fill:#000000;fill-opacity:1;stroke-width:0.79375;stroke-linejoin:round"
     id="rect7105"
     width="5.2916665"
     height="3.7041667"
     x="1.5875"
     y="2.6458335"
     ry="0.5291667" />
  <rect
     style="fill:#e8e8e8;fill-opacity:1;stroke-width:0.417763;stroke-linejoin:round"
     id="rect926"
     width="5.2916665"
     height="3.7041667"
     x="1.5875"
     y="2.3812499"
     ry="0.5291667" />
  <path
     id="path5665"
     style="opacity:0.1;fill:#000000;stroke-width:0.110534;stroke-linejoin:round"
     d="m 4.2333334,3.5243328 c -0.2135448,0 -0.4270083,0.082326 -0.5906616,0.2459798 L 1.6355591,5.7774253 c 0.083459,0.1821038 0.2669966,0.3079915 0.4811076,0.3079915 h 4.2333334 c 0.214111,0 0.3976491,-0.1258877 0.4811076,-0.3079915 L 4.8239951,3.7703126 C 4.6603416,3.6066595 4.4468781,3.5243328 4.2333334,3.5243328 Z" />
  <path
     id="path5361"
     style="fill:#f5f5f5;fill-opacity:1;stroke-width:0.417763;stroke-linejoin:round"
     d="m 4.2333334,3.8033855 c -0.2135447,0 -0.4270084,0.08181 -0.5906616,0.2454631 L 1.7518311,5.9396893 c 0.094829,0.090266 0.2229717,0.1457275 0.3648356,0.1457275 h 4.2333334 c 0.1418639,0 0.2700063,-0.055462 0.3648356,-0.1457275 L 4.8239951,4.0488486 C 4.6603418,3.8851954 4.4468782,3.8033855 4.2333334,3.8033855 Z" />
  <path
     id="path6508"
     style="opacity:0.2;fill:#000000;stroke-width:0.417763;stroke-linejoin:round"
     d="m 2.1166667,2.3812501 c -0.2510396,0 -0.4603034,0.1728777 -0.515214,0.4066935 l 2.0412191,2.0412191 c 0.3273063,0.3273064 0.8540169,0.3273063 1.1813233,0 L 6.8652141,2.7879436 C 6.8103035,2.5541278 6.6010398,2.3812501 6.3500001,2.3812501 Z" />
  <path
     id="rect1048"
     style="fill:#f9f9f9;stroke-width:0.417763;stroke-linejoin:round"
     d="m 2.1166667,2.3812501 c -0.1758077,0 -0.3307228,0.085343 -0.4268473,0.2165243 l 1.9528524,1.9528524 c 0.3273064,0.3273064 0.8540169,0.3273064 1.1813233,0 L 6.7768474,2.5977744 C 6.6807229,2.4665927 6.5258079,2.3812501 6.3500001,2.3812501 Z" />
  <path
     id="path5132"
     style="opacity:0.1;fill:#000000;stroke-width:0.417763;stroke-linejoin:round"
     d="m 1.9213298,2.4184572 c -0.09326,0.036883 -0.1731789,0.099712 -0.2315104,0.1793172 l 1.9528524,1.9528524 c 0.327306,0.3273059 0.8540173,0.3273059 1.1813233,0 L 6.7768474,2.5977744 C 6.718516,2.5181691 6.6385966,2.4553405 6.545337,2.4184572 L 4.7258098,4.2379843 c -0.3028198,0.3028198 -0.6034005,0.3815524 -0.9849528,0 z"
     sodipodi:nodetypes="ccssccssc" />
  <path
     id="rect1107"
     style="opacity:0.2;fill:#ffffff;stroke-width:0.79375;stroke-linejoin:round"
     d="m 1.8520834,0.26458334 c -0.8794751,0 -1.58750006,0.70802492 -1.58750006,1.58750006 v 0.2645834 c 0,-0.8794751 0.70802496,-1.58750012 1.58750006,-1.58750012 h 4.7625001 c 0.879475,0 1.5875001,0.70802502 1.5875001,1.58750012 V 1.8520834 c 0,-0.87947514 -0.7080251,-1.58750006 -1.5875001,-1.58750006 z"
     sodipodi:nodetypes="sscsscsss" />
  <path
     id="rect1153"
     style="opacity:0.2;fill:#000000;stroke-width:0.79375;stroke-linejoin:round"
     d="m 0.26458334,6.3500001 v 0.2645834 c 0,0.879475 0.70802496,1.5875 1.58750006,1.5875 h 4.7625001 c 0.879475,0 1.5875001,-0.708025 1.5875001,-1.5875 V 6.3500001 c 0,0.879475 -0.7080251,1.5875001 -1.5875001,1.5875001 H 1.8520834 c -0.8794751,0 -1.58750006,-0.7080251 -1.58750006,-1.5875001 z"
     sodipodi:nodetypes="csssscssc" />
</svg>
