<?xml version="1.0" encoding="UTF-8" standalone="no"?>
<!-- Created with Inkscape (http://www.inkscape.org/) -->

<svg
   width="32"
   height="32"
   viewBox="0 0 8.4666665 8.466667"
   version="1.1"
   id="svg5"
   inkscape:version="1.2 (dc2aedaf03, 2022-05-15)"
   sodipodi:docname="kate.svg"
   xmlns:inkscape="http://www.inkscape.org/namespaces/inkscape"
   xmlns:sodipodi="http://sodipodi.sourceforge.net/DTD/sodipodi-0.dtd"
   xmlns="http://www.w3.org/2000/svg"
   xmlns:svg="http://www.w3.org/2000/svg">
  <sodipodi:namedview
     id="namedview7"
     pagecolor="#ffffff"
     bordercolor="#666666"
     borderopacity="1.0"
     inkscape:pageshadow="2"
     inkscape:pageopacity="0.0"
     inkscape:pagecheckerboard="0"
     inkscape:document-units="px"
     showgrid="false"
     units="px"
     height="64px"
     inkscape:zoom="27.0625"
     inkscape:cx="15.981524"
     inkscape:cy="16"
     inkscape:window-width="1920"
     inkscape:window-height="1024"
     inkscape:window-x="0"
     inkscape:window-y="32"
     inkscape:window-maximized="1"
     inkscape:current-layer="svg5"
     inkscape:showpageshadow="2"
     inkscape:deskcolor="#d1d1d1" />
  <defs
     id="defs2" />
  <rect
     style="fill:#16a3ff;stroke-width:0.264583;fill-opacity:1"
     id="rect846"
     width="7.9375"
     height="7.9375"
     x="0.26458335"
     y="0.26458335"
     ry="1.5875" />
  <path
     id="path507"
     style="opacity:0.4;fill:#1e61c4;fill-opacity:1;stroke-width:0.294267"
     d="M 4.9988177,1.5527266 C 3.2577803,1.5538566 3.8059858,2.6993337 2.3120036,4.1811402 l 0.2619995,0.813387 3.1956706,3.2075562 h 0.8449097 c 0.8794741,0 1.5875,-0.7080259 1.5875,-1.5875 V 4.7542318 Z"
     sodipodi:nodetypes="ccccsscc" />
  <path
     id="path18"
     style="fill:#d4d4d4;fill-opacity:1;stroke-width:0.0760129"
     d="M 4.0160112,1.3229174 C 3.5630748,1.3225686 3.0421392,1.4516813 2.5370082,1.8176 2.0434481,2.1751559 1.8271728,2.2731497 1.5877523,2.391997 1.8010884,2.408264 3.0770495,2.2262778 3.3028708,2.9759798 3.4202796,2.9395622 3.827988,2.8264529 4.0861393,2.7514681 3.883146,2.3558623 3.6203762,1.6048655 4.9985654,1.5524743 4.7622542,1.4242524 4.4156608,1.3232294 4.0160112,1.3229174 Z" />
  <path
     id="path24"
     style="fill:#eaeaea;fill-opacity:1;stroke-width:0.0760129"
     d="M 6.704603,1.9447393 C 5.8258272,2.2446317 4.6923754,2.5899934 3.3767831,2.9542855 2.456207,3.2092115 1.9417247,3.7977638 2.3304069,4.6149158 2.7199132,5.4338106 3.3929195,5.4528199 4.2238738,6.0086547 4.8726052,6.442575 5.031257,6.663442 5.4498595,7.2649119 5.3628256,6.4338751 4.9608027,5.3628038 4.7727924,4.8908889 5.4985275,5.3250066 5.8670171,5.4223717 6.8789149,5.5283509 5.5658517,4.5936415 5.3165223,4.4110035 4.5649299,3.7703481 4.0606884,3.7957663 4.1161012,3.7913876 3.8187433,3.8084387 4.2101987,4.3608462 4.3646769,5.1721007 3.6489723,5.3209925 2.9790433,5.4603658 2.3331759,4.8821237 2.5168274,4.2627605 2.7162687,3.5902106 3.5771,3.7192604 4.4801703,3.6025946 5.3832407,3.4859088 6.208567,2.6002675 6.7048549,1.9447393 Z" />
  <path
     id="path26"
     style="fill:#bcbcbc;fill-opacity:1;stroke-width:0.0760129"
     d="M 4.5651823,3.768582 C 4.0609408,3.7940004 4.1163536,3.7896211 3.8189957,3.8066726 4.5605297,5.0429591 5.5593412,5.4324213 6.8791667,5.5268361 5.5661035,4.5921283 5.3167747,4.4092379 4.5651823,3.768582 Z" />
  <path
     id="path28"
     style="fill:#f2f2f2;fill-opacity:1;stroke-width:0.0760129"
     d="M 4.0160112,1.3231696 C 3.5630753,1.3228208 3.0421392,1.4519335 2.5370082,1.8178523 2.0434481,2.1754081 1.8269206,2.2731497 1.5875,2.391997 2.6097691,2.1644634 2.8773267,1.9020734 3.7930128,2.0950865 3.7980993,1.879811 3.6203762,1.6051177 4.9985654,1.5527266 4.7622542,1.4245048 4.4156608,1.3234817 4.0160112,1.3231696 Z" />
  <path
     id="path30"
     style="fill:#bcbcbc;fill-opacity:1;stroke-width:0.0760129"
     d="M 4.2601993,1.3799281 C 3.5752264,1.3810119 2.9124679,1.7973974 3.5359599,2.9083739 3.7509437,2.8514746 3.9253102,2.7981833 4.0861393,2.7514681 3.883146,2.3558622 3.6206281,1.6051177 4.9988177,1.5527266 4.7996912,1.4427287 4.528232,1.3795019 4.2601993,1.3799281 Z" />
  <path
     id="path32"
     style="fill:#d8d8d8;fill-opacity:1;stroke-width:0.0760129"
     d="M 6.7048549,1.9452437 C 5.8259942,2.2451361 4.6524905,2.5146564 3.3492869,2.922753 2.0665146,3.3244665 1.9125471,4.0869608 2.5228818,4.9262055 1.4590924,3.4333248 4.37141,2.8343277 6.7048549,1.9452437 Z" />
  <path
     id="rect1107"
     style="opacity:0.2;fill:#ffffff;stroke-width:0.79375;stroke-linejoin:round"
     d="m 1.8520834,0.26458334 c -0.8794751,0 -1.58750006,0.70802492 -1.58750006,1.58750006 v 0.2645834 c 0,-0.8794751 0.70802496,-1.58750012 1.58750006,-1.58750012 h 4.7625001 c 0.879475,0 1.5875001,0.70802502 1.5875001,1.58750012 V 1.8520834 c 0,-0.87947514 -0.7080251,-1.58750006 -1.5875001,-1.58750006 z"
     sodipodi:nodetypes="sscsscsss" />
  <path
     id="rect1153"
     style="opacity:0.2;fill:#000000;stroke-width:0.79375;stroke-linejoin:round"
     d="m 0.26458334,6.3500001 v 0.2645834 c 0,0.879475 0.70802496,1.5875 1.58750006,1.5875 h 4.7625001 c 0.879475,0 1.5875001,-0.708025 1.5875001,-1.5875 V 6.3500001 c 0,0.879475 -0.7080251,1.5875001 -1.5875001,1.5875001 H 1.8520834 c -0.8794751,0 -1.58750006,-0.7080251 -1.58750006,-1.5875001 z"
     sodipodi:nodetypes="csssscssc" />
</svg>
