<?xml version="1.0" encoding="UTF-8" standalone="no"?>
<!-- Created with Inkscape (http://www.inkscape.org/) -->

<svg
   width="32"
   height="32"
   viewBox="0 0 8.4666665 8.466667"
   version="1.1"
   id="svg5"
   inkscape:version="1.2 (dc2aedaf03, 2022-05-15)"
   sodipodi:docname="ms-office.svg"
   xmlns:inkscape="http://www.inkscape.org/namespaces/inkscape"
   xmlns:sodipodi="http://sodipodi.sourceforge.net/DTD/sodipodi-0.dtd"
   xmlns="http://www.w3.org/2000/svg"
   xmlns:svg="http://www.w3.org/2000/svg">
  <sodipodi:namedview
     id="namedview7"
     pagecolor="#ffffff"
     bordercolor="#666666"
     borderopacity="1.0"
     inkscape:pageshadow="2"
     inkscape:pageopacity="0.0"
     inkscape:pagecheckerboard="0"
     inkscape:document-units="px"
     showgrid="false"
     units="px"
     height="64px"
     inkscape:zoom="27.0625"
     inkscape:cx="16.018476"
     inkscape:cy="16"
     inkscape:window-width="1920"
     inkscape:window-height="1024"
     inkscape:window-x="0"
     inkscape:window-y="32"
     inkscape:window-maximized="1"
     inkscape:current-layer="svg5"
     inkscape:showpageshadow="2"
     inkscape:deskcolor="#d1d1d1" />
  <defs
     id="defs2" />
  <rect
     style="fill:#f8f8f8;stroke-width:0.264583;fill-opacity:1"
     id="rect846"
     width="7.9375"
     height="7.9375"
     x="0.26458335"
     y="0.26458335"
     ry="1.5875" />
  <path
     d="M 4.275592,1.8520876 C 4.179315,1.8523082 4.0846567,1.8773396 4.0008457,1.9247216 L 2.3862463,2.8459966 C 2.2196631,2.9409182 2.1166666,3.1179195 2.1166677,3.3096486 V 5.7028397 C 2.1161238,5.9159906 2.3438452,6.0521955 2.5312273,5.9505989 L 2.968754,5.7143231 C 3.0909395,5.6471693 3.1668488,5.5187116 3.1665594,5.3792879 V 3.6601866 C 3.166721,3.4998012 3.2668359,3.3566619 3.4174769,3.3016099 L 4.8285292,2.7917364 V 5.9847628 H 3.1602432 C 2.8744342,5.9878184 2.7745053,6.3653662 3.0212911,6.509565 l 0.9936224,0.5632727 c 0.081853,0.046528 0.1745631,0.071003 0.2687174,0.070912 0.050656,-3.39e-5 0.1010278,-0.00734 0.1495743,-0.021817 L 5.9280879,6.6958893 C 6.157171,6.6300704 6.3151914,6.4206351 6.3156603,6.1822837 V 2.812694 C 6.3157642,2.5736751 6.1571438,2.3635561 5.9272262,2.298227 L 4.4268891,1.8730453 C 4.3776891,1.8589183 4.326778,1.8518863 4.275592,1.8520876 Z"
     style="opacity:0.2;isolation:isolate;fill:#000000;fill-opacity:1;stroke-width:0.0231458"
     id="path2537" />
  <path
     d="M 4.427015,1.6084996 4.8285479,2.527039 V 5.7200571 L 4.4331388,6.8572965 5.9281701,6.4312687 C 6.157254,6.3654498 6.3152374,6.1561132 6.3157062,5.9177615 V 2.5480341 C 6.3158101,2.309015 6.1572129,2.0989812 5.9272951,2.0336521 Z"
     style="isolation:isolate;fill:#e5600d;fill-opacity:1;stroke-width:0.0231458"
     id="path1272" />
  <path
     d="M 2.5313244,5.6859398 2.9687242,5.4497437 C 3.0909098,5.3825904 3.1667181,5.2541192 3.1664288,5.1146958 V 3.3957146 C 3.1665905,3.2353291 3.2668555,3.0920991 3.4174965,3.037047 L 4.8285479,2.527039 V 2.1395027 C 4.8282098,1.8927247 4.6643676,1.6760509 4.4270148,1.6084996 4.3778165,1.5943722 4.3268609,1.587303 4.2756748,1.5875042 v 0 c -0.096278,2.205e-4 -0.1908763,0.025226 -0.2746871,0.072609 l -1.61488,0.9211634 C 2.2195244,2.6761982 2.1166682,2.853191 2.1166694,3.0449202 v 2.3934513 c -5.439e-4,0.2131511 0.2272731,0.349165 0.414655,0.2475683 z"
     style="isolation:isolate;fill:#970b03;fill-opacity:1;stroke-width:0.0231458"
     id="path880"
     sodipodi:nodetypes="ccccccccssccccc" />
  <path
     d="M 4.8285479,5.7200571 H 3.1603053 c -0.28581,0.00306 -0.3858792,0.3806811 -0.139093,0.52488 l 0.9937722,0.5633705 c 0.081853,0.046528 0.1744097,0.070951 0.2685637,0.070859 v 0 c 0.050658,-3.39e-5 0.1010433,-0.0074 0.1495905,-0.021872 C 4.66764,6.7906666 4.8292069,6.5761974 4.8285479,6.3324151 Z"
     style="isolation:isolate;fill:#c32020;fill-opacity:1;stroke-width:0.0231458"
     id="path5755" />
  <path
     id="rect1107"
     style="opacity:0.2;fill:#ffffff;stroke-width:0.79375;stroke-linejoin:round"
     d="m 1.8520834,0.26458334 c -0.8794751,0 -1.58750006,0.70802492 -1.58750006,1.58750006 v 0.2645834 c 0,-0.8794751 0.70802496,-1.58750012 1.58750006,-1.58750012 h 4.7625001 c 0.879475,0 1.5875001,0.70802502 1.5875001,1.58750012 V 1.8520834 c 0,-0.87947514 -0.7080251,-1.58750006 -1.5875001,-1.58750006 z"
     sodipodi:nodetypes="sscsscsss" />
  <path
     id="rect1153"
     style="opacity:0.2;fill:#000000;stroke-width:0.79375;stroke-linejoin:round"
     d="m 0.26458334,6.3500001 v 0.2645834 c 0,0.879475 0.70802496,1.5875 1.58750006,1.5875 h 4.7625001 c 0.879475,0 1.5875001,-0.708025 1.5875001,-1.5875 V 6.3500001 c 0,0.879475 -0.7080251,1.5875001 -1.5875001,1.5875001 H 1.8520834 c -0.8794751,0 -1.58750006,-0.7080251 -1.58750006,-1.5875001 z"
     sodipodi:nodetypes="csssscssc" />
</svg>
