<?xml version="1.0" encoding="UTF-8" standalone="no"?>
<!-- Created with Inkscape (http://www.inkscape.org/) -->

<svg
   width="32"
   height="32"
   viewBox="0 0 8.4666665 8.466667"
   version="1.1"
   id="svg5"
   inkscape:version="1.2 (dc2aedaf03, 2022-05-15)"
   sodipodi:docname="multimedia-photo-viewer.svg"
   xmlns:inkscape="http://www.inkscape.org/namespaces/inkscape"
   xmlns:sodipodi="http://sodipodi.sourceforge.net/DTD/sodipodi-0.dtd"
   xmlns:xlink="http://www.w3.org/1999/xlink"
   xmlns="http://www.w3.org/2000/svg"
   xmlns:svg="http://www.w3.org/2000/svg">
  <sodipodi:namedview
     id="namedview7"
     pagecolor="#ffffff"
     bordercolor="#666666"
     borderopacity="1.0"
     inkscape:pageshadow="2"
     inkscape:pageopacity="0.0"
     inkscape:pagecheckerboard="0"
     inkscape:document-units="px"
     showgrid="false"
     units="px"
     height="64px"
     inkscape:zoom="24.84375"
     inkscape:cx="11.693082"
     inkscape:cy="16.020126"
     inkscape:window-width="1920"
     inkscape:window-height="1011"
     inkscape:window-x="0"
     inkscape:window-y="0"
     inkscape:window-maximized="1"
     inkscape:current-layer="svg5"
     inkscape:showpageshadow="2"
     inkscape:deskcolor="#d1d1d1"
     showguides="false" />
  <defs
     id="defs2">
    <radialGradient
       inkscape:collect="always"
       xlink:href="#linearGradient21580"
       id="radialGradient21582"
       cx="12.170834"
       cy="12.170834"
       fx="12.170834"
       fy="12.170834"
       r="1.5875"
       gradientUnits="userSpaceOnUse"
       gradientTransform="matrix(0.62499981,2.0231294e-7,-2.0193578e-7,0.62499986,2.4474005,2.4473945)" />
    <linearGradient
       inkscape:collect="always"
       id="linearGradient21580">
      <stop
         style="stop-color:#1a2e8f;stop-opacity:1;"
         offset="0"
         id="stop21576" />
      <stop
         style="stop-color:#000000;stop-opacity:1;"
         offset="1"
         id="stop21578" />
    </linearGradient>
  </defs>
  <rect
     style="fill:#f0f0f0;fill-opacity:1;stroke-width:0.264583"
     id="rect846"
     width="7.9375"
     height="7.9375"
     x="0.26458335"
     y="0.26458335"
     ry="1.5875" />
  <rect
     style="fill:#91ccff;fill-opacity:1;stroke-width:0.132291"
     id="rect14930"
     width="6.3499961"
     height="6.3499961"
     x="1.0583341"
     y="1.0583334"
     ry="0.79374999" />
  <path
     id="path5357"
     style="fill:#927b63;stroke-width:0.500009"
     d="m 1.058334,4.3085204 v 2.0414761 c 0,0.5863155 0.4720168,1.0583329 1.0583325,1.0583329 h 4.2333307 c 0.5863156,0 1.0583327,-0.4720174 1.0583327,-1.0583329 V 4.3085204 Z" />
  <path
     id="path6943"
     style="fill:#d5e8f9;stroke-width:0.500009"
     d="M 3.5310507 5.014681 L 2.6923421 5.0725586 L 2.5073405 5.1598918 L 2.8158488 5.1960653 L 2.9977499 5.5056072 L 2.885612 5.7784587 L 2.2546428 5.8146322 L 1.8190104 5.5417807 C 1.8190104 5.5417807 1.6797364 5.8512701 1.5947347 5.7417684 C 1.5112338 5.6327658 1.2583211 5.8332357 1.2583211 5.8332357 L 1.0583333 5.940206 L 1.0583333 6.6145834 C 1.0583333 7.0543205 1.4123463 7.4083334 1.8520834 7.4083334 L 2.1166667 7.4083334 L 3.0840495 7.4083334 L 3.0876669 7.4041993 C 3.0676693 7.376703 3.0457197 7.3459284 3.0122193 7.2879273 C 2.9277171 7.1429247 3.0119497 6.9603139 3.0964519 6.7603109 C 3.1804538 6.5603074 3.587378 6.942212 3.587378 6.942212 C 3.587378 6.942212 3.7359401 7.2113305 3.8359416 7.4083334 L 4.8947917 7.4083334 C 5.0482938 7.2803347 5.4048658 7.1634063 5.4673666 7.1794068 C 5.5013656 7.1884068 5.5406681 7.2971163 5.5562501 7.4083334 L 6.3009075 7.4083334 L 6.4497356 7.2150635 C 6.4497356 7.2150635 6.6603372 6.8334153 6.7303386 6.7789145 C 6.8003395 6.7239135 6.9832844 6.8160549 7.0677857 6.9065552 C 7.0724857 6.9116652 7.0954999 6.9777977 7.1266968 7.0698528 C 7.3013255 6.8812913 7.4083334 6.6284723 7.4083334 6.3500001 L 7.4083334 5.3510946 L 7.4072999 5.3495443 C 6.6142871 5.3570518 5.734017 5.3774496 5.734017 5.3774496 L 5.1170004 5.2875326 L 4.9624878 5.2658285 L 4.8084921 5.2870158 L 4.4012818 5.3598796 C 4.4012818 5.3598796 4.2044423 5.2147186 4.1904419 5.1237183 C 4.1764359 5.0327224 3.5310507 5.0146815 3.5310507 5.014681 z " />
  <path
     id="path10299"
     style="fill:#b9e3e9;stroke-width:0.500009"
     d="m 3.7176014,5.0265638 0.2059305,0.095085 0.3160013,0.086299 c -0.022672,-0.023814 -0.039212,-0.05282 -0.048059,-0.08449 -0.01,-0.065002 -0.2848692,-0.086393 -0.4738727,-0.096893 z m 1.2950106,0.078549 -0.1816427,0.1235056 0.1036114,-0.021962 0.6170162,0.3085084 0.758093,-0.056585 0.7009904,0.027905 c 0,0 0.1901459,0.1161976 0.3976498,0.2682003 v -0.404627 c -0.7933139,0.00701 -1.6732818,0.027905 -1.6732818,0.027905 L 5.118032,5.2875298 Z M 1.820044,5.5415201 c 0,0 -0.035923,0.079159 -0.082424,0.1436605 L 2.1554234,5.8515776 2.6610771,5.9355518 3.1664722,5.7105009 2.9465893,5.6319524 2.8866442,5.7784551 2.2554168,5.8146283 1.8205604,5.5415192 Z M 6.8845899,6.5391328 6.4497326,6.9466012 6.315115,7.3835249 6.4499897,7.2155764 c 0,0 0.2116353,-0.3819062 0.2816363,-0.4364072 0.070003,-0.055001 0.2524114,0.03638 0.3364134,0.1273816 0.0175,0.019 0.029278,0.076923 0.058911,0.1630388 2.466e-4,-2.669e-4 5.174e-4,-5.194e-4 7.754e-4,-7.754e-4 C 7.2136804,6.9758006 7.283085,6.8671794 7.3313313,6.7476454 L 7.2357291,6.6375746 Z M 3.3220187,6.6603139 c -0.010131,2.765e-4 -0.020314,0.00199 -0.029973,0.00518 -0.024999,0.012 -0.063528,0.023633 -0.1165302,0.042633 0.1460022,-0.012994 0.4126361,0.2343528 0.4126361,0.2343528 0,0 0.1483028,0.2652249 0.248305,0.4617287 H 4.0400621 L 3.9230159,7.3111777 3.9801187,7.0440109 3.8395594,6.7355031 c 0,0 -0.2764547,-0.054797 -0.4379576,-0.070797 -0.02309,-0.00238 -0.046294,-0.00387 -0.069506,-0.00413 H 3.331579 C 3.328369,6.6603667 3.325239,6.66023 3.322009,6.6603176 Z m -0.1924946,0.064855 c -0.042501,0.015 -0.1038703,0.038499 -0.1038703,0.038499 L 2.8711419,7.0300597 2.5484227,7.114034 2.4086382,7.3530372 2.276604,7.4041966 H 3.0879235 C 3.0604915,7.3672263 3.0353344,7.3286617 3.0124761,7.2887 2.9279739,7.1431967 3.0124487,6.9610879 3.0964504,6.761084 3.1044604,6.742583 3.1175244,6.734168 3.1295241,6.7251689 Z M 5.4955278,6.9876836 5.0040855,7.1706186 4.8131409,7.4041957 H 4.9152026 C 5.0687048,7.2766941 5.406139,7.1631445 5.46814,7.1791449 c 0.017499,0.00501 0.03791,0.035013 0.058911,0.077515 L 5.593197,7.1421971 Z" />
  <path
     d="m 1.058334,3.8369565 v 1.58003 l 0.3059998,0.091001 0.1679999,0.039999 0.1544999,-0.5035097 0.4699996,-0.048 0.3419999,0.1740035 h 0.3929997 l 0.3949999,0.2775051 0.3919998,-0.081002 0.3369998,0.2415048 0.2804998,0.0605 -0.1634999,-0.4730087 0.7669998,0.070001 0.3924994,0.061001 0.6874996,-0.2620041 1.3334996,-0.060501 0.095001,-0.003 V 3.8364566 Z"
     style="fill:#353b71;stroke-width:0.500005"
     id="path3875" />
  <path
     d="M 4.5834011,4.3259353 1.058334,4.3659364 v 0.2750051 l 0.3680069,0.021501 c 0,0 0.5050097,-0.042002 0.5610108,-0.027999 0.056001,0.014006 0.5890113,0.098002 0.5890113,0.098002 L 4.0218905,4.6059427 5.3129153,4.6204455 6.6879414,4.4939433 7.1789507,4.6059461 6.9119459,4.4524439 c 0,0 -0.3650074,0 -0.4485088,0.027501 -0.084502,0.0285 -2.4840475,0.1400022 -2.8770549,0.1400022 -0.3930075,0 -2.4265463,-0.055001 -2.4265463,-0.055001 l 0.1400022,-0.099002 2.3295443,-0.042002 z"
     style="opacity:0.15;fill:#ffffff;stroke-width:0.500009"
     id="path441" />
  <path
     id="rect1107"
     style="opacity:0.2;fill:#ffffff;stroke-width:0.79375;stroke-linejoin:round"
     d="m 1.8520834,0.26458334 c -0.87947505,0 -1.58750006,0.70802492 -1.58750006,1.58750016 v 0.2645834 c 0,-0.8794752 0.70802501,-1.58750022 1.58750006,-1.58750022 h 4.7625001 c 0.879475,0 1.5875001,0.70802502 1.5875001,1.58750022 V 1.8520835 c 0,-0.87947524 -0.7080251,-1.58750016 -1.5875001,-1.58750016 z"
     sodipodi:nodetypes="sscsscsss" />
  <path
     id="rect1153"
     style="opacity:0.2;fill:#000000;stroke-width:0.79375;stroke-linejoin:round"
     d="m 0.26458334,6.3500001 v 0.2645834 c 0,0.879475 0.70802496,1.5875 1.58750006,1.5875 h 4.7625001 c 0.879475,0 1.5875001,-0.708025 1.5875001,-1.5875 V 6.3500001 c 0,0.879475 -0.7080251,1.5875001 -1.5875001,1.5875001 H 1.8520834 c -0.8794751,0 -1.58750006,-0.7080251 -1.58750006,-1.5875001 z"
     sodipodi:nodetypes="csssscssc" />
  <g
     id="g25327"
     transform="translate(-3.7041666,-3.7041666)">
    <circle
       style="fill:#dadada;fill-opacity:1;stroke-width:0.423333;stroke-linejoin:round"
       id="path849"
       cx="10.054167"
       cy="10.054167"
       r="2.1166668" />
    <circle
       style="opacity:0.8;fill:#666666;fill-opacity:1;stroke-width:0.144317"
       id="path12637"
       cx="10.054167"
       cy="10.054167"
       r="1.5875" />
    <circle
       style="opacity:0.8;fill:#333333;fill-opacity:1;stroke-width:0.120264"
       id="path12691"
       cx="10.054167"
       cy="10.054167"
       r="1.3229166" />
    <ellipse
       style="opacity:0.8;fill:#000000;fill-opacity:1;stroke-width:0.120065"
       id="path14199"
       cx="10.054167"
       cy="10.054167"
       rx="1.0583334"
       ry="1.0583335" />
    <circle
       style="opacity:1;fill:url(#radialGradient21582);fill-opacity:1;stroke-width:0.0881945"
       id="path21469"
       cx="10.054167"
       cy="10.054167"
       r="0.79374993" />
    <path
       id="path21523"
       style="opacity:1;fill:#101a50;fill-opacity:1;stroke-width:0.132291"
       d="m 10.054166,9.2604164 a 0.79375001,0.79374996 0 0 0 -0.7937496,0.7937496 0.79375001,0.79374996 0 0 0 0.7937496,0.79375 0.79375001,0.79374996 0 0 0 0.79375,-0.79375 0.79375001,0.79374996 0 0 0 -0.79375,-0.7937496 z m 0,0.132292 a 0.66145827,0.66145827 0 0 1 0.661459,0.6614576 0.66145827,0.66145827 0 0 1 -0.661459,0.661459 0.66145827,0.66145827 0 0 1 -0.6614576,-0.661459 0.66145827,0.66145827 0 0 1 0.6614576,-0.6614576 z" />
    <circle
       style="opacity:0.2;fill:#ffffff;fill-opacity:1;stroke-width:0.132291"
       id="path24587"
       cx="9.7895832"
       cy="9.7895832"
       r="0.26458335" />
    <circle
       style="opacity:0.2;fill:#ffffff;fill-opacity:1;stroke-width:0.132292"
       id="path25315"
       cx="10.318749"
       cy="10.318749"
       r="0.1984375" />
    <path
       id="path385"
       style="opacity:0.2;fill:#000000;stroke-width:0.529167;stroke-linejoin:round"
       d="M 12.166183,9.9156739 A 2.1166668,2.1166668 0 0 1 10.054167,11.90625 2.1166668,2.1166668 0 0 1 7.942151,9.9218751 a 2.1166668,2.1166668 0 0 0 -0.00465,0.1322919 2.1166668,2.1166668 0 0 0 2.116667,2.116666 2.1166668,2.1166668 0 0 0 2.116666,-2.116666 2.1166668,2.1166668 0 0 0 -0.0046,-0.1384931 z" />
    <path
       id="path415"
       style="opacity:0.2;fill:#ffffff;stroke-width:0.529167;stroke-linejoin:round"
       d="m 10.054167,7.9375001 a 2.1166666,2.1166668 0 0 0 -2.1166669,2.1166669 2.1166666,2.1166668 0 0 0 0.00465,0.132291 2.1166666,2.1166668 0 0 1 2.1120159,-1.9843746 2.1166666,2.1166668 0 0 1 2.112016,1.9781736 2.1166666,2.1166668 0 0 0 0.0046,-0.12609 2.1166666,2.1166668 0 0 0 -2.116666,-2.1166669 z" />
  </g>
</svg>
