<?xml version="1.0" encoding="UTF-8" standalone="no"?>
<!-- Created with Inkscape (http://www.inkscape.org/) -->

<svg
   width="32"
   height="32"
   viewBox="0 0 8.4666665 8.466667"
   version="1.1"
   id="svg5"
   inkscape:version="1.1.2 (0a00cf5339, 2022-02-04, custom)"
   sodipodi:docname="multimedia-audio-player.svg"
   xmlns:inkscape="http://www.inkscape.org/namespaces/inkscape"
   xmlns:sodipodi="http://sodipodi.sourceforge.net/DTD/sodipodi-0.dtd"
   xmlns="http://www.w3.org/2000/svg"
   xmlns:svg="http://www.w3.org/2000/svg">
  <sodipodi:namedview
     id="namedview7"
     pagecolor="#ffffff"
     bordercolor="#666666"
     borderopacity="1.0"
     inkscape:pageshadow="2"
     inkscape:pageopacity="0.0"
     inkscape:pagecheckerboard="0"
     inkscape:document-units="px"
     showgrid="false"
     units="px"
     height="64px"
     inkscape:zoom="24.5"
     inkscape:cx="16"
     inkscape:cy="16"
     inkscape:window-width="1920"
     inkscape:window-height="1011"
     inkscape:window-x="0"
     inkscape:window-y="0"
     inkscape:window-maximized="1"
     inkscape:current-layer="svg5" />
  <defs
     id="defs2" />
  <rect
     style="fill:#f45d96;stroke-width:0.264583;fill-opacity:1"
     id="rect846"
     width="7.9375"
     height="7.9375"
     x="0.26458335"
     y="0.26458335"
     ry="1.5875" />
  <path
     d="m 5.7271369,1.5875071 c -0.057368,0.00104 -0.114419,0.00877 -0.1700035,0.023001 L 4.3586102,1.8535125 3.2940889,2.0635165 c -0.1220024,0.026 -0.1830036,0.078502 -0.2100042,0.1565031 -0.00555,0.016121 -0.00973,0.032679 -0.0125,0.049501 -0.00595,0.038867 -0.00813,0.078217 -0.0065,0.1175024 l 0.003,2.694053 c -0.002,0.047 -0.005,0.089001 -0.0115,0.1260025 -0.00577,0.05027 -0.028319,0.097126 -0.064001,0.1330025 -0.036001,0.033 -0.090002,0.056001 -0.1715033,0.069002 -0.2410049,0.036 -0.4215084,0.084001 -0.5550111,0.143003 -0.025526,0.01124 -0.05055,0.023585 -0.075001,0.037 -0.042484,0.023 -0.082379,0.050494 -0.1190023,0.082001 -0.091088,0.07817 -0.1484202,0.188535 -0.1600032,0.308006 -0.005,0.0395 -0.0075,0.080001 -0.007,0.1225025 0.002,0.1270025 0.041501,0.244505 0.1100021,0.339507 0.046279,0.064021 0.1055779,0.117527 0.1740036,0.157003 0.069501,0.04 0.1490028,0.066001 0.2360046,0.075001 0.043501,0.0045 0.089502,0.0045 0.1365026,0 0.1149133,-0.010515 0.2280042,-0.03572 0.3365066,-0.075001 0.19148,-0.071135 0.3423372,-0.222357 0.4130079,-0.4140085 0.0185,-0.054001 0.0315,-0.123502 0.0395,-0.202004 0.01,-0.105002 0.012,-0.225504 0.0045,-0.3470065 l -0.003,-2.1430423 c 0,-0.056001 -0.003,-0.103002 0.003,-0.1415027 v -5.05e-4 l 0.0025,-0.01 c 0.002,-0.0085 0.004,-0.018001 0.0075,-0.026001 0.00445,-0.011262 0.010705,-0.02173 0.0185,-0.031 0.025,-0.029 0.068002,-0.050001 0.142503,-0.065501 L 4.7226168,2.9760299 5.4326309,2.832527 c 0.058001,-0.0115 0.100502,-0.007 0.1290025,0.016001 0.028,0.0235 0.042,0.065501 0.043,0.1305027 l 0.003,1.6010313 c -0.0045,0.095002 -0.011,0.1640035 -0.044,0.2135045 -0.00838,0.012525 -0.018475,0.0238 -0.03,0.0335 -0.028965,0.02306 -0.062563,0.0396 -0.098502,0.0485 -0.0215,0.006 -0.0455,0.011 -0.072501,0.0155 -0.087684,0.01288 -0.174769,0.02956 -0.261005,0.050001 -0.1011035,0.022855 -0.1997385,0.055509 -0.2945056,0.097501 -0.053502,0.0245 -0.1000026,0.051001 -0.1400031,0.079502 -0.04,0.0285 -0.072501,0.058501 -0.100002,0.090502 -0.096502,0.112002 -0.1245025,0.244505 -0.1225025,0.3930075 0.003,0.2110045 0.1125025,0.389508 0.2870061,0.48401 0.070001,0.038 0.1500026,0.062501 0.2370046,0.070001 0.044,0.0045 0.090001,0.004 0.1370025,-5e-4 0.1240025,-0.014 0.2350045,-0.035 0.3335065,-0.071502 0.064455,-0.02328 0.125113,-0.05597 0.1800035,-0.097002 0.102353,-0.080242 0.1808455,-0.186916 0.2270045,-0.3085065 0.04,-0.125002 0.0445,-0.327506 0.0485,-0.5440105 l -0.002,-3.2775644 c -2.7e-5,-0.046902 -0.00385,-0.093725 -0.0115,-0.1400026 l -0.0035,-0.016001 c -0.0039,-0.01616 -0.00978,-0.031778 -0.0175,-0.046501 -0.00718,-0.012374 -0.016485,-0.023378 -0.0275,-0.032501 -0.003,-0.003 -0.007,-0.005 -0.0105,-0.008 -0.00887,-0.00584 -0.01845,-0.010545 -0.0285,-0.014 l -0.0135,-0.005 C 5.7628149,1.59007 5.7450199,1.58772 5.7271379,1.5875 Z"
     style="fill:#ffffff;stroke-width:0.132291"
     id="path867"
     sodipodi:nodetypes="ccccccccccccccccccscccccccccccccccccccccccsccccccccccccccccccc" />
  <path
     id="path856"
     style="opacity:0.2;fill:#000000;stroke-width:0.132291"
     d="M 21.646484 6.0019531 C 21.42966 6.0058838 21.213989 6.0341042 21.003906 6.0878906 L 16.472656 7.0078125 L 12.449219 7.8007812 C 11.988107 7.899049 11.7583 8.0977708 11.65625 8.3925781 C 11.635274 8.4535079 11.619841 8.5164989 11.609375 8.5800781 C 11.586887 8.726977 11.577824 8.8749572 11.583984 9.0234375 L 11.595703 19.205078 C 11.588106 19.382716 11.577298 19.541793 11.552734 19.681641 C 11.530927 19.871637 11.445408 20.04995 11.310547 20.185547 C 11.17448 20.310271 10.970145 20.396175 10.662109 20.445312 C 9.7512247 20.581375 9.0690303 20.763328 8.5644531 20.986328 C 8.4679769 21.028806 8.3736632 21.076251 8.28125 21.126953 C 8.1206806 21.213882 7.97045 21.316465 7.8320312 21.435547 C 7.4877616 21.730993 7.2703408 22.148065 7.2265625 22.599609 C 7.2076649 22.748901 7.1992821 22.901865 7.2011719 23.0625 C 7.2087309 23.542509 7.3563333 23.98664 7.6152344 24.345703 C 7.7901471 24.587672 8.0148207 24.790253 8.2734375 24.939453 C 8.3215728 24.967156 8.3712594 24.993498 8.421875 25.017578 C 8.2834546 24.729175 8.2065733 24.403545 8.2011719 24.060547 C 8.1992821 23.899912 8.2076649 23.746948 8.2265625 23.597656 C 8.2703408 23.146112 8.4877616 22.729039 8.8320312 22.433594 C 8.97045 22.314512 9.1206806 22.211929 9.28125 22.125 C 9.3736632 22.074298 9.4679769 22.026853 9.5644531 21.984375 C 10.06903 21.761375 10.751225 21.579422 11.662109 21.443359 C 11.970145 21.394222 12.17448 21.308318 12.310547 21.183594 C 12.445408 21.047997 12.530927 20.869684 12.552734 20.679688 C 12.577298 20.53984 12.588106 20.380763 12.595703 20.203125 L 12.583984 10.021484 C 12.577824 9.8730041 12.586887 9.7250239 12.609375 9.578125 C 12.619841 9.5145458 12.635274 9.4515548 12.65625 9.390625 C 12.7583 9.0958177 12.988107 8.8970958 13.449219 8.7988281 L 17.472656 8.0058594 L 22.003906 7.0878906 C 22.092307 7.0652579 22.181444 7.0470815 22.271484 7.0332031 L 22.271484 7.0195312 C 22.271382 6.8422639 22.257433 6.6651418 22.228516 6.4902344 L 22.214844 6.4296875 C 22.200104 6.3686103 22.177615 6.3095522 22.148438 6.2539062 C 22.1213 6.2071384 22.086557 6.16534 22.044922 6.1308594 C 22.033583 6.1195208 22.019092 6.110948 22.005859 6.0996094 C 21.972335 6.0775369 21.934472 6.0599333 21.896484 6.046875 L 21.845703 6.0292969 C 21.780223 6.0125536 21.71407 6.0027846 21.646484 6.0019531 z M 21.685547 11.683594 C 21.637977 11.686753 21.588007 11.69421 21.533203 11.705078 L 21.183594 11.775391 L 21.193359 17.3125 C 21.176352 17.671563 21.152064 17.932049 21.027344 18.119141 C 20.995671 18.166479 20.957618 18.209429 20.914062 18.246094 C 20.804588 18.333253 20.678801 18.39605 20.542969 18.429688 C 20.461709 18.452365 20.369629 18.471281 20.267578 18.488281 C 19.936174 18.536962 19.607181 18.600477 19.28125 18.677734 C 18.899126 18.764115 18.526143 18.886212 18.167969 19.044922 C 17.965756 19.13752 17.789855 19.237983 17.638672 19.345703 C 17.487491 19.45342 17.365659 19.566551 17.261719 19.6875 C 16.896987 20.110815 16.791269 20.612558 16.798828 21.173828 C 16.810167 21.971325 17.223271 22.64478 17.882812 23.001953 C 17.920243 23.022272 17.959135 23.042308 17.998047 23.060547 C 17.873405 22.79215 17.80339 22.492705 17.798828 22.171875 C 17.791269 21.610605 17.896987 21.108862 18.261719 20.685547 C 18.365659 20.564598 18.487491 20.451467 18.638672 20.34375 C 18.789855 20.23603 18.965756 20.135567 19.167969 20.042969 C 19.526143 19.884259 19.899126 19.762162 20.28125 19.675781 C 20.607181 19.598524 20.936174 19.535008 21.267578 19.486328 C 21.369629 19.469328 21.461709 19.450412 21.542969 19.427734 C 21.678801 19.394097 21.804588 19.3313 21.914062 19.244141 C 21.957618 19.207475 21.995671 19.164526 22.027344 19.117188 C 22.152064 18.930096 22.176352 18.66961 22.193359 18.310547 L 22.183594 12.259766 C 22.179814 12.01409 22.125358 11.854444 22.019531 11.765625 C 21.938742 11.700422 21.828256 11.674115 21.685547 11.683594 z "
     transform="scale(0.26458334)" />
  <path
     id="rect1107"
     style="opacity:0.2;fill:#ffffff;stroke-width:0.79375;stroke-linejoin:round"
     d="m 1.8520834,0.26458334 c -0.8794751,0 -1.58750006,0.70802492 -1.58750006,1.58750006 v 0.2645834 c 0,-0.8794751 0.70802496,-1.58750012 1.58750006,-1.58750012 h 4.7625001 c 0.879475,0 1.5875001,0.70802502 1.5875001,1.58750012 V 1.8520834 c 0,-0.87947514 -0.7080251,-1.58750006 -1.5875001,-1.58750006 z"
     sodipodi:nodetypes="sscsscsss" />
  <path
     id="rect1153"
     style="opacity:0.2;fill:#000000;stroke-width:0.79375;stroke-linejoin:round"
     d="m 0.26458334,6.3500001 v 0.2645834 c 0,0.879475 0.70802496,1.5875 1.58750006,1.5875 h 4.7625001 c 0.879475,0 1.5875001,-0.708025 1.5875001,-1.5875 V 6.3500001 c 0,0.879475 -0.7080251,1.5875001 -1.5875001,1.5875001 H 1.8520834 c -0.8794751,0 -1.58750006,-0.7080251 -1.58750006,-1.5875001 z"
     sodipodi:nodetypes="csssscssc" />
</svg>
