<?xml version="1.0" encoding="UTF-8" standalone="no"?>
<!-- Created with Inkscape (http://www.inkscape.org/) -->

<svg
   width="32"
   height="32"
   viewBox="0 0 8.4666665 8.466667"
   version="1.1"
   id="svg5"
   inkscape:version="1.2 (dc2aedaf03, 2022-05-15)"
   sodipodi:docname="org.gnome.Shell.Extensions.GSConnect.svg"
   xmlns:inkscape="http://www.inkscape.org/namespaces/inkscape"
   xmlns:sodipodi="http://sodipodi.sourceforge.net/DTD/sodipodi-0.dtd"
   xmlns="http://www.w3.org/2000/svg"
   xmlns:svg="http://www.w3.org/2000/svg">
  <sodipodi:namedview
     id="namedview7"
     pagecolor="#ffffff"
     bordercolor="#666666"
     borderopacity="1.0"
     inkscape:pageshadow="2"
     inkscape:pageopacity="0.0"
     inkscape:pagecheckerboard="0"
     inkscape:document-units="px"
     showgrid="false"
     units="px"
     height="64px"
     inkscape:zoom="24.6875"
     inkscape:cx="15.979747"
     inkscape:cy="16"
     inkscape:window-width="1920"
     inkscape:window-height="1011"
     inkscape:window-x="0"
     inkscape:window-y="0"
     inkscape:window-maximized="1"
     inkscape:current-layer="svg5"
     inkscape:showpageshadow="2"
     inkscape:deskcolor="#d1d1d1" />
  <defs
     id="defs2" />
  <rect
     style="fill:#4d4d4d;stroke-width:0.264583;fill-opacity:1"
     id="rect846"
     width="7.9375"
     height="7.9375"
     x="0.26458335"
     y="0.26458335"
     ry="1.5875" />
  <path
     d="M 6.746875,5.6885417 V 6.085417 C 6.746875,6.231996 6.628871,6.35 6.482292,6.35 H 1.5875 C 1.4409209,6.35 1.3229167,6.231996 1.3229167,6.085417 V 5.6885417 Z"
     style="opacity:0.2;fill:#000000;fill-opacity:1;stroke-width:0.132292"
     id="path3810"
     sodipodi:nodetypes="csssscc" />
  <path
     id="rect2021"
     style="fill:#1a1a1a;fill-opacity:1;stroke-width:0.132292"
     d="m 2.1166666,1.8520837 h 3.9687509 c 0.146579,0 0.264583,0.1180042 0.264583,0.2645833 V 5.0270837 H 1.8520833 V 2.116667 c 0,-0.1465791 0.1180042,-0.2645833 0.2645833,-0.2645833 z"
     sodipodi:nodetypes="sssccss" />
  <path
     id="rect2125"
     style="fill:#999999;fill-opacity:1;stroke-width:0.132292"
     d="M 6.746875,5.5562504 V 5.820834 c 0,0.146579 -0.118004,0.264583 -0.264583,0.264583 H 1.5875 c -0.1465791,0 -0.2645833,-0.118004 -0.2645833,-0.264583 V 5.5562504 Z"
     sodipodi:nodetypes="csssscc" />
  <rect
     style="opacity:0.2;fill:#000000;fill-opacity:1;stroke-width:0.264583"
     id="rect3931"
     width="2.1166668"
     height="3.7041667"
     x="5.1593747"
     y="3.5718758"
     ry="0.39687499" />
  <path
     id="rect2584"
     style="fill:#cccccc;fill-opacity:1;stroke-width:0.152758"
     d="M 1.8520833,5.0270837 H 6.3500005 L 6.746875,5.5562504 H 1.3229167 Z"
     sodipodi:nodetypes="ccccc" />
  <rect
     style="fill:#6084c8;fill-opacity:1;stroke-width:0.132291"
     id="rect2898"
     width="3.96875"
     height="2.3812499"
     x="2.1166666"
     y="2.1166668" />
  <rect
     style="fill:#b3b3b3;fill-opacity:1;stroke-width:0.257716"
     id="rect6948"
     width="2.1166668"
     height="3.7041667"
     x="5.1593747"
     y="3.3072922"
     ry="0.39687499" />
  <path
     id="rect849"
     style="fill:#1a1a1a;stroke-width:0.132291"
     d="m 5.5562474,3.4395837 h 1.3229164 c 0.146579,0 0.2645827,0.1180041 0.2645827,0.2645831 v 2.9104147 c 0,0.1465794 -0.1180037,0.2645838 -0.2645827,0.2645838 H 5.5562474 c -0.1465787,0 -0.2645827,-0.1180044 -0.2645827,-0.2645838 V 3.7041668 c 0,-0.146579 0.118004,-0.2645831 0.2645827,-0.2645831 z"
     sodipodi:nodetypes="sssssssss" />
  <path
     id="rect1027"
     style="fill:#cccccc;fill-opacity:1;stroke-width:0.110243"
     d="m 5.6664904,3.704167 h 1.1024304 c 0.06107,0 0.110243,0.049168 0.110243,0.110243 v 2.6900189 c 0,0.061074 -0.04917,0.1102429 -0.110243,0.1102429 H 5.6664904 c -0.06108,0 -0.110243,-0.049168 -0.110243,-0.1102429 V 3.81441 c 0,-0.061075 0.04917,-0.110243 0.110243,-0.110243 z"
     sodipodi:nodetypes="sssssssss" />
  <path
     id="rect1520"
     style="fill:#1a1a1a;stroke-width:0.132291"
     d="m 6.6145808,3.5718754 v 0.2645833 c 0,0.07329 -0.059,0.1322916 -0.1322907,0.1322916 H 5.9531234 c -0.07329,0 -0.132292,-0.059002 -0.132292,-0.1322916 V 3.5718754 Z"
     sodipodi:nodetypes="csssscc" />
  <path
     id="rect1107"
     style="opacity:0.2;fill:#ffffff;stroke-width:0.79375;stroke-linejoin:round"
     d="m 1.8520834,0.26458334 c -0.8794751,0 -1.58750006,0.70802492 -1.58750006,1.58750006 v 0.2645834 c 0,-0.8794751 0.70802496,-1.58750012 1.58750006,-1.58750012 h 4.7625001 c 0.879475,0 1.5875001,0.70802502 1.5875001,1.58750012 V 1.8520834 c 0,-0.87947514 -0.7080251,-1.58750006 -1.5875001,-1.58750006 z"
     sodipodi:nodetypes="sscsscsss" />
  <path
     id="rect1153"
     style="opacity:0.2;fill:#000000;stroke-width:0.79375;stroke-linejoin:round"
     d="m 0.26458334,6.3500001 v 0.2645834 c 0,0.879475 0.70802496,1.5875 1.58750006,1.5875 h 4.7625001 c 0.879475,0 1.5875001,-0.708025 1.5875001,-1.5875 V 6.3500001 c 0,0.879475 -0.7080251,1.5875001 -1.5875001,1.5875001 H 1.8520834 c -0.8794751,0 -1.58750006,-0.7080251 -1.58750006,-1.5875001 z"
     sodipodi:nodetypes="csssscssc" />
</svg>
