<?xml version="1.0" encoding="UTF-8" standalone="no"?>
<!-- Created with Inkscape (http://www.inkscape.org/) -->

<svg
   width="16"
   height="16"
   viewBox="0 0 4.2333332 4.2333335"
   version="1.1"
   id="svg5"
   inkscape:version="1.1.2 (0a00cf5339, 2022-02-04, custom)"
   sodipodi:docname="battery-full-charging-symbolic.svg"
   xmlns:inkscape="http://www.inkscape.org/namespaces/inkscape"
   xmlns:sodipodi="http://sodipodi.sourceforge.net/DTD/sodipodi-0.dtd"
   xmlns="http://www.w3.org/2000/svg"
   xmlns:svg="http://www.w3.org/2000/svg">
  <sodipodi:namedview
     id="namedview7"
     pagecolor="#ffffff"
     bordercolor="#666666"
     borderopacity="1.0"
     inkscape:pageshadow="2"
     inkscape:pageopacity="0.0"
     inkscape:pagecheckerboard="0"
     inkscape:document-units="px"
     showgrid="false"
     units="px"
     height="16px"
     inkscape:zoom="49"
     inkscape:cx="8"
     inkscape:cy="11.265306"
     inkscape:window-width="1920"
     inkscape:window-height="1011"
     inkscape:window-x="0"
     inkscape:window-y="0"
     inkscape:window-maximized="1"
     inkscape:current-layer="svg5" />
  <defs
     id="defs2" />
  <path
     id="rect846"
     style="fill:#363636;stroke-width:3;stroke-linejoin:round"
     d="M 6.9746094,0 C 6.4342534,0.01369014 6,0.4563448 6,1 H 5 C 3.8919998,1 3,1.892 3,3 v 10 c 0,1.108 0.8919998,2 2,2 h 5.375 L 10.6,14 H 5 C 4.4459999,14 4,13.554 4,13 V 3 C 4,2.4460001 4.4459999,2 5,2 h 6 c 0.554,0 1,0.4460001 1,1 v 4.0000001 h 1 V 3 C 13,1.892 12.108,1 11,1 H 10 C 10,0.44771535 9.5522846,1.2524249e-7 9,0 H 7 C 6.99137,0 6.983187,-2.1730383e-4 6.9746094,0 Z"
     transform="scale(0.26458333)"
     sodipodi:nodetypes="scsssscccsssssccsscsss" />
  <path
     id="rect1861"
     class="success"
     style="opacity:1;fill:#33d17a;stroke-width:4.24263;stroke-linejoin:round"
     d="M 5,3 V 13 H 8.5000001 L 11,9.0000001 V 3 Z"
     transform="scale(0.26458333)"
     sodipodi:nodetypes="cccccc" />
  <path
     style="fill:#363636;fill-opacity:1;stroke:none;stroke-width:0.529167;stroke-linejoin:round;-inkscape-stroke:none"
     d="m 2.6458333,3.4395833 0.79375,-1.3229166 H 3.571875 l -0.1322916,0.79375 H 3.96875 L 3.175,4.2333334 H 3.0427083 L 3.175,3.4395833 Z"
     id="path4897"
     sodipodi:nodetypes="ccccccccc" />
</svg>
