<?xml version="1.0" encoding="UTF-8" standalone="no"?>
<!-- Created with Inkscape (http://www.inkscape.org/) -->

<svg
   width="64"
   height="64"
   viewBox="0 0 16.933333 16.933334"
   version="1.1"
   id="svg5"
   inkscape:version="1.1.2 (0a00cf5339, 2022-02-04, custom)"
   sodipodi:docname="application-x-osm+xml.svg"
   xmlns:inkscape="http://www.inkscape.org/namespaces/inkscape"
   xmlns:sodipodi="http://sodipodi.sourceforge.net/DTD/sodipodi-0.dtd"
   xmlns="http://www.w3.org/2000/svg"
   xmlns:svg="http://www.w3.org/2000/svg">
  <sodipodi:namedview
     id="namedview7"
     pagecolor="#ffffff"
     bordercolor="#666666"
     borderopacity="1.0"
     inkscape:pageshadow="2"
     inkscape:pageopacity="0.0"
     inkscape:pagecheckerboard="0"
     inkscape:document-units="px"
     showgrid="false"
     units="px"
     height="64px"
     inkscape:zoom="8.905126"
     inkscape:cx="34.306084"
     inkscape:cy="27.175359"
     inkscape:window-width="1920"
     inkscape:window-height="1017"
     inkscape:window-x="0"
     inkscape:window-y="32"
     inkscape:window-maximized="1"
     inkscape:current-layer="svg5" />
  <defs
     id="defs2" />
  <path
     id="rect1068"
     style="fill:#3bc03a;fill-opacity:1;stroke-width:0.529167;stroke-linejoin:round"
     d="m 3.175,0.5291667 7.143751,3e-8 3.968749,3.96874997 1e-6,11.3770833 c 0,0.293158 -0.236009,0.529167 -0.529167,0.529167 H 3.175 c -0.2931584,0 -0.5291667,-0.236009 -0.5291667,-0.529167 V 1.0583334 c 0,-0.29315835 0.2360083,-0.5291667 0.5291667,-0.5291667 z"
     sodipodi:nodetypes="cccsssssc" />
  <path
     id="path9791"
     style="opacity:0.2;fill:#ffffff;fill-opacity:1;stroke-width:0.140009;stroke-linejoin:round"
     d="m 3.1750012,0.52916673 c -0.2931584,0 -0.5291667,0.2360083 -0.5291667,0.52916667 v 0.2645833 c 0,-0.2931584 0.2360083,-0.52916667 0.5291667,-0.52916667 h 7.1437498 c 0,0 10e-7,-0.2645832 0,-0.2645833 z"
     sodipodi:nodetypes="sscsccs" />
  <path
     id="rect9905"
     style="opacity:0.2;fill:#000000;fill-opacity:1;stroke-width:2;stroke-linejoin:round"
     d="M 10 59 L 10 60 C 10 61.108 10.892 62 12 62 L 52 62 C 53.108 62 54 61.108 54 60 L 54 59 C 54 60.108 53.108 61 52 61 L 12 61 C 10.892 61 10 60.108 10 59 z "
     transform="scale(0.26458334)" />
  <path
     id="rect5598"
     style="opacity:0.1;fill:#000000;fill-opacity:1;stroke-width:0.529167;stroke-linejoin:round"
     d="M 10.444901,4.3115072 10.31875,3.4395834 14.2875,4.4979167 v 3.7041668 z"
     sodipodi:nodetypes="ccccc" />
  <path
     id="rect2607"
     style="fill:#f1f1f1;fill-opacity:1;stroke-width:0.529167;stroke-linejoin:round"
     d="m 14.2875,4.4979167 -3.439583,-1e-7 c -0.293158,0 -0.529166,-0.2360083 -0.529166,-0.5291667 V 0.52916673 Z"
     sodipodi:nodetypes="csscc" />
  <path
     id="path869"
     style="opacity:1;fill:#fbfff7;stroke-width:0.211666;fill-opacity:1"
     d="m 8.4666669,6.8791668 c -1.1690029,0 -2.1166668,0.947664 -2.1166668,2.1166668 0,1.1690034 2.1166668,4.2333334 2.1166668,4.2333334 0,0 2.1166671,-3.06433 2.1166671,-4.2333334 0,-1.1690028 -0.9476637,-2.1166668 -2.1166671,-2.1166668 z m 0,1.0583334 A 1.0583333,1.0583333 0 0 1 9.5250003,8.9958336 1.0583333,1.0583333 0 0 1 8.4666669,10.054167 1.0583333,1.0583333 0 0 1 7.4083334,8.9958336 1.0583333,1.0583333 0 0 1 8.4666669,7.9375002 Z" />
  <path
     id="path869-6"
     style="fill:#000000;stroke-width:0.799998;opacity:0.2;fill-opacity:1"
     d="M 32 30 A 3.9999998 3.9999998 0 0 0 28 34 A 3.9999998 3.9999998 0 0 0 28.033203 34.5 A 3.9999998 3.9999998 0 0 1 32 31 A 3.9999998 3.9999998 0 0 1 35.96875 34.5 A 3.9999998 3.9999998 0 0 0 36 34 A 3.9999998 3.9999998 0 0 0 32 30 z M 24.021484 34.412109 C 24.007372 34.60632 24 34.802189 24 35 C 24 39.418279 32 51 32 51 C 32 51 40 39.418279 40 35 C 40 34.802189 39.992628 34.60632 39.978516 34.412109 C 39.532471 39.095232 32 50 32 50 C 32 50 24.467529 39.095232 24.021484 34.412109 z "
     transform="scale(0.26458334)" />
</svg>
