<?xml version="1.0" encoding="UTF-8" standalone="no"?>
<!-- Created with Inkscape (http://www.inkscape.org/) -->

<svg
   width="64"
   height="64"
   viewBox="0 0 16.933333 16.933334"
   version="1.1"
   id="svg5"
   inkscape:version="1.1.2 (0a00cf5339, 2022-02-04, custom)"
   sodipodi:docname="application-certificate.svg"
   xmlns:inkscape="http://www.inkscape.org/namespaces/inkscape"
   xmlns:sodipodi="http://sodipodi.sourceforge.net/DTD/sodipodi-0.dtd"
   xmlns="http://www.w3.org/2000/svg"
   xmlns:svg="http://www.w3.org/2000/svg">
  <sodipodi:namedview
     id="namedview7"
     pagecolor="#ffffff"
     bordercolor="#666666"
     borderopacity="1.0"
     inkscape:pageshadow="2"
     inkscape:pageopacity="0.0"
     inkscape:pagecheckerboard="0"
     inkscape:document-units="px"
     showgrid="false"
     units="px"
     height="64px"
     inkscape:zoom="12.40625"
     inkscape:cx="31.959698"
     inkscape:cy="32"
     inkscape:window-width="1920"
     inkscape:window-height="1017"
     inkscape:window-x="0"
     inkscape:window-y="32"
     inkscape:window-maximized="1"
     inkscape:current-layer="svg5" />
  <defs
     id="defs2" />
  <path
     id="rect1068"
     style="fill:#ef803d;fill-opacity:1;stroke-width:0.529167;stroke-linejoin:round"
     d="m 3.175,0.5291667 7.143751,3e-8 3.968749,3.96874997 1e-6,11.3770833 c 0,0.293158 -0.236009,0.529167 -0.529167,0.529167 H 3.175 c -0.2931584,0 -0.5291667,-0.236009 -0.5291667,-0.529167 V 1.0583334 c 0,-0.29315835 0.2360083,-0.5291667 0.5291667,-0.5291667 z"
     sodipodi:nodetypes="cccsssssc" />
  <path
     id="path9791"
     style="opacity:0.2;fill:#ffffff;fill-opacity:1;stroke-width:0.140009;stroke-linejoin:round"
     d="m 3.175,0.5291667 c -0.2931583,0 -0.5291667,0.2360083 -0.5291667,0.5291667 V 1.3229167 C 2.6458333,1.0297583 2.8818417,0.79375 3.175,0.79375 h 7.14375 c 0,0 1e-6,-0.2645833 0,-0.2645833 z"
     sodipodi:nodetypes="sscsccs" />
  <path
     id="rect9905"
     style="opacity:0.2;fill:#000000;fill-opacity:1;stroke-width:2;stroke-linejoin:round"
     d="M 10 59 L 10 60 C 10 61.108 10.892 62 12 62 L 52 62 C 53.108 62 54 61.108 54 60 L 54 59 C 54 60.108 53.108 61 52 61 L 12 61 C 10.892 61 10 60.108 10 59 z "
     transform="scale(0.26458334)" />
  <path
     id="rect5598"
     style="opacity:0.1;fill:#000000;fill-opacity:1;stroke-width:0.529167;stroke-linejoin:round"
     d="M 10.444901,4.3115072 10.31875,3.4395834 14.2875,4.4979167 v 3.7041668 z"
     sodipodi:nodetypes="ccccc" />
  <path
     id="rect2607"
     style="fill:#f1f1f1;fill-opacity:1;stroke-width:0.529167;stroke-linejoin:round"
     d="m 14.2875,4.4979167 -3.439583,-1e-7 c -0.293158,0 -0.529166,-0.2360083 -0.529166,-0.5291667 V 0.52916673 Z"
     sodipodi:nodetypes="csscc" />
  <path
     id="rect2379"
     style="opacity:1;fill:#fff6ee;fill-opacity:1;stroke-width:6.36408;stroke-linecap:round;stroke-linejoin:round"
     d="M 32 24 L 30.671875 25.328125 L 28.939453 24.609375 L 28.220703 26.34375 L 26.341797 26.34375 L 26.341797 28.220703 L 24.609375 28.939453 L 25.328125 30.673828 L 24 32 L 25.328125 33.328125 L 24.609375 35.060547 L 26.341797 35.779297 L 26.341797 37.658203 L 28 37.658203 L 28 48 L 32 45 L 36 48 L 36 37.658203 L 37.65625 37.658203 L 37.65625 35.779297 L 39.390625 35.060547 L 38.671875 33.328125 L 40 32 L 38.671875 30.673828 L 39.390625 28.939453 L 37.65625 28.220703 L 37.65625 26.34375 L 35.779297 26.34375 L 35.060547 24.609375 L 33.326172 25.328125 L 32 24 z M 32 28 A 4.0000002 4.0000002 0 0 1 36 32 A 4.0000002 4.0000002 0 0 1 32 36 A 4.0000002 4.0000002 0 0 1 28 32 A 4.0000002 4.0000002 0 0 1 32 28 z "
     transform="scale(0.26458334)" />
  <path
     d="m 8.4666666,7.4083333 c -0.5845011,0 -1.0583331,0.473832 -1.0583334,1.058333 1.606e-4,0.04424 0.0031,0.08842 0.00878,0.132292 0.066647,-0.528984 0.5163839,-0.925798 1.0495492,-0.926042 0.5331889,-4.9e-5 0.9831562,0.396551 1.0500654,0.925525 0.0055,-0.04371 0.00826,-0.08772 0.00827,-0.131775 2.1e-6,-0.584501 -0.4738298,-1.058333 -1.0583312,-1.058333 z m -1.8619018,0.47439 -0.093534,0.03876 0.1126546,0.271818 0.077515,-0.07752 z m 3.7238042,0 -0.09663,0.23306 0.07752,0.07752 0.112654,-0.271818 z m -3.8462774,0.716235 -0.1322917,0.132292 0.273885,0.273885 0.077515,-0.187069 z m 3.9687504,0 -0.219108,0.219108 0.07752,0.187069 0.273885,-0.273885 z m -3.8462772,0.716235 -0.093534,0.225827 0.45837,0.190169 v -0.264584 z m 3.7238042,0 -0.3653527,0.151412 v 0.264584 l 0.4588867,-0.190169 z m -3.3589686,0.64854 V 10.228316 H 7.4083332 V 9.9637333 Z m 2.5553998,0 V 10.228316 H 9.9632163 V 9.9637333 Z M 8.4666666,11.90625 7.4083332,12.7 v 0.264583 l 1.0583334,-0.79375 1.0583336,0.79375 V 12.7 Z"
     style="opacity:0.2;fill:#000000;fill-opacity:1;stroke-width:1.68383;stroke-linecap:round;stroke-linejoin:round"
     id="path880" />
</svg>
