<?xml version="1.0" encoding="UTF-8" standalone="no"?>
<!-- Created with Inkscape (http://www.inkscape.org/) -->

<svg
   width="64"
   height="64"
   viewBox="0 0 16.933333 16.933334"
   version="1.1"
   id="svg5"
   inkscape:version="1.1.2 (0a00cf5339, 2022-02-04, custom)"
   sodipodi:docname="application-vnd.ms-excel.template.macroenabled.12.svg"
   xmlns:inkscape="http://www.inkscape.org/namespaces/inkscape"
   xmlns:sodipodi="http://sodipodi.sourceforge.net/DTD/sodipodi-0.dtd"
   xmlns="http://www.w3.org/2000/svg"
   xmlns:svg="http://www.w3.org/2000/svg">
  <sodipodi:namedview
     id="namedview7"
     pagecolor="#ffffff"
     bordercolor="#666666"
     borderopacity="1.0"
     inkscape:pageshadow="2"
     inkscape:pageopacity="0.0"
     inkscape:pagecheckerboard="0"
     inkscape:document-units="px"
     showgrid="false"
     units="px"
     height="64px"
     inkscape:zoom="6.296875"
     inkscape:cx="6.5905707"
     inkscape:cy="60.188586"
     inkscape:window-width="1920"
     inkscape:window-height="1017"
     inkscape:window-x="0"
     inkscape:window-y="32"
     inkscape:window-maximized="1"
     inkscape:current-layer="svg5" />
  <defs
     id="defs2" />
  <path
     id="rect1068"
     style="fill:#118261;fill-opacity:1;stroke-width:0.529167;stroke-linejoin:round"
     d="m 3.175,0.5291667 7.143751,3e-8 3.968749,3.96874997 1e-6,11.3770833 c 0,0.293158 -0.236009,0.529167 -0.529167,0.529167 H 3.175 c -0.2931584,0 -0.5291667,-0.236009 -0.5291667,-0.529167 V 1.0583334 c 0,-0.29315835 0.2360083,-0.5291667 0.5291667,-0.5291667 z"
     sodipodi:nodetypes="cccsssssc" />
  <path
     id="path9791"
     style="opacity:0.2;fill:#ffffff;fill-opacity:1;stroke-width:0.140009;stroke-linejoin:round"
     d="m 3.175,0.5291667 c -0.2931583,0 -0.5291667,0.2360083 -0.5291667,0.5291667 V 1.3229167 C 2.6458334,1.0297583 2.8818417,0.79375 3.175,0.79375 h 7.14375 c 0,0 1e-6,-0.2645833 0,-0.2645833 z"
     sodipodi:nodetypes="sscsccs" />
  <path
     id="rect9905"
     style="opacity:0.2;fill:#000000;fill-opacity:1;stroke-width:2;stroke-linejoin:round"
     d="M 10 59 L 10 60 C 10 61.108 10.892 62 12 62 L 52 62 C 53.108 62 54 61.108 54 60 L 54 59 C 54 60.108 53.108 61 52 61 L 12 61 C 10.892 61 10 60.108 10 59 z "
     transform="scale(0.26458334)" />
  <path
     id="rect5598"
     style="opacity:0.1;fill:#000000;fill-opacity:1;stroke-width:0.529167;stroke-linejoin:round"
     d="M 10.444901,4.3115072 10.31875,3.4395834 14.2875,4.4979167 v 3.7041668 z"
     sodipodi:nodetypes="ccccc" />
  <path
     id="rect2607"
     style="fill:#f1f1f1;fill-opacity:1;stroke-width:0.529167;stroke-linejoin:round"
     d="m 14.2875,4.4979167 -3.439583,-1e-7 c -0.293158,0 -0.529166,-0.2360083 -0.529166,-0.5291667 V 0.52916673 Z"
     sodipodi:nodetypes="csscc" />
  <path
     id="rect859"
     style="fill:#ffffff;stroke-width:0.264583"
     d="m 9.2605287,7.2760421 v 0.529166 h 0.7937503 v 0.529167 H 9.2605287 v 0.264583 h 0.7937503 v 0.529167 H 9.2605287 v 0.264583 h 0.7937503 v 0.529167 H 9.2605287 v 0.2645839 h 0.7937503 v 0.529166 H 9.2605287 v 0.264583 h 0.7937503 v 0.529167 H 9.2605287 v 0.264583 h 0.7937503 v 0.529167 H 9.2605287 v 0.529167 H 11.906362 V 7.2760421 Z m 1.0583343,0.529166 h 1.057815 v 0.529167 h -1.057815 z m 0,0.79375 h 1.057815 v 0.529167 h -1.057815 z m 0,0.79375 h 1.057815 v 0.529167 h -1.057815 z m 0,0.7937509 h 1.057815 v 0.529166 h -1.057815 z m 0,0.793749 h 1.057815 v 0.529167 h -1.057815 z m 0,0.79375 h 1.057815 v 0.529167 h -1.057815 z" />
  <path
     id="rect1462"
     style="fill:#ffffff;stroke-width:0.264583"
     d="m 5.0269719,7.1101761 2.23e-4,5.8895469 3.9573848,0.758654 0.02273,-7.4083769 z m 1.1775602,1.664323 0.55552,-0.03191 0.365997,0.99128 0.419099,-1.040121 0.572311,-0.03449 -0.679153,1.3793379 0.700213,1.410427 -0.607582,-0.03876 -0.419998,-1.056921 -0.409018,0.99891 -0.55294,-0.0177 0.648022,-1.270825 z"
     sodipodi:nodetypes="cccccccccccccccccc" />
</svg>
