<?xml version="1.0" encoding="UTF-8" standalone="no"?>
<!-- Created with Inkscape (http://www.inkscape.org/) -->

<svg
   width="64"
   height="64"
   viewBox="0 0 16.933333 16.933334"
   version="1.1"
   id="svg5"
   inkscape:version="1.1.2 (0a00cf5339, 2022-02-04, custom)"
   sodipodi:docname="application-vnd.oasis.opendocument.presentation-template.svg"
   xmlns:inkscape="http://www.inkscape.org/namespaces/inkscape"
   xmlns:sodipodi="http://sodipodi.sourceforge.net/DTD/sodipodi-0.dtd"
   xmlns="http://www.w3.org/2000/svg"
   xmlns:svg="http://www.w3.org/2000/svg">
  <sodipodi:namedview
     id="namedview7"
     pagecolor="#ffffff"
     bordercolor="#666666"
     borderopacity="1.0"
     inkscape:pageshadow="2"
     inkscape:pageopacity="0.0"
     inkscape:pagecheckerboard="0"
     inkscape:document-units="px"
     showgrid="false"
     units="px"
     height="64px"
     inkscape:zoom="8.905126"
     inkscape:cx="26.108558"
     inkscape:cy="41.998283"
     inkscape:window-width="1920"
     inkscape:window-height="1017"
     inkscape:window-x="0"
     inkscape:window-y="32"
     inkscape:window-maximized="1"
     inkscape:current-layer="svg5" />
  <defs
     id="defs2" />
  <path
     id="rect1068"
     style="fill:#d08239;fill-opacity:1;stroke-width:0.529167;stroke-linejoin:round"
     d="m 3.175,0.5291667 7.143751,3e-8 3.968749,3.96874997 1e-6,11.3770833 c 0,0.293158 -0.236009,0.529167 -0.529167,0.529167 H 3.175 c -0.2931584,0 -0.5291667,-0.236009 -0.5291667,-0.529167 V 1.0583334 c 0,-0.29315835 0.2360083,-0.5291667 0.5291667,-0.5291667 z"
     sodipodi:nodetypes="cccsssssc" />
  <path
     id="path9791"
     style="opacity:0.2;fill:#ffffff;fill-opacity:1;stroke-width:0.140009;stroke-linejoin:round"
     d="m 3.175,0.5291667 c -0.2931584,0 -0.5291667,0.2360083 -0.5291667,0.5291667 V 1.3229167 C 2.6458333,1.0297583 2.8818416,0.79375 3.175,0.79375 h 7.14375 c 0,0 1e-6,-0.2645833 0,-0.2645833 z"
     sodipodi:nodetypes="sscsccs" />
  <path
     id="rect9905"
     style="opacity:0.2;fill:#000000;fill-opacity:1;stroke-width:2;stroke-linejoin:round"
     d="M 10 59 L 10 60 C 10 61.108 10.892 62 12 62 L 52 62 C 53.108 62 54 61.108 54 60 L 54 59 C 54 60.108 53.108 61 52 61 L 12 61 C 10.892 61 10 60.108 10 59 z "
     transform="scale(0.26458334)" />
  <path
     id="rect5598"
     style="opacity:0.1;fill:#000000;fill-opacity:1;stroke-width:0.529167;stroke-linejoin:round"
     d="M 10.444901,4.3115072 10.31875,3.4395834 14.2875,4.4979167 v 3.7041668 z"
     sodipodi:nodetypes="ccccc" />
  <path
     id="rect2607"
     style="fill:#f1f1f1;fill-opacity:1;stroke-width:0.529167;stroke-linejoin:round"
     d="m 14.2875,4.4979167 -3.439583,-1e-7 c -0.293158,0 -0.529166,-0.2360083 -0.529166,-0.5291667 V 0.52916673 Z"
     sodipodi:nodetypes="csscc" />
  <path
     id="rect35393"
     style="opacity:1;fill:#fff7eb;fill-opacity:1;stroke-width:0.569291;stroke-linejoin:round"
     d="M 24 30 A 4.9999999 4.9999999 0 0 0 19 35 A 4.9999999 4.9999999 0 0 0 24 40 A 4.9999999 4.9999999 0 0 0 29 35 L 24 35 L 24 30 z M 31 30 L 31 32 L 45 32 L 45 30 L 31 30 z M 31 36 L 31 38 L 45 38 L 45 36 L 31 36 z M 19 42 L 19 44 L 45 44 L 45 42 L 19 42 z M 19 48 L 19 50 L 37 50 L 37 48 L 19 48 z "
     transform="scale(0.26458334)" />
  <path
     id="rect35393-7"
     style="opacity:0.2;fill:#000000;fill-opacity:1;stroke-width:0.569291;stroke-linejoin:round"
     d="M 31 32 L 31 33 L 45 33 L 45 32 L 31 32 z M 19.027344 35.5 A 4.9999998 4.9999998 0 0 0 19 36 A 4.9999998 4.9999998 0 0 0 24 41 A 4.9999998 4.9999998 0 0 0 29 36 L 28.896484 36 A 4.9999998 4.9999998 0 0 1 24 40 A 4.9999998 4.9999998 0 0 1 19.027344 35.5 z M 31 38 L 31 39 L 45 39 L 45 38 L 31 38 z M 19 44 L 19 45 L 45 45 L 45 44 L 19 44 z M 19 50 L 19 51 L 37 51 L 37 50 L 19 50 z "
     transform="scale(0.26458334)" />
</svg>
