<?xml version="1.0" encoding="UTF-8" standalone="no"?>
<!-- Created with Inkscape (http://www.inkscape.org/) -->

<svg
   width="64"
   height="64"
   viewBox="0 0 16.933333 16.933334"
   version="1.1"
   id="svg5"
   inkscape:version="1.1.2 (0a00cf5339, 2022-02-04, custom)"
   sodipodi:docname="application-ogg.svg"
   xmlns:inkscape="http://www.inkscape.org/namespaces/inkscape"
   xmlns:sodipodi="http://sodipodi.sourceforge.net/DTD/sodipodi-0.dtd"
   xmlns="http://www.w3.org/2000/svg"
   xmlns:svg="http://www.w3.org/2000/svg">
  <sodipodi:namedview
     id="namedview7"
     pagecolor="#ffffff"
     bordercolor="#666666"
     borderopacity="1.0"
     inkscape:pageshadow="2"
     inkscape:pageopacity="0.0"
     inkscape:pagecheckerboard="0"
     inkscape:document-units="px"
     showgrid="false"
     units="px"
     height="64px"
     inkscape:zoom="11.313708"
     inkscape:cx="25.765204"
     inkscape:cy="34.736622"
     inkscape:window-width="1920"
     inkscape:window-height="1017"
     inkscape:window-x="0"
     inkscape:window-y="32"
     inkscape:window-maximized="1"
     inkscape:current-layer="svg5" />
  <defs
     id="defs2" />
  <path
     id="rect1068"
     style="fill:#f6b13d;fill-opacity:1;stroke-width:0.529167;stroke-linejoin:round"
     d="m 3.175,0.5291667 7.143751,3e-8 3.968749,3.96874997 1e-6,11.3770833 c 0,0.293158 -0.236009,0.529167 -0.529167,0.529167 H 3.175 c -0.2931584,0 -0.5291667,-0.236009 -0.5291667,-0.529167 V 1.0583334 c 0,-0.29315835 0.2360083,-0.5291667 0.5291667,-0.5291667 z"
     sodipodi:nodetypes="cccsssssc" />
  <path
     id="path9791"
     style="opacity:0.2;fill:#ffffff;fill-opacity:1;stroke-width:0.140009;stroke-linejoin:round"
     d="m 3.1750007,0.52916673 c -0.2931584,0 -0.5291667,0.23600831 -0.5291667,0.52916667 v 0.2645833 c 0,-0.2931584 0.2360083,-0.52916666 0.5291667,-0.52916666 h 7.1437503 c 0,0 10e-7,-0.26458321 0,-0.26458331 z"
     sodipodi:nodetypes="sscsccs" />
  <path
     id="rect9905"
     style="opacity:0.2;fill:#000000;fill-opacity:1;stroke-width:2;stroke-linejoin:round"
     d="M 10 59 L 10 60 C 10 61.108 10.892 62 12 62 L 52 62 C 53.108 62 54 61.108 54 60 L 54 59 C 54 60.108 53.108 61 52 61 L 12 61 C 10.892 61 10 60.108 10 59 z "
     transform="scale(0.26458334)" />
  <path
     id="rect5598"
     style="opacity:0.1;fill:#000000;fill-opacity:1;stroke-width:0.529167;stroke-linejoin:round"
     d="M 10.444901,4.3115072 10.31875,3.4395834 14.2875,4.4979167 v 3.7041668 z"
     sodipodi:nodetypes="ccccc" />
  <path
     id="rect2607"
     style="fill:#f1f1f1;fill-opacity:1;stroke-width:0.529167;stroke-linejoin:round"
     d="m 14.2875,4.4979167 -3.439583,-1e-7 c -0.293158,0 -0.529166,-0.2360083 -0.529166,-0.5291667 V 0.52916673 Z"
     sodipodi:nodetypes="csscc" />
  <path
     id="path7876"
     style="fill:#fff9eb;fill-opacity:1;stroke-width:0.185858"
     d="m 10.5823,6.6145835 c -0.03562,-1.614e-4 -0.07288,0.00522 -0.112138,0.01602 L 7.4460573,7.4625938 C 7.2366589,7.5202063 7.0683027,7.7353363 7.0683027,7.944735 v 3.546554 c 0,0 -0.017148,0.210433 -0.2309937,0.198437 -0.1066679,-0.01368 -0.2203001,-0.01107 -0.3358968,0.0093 -0.5218038,0.09201 -0.945061,0.504964 -0.9451621,0.922424 -1.013e-4,0.417575 0.4232151,0.681662 0.9451621,0.589629 0.454423,-0.09497 0.869922,-0.447301 0.9446451,-0.835091 V 8.4826866 L 10.470162,7.6506961 v 2.9047329 c 0,0 -0.01766,0.209916 -0.23151,0.19792 -0.106667,-0.01369 -0.2203,-0.01059 -0.3358971,0.0098 -0.5218039,0.09201 -0.9445432,0.504963 -0.9446451,0.922424 -1.011e-4,0.417575 0.4226981,0.681661 0.9446451,0.589628 0.4544231,-0.09497 0.8704381,-0.4473 0.9451621,-0.835091 V 6.9044883 C 10.849013,6.717171 10.736659,6.6152828 10.5823,6.6145835 Z" />
  <path
     id="path7876-7"
     style="opacity:0.2;fill:#000000;fill-opacity:1;stroke-width:0.185858"
     d="M 10.469933,7.6508869 7.4458279,8.4828774 V 8.7474607 L 10.469933,7.9154702 Z m 0.377984,3.7892421 C 10.773197,11.82792 10.357179,12.18025 9.9027549,12.27522 9.437284,12.35729 9.0507732,12.155931 8.9725791,11.8153 c -0.00948,0.04461 -0.01446,0.08976 -0.01447,0.134876 -1.021e-4,0.417575 0.4226991,0.681661 0.9446451,0.589628 0.4544248,-0.09497 0.8704388,-0.4473 0.9451628,-0.835092 z M 7.4460573,12.37599 c -0.074723,0.38779 -0.4902221,0.740121 -0.9446451,0.835091 -0.4654719,0.08207 -0.8524984,-0.11929 -0.9306925,-0.459921 -0.00952,0.0447 -0.01446,0.08967 -0.01447,0.134876 -1.013e-4,0.417575 0.4232151,0.681661 0.9451621,0.589628 0.4544229,-0.09497 0.869922,-0.4473 0.9446451,-0.835091 z"
     sodipodi:nodetypes="ccccccccsccccccsccc" />
</svg>
