<?xml version="1.0" encoding="UTF-8" standalone="no"?>
<!-- Created with Inkscape (http://www.inkscape.org/) -->

<svg
   width="64"
   height="64"
   viewBox="0 0 16.933333 16.933334"
   version="1.1"
   id="svg5"
   inkscape:version="1.1.2 (0a00cf5339, 2022-02-04, custom)"
   sodipodi:docname="application-x-bzip-compressed-tar.svg"
   xmlns:inkscape="http://www.inkscape.org/namespaces/inkscape"
   xmlns:sodipodi="http://sodipodi.sourceforge.net/DTD/sodipodi-0.dtd"
   xmlns="http://www.w3.org/2000/svg"
   xmlns:svg="http://www.w3.org/2000/svg">
  <sodipodi:namedview
     id="namedview7"
     pagecolor="#ffffff"
     bordercolor="#666666"
     borderopacity="1.0"
     inkscape:pageshadow="2"
     inkscape:pageopacity="0.0"
     inkscape:pagecheckerboard="0"
     inkscape:document-units="px"
     showgrid="false"
     units="px"
     height="64px"
     inkscape:zoom="12.328125"
     inkscape:cx="31.959442"
     inkscape:cy="32"
     inkscape:window-width="1920"
     inkscape:window-height="1011"
     inkscape:window-x="0"
     inkscape:window-y="0"
     inkscape:window-maximized="1"
     inkscape:current-layer="svg5"
     showguides="false" />
  <defs
     id="defs2" />
  <path
     id="rect1068"
     style="fill:#9b37b4;fill-opacity:1;stroke-width:0.529167;stroke-linejoin:round"
     d="m 3.175,0.5291667 7.143751,3e-8 3.968749,3.96874997 1e-6,11.3770833 c 0,0.293158 -0.236009,0.529167 -0.529167,0.529167 H 3.175 c -0.2931584,0 -0.5291667,-0.236009 -0.5291667,-0.529167 V 1.0583334 c 0,-0.29315835 0.2360083,-0.5291667 0.5291667,-0.5291667 z"
     sodipodi:nodetypes="cccsssssc" />
  <path
     id="rect5598"
     style="opacity:0.1;fill:#000000;fill-opacity:1;stroke-width:0.529167;stroke-linejoin:round"
     d="M 10.444901,4.3115072 10.31875,3.4395834 14.2875,4.4979167 v 3.7041668 z"
     sodipodi:nodetypes="ccccc" />
  <path
     id="rect2607"
     style="fill:#f1f1f1;fill-opacity:1;stroke-width:0.529167;stroke-linejoin:round"
     d="m 14.2875,4.4979167 -3.439583,-1e-7 c -0.293158,0 -0.529166,-0.2360083 -0.529166,-0.5291667 V 0.52916673 Z"
     sodipodi:nodetypes="csscc" />
  <path
     id="rect11027"
     style="opacity:0.6;fill:#fefefe;fill-opacity:1;stroke-width:0.703438;stroke-linejoin:round"
     d="m 24,2 v 2 h 2 V 2 Z m 0,2 h -2 v 2 h 2 z m 0,2 v 2 h 2 V 6 Z m 0,2 h -2 v 2 h 2 z m 0,2 v 2 h 2 v -2 z m 0,2 h -2 v 2 h 2 z m 0,2 v 2 h 2 v -2 z m 0,2 h -2 v 2 h 2 z m 0,2 v 2 h 2 v -2 z m 0,2 h -2 v 2 h 2 z m 0,2 v 2 h 2 v -2 z m -2,3 v 5 c 0,0.554 0.446,1 1,1 h 2 c 0.554,0 1,-0.446 1,-1 v -5 z m 1,3 h 2 v 2 h -2 z"
     transform="scale(0.26458334)" />
  <path
     id="path9791"
     style="opacity:0.2;fill:#ffffff;fill-opacity:1;stroke-width:0.140009;stroke-linejoin:round"
     d="m 3.175,0.5291667 c -0.2931583,0 -0.5291667,0.23600829 -0.5291667,0.5291667 V 1.3229167 C 2.6458334,1.0297583 2.8818417,0.79374999 3.175,0.79374999 h 7.14375 c 0,0 1e-6,-0.26458329 0,-0.26458329 z"
     sodipodi:nodetypes="sscsccs" />
  <path
     id="rect9905"
     style="opacity:0.2;fill:#000000;fill-opacity:1;stroke-width:2;stroke-linejoin:round"
     d="M 10 59 L 10 60 C 10 61.108 10.892 62 12 62 L 52 62 C 53.108 62 54 61.108 54 60 L 54 59 C 54 60.108 53.108 61 52 61 L 12 61 C 10.892 61 10 60.108 10 59 z "
     transform="scale(0.26458334)" />
  <path
     d="m 11.623526,15.130051 c 0.249136,0 0.389397,-0.126529 0.445306,-0.239327 h 0.01177 v 0.205979 h 0.286408 v -1.000466 c 0,-0.438439 -0.345259,-0.525735 -0.584586,-0.525735 -0.272676,0 -0.523773,0.109855 -0.621858,0.384493 l 0.275618,0.06277 c 0.04316,-0.106913 0.153013,-0.209902 0.350163,-0.209902 0.189304,0 0.286408,0.09907 0.286408,0.269734 v 0.0069 c 0,0.106912 -0.109855,0.104951 -0.380569,0.136338 -0.285427,0.03335 -0.57772,0.107893 -0.57772,0.450209 0,0.296217 0.222652,0.459037 0.50906,0.459037 z m 0.06376,-0.235403 c -0.165763,0 -0.285427,-0.07455 -0.285427,-0.21971 0,-0.156936 0.139281,-0.212845 0.308968,-0.235404 0.09514,-0.01275 0.320737,-0.03825 0.362914,-0.08043 v 0.194208 c 0,0.178515 -0.142223,0.341336 -0.386455,0.341336 z m -0.825877,-1.304529 h -0.308968 v -0.360952 h -0.293273 v 0.360952 h -0.220691 v 0.235404 h 0.220691 v 0.889629 c -9.79e-4,0.273657 0.20794,0.406072 0.43942,0.401168 0.09318,-9.79e-4 0.155955,-0.01864 0.190285,-0.03139 l -0.05297,-0.242269 c -0.01962,0.0039 -0.05591,0.01275 -0.102989,0.01275 -0.09514,0 -0.180477,-0.03139 -0.180477,-0.201074 V 13.82552 h 0.308968 z m 1.895976,1.506584 h 0.293274 v -0.920037 c 0,-0.19715 0.152031,-0.339373 0.359971,-0.339373 0.06081,0 0.129472,0.01079 0.153013,0.01765 v -0.280522 c -0.02943,-0.0039 -0.0873,-0.0069 -0.124568,-0.0069 -0.176553,0 -0.327604,0.100047 -0.382531,0.261886 h -0.01569 V 13.59008 h -0.283465 z"
     style="font-weight:500;font-family:Inter;-inkscape-font-specification:'Inter Medium';text-align:end;text-anchor:end;stroke-width:0.264583;fill:#ffffff;opacity:0.6"
     id="path16896" />
</svg>
