<?xml version="1.0" encoding="UTF-8" standalone="no"?>
<!-- Created with Inkscape (http://www.inkscape.org/) -->

<svg
   width="64"
   height="64"
   viewBox="0 0 16.933333 16.933334"
   version="1.1"
   id="svg5"
   inkscape:version="1.1.2 (0a00cf5339, 2022-02-04, custom)"
   sodipodi:docname="application-vnd.appimage.svg"
   xmlns:inkscape="http://www.inkscape.org/namespaces/inkscape"
   xmlns:sodipodi="http://sodipodi.sourceforge.net/DTD/sodipodi-0.dtd"
   xmlns="http://www.w3.org/2000/svg"
   xmlns:svg="http://www.w3.org/2000/svg">
  <sodipodi:namedview
     id="namedview7"
     pagecolor="#ffffff"
     bordercolor="#666666"
     borderopacity="1.0"
     inkscape:pageshadow="2"
     inkscape:pageopacity="0.0"
     inkscape:pagecheckerboard="0"
     inkscape:document-units="px"
     showgrid="false"
     units="px"
     height="64px"
     inkscape:zoom="11.313708"
     inkscape:cx="29.565903"
     inkscape:cy="31.201087"
     inkscape:window-width="1920"
     inkscape:window-height="1017"
     inkscape:window-x="0"
     inkscape:window-y="32"
     inkscape:window-maximized="1"
     inkscape:current-layer="svg5" />
  <defs
     id="defs2" />
  <path
     id="rect1068"
     style="fill:#e5e5e5;fill-opacity:1;stroke-width:0.529167;stroke-linejoin:round"
     d="m 3.175,0.5291667 7.143751,3e-8 3.968749,3.96874997 1e-6,11.3770833 c 0,0.293158 -0.236009,0.529167 -0.529167,0.529167 H 3.175 c -0.2931584,0 -0.5291667,-0.236009 -0.5291667,-0.529167 V 1.0583334 c 0,-0.29315835 0.2360083,-0.5291667 0.5291667,-0.5291667 z"
     sodipodi:nodetypes="cccsssssc" />
  <path
     id="rect8140"
     style="opacity:0.75;fill:#1687f5;fill-opacity:1;stroke-width:0.518136;stroke-linejoin:round"
     d="m 3.175,0.5291668 h 7.143751 l -1e-6,2.9104166 0.79375,1.0583333 3.175,0 V 15.875 c 0,0.295111 -0.236009,0.529167 -0.529167,0.529167 H 3.175 c -0.293159,0 -0.529167,-0.236009 -0.529167,-0.529167 V 1.0583337 c 0,-0.2931589 0.236008,-0.5291669 0.529167,-0.5291669 z"
     sodipodi:nodetypes="sccccssssss" />
  <path
     d="m 12.435375,11.112479 c -1e-6,-0.129334 -0.104121,-0.233454 -0.233456,-0.233455 h -0.250325 c -0.0097,-0.148805 -0.02888,-0.29684 -0.05745,-0.443199 l 0.240752,-0.06475 c 0.109309,-0.02929 0.179438,-0.130376 0.172816,-0.238922 -9.79e-4,-0.01551 -0.0035,-0.03135 -0.0078,-0.04696 C 12.266431,9.9602643 12.138947,9.8866575 12.01402,9.9201323 l -0.240296,0.06429 C 11.726082,9.842942 11.669441,9.704653 11.604149,9.5704016 l 0.213848,-0.1235671 c 0.07,-0.040415 0.111425,-0.1109339 0.11672,-0.1855814 0.0032,-0.044797 -0.0068,-0.09114 -0.03101,-0.1331425 -0.06467,-0.1120072 -0.207171,-0.1499328 -0.319178,-0.085266 l -0.212468,0.122659 C 11.289511,9.0406795 11.199045,8.9212757 11.101218,8.8080261 l 0.171899,-0.1718992 c 0.04573,-0.045726 0.0684,-0.1053926 0.0684,-0.1650588 2e-6,-0.059666 -0.02267,-0.1193329 -0.0684,-0.1650592 -0.09145,-0.091453 -0.238667,-0.091454 -0.330119,2e-7 l -0.171902,0.171898 C 10.657847,8.3800803 10.538444,8.2896134 10.413621,8.2070632 l 0.122655,-0.2124803 c 0.02425,-0.042002 0.0341,-0.088275 0.03101,-0.133142 -0.0052,-0.074778 -0.04627,-0.1456171 -0.116275,-0.1860344 -0.112008,-0.064666 -0.254054,-0.026286 -0.31872,0.085722 L 10.008723,7.9749763 C 9.8744739,7.9096689 9.7361859,7.8530137 9.5947056,7.8053569 l 0.064291,-0.240294 c 0.00418,-0.015616 0.0068,-0.031458 0.00776,-0.046965 C 9.6733765,7.4095477 9.6032505,7.308462 9.4939374,7.2791724 9.3690107,7.2456981 9.2415209,7.3193052 9.2080466,7.4442321 L 9.1432994,7.6849818 C 8.9969404,7.6564142 8.848906,7.6372248 8.7001003,7.6275302 V 7.377205 c 3e-7,-0.1293339 -0.1041209,-0.2334546 -0.2334545,-0.2334549 -0.1293339,-2e-7 -0.2334546,0.104121 -0.2334549,0.2334549 l -2.1e-6,0.2503257 C 8.0843834,7.6372247 7.9363491,7.656415 7.78999,7.6849826 L 7.7252425,7.4442324 C 7.6917685,7.3193054 7.5642785,7.2456989 7.4393518,7.2791726 7.3144242,7.3126472 7.2408179,7.4401364 7.2742922,7.5650634 l 0.064288,0.2402962 C 7.1970995,7.8530166 7.0588113,7.9096723 6.9245618,7.97498 L 6.8009979,7.761131 C 6.7363287,7.6491252 6.5942837,7.6107424 6.4822782,7.6754092 6.370271,7.7400763 6.3323451,7.8825787 6.3970122,7.9945856 L 6.5196717,8.2070634 C 6.3948477,8.2896137 6.2754438,8.3800806 6.1621945,8.4779079 L 5.9902944,8.3060091 c -0.091455,-0.091453 -0.2386689,-0.091453 -0.3301224,6e-7 -0.091453,0.091454 -0.091453,0.2386663 3.1e-6,0.3301185 l 0.171899,0.1719 C 5.7342474,8.9212776 5.6437805,9.0406814 5.5612305,9.1655052 L 5.3487473,9.0428533 C 5.2367394,8.9781879 5.094238,9.0161124 5.0295714,9.1281185 4.9649046,9.2401259 5.0032877,9.3821725 5.1152959,9.4468369 L 5.3291422,9.5704095 C 5.2638362,9.704658 5.2071815,9.8429452 5.1595258,9.9844247 L 4.9192296,9.9201371 c -0.1249283,-0.033473 -0.2524167,0.040132 -0.28589,0.1650589 -0.033476,0.124927 0.04013,0.252418 0.1650537,0.285894 l 0.2407518,0.06475 c -0.028567,0.146359 -0.047757,0.294394 -0.057451,0.4432 l -0.2503231,-7e-6 c -0.1293339,3e-6 -0.2334538,0.104121 -0.2334543,0.233456 -3e-7,0.129333 0.1041183,0.233454 0.2334506,0.233456 h 0.2503273 c 0.00969,0.148806 0.028884,0.29684 0.057451,0.443199 l -0.2407489,0.06475 c -0.1249269,0.03348 -0.1985338,0.160964 -0.1650595,0.285891 0.033474,0.124927 0.1609619,0.198534 0.2858879,0.165064 l 0.2402961,-0.0643 c 0.047656,0.141481 0.1043118,0.279768 0.1696189,0.414017 l -0.2138479,0.123567 c -0.1120061,0.06467 -0.1503881,0.206713 -0.085722,0.31872 0.064674,0.112 0.2071706,0.149931 0.3191764,0.08526 l 0.212481,-0.122654 c 0.08255,0.124825 0.1730158,0.244229 0.270842,0.357479 l -0.1718987,0.171898 c -0.091453,0.09145 -0.091454,0.238668 3.2e-6,0.330119 0.091454,0.09145 0.2386655,0.09145 0.3301193,-7e-6 l 0.1718992,-0.171894 c 0.1132502,0.09783 0.2326545,0.188293 0.3574791,0.270842 l -0.1226558,0.212481 c -0.064666,0.112006 -0.02674,0.254508 0.085266,0.319176 0.1120068,0.06467 0.2540542,0.02629 0.3187186,-0.08573 L 6.924567,14.249975 c 0.1342496,0.06531 0.2725381,0.121961 0.4140187,0.169618 l -0.064293,0.240298 c -0.033474,0.124927 0.040132,0.252418 0.165055,0.285894 0.1249286,0.03348 0.2524162,-0.04013 0.2858937,-0.165054 l 0.064749,-0.240755 c 0.1463595,0.02857 0.2943944,0.04776 0.4432003,0.05745 l -1.8e-6,0.250326 c 2e-7,0.129334 0.1041178,0.233456 0.2334509,0.233458 0.1293341,-2e-6 0.2334543,-0.104119 0.2334527,-0.233459 l -1.3e-6,-0.24212 c 0.149579,-0.0097 0.2983777,-0.02909 0.4454781,-0.05791 l 0.062468,0.232999 c 0.033475,0.124926 0.1609625,0.198534 0.2858887,0.165065 0.10931,-0.02929 0.1794401,-0.130376 0.1728166,-0.238922 -9.79e-4,-0.01546 -0.00356,-0.03134 -0.00775,-0.04698 l -0.062917,-0.233916 c 0.1419998,-0.04835 0.2807462,-0.105766 0.4153824,-0.171904 l 0.120826,0.209746 c 0.06467,0.112007 0.206715,0.150392 0.31872,0.08573 0.07,-0.04042 0.111101,-0.111256 0.116275,-0.186034 0.0031,-0.04487 -0.0068,-0.09114 -0.031,-0.133142 l -0.120376,-0.208829 c 0.12429,-0.08364 0.243084,-0.175174 0.35565,-0.274031 l 0.171444,0.171444 c 0.09146,0.09145 0.238674,0.09146 0.330126,5e-6 0.04572,-0.04572 0.06839,-0.105395 0.06839,-0.165063 4e-6,-0.05967 -0.02267,-0.119336 -0.06839,-0.165062 l -0.17144,-0.171441 c 0.09886,-0.112567 0.190393,-0.231363 0.274038,-0.355654 l 0.208833,0.120375 c 0.112006,0.06467 0.254508,0.02674 0.319176,-0.08527 0.02425,-0.04201 0.03419,-0.08835 0.03101,-0.133137 -0.0053,-0.07465 -0.04672,-0.145162 -0.116728,-0.185576 l -0.209741,-0.120838 c 0.06613,-0.134638 0.123551,-0.273386 0.171893,-0.415387 l 0.23391,0.06293 c 0.124928,0.03348 0.252418,-0.04013 0.285894,-0.165054 0.0041,-0.01565 0.0068,-0.03146 0.0078,-0.04696 0.0066,-0.108554 -0.0635,-0.209638 -0.172811,-0.238926 l -0.233,-0.06247 c 0.02882,-0.147101 0.04816,-0.295901 0.05791,-0.445482 h 0.242117 c 0.129344,-2e-6 0.233465,-0.104121 0.233466,-0.233452 z m -1.00039,0.633795 c -0.299053,1.400439 -1.5363258,2.40128 -2.9683392,2.401117 -0.3175617,-1.65e-4 -0.6331297,-0.05017 -0.9351854,-0.14819 L 7.384638,13.452953 8.3385189,11.800532 c 0.042239,0.008 0.085128,0.01215 0.1281234,0.01232 0.2967763,-3e-5 0.5613136,-0.187105 0.6602394,-0.466908 l 1.9077643,-6e-6 z m -0.0073,-1.260292 -0.393043,0.393042 H 9.1250334 C 9.0263324,10.59985 8.7627251,10.412916 8.4666185,10.412115 c -0.04272,5.29e-4 -0.085302,0.0049 -0.1272151,0.01323 L 7.3846388,8.7720039 7.5314601,8.2257568 c 0.302056,-0.098019 0.617624,-0.148024 0.9351859,-0.1481891 1.4314914,0.00401 2.665545,1.0077473 2.961043,2.4084133 z m -2.7275844,0.626497 c 3e-7,0.128933 -0.1045207,0.233455 -0.2334543,0.233455 -0.1289346,2e-6 -0.2334583,-0.104519 -0.2334585,-0.233454 7e-7,-0.128933 0.1045212,-0.233453 0.233454,-0.233453 0.1289341,-2e-6 0.2334575,0.104518 0.2334588,0.233452 z M 7.9345327,10.657427 c -0.1085093,0.126794 -0.1681758,0.288169 -0.168252,0.455055 7.86e-5,0.166886 0.059747,0.328258 0.168257,0.455051 L 6.9806563,13.219497 6.4430717,13.363582 C 5.8023241,12.790336 5.4347769,11.972223 5.4317365,11.112479 5.4347766,10.252735 5.8023217,9.4346216 6.4430685,8.8613746 l 0.5375839,0.1440847 z"
     style="opacity:0.2;fill:#000000;fill-opacity:1;stroke-width:0.114566;stroke-linejoin:round"
     id="path4932" />
  <path
     id="path9791"
     style="opacity:0.2;fill:#ffffff;fill-opacity:1;stroke-width:0.140009;stroke-linejoin:round"
     d="m 3.1750001,0.52916667 c -0.2931583,0 -0.5291667,0.2360083 -0.5291667,0.52916673 v 0.2645833 c 1e-7,-0.2931584 0.2360084,-0.52916673 0.5291667,-0.52916673 H 10.31875 c 0,0 1e-6,-0.2645833 0,-0.2645833 z"
     sodipodi:nodetypes="sscsccs" />
  <path
     id="rect9905"
     style="opacity:0.2;fill:#000000;fill-opacity:1;stroke-width:2;stroke-linejoin:round"
     d="M 10 59 L 10 60 C 10 61.108 10.892 62 12 62 L 52 62 C 53.108 62 54 61.108 54 60 L 54 59 C 54 60.108 53.108 61 52 61 L 12 61 C 10.892 61 10 60.108 10 59 z "
     transform="scale(0.26458334)" />
  <path
     id="rect5598"
     style="opacity:0.1;fill:#000000;fill-opacity:1;stroke-width:0.529167;stroke-linejoin:round"
     d="M 10.444901,4.3115072 10.31875,3.4395834 14.2875,4.4979167 v 3.7041668 z"
     sodipodi:nodetypes="ccccc" />
  <path
     id="rect2607"
     style="fill:#f1f1f1;fill-opacity:1;stroke-width:0.529167;stroke-linejoin:round"
     d="m 14.2875,4.4979167 -3.439583,-1e-7 c -0.293158,0 -0.529166,-0.2360083 -0.529166,-0.5291667 V 0.52916673 Z"
     sodipodi:nodetypes="csscc" />
  <path
     id="path863-3"
     style="opacity:1;fill:#eff5fd;fill-opacity:1;stroke-width:0.433007;stroke-linejoin:round"
     d="m 12.435375,10.847895 c -1e-6,-0.129334 -0.104121,-0.233454 -0.233456,-0.233455 h -0.250325 c -0.0097,-0.148806 -0.02888,-0.29684 -0.05745,-0.443199 l 0.240751,-0.06475 c 0.109309,-0.02929 0.179438,-0.1303755 0.172816,-0.2389219 -9.7e-4,-0.015506 -0.0035,-0.031346 -0.0078,-0.046964 C 12.266431,9.6956807 12.138947,9.6220738 12.01402,9.6555488 l -0.240296,0.06429 C 11.726082,9.5783584 11.669441,9.4400693 11.604149,9.305818 l 0.213848,-0.1235671 c 0.07,-0.040415 0.111425,-0.1109341 0.11672,-0.1855815 0.0032,-0.044797 -0.0068,-0.09114 -0.03101,-0.1331424 C 11.839037,8.7515199 11.696536,8.7135943 11.584529,8.778261 L 11.372061,8.9009201 C 11.289511,8.776096 11.199045,8.656692 11.101218,8.5434425 l 0.171899,-0.1718992 c 0.04573,-0.045726 0.0684,-0.1053927 0.0684,-0.1650587 2e-6,-0.059666 -0.02267,-0.1193331 -0.0684,-0.1650593 -0.09145,-0.091453 -0.238667,-0.091454 -0.330119,10e-8 L 10.771096,8.2133235 C 10.657847,8.1154965 10.538444,8.0250297 10.413621,7.9424795 l 0.122655,-0.2124803 c 0.02425,-0.042002 0.0341,-0.088275 0.03101,-0.1331419 -0.0052,-0.074778 -0.04627,-0.1456171 -0.116275,-0.1860344 -0.112008,-0.064666 -0.254054,-0.026285 -0.31872,0.085722 L 10.008723,7.7103926 C 9.8744739,7.6450853 9.736186,7.5884299 9.5947056,7.5407732 l 0.064291,-0.2402939 c 0.00418,-0.015616 0.0068,-0.031458 0.00776,-0.046965 C 9.6733766,7.144964 9.6032506,7.0438783 9.4939376,7.0145888 9.3690107,6.9811144 9.2415209,7.0547216 9.2080468,7.1796484 L 9.1432994,7.4203982 C 8.9969403,7.3918306 8.848906,7.372641 8.7001004,7.3629466 V 7.1126213 c 2e-7,-0.129334 -0.1041208,-0.2334546 -0.2334545,-0.2334548 -0.129334,-3e-7 -0.2334545,0.1041209 -0.233455,0.2334547 L 8.233189,7.362947 C 8.0843834,7.3726416 7.936349,7.3918313 7.78999,7.420399 L 7.7252427,7.1796488 C 7.6917687,7.0547218 7.5642786,6.9811152 7.4393519,7.014589 7.3144242,7.0480634 7.240818,7.1755528 7.2742924,7.3004798 l 0.064288,0.2402961 C 7.1970996,7.5884329 7.0588113,7.6450886 6.9245619,7.7103963 L 6.8009981,7.4965473 C 6.7363288,7.3845415 6.5942839,7.3461587 6.4822783,7.4108255 6.3702711,7.4754925 6.3323453,7.6179951 6.3970124,7.7300018 L 6.5196718,7.9424799 C 6.3948478,8.0250301 6.2754439,8.1154971 6.1621945,8.2133242 L 5.9902944,8.0414255 c -0.091455,-0.091453 -0.2386689,-0.091453 -0.3301223,6e-7 -0.091453,0.091454 -0.091453,0.2386664 3.1e-6,0.3301185 l 0.1718991,0.1719 C 5.7342473,8.6566939 5.6437806,8.7760977 5.5612305,8.9009216 L 5.3487473,8.7782698 C 5.2367395,8.7136042 5.0942382,8.7515287 5.0295716,8.863535 4.9649047,8.9755422 5.0032865,9.1175888 5.1152959,9.1822534 L 5.3291424,9.3058259 C 5.2638362,9.4400743 5.2071817,9.5783615 5.1595258,9.719841 L 4.9192297,9.6555534 C 4.7943013,9.6220807 4.666813,9.6956857 4.6333396,9.8206126 4.5998638,9.9455397 4.6734694,10.07303 4.7983935,10.106506 l 0.2407518,0.06475 c -0.028567,0.146359 -0.047757,0.294394 -0.057451,0.4432 l -0.2503229,-7e-6 c -0.129334,3e-6 -0.2334539,0.104121 -0.2334543,0.233456 -4e-7,0.129333 0.1041181,0.233454 0.2334506,0.233456 H 4.981695 c 0.00969,0.148806 0.028884,0.29684 0.057451,0.443199 l -0.2407489,0.06475 c -0.1249269,0.03348 -0.1985339,0.160964 -0.1650596,0.285891 0.033474,0.124927 0.1609619,0.198534 0.285888,0.165064 l 0.2402961,-0.0643 c 0.047657,0.14148 0.1043118,0.279768 0.1696189,0.414017 l -0.2138482,0.123567 c -0.1120062,0.06467 -0.1503882,0.206713 -0.085722,0.31872 0.064674,0.112 0.2071706,0.149931 0.3191764,0.08526 l 0.212481,-0.122654 c 0.082549,0.124825 0.1730156,0.244229 0.2708421,0.357479 l -0.1718989,0.171898 c -0.091453,0.09145 -0.091454,0.238668 3.3e-6,0.330119 0.091454,0.09145 0.2386654,0.09145 0.3301192,-7e-6 L 6.1621928,13.48247 c 0.11325,0.09783 0.2326544,0.188293 0.3574789,0.270842 l -0.1226558,0.212481 c -0.064666,0.112006 -0.02674,0.254508 0.085266,0.319176 0.1120068,0.06467 0.2540542,0.02629 0.3187188,-0.08573 l 0.1235665,-0.213848 c 0.1342495,0.06531 0.2725379,0.121962 0.4140187,0.169618 l -0.064293,0.240298 c -0.033474,0.124927 0.040132,0.252418 0.1650549,0.285894 0.1249286,0.03348 0.2524163,-0.04013 0.2858938,-0.165054 l 0.064749,-0.240755 c 0.1463595,0.02857 0.2943944,0.04776 0.4432004,0.05745 l -1.9e-6,0.250326 c 3e-7,0.129334 0.1041179,0.233456 0.2334508,0.233458 0.1293342,-2e-6 0.2334545,-0.104119 0.2334529,-0.233459 l -1.5e-6,-0.24212 c 0.1495791,-0.0097 0.298378,-0.02909 0.4454783,-0.05791 l 0.062468,0.232999 c 0.033475,0.124926 0.1609625,0.198534 0.2858887,0.165065 0.10931,-0.02929 0.1794401,-0.130376 0.1728166,-0.238922 -9.706e-4,-0.01546 -0.00356,-0.03134 -0.00775,-0.04698 l -0.062918,-0.233916 c 0.1419996,-0.04835 0.2807462,-0.105765 0.4153821,-0.171904 l 0.120826,0.209746 c 0.06467,0.112007 0.206715,0.150392 0.31872,0.08573 0.07,-0.04042 0.111101,-0.111256 0.116275,-0.186034 0.0031,-0.04487 -0.0068,-0.09114 -0.031,-0.133142 L 10.415903,13.75695 c 0.12429,-0.08364 0.243084,-0.175174 0.35565,-0.274031 l 0.171443,0.171444 c 0.09146,0.09145 0.238674,0.09146 0.330126,5e-6 0.04572,-0.04572 0.06839,-0.105395 0.06839,-0.165063 4e-6,-0.05967 -0.02267,-0.119336 -0.06839,-0.165062 l -0.17144,-0.171441 c 0.09886,-0.112567 0.190394,-0.231363 0.274038,-0.355654 l 0.208833,0.120375 c 0.112006,0.06467 0.254508,0.02674 0.319177,-0.08527 0.02425,-0.04201 0.03419,-0.08835 0.03101,-0.133137 -0.0053,-0.07465 -0.04672,-0.145162 -0.116729,-0.185576 L 11.60827,12.392702 c 0.06614,-0.134638 0.123552,-0.273386 0.171894,-0.415387 l 0.23391,0.06293 c 0.124928,0.03348 0.252418,-0.04013 0.285894,-0.165054 0.0041,-0.01565 0.0068,-0.03146 0.0078,-0.04696 0.0066,-0.108554 -0.0635,-0.209638 -0.172811,-0.238926 l -0.233,-0.06247 c 0.02882,-0.147102 0.04816,-0.295902 0.05791,-0.445482 h 0.242117 c 0.129344,-2e-6 0.233465,-0.104121 0.233466,-0.233452 z m -1.00039,0.633795 c -0.299053,1.400439 -1.5363259,2.40128 -2.9683391,2.401117 -0.3175617,-1.65e-4 -0.6331298,-0.05017 -0.9351854,-0.14819 l -0.1468224,-0.546248 0.953881,-1.652421 c 0.042239,0.008 0.085128,0.01215 0.1281234,0.01232 0.2967763,-2.9e-5 0.5613134,-0.187105 0.6602393,-0.466908 l 1.9077642,-6e-6 z m -0.0073,-1.260292 -0.393043,0.393042 H 9.1250333 c -0.098702,-0.279173 -0.3623083,-0.466108 -0.658415,-0.466909 -0.04272,5.21e-4 -0.085302,0.0049 -0.1272151,0.01323 L 7.3846387,8.507421 7.53146,7.9611739 c 0.3020558,-0.098019 0.6176241,-0.1480241 0.9351858,-0.148189 1.4314914,0.00401 2.6655452,1.0077474 2.9610432,2.4084131 z m -2.7275845,0.626497 c 2e-7,0.128933 -0.1045209,0.233455 -0.2334543,0.233455 -0.1289348,2e-6 -0.2334584,-0.104519 -0.2334587,-0.233454 9e-7,-0.128933 0.1045215,-0.233453 0.233454,-0.233453 0.1289341,-2e-6 0.2334575,0.104518 0.233459,0.233452 z m -0.765568,-0.455052 c -0.1085092,0.126794 -0.1681757,0.288169 -0.168252,0.455055 7.86e-5,0.166886 0.059747,0.328258 0.168257,0.455051 L 6.9806561,12.954913 6.4430716,13.098998 C 5.8023239,12.525752 5.4347768,11.707639 5.4317364,10.847895 5.4347757,9.9881512 5.8023216,9.1700379 6.4430684,8.5967909 l 0.5375839,0.1440848 z"
     sodipodi:nodetypes="cscccccccccccccccsccccccscccccscccssscccsccccscccssccccscccccccccsccccscccccccccsccccsccccscccscscccccccccccccccsccccccscccccccccccccccccccccccccccccccsssssccccccccc" />
</svg>
