<?xml version="1.0" encoding="UTF-8" standalone="no"?>
<!-- Created with Inkscape (http://www.inkscape.org/) -->

<svg
   width="64"
   height="64"
   viewBox="0 0 16.933333 16.933334"
   version="1.1"
   id="svg5"
   inkscape:version="1.1.2 (0a00cf5339, 2022-02-04, custom)"
   sodipodi:docname="application-x-rpm.svg"
   xmlns:inkscape="http://www.inkscape.org/namespaces/inkscape"
   xmlns:sodipodi="http://sodipodi.sourceforge.net/DTD/sodipodi-0.dtd"
   xmlns="http://www.w3.org/2000/svg"
   xmlns:svg="http://www.w3.org/2000/svg">
  <sodipodi:namedview
     id="namedview7"
     pagecolor="#ffffff"
     bordercolor="#666666"
     borderopacity="1.0"
     inkscape:pageshadow="2"
     inkscape:pageopacity="0.0"
     inkscape:pagecheckerboard="0"
     inkscape:document-units="px"
     showgrid="false"
     units="px"
     height="64px"
     inkscape:zoom="8"
     inkscape:cx="8.3125"
     inkscape:cy="34.375"
     inkscape:window-width="1920"
     inkscape:window-height="1017"
     inkscape:window-x="0"
     inkscape:window-y="32"
     inkscape:window-maximized="1"
     inkscape:current-layer="svg5" />
  <defs
     id="defs2" />
  <path
     id="rect1068"
     style="fill:#ee6157;fill-opacity:1;stroke-width:0.529167;stroke-linejoin:round"
     d="m 3.175,0.5291667 7.143751,3e-8 3.968749,3.96874997 1e-6,11.3770833 c 0,0.293158 -0.236009,0.529167 -0.529167,0.529167 H 3.175 c -0.2931584,0 -0.5291667,-0.236009 -0.5291667,-0.529167 V 1.0583334 c 0,-0.29315835 0.2360083,-0.5291667 0.5291667,-0.5291667 z"
     sodipodi:nodetypes="cccsssssc" />
  <path
     id="rect5598"
     style="opacity:0.1;fill:#000000;fill-opacity:1;stroke-width:0.529167;stroke-linejoin:round"
     d="M 10.444901,4.3115072 10.31875,3.4395834 14.2875,4.4979167 v 3.7041668 z"
     sodipodi:nodetypes="ccccc" />
  <path
     id="rect2607"
     style="fill:#f1f1f1;fill-opacity:1;stroke-width:0.529167;stroke-linejoin:round"
     d="m 14.2875,4.4979167 -3.439583,-1e-7 c -0.293158,0 -0.529166,-0.2360083 -0.529166,-0.5291667 V 0.52916673 Z"
     sodipodi:nodetypes="csscc" />
  <path
     id="rect11027"
     style="opacity:0.6;fill:#fefefe;fill-opacity:1;stroke-width:0.703438;stroke-linejoin:round"
     d="m 24,2 v 2 h 2 V 2 Z m 0,2 h -2 v 2 h 2 z m 0,2 v 2 h 2 V 6 Z m 0,2 h -2 v 2 h 2 z m 0,2 v 2 h 2 v -2 z m 0,2 h -2 v 2 h 2 z m 0,2 v 2 h 2 v -2 z m 0,2 h -2 v 2 h 2 z m 0,2 v 2 h 2 v -2 z m 0,2 h -2 v 2 h 2 z m 0,2 v 2 h 2 v -2 z m -2,3 v 5 c 0,0.554 0.446,1 1,1 h 2 c 0.554,0 1,-0.446 1,-1 v -5 z m 1,3 h 2 v 2 h -2 z"
     transform="scale(0.26458334)" />
  <path
     id="path9791"
     style="opacity:0.2;fill:#ffffff;fill-opacity:1;stroke-width:0.140009;stroke-linejoin:round"
     d="m 3.1750016,0.52916673 c -0.2931584,0 -0.5291667,0.23600831 -0.5291667,0.52916667 v 0.2645833 c 0,-0.2931584 0.2360083,-0.52916666 0.5291667,-0.52916666 h 7.1437494 c 0,0 10e-7,-0.26458321 0,-0.26458331 z"
     sodipodi:nodetypes="sscsccs" />
  <path
     id="path864"
     style="opacity:0.3;fill:#ffffff;stroke-width:9;stroke-linecap:round;stroke-linejoin:round"
     d="M 20 35 A 16.000001 16.000001 0 0 0 10 38.509766 L 10 41.216797 A 14 14 0 0 1 20 37 A 14 14 0 0 1 34 51 A 14 14 0 0 1 28.660156 62 L 31.611328 62 A 16.000001 16.000001 0 0 0 36 51 A 16.000001 16.000001 0 0 0 20 35 z M 20 40 A 11 11 0 0 0 12.832031 42.6875 L 14.033203 44.271484 A 8.9999999 8.9999999 0 0 1 20 42 A 8.9999999 8.9999999 0 0 1 29 51 L 31 51 A 11 11 0 0 0 20 40 z M 11.171875 44.455078 A 11 11 0 0 0 10 46.458984 L 10 51 L 11 51 A 8.9999999 8.9999999 0 0 1 12.4375 46.123047 L 11.171875 44.455078 z M 23.089844 47.408203 C 21.014174 50.728408 18.727424 56.684014 18.177734 58.148438 A 2.0000001 2.0000001 0 0 0 18.052734 58.482422 A 2.0000001 2.0000001 0 0 0 19.466797 60.931641 A 2.0000001 2.0000001 0 0 0 21.916016 59.517578 A 2.0000001 2.0000001 0 0 0 21.974609 59.199219 C 22.234966 57.744482 23.310495 51.416876 23.089844 47.408203 z M 10.351562 61.134766 C 10.536602 61.403407 10.786595 61.624257 11.078125 61.775391 A 14 14 0 0 1 10.351562 61.134766 z "
     transform="scale(0.26458334)" />
  <path
     id="rect9905"
     style="opacity:0.2;fill:#000000;fill-opacity:1;stroke-width:2;stroke-linejoin:round"
     d="M 10 59 L 10 60 C 10 61.108 10.892 62 12 62 L 52 62 C 53.108 62 54 61.108 54 60 L 54 59 C 54 60.108 53.108 61 52 61 L 12 61 C 10.892 61 10 60.108 10 59 z "
     transform="scale(0.26458334)" />
</svg>
