<?xml version="1.0" encoding="UTF-8" standalone="no"?>
<!-- Created with Inkscape (http://www.inkscape.org/) -->

<svg
   width="64"
   height="64"
   viewBox="0 0 16.933333 16.933334"
   version="1.1"
   id="svg5"
   inkscape:version="1.1.2 (0a00cf5339, 2022-02-04, custom)"
   sodipodi:docname="image-x-generic.svg"
   xmlns:inkscape="http://www.inkscape.org/namespaces/inkscape"
   xmlns:sodipodi="http://sodipodi.sourceforge.net/DTD/sodipodi-0.dtd"
   xmlns:xlink="http://www.w3.org/1999/xlink"
   xmlns="http://www.w3.org/2000/svg"
   xmlns:svg="http://www.w3.org/2000/svg">
  <sodipodi:namedview
     id="namedview7"
     pagecolor="#ffffff"
     bordercolor="#666666"
     borderopacity="1.0"
     inkscape:pageshadow="2"
     inkscape:pageopacity="0.0"
     inkscape:pagecheckerboard="0"
     inkscape:document-units="px"
     showgrid="false"
     units="px"
     height="64px"
     inkscape:zoom="12.40625"
     inkscape:cx="31.959698"
     inkscape:cy="32"
     inkscape:window-width="1920"
     inkscape:window-height="1017"
     inkscape:window-x="0"
     inkscape:window-y="32"
     inkscape:window-maximized="1"
     inkscape:current-layer="svg5" />
  <defs
     id="defs2">
    <linearGradient
       inkscape:collect="always"
       id="linearGradient9762">
      <stop
         style="stop-color:#000000;stop-opacity:1;"
         offset="0"
         id="stop9758" />
      <stop
         style="stop-color:#000000;stop-opacity:0;"
         offset="1"
         id="stop9760" />
    </linearGradient>
    <linearGradient
       inkscape:collect="always"
       xlink:href="#linearGradient9762"
       id="linearGradient9764"
       x1="9.7642632"
       y1="14.280278"
       x2="12.493866"
       y2="11.780953"
       gradientUnits="userSpaceOnUse" />
  </defs>
  <path
     id="rect2621"
     style="opacity:1;fill:#709fd8;fill-opacity:1;stroke-width:9;stroke-linecap:round;stroke-linejoin:round"
     d="M 8 10 C 5.7839995 10 4 11.784 4 14 L 4 50 C 4 52.216001 5.7839995 54 8 54 L 56 54 C 58.216001 54 60 52.216001 60 50 L 60 14 C 60 11.784 58.216001 10 56 10 L 8 10 z "
     transform="scale(0.26458334)" />
  <path
     id="rect5595"
     style="opacity:0.7;fill:#ffffff;fill-opacity:1;stroke-width:9;stroke-linecap:round;stroke-linejoin:round"
     d="M 22 25 L 4 41 L 4 50 A 4.0000002 4.0000002 0 0 0 8 54 L 56 54 A 4.0000003 4.0000003 0 0 0 60 50 L 60 45 L 48 33 L 38 41 L 22 25 z "
     transform="scale(0.26458334)" />
  <circle
     style="opacity:0.51;fill:#ffffff;fill-opacity:1;stroke-width:3.96875;stroke-linecap:round;stroke-linejoin:round"
     id="path7866"
     cx="12.435417"
     cy="6.0854168"
     r="1.3229166" />
  <path
     id="rect9584"
     style="opacity:0.3;fill:url(#linearGradient9764);fill-opacity:1;stroke-width:2.38125;stroke-linecap:round;stroke-linejoin:round"
     d="m 10.906367,10.193455 3.9103,4.094046 -1.5875,-1e-6 -3.175001,-3.439584 z"
     sodipodi:nodetypes="ccccc" />
  <path
     id="rect944"
     style="opacity:0.2;fill:#000000;stroke-width:0.999999"
     d="M 4 49 L 4 50 C 4 52.216 5.7839999 54 8 54 L 56 54 C 58.216 54 60 52.216 60 50 L 60 49 C 60 51.216 58.216 53 56 53 L 8 53 C 5.7839999 53 4 51.216 4 49 z "
     transform="scale(0.26458334)" />
  <path
     id="rect1172"
     style="opacity:0.2;fill:#ffffff;stroke-width:0.999999"
     d="M 8 10 C 5.7839999 10 4 11.784 4 14 L 4 15 C 4 12.784 5.7839999 11 8 11 L 56 11 C 58.216 11 60 12.784 60 15 L 60 14 C 60 11.784 58.216 10 56 10 L 8 10 z "
     transform="scale(0.26458334)" />
</svg>
