<?xml version="1.0" encoding="UTF-8" standalone="no"?>
<!-- Created with Inkscape (http://www.inkscape.org/) -->

<svg
   width="64"
   height="64"
   viewBox="0 0 16.933333 16.933334"
   version="1.1"
   id="svg5"
   inkscape:version="1.1.2 (0a00cf5339, 2022-02-04, custom)"
   sodipodi:docname="text-x-c++hdr.svg"
   xmlns:inkscape="http://www.inkscape.org/namespaces/inkscape"
   xmlns:sodipodi="http://sodipodi.sourceforge.net/DTD/sodipodi-0.dtd"
   xmlns="http://www.w3.org/2000/svg"
   xmlns:svg="http://www.w3.org/2000/svg">
  <sodipodi:namedview
     id="namedview7"
     pagecolor="#ffffff"
     bordercolor="#666666"
     borderopacity="1.0"
     inkscape:pageshadow="2"
     inkscape:pageopacity="0.0"
     inkscape:pagecheckerboard="0"
     inkscape:document-units="px"
     showgrid="false"
     units="mm"
     height="64px"
     inkscape:zoom="10.03125"
     inkscape:cx="32"
     inkscape:cy="32"
     inkscape:window-width="1541"
     inkscape:window-height="947"
     inkscape:window-x="23"
     inkscape:window-y="32"
     inkscape:window-maximized="0"
     inkscape:current-layer="svg5" />
  <defs
     id="defs2" />
  <path
     id="rect1068"
     style="fill:#e5e5e5;fill-opacity:1;stroke-width:0.529167;stroke-linejoin:round"
     d="m 3.175,0.5291667 7.143751,3e-8 3.968749,3.96874997 1e-6,11.3770833 c 0,0.293158 -0.236009,0.529167 -0.529167,0.529167 H 3.175 c -0.2931584,0 -0.5291667,-0.236009 -0.5291667,-0.529167 V 1.0583334 c 0,-0.29315835 0.2360083,-0.5291667 0.5291667,-0.5291667 z"
     sodipodi:nodetypes="cccsssssc" />
  <path
     id="rect8140"
     style="opacity:0.75;fill:#ffffff;fill-opacity:1;stroke-width:0.518136;stroke-linejoin:round"
     d="m 3.175,0.5291668 h 7.143751 l -1e-6,2.9104166 0.79375,1.0583333 3.175,0 V 15.875 c 0,0.295111 -0.236009,0.529167 -0.529167,0.529167 H 3.175 c -0.293159,0 -0.529167,-0.236009 -0.529167,-0.529167 V 1.0583337 c 0,-0.2931589 0.236008,-0.5291669 0.529167,-0.5291669 z"
     sodipodi:nodetypes="sccccssssss" />
  <path
     id="path9791"
     style="opacity:0.2;fill:#ffffff;fill-opacity:1;stroke-width:0.140009;stroke-linejoin:round"
     d="m 3.175,0.5291668 c -0.2931583,0 -0.5291667,0.2360083 -0.5291667,0.5291667 v 0.2645833 c 0,-0.2931584 0.2360084,-0.5291667 0.5291667,-0.5291667 h 7.143751 c 0,0 10e-7,-0.2645833 0,-0.2645833 z"
     sodipodi:nodetypes="sscsccs" />
  <path
     id="rect9905"
     style="opacity:0.2;fill:#000000;fill-opacity:1;stroke-width:2;stroke-linejoin:round"
     d="M 10 59 L 10 60 C 10 61.108 10.892 62 12 62 L 52 62 C 53.108 62 54 61.108 54 60 L 54 59 C 54 60.108 53.108 61 52 61 L 12 61 C 10.892 61 10 60.108 10 59 z "
     transform="scale(0.26458334)" />
  <path
     id="rect5598"
     style="opacity:0.1;fill:#000000;fill-opacity:1;stroke-width:0.529167;stroke-linejoin:round"
     d="M 10.444901,4.3115072 10.31875,3.4395834 14.2875,4.4979167 v 3.7041668 z"
     sodipodi:nodetypes="ccccc" />
  <path
     id="rect2607"
     style="fill:#f1f1f1;fill-opacity:1;stroke-width:0.529167;stroke-linejoin:round"
     d="m 14.2875,4.4979167 -3.439583,-1e-7 c -0.293158,0 -0.529166,-0.2360083 -0.529166,-0.5291667 V 0.52916673 Z"
     sodipodi:nodetypes="csscc" />
  <path
     d="m 5.6167119,13.493752 c -0.1123392,0 -0.2129251,0.02615 -0.3017904,0.07855 -0.088865,0.0524 -0.1587646,0.127934 -0.2103231,0.22686 -0.051559,0.09851 -0.077515,0.217303 -0.077515,0.35605 0,0.138328 0.025342,0.257125 0.076481,0.356051 0.05114,0.09892 0.1214577,0.17446 0.2103231,0.226859 0.088865,0.05239 0.1896464,0.07855 0.3028241,0.07855 0.076709,0 0.1464127,-0.01147 0.2092893,-0.03411 0.062876,-0.02305 0.1179,-0.05494 0.1648479,-0.0956 0.046948,-0.04108 0.084765,-0.08846 0.1136883,-0.14211 0.029343,-0.05365 0.048558,-0.110882 0.057361,-0.172082 l -0.2351275,-10e-4 c -0.00712,0.03773 -0.019894,0.07091 -0.038758,0.100252 -0.018444,0.02934 -0.041483,0.05429 -0.068729,0.07441 -0.026827,0.02012 -0.056997,0.03551 -0.09095,0.04599 -0.033534,0.01006 -0.069957,0.01499 -0.1085207,0.01499 -0.069583,0 -0.1314443,-0.01721 -0.1855185,-0.05116 -0.053654,-0.03437 -0.095588,-0.08486 -0.1266071,-0.151928 -0.0306,-0.06749 -0.045992,-0.150574 -0.045992,-0.249081 0,-0.09683 0.015391,-0.178911 0.045992,-0.24598 0.0306,-0.06748 0.072533,-0.118685 0.1266071,-0.153479 0.054074,-0.03521 0.1165498,-0.05271 0.1865522,-0.05271 0.039402,0 0.076117,0.0056 0.1100706,0.01654 0.034373,0.01048 0.06464,0.02607 0.091467,0.04702 0.026827,0.02096 0.049155,0.0463 0.06718,0.07648 0.018023,0.02976 0.0305,0.06427 0.037207,0.102837 h 0.2351271 c -0.00964,-0.07168 -0.030057,-0.13545 -0.061495,-0.191203 -0.031019,-0.05617 -0.070651,-0.103544 -0.1188559,-0.14211 -0.048205,-0.03899 -0.1032293,-0.06876 -0.1648478,-0.08888 -0.061619,-0.02012 -0.1283087,-0.02997 -0.1999877,-0.02997 z m 3.1414104,0.01757 v 1.287777 h 0.2330605 v -0.547254 h 0.5968626 v 0.547254 h 0.234094 v -1.287776 h -0.234094 v 0.545186 H 8.9911828 v -0.545186 z m 1.3172317,0 v 1.287777 h 0.436666 c 0.130782,0 0.242322,-0.02596 0.33538,-0.07752 0.09348,-0.05156 0.164997,-0.125282 0.214457,-0.221692 0.04988,-0.09641 0.07493,-0.21158 0.07493,-0.345715 0,-0.133718 -0.02495,-0.248691 -0.07441,-0.344682 -0.04946,-0.09599 -0.120172,-0.169518 -0.212391,-0.220658 -0.0918,-0.05156 -0.20133,-0.07752 -0.329178,-0.07752 z m 1.282609,0 v 1.287777 h 0.233577 v -0.471806 h 0.237195 l 0.253215,0.471806 h 0.259932 l -0.278019,-0.510048 c 0.0082,-0.0033 0.01647,-0.0071 0.02429,-0.01085 0.0679,-0.03312 0.119202,-0.07968 0.153996,-0.140043 0.03521,-0.06078 0.05271,-0.132396 0.05271,-0.214974 0,-0.08216 -0.0174,-0.153871 -0.05219,-0.215491 -0.03437,-0.06204 -0.08496,-0.110321 -0.152446,-0.144694 -0.06707,-0.03437 -0.150155,-0.05168 -0.249081,-0.05168 z m 0.233577,0.19482 h 0.213424 c 0.05827,0 0.106257,0.0087 0.143144,0.02584 0.03689,0.01677 0.06414,0.04172 0.08217,0.07441 0.01803,0.03228 0.02687,0.0711 0.02687,0.116789 0,0.04569 -0.0089,0.08432 -0.02687,0.115755 -0.0176,0.03102 -0.04476,0.05445 -0.08165,0.0708 -0.03689,0.01593 -0.08426,0.02429 -0.14211,0.02429 h -0.214975 z m -1.282609,0.0072 h 0.198438 c 0.08719,0 0.159905,0.0164 0.218591,0.04909 0.05911,0.03227 0.104179,0.08085 0.134359,0.146244 0.03018,0.06497 0.04496,0.146956 0.04496,0.245463 0,0.0985 -0.01478,0.180683 -0.04496,0.246496 -0.03018,0.06539 -0.07545,0.114165 -0.135392,0.147278 -0.05994,0.03269 -0.134572,0.04909 -0.224276,0.04909 h -0.19172 z m -3.5625723,0.0093 v 0.336451 H 6.4099449 v 0.197404 h 0.3364138 v 0.336414 h 0.197404 V 14.256497 H 7.2801762 V 14.059092 H 6.9437627 v -0.336414 z m 1.190625,0 v 0.336451 H 7.6005699 v 0.197404 h 0.3364138 v 0.336414 h 0.197404 V 14.256497 H 8.4708012 V 14.059092 H 8.1343877 v -0.336414 z"
     style="font-weight:600;font-size:1.7706px;line-height:1.25;font-family:Inter;-inkscape-font-specification:'Inter Semi-Bold';text-align:center;text-anchor:middle;stroke-width:0.0442648;fill:#808080;fill-opacity:1"
     id="path7609" />
  <text
     xml:space="preserve"
     style="font-size:10.5833px;line-height:1.25;font-family:'Noto Serif';-inkscape-font-specification:'Noto Serif';stroke-width:0.264583"
     x="11.210568"
     y="8.940918"
     id="text80811"><tspan
       sodipodi:role="line"
       id="tspan80809"
       style="stroke-width:0.264583" /></text>
  <path
     id="path17404"
     style="font-weight:bold;font-size:9.09943px;line-height:1.25;font-family:'나눔스퀘어';-inkscape-font-specification:'나눔스퀘어 Bold';fill:#7620af;fill-opacity:1;stroke-width:0.85979"
     d="M 24 20 L 24 46 L 27.335938 46 L 27.335938 34.341797 C 27.335938 33.60811 27.472914 32.954052 27.748047 32.380859 C 28.046107 31.807667 28.413983 31.337546 28.849609 30.970703 C 29.308163 30.580932 29.813017 30.294749 30.363281 30.111328 C 30.936474 29.904979 31.508839 29.800781 32.082031 29.800781 C 33.480621 29.800781 34.512831 30.156429 35.177734 30.867188 C 35.842638 31.577946 36.173828 32.72463 36.173828 34.306641 L 36.173828 46 L 39.509766 46 L 39.509766 33.550781 C 39.509766 32.427324 39.338055 31.440122 38.994141 30.591797 C 38.650224 29.743472 38.180104 29.044406 37.583984 28.494141 C 36.987864 27.943876 36.288797 27.530992 35.486328 27.255859 C 34.683859 26.980727 33.825311 26.84375 32.908203 26.84375 C 31.624252 26.84375 30.512301 27.072696 29.572266 27.53125 C 28.655158 27.966876 27.90913 28.608706 27.335938 29.457031 L 27.335938 20 L 24 20 z M 32.25 20 L 32.25 22.294922 L 30 22.294922 L 30 23.207031 L 32.25 23.207031 L 32.25 25.652344 L 33.228516 25.652344 L 33.228516 23.207031 L 35.476562 23.207031 L 35.476562 22.294922 L 33.228516 22.294922 L 33.228516 20 L 32.25 20 z M 38.773438 20 L 38.773438 22.294922 L 36.523438 22.294922 L 36.523438 23.207031 L 38.773438 23.207031 L 38.773438 25.652344 L 39.75 25.652344 L 39.75 23.207031 L 42 23.207031 L 42 22.294922 L 39.75 22.294922 L 39.75 20 L 38.773438 20 z "
     transform="scale(0.26458334)" />
  <path
     id="path17404-7"
     style="font-weight:bold;font-size:9.09943px;line-height:1.25;font-family:'나눔스퀘어';-inkscape-font-specification:'나눔스퀘어 Bold';fill:#000000;fill-opacity:1;stroke-width:0.85979;opacity:0.2"
     d="M 30 23.207031 L 30 24.119141 L 32.25 24.119141 L 32.25 23.207031 L 30 23.207031 z M 33.228516 23.207031 L 33.228516 24.119141 L 35.476562 24.119141 L 35.476562 23.207031 L 33.228516 23.207031 z M 36.523438 23.207031 L 36.523438 24.119141 L 38.773438 24.119141 L 38.773438 23.207031 L 36.523438 23.207031 z M 39.75 23.207031 L 39.75 24.119141 L 42 24.119141 L 42 23.207031 L 39.75 23.207031 z M 32.25 25.652344 L 32.25 26.564453 L 33.228516 26.564453 L 33.228516 25.652344 L 32.25 25.652344 z M 38.773438 25.652344 L 38.773438 26.564453 L 39.75 26.564453 L 39.75 25.652344 L 38.773438 25.652344 z M 32.082031 29.800781 C 31.508839 29.800781 30.936474 29.904979 30.363281 30.111328 C 29.813017 30.294749 29.308163 30.580932 28.849609 30.970703 C 28.413983 31.337546 28.046107 31.807667 27.748047 32.380859 C 27.472914 32.954052 27.335938 33.60811 27.335938 34.341797 L 27.335938 35.341797 C 27.335938 34.60811 27.472914 33.954052 27.748047 33.380859 C 28.046107 32.807667 28.413983 32.337546 28.849609 31.970703 C 29.308163 31.580932 29.813017 31.294749 30.363281 31.111328 C 30.936474 30.904979 31.508839 30.800781 32.082031 30.800781 C 33.480621 30.800781 34.512831 31.156428 35.177734 31.867188 C 35.842638 32.577946 36.173828 33.72463 36.173828 35.306641 L 36.173828 34.306641 C 36.173828 32.72463 35.842639 31.577946 35.177734 30.867188 C 34.512832 30.156428 33.480621 29.800781 32.082031 29.800781 z M 24 46 L 24 47 L 27.335938 47 L 27.335938 46 L 24 46 z M 36.173828 46 L 36.173828 47 L 39.509766 47 L 39.509766 46 L 36.173828 46 z "
     transform="scale(0.26458334)" />
</svg>
