<?xml version="1.0" encoding="UTF-8" standalone="no"?>
<!-- Created with Inkscape (http://www.inkscape.org/) -->

<svg
   width="64"
   height="64"
   viewBox="0 0 16.933333 16.933334"
   version="1.1"
   id="svg5"
   inkscape:version="1.1.2 (0a00cf5339, 2022-02-04, custom)"
   sodipodi:docname="text-x-spec.svg"
   xmlns:inkscape="http://www.inkscape.org/namespaces/inkscape"
   xmlns:sodipodi="http://sodipodi.sourceforge.net/DTD/sodipodi-0.dtd"
   xmlns="http://www.w3.org/2000/svg"
   xmlns:svg="http://www.w3.org/2000/svg">
  <sodipodi:namedview
     id="namedview7"
     pagecolor="#ffffff"
     bordercolor="#666666"
     borderopacity="1.0"
     inkscape:pageshadow="2"
     inkscape:pageopacity="0.0"
     inkscape:pagecheckerboard="0"
     inkscape:document-units="px"
     showgrid="false"
     units="px"
     height="64px"
     inkscape:zoom="12.40625"
     inkscape:cx="31.959698"
     inkscape:cy="32"
     inkscape:window-width="1920"
     inkscape:window-height="1017"
     inkscape:window-x="0"
     inkscape:window-y="32"
     inkscape:window-maximized="1"
     inkscape:current-layer="svg5"
     showguides="false" />
  <defs
     id="defs2" />
  <path
     id="rect1068"
     style="fill:#e5e5e5;fill-opacity:1;stroke-width:0.529167;stroke-linejoin:round"
     d="m 3.175,0.5291667 7.143751,3e-8 3.968749,3.96874997 1e-6,11.3770833 c 0,0.293158 -0.236009,0.529167 -0.529167,0.529167 H 3.175 c -0.2931584,0 -0.5291667,-0.236009 -0.5291667,-0.529167 V 1.0583334 c 0,-0.29315835 0.2360083,-0.5291667 0.5291667,-0.5291667 z"
     sodipodi:nodetypes="cccsssssc" />
  <path
     id="rect8140"
     style="opacity:0.75;fill:#ffffff;fill-opacity:1;stroke-width:0.518136;stroke-linejoin:round"
     d="m 3.175,0.5291668 h 7.143751 l -1e-6,2.9104166 0.79375,1.0583333 3.175,0 V 15.875 c 0,0.295111 -0.236009,0.529167 -0.529167,0.529167 H 3.175 c -0.293159,0 -0.529167,-0.236009 -0.529167,-0.529167 V 1.0583337 c 0,-0.2931589 0.236008,-0.5291669 0.529167,-0.5291669 z"
     sodipodi:nodetypes="sccccssssss" />
  <path
     id="path11700"
     style="font-weight:bold;font-size:4.00715px;line-height:1.25;font-family:'나눔스퀘어';-inkscape-font-specification:'나눔스퀘어 Bold';fill:#e26f7e;fill-opacity:1;stroke-width:0.100179"
     d="m 4.7340781,7.4083334 c -0.1656289,0 -0.3111084,0.022799 -0.4366657,0.068213 -0.1228859,0.042743 -0.225694,0.099954 -0.3085084,0.1720824 -0.082815,0.072129 -0.1444135,0.1550636 -0.1844849,0.2485636 -0.040071,0.090829 -0.059945,0.1858942 -0.059945,0.2847372 v 0.07183 c 0,0.1309005 0.023744,0.2419675 0.07183,0.3327963 0.050757,0.088157 0.1191527,0.1628328 0.2046388,0.2242757 0.085486,0.058772 0.186831,0.10824 0.304374,0.1483114 0.1175433,0.0374 0.2446124,0.070866 0.3808553,0.1002522 0.1175433,0.024043 0.215963,0.052176 0.2961061,0.084233 0.080143,0.02938 0.1456131,0.06233 0.1963706,0.09973 0.050757,0.0374 0.087149,0.08059 0.1085204,0.128674 0.02137,0.04809 0.032039,0.103834 0.03204,0.167949 v 0.06408 c 0,0.114871 -0.052394,0.213808 -0.1565797,0.296622 -0.1015145,0.08282 -0.2547368,0.1245408 -0.4604372,0.1245408 -0.061443,0 -0.1298384,-0.0083 -0.2046385,-0.02429 C 4.4454253,9.984904 4.3731587,9.963574 4.3010299,9.936854 4.2289009,9.907464 4.1580972,9.874004 4.0886398,9.836602 4.0191828,9.799202 3.9581005,9.760402 3.9046716,9.72033 l -0.2005047,0.324536 c 0.1202145,0.09617 0.265694,0.176698 0.4366659,0.240812 0.1736432,0.06679 0.3632571,0.09973 0.5689574,0.09973 0.1469289,0 0.2832034,-0.01695 0.4087606,-0.05168 0.128229,-0.03206 0.2378334,-0.08153 0.3286623,-0.148311 0.090829,-0.06946 0.1616326,-0.153855 0.21239,-0.2526985 0.053429,-0.09884 0.080098,-0.214728 0.080098,-0.3483 v -0.07235 c 0,-0.09884 -0.016002,-0.189521 -0.048059,-0.272335 C 5.6622569,9.1569315 5.6113256,9.0817395 5.539197,9.0149539 5.4670685,8.948168 5.371057,8.8894945 5.2508425,8.8387371 5.1332995,8.7853082 4.9848944,8.7387654 4.8059083,8.698694 4.699051,8.6746513 4.6045024,8.6503898 4.5216881,8.6263471 4.4388735,8.5996329 4.369532,8.5690915 4.3134319,8.5343628 4.257332,8.4996347 4.2146606,8.4593714 4.1852744,8.4139568 4.1558884,8.3658709 4.1408328,8.30866 4.1408328,8.2418744 v -0.064079 c 0,-0.1148718 0.053339,-0.2123456 0.1601968,-0.2924887 0.1095287,-0.080143 0.2555253,-0.120406 0.4371827,-0.120406 0.1335717,0 0.25479,0.016002 0.3643188,0.048059 0.1095288,0.032057 0.2176708,0.084451 0.3245281,0.1565797 L 5.615678,7.6610312 C 5.4927923,7.5782166 5.3589264,7.515155 5.2146689,7.4724123 5.0704115,7.4296694 4.9103928,7.4083334 4.7340781,7.4083334 Z m 7.4734459,0 c -0.170973,0 -0.327636,0.02667 -0.469223,0.080098 -0.141585,0.053429 -0.264266,0.1334381 -0.368452,0.2402957 -0.101514,0.1068572 -0.180579,0.2392603 -0.236678,0.396875 -0.0561,0.1576144 -0.08372,0.3418943 -0.08372,0.5529376 v 0.436666 c 0,0.2137148 0.02761,0.3994578 0.08372,0.5570728 0.0561,0.157614 0.135164,0.290017 0.236678,0.3968755 0.101514,0.106854 0.223249,0.185401 0.364835,0.236161 0.141586,0.05343 0.299196,0.0801 0.47284,0.0801 0.195014,0 0.377832,-0.02667 0.548803,-0.0801 0.170972,-0.05343 0.328582,-0.14944 0.47284,-0.288355 L 13.012643,9.7125855 c -0.120215,0.117544 -0.249693,0.197553 -0.388607,0.240296 -0.138914,0.04274 -0.277598,0.06408 -0.416512,0.06408 -0.109529,0 -0.211391,-0.01893 -0.304891,-0.05633 -0.09083,-0.0374 -0.170838,-0.09461 -0.240296,-0.172082 -0.06678,-0.07747 -0.118662,-0.176409 -0.156063,-0.296623 -0.0374,-0.120215 -0.05633,-0.262769 -0.05633,-0.428398 V 8.7307334 c 0,-0.1656289 0.01893,-0.3087 0.05633,-0.4289145 0.0374,-0.1202145 0.08928,-0.2191512 0.156063,-0.2966228 0.06946,-0.077471 0.149467,-0.1346824 0.240296,-0.1720823 0.0935,-0.0374 0.195362,-0.056327 0.304891,-0.056327 0.1309,0 0.255043,0.017465 0.372587,0.052193 0.120214,0.034729 0.245821,0.1055327 0.376721,0.21239 l 0.204122,-0.324528 C 13.02471,7.6099846 12.881639,7.5323839 12.732039,7.4842977 12.582439,7.4335406 12.407881,7.4083334 12.207524,7.4083334 Z M 6.2688682,7.4522585 V 10.341488 H 6.6652264 V 9.2154585 h 0.6371704 c 0.1576147,0 0.2953518,-0.0228 0.4128948,-0.06821 0.1202145,-0.045414 0.2206138,-0.1064966 0.3007568,-0.1839682 0.08014,-0.077472 0.140279,-0.1672027 0.180351,-0.2687175 0.04274,-0.1041857 0.06408,-0.2147363 0.06408,-0.3322793 v -0.084233 c 0,-0.117543 -0.02039,-0.2271474 -0.06046,-0.328662 -0.0374,-0.1015173 -0.09608,-0.1883234 -0.176219,-0.260452 C 7.9463284,7.6141362 7.8473917,7.5564086 7.7271772,7.5163372 7.6069627,7.4735945 7.4653545,7.4522585 7.3023968,7.4522585 Z m 2.4722002,0 V 10.341488 H 10.568347 V 10.000941 H 9.1379434 V 9.0309733 H 10.456209 V 8.6904257 H 9.1379434 V 7.7928061 H 10.540442 V 7.4522585 Z m -2.075842,0.3446817 h 0.6133995 c 0.1870003,0 0.3300711,0.040263 0.4289142,0.1204061 0.1015145,0.077472 0.1519288,0.1986899 0.1519288,0.3643188 v 0.072347 c 0,0.3446148 -0.2080245,0.5167644 -0.6247681,0.5167644 H 6.6652264 Z" />
  <path
     id="path11700-3"
     style="font-weight:bold;font-size:4.00715px;line-height:1.25;font-family:'나눔스퀘어';-inkscape-font-specification:'나눔스퀘어 Bold';opacity:0.2;fill:#000000;fill-opacity:1;stroke-width:0.100179"
     d="m 4.7382123,7.7649008 c -0.1816571,0 -0.327654,0.040263 -0.4371827,0.120406 C 4.194172,7.9654498 4.1408328,8.0629237 4.1408328,8.1777955 v 0.064079 c 0,0.037661 0.00502,0.072218 0.01447,0.1038696 0.022175,-0.073821 0.070336,-0.13931 0.1457275,-0.1958538 0.1095287,-0.080143 0.2555253,-0.1204061 0.4371827,-0.1204061 0.1335717,0 0.25479,0.016002 0.3643188,0.048059 0.1095288,0.032057 0.2176708,0.084451 0.3245281,0.1565796 L 5.6156788,7.9256145 C 5.5773113,7.8997568 5.5378302,7.8762893 5.49734,7.8543011 L 5.42706,7.9695396 C 5.320203,7.8974107 5.2120609,7.8450169 5.1025319,7.8129599 4.9930028,7.780903 4.871785,7.7649008 4.7382123,7.7649008 Z m 7.4693117,0.011885 c -0.109528,0 -0.211391,0.018928 -0.304891,0.056328 -0.09083,0.0374 -0.170836,0.09461 -0.240296,0.1720823 -0.06678,0.077472 -0.118662,0.1764083 -0.156063,0.2966228 -0.0374,0.1202145 -0.05633,0.2632856 -0.05633,0.4289145 v 0.2645833 c 0,-0.1656289 0.01893,-0.3086999 0.05633,-0.4289144 0.0374,-0.1202145 0.08928,-0.2191513 0.156063,-0.2966228 0.06946,-0.077472 0.149468,-0.1346825 0.240296,-0.1720824 0.0935,-0.0374 0.195363,-0.056327 0.304891,-0.056327 0.1309,0 0.255044,0.017465 0.372587,0.052193 0.120215,0.034729 0.245821,0.1055328 0.376721,0.21239 l 0.204122,-0.3245278 c -0.03773,-0.029594 -0.07595,-0.056548 -0.114722,-0.081648 l -0.0894,0.1415933 C 12.825932,7.9345124 12.700326,7.8637086 12.580111,7.8289797 12.462568,7.7942515 12.338424,7.7767864 12.207524,7.7767858 Z M 9.1379434,7.7928068 V 8.0573901 H 10.540442 V 7.7928064 Z m -2.472717,0.00414 v 0.2645833 h 0.6133995 c 0.1870003,0 0.3300714,0.040263 0.4289142,0.1204061 0.081186,0.061957 0.129041,0.1525273 0.145211,0.2707846 0.00421,-0.031175 0.00672,-0.064038 0.00672,-0.098702 V 8.2816718 C 7.8594711,8.1160429 7.8090571,7.994824 7.7075423,7.917353 7.6086973,7.8372032 7.4656257,7.7969402 7.2786259,7.7969402 Z M 3.7501589,8.3571145 c -0.00371,0.029465 -0.00568,0.059217 -0.00568,0.0894 v 0.07183 c 0,0.1309007 0.023744,0.2419675 0.07183,0.3327964 0.050757,0.088157 0.1191528,0.1628327 0.2046389,0.2242756 0.085486,0.058772 0.186831,0.10824 0.304374,0.148312 0.1175432,0.0374 0.2446123,0.07087 0.3808553,0.100252 0.1175432,0.02404 0.2159629,0.05218 0.296106,0.08423 0.080143,0.02939 0.1456132,0.06233 0.1963706,0.09974 0.050757,0.0374 0.087149,0.08059 0.1085205,0.128674 0.00822,0.0185 0.014581,0.03862 0.019637,0.05943 0.00807,-0.02945 0.012404,-0.06007 0.012404,-0.09198 v -0.06408 c 0,-0.06412 -0.010671,-0.119863 -0.03204,-0.167949 -0.021373,-0.048092 -0.057763,-0.09128 -0.1085231,-0.12868 C 5.1478939,9.2059645 5.0824214,9.1730155 5.0022815,9.1436295 4.9221384,9.1115726 4.8237185,9.0834402 4.7061755,9.059397 4.5699325,9.0300118 4.4428632,8.9965447 4.3253202,8.9591448 4.2077769,8.9190734 4.106432,8.8696055 4.0209461,8.8108334 3.9354601,8.7493905 3.8670645,8.6747148 3.8163073,8.5865577 3.7814313,8.5206807 3.7596561,8.4441291 3.7501615,8.3571145 Z m 4.5061845,0.093534 c -0.0081,0.085003 -0.02808,0.1662443 -0.05994,0.2439127 -0.04007,0.1015148 -0.100211,0.1912456 -0.180351,0.2687175 -0.08014,0.077472 -0.1805418,0.1385541 -0.3007568,0.1839688 -0.117543,0.04541 -0.2552806,0.06821 -0.4128948,0.06821 H 6.6652264 v 0.264584 h 0.6371704 c 0.1576147,0 0.2953518,-0.0228 0.4128948,-0.06821 0.1202145,-0.04541 0.2206138,-0.106497 0.3007568,-0.183968 0.08014,-0.07747 0.140279,-0.1672031 0.180351,-0.2687179 0.04274,-0.1041858 0.06408,-0.2147364 0.06408,-0.3322794 v -0.084233 c 0,-0.031194 -0.0013,-0.06191 -0.0041,-0.091984 z m 0.8816,0.5803262 V 9.2955585 H 10.456209 V 9.0309749 Z m 1.9115116,0.084233 v 0.2645838 c 0,0.213714 0.02762,0.399457 0.08372,0.557072 0.0561,0.1576135 0.135164,0.2900165 0.236678,0.3968755 0.101515,0.106853 0.223249,0.185401 0.364835,0.236161 0.141586,0.05343 0.299197,0.0801 0.47284,0.0801 0.195014,0 0.377832,-0.02667 0.548803,-0.0801 0.170972,-0.05343 0.328583,-0.149442 0.47284,-0.288356 l -0.116793,-0.163815 c -0.11141,0.08565 -0.230154,0.148242 -0.356051,0.187586 -0.170971,0.05343 -0.353789,0.0801 -0.548803,0.0801 -0.173643,0 -0.331254,-0.02667 -0.47284,-0.0801 -0.141586,-0.05076 -0.26332,-0.129308 -0.364835,-0.236161 -0.101514,-0.1068595 -0.180579,-0.2392625 -0.236678,-0.3968755 -0.0561,-0.157615 -0.08372,-0.343358 -0.08372,-0.5570724 z M 5.7345339,9.6820965 c -0.010078,0.09316 -0.035006,0.176773 -0.074931,0.250631 -0.050757,0.09884 -0.1215602,0.1832385 -0.21239,0.2526985 -0.090829,0.06679 -0.2004333,0.116251 -0.3286623,0.148311 -0.125557,0.03473 -0.2618317,0.05168 -0.4087606,0.05168 -0.2057001,0 -0.3953142,-0.03294 -0.5689574,-0.09973 -0.1205468,-0.0452 -0.2282137,-0.09843 -0.3234946,-0.159681 l -0.1131713,0.183452 c 0.1202145,0.09617 0.265694,0.176699 0.4366659,0.240812 0.1736432,0.06679 0.3632571,0.09974 0.5689574,0.09974 0.1469289,0 0.2832034,-0.01695 0.4087606,-0.05168 0.128229,-0.03206 0.2378334,-0.08152 0.3286623,-0.148311 0.090829,-0.06946 0.1616326,-0.153855 0.21239,-0.252698 0.053429,-0.09884 0.080098,-0.2147275 0.080098,-0.3482995 v -0.07235 c 0,-0.0324 -0.00172,-0.06391 -0.00517,-0.09457 z m 0.5343343,0.6593915 v 0.264584 h 0.3963582 v -0.264584 z m 2.4722002,0 v 0.264584 h 1.8272786 v -0.264584 z" />
  <path
     d="m 8.6450878,14.834834 v -1.322996 h 0.8604641 v 0.200904 H 8.8847516 v 0.359173 h 0.576227 v 0.200904 h -0.576227 v 0.361111 h 0.6259683 v 0.200904 z M 10.882812,13.95822 H 10.64121 c -0.0069,-0.03962 -0.0196,-0.07472 -0.03811,-0.105297 -0.01852,-0.03101 -0.04156,-0.05728 -0.06912,-0.07881 -0.02756,-0.02154 -0.059,-0.03768 -0.09431,-0.04845 -0.03489,-0.0112 -0.07257,-0.0168 -0.113049,-0.0168 -0.07192,0 -0.135659,0.01809 -0.191215,0.05426 -0.05555,0.03575 -0.09905,0.08829 -0.13049,0.157623 -0.03144,0.06891 -0.04716,0.1531 -0.04716,0.252584 0,0.101206 0.01572,0.186477 0.04716,0.255814 0.03187,0.06891 0.07536,0.121016 0.13049,0.15633 0.05555,0.03489 0.119076,0.05233 0.190569,0.05233 0.03962,0 0.07666,-0.0052 0.111111,-0.0155 0.03489,-0.01077 0.06611,-0.02649 0.09367,-0.04716 0.02799,-0.02067 0.05146,-0.04608 0.07041,-0.07623 0.01938,-0.03015 0.03273,-0.0646 0.04005,-0.10336 l 0.241602,0.0013 c -0.0091,0.06287 -0.02864,0.121874 -0.05879,0.177002 -0.02971,0.05513 -0.06869,0.103792 -0.116925,0.145995 -0.04823,0.04177 -0.10465,0.0745 -0.16925,0.09819 -0.0646,0.02325 -0.136305,0.03488 -0.215116,0.03488 -0.116279,0 -0.220069,-0.02692 -0.311369,-0.08075 -0.0913,-0.05383 -0.1632221,-0.131567 -0.2157631,-0.233203 -0.05254,-0.101637 -0.07881,-0.223515 -0.07881,-0.365633 0,-0.14255 0.02649,-0.264427 0.07946,-0.365633 0.05297,-0.101637 0.125107,-0.179372 0.2164071,-0.233204 0.0913,-0.05383 0.19466,-0.08075 0.310078,-0.08075 0.07364,0 0.142119,0.01034 0.205426,0.03101 0.06331,0.02067 0.119723,0.05103 0.16925,0.09108 0.04953,0.03962 0.09022,0.08828 0.122093,0.145995 0.0323,0.05728 0.0534,0.12274 0.06331,0.196382 z M 7.0126628,13.87553 c -0.00603,-0.05642 -0.031436,-0.100348 -0.076227,-0.131784 -0.044358,-0.03144 -0.1020667,-0.04716 -0.1731264,-0.04716 -0.049957,0 -0.092808,0.0075 -0.1285528,0.02261 -0.035745,0.01507 -0.063092,0.03553 -0.082041,0.06137 -0.01895,0.02584 -0.02864,0.05534 -0.02907,0.0885 0,0.02756 0.00624,0.05146 0.018735,0.0717 0.01292,0.02024 0.030362,0.03747 0.052326,0.05168 0.021963,0.01378 0.046296,0.0254 0.072997,0.03488 0.026701,0.0095 0.053618,0.01744 0.080749,0.0239 l 0.1240308,0.03101 c 0.049957,0.01162 0.097976,0.02735 0.1440569,0.04716 0.046511,0.01981 0.08807,0.04479 0.1246767,0.07494 0.037037,0.03015 0.066322,0.06654 0.087855,0.109173 0.021535,0.04263 0.0323,0.09259 0.0323,0.14987 0,0.07752 -0.019812,0.145779 -0.059432,0.204781 -0.039621,0.05857 -0.096899,0.104438 -0.1718347,0.137596 -0.074505,0.03273 -0.1647285,0.0491 -0.2706714,0.0491 -0.1029285,0 -0.1922912,-0.01593 -0.2680877,-0.0478 -0.075366,-0.03187 -0.134367,-0.07838 -0.1770028,-0.139534 -0.042204,-0.06115 -0.06503,-0.135658 -0.068475,-0.223514 h 0.2357879 c 0.00345,0.04608 0.017658,0.08441 0.042636,0.114987 0.024979,0.03058 0.057494,0.05341 0.097545,0.06848 0.040482,0.01507 0.085702,0.02261 0.1356588,0.02261 0.05211,0 0.09776,-0.0078 0.136951,-0.02326 0.039621,-0.01593 0.070629,-0.0379 0.093023,-0.06589 0.022394,-0.02843 0.033807,-0.06159 0.034238,-0.09948 -4.234e-4,-0.03445 -0.010552,-0.06288 -0.030362,-0.08527 -0.019809,-0.02282 -0.047588,-0.04178 -0.083333,-0.05685 -0.035314,-0.01551 -0.076658,-0.02929 -0.1240312,-0.04134 l -0.150516,-0.03875 C 6.5245084,14.211251 6.4383757,14.168831 6.3750683,14.11198 6.3121913,14.0547 6.2807533,13.978688 6.2807533,13.883944 c 0,-0.07795 0.021103,-0.14621 0.063307,-0.20478 0.042635,-0.05857 0.1005594,-0.104001 0.1737726,-0.136305 0.073213,-0.03273 0.156115,-0.04909 0.2487078,-0.04909 0.093884,0 0.176141,0.01636 0.2467697,0.04909 0.071059,0.0323 0.1268301,0.07731 0.1673125,0.135013 0.040482,0.05728 0.061369,0.123172 0.062661,0.197675 z m 0.4618847,0.959301 v -1.322996 h 0.4961237 c 0.1016365,0 0.1869078,0.01895 0.2558137,0.05685 0.069337,0.0379 0.1216623,0.09001 0.1569765,0.156331 0.035745,0.06589 0.053618,0.140828 0.053618,0.224806 0,0.08484 -0.017873,0.160206 -0.053618,0.226098 -0.035745,0.06589 -0.088502,0.117788 -0.1582684,0.155685 -0.069767,0.03747 -0.1556848,0.0562 -0.2577518,0.0562 H 7.63863 v -0.197028 h 0.2965114 c 0.059431,0 0.1080963,-0.01034 0.1459947,-0.03101 0.037898,-0.02068 0.065891,-0.0491 0.083979,-0.08527 0.018518,-0.03617 0.027778,-0.07773 0.027778,-0.124677 0,-0.04694 -0.00926,-0.08828 -0.027778,-0.124031 -0.018087,-0.03575 -0.046296,-0.06352 -0.084625,-0.08333 -0.037898,-0.02024 -0.086778,-0.03036 -0.1466407,-0.03036 h -0.219638 v 1.122738 z"
     style="font-weight:600;font-family:Inter;-inkscape-font-specification:'Inter Semi-Bold';stroke-width:0.264583;fill:#808080;fill-opacity:1"
     id="path9120" />
  <path
     id="path9791"
     style="opacity:0.2;fill:#ffffff;fill-opacity:1;stroke-width:0.140009;stroke-linejoin:round"
     d="m 3.175,0.5291668 c -0.2931583,0 -0.5291667,0.2360083 -0.5291667,0.5291667 V 1.3229168 C 2.6458334,1.0297584 2.8818417,0.7937501 3.175,0.7937501 h 7.14375 c 0,0 1e-6,-0.2645833 0,-0.2645833 z"
     sodipodi:nodetypes="sscsccs" />
  <path
     id="rect9905"
     style="opacity:0.2;fill:#000000;fill-opacity:1;stroke-width:2;stroke-linejoin:round"
     d="M 10 59 L 10 60 C 10 61.108 10.892 62 12 62 L 52 62 C 53.108 62 54 61.108 54 60 L 54 59 C 54 60.108 53.108 61 52 61 L 12 61 C 10.892 61 10 60.108 10 59 z "
     transform="scale(0.26458334)" />
  <path
     id="rect5598"
     style="opacity:0.1;fill:#000000;fill-opacity:1;stroke-width:0.529167;stroke-linejoin:round"
     d="M 10.444901,4.3115072 10.31875,3.4395834 14.2875,4.4979167 v 3.7041668 z"
     sodipodi:nodetypes="ccccc" />
  <path
     id="rect2607"
     style="fill:#f1f1f1;fill-opacity:1;stroke-width:0.529167;stroke-linejoin:round"
     d="m 14.2875,4.4979167 -3.439583,-1e-7 c -0.293158,0 -0.529166,-0.2360083 -0.529166,-0.5291667 V 0.52916673 Z"
     sodipodi:nodetypes="csscc" />
</svg>
