<?xml version="1.0" encoding="UTF-8" standalone="no"?>
<!-- Created with Inkscape (http://www.inkscape.org/) -->

<svg
   width="64"
   height="64"
   viewBox="0 0 16.933333 16.933334"
   version="1.1"
   id="svg5"
   inkscape:version="1.1.2 (0a00cf5339, 2022-02-04, custom)"
   sodipodi:docname="text-x-qml.svg"
   xmlns:inkscape="http://www.inkscape.org/namespaces/inkscape"
   xmlns:sodipodi="http://sodipodi.sourceforge.net/DTD/sodipodi-0.dtd"
   xmlns="http://www.w3.org/2000/svg"
   xmlns:svg="http://www.w3.org/2000/svg">
  <sodipodi:namedview
     id="namedview7"
     pagecolor="#ffffff"
     bordercolor="#666666"
     borderopacity="1.0"
     inkscape:pageshadow="2"
     inkscape:pageopacity="0.0"
     inkscape:pagecheckerboard="0"
     inkscape:document-units="px"
     showgrid="false"
     units="px"
     height="64px"
     inkscape:zoom="12.40625"
     inkscape:cx="31.959698"
     inkscape:cy="32"
     inkscape:window-width="1920"
     inkscape:window-height="1017"
     inkscape:window-x="0"
     inkscape:window-y="32"
     inkscape:window-maximized="1"
     inkscape:current-layer="svg5" />
  <defs
     id="defs2" />
  <path
     id="rect1068"
     style="fill:#89cd41;fill-opacity:1;stroke-width:0.529167;stroke-linejoin:round"
     d="m 3.175,0.5291667 7.143751,3e-8 3.968749,3.96874997 1e-6,11.3770833 c 0,0.293158 -0.236009,0.529167 -0.529167,0.529167 H 3.175 c -0.2931584,0 -0.5291667,-0.236009 -0.5291667,-0.529167 V 1.0583334 c 0,-0.29315835 0.2360083,-0.5291667 0.5291667,-0.5291667 z"
     sodipodi:nodetypes="cccsssssc" />
  <path
     id="path9791"
     style="opacity:0.2;fill:#ffffff;fill-opacity:1;stroke-width:0.140009;stroke-linejoin:round"
     d="m 3.175,0.5291667 c -0.2931584,0 -0.5291667,0.2360083 -0.5291667,0.5291667 V 1.3229167 C 2.6458333,1.0297583 2.8818416,0.79375 3.175,0.79375 h 7.14375 c 0,0 1e-6,-0.2645832 0,-0.2645833 z"
     sodipodi:nodetypes="sscsccs" />
  <path
     id="rect9905"
     style="opacity:0.2;fill:#000000;fill-opacity:1;stroke-width:2;stroke-linejoin:round"
     d="M 10 59 L 10 60 C 10 61.108 10.892 62 12 62 L 52 62 C 53.108 62 54 61.108 54 60 L 54 59 C 54 60.108 53.108 61 52 61 L 12 61 C 10.892 61 10 60.108 10 59 z "
     transform="scale(0.26458334)" />
  <path
     id="rect5598"
     style="opacity:0.1;fill:#000000;fill-opacity:1;stroke-width:0.529167;stroke-linejoin:round"
     d="M 10.444901,4.3115072 10.31875,3.4395834 14.2875,4.4979167 v 3.7041668 z"
     sodipodi:nodetypes="ccccc" />
  <path
     id="rect2607"
     style="fill:#f1f1f1;fill-opacity:1;stroke-width:0.529167;stroke-linejoin:round"
     d="m 14.2875,4.4979167 -3.439583,-1e-7 c -0.293158,0 -0.529166,-0.2360083 -0.529166,-0.5291667 V 0.52916673 Z"
     sodipodi:nodetypes="csscc" />
  <path
     id="rect1239-6"
     style="opacity:0.2;fill:#000000;fill-opacity:1;stroke-width:1.05693"
     d="M 36.5 29.25 L 36.5 30.75 L 38 30.75 L 38 29.25 L 36.5 29.25 z M 39 29.25 L 39 30.75 L 40.5 30.75 L 40.5 29.25 L 39 29.25 z M 41.5 29.25 L 41.5 30.75 L 43 30.75 L 43 29.25 L 41.5 29.25 z M 21 32 L 21 33 L 27 33 L 27 32 L 21 32 z M 28 32 L 28 33 L 43 33 L 43 32 L 28 32 z M 20 45 L 20 46 C 20 46.553999 20.446 47 21 47 L 43 47 C 43.553999 47 44 46.553999 44 46 L 44 45 C 44 45.554003 43.553999 46 43 46 L 28 46 L 27 46 L 21 46 C 20.446 46 20 45.554003 20 45 z "
     transform="scale(0.26458334)" />
  <path
     id="rect1239"
     style="fill:#e7f8e9;fill-opacity:1;stroke-width:1.05693"
     d="M 21 28 C 20.446 28 20 28.446 20 29 L 20 45 C 20 45.554 20.446 46 21 46 L 43 46 C 43.554 46 44 45.554 44 45 L 44 29 C 44 28.446 43.554 28 43 28 L 21 28 z M 36.5 29.25 L 38 29.25 L 38 30.75 L 36.5 30.75 L 36.5 29.25 z M 39 29.25 L 40.5 29.25 L 40.5 30.75 L 39 30.75 L 39 29.25 z M 41.5 29.25 L 43 29.25 L 43 30.75 L 41.5 30.75 L 41.5 29.25 z M 21 32 L 27 32 L 27 45 L 21 45 L 21 32 z M 28 32 L 43 32 L 43 45 L 28 45 L 28 32 z "
     transform="scale(0.26458334)" />
</svg>
