<?xml version="1.0" encoding="UTF-8" standalone="no"?>
<!-- Created with Inkscape (http://www.inkscape.org/) -->

<svg
   width="64"
   height="64"
   viewBox="0 0 16.933333 16.933334"
   version="1.1"
   id="svg5"
   inkscape:version="1.1.2 (0a00cf5339, 2022-02-04, custom)"
   sodipodi:docname="text-x-java.svg"
   xmlns:inkscape="http://www.inkscape.org/namespaces/inkscape"
   xmlns:sodipodi="http://sodipodi.sourceforge.net/DTD/sodipodi-0.dtd"
   xmlns="http://www.w3.org/2000/svg"
   xmlns:svg="http://www.w3.org/2000/svg">
  <sodipodi:namedview
     id="namedview7"
     pagecolor="#ffffff"
     bordercolor="#666666"
     borderopacity="1.0"
     inkscape:pageshadow="2"
     inkscape:pageopacity="0.0"
     inkscape:pagecheckerboard="0"
     inkscape:document-units="px"
     showgrid="false"
     units="px"
     height="64px"
     inkscape:zoom="12.40625"
     inkscape:cx="32.040302"
     inkscape:cy="32"
     inkscape:window-width="1920"
     inkscape:window-height="1017"
     inkscape:window-x="0"
     inkscape:window-y="32"
     inkscape:window-maximized="1"
     inkscape:current-layer="svg5"
     showguides="false"
     inkscape:lockguides="false" />
  <defs
     id="defs2" />
  <path
     id="rect1068"
     style="fill:#e5e5e5;fill-opacity:1;stroke-width:0.529167;stroke-linejoin:round"
     d="m 3.175,0.5291667 7.143751,3e-8 3.968749,3.96874997 1e-6,11.3770833 c 0,0.293158 -0.236009,0.529167 -0.529167,0.529167 H 3.175 c -0.2931584,0 -0.5291667,-0.236009 -0.5291667,-0.529167 V 1.0583334 c 0,-0.29315835 0.2360083,-0.5291667 0.5291667,-0.5291667 z"
     sodipodi:nodetypes="cccsssssc" />
  <path
     id="rect8140"
     style="opacity:0.75;fill:#ffffff;fill-opacity:1;stroke-width:0.518136;stroke-linejoin:round"
     d="m 3.175,0.5291668 h 7.143751 l -1e-6,2.9104166 0.79375,1.0583333 3.175,0 V 15.875 c 0,0.295111 -0.236009,0.529167 -0.529167,0.529167 H 3.175 c -0.293159,0 -0.529167,-0.236009 -0.529167,-0.529167 V 1.0583337 c 0,-0.2931589 0.236008,-0.5291669 0.529167,-0.5291669 z"
     sodipodi:nodetypes="sccccssssss" />
  <path
     d="m 9.0623458,5.2916667 c 0.266106,1.0483268 -0.938532,1.3649508 -1.373335,2.017835 -0.296089,0.444835 0.14519,0.9229744 0.747026,1.4659378 -0.23469,-0.5305314 -1.030474,-0.9948194 4.23e-4,-1.8090648 1.285518,-1.0147268 0.625886,-1.674708 0.625886,-1.674708 z m 0.795393,1.296855 c 1.5e-5,0 -2.173792,0.5429194 -1.135626,1.7391991 0.306474,0.3527864 -0.0802,0.6701311 -0.0802,0.6701311 0,0 0.777524,-0.401593 0.420433,-0.9045321 -0.333642,-0.4687872 -0.589415,-0.7017369 0.795393,-1.5047981 z m 0.3848822,2.1368959 c -0.07638,2.54e-4 -0.157402,0.013761 -0.240603,0.042995 -0.0667,0.023617 -0.1016982,0.078547 -0.1016982,0.078547 0,0 0.04198,-0.017169 0.1360112,-0.036793 0.384515,-0.080121 0.93551,0.5146193 -0.2558992,1.1335583 -0.0055,0.01475 -0.02358,0.03142 -0.02357,0.03142 1.4168912,-0.372478 1.1077262,-1.2509304 0.4857542,-1.2497305 z m -2.6019782,0.060771 c -0.146343,0.00289 -0.507857,0.032796 -0.92975,0.2368813 -0.6518448,0.315187 1.612202,0.458762 2.784289,0.15048 0.121857,-0.08316 0.290211,-0.155441 0.290211,-0.155441 0,0 -0.479383,0.086 -0.957034,0.126089 -0.58466,0.04905 -1.211907,0.05866 -1.526709,0.01654 -0.745365,-0.09965 0.408445,-0.3737187 0.408445,-0.3737187 0,0 -0.007,-5.821e-4 -0.02026,-8.202e-4 -0.01166,-2.646e-4 -0.02829,-4.233e-4 -0.04919,0 z m -0.199261,0.7209803 c -1.075288,0.356873 0.598556,0.7620431 2.101341,0.322456 -0.159672,-0.05629 -0.260858,-0.159575 -0.260858,-0.159575 -0.734773,0.141409 -1.159428,0.136937 -1.697032,0.08144 -0.415618,-0.04295 -0.143451,-0.244323 -0.143451,-0.244321 z m 0.152133,0.6949351 c -0.976327,0.272802 0.593992,0.836489 1.837176,0.303854 -0.20361,-0.07912 -0.349741,-0.170324 -0.349741,-0.170324 -0.554372,0.104785 -0.811428,0.112845 -1.314632,0.0554 -0.415306,-0.04763 -0.172803,-0.188926 -0.172803,-0.188926 z m -0.678399,0.460949 c -0.438572,0.01375 -1.2953201,0.407729 -0.511384,0.534948 2.534416,0.410811 4.6198612,-0.185025 3.9624972,-0.481619 0,0 0.179659,0.148057 -0.197608,0.262514 -0.7173812,0.217289 -2.9866462,0.282811 -3.6168902,0.0087 -0.226393,-0.09861 0.198324,-0.235303 0.331965,-0.264167 0.139345,-0.03014 0.219106,-0.02439 0.219106,-0.02439 -0.0393,-0.02767 -0.106272,-0.03842 -0.187273,-0.03597 z m 3.8533582,0.377027 c 0,0 -0.07997,0.204773 -0.9450482,0.367518 -0.976005,0.183745 -2.179997,0.162505 -2.893842,0.04465 0,0 0.14645,0.121129 0.897918,0.169497 1.143368,0.07309 2.8993712,-0.04059 2.9409722,-0.581662 z"
     style="fill:#fa811a;fill-opacity:1;stroke-width:0.0560028"
     id="path894"
     sodipodi:nodetypes="ccccccccccccccccccccccccccccccccccccccccccccccccccccsc" />
  <path
     d="m 8.4922824,13.510124 0.3396507,1.027235 h 0.013382 l 0.339013,-1.027235 H 9.4443232 L 8.9842338,14.815197 H 8.6923768 L 8.2329247,13.510124 Z m -1.8155043,0 h 0.2345056 v 0.917629 c -4.325e-4,0.08412 -0.018269,0.156549 -0.053528,0.2173 -0.035261,0.06033 -0.084542,0.106844 -0.1478405,0.139556 -0.062874,0.03228 -0.1361576,0.04843 -0.2198488,0.04843 -0.076469,0 -0.1452914,-0.0136 -0.2064667,-0.04078 -0.060751,-0.02762 -0.1089686,-0.0684 -0.144654,-0.122352 -0.035685,-0.05396 -0.053528,-0.121078 -0.053528,-0.201369 h 0.2351427 c 4.324e-4,0.03526 0.00807,0.06564 0.022942,0.09112 0.015293,0.0255 0.036323,0.04503 0.063087,0.05863 0.026765,0.0136 0.057565,0.0204 0.0924,0.0204 0.03781,0 0.069885,-0.0078 0.096224,-0.02358 0.026341,-0.01614 0.046306,-0.03993 0.059901,-0.07137 0.01402,-0.03143 0.02124,-0.07009 0.021667,-0.115978 z m 2.9542582,1.305073 H 9.3786878 l 0.4594515,-1.305073 h 0.2918577 l 0.460089,1.305073 H 10.337738 L 9.9891663,13.777766 h -0.0102 z m 0.0083,-0.511706 h 0.6882217 v 0.189898 H 9.6393393 Z M 7.335705,14.815197 H 7.083358 l 0.4594519,-1.305073 h 0.2918573 l 0.4600893,1.305073 H 8.0423892 L 7.6938173,13.777766 h -0.010198 z m 0.00828,-0.511706 h 0.6882209 v 0.189898 H 7.3439711 Z"
     style="font-weight:600;font-family:Inter;-inkscape-font-specification:'Inter Semi-Bold';fill:#808080;fill-opacity:1;stroke-width:0.288285"
     id="path12978"
     sodipodi:nodetypes="ccccccccccccccscccccsscccccccccccccccccccccccccccccccc" />
  <path
     id="path9791"
     style="opacity:0.2;fill:#ffffff;fill-opacity:1;stroke-width:0.140009;stroke-linejoin:round"
     d="m 3.175,0.5291668 c -0.2931583,0 -0.5291667,0.2360083 -0.5291667,0.5291667 V 1.3229168 C 2.6458334,1.0297584 2.8818417,0.7937501 3.175,0.7937501 h 7.14375 c 0,0 1e-6,-0.2645833 0,-0.2645833 z"
     sodipodi:nodetypes="sscsccs" />
  <path
     id="rect9905"
     style="opacity:0.2;fill:#000000;fill-opacity:1;stroke-width:2;stroke-linejoin:round"
     d="M 10 59 L 10 60 C 10 61.108 10.892 62 12 62 L 52 62 C 53.108 62 54 61.108 54 60 L 54 59 C 54 60.108 53.108 61 52 61 L 12 61 C 10.892 61 10 60.108 10 59 z "
     transform="scale(0.26458334)" />
  <path
     id="rect5598"
     style="opacity:0.1;fill:#000000;fill-opacity:1;stroke-width:0.529167;stroke-linejoin:round"
     d="M 10.444901,4.3115072 10.31875,3.4395834 14.2875,4.4979167 v 3.7041668 z"
     sodipodi:nodetypes="ccccc" />
  <path
     id="rect2607"
     style="fill:#f1f1f1;fill-opacity:1;stroke-width:0.529167;stroke-linejoin:round"
     d="m 14.2875,4.4979167 -3.439583,-1e-7 c -0.293158,0 -0.529166,-0.2360083 -0.529166,-0.5291667 V 0.52916673 Z"
     sodipodi:nodetypes="csscc" />
</svg>
