<?xml version="1.0" encoding="UTF-8" standalone="no"?>
<!-- Created with Inkscape (http://www.inkscape.org/) -->

<svg
   width="64"
   height="64"
   viewBox="0 0 16.933333 16.933334"
   version="1.1"
   id="svg5"
   inkscape:version="1.1.2 (0a00cf5339, 2022-02-04, custom)"
   sodipodi:docname="text-x-r.svg"
   xmlns:inkscape="http://www.inkscape.org/namespaces/inkscape"
   xmlns:sodipodi="http://sodipodi.sourceforge.net/DTD/sodipodi-0.dtd"
   xmlns="http://www.w3.org/2000/svg"
   xmlns:svg="http://www.w3.org/2000/svg">
  <sodipodi:namedview
     id="namedview7"
     pagecolor="#ffffff"
     bordercolor="#666666"
     borderopacity="1.0"
     inkscape:pageshadow="2"
     inkscape:pageopacity="0.0"
     inkscape:pagecheckerboard="0"
     inkscape:document-units="px"
     showgrid="false"
     units="px"
     height="64px"
     inkscape:zoom="10.015625"
     inkscape:cx="32.049922"
     inkscape:cy="31.950078"
     inkscape:window-width="1541"
     inkscape:window-height="947"
     inkscape:window-x="23"
     inkscape:window-y="32"
     inkscape:window-maximized="0"
     inkscape:current-layer="svg5" />
  <defs
     id="defs2" />
  <path
     id="rect1068"
     style="fill:#e5e5e5;fill-opacity:1;stroke-width:0.529167;stroke-linejoin:round"
     d="m 3.175,0.5291667 7.143751,3e-8 3.968749,3.96874997 1e-6,11.3770833 c 0,0.293158 -0.236009,0.529167 -0.529167,0.529167 H 3.175 c -0.2931584,0 -0.5291667,-0.236009 -0.5291667,-0.529167 V 1.0583334 c 0,-0.29315835 0.2360083,-0.5291667 0.5291667,-0.5291667 z"
     sodipodi:nodetypes="cccsssssc" />
  <path
     id="rect8140"
     style="opacity:0.75;fill:#ffffff;fill-opacity:1;stroke-width:0.518136;stroke-linejoin:round"
     d="m 3.175,0.5291668 h 7.143751 l -1e-6,2.9104166 0.79375,1.0583333 3.175,0 V 15.875 c 0,0.295111 -0.236009,0.529167 -0.529167,0.529167 H 3.175 c -0.293159,0 -0.529167,-0.236009 -0.529167,-0.529167 V 1.0583337 c 0,-0.2931589 0.236008,-0.5291669 0.529167,-0.5291669 z"
     sodipodi:nodetypes="sccccssssss" />
  <path
     id="path9791"
     style="opacity:0.2;fill:#ffffff;fill-opacity:1;stroke-width:0.140009;stroke-linejoin:round"
     d="m 3.175,0.5291668 c -0.2931583,0 -0.5291667,0.2360083 -0.5291667,0.5291667 V 1.3229168 C 2.6458334,1.0297584 2.8818417,0.7937501 3.175,0.7937501 h 7.14375 c 0,0 1e-6,-0.2645833 0,-0.2645833 z"
     sodipodi:nodetypes="sscsccs" />
  <path
     id="rect9905"
     style="opacity:0.2;fill:#000000;fill-opacity:1;stroke-width:2;stroke-linejoin:round"
     d="M 10 59 L 10 60 C 10 61.108 10.892 62 12 62 L 52 62 C 53.108 62 54 61.108 54 60 L 54 59 C 54 60.108 53.108 61 52 61 L 12 61 C 10.892 61 10 60.108 10 59 z "
     transform="scale(0.26458334)" />
  <path
     id="rect5598"
     style="opacity:0.1;fill:#000000;fill-opacity:1;stroke-width:0.529167;stroke-linejoin:round"
     d="M 10.444901,4.3115072 10.31875,3.4395834 14.2875,4.4979167 v 3.7041668 z"
     sodipodi:nodetypes="ccccc" />
  <path
     id="rect2607"
     style="fill:#f1f1f1;fill-opacity:1;stroke-width:0.529167;stroke-linejoin:round"
     d="m 14.2875,4.4979167 -3.439583,-1e-7 c -0.293158,0 -0.529166,-0.2360083 -0.529166,-0.5291667 V 0.52916673 Z"
     sodipodi:nodetypes="csscc" />
  <path
     d="m 8.466666,11.840737 c -2.0457477,0 -3.704166,-1.110684 -3.704166,-2.4807797 0,-1.370107 1.6584183,-2.4807905 3.704166,-2.4807905 2.04576,0 3.704167,1.1106835 3.704167,2.4807905 0,1.3700957 -1.658407,2.4807797 -3.704167,2.4807797 z M 9.0336531,7.8490695 c -1.5549509,0 -2.8154871,0.7593115 -2.8154871,1.6959689 0,0.9366566 1.2605362,1.6959686 2.8154871,1.6959686 1.5549419,0 2.7024679,-0.519122 2.7024679,-1.6959686 0,-1.1764774 -1.147526,-1.6959689 -2.7024679,-1.6959689 z"
     style="fill:#b6b8bb;fill-opacity:1;stroke-width:0.0102737"
     fill-rule="evenodd"
     id="path14" />
  <path
     d="m 10.403749,10.721546 c 0,0 0.224194,0.06766 0.354445,0.133558 0.0452,0.02288 0.123386,0.06851 0.17979,0.128422 0.05525,0.05868 0.08219,0.118148 0.08219,0.118148 l 0.883541,1.489694 -1.42805,6.37e-4 -0.6677934,-1.254034 c 0,0 -0.1367434,-0.23495 -0.2208856,-0.303075 -0.070194,-0.05683 -0.100121,-0.07706 -0.1695163,-0.07706 -0.04831,0 -0.3393007,0 -0.3393007,0 l 2.682e-4,1.633259 -1.2636701,5.34e-4 V 8.419591 H 10.35238 c 0,0 1.155795,0.020849 1.155795,1.1204751 0,1.0996279 -1.104427,1.1814799 -1.104428,1.1814799 z M 9.854105,9.3245641 9.089091,9.3240706 9.0887097,10.033472 9.8541039,10.033227 c 0,0 0.3544441,-0.0011 0.3544441,-0.3608644 0,-0.3669983 -0.3544441,-0.3477962 -0.3544441,-0.3477962 z"
     style="fill:#2167bb;fill-opacity:1;stroke-width:0.0102737"
     fill-rule="evenodd"
     id="path16" />
</svg>
