<?xml version="1.0" encoding="UTF-8" standalone="no"?>
<!-- Created with Inkscape (http://www.inkscape.org/) -->

<svg
   width="64"
   height="64"
   viewBox="0 0 16.933333 16.933334"
   version="1.1"
   id="svg5"
   inkscape:version="1.1.2 (0a00cf5339, 2022-02-04, custom)"
   sodipodi:docname="text-x-javascript.svg"
   xmlns:inkscape="http://www.inkscape.org/namespaces/inkscape"
   xmlns:sodipodi="http://sodipodi.sourceforge.net/DTD/sodipodi-0.dtd"
   xmlns="http://www.w3.org/2000/svg"
   xmlns:svg="http://www.w3.org/2000/svg">
  <sodipodi:namedview
     id="namedview7"
     pagecolor="#ffffff"
     bordercolor="#666666"
     borderopacity="1.0"
     inkscape:pageshadow="2"
     inkscape:pageopacity="0.0"
     inkscape:pagecheckerboard="0"
     inkscape:document-units="px"
     showgrid="false"
     units="px"
     height="64px"
     inkscape:zoom="12.40625"
     inkscape:cx="31.959698"
     inkscape:cy="32"
     inkscape:window-width="1920"
     inkscape:window-height="1017"
     inkscape:window-x="0"
     inkscape:window-y="32"
     inkscape:window-maximized="1"
     inkscape:current-layer="svg5"
     showguides="false"
     inkscape:lockguides="false" />
  <defs
     id="defs2" />
  <path
     id="rect1068"
     style="fill:#e5e5e5;fill-opacity:1;stroke-width:0.529167;stroke-linejoin:round"
     d="m 3.175,0.5291667 7.143751,3e-8 3.968749,3.96874997 1e-6,11.3770833 c 0,0.293158 -0.236009,0.529167 -0.529167,0.529167 H 3.175 c -0.2931584,0 -0.5291667,-0.236009 -0.5291667,-0.529167 V 1.0583334 c 0,-0.29315835 0.2360083,-0.5291667 0.5291667,-0.5291667 z"
     sodipodi:nodetypes="cccsssssc" />
  <path
     id="rect8140"
     style="opacity:0.75;fill:#ffffff;fill-opacity:1;stroke-width:0.518136;stroke-linejoin:round"
     d="m 3.175,0.5291668 h 7.143751 l -1e-6,2.9104166 0.79375,1.0583333 3.175,0 V 15.875 c 0,0.295111 -0.236009,0.529167 -0.529167,0.529167 H 3.175 c -0.293159,0 -0.529167,-0.236009 -0.529167,-0.529167 V 1.0583337 c 0,-0.2931589 0.236008,-0.5291669 0.529167,-0.5291669 z"
     sodipodi:nodetypes="sccccssssss" />
  <path
     id="path7436"
     style="font-weight:bold;font-size:7.24886px;line-height:1.25;font-family:'나눔스퀘어';-inkscape-font-specification:'나눔스퀘어 Bold';fill:#ffab49;fill-opacity:1;stroke-width:0.181221"
     d="m 10.351306,6.3500001 c -0.29962,0 -0.5630017,0.040836 -0.7901327,0.12299 C 9.3388756,6.5503111 9.1528776,6.6546363 9.0030686,6.7851156 8.8532589,6.9155951 8.7422439,7.0650437 8.6697559,7.2341839 8.5972659,7.3984912 8.5607179,7.5700759 8.5607179,7.748881 v 0.1307415 c 0,0.2367963 0.04375,0.4372063 0.130742,0.6015138 0.09182,0.1594747 0.214844,0.2950274 0.3694857,0.4061767 0.154643,0.1063165 0.338238,0.1957121 0.5508707,0.2682008 0.212633,0.067656 0.4423847,0.127709 0.6888467,0.1808673 0.212633,0.043493 0.391425,0.094455 0.536401,0.1524455 0.144977,0.053159 0.263198,0.1137282 0.355017,0.1813843 0.09182,0.067657 0.157193,0.1445245 0.195854,0.2315105 0.03866,0.08699 0.05788,0.1889086 0.05788,0.3048906 v 0.115755 c 0,0.207801 -0.0942,0.386592 -0.282671,0.536402 -0.183638,0.14981 -0.461432,0.224792 -0.83354,0.224792 -0.111149,0 -0.234174,-0.01441 -0.3694867,-0.04341 -0.130479,-0.029 -0.261228,-0.06795 -0.391707,-0.116272 -0.1304797,-0.05316 -0.2583087,-0.113212 -0.3839557,-0.180868 -0.125647,-0.06766 -0.237178,-0.137834 -0.3338297,-0.210323 l -0.362252,0.587045 c 0.217466,0.173972 0.4808477,0.319133 0.7901327,0.435115 0.3141167,0.120814 0.6572857,0.180868 1.0293934,0.180868 0.265792,0 0.51236,-0.03123 0.73949,-0.09405 0.231964,-0.05799 0.429972,-0.147386 0.594279,-0.2682 0.164308,-0.125647 0.292137,-0.278015 0.383956,-0.45682 0.09665,-0.178805 0.145211,-0.388824 0.145211,-0.630452 v -0.130742 c 0,-0.1788046 -0.02882,-0.3426666 -0.08682,-0.4924759 C 12.030859,9.5131664 11.939061,9.3776137 11.808581,9.2567994 11.678101,9.1359851 11.504114,9.0297748 11.286649,8.9379559 11.074016,8.8413044 10.80583,8.7567131 10.482047,8.6842247 10.288744,8.6407317 10.11716,8.5969765 9.9673503,8.5534832 9.8175403,8.5051573 9.6915963,8.4499084 9.5901123,8.3870852 9.4886283,8.3242617 9.4112436,8.2516812 9.3580856,8.1695273 9.3049266,8.082541 9.2785036,7.9787328 9.2785036,7.8579185 v -0.116272 c 0,-0.2078008 0.0966,-0.3841895 0.2899047,-0.5291666 0.198135,-0.1449774 0.4615167,-0.2175579 0.7901327,-0.2175579 0.241628,0 0.461772,0.029343 0.659907,0.087333 0.198136,0.057991 0.393741,0.1521907 0.587045,0.2826703 L 11.946041,6.8068196 C 11.723742,6.6570099 11.481979,6.5430763 11.22102,6.4657553 10.960061,6.388434 10.670256,6.3500001 10.351306,6.3500001 Z m -3.5806597,0.079582 v 3.6390539 c 0,0.362443 -0.062972,0.621021 -0.1886191,0.775663 -0.1208143,0.14981 -0.3164202,0.224793 -0.5870443,0.224793 -0.1691399,0 -0.3215076,-0.02402 -0.4568195,-0.07235 C 5.4028512,10.948422 5.25769,10.863828 5.1030476,10.743013 L 4.7625,11.308353 c 0.1691402,0.14981 0.3647459,0.258422 0.5870443,0.326079 0.227131,0.06766 0.4352642,0.101286 0.6237346,0.101286 0.2174658,0 0.4178758,-0.02402 0.6015135,-0.07235 0.1836378,-0.04833 0.3432117,-0.130515 0.4785239,-0.246497 0.1353121,-0.120814 0.2415225,-0.277986 0.3188436,-0.471289 0.077321,-0.193303 0.1157552,-0.434549 0.1157552,-0.724504 V 6.4295817 Z" />
  <path
     id="path7436-3"
     style="font-weight:bold;font-size:7.24886px;line-height:1.25;font-family:'나눔스퀘어';-inkscape-font-specification:'나눔스퀘어 Bold';opacity:0.2;fill:#000000;fill-opacity:1;stroke-width:0.181221"
     d="m 10.358541,6.994922 c -0.328617,0 -0.5919977,0.072581 -0.7901327,0.2175579 C 9.3751036,7.357457 9.2785036,7.5338457 9.2785036,7.7416465 v 0.116272 c 0,0.026563 0.0016,0.052077 0.0041,0.076998 0.01988,-0.1771423 0.114974,-0.3297563 0.2857707,-0.457853 0.198135,-0.1449774 0.4615167,-0.2175579 0.7901327,-0.2175579 0.241628,0 0.461772,0.029343 0.659908,0.087333 0.198135,0.057991 0.393741,0.1521904 0.587044,0.2826702 l 0.340548,-0.5581057 c -0.03824,-0.025773 -0.07739,-0.049734 -0.116789,-0.07338 L 11.605494,7.3649254 C 11.41219,7.2344456 11.216583,7.1402462 11.018448,7.0822551 10.820313,7.0242651 10.600168,6.9949221 10.358541,6.994922 Z M 8.5622689,7.9468018 c -0.0011,0.022125 -0.0016,0.044312 -0.0016,0.066663 v 0.1307415 c 0,0.2367962 0.04376,0.4372059 0.130741,0.6015138 0.09182,0.1594747 0.214844,0.2950273 0.3694857,0.4061767 0.154643,0.1063164 0.338238,0.1957123 0.5508707,0.2682007 0.212633,0.06766 0.4423857,0.1277083 0.6888467,0.1808673 0.212633,0.04349 0.391425,0.094451 0.536401,0.1524456 0.144978,0.05316 0.263198,0.113728 0.355017,0.181384 0.09182,0.06766 0.157193,0.1445236 0.195854,0.2315096 0.029,0.06524 0.04704,0.138986 0.05426,0.220659 0.0021,-0.02124 0.0036,-0.04271 0.0036,-0.0646 v -0.115755 c 0,-0.115982 -0.01922,-0.2179006 -0.05788,-0.3048906 -0.03866,-0.08699 -0.104034,-0.16385 -0.195854,-0.2315101 C 11.100251,9.6025548 10.982031,9.5419867 10.837053,9.4888266 10.692077,9.4308318 10.513284,9.3798712 10.300652,9.3363811 10.05419,9.2832221 9.8244383,9.2231735 9.6118053,9.1555138 9.3991726,9.0830253 9.2155766,8.9936295 9.0609346,8.887313 8.9062919,8.7761637 8.7832679,8.640611 8.6914479,8.4811363 8.6128219,8.3326273 8.5698569,8.1545074 8.5622569,7.9468018 Z M 7.4879151,10.221081 c 0,0.289955 -0.038434,0.531201 -0.1157552,0.724504 -0.077321,0.193303 -0.1835315,0.350475 -0.3188436,0.471289 -0.1353122,0.115982 -0.2948861,0.198167 -0.4785239,0.246497 -0.1836377,0.04833 -0.3840477,0.07235 -0.6015135,0.07235 -0.1884704,0 -0.3966036,-0.03363 -0.6237346,-0.101286 C 5.1727815,11.580635 5.0131097,11.500367 4.869987,11.394656 L 4.7625,11.57294 c 0.1691402,0.14981 0.3647459,0.258421 0.5870443,0.326078 0.227131,0.06766 0.4352642,0.101286 0.6237346,0.101286 0.2174658,0 0.4178758,-0.02402 0.6015135,-0.07235 0.1836378,-0.04833 0.3432117,-0.130515 0.4785239,-0.246497 0.1353121,-0.120814 0.2415225,-0.277986 0.3188436,-0.471289 0.077321,-0.193303 0.1157552,-0.434548 0.1157552,-0.724503 z m 4.6813679,0.132809 c -0.0084,0.213182 -0.05621,0.400974 -0.143661,0.562756 -0.09182,0.178805 -0.219648,0.331173 -0.383956,0.45682 -0.164307,0.120814 -0.362314,0.21021 -0.594279,0.2682 -0.22713,0.06282 -0.473698,0.09405 -0.73949,0.09405 -0.3721077,0 -0.7152767,-0.06005 -1.0293934,-0.180868 -0.258288,-0.09686 -0.4842577,-0.214056 -0.6785117,-0.3514 l -0.111621,0.180868 c 0.217466,0.173972 0.4808477,0.319133 0.7901327,0.435115 0.3141167,0.120814 0.6572857,0.180868 1.0293934,0.180868 0.265792,0 0.51236,-0.03123 0.73949,-0.09405 0.231965,-0.05799 0.429972,-0.147387 0.594279,-0.268201 0.164308,-0.125647 0.292137,-0.278015 0.383956,-0.456819 0.09665,-0.178806 0.145211,-0.388825 0.145211,-0.630453 v -0.130742 c 0,-0.02235 -6.62e-4,-0.04426 -0.0016,-0.06615 z" />
  <path
     d="m 5.6485647,13.510124 0.3117258,0.942779 h 0.012282 L 6.283713,13.510124 H 6.522332 L 6.1000696,14.707898 H 5.8322081 L 5.4105305,13.510124 Z m -1.6662397,0 h 0.2152253 v 0.842185 c -3.969e-4,0.0772 -0.016767,0.143678 -0.049127,0.199434 -0.032362,0.05537 -0.077591,0.09806 -0.1356855,0.128082 -0.057705,0.02963 -0.1249632,0.04445 -0.2017736,0.04445 -0.070182,0 -0.1333461,-0.01248 -0.1894917,-0.03743 -0.055756,-0.02535 -0.1000096,-0.06278 -0.1327611,-0.112292 -0.032751,-0.04952 -0.049127,-0.111124 -0.049127,-0.184813 h 0.2158101 c 3.968e-4,0.03236 0.00741,0.06024 0.021056,0.08363 0.014036,0.0234 0.033337,0.04133 0.0579,0.05381 0.024564,0.01248 0.052832,0.01872 0.084803,0.01872 0.034701,0 0.064139,-0.0072 0.088313,-0.02164 0.024175,-0.01481 0.042499,-0.03665 0.054976,-0.0655 0.012867,-0.02885 0.019494,-0.06433 0.019886,-0.106443 z m 7.312975,0 v 1.197774 H 11.078321 V 13.510124 Z M 6.6936938,14.707898 H 6.4620929 L 6.8837702,13.510124 H 7.151632 l 0.4222623,1.197774 H 7.3422934 L 7.0223798,13.755761 h -0.00936 z m 0.0076,-0.469635 h 0.631639 v 0.174285 H 6.7012958 Z M 4.5870596,14.707898 H 4.3554597 L 4.777137,13.510124 h 0.2678618 l 0.4222623,1.197774 H 5.2356602 L 4.9157467,13.755761 h -0.00936 z m 0.0076,-0.469635 h 0.6316378 v 0.174285 H 4.5946637 Z m 7.9434474,-0.546251 v -0.181888 h 0.955648 v 0.181888 h -0.370212 v 1.015886 h -0.215225 v -1.015886 z m -4.1740785,0.147383 c -0.00546,-0.05108 -0.028464,-0.09085 -0.069012,-0.11931 -0.04016,-0.02846 -0.092407,-0.04269 -0.1567399,-0.04269 -0.045229,0 -0.084024,0.0068 -0.1163855,0.02047 -0.032362,0.01365 -0.057121,0.03217 -0.074276,0.05556 -0.017156,0.02339 -0.025929,0.0501 -0.026318,0.08012 0,0.02495 0.00565,0.04659 0.016962,0.06492 0.011697,0.01833 0.027488,0.03392 0.047373,0.04679 0.019883,0.01248 0.041914,0.02301 0.066088,0.03158 0.024175,0.0086 0.048543,0.01579 0.073106,0.02164 l 0.1122915,0.02807 c 0.045229,0.01053 0.088702,0.02476 0.1304216,0.04269 0.042109,0.01793 0.079735,0.04055 0.1128763,0.06784 0.033531,0.02729 0.060045,0.06024 0.07954,0.09884 0.019494,0.0386 0.029243,0.08383 0.029243,0.135685 0,0.07018 -0.017936,0.131982 -0.053806,0.185399 -0.035871,0.05303 -0.087728,0.09455 -0.1555705,0.124573 -0.067453,0.02963 -0.1491369,0.04445 -0.2450524,0.04445 -0.093186,0 -0.1740908,-0.01443 -0.2427131,-0.04328 -0.068232,-0.02885 -0.1216488,-0.07096 -0.1602488,-0.126329 -0.03821,-0.05537 -0.058875,-0.122819 -0.061994,-0.202359 h 0.2134706 c 0.00312,0.04172 0.015986,0.07642 0.0386,0.104104 0.022614,0.02768 0.052052,0.04834 0.088313,0.06199 0.036651,0.01365 0.07759,0.02047 0.1228188,0.02047 0.047178,0 0.088507,-0.007 0.1239883,-0.02105 0.035871,-0.01443 0.063944,-0.03431 0.084219,-0.05966 0.020275,-0.02573 0.030607,-0.05576 0.030997,-0.09007 -3.969e-4,-0.03119 -0.00955,-0.05693 -0.027488,-0.0772 -0.017936,-0.02067 -0.043084,-0.03782 -0.075446,-0.05147 -0.031972,-0.01403 -0.069402,-0.02651 -0.1122913,-0.03743 L 8.0207224,14.168668 C 7.9220774,14.143328 7.8440974,14.104918 7.786782,14.053452 7.729857,14.001592 7.701394,13.932775 7.701394,13.847 c 0,-0.07057 0.019106,-0.132371 0.057315,-0.185398 0.0386,-0.05303 0.091042,-0.09416 0.1573249,-0.123404 0.066283,-0.02963 0.1413391,-0.04445 0.2251675,-0.04445 0.084998,0 0.1594694,0.01482 0.2234129,0.04445 0.064333,0.02924 0.1148254,0.06998 0.1514766,0.122234 0.036651,0.05186 0.055561,0.111515 0.056731,0.178965 z m 3.1669675,0.868503 v -1.197774 h 0.449166 c 0.09202,0 0.169217,0.01716 0.231601,0.05147 0.06277,0.03431 0.110146,0.08149 0.142118,0.141534 0.03236,0.05965 0.04854,0.127496 0.04854,0.203528 0,0.07681 -0.01618,0.145043 -0.04854,0.204698 -0.03236,0.05965 -0.08012,0.106637 -0.143288,0.140949 -0.06317,0.03392 -0.140952,0.05088 -0.233355,0.05088 h -0.29769 v -0.178379 h 0.268447 c 0.05381,0 0.09786,-0.0094 0.132176,-0.02807 0.03431,-0.01871 0.05966,-0.04445 0.07603,-0.0772 0.01677,-0.03275 0.02515,-0.07038 0.02515,-0.112877 0,-0.0425 -0.0084,-0.07993 -0.02515,-0.112291 -0.01637,-0.03236 -0.04191,-0.05751 -0.07662,-0.07545 -0.03431,-0.01833 -0.07857,-0.02749 -0.132761,-0.02749 h -0.198849 v 1.016471 z M 9.8074391,13.914256 H 9.5887049 c -0.00624,-0.03587 -0.017743,-0.06765 -0.034506,-0.09533 -0.016767,-0.02807 -0.037626,-0.05186 -0.062579,-0.07135 -0.024953,-0.01949 -0.053416,-0.03411 -0.085388,-0.04386 -0.031582,-0.01014 -0.065698,-0.01521 -0.1023488,-0.01521 -0.065113,0 -0.1228185,0.01638 -0.1731158,0.04913 -0.050297,0.03236 -0.089677,0.07993 -0.1181399,0.142703 -0.028463,0.06239 -0.042694,0.138613 -0.042694,0.228677 0,0.09163 0.014232,0.168828 0.042694,0.231602 0.028853,0.06239 0.068233,0.109564 0.1181399,0.141533 0.050297,0.03158 0.1078076,0.04737 0.1725311,0.04737 0.035871,0 0.069402,-0.0047 0.1005943,-0.01404 0.031582,-0.0098 0.05985,-0.02398 0.084803,-0.04269 0.025345,-0.01871 0.046593,-0.04172 0.063749,-0.06901 0.017545,-0.02729 0.029632,-0.05849 0.036261,-0.09358 l 0.2187342,0.0012 c -0.00819,0.05693 -0.025929,0.110343 -0.053221,0.160249 -0.026903,0.04991 -0.062189,0.09397 -0.105858,0.132177 -0.043669,0.03782 -0.094746,0.06745 -0.153231,0.0889 -0.058485,0.02105 -0.1234038,0.03158 -0.1947553,0.03158 -0.1052732,0 -0.1992392,-0.02437 -0.2818982,-0.07311 -0.082659,-0.04874 -0.1477724,-0.119117 -0.1953403,-0.211132 -0.047568,-0.09202 -0.071352,-0.202357 -0.071352,-0.331025 0,-0.129057 0.023979,-0.239399 0.071937,-0.331026 0.047958,-0.09202 0.1132663,-0.162393 0.1959251,-0.211131 0.082659,-0.04874 0.176235,-0.07311 0.2807284,-0.07311 0.066673,0 0.1286672,0.0094 0.1859825,0.02807 0.057315,0.01871 0.1083924,0.0462 0.1532311,0.08246 0.044838,0.03587 0.081684,0.07993 0.1105366,0.132176 0.029243,0.05186 0.048348,0.111125 0.057315,0.177795 z m 0.1994349,0.793642 v -1.197774 h 0.449166 c 0.09202,0 0.169216,0.01599 0.2316,0.04796 0.06277,0.03197 0.110146,0.07681 0.142119,0.134516 0.03236,0.05731 0.04854,0.124181 0.04854,0.200604 0,0.07681 -0.01638,0.143484 -0.04913,0.200019 -0.03236,0.05615 -0.08012,0.09962 -0.143288,0.130422 -0.06317,0.03041 -0.140757,0.04562 -0.232771,0.04562 h -0.319913 v -0.180134 h 0.290671 c 0.05381,0 0.09786,-0.0074 0.132176,-0.02222 0.03431,-0.0152 0.05966,-0.03724 0.07603,-0.06609 0.01677,-0.02924 0.02515,-0.06511 0.02515,-0.107611 0,-0.0425 -0.0084,-0.07876 -0.02515,-0.108783 -0.01677,-0.03041 -0.04231,-0.05342 -0.07662,-0.06901 -0.03431,-0.01599 -0.07857,-0.02398 -0.132761,-0.02398 h -0.198849 v 1.016471 z m 0.618772,-0.542741 0.29652,0.542741 h -0.242129 l -0.291255,-0.542741 z"
     style="font-weight:600;font-family:Inter;-inkscape-font-specification:'Inter Semi-Bold';stroke-width:0.264583;fill:#808080;fill-opacity:1"
     id="path12978" />
  <path
     id="path9791"
     style="opacity:0.2;fill:#ffffff;fill-opacity:1;stroke-width:0.140009;stroke-linejoin:round"
     d="m 3.175,0.5291668 c -0.2931583,0 -0.5291667,0.2360083 -0.5291667,0.5291667 V 1.3229168 C 2.6458334,1.0297584 2.8818417,0.7937501 3.175,0.7937501 h 7.14375 c 0,0 1e-6,-0.2645833 0,-0.2645833 z"
     sodipodi:nodetypes="sscsccs" />
  <path
     id="rect9905"
     style="opacity:0.2;fill:#000000;fill-opacity:1;stroke-width:2;stroke-linejoin:round"
     d="M 10 59 L 10 60 C 10 61.108 10.892 62 12 62 L 52 62 C 53.108 62 54 61.108 54 60 L 54 59 C 54 60.108 53.108 61 52 61 L 12 61 C 10.892 61 10 60.108 10 59 z "
     transform="scale(0.26458334)" />
  <path
     id="rect5598"
     style="opacity:0.1;fill:#000000;fill-opacity:1;stroke-width:0.529167;stroke-linejoin:round"
     d="M 10.444901,4.3115072 10.31875,3.4395834 14.2875,4.4979167 v 3.7041668 z"
     sodipodi:nodetypes="ccccc" />
  <path
     id="rect2607"
     style="fill:#f1f1f1;fill-opacity:1;stroke-width:0.529167;stroke-linejoin:round"
     d="m 14.2875,4.4979167 -3.439583,-1e-7 c -0.293158,0 -0.529166,-0.2360083 -0.529166,-0.5291667 V 0.52916673 Z"
     sodipodi:nodetypes="csscc" />
</svg>
