<?xml version="1.0" encoding="UTF-8" standalone="no"?>
<!-- Created with Inkscape (http://www.inkscape.org/) -->

<svg
   width="64"
   height="64"
   viewBox="0 0 16.933333 16.933334"
   version="1.1"
   id="svg5"
   inkscape:version="1.1.2 (0a00cf5339, 2022-02-04, custom)"
   sodipodi:docname="text-x-ruby.svg"
   xmlns:inkscape="http://www.inkscape.org/namespaces/inkscape"
   xmlns:sodipodi="http://sodipodi.sourceforge.net/DTD/sodipodi-0.dtd"
   xmlns="http://www.w3.org/2000/svg"
   xmlns:svg="http://www.w3.org/2000/svg">
  <sodipodi:namedview
     id="namedview7"
     pagecolor="#ffffff"
     bordercolor="#666666"
     borderopacity="1.0"
     inkscape:pageshadow="2"
     inkscape:pageopacity="0.0"
     inkscape:pagecheckerboard="0"
     inkscape:document-units="px"
     showgrid="false"
     units="px"
     height="64px"
     inkscape:zoom="12.40625"
     inkscape:cx="31.959698"
     inkscape:cy="32"
     inkscape:window-width="1920"
     inkscape:window-height="1017"
     inkscape:window-x="0"
     inkscape:window-y="32"
     inkscape:window-maximized="1"
     inkscape:current-layer="svg5" />
  <defs
     id="defs2" />
  <path
     id="rect1068"
     style="fill:#e5e5e5;fill-opacity:1;stroke-width:0.529167;stroke-linejoin:round"
     d="m 3.175,0.5291667 7.143751,3e-8 3.968749,3.96874997 1e-6,11.3770833 c 0,0.293158 -0.236009,0.529167 -0.529167,0.529167 H 3.175 c -0.2931584,0 -0.5291667,-0.236009 -0.5291667,-0.529167 V 1.0583334 c 0,-0.29315835 0.2360083,-0.5291667 0.5291667,-0.5291667 z"
     sodipodi:nodetypes="cccsssssc" />
  <path
     id="rect8140"
     style="opacity:0.75;fill:#ffffff;fill-opacity:1;stroke-width:0.518136;stroke-linejoin:round"
     d="m 3.175,0.5291668 h 7.143751 l -1e-6,2.9104166 0.79375,1.0583333 3.175,0 V 15.875 c 0,0.295111 -0.236009,0.529167 -0.529167,0.529167 H 3.175 c -0.293159,0 -0.529167,-0.236009 -0.529167,-0.529167 V 1.0583337 c 0,-0.2931589 0.236008,-0.5291669 0.529167,-0.5291669 z"
     sodipodi:nodetypes="sccccssssss" />
  <path
     id="rect74153-4"
     style="fill:#f77373;fill-opacity:1;stroke-width:0.529167;stroke-linejoin:round"
     d="M 5.5562502,6.0854167 4.7625001,7.6729168 h 2.1166668 z m 0.2645833,0 1.190625,1.3229167 1.1906251,-1.3229167 z m 2.6458334,0 -1.3229167,1.5875001 h 2.6458334 z m 0.2645833,0 L 9.9218753,7.4083334 11.1125,6.0854167 Z m 2.6458338,0 -1.322917,1.5875001 h 2.116667 z M 4.7625001,7.9375001 8.2020836,11.641667 6.8791669,7.9375001 Z m 2.3812501,0 1.3229167,3.9687499 1.3229167,-3.9687499 z m 2.9104168,0 -1.3229168,3.7041669 3.4395838,-3.7041669 z" />
  <path
     id="rect74153-4-7-7"
     style="opacity:0.2;fill:#000000;fill-opacity:1;stroke-width:0.529167;stroke-linejoin:round"
     d="M 5.8208335,6.3500001 7.0114585,7.6729168 8.2020836,6.3500001 H 7.9638551 L 7.0114585,7.4083334 6.059062,6.3500001 Z m 2.9104167,0 L 9.9218753,7.6729168 11.1125,6.3500001 H 10.874272 L 9.9218753,7.4083334 8.9694787,6.3500001 Z M 4.8947918,7.6729168 4.7625001,7.9375001 H 6.8791669 L 6.6585086,7.6729168 Z m 2.4696167,0 -0.2206583,0.2645833 H 9.7895836 L 9.5689253,7.6729168 Z m 2.9104165,0 -0.220658,0.2645833 h 2.116667 L 12.038542,7.6729168 Z M 4.7625001,8.2020834 8.2020836,11.90625 8.0486046,11.476302 5.0079631,8.2020834 Z m 2.3812501,0 1.3229167,3.9687496 1.3229167,-3.9687496 H 9.701217 L 8.4666669,11.90625 7.2321168,8.2020834 Z m 4.7816208,0 -3.0406418,3.2742186 -0.153479,0.429948 3.4395838,-3.7041666 z" />
  <path
     d="M 8.6035034,14.816749 V 13.493753 H 9.109963 c 0.095607,0 0.1750642,0.01507 0.2383718,0.04522 0.063738,0.02971 0.1113261,0.07041 0.1427647,0.122093 0.031869,0.05168 0.047804,0.110251 0.047804,0.175711 0,0.05383 -0.010337,0.09991 -0.031008,0.138242 -0.020672,0.0379 -0.04845,0.06869 -0.083333,0.09238 -0.034883,0.02369 -0.073858,0.0407 -0.1169249,0.05103 v 0.01292 c 0.046942,0.0026 0.091946,0.01703 0.1350129,0.04328 0.043497,0.02584 0.079027,0.06245 0.106589,0.109819 0.027563,0.04737 0.041344,0.104652 0.041344,0.171835 0,0.06848 -0.016582,0.13006 -0.049742,0.184754 -0.033161,0.05427 -0.083118,0.09712 -0.1498708,0.128553 -0.066753,0.03144 -0.1507321,0.04716 -0.2519379,0.04716 z m 0.2396638,-0.200258 h 0.2577515 c 0.086994,0 0.1496555,-0.01658 0.1879846,-0.04974 0.03876,-0.03359 0.05814,-0.07666 0.05814,-0.129199 0,-0.03919 -0.00969,-0.07451 -0.02907,-0.105943 -0.019381,-0.03187 -0.046942,-0.05685 -0.082687,-0.07494 -0.035745,-0.01852 -0.078381,-0.02778 -0.127907,-0.02778 H 8.8431672 Z m 0,-0.560077 h 0.2370799 c 0.041344,0 0.078596,-0.0075 0.1117568,-0.02261 0.033162,-0.01551 0.059216,-0.03725 0.078165,-0.06524 0.019381,-0.02843 0.02907,-0.06202 0.02907,-0.100775 0,-0.05125 -0.018087,-0.09345 -0.054264,-0.126615 -0.035744,-0.03316 -0.088931,-0.04974 -0.1595605,-0.04974 H 8.8431672 Z M 6.0854164,14.816749 V 13.493753 H 6.58154 c 0.1016363,0 0.1869075,0.01765 0.2558138,0.05297 0.069337,0.03531 0.1216623,0.08484 0.1569765,0.148578 0.035745,0.06331 0.053618,0.137166 0.053618,0.221577 0,0.08484 -0.018087,0.158484 -0.054264,0.22093 -0.035745,0.06201 -0.088502,0.110032 -0.1582688,0.144056 -0.069768,0.03359 -0.1554691,0.05039 -0.2571056,0.05039 H 6.224951 v -0.198967 h 0.3210592 c 0.059431,0 0.1080963,-0.0082 0.1459947,-0.02455 0.037898,-0.01679 0.065891,-0.04113 0.083979,-0.073 0.018518,-0.0323 0.027778,-0.07192 0.027778,-0.118863 0,-0.04694 -0.00926,-0.08699 -0.027778,-0.120154 -0.018518,-0.03359 -0.046727,-0.059 -0.084625,-0.07623 C 6.6534609,13.70283 6.6045809,13.694 6.5447181,13.694 h -0.219638 v 1.122739 z m 0.6834619,-0.599483 0.3275192,0.599483 H 6.8289559 L 6.5072506,14.217266 Z m 1.3339781,-0.723513 h 0.2396638 v 0.86434 c 0,0.09475 -0.022394,0.178079 -0.067183,0.25 -0.044358,0.07192 -0.1068041,0.128122 -0.1873385,0.168605 -0.080534,0.04005 -0.1746337,0.06008 -0.2822993,0.06008 -0.1080966,0 -0.2024115,-0.02003 -0.2829457,-0.06008 -0.080534,-0.04048 -0.14298,-0.09668 -0.1873382,-0.168605 -0.044358,-0.07192 -0.066537,-0.155254 -0.066537,-0.25 v -0.86434 h 0.2396639 v 0.844315 c 0,0.05513 0.01206,0.104222 0.036176,0.147285 0.024548,0.04307 0.059001,0.07688 0.1033589,0.101422 0.044358,0.02412 0.096899,0.03618 0.1576226,0.03618 0.060723,0 0.1132645,-0.01206 0.1576227,-0.03618 0.044789,-0.02454 0.079242,-0.05835 0.1033592,-0.101422 0.024117,-0.04307 0.036176,-0.09216 0.036176,-0.147285 z m 1.6059446,0 h 0.2706717 l 0.3236433,0.585271 h 0.01292 l 0.323642,-0.585271 h 0.270672 l -0.481266,0.829456 v 0.49354 h -0.239018 v -0.49354 z"
     style="font-weight:600;font-family:Inter;-inkscape-font-specification:'Inter Semi-Bold';stroke-width:0.264583;fill:#808080;fill-opacity:1"
     id="path54995" />
  <path
     id="path9791"
     style="opacity:0.2;fill:#ffffff;fill-opacity:1;stroke-width:0.140009;stroke-linejoin:round"
     d="m 3.175,0.5291668 c -0.2931583,0 -0.5291667,0.2360083 -0.5291667,0.5291667 V 1.3229168 C 2.6458334,1.0297584 2.8818417,0.7937501 3.175,0.7937501 h 7.14375 c 0,0 1e-6,-0.2645833 0,-0.2645833 z"
     sodipodi:nodetypes="sscsccs" />
  <path
     id="rect9905"
     style="opacity:0.2;fill:#000000;fill-opacity:1;stroke-width:2;stroke-linejoin:round"
     d="M 10 59 L 10 60 C 10 61.108 10.892 62 12 62 L 52 62 C 53.108 62 54 61.108 54 60 L 54 59 C 54 60.108 53.108 61 52 61 L 12 61 C 10.892 61 10 60.108 10 59 z "
     transform="scale(0.26458334)" />
  <path
     id="rect5598"
     style="opacity:0.1;fill:#000000;fill-opacity:1;stroke-width:0.529167;stroke-linejoin:round"
     d="M 10.444901,4.3115072 10.31875,3.4395834 14.2875,4.4979167 v 3.7041668 z"
     sodipodi:nodetypes="ccccc" />
  <path
     id="rect2607"
     style="fill:#f1f1f1;fill-opacity:1;stroke-width:0.529167;stroke-linejoin:round"
     d="m 14.2875,4.4979167 -3.439583,-1e-7 c -0.293158,0 -0.529166,-0.2360083 -0.529166,-0.5291667 V 0.52916673 Z"
     sodipodi:nodetypes="csscc" />
</svg>
