<?xml version="1.0" encoding="UTF-8" standalone="no"?>
<!-- Created with Inkscape (http://www.inkscape.org/) -->

<svg
   width="64"
   height="64"
   viewBox="0 0 16.933333 16.933334"
   version="1.1"
   id="svg5"
   inkscape:version="1.1.2 (0a00cf5339, 2022-02-04, custom)"
   sodipodi:docname="text-x-c.svg"
   xmlns:inkscape="http://www.inkscape.org/namespaces/inkscape"
   xmlns:sodipodi="http://sodipodi.sourceforge.net/DTD/sodipodi-0.dtd"
   xmlns="http://www.w3.org/2000/svg"
   xmlns:svg="http://www.w3.org/2000/svg">
  <sodipodi:namedview
     id="namedview7"
     pagecolor="#ffffff"
     bordercolor="#666666"
     borderopacity="1.0"
     inkscape:pageshadow="2"
     inkscape:pageopacity="0.0"
     inkscape:pagecheckerboard="0"
     inkscape:document-units="px"
     showgrid="false"
     units="px"
     height="64px"
     inkscape:zoom="8"
     inkscape:cx="14.6875"
     inkscape:cy="29.125"
     inkscape:window-width="1920"
     inkscape:window-height="1017"
     inkscape:window-x="0"
     inkscape:window-y="32"
     inkscape:window-maximized="1"
     inkscape:current-layer="svg5" />
  <defs
     id="defs2" />
  <path
     id="rect1068"
     style="fill:#e5e5e5;fill-opacity:1;stroke-width:0.529167;stroke-linejoin:round"
     d="m 3.175,0.5291667 7.143751,3e-8 3.968749,3.96874997 1e-6,11.3770833 c 0,0.293158 -0.236009,0.529167 -0.529167,0.529167 H 3.175 c -0.2931584,0 -0.5291667,-0.236009 -0.5291667,-0.529167 V 1.0583334 c 0,-0.29315835 0.2360083,-0.5291667 0.5291667,-0.5291667 z"
     sodipodi:nodetypes="cccsssssc" />
  <path
     id="rect8140"
     style="opacity:0.75;fill:#ffffff;fill-opacity:1;stroke-width:0.518136;stroke-linejoin:round"
     d="m 3.175,0.5291668 h 7.143751 l -1e-6,2.9104166 0.79375,1.0583333 3.175,0 V 15.875 c 0,0.295111 -0.236009,0.529167 -0.529167,0.529167 H 3.175 c -0.293159,0 -0.529167,-0.236009 -0.529167,-0.529167 V 1.0583337 c 0,-0.2931589 0.236008,-0.5291669 0.529167,-0.5291669 z"
     sodipodi:nodetypes="sccccssssss" />
  <path
     d="m 8.5271286,13.49375 c -0.1123392,0 -0.2129251,0.02615 -0.3017904,0.07855 -0.088865,0.0524 -0.1587646,0.127934 -0.2103231,0.22686 -0.051559,0.09851 -0.077515,0.217303 -0.077515,0.35605 0,0.138328 0.025342,0.257125 0.076481,0.356051 0.05114,0.09892 0.1214577,0.17446 0.2103231,0.226859 0.088865,0.05239 0.1896464,0.07855 0.3028241,0.07855 0.076709,0 0.1464127,-0.01147 0.2092893,-0.03411 0.062876,-0.02305 0.1179,-0.05494 0.1648479,-0.0956 0.046948,-0.04108 0.084765,-0.08846 0.1136883,-0.14211 0.029343,-0.05365 0.048558,-0.110882 0.057361,-0.172082 l -0.2351275,-0.001 c -0.00712,0.03773 -0.019894,0.07091 -0.038758,0.100252 -0.018444,0.02934 -0.041483,0.05429 -0.068729,0.07441 -0.026827,0.02012 -0.056997,0.03551 -0.09095,0.04599 -0.033534,0.01006 -0.069957,0.01499 -0.1085207,0.01499 -0.069583,0 -0.1314443,-0.01721 -0.1855185,-0.05116 -0.053654,-0.03437 -0.095588,-0.08486 -0.1266071,-0.151928 -0.0306,-0.06749 -0.045992,-0.150574 -0.045992,-0.249081 0,-0.09683 0.015391,-0.178911 0.045992,-0.24598 0.0306,-0.06748 0.072533,-0.118685 0.1266071,-0.153479 0.054074,-0.03521 0.1165498,-0.05271 0.1865522,-0.05271 0.039402,0 0.076117,0.0056 0.1100706,0.01654 0.034373,0.01048 0.06464,0.02607 0.091467,0.04702 0.026827,0.02096 0.049155,0.0463 0.06718,0.07648 0.018023,0.02976 0.0305,0.06427 0.037207,0.102837 H 9.072315 c -0.00964,-0.07168 -0.030057,-0.13545 -0.061495,-0.191203 -0.031019,-0.05617 -0.070651,-0.103544 -0.1188559,-0.14211 -0.048205,-0.03899 -0.1032293,-0.06876 -0.1648478,-0.08888 -0.061619,-0.02012 -0.1283087,-0.02997 -0.1999877,-0.02997 z"
     style="font-weight:600;font-size:1.7706px;line-height:1.25;font-family:Inter;-inkscape-font-specification:'Inter Semi-Bold';text-align:center;text-anchor:middle;fill:#808080;fill-opacity:1;stroke-width:0.0442648"
     id="path7609"
     sodipodi:nodetypes="cscsccsccccccccsccsccscccccccscc" />
  <path
     id="path9791"
     style="opacity:0.2;fill:#ffffff;fill-opacity:1;stroke-width:0.140009;stroke-linejoin:round"
     d="m 3.175,0.5291668 c -0.2931583,0 -0.5291667,0.2360083 -0.5291667,0.5291667 v 0.2645833 c 0,-0.2931584 0.2360084,-0.5291667 0.5291667,-0.5291667 h 7.14375 c 0,0 1e-6,-0.2645833 0,-0.2645833 z"
     sodipodi:nodetypes="sscsccs" />
  <path
     id="rect9905"
     style="opacity:0.2;fill:#000000;fill-opacity:1;stroke-width:2;stroke-linejoin:round"
     d="M 10 59 L 10 60 C 10 61.108 10.892 62 12 62 L 52 62 C 53.108 62 54 61.108 54 60 L 54 59 C 54 60.108 53.108 61 52 61 L 12 61 C 10.892 61 10 60.108 10 59 z "
     transform="scale(0.26458334)" />
  <path
     id="rect5598"
     style="opacity:0.1;fill:#000000;fill-opacity:1;stroke-width:0.529167;stroke-linejoin:round"
     d="M 10.444901,4.3115072 10.31875,3.4395834 14.2875,4.4979167 v 3.7041668 z"
     sodipodi:nodetypes="ccccc" />
  <path
     id="rect2607"
     style="fill:#f1f1f1;fill-opacity:1;stroke-width:0.529167;stroke-linejoin:round"
     d="m 14.2875,4.4979167 -3.439583,-1e-7 c -0.293158,0 -0.529166,-0.2360083 -0.529166,-0.5291667 V 0.52916673 Z"
     sodipodi:nodetypes="csscc" />
  <path
     d="m 10.09484,10.779376 q -0.345467,0.332671 -0.7549089,0.460622 -0.4094419,0.127951 -0.8764616,0.127951 -0.4158395,0 -0.7549086,-0.127951 Q 7.3694918,11.118445 7.1263857,10.862544 6.8832796,10.606642 6.7489314,10.229188 6.6145833,9.8517339 6.6145833,9.3399315 V 8.6426007 q 0,-0.5054049 0.1343481,-0.8828592 Q 6.8832796,7.3822873 7.1263857,7.1263861 7.3758894,6.8704849 7.7149585,6.7425343 8.0540276,6.6145837 8.4634695,6.6145837 q 0.4798147,0 0.8380764,0.121553 0.3582617,0.1151556 0.6845357,0.3710568 L 9.6598076,7.6253934 Q 9.3463286,7.3694922 9.0584398,7.2863243 8.7769485,7.2031564 8.4634695,7.2031564 q -0.2622987,0 -0.4862123,0.089565 Q 7.7597412,7.3822873 7.5934054,7.5678156 7.4334671,7.753344 7.3439017,8.0412329 7.2543363,8.3291217 7.2543363,8.7257686 v 0.530995 q 0,0.3966468 0.089565,0.6845357 0.089565,0.2878887 0.2495037,0.4734177 0.1663358,0.185528 0.3838518,0.275093 0.2239136,0.08957 0.4862123,0.08957 0.3326715,0 0.6653431,-0.102361 0.3326716,-0.10236 0.6205604,-0.383852 z"
     style="font-weight:bold;font-size:6.39753px;line-height:1.25;font-family:'나눔스퀘어';-inkscape-font-specification:'나눔스퀘어 Bold';stroke-width:0.159939;fill:#39b3f4;fill-opacity:1"
     id="path30815" />
  <path
     id="path30815-7"
     style="font-weight:bold;font-size:6.39753px;line-height:1.25;font-family:'나눔스퀘어';-inkscape-font-specification:'나눔스퀘어 Bold';opacity:0.2;fill:#000000;fill-opacity:1;stroke-width:0.604494"
     d="M 31.988281 27.224609 C 31.32737 27.224609 30.714581 27.336812 30.150391 27.5625 C 29.602319 27.788188 29.118333 28.136051 28.699219 28.603516 C 28.296225 29.070988 27.981537 29.667189 27.755859 30.392578 C 27.530171 31.117968 27.417969 31.979093 27.417969 32.978516 L 27.417969 33.978516 C 27.417969 32.979093 27.530171 32.117968 27.755859 31.392578 C 27.981537 30.667189 28.296225 30.070988 28.699219 29.603516 C 29.118333 29.136051 29.602319 28.788188 30.150391 28.5625 C 30.714581 28.336812 31.32737 28.224609 31.988281 28.224609 C 32.77815 28.224609 33.527059 28.3295 34.236328 28.539062 C 34.961718 28.74862 35.719897 29.175523 36.509766 29.820312 L 37.742188 27.861328 C 37.600386 27.750111 37.4567 27.645588 37.3125 27.544922 L 36.509766 28.820312 C 35.719897 28.175523 34.961718 27.74862 34.236328 27.539062 C 33.527059 27.3295 32.77815 27.224609 31.988281 27.224609 z M 25 35.300781 L 25 36.300781 C 25 37.590364 25.169298 38.711047 25.507812 39.662109 C 25.846327 40.613175 26.321043 41.409895 26.933594 42.054688 C 27.546144 42.699477 28.280419 43.176147 29.134766 43.482422 C 29.989115 43.804818 30.940498 43.964844 31.988281 43.964844 C 33.165025 43.964844 34.269116 43.804818 35.300781 43.482422 C 36.332446 43.160026 37.283828 42.578461 38.154297 41.740234 L 37.720703 41.130859 C 36.970524 41.761459 36.163747 42.212744 35.300781 42.482422 C 34.269116 42.804818 33.165025 42.964844 31.988281 42.964844 C 30.940498 42.964844 29.989115 42.804818 29.134766 42.482422 C 28.280419 42.176147 27.546144 41.699477 26.933594 41.054688 C 26.321043 40.409898 25.846327 39.613175 25.507812 38.662109 C 25.169298 37.711046 25 36.590364 25 35.300781 z "
     transform="scale(0.26458334)" />
</svg>
