<?xml version="1.0" encoding="UTF-8" standalone="no"?>
<!-- Created with Inkscape (http://www.inkscape.org/) -->

<svg
   width="64"
   height="64"
   viewBox="0 0 16.933333 16.933334"
   version="1.1"
   id="svg5"
   inkscape:version="1.1.2 (0a00cf5339, 2022-02-04, custom)"
   sodipodi:docname="text-x-typescript.svg"
   xmlns:inkscape="http://www.inkscape.org/namespaces/inkscape"
   xmlns:sodipodi="http://sodipodi.sourceforge.net/DTD/sodipodi-0.dtd"
   xmlns="http://www.w3.org/2000/svg"
   xmlns:svg="http://www.w3.org/2000/svg">
  <sodipodi:namedview
     id="namedview7"
     pagecolor="#ffffff"
     bordercolor="#666666"
     borderopacity="1.0"
     inkscape:pageshadow="2"
     inkscape:pageopacity="0.0"
     inkscape:pagecheckerboard="0"
     inkscape:document-units="px"
     showgrid="false"
     units="px"
     height="64px"
     inkscape:zoom="12.40625"
     inkscape:cx="31.959698"
     inkscape:cy="32"
     inkscape:window-width="1920"
     inkscape:window-height="1017"
     inkscape:window-x="0"
     inkscape:window-y="32"
     inkscape:window-maximized="1"
     inkscape:current-layer="svg5" />
  <defs
     id="defs2" />
  <path
     id="rect1068"
     style="fill:#e5e5e5;fill-opacity:1;stroke-width:0.529167;stroke-linejoin:round"
     d="m 3.175,0.5291667 7.143751,3e-8 3.968749,3.96874997 1e-6,11.3770833 c 0,0.293158 -0.236009,0.529167 -0.529167,0.529167 H 3.175 c -0.2931584,0 -0.5291667,-0.236009 -0.5291667,-0.529167 V 1.0583334 c 0,-0.29315835 0.2360083,-0.5291667 0.5291667,-0.5291667 z"
     sodipodi:nodetypes="cccsssssc" />
  <path
     id="rect8140"
     style="opacity:0.75;fill:#ffffff;fill-opacity:1;stroke-width:0.518136;stroke-linejoin:round"
     d="m 3.175,0.5291668 h 7.143751 l -1e-6,2.9104166 0.79375,1.0583333 3.175,0 V 15.875 c 0,0.295111 -0.236009,0.529167 -0.529167,0.529167 H 3.175 c -0.293159,0 -0.529167,-0.236009 -0.529167,-0.529167 V 1.0583337 c 0,-0.2931589 0.236008,-0.5291669 0.529167,-0.5291669 z"
     sodipodi:nodetypes="sccccssssss" />
  <path
     d="m 8.3152551,13.758325 c -0.07494,0.0017 -0.1425316,0.01605 -0.2025716,0.04289 -0.064042,0.02825 -0.1146334,0.06814 -0.1519285,0.119372 -0.036919,0.05123 -0.055294,0.110614 -0.055294,0.178801 0,0.08288 0.027681,0.149364 0.082682,0.199471 0.055378,0.04973 0.1305158,0.08713 0.2258261,0.111621 l 0.131775,0.03411 c 0.041439,0.01056 0.077629,0.0221 0.1085204,0.03566 0.031268,0.01319 0.055534,0.03016 0.072864,0.05013 0.01733,0.01959 0.025979,0.04427 0.026355,0.07441 -3.704e-4,0.03315 -0.010382,0.06195 -0.029972,0.08682 -0.01959,0.02449 -0.046474,0.04394 -0.081132,0.05788 -0.034282,0.01356 -0.074306,0.02015 -0.1198894,0.02015 -0.043699,0 -0.082927,-0.0064 -0.1183391,-0.01964 C 8.169116,14.73681 8.140218,14.7168 8.118368,14.69006 8.096519,14.66331 8.084174,14.63011 8.081161,14.589807 H 7.8749723 c 0.00301,0.07685 0.023027,0.141844 0.059944,0.195337 0.037296,0.05349 0.089104,0.09408 0.1550294,0.121957 0.066303,0.02788 0.1440577,0.04186 0.2340944,0.04186 0.092673,0 0.172022,-0.01426 0.2371947,-0.04289 0.06555,-0.02901 0.1152038,-0.06917 0.1498619,-0.120407 0.034659,-0.05161 0.052193,-0.111507 0.052193,-0.179317 0,-0.05011 -0.00959,-0.09345 -0.028422,-0.130741 -0.018835,-0.03729 -0.044082,-0.06923 -0.076481,-0.0956 -0.032021,-0.02637 -0.068351,-0.0483 -0.1090374,-0.06563 -0.040309,-0.01733 -0.082391,-0.03117 -0.1260904,-0.04134 l -0.1085207,-0.02687 c -0.023733,-0.0057 -0.04744,-0.0129 -0.070797,-0.02119 -0.023358,-0.0083 -0.044349,-0.01844 -0.063562,-0.03049 -0.019211,-0.01243 -0.03469,-0.02725 -0.045992,-0.04496 -0.010925,-0.0177 -0.016536,-0.03893 -0.016536,-0.06305 3.704e-4,-0.02901 0.00926,-0.0544 0.025839,-0.077 0.016576,-0.0226 0.040046,-0.04056 0.071313,-0.05374 0.031268,-0.01319 0.068956,-0.02015 0.1126546,-0.02015 0.062159,0 0.1126101,0.01384 0.151412,0.04134 0.03918,0.0275 0.061389,0.06588 0.066663,0.115238 h 0.2015386 c -0.00114,-0.06517 -0.019365,-0.122492 -0.054777,-0.172599 -0.035412,-0.05048 -0.084086,-0.09009 -0.1462447,-0.118339 -0.061782,-0.02863 -0.1338823,-0.04289 -0.2160074,-0.04289 -0.00506,0 -0.00999,-1.12e-4 -0.014986,0 z m 1.1162112,0 c -0.09341,0.0028 -0.177308,0.02665 -0.252181,0.0708 -0.07987,0.04709 -0.142799,0.114699 -0.189136,0.203605 -0.04634,0.08853 -0.06976,0.195183 -0.06976,0.319877 0,0.124318 0.02329,0.230971 0.06925,0.319877 0.04596,0.08891 0.108755,0.157036 0.18862,0.204122 0.07986,0.04709 0.17062,0.0708 0.272334,0.0708 0.06894,0 0.131595,-0.01014 0.188103,-0.03049 0.05651,-0.02072 0.105602,-0.04976 0.147794,-0.0863 0.04219,-0.03692 0.07633,-0.07942 0.102319,-0.127641 0.02637,-0.04822 0.04376,-0.09951 0.05168,-0.154512 l -0.211356,-10e-4 c -0.0064,0.0339 -0.01819,0.06354 -0.03514,0.08992 -0.01658,0.02637 -0.03701,0.0491 -0.0615,0.06718 -0.02411,0.01808 -0.05165,0.0314 -0.08217,0.04082 -0.03014,0.009 -0.06249,0.01395 -0.09715,0.01395 -0.06254,0 -0.117802,-0.01548 -0.166398,-0.04599 -0.04822,-0.03089 -0.08633,-0.07667 -0.114205,-0.136942 -0.0275,-0.06065 -0.04134,-0.13523 -0.04134,-0.223759 0,-0.08703 0.01384,-0.160385 0.04134,-0.220659 0.0275,-0.06065 0.06561,-0.106709 0.114205,-0.137976 0.0486,-0.03165 0.104002,-0.04754 0.166915,-0.04754 0.03541,0 0.0687,0.0052 0.09922,0.01499 0.03089,0.0094 0.05805,0.02354 0.08217,0.04237 0.02411,0.01883 0.04426,0.0416 0.06046,0.06873 0.0162,0.02675 0.02756,0.05732 0.03359,0.09198 h 0.211357 c -0.0087,-0.06442 -0.02704,-0.12146 -0.05529,-0.171566 -0.02788,-0.05048 -0.06365,-0.09298 -0.10697,-0.127641 -0.04332,-0.03504 -0.09242,-0.06202 -0.147795,-0.0801 -0.05538,-0.01808 -0.115414,-0.02687 -0.179834,-0.02687 -0.0063,0 -0.01289,-1.84e-4 -0.01912,-10e-7 z m -5.7272992,0.01602 v 0.1757 h 0.3576008 v 0.981335 h 0.2082562 v -0.981335 h 0.3576007 v -0.1757 z m 1.021643,0 0.421163,0.725537 V 14.93138 H 5.355746 V 14.499882 L 5.7769087,13.774345 H 5.5402307 L 5.257044,14.285942 H 5.245675 L 4.962488,13.774345 Z m 1.2004437,0 v 1.157035 h 0.2092894 v -0.39119 h 0.221692 c 0.089283,0 0.1642806,-0.01632 0.2253091,-0.04909 0.061029,-0.03315 0.1072248,-0.07827 0.138493,-0.135909 0.031268,-0.05764 0.047026,-0.123706 0.047026,-0.197921 0,-0.07346 -0.015759,-0.139247 -0.047026,-0.196887 -0.030891,-0.05801 -0.076807,-0.103272 -0.1374595,-0.136426 -0.060275,-0.03315 -0.1348526,-0.04961 -0.2237589,-0.04961 z m 1.02371,0 v 1.157035 h 0.7570597 v -0.1757 H 7.1597702 v -0.315742 h 0.5038452 v -0.1757 H 7.1597702 v -0.314193 h 0.5431192 v -0.1757 z m 3.1832682,0 v 1.157035 h 0.20929 v -0.423746 h 0.21394 l 0.226859,0.423746 h 0.234095 l -0.250114,-0.457853 c 0.0075,-0.003 0.01455,-0.0064 0.0217,-0.0098 0.06103,-0.02976 0.107226,-0.07184 0.138492,-0.12609 0.03165,-0.05462 0.04754,-0.119056 0.04754,-0.19327 0,-0.07384 -0.01576,-0.138407 -0.04703,-0.193787 -0.03089,-0.05575 -0.07629,-0.09933 -0.136942,-0.130224 -0.06028,-0.03089 -0.134852,-0.04599 -0.223759,-0.04599 z m 1.035079,0 v 1.157035 h 0.209806 v -1.157035 z m 0.437183,0 V 14.93138 H 11.8153 v -0.39119 h 0.221692 c 0.08928,0 0.164282,-0.01632 0.225309,-0.04909 0.06103,-0.03315 0.107226,-0.07827 0.138493,-0.135909 0.03127,-0.05764 0.04703,-0.123706 0.04703,-0.197921 0,-0.07346 -0.01576,-0.139247 -0.04703,-0.196887 -0.03089,-0.05801 -0.07681,-0.103272 -0.13746,-0.136426 -0.06027,-0.03315 -0.134852,-0.04961 -0.223758,-0.04961 z m 0.973067,0 v 0.1757 h 0.358117 v 0.981335 h 0.20774 v -0.981335 h 0.357601 v -0.1757 z m -6.4430178,0.175183 h 0.1922365 c 0.052364,0 0.095006,0.0086 0.1281575,0.02636 0.033529,0.01733 0.058592,0.0416 0.074414,0.07286 0.0162,0.03127 0.024289,0.06746 0.024289,0.10852 0,0.04106 -0.00809,0.07739 -0.024289,0.109038 -0.015822,0.03165 -0.040746,0.05633 -0.073897,0.07441 -0.033152,0.01808 -0.075654,0.02739 -0.1276408,0.02739 h -0.19327 z m 4.2069788,0 h 0.192236 c 0.05236,0 0.095,0.0073 0.128157,0.02274 0.03315,0.01507 0.05821,0.03728 0.07441,0.06666 0.0162,0.02901 0.02429,0.06436 0.02429,0.10542 0,0.04106 -0.0081,0.07562 -0.02429,0.103869 -0.01582,0.02787 -0.04023,0.04939 -0.07338,0.06408 -0.03315,0.01431 -0.07617,0.02119 -0.128158,0.02119 h -0.193269 z m 1.472778,0 h 0.192236 c 0.05236,0 0.095,0.0086 0.128158,0.02636 0.03353,0.01733 0.05808,0.0416 0.0739,0.07286 0.0162,0.03127 0.02429,0.06746 0.02429,0.10852 0,0.04106 -0.0081,0.07739 -0.02429,0.109038 -0.01582,0.03165 -0.04023,0.05633 -0.07338,0.07441 -0.03315,0.01808 -0.07565,0.02739 -0.127641,0.02739 h -0.19327 z"
     style="font-weight:600;font-size:1.59127px;line-height:1.25;font-family:Inter;-inkscape-font-specification:'Inter Semi-Bold';text-align:center;text-anchor:middle;stroke-width:0.0397817;fill:#808080;fill-opacity:1"
     id="path6539" />
  <path
     d="m 10.51202,6.6145834 c -0.273159,0 -0.5132974,0.037239 -0.7203693,0.1121378 C 9.5889841,6.7972139 9.4192173,6.8919853 9.2826376,7.0109417 9.1460581,7.1298981 9.0448674,7.2665331 8.9787803,7.4207358 8.9126935,7.5705328 8.8795615,7.7269433 8.8795615,7.8899576 v 0.1188559 c 0,0.2158839 0.039551,0.3990067 0.1188559,0.5488038 0.08371,0.1453912 0.1964616,0.2686701 0.3374469,0.3700034 0.1409854,0.096927 0.3084402,0.1783424 0.5022954,0.2444295 0.1938553,0.061681 0.4031733,0.1169008 0.6278683,0.1653645 0.193855,0.039652 0.356686,0.085623 0.488859,0.1384928 0.132174,0.048464 0.240302,0.1036835 0.324012,0.1653645 0.08371,0.061681 0.143037,0.1320525 0.178283,0.2113566 0.03525,0.079304 0.05271,0.1722804 0.05271,0.2780194 v 0.10542 c 0,0.189448 -0.08604,0.352796 -0.257865,0.489375 -0.16742,0.13658 -0.420398,0.204639 -0.759644,0.204639 -0.101333,0 -0.214084,-0.01336 -0.337447,-0.03979 C 10.03598,10.863863 9.9173246,10.828932 9.7983687,10.784872 9.679412,10.736407 9.562553,10.681187 9.4480022,10.619507 9.3334516,10.557825 9.2322606,10.493874 9.1441449,10.427787 l -0.3307292,0.535368 c 0.1982608,0.158608 0.4383987,0.290619 0.7203694,0.396358 0.2863765,0.110145 0.5991979,0.165365 0.9384449,0.165365 0.242318,0 0.467304,-0.02851 0.674377,-0.08578 0.211478,-0.05287 0.391772,-0.134802 0.541569,-0.244946 0.149797,-0.114551 0.266656,-0.252981 0.350366,-0.415996 0.08812,-0.163014 0.132292,-0.354869 0.132292,-0.575158 v -0.118859 c 0,-0.1630143 -0.0262,-0.3130052 -0.07906,-0.449585 C 12.043305,9.4979745 11.959578,9.3746956 11.840621,9.2645509 11.721666,9.1544059 11.562942,9.0578393 11.364682,8.9741294 11.170826,8.8860133 10.926064,8.8087055 10.630876,8.742619 10.454645,8.7029667 10.298234,8.6634152 10.161654,8.6237631 10.025075,8.5797052 9.9105277,8.5291097 9.8180056,8.4718343 9.7254842,8.4145592 9.655113,8.3482953 9.606649,8.2733968 9.558185,8.1940927 9.5337851,8.0993214 9.5337851,7.9891764 V 7.8832399 c 0,-0.1894491 0.088352,-0.3499673 0.2645836,-0.4821413 0.1806369,-0.1321736 0.4207753,-0.1984375 0.7203693,-0.1984375 0.22029,0 0.420877,0.026712 0.601514,0.079582 0.180637,0.052869 0.358619,0.1383922 0.534851,0.2573486 L 11.966195,7.0310955 C 11.763529,6.894516 11.543167,6.7910129 11.305254,6.7205202 11.067341,6.6500275 10.802802,6.6145834 10.51202,6.6145834 Z M 4.7625001,6.6874474 V 7.2491701 H 6.2161583 V 11.452014 H 6.8708986 V 7.2491701 H 8.3245567 V 6.6874473 Z"
     style="font-weight:bold;font-size:6.60869px;line-height:1.25;font-family:'나눔스퀘어';-inkscape-font-specification:'나눔스퀘어 Bold';fill:#000000;fill-opacity:1;stroke-width:0.0437139;opacity:0.2"
     id="path859" />
  <path
     id="path10474"
     style="font-weight:bold;font-size:6.60869px;line-height:1.25;font-family:'나눔스퀘어';-inkscape-font-specification:'나눔스퀘어 Bold';fill:#278ed9;fill-opacity:1;stroke-width:0.165218"
     d="m 10.51202,6.3500001 c -0.273159,0 -0.5132974,0.037239 -0.7203694,0.1121378 C 9.588984,6.5326306 9.4192173,6.6274019 9.2826375,6.7463583 9.146058,6.8653147 9.0448673,7.0019498 8.9787802,7.1561524 8.9126934,7.3059494 8.8795615,7.46236 8.8795615,7.6253743 v 0.1188559 c 0,0.2158838 0.039551,0.3990067 0.1188559,0.5488038 0.08371,0.1453911 0.1964615,0.26867 0.3374469,0.3700033 0.1409853,0.096927 0.3084401,0.1783425 0.5022953,0.2444295 0.1938554,0.061681 0.4031734,0.1169009 0.6278684,0.1653646 0.193855,0.039652 0.356686,0.085623 0.488859,0.1384927 0.132174,0.048464 0.240302,0.1036836 0.324012,0.1653646 0.08371,0.061681 0.143037,0.1320525 0.178283,0.2113566 0.03525,0.079304 0.05271,0.1722803 0.05271,0.2780196 v 0.10542 c 0,0.1894481 -0.08604,0.3527961 -0.257865,0.4893751 -0.16742,0.13658 -0.420398,0.204639 -0.759644,0.204639 -0.101333,0 -0.214084,-0.01336 -0.337447,-0.03979 C 10.03598,10.599279 9.9173246,10.564349 9.7983686,10.520289 9.679412,10.471824 9.562553,10.416604 9.4480021,10.354924 9.3334516,10.293242 9.2322606,10.229291 9.1441448,10.163204 l -0.3307291,0.535368 c 0.1982607,0.158608 0.4383987,0.290619 0.7203694,0.396358 0.2863765,0.110145 0.5991979,0.165365 0.9384449,0.165365 0.242318,0 0.467304,-0.02851 0.674377,-0.08578 0.211478,-0.05287 0.391772,-0.134802 0.541569,-0.244946 0.149797,-0.114551 0.266656,-0.252981 0.350366,-0.415996 0.08812,-0.163014 0.132292,-0.354869 0.132292,-0.5751581 V 9.8195557 c 0,-0.1630143 -0.0262,-0.3130052 -0.07906,-0.449585 C 12.043305,9.2333912 11.959578,9.1101123 11.840621,8.9999676 11.721666,8.8898226 11.562942,8.793256 11.364682,8.7095461 11.170826,8.62143 10.926064,8.5441222 10.630876,8.4780357 10.454645,8.4383833 10.298234,8.3988318 10.161654,8.3591798 10.025075,8.3151219 9.9105276,8.2645264 9.8180056,8.207251 9.7254842,8.1499759 9.6551129,8.083712 9.6066489,8.0088135 9.5581849,7.9295094 9.5337851,7.834738 9.5337851,7.7245931 V 7.6186565 c 0,-0.1894491 0.088352,-0.3499673 0.2645835,-0.4821412 0.180637,-0.1321737 0.4207754,-0.1984375 0.7203694,-0.1984375 0.22029,0 0.420877,0.026712 0.601514,0.079582 0.180637,0.052869 0.358619,0.1383922 0.534851,0.2573486 L 11.966195,6.7665122 C 11.763529,6.6299327 11.543167,6.5264295 11.305254,6.4559368 11.067341,6.3854442 10.802802,6.3500001 10.51202,6.3500001 Z M 4.7625,6.4228639 V 6.9845868 H 6.2161582 V 11.187431 H 6.8708985 V 6.9845868 H 8.3245567 V 6.4228639 Z"
     sodipodi:nodetypes="scscsscccccscsscsccscccscccsscscccscsscssccssccccccccc" />
  <path
     id="path9791"
     style="opacity:0.2;fill:#ffffff;fill-opacity:1;stroke-width:0.140009;stroke-linejoin:round"
     d="m 3.175,0.5291668 c -0.2931583,0 -0.5291667,0.2360083 -0.5291667,0.5291667 V 1.3229168 C 2.6458334,1.0297584 2.8818417,0.7937501 3.175,0.7937501 h 7.14375 c 0,0 1e-6,-0.2645833 0,-0.2645833 z"
     sodipodi:nodetypes="sscsccs" />
  <path
     id="rect9905"
     style="opacity:0.2;fill:#000000;fill-opacity:1;stroke-width:2;stroke-linejoin:round"
     d="M 10 59 L 10 60 C 10 61.108 10.892 62 12 62 L 52 62 C 53.108 62 54 61.108 54 60 L 54 59 C 54 60.108 53.108 61 52 61 L 12 61 C 10.892 61 10 60.108 10 59 z "
     transform="scale(0.26458334)" />
  <path
     id="rect5598"
     style="opacity:0.1;fill:#000000;fill-opacity:1;stroke-width:0.529167;stroke-linejoin:round"
     d="M 10.444901,4.3115072 10.31875,3.4395834 14.2875,4.4979167 v 3.7041668 z"
     sodipodi:nodetypes="ccccc" />
  <path
     id="rect2607"
     style="fill:#f1f1f1;fill-opacity:1;stroke-width:0.529167;stroke-linejoin:round"
     d="m 14.2875,4.4979167 -3.439583,-1e-7 c -0.293158,0 -0.529166,-0.2360083 -0.529166,-0.5291667 V 0.52916673 Z"
     sodipodi:nodetypes="csscc" />
</svg>
