<?xml version="1.0" encoding="UTF-8" standalone="no"?>
<!-- Created with Inkscape (http://www.inkscape.org/) -->

<svg
   width="64"
   height="64"
   viewBox="0 0 16.933333 16.933334"
   version="1.1"
   id="svg5"
   inkscape:version="1.1.2 (0a00cf5339, 2022-02-04, custom)"
   sodipodi:docname="text-x-tex.svg"
   xmlns:inkscape="http://www.inkscape.org/namespaces/inkscape"
   xmlns:sodipodi="http://sodipodi.sourceforge.net/DTD/sodipodi-0.dtd"
   xmlns="http://www.w3.org/2000/svg"
   xmlns:svg="http://www.w3.org/2000/svg">
  <sodipodi:namedview
     id="namedview7"
     pagecolor="#ffffff"
     bordercolor="#666666"
     borderopacity="1.0"
     inkscape:pageshadow="2"
     inkscape:pageopacity="0.0"
     inkscape:pagecheckerboard="0"
     inkscape:document-units="px"
     showgrid="false"
     units="px"
     height="64px"
     inkscape:zoom="12.40625"
     inkscape:cx="31.959698"
     inkscape:cy="32"
     inkscape:window-width="1920"
     inkscape:window-height="1017"
     inkscape:window-x="0"
     inkscape:window-y="32"
     inkscape:window-maximized="1"
     inkscape:current-layer="svg5" />
  <defs
     id="defs2" />
  <path
     id="rect1068"
     style="fill:#e5e5e5;fill-opacity:1;stroke-width:0.529167;stroke-linejoin:round"
     d="m 3.175,0.5291667 7.143751,3e-8 3.968749,3.96874997 1e-6,11.3770833 c 0,0.293158 -0.236009,0.529167 -0.529167,0.529167 H 3.175 c -0.2931584,0 -0.5291667,-0.236009 -0.5291667,-0.529167 V 1.0583334 c 0,-0.29315835 0.2360083,-0.5291667 0.5291667,-0.5291667 z"
     sodipodi:nodetypes="cccsssssc" />
  <path
     id="rect8140"
     style="opacity:0.75;fill:#ffffff;fill-opacity:1;stroke-width:0.518136;stroke-linejoin:round"
     d="m 3.175,0.5291668 h 7.143751 l -1e-6,2.9104166 0.79375,1.0583333 3.175,0 V 15.875 c 0,0.295111 -0.236009,0.529167 -0.529167,0.529167 H 3.175 c -0.293159,0 -0.529167,-0.236009 -0.529167,-0.529167 V 1.0583337 c 0,-0.2931589 0.236008,-0.5291669 0.529167,-0.5291669 z"
     sodipodi:nodetypes="sccccssssss" />
  <path
     id="path5875"
     style="font-size:5.80312px;line-height:1.25;font-family:'나눔명조';-inkscape-font-specification:'나눔명조';fill:#b3b3b3;stroke-width:0.13375"
     d="M 4.026464,7.9375 3.96875,8.6583864 h 0.1410191 c 0.024382,-0.1044922 0.050539,-0.1897247 0.078405,-0.2559038 0.031347,-0.066179 0.072983,-0.1184949 0.1252296,-0.1568091 0.052246,-0.038315 0.1186226,-0.064472 0.1987338,-0.078405 0.083595,-0.017415 0.189644,-0.026135 0.3185184,-0.026135 h 0.6375814 v 2.9989745 c 0,0.233369 -0.034877,0.386938 -0.1045396,0.460083 -0.069662,0.07314 -0.2038315,0.109439 -0.4023677,0.109439 v 0.130675 c 0.087077,-0.0035 0.1897483,-0.0055 0.3081736,-0.0055 h 0.3762327 c 0.1253913,0 0.2474629,0.0019 0.365888,0.0055 H 6.3301419 V 11.70963 c -0.1044923,0 -0.1897249,-0.0067 -0.2559039,-0.02069 -0.066178,-0.01742 -0.118495,-0.04696 -0.1568091,-0.08875 -0.038315,-0.0418 -0.064472,-0.09945 -0.078404,-0.172599 -0.01393,-0.07314 -0.02069,-0.169058 -0.02069,-0.287483 V 8.1411341 h 0.7415763 c 0.1253913,0 0.2246834,0.00872 0.2978283,0.026135 0.073145,0.013933 0.130802,0.042052 0.172599,0.08385 0.038314,0.038314 0.062511,0.090631 0.07296,0.156809 0.013933,0.066178 0.022653,0.1494495 0.026135,0.2504591 H 7.2704519 L 7.3178208,7.9375 C 7.0879367,7.947952 6.8302782,7.9547057 6.5446646,7.95819 6.2590513,7.96168 5.9665152,7.96364 5.6669694,7.96364 5.3709066,7.96364 5.0797878,7.96169 4.7941744,7.95819 4.5085608,7.9547131 4.2528641,7.9479488 4.026464,7.9375 Z m 5.0565491,0 v 0.1361192 c 0.1532562,0 0.2753278,0.036294 0.3658879,0.1094397 0.090561,0.073145 0.194649,0.1879142 0.3130742,0.3446533 L 10.83296,9.9281043 9.8823042,11.161343 c -0.09056,0.114941 -0.1704554,0.208893 -0.2401143,0.282039 -0.069662,0.06966 -0.1360381,0.123392 -0.1987336,0.161709 -0.062695,0.03831 -0.1256932,0.06643 -0.1883886,0.08385 -0.062696,0.01394 -0.128528,0.02069 -0.1981894,0.02069 v 0.130674 c 0.167188,-0.0071 0.3604323,-0.009 0.5798669,-0.0055 0.222917,0 0.4181248,0.0019 0.5853118,0.0055 v -0.130674 c -0.2368448,0 -0.3642578,-0.02953 -0.3816778,-0.08875 -0.01741,-0.06269 0.05768,-0.203624 0.2248688,-0.423057 l 0.867351,-1.144489 1.018714,1.327432 c 0.107971,0.135842 0.146227,0.227833 0.114885,0.276594 -0.03135,0.04528 -0.130641,0.06272 -0.297829,0.05227 v 0.130674 c 0.156739,-0.0035 0.348566,-0.0055 0.574967,-0.0055 0.226401,-0.0035 0.43316,-0.0015 0.621247,0.0055 v -0.130674 c -0.135841,-0.01393 -0.25061,-0.05415 -0.344654,-0.120329 -0.09405,-0.06618 -0.203472,-0.182365 -0.328863,-0.349554 L 11.146577,9.7713006 12.060752,8.5750864 c 0.05921,-0.080111 0.114909,-0.151828 0.167155,-0.2145234 0.05573,-0.062696 0.113385,-0.1150126 0.172598,-0.1568092 0.05574,-0.041797 0.11873,-0.072751 0.18839,-0.09365 0.07314,-0.024381 0.159795,-0.03648 0.260804,-0.03648 V 7.9375005 c -0.07663,0.00349 -0.165239,0.00686 -0.266249,0.010347 h -0.308174 -0.313618 c -0.101011,0 -0.188204,-0.00337 -0.261349,-0.010347 v 0.1361193 c 0.0836,0 0.155311,0.00675 0.214524,0.02069 0.05921,0.013933 0.09888,0.036713 0.119785,0.06806 0.02089,0.034831 0.02089,0.083224 0,0.1459197 -0.0209,0.059213 -0.06787,0.1376871 -0.141019,0.2352137 L 11.052383,9.6460677 10.122418,8.4601981 c -0.114944,-0.1497726 -0.1478568,-0.2510267 -0.0991,-0.3032729 0.04876,-0.052246 0.167457,-0.079822 0.355543,-0.083305 v -0.136119 c -0.08011,0.00349 -0.177985,0.00686 -0.292928,0.010347 -0.1114578,0.00349 -0.2262278,0.00545 -0.3446538,0.00545 H 9.3857419 C 9.2707996,7.9498089 9.1700906,7.9444676 9.0830131,7.9375012 Z M 6.4880403,9.6161205 v 0.136119 c 0.1046323,0 0.1896363,0.00674 0.2559038,0.020693 0.069755,0.010431 0.1238886,0.031767 0.1622538,0.063165 0.041853,0.034875 0.069894,0.085091 0.08385,0.1513638 0.01744,0.066263 0.026135,0.1537717 0.026135,0.2618927 v 2.589528 c 0,0.219729 -0.033372,0.366149 -0.099639,0.439393 -0.066268,0.07324 -0.2087744,0.109983 -0.4285028,0.109983 v 0.130675 c 0.4289937,-0.007 0.8769525,-0.01032 1.3443114,-0.01032 0.4673588,0 0.92934,0.0034 1.3862359,0.01032 0.013947,-0.06975 0.029928,-0.139322 0.04737,-0.209079 0.017443,-0.07325 0.036245,-0.146726 0.05717,-0.219969 0.020925,-0.06975 0.042235,-0.139322 0.06316,-0.209078 0.024415,-0.07324 0.048545,-0.144767 0.072959,-0.214523 h -0.136119 c -0.045342,0.136022 -0.090235,0.24907 -0.1355745,0.339753 -0.045341,0.0872 -0.1014314,0.157307 -0.1676985,0.209623 -0.066268,0.05231 -0.1484462,0.08906 -0.2461033,0.109983 -0.097657,0.02093 -0.219402,0.03104 -0.3658878,0.03104 H 8.0468752 c -0.142998,0 -0.2599611,-0.0054 -0.3506425,-0.01579 -0.087194,-0.01395 -0.1553494,-0.04004 -0.2041785,-0.0784 -0.052316,-0.03489 -0.087101,-0.0851 -0.1045397,-0.151365 -0.01395,-0.06976 -0.02069,-0.16063 -0.02069,-0.272238 v -1.234872 h 0.7845899 c 0.083705,0 0.1518617,0.0073 0.2041785,0.02123 0.055804,0.01394 0.099284,0.04145 0.1306743,0.0833 0.03139,0.03836 0.052151,0.0925 0.062615,0.162253 0.01395,0.06976 0.021234,0.160631 0.021234,0.272239 H 8.6953456 V 10.903261 H 8.570116 c 0,0.18834 -0.031414,0.315412 -0.094194,0.381678 -0.059292,0.06626 -0.1656019,0.09964 -0.319063,0.09964 H 7.366824 V 9.7783757 h 0.7584551 c 0.1569491,0 0.2840208,0.00875 0.3816778,0.02614 0.097657,0.017437 0.1745098,0.048857 0.2303135,0.094194 0.059292,0.048825 0.1013598,0.1183963 0.125774,0.2090793 0.027902,0.0872 0.048664,0.202198 0.062615,0.345196 h 0.109984 V 9.6161269 c -0.3941164,0.010431 -0.8126171,0.015794 -1.2555617,0.015794 -0.4429445,0 -0.8735112,-0.00537 -1.2920418,-0.015794 z" />
  <path
     id="path9791"
     style="opacity:0.2;fill:#ffffff;fill-opacity:1;stroke-width:0.140009;stroke-linejoin:round"
     d="m 3.175,0.5291668 c -0.2931583,0 -0.5291667,0.2360083 -0.5291667,0.5291667 V 1.3229168 C 2.6458334,1.0297584 2.8818417,0.7937501 3.175,0.7937501 h 7.14375 c 0,0 1e-6,-0.2645833 0,-0.2645833 z"
     sodipodi:nodetypes="sscsccs" />
  <path
     id="rect9905"
     style="opacity:0.2;fill:#000000;fill-opacity:1;stroke-width:2;stroke-linejoin:round"
     d="M 10 59 L 10 60 C 10 61.108 10.892 62 12 62 L 52 62 C 53.108 62 54 61.108 54 60 L 54 59 C 54 60.108 53.108 61 52 61 L 12 61 C 10.892 61 10 60.108 10 59 z "
     transform="scale(0.26458334)" />
  <path
     id="rect5598"
     style="opacity:0.1;fill:#000000;fill-opacity:1;stroke-width:0.529167;stroke-linejoin:round"
     d="M 10.444901,4.3115072 10.31875,3.4395834 14.2875,4.4979167 v 3.7041668 z"
     sodipodi:nodetypes="ccccc" />
  <path
     id="rect2607"
     style="fill:#f1f1f1;fill-opacity:1;stroke-width:0.529167;stroke-linejoin:round"
     d="m 14.2875,4.4979167 -3.439583,-1e-7 c -0.293158,0 -0.529166,-0.2360083 -0.529166,-0.5291667 V 0.52916673 Z"
     sodipodi:nodetypes="csscc" />
</svg>
