<?xml version="1.0" encoding="UTF-8" standalone="no"?>
<!-- Created with Inkscape (http://www.inkscape.org/) -->

<svg
   width="64"
   height="64"
   viewBox="0 0 16.933333 16.933334"
   version="1.1"
   id="svg5"
   inkscape:version="1.1.2 (0a00cf5339, 2022-02-04, custom)"
   sodipodi:docname="text-x-css.svg"
   xmlns:inkscape="http://www.inkscape.org/namespaces/inkscape"
   xmlns:sodipodi="http://sodipodi.sourceforge.net/DTD/sodipodi-0.dtd"
   xmlns="http://www.w3.org/2000/svg"
   xmlns:svg="http://www.w3.org/2000/svg">
  <sodipodi:namedview
     id="namedview7"
     pagecolor="#ffffff"
     bordercolor="#666666"
     borderopacity="1.0"
     inkscape:pageshadow="2"
     inkscape:pageopacity="0.0"
     inkscape:pagecheckerboard="0"
     inkscape:document-units="px"
     showgrid="false"
     units="px"
     height="64px"
     inkscape:zoom="12.40625"
     inkscape:cx="31.959698"
     inkscape:cy="32"
     inkscape:window-width="1920"
     inkscape:window-height="1017"
     inkscape:window-x="0"
     inkscape:window-y="32"
     inkscape:window-maximized="1"
     inkscape:current-layer="svg5" />
  <defs
     id="defs2" />
  <path
     id="rect1068"
     style="fill:#e5e5e5;fill-opacity:1;stroke-width:0.529167;stroke-linejoin:round"
     d="m 3.175,0.5291667 7.143751,3e-8 3.968749,3.96874997 1e-6,11.3770833 c 0,0.293158 -0.236009,0.529167 -0.529167,0.529167 H 3.175 c -0.2931584,0 -0.5291667,-0.236009 -0.5291667,-0.529167 V 1.0583334 c 0,-0.29315835 0.2360083,-0.5291667 0.5291667,-0.5291667 z"
     sodipodi:nodetypes="cccsssssc" />
  <path
     id="rect8140"
     style="opacity:0.75;fill:#ffffff;fill-opacity:1;stroke-width:0.518136;stroke-linejoin:round"
     d="m 3.175,0.5291668 h 7.143751 l -1e-6,2.9104166 0.79375,1.0583333 3.175,0 V 15.875 c 0,0.295111 -0.236009,0.529167 -0.529167,0.529167 H 3.175 c -0.293159,0 -0.529167,-0.236009 -0.529167,-0.529167 V 1.0583337 c 0,-0.2931589 0.236008,-0.5291669 0.529167,-0.5291669 z"
     sodipodi:nodetypes="sccccssssss" />
  <path
     id="rect873"
     style="fill:#589df4;fill-opacity:1;stroke-width:0.177508;stroke-linecap:round;stroke-linejoin:round"
     d="m 5.8208334,5.8208334 5.2917136,1.904e-4 -0.328196,5.9705182 -2.3167456,0.646242 -2.205644,-0.646242 v -1.559331 h 1.323327 v 0.602132 l 0.882237,0.308346 0.882237,-0.322236 0.194754,-1.47073 H 7.5852784 V 8.0263972 h 2.090941 l 0.114692,-0.8822374 -3.970078,-4e-7 z"
     sodipodi:nodetypes="ccccccccccccccccc" />
  <path
     id="rect873-3"
     style="opacity:0.2;fill:#000000;fill-opacity:1;stroke-width:0.177508;stroke-linecap:round;stroke-linejoin:round"
     d="m 11.098031,6.0854168 -0.313676,5.7061122 -2.3166547,0.646472 -2.20555,-0.646472 v 0.264583 l 2.20555,0.646473 L 10.784355,12.056112 11.1125,6.0854168 Z M 5.8208335,7.1442669 V 7.4088503 H 9.7565107 L 9.7911338,7.1442669 Z M 7.585067,9.3498172 v 0.2645834 h 1.9244302 l 0.03514,-0.2645834 z" />
  <path
     d="m 8.8521716,13.875533 c -0.00603,-0.05642 -0.031436,-0.100347 -0.076227,-0.131783 -0.044358,-0.03144 -0.1020667,-0.04716 -0.1731264,-0.04716 -0.049957,0 -0.092808,0.0075 -0.1285528,0.02261 -0.035745,0.01507 -0.063092,0.03553 -0.082041,0.06137 -0.018949,0.02584 -0.028639,0.05534 -0.02907,0.0885 0,0.02756 0.00624,0.05146 0.018735,0.0717 0.01292,0.02024 0.030362,0.03747 0.052326,0.05168 0.021963,0.01378 0.046296,0.0254 0.072997,0.03488 0.026702,0.0095 0.053618,0.01744 0.080749,0.0239 l 0.1240311,0.03101 c 0.049957,0.01163 0.097976,0.02735 0.1440567,0.04716 0.046511,0.01981 0.08807,0.04479 0.1246769,0.07494 0.037037,0.03015 0.066322,0.06654 0.087855,0.109172 0.021536,0.04263 0.0323,0.09259 0.0323,0.14987 0,0.07752 -0.019809,0.14578 -0.059432,0.204782 -0.039621,0.05857 -0.0969,0.104438 -0.1718345,0.137595 -0.074505,0.03273 -0.1647285,0.0491 -0.2706717,0.0491 -0.1029284,0 -0.1922909,-0.01593 -0.2680877,-0.0478 -0.075366,-0.03187 -0.1343669,-0.07838 -0.1770024,-0.139534 -0.042205,-0.06115 -0.06503,-0.135658 -0.068475,-0.223514 h 0.2357879 c 0.00345,0.04608 0.017658,0.08441 0.042636,0.114987 0.024979,0.03058 0.057494,0.05341 0.097545,0.06848 0.040482,0.01507 0.085702,0.02261 0.1356588,0.02261 0.05211,0 0.09776,-0.0077 0.136951,-0.02326 0.03962,-0.01593 0.070628,-0.0379 0.093023,-0.06589 0.022394,-0.02843 0.033807,-0.06159 0.034238,-0.09948 -4.235e-4,-0.03445 -0.010552,-0.06288 -0.030362,-0.08527 -0.019809,-0.02283 -0.047588,-0.04178 -0.083333,-0.05685 -0.035315,-0.01551 -0.076658,-0.02929 -0.1240309,-0.04134 L 8.4729739,14.23923 c -0.1089575,-0.02799 -0.1950902,-0.07041 -0.2583976,-0.127261 -0.062877,-0.05728 -0.094315,-0.13329 -0.094315,-0.228036 0,-0.07795 0.021103,-0.14621 0.063307,-0.20478 0.042636,-0.05857 0.1005603,-0.104002 0.1737726,-0.136305 0.073213,-0.03273 0.1561153,-0.04909 0.2487078,-0.04909 0.093885,0 0.1761411,0.01636 0.2467697,0.04909 0.071059,0.0323 0.1268302,0.0773 0.1673125,0.135013 0.040482,0.05728 0.061369,0.123172 0.062661,0.197675 z m -0.9392767,0.08269 H 7.6712931 c -0.00689,-0.03962 -0.019595,-0.07472 -0.038114,-0.105297 -0.018518,-0.03101 -0.041559,-0.05728 -0.069121,-0.07881 -0.027563,-0.02153 -0.059001,-0.03768 -0.094315,-0.04845 -0.034884,-0.0112 -0.072567,-0.0168 -0.1130491,-0.0168 -0.071921,0 -0.1356587,0.01809 -0.1912143,0.05426 -0.055555,0.03575 -0.099052,0.08829 -0.130491,0.157623 -0.031439,0.06891 -0.047158,0.153101 -0.047158,0.252584 0,0.101206 0.015719,0.186478 0.047158,0.255814 0.031869,0.06891 0.075366,0.121016 0.130491,0.15633 0.055555,0.03489 0.1190781,0.05233 0.1905682,0.05233 0.039621,0 0.076658,-0.0052 0.1111113,-0.0155 0.034884,-0.01077 0.066107,-0.02649 0.093669,-0.04716 0.027993,-0.02067 0.051464,-0.04608 0.070413,-0.07623 0.019381,-0.03015 0.032731,-0.0646 0.040052,-0.103359 l 0.2416018,0.0013 c -0.00904,0.06287 -0.028639,0.121874 -0.058785,0.177003 -0.029716,0.05513 -0.068691,0.103791 -0.1169249,0.145994 -0.048234,0.04177 -0.1046509,0.0745 -0.1692505,0.09819 -0.064599,0.02325 -0.1363046,0.03488 -0.215116,0.03488 -0.1162791,0 -0.2200688,-0.02692 -0.3113694,-0.08075 -0.091301,-0.05383 -0.1632212,-0.131568 -0.2157621,-0.233203 -0.052541,-0.101637 -0.078811,-0.223515 -0.078811,-0.365634 0,-0.142549 0.026486,-0.264426 0.079457,-0.365633 0.052971,-0.101636 0.1251074,-0.179371 0.216408,-0.233204 0.091301,-0.05383 0.1946597,-0.08075 0.3100774,-0.08075 0.073643,0 0.1421188,0.01034 0.2054262,0.03101 0.063307,0.02068 0.1197242,0.05103 0.1692505,0.09108 0.049526,0.03962 0.090223,0.08829 0.122093,0.145996 0.0323,0.05728 0.053402,0.12274 0.063307,0.196381 z m 2.1201531,-0.08269 c -0.006,-0.05642 -0.03141,-0.100347 -0.07623,-0.131783 -0.04436,-0.03144 -0.102066,-0.04716 -0.173126,-0.04716 -0.04996,0 -0.09281,0.0075 -0.128553,0.02261 -0.03575,0.01507 -0.06309,0.03553 -0.08204,0.06137 -0.01895,0.02584 -0.02864,0.05534 -0.02907,0.0885 0,0.02756 0.0062,0.05146 0.01873,0.0717 0.01292,0.02024 0.03036,0.03747 0.05233,0.05168 0.02196,0.01378 0.0463,0.0254 0.073,0.03488 0.0267,0.0095 0.05362,0.01744 0.08075,0.0239 l 0.124031,0.03101 c 0.04996,0.01163 0.09798,0.02735 0.1440574,0.04716 0.04651,0.01981 0.08807,0.04479 0.124678,0.07494 0.03704,0.03015 0.06633,0.06654 0.08786,0.109173 0.02153,0.04263 0.0323,0.09259 0.0323,0.14987 0,0.07752 -0.01981,0.14578 -0.05943,0.204782 -0.03962,0.05857 -0.0969,0.104438 -0.171834,0.137595 -0.07451,0.03273 -0.1647294,0.0491 -0.2706724,0.0491 -0.102928,0 -0.192291,-0.01593 -0.268087,-0.0478 -0.07537,-0.03187 -0.134367,-0.07838 -0.177003,-0.139534 -0.0422,-0.06115 -0.06503,-0.135658 -0.06847,-0.223514 h 0.235788 c 0.0035,0.04608 0.01766,0.08441 0.04264,0.114987 0.02498,0.03058 0.05749,0.05341 0.09755,0.06848 0.04048,0.01507 0.0857,0.02261 0.135659,0.02261 0.05211,0 0.09776,-0.0077 0.136951,-0.02326 0.03962,-0.01593 0.07063,-0.0379 0.09302,-0.06589 0.02239,-0.02843 0.03381,-0.06159 0.03424,-0.09948 -4.24e-4,-0.03445 -0.01055,-0.06288 -0.03036,-0.08527 -0.01981,-0.02282 -0.04759,-0.04178 -0.08333,-0.05685 -0.03531,-0.01551 -0.07666,-0.02929 -0.124031,-0.04134 l -0.150517,-0.03876 c -0.108958,-0.02799 -0.19509,-0.07041 -0.258397,-0.127261 -0.06288,-0.05728 -0.09432,-0.133292 -0.09432,-0.228036 0,-0.07795 0.0211,-0.14621 0.06331,-0.20478 0.04264,-0.05857 0.10056,-0.104002 0.173773,-0.136305 0.07321,-0.03273 0.156115,-0.04909 0.248708,-0.04909 0.09389,0 0.176141,0.01636 0.2467704,0.04909 0.07106,0.0323 0.12683,0.0773 0.167312,0.135013 0.04048,0.05728 0.06137,0.123172 0.06266,0.197675 z"
     style="font-weight:600;font-family:Inter;-inkscape-font-specification:'Inter Semi-Bold';stroke-width:0.264583;fill:#808080;fill-opacity:1"
     id="path6962" />
  <path
     id="path9791"
     style="opacity:0.2;fill:#ffffff;fill-opacity:1;stroke-width:0.140009;stroke-linejoin:round"
     d="m 3.175,0.5291668 c -0.2931583,0 -0.5291667,0.2360083 -0.5291667,0.5291667 V 1.3229168 C 2.6458334,1.0297584 2.8818417,0.7937501 3.175,0.7937501 h 7.14375 c 0,0 1e-6,-0.2645833 0,-0.2645833 z"
     sodipodi:nodetypes="sscsccs" />
  <path
     id="rect9905"
     style="opacity:0.2;fill:#000000;fill-opacity:1;stroke-width:2;stroke-linejoin:round"
     d="M 10 59 L 10 60 C 10 61.108 10.892 62 12 62 L 52 62 C 53.108 62 54 61.108 54 60 L 54 59 C 54 60.108 53.108 61 52 61 L 12 61 C 10.892 61 10 60.108 10 59 z "
     transform="scale(0.26458334)" />
  <path
     id="rect5598"
     style="opacity:0.1;fill:#000000;fill-opacity:1;stroke-width:0.529167;stroke-linejoin:round"
     d="M 10.444901,4.3115072 10.31875,3.4395834 14.2875,4.4979167 v 3.7041668 z"
     sodipodi:nodetypes="ccccc" />
  <path
     id="rect2607"
     style="fill:#f1f1f1;fill-opacity:1;stroke-width:0.529167;stroke-linejoin:round"
     d="m 14.2875,4.4979167 -3.439583,-1e-7 c -0.293158,0 -0.529166,-0.2360083 -0.529166,-0.5291667 V 0.52916673 Z"
     sodipodi:nodetypes="csscc" />
</svg>
