<?xml version="1.0" encoding="UTF-8" standalone="no"?>
<!-- Created with Inkscape (http://www.inkscape.org/) -->

<svg
   width="64"
   height="64"
   viewBox="0 0 16.933333 16.933334"
   version="1.1"
   id="svg5"
   inkscape:version="1.1.2 (0a00cf5339, 2022-02-04, custom)"
   sodipodi:docname="text-x-csharp.svg"
   xmlns:inkscape="http://www.inkscape.org/namespaces/inkscape"
   xmlns:sodipodi="http://sodipodi.sourceforge.net/DTD/sodipodi-0.dtd"
   xmlns:xlink="http://www.w3.org/1999/xlink"
   xmlns="http://www.w3.org/2000/svg"
   xmlns:svg="http://www.w3.org/2000/svg">
  <sodipodi:namedview
     id="namedview7"
     pagecolor="#ffffff"
     bordercolor="#666666"
     borderopacity="1.0"
     inkscape:pageshadow="2"
     inkscape:pageopacity="0.0"
     inkscape:pagecheckerboard="0"
     inkscape:document-units="px"
     showgrid="false"
     units="px"
     height="64px"
     inkscape:zoom="12.40625"
     inkscape:cx="31.959698"
     inkscape:cy="32"
     inkscape:window-width="1920"
     inkscape:window-height="1017"
     inkscape:window-x="0"
     inkscape:window-y="32"
     inkscape:window-maximized="1"
     inkscape:current-layer="svg5" />
  <defs
     id="defs2">
    <linearGradient
       inkscape:collect="always"
       xlink:href="#linearGradient1564"
       id="linearGradient1566"
       x1="24"
       y1="49.115234"
       x2="50"
       y2="23.115234"
       gradientUnits="userSpaceOnUse"
       gradientTransform="scale(0.26458334)" />
    <linearGradient
       inkscape:collect="always"
       id="linearGradient1564">
      <stop
         style="stop-color:#000000;stop-opacity:1;"
         offset="0"
         id="stop1560" />
      <stop
         style="stop-color:#000000;stop-opacity:0;"
         offset="1"
         id="stop1562" />
    </linearGradient>
  </defs>
  <path
     id="rect1068"
     style="fill:#e5e5e5;fill-opacity:1;stroke-width:0.529167;stroke-linejoin:round"
     d="m 3.175,0.5291667 7.143751,3e-8 3.968749,3.96874997 1e-6,11.3770833 c 0,0.293158 -0.236009,0.529167 -0.529167,0.529167 H 3.175 c -0.2931584,0 -0.5291667,-0.236009 -0.5291667,-0.529167 V 1.0583334 c 0,-0.29315835 0.2360083,-0.5291667 0.5291667,-0.5291667 z"
     sodipodi:nodetypes="cccsssssc" />
  <path
     id="rect8140"
     style="opacity:0.75;fill:#ffffff;fill-opacity:1;stroke-width:0.518136;stroke-linejoin:round"
     d="m 3.175,0.5291668 h 7.143751 l -1e-6,2.9104166 0.79375,1.0583333 3.175,0 V 15.875 c 0,0.295111 -0.236009,0.529167 -0.529167,0.529167 H 3.175 c -0.293159,0 -0.529167,-0.236009 -0.529167,-0.529167 V 1.0583337 c 0,-0.2931589 0.236008,-0.5291669 0.529167,-0.5291669 z"
     sodipodi:nodetypes="sccccssssss" />
  <path
     id="path23696"
     style="font-weight:bold;font-size:6.39753px;line-height:1.25;font-family:'나눔스퀘어';-inkscape-font-specification:'나눔스퀘어 Bold';fill:#832ae7;fill-opacity:1;stroke-width:0.159939"
     d="m 6.6114827,6.6145834 c -0.2729611,0 -0.5227455,0.042857 -0.7487914,0.1281576 C 5.6366453,6.828041 5.4404324,6.9555792 5.2740968,7.1261802 5.112026,7.2967809 4.986424,7.5080969 4.8968586,7.7597332 4.8072935,8.0113694 4.7625,8.30543 4.7625,8.6423665 v 0.6976324 c 0,0.341201 0.044793,0.637715 0.1343586,0.8893511 0.089565,0.251636 0.2151674,0.462435 0.3772382,0.633036 0.1620708,0.170601 0.3563472,0.29672 0.5823934,0.377755 0.226046,0.0853 0.4777664,0.127641 0.7549925,0.127641 0.3113466,0 0.6034713,-0.04234 0.8764324,-0.127641 0.2729613,-0.0853 0.5246817,-0.239173 0.7549928,-0.460954 L 7.8971924,10.292912 c -0.1919258,0.187661 -0.3988528,0.315716 -0.6206339,0.383956 -0.2217812,0.06824 -0.4432946,0.102319 -0.6650758,0.102319 -0.1748657,0 -0.3369995,-0.02969 -0.486275,-0.0894 C 5.980197,10.630077 5.8521423,10.538554 5.7412517,10.414868 5.634626,10.291183 5.5513645,10.133438 5.4916544,9.9415119 c -0.05971,-0.191926 -0.0894,-0.420281 -0.0894,-0.684712 V 8.7255658 c 0,-0.2644315 0.02969,-0.4922703 0.0894,-0.6841961 0.05971,-0.1919258 0.1429718,-0.3496704 0.2495973,-0.473356 0.1108906,-0.1236856 0.2389453,-0.2157249 0.383956,-0.2754355 0.1492755,-0.05971 0.3114093,-0.0894 0.486275,-0.0894 0.2089862,0 0.4071351,0.027754 0.5947958,0.083199 0.1919259,0.055445 0.3925277,0.1683967 0.6015139,0.3389974 L 8.1338707,7.1070598 C 7.9163546,6.9364591 7.6885158,6.8127934 7.4496746,6.7360229 7.2108333,6.6549877 6.9313592,6.6145834 6.6114827,6.6145834 Z m 3.2432132,0.07028 -0.172599,1.254187 h -0.729155 v 0.5565553 h 0.645956 L 9.4645389,9.4552369 H 8.7545046 v 0.5565551 h 0.6335533 l -0.179317,1.28571 h 0.518314 l 0.172599,-1.28571 h 0.8381921 l -0.179317,1.28571 h 0.512113 l 0.178801,-1.28571 h 0.722953 V 9.4552369 h -0.645955 l 0.134358,-0.9596313 h 0.710035 V 7.9390503 h -0.633553 l 0.179317,-1.254187 h -0.518315 l -0.172599,1.254187 H 10.19421 l 0.172599,-1.254187 z m 0.2563151,1.8107423 h 0.837675 L 10.814327,9.4552369 H 9.9766519 Z" />
  <path
     id="path23696-3"
     style="font-weight:bold;font-size:6.39753px;line-height:1.25;font-family:'나눔스퀘어';-inkscape-font-specification:'나눔스퀘어 Bold';opacity:0.3;fill:url(#linearGradient1566);fill-opacity:1;stroke-width:0.159939"
     d="M 10.330636,6.9494467 10.19421,7.9390503 h 0.03617 l 0.136425,-0.9896036 z m 1.348238,0 -0.141593,0.9896036 h 0.03772 L 11.716598,6.9494467 Z M 6.6114827,7.2031779 c -0.1748649,0 -0.3369992,0.02969 -0.486275,0.0894 -0.1450102,0.059711 -0.2730651,0.15175 -0.383956,0.2754358 -0.1066249,0.1236853 -0.1898872,0.2814302 -0.2495973,0.473356 -0.05971,0.1919258 -0.0894,0.4197644 -0.0894,0.6841961 v 0.2645831 c 0,-0.2644315 0.02969,-0.49227 0.0894,-0.6841959 0.05971,-0.1919258 0.1429724,-0.3496707 0.2495973,-0.473356 0.1108909,-0.1236858 0.2389458,-0.2157248 0.383956,-0.2754355 0.1492758,-0.05971 0.3114101,-0.0894 0.486275,-0.0894 0.208987,0 0.4071348,0.027754 0.5947958,0.083199 0.1919261,0.055445 0.3925277,0.1683968 0.6015139,0.3389974 L 8.1338707,7.3716431 c -0.03753,-0.029435 -0.07554,-0.057075 -0.1136883,-0.083716 L 7.8077924,7.625374 C 7.5988062,7.4547736 7.3982046,7.3418219 7.2062785,7.2863769 7.0186175,7.2309321 6.8204697,7.2031779 6.6114827,7.2031779 Z m 2.3414592,1.2924277 v 0.2645833 h 0.608749 l 0.03721,-0.2645833 z m 1.1580691,0 -0.1343591,0.9596313 h 0.03721 l 0.09715,-0.695048 h 0.800468 l 0.03721,-0.2645833 z m 1.349788,0 -0.134358,0.9596313 h 0.03721 l 0.09715,-0.695048 h 0.710035 V 8.4956056 Z M 4.7625,9.3399989 v 0.264583 c 0,0.341202 0.044791,0.6377151 0.1343586,0.8893511 0.08957,0.251636 0.2151682,0.462435 0.3772382,0.633037 0.162071,0.1706 0.3563474,0.296719 0.5823934,0.377754 0.226046,0.0853 0.4777666,0.127641 0.7549925,0.127641 0.3113472,0 0.6034715,-0.04234 0.8764324,-0.127641 0.2729611,-0.0853 0.5246817,-0.239172 0.7549928,-0.460953 L 8.1281861,10.88254 c -0.1985031,0.166923 -0.4119449,0.28625 -0.640271,0.357601 -0.2729609,0.0853 -0.5650852,0.127641 -0.8764324,0.127641 -0.2772259,0 -0.5289465,-0.04234 -0.7549925,-0.127641 C 5.6304442,11.159111 5.4361678,11.032986 5.2740968,10.862386 5.1120268,10.691784 4.9864288,10.480986 4.8968586,10.22935 4.8072908,9.9777139 4.7625,9.6812009 4.7625,9.3399989 Z m 3.9920046,0.6717931 v 0.264584 h 0.5968623 l 0.03669,-0.264584 z m 1.1451493,0 -0.172599,1.28571 h -0.481624 l -0.03669,0.264583 h 0.518314 l 0.172599,-1.285709 h 0.8015021 l 0.03669,-0.264584 z m 1.3497891,0 -0.178801,1.28571 h -0.475423 l -0.03669,0.264583 h 0.512113 l 0.178801,-1.285709 h 0.722953 v -0.264584 z" />
  <path
     d="m 11.314906,14.834743 v -1.32291 h 0.496092 c 0.101629,0 0.186894,0.01895 0.255796,0.05684 0.06933,0.03789 0.121654,0.09 0.156967,0.156321 0.03574,0.06589 0.05361,0.140817 0.05361,0.224791 0,0.08483 -0.01787,0.160196 -0.05361,0.226083 -0.03574,0.06589 -0.08849,0.117778 -0.158258,0.155674 -0.06976,0.03747 -0.155675,0.0562 -0.257735,0.0562 h -0.32879 v -0.197015 h 0.296492 c 0.05943,0 0.108088,-0.01034 0.145985,-0.03101 0.03789,-0.02067 0.06588,-0.0491 0.08397,-0.08527 0.01852,-0.03617 0.02778,-0.07773 0.02778,-0.124668 0,-0.04694 -0.0093,-0.08828 -0.02778,-0.124023 -0.01809,-0.03574 -0.04629,-0.06352 -0.08462,-0.08333 -0.03789,-0.02024 -0.08677,-0.03036 -0.146632,-0.03036 h -0.219622 v 1.122665 z M 6.9999489,13.875504 c -0.00603,-0.05641 -0.031434,-0.100338 -0.076222,-0.131774 -0.044355,-0.03143 -0.1020604,-0.04715 -0.173115,-0.04715 -0.049953,0 -0.092802,0.0075 -0.1285444,0.02261 -0.035743,0.01507 -0.063088,0.03553 -0.082036,0.06137 -0.018947,0.02584 -0.028637,0.05534 -0.029068,0.0885 0,0.02756 0.00624,0.05146 0.018733,0.0717 0.01292,0.02024 0.03036,0.03747 0.052322,0.05168 0.021963,0.01378 0.046294,0.02541 0.072993,0.03488 0.026699,0.0095 0.053614,0.01744 0.080744,0.0239 l 0.1240227,0.03101 c 0.049953,0.01163 0.097969,0.02734 0.1440473,0.04715 0.046509,0.01981 0.088065,0.04478 0.1246685,0.07493 0.037035,0.03015 0.066318,0.06654 0.087849,0.109165 0.021532,0.04263 0.032298,0.09259 0.032298,0.14986 0,0.07752 -0.019809,0.145771 -0.059428,0.204768 -0.039618,0.05857 -0.096893,0.104429 -0.1718233,0.137588 -0.0745,0.03273 -0.1647177,0.04909 -0.2706537,0.04909 -0.1029215,0 -0.1922782,-0.01593 -0.26807,-0.0478 C 6.403305,14.77512 6.3443085,14.72861 6.3016756,14.667455 6.2594736,14.606305 6.2366496,14.531802 6.2332046,14.443956 H 6.468977 c 0.00345,0.04608 0.017658,0.08441 0.042633,0.114979 0.024977,0.03057 0.057489,0.0534 0.097539,0.06847 0.040479,0.01507 0.085696,0.02261 0.1356497,0.02261 0.052107,0 0.097754,-0.0078 0.1369418,-0.02325 0.039619,-0.01593 0.070624,-0.0379 0.093017,-0.06589 0.022392,-0.02842 0.033804,-0.06158 0.034235,-0.09948 -4.233e-4,-0.03445 -0.010552,-0.06287 -0.03036,-0.08526 -0.019809,-0.02282 -0.047585,-0.04177 -0.083328,-0.05684 -0.035312,-0.0155 -0.076653,-0.02928 -0.1240227,-0.04134 L 6.620775,14.239195 c -0.1089504,-0.02799 -0.1950773,-0.07041 -0.2583807,-0.127252 -0.062872,-0.05727 -0.094309,-0.13328 -0.094309,-0.228021 0,-0.07794 0.021101,-0.146201 0.063303,-0.204767 0.042633,-0.05857 0.100553,-0.103999 0.1737611,-0.136296 0.073208,-0.03273 0.1561049,-0.04909 0.2486914,-0.04909 0.093878,0 0.1761294,0.01636 0.2467536,0.04909 0.071055,0.0323 0.1268216,0.0773 0.1673013,0.135004 0.040479,0.05727 0.061365,0.12316 0.062657,0.197661 z m 3.1315751,0.959239 v -1.32291 h 0.49609 c 0.10163,0 0.186895,0.01766 0.255796,0.05297 0.06933,0.03531 0.121656,0.08484 0.156968,0.148569 0.03574,0.06331 0.05361,0.137161 0.05361,0.221562 0,0.08483 -0.01809,0.158473 -0.05426,0.220915 -0.03574,0.06201 -0.08849,0.11003 -0.158258,0.144048 -0.06976,0.03359 -0.15546,0.05038 -0.257089,0.05038 h -0.353336 v -0.198953 h 0.321038 c 0.05943,0 0.108088,-0.0082 0.145985,-0.02455 0.03789,-0.01679 0.06588,-0.04112 0.08397,-0.07299 0.01852,-0.0323 0.02778,-0.07192 0.02778,-0.118855 0,-0.04694 -0.0093,-0.08699 -0.02778,-0.120147 -0.01852,-0.03359 -0.04673,-0.05899 -0.08462,-0.07622 -0.03789,-0.01765 -0.08677,-0.02648 -0.146631,-0.02648 h -0.219623 v 1.122665 z m 0.683417,-0.599444 0.327497,0.599444 H 10.875014 L 10.55333,14.235299 Z m -1.8299838,0.599444 h -0.255797 l 0.465732,-1.32291 h 0.295845 l 0.466378,1.32291 h -0.255797 l -0.353336,-1.05161 h -0.01033 z m 0.0084,-0.5187 h 0.697629 v 0.192494 H 8.9933552 Z M 6.0607341,13.958186 H 5.8191484 c -0.00689,-0.03962 -0.019595,-0.07472 -0.038111,-0.10529 -0.018518,-0.03101 -0.041556,-0.05728 -0.069117,-0.07881 -0.027561,-0.02153 -0.058997,-0.03768 -0.094309,-0.04845 -0.034881,-0.01119 -0.072562,-0.01679 -0.1130417,-0.01679 -0.071916,0 -0.1356497,0.01809 -0.1912017,0.05426 -0.055552,0.03574 -0.099046,0.08828 -0.1304821,0.157612 -0.031436,0.0689 -0.047154,0.15309 -0.047154,0.252567 0,0.101199 0.015719,0.186465 0.047154,0.255797 0.031867,0.0689 0.075361,0.121008 0.1304821,0.15632 0.055552,0.03488 0.1190707,0.05232 0.1905559,0.05232 0.039618,0 0.076652,-0.0052 0.1111035,-0.0155 0.034881,-0.01077 0.066102,-0.02648 0.093663,-0.04715 0.027991,-0.02067 0.051461,-0.04608 0.070409,-0.07622 0.019378,-0.03015 0.032728,-0.0646 0.040049,-0.103353 l 0.2415861,0.0013 c -0.00904,0.06287 -0.028637,0.12187 -0.058782,0.176991 -0.029714,0.05512 -0.068686,0.103781 -0.1169173,0.145985 -0.048231,0.04177 -0.1046445,0.0745 -0.1692394,0.09818 -0.064595,0.02325 -0.1362958,0.03488 -0.215102,0.03488 -0.1162711,0 -0.2200539,-0.02691 -0.3113487,-0.08074 -0.091294,-0.05383 -0.1632103,-0.131556 -0.2157478,-0.233188 -0.052537,-0.10163 -0.078806,-0.2235 -0.078806,-0.365609 0,-0.14254 0.026484,-0.26441 0.079452,-0.365609 0.052968,-0.101629 0.1250992,-0.179359 0.2163937,-0.233188 0.091295,-0.05383 0.1946468,-0.08074 0.3100567,-0.08074 0.073639,0 0.1421096,0.01033 0.2054128,0.031 0.063303,0.02067 0.1197165,0.05103 0.1692394,0.09108 0.049523,0.03962 0.090218,0.08828 0.1220848,0.145985 0.032297,0.05727 0.053399,0.12273 0.063303,0.196369 z m 1.4010691,0.876557 v -1.32291 h 0.2396479 v 0.560041 h 0.6130084 v -0.560041 h 0.2402937 v 1.32291 H 8.3144595 V 14.272765 H 7.7014511 v 0.561978 z"
     style="font-weight:600;font-family:Inter;-inkscape-font-specification:'Inter Semi-Bold';stroke-width:0.264583;fill:#808080;fill-opacity:1"
     id="path67047" />
  <path
     id="path9791"
     style="opacity:0.2;fill:#ffffff;fill-opacity:1;stroke-width:0.140009;stroke-linejoin:round"
     d="m 3.175,0.5291668 c -0.2931583,0 -0.5291667,0.2360083 -0.5291667,0.5291667 V 1.3229168 C 2.6458334,1.0297584 2.8818417,0.7937501 3.175,0.7937501 h 7.14375 c 0,0 1e-6,-0.2645833 0,-0.2645833 z"
     sodipodi:nodetypes="sscsccs" />
  <path
     id="rect9905"
     style="opacity:0.2;fill:#000000;fill-opacity:1;stroke-width:2;stroke-linejoin:round"
     d="M 10 59 L 10 60 C 10 61.108 10.892 62 12 62 L 52 62 C 53.108 62 54 61.108 54 60 L 54 59 C 54 60.108 53.108 61 52 61 L 12 61 C 10.892 61 10 60.108 10 59 z "
     transform="scale(0.26458334)" />
  <path
     id="rect5598"
     style="opacity:0.1;fill:#000000;fill-opacity:1;stroke-width:0.529167;stroke-linejoin:round"
     d="M 10.444901,4.3115072 10.31875,3.4395834 14.2875,4.4979167 v 3.7041668 z"
     sodipodi:nodetypes="ccccc" />
  <path
     id="rect2607"
     style="fill:#f1f1f1;fill-opacity:1;stroke-width:0.529167;stroke-linejoin:round"
     d="m 14.2875,4.4979167 -3.439583,-1e-7 c -0.293158,0 -0.529166,-0.2360083 -0.529166,-0.5291667 V 0.52916673 Z"
     sodipodi:nodetypes="csscc" />
</svg>
