<?xml version="1.0" encoding="UTF-8" standalone="no"?>
<!-- Created with Inkscape (http://www.inkscape.org/) -->

<svg
   width="64"
   height="64"
   viewBox="0 0 16.933333 16.933334"
   version="1.1"
   id="svg5"
   inkscape:version="1.1.2 (0a00cf5339, 2022-02-04, custom)"
   sodipodi:docname="text-x-hex.svg"
   xmlns:inkscape="http://www.inkscape.org/namespaces/inkscape"
   xmlns:sodipodi="http://sodipodi.sourceforge.net/DTD/sodipodi-0.dtd"
   xmlns="http://www.w3.org/2000/svg"
   xmlns:svg="http://www.w3.org/2000/svg">
  <sodipodi:namedview
     id="namedview7"
     pagecolor="#ffffff"
     bordercolor="#666666"
     borderopacity="1.0"
     inkscape:pageshadow="2"
     inkscape:pageopacity="0.0"
     inkscape:pagecheckerboard="0"
     inkscape:document-units="px"
     showgrid="false"
     units="px"
     height="64px"
     inkscape:zoom="12.328125"
     inkscape:cx="31.959442"
     inkscape:cy="32"
     inkscape:window-width="1920"
     inkscape:window-height="1011"
     inkscape:window-x="0"
     inkscape:window-y="0"
     inkscape:window-maximized="1"
     inkscape:current-layer="svg5" />
  <defs
     id="defs2" />
  <path
     id="rect1068"
     style="fill:#e5e5e5;fill-opacity:1;stroke-width:0.529167;stroke-linejoin:round"
     d="m 3.175,0.5291667 7.143751,3e-8 3.968749,3.96874997 1e-6,11.3770833 c 0,0.293158 -0.236009,0.529167 -0.529167,0.529167 H 3.175 c -0.2931584,0 -0.5291667,-0.236009 -0.5291667,-0.529167 V 1.0583334 c 0,-0.29315835 0.2360083,-0.5291667 0.5291667,-0.5291667 z"
     sodipodi:nodetypes="cccsssssc" />
  <path
     id="rect8140"
     style="opacity:0.75;fill:#ffffff;fill-opacity:1;stroke-width:0.518136;stroke-linejoin:round"
     d="m 3.175,0.5291668 h 7.143751 l -1e-6,2.9104166 0.79375,1.0583333 3.175,0 V 15.875 c 0,0.295111 -0.236009,0.529167 -0.529167,0.529167 H 3.175 c -0.293159,0 -0.529167,-0.236009 -0.529167,-0.529167 V 1.0583337 c 0,-0.2931589 0.236008,-0.5291669 0.529167,-0.5291669 z"
     sodipodi:nodetypes="sccccssssss" />
  <path
     id="rect865"
     style="fill:#b1b1b1;fill-opacity:1;stroke-width:0.264583"
     d="m 7.4083335,5.8208334 c -0.1465792,0 -0.2645834,0.1180042 -0.2645834,0.2645834 v 1.5875 h -1.5875 c -0.1465792,0 -0.2645834,0.1180042 -0.2645834,0.2645834 0,0.1465791 0.1180042,0.2645833 0.2645834,0.2645833 h 1.5875 v 1.5875 h -1.5875 c -0.1465792,0 -0.2645834,0.1180042 -0.2645834,0.2645825 0,0.14658 0.1180042,0.264584 0.2645834,0.264584 h 1.5875 v 1.5875 c 0,0.146579 0.1180042,0.264583 0.2645834,0.264583 0.1465791,0 0.2645833,-0.118004 0.2645833,-0.264583 v -1.5875 h 1.5875 v 1.5875 c 0,0.146579 0.1180042,0.264583 0.2645835,0.264583 0.146579,0 0.264583,-0.118004 0.264583,-0.264583 v -1.5875 h 1.5874997 c 0.146579,0 0.264583,-0.118004 0.264583,-0.264584 0,-0.1465783 -0.118004,-0.2645825 -0.264583,-0.2645825 H 9.7895833 v -1.5875 h 1.5874997 c 0.146579,0 0.264583,-0.1180042 0.264583,-0.2645833 0,-0.1465792 -0.118004,-0.2645834 -0.264583,-0.2645834 H 9.7895833 v -1.5875 c 0,-0.1465792 -0.118004,-0.2645834 -0.264583,-0.2645834 -0.1465793,0 -0.2645835,0.1180042 -0.2645835,0.2645834 v 1.5875 h -1.5875 v -1.5875 c 0,-0.1465792 -0.1180042,-0.2645834 -0.2645833,-0.2645834 z m 0.2645833,2.3812501 h 1.5875 v 1.5875 h -1.5875 z" />
  <path
     d="m 9.5000637,13.511839 h -0.274548 l 0.41279,0.661497 -0.417958,0.661498 h 0.276486 l 0.294573,-0.481266 h 0.01034 l 0.2945733,0.481266 h 0.277779 L 9.9600157,14.173336 10.367638,13.511839 h -0.273256 l -0.2926353,0.484495 h -0.01034 z M 8.1945094,14.834834 H 9.0601419 V 14.63393 H 8.4341732 V 14.272819 H 9.0104003 V 14.071915 H 8.4341732 V 13.712743 H 9.0549738 V 13.511839 H 8.1945094 Z m -1.3533586,0 h 0.2396641 v -0.562015 h 0.6130486 v 0.562015 H 7.9341734 V 13.511839 H 7.6938635 v 0.560076 H 7.0808149 V 13.511839 H 6.8411508 Z"
     style="font-weight:600;font-family:Inter;-inkscape-font-specification:'Inter Semi-Bold';stroke-width:0.264583;fill:#808080;fill-opacity:1"
     id="path17120" />
  <path
     id="path9791"
     style="opacity:0.2;fill:#ffffff;fill-opacity:1;stroke-width:0.140009;stroke-linejoin:round"
     d="m 3.175,0.5291668 c -0.2931583,0 -0.5291667,0.2360083 -0.5291667,0.5291667 V 1.3229168 C 2.6458334,1.0297584 2.8818417,0.7937501 3.175,0.7937501 h 7.14375 c 0,0 1e-6,-0.2645833 0,-0.2645833 z"
     sodipodi:nodetypes="sscsccs" />
  <path
     id="rect9905"
     style="opacity:0.2;fill:#000000;fill-opacity:1;stroke-width:2;stroke-linejoin:round"
     d="M 10 59 L 10 60 C 10 61.108 10.892 62 12 62 L 52 62 C 53.108 62 54 61.108 54 60 L 54 59 C 54 60.108 53.108 61 52 61 L 12 61 C 10.892 61 10 60.108 10 59 z "
     transform="scale(0.26458334)" />
  <path
     id="rect5598"
     style="opacity:0.1;fill:#000000;fill-opacity:1;stroke-width:0.529167;stroke-linejoin:round"
     d="M 10.444901,4.3115072 10.31875,3.4395834 14.2875,4.4979167 v 3.7041668 z"
     sodipodi:nodetypes="ccccc" />
  <path
     id="rect2607"
     style="fill:#f1f1f1;fill-opacity:1;stroke-width:0.529167;stroke-linejoin:round"
     d="m 14.2875,4.4979167 -3.439583,-1e-7 c -0.293158,0 -0.529166,-0.2360083 -0.529166,-0.5291667 V 0.52916673 Z"
     sodipodi:nodetypes="csscc" />
</svg>
