<?xml version="1.0" encoding="UTF-8" standalone="no"?>
<!-- Created with Inkscape (http://www.inkscape.org/) -->

<svg
   width="64"
   height="64"
   viewBox="0 0 16.933333 16.933334"
   version="1.1"
   id="svg5"
   inkscape:version="1.1.2 (0a00cf5339, 2022-02-04, custom)"
   sodipodi:docname="text-x-readme.svg"
   xmlns:inkscape="http://www.inkscape.org/namespaces/inkscape"
   xmlns:sodipodi="http://sodipodi.sourceforge.net/DTD/sodipodi-0.dtd"
   xmlns="http://www.w3.org/2000/svg"
   xmlns:svg="http://www.w3.org/2000/svg">
  <sodipodi:namedview
     id="namedview7"
     pagecolor="#ffffff"
     bordercolor="#666666"
     borderopacity="1.0"
     inkscape:pageshadow="2"
     inkscape:pageopacity="0.0"
     inkscape:pagecheckerboard="0"
     inkscape:document-units="px"
     showgrid="false"
     units="px"
     height="64px"
     inkscape:zoom="12.40625"
     inkscape:cx="32.040302"
     inkscape:cy="32"
     inkscape:window-width="1920"
     inkscape:window-height="1017"
     inkscape:window-x="0"
     inkscape:window-y="32"
     inkscape:window-maximized="1"
     inkscape:current-layer="svg5" />
  <defs
     id="defs2" />
  <path
     id="rect1068"
     style="fill:#e5e5e5;fill-opacity:1;stroke-width:0.529167;stroke-linejoin:round"
     d="m 3.175,0.5291667 7.143751,3e-8 3.968749,3.96874997 1e-6,11.3770833 c 0,0.293158 -0.236009,0.529167 -0.529167,0.529167 H 3.175 c -0.2931584,0 -0.5291667,-0.236009 -0.5291667,-0.529167 V 1.0583334 c 0,-0.29315835 0.2360083,-0.5291667 0.5291667,-0.5291667 z"
     sodipodi:nodetypes="cccsssssc" />
  <path
     id="rect8140"
     style="opacity:0.75;fill:#ffffff;fill-opacity:1;stroke-width:0.518136;stroke-linejoin:round"
     d="m 3.175,0.5291668 h 7.143751 l -1e-6,2.9104166 0.79375,1.0583333 3.175,0 V 15.875 c 0,0.295111 -0.236009,0.529167 -0.529167,0.529167 H 3.175 c -0.293159,0 -0.529167,-0.236009 -0.529167,-0.529167 V 1.0583337 c 0,-0.2931589 0.236008,-0.5291669 0.529167,-0.5291669 z"
     sodipodi:nodetypes="sccccssssss" />
  <path
     id="path846"
     style="fill:#b3b3b3;fill-opacity:1;stroke-width:0.240069"
     d="M 8.4666669,5.8208334 A 3.175,3.175 0 0 0 5.2916666,8.9958336 3.175,3.175 0 0 0 8.4666669,12.170833 3.175,3.175 0 0 0 11.641665,8.9958336 3.175,3.175 0 0 0 8.4666669,5.8208334 Z m 0,0.5291666 A 2.6458332,2.6458332 0 0 1 11.112499,8.9958336 2.6458332,2.6458332 0 0 1 8.4666669,11.641667 2.6458332,2.6458332 0 0 1 5.8208332,8.9958336 2.6458332,2.6458332 0 0 1 8.4666669,6.35 Z m -0.02636,0.6046143 c -0.09384,0 -0.1742794,0.033719 -0.2418464,0.1012858 -0.067567,0.063813 -0.1012855,0.1428356 -0.1012855,0.236678 0,0.093843 0.033719,0.1747959 0.1012855,0.2423625 0.06757,0.067566 0.148004,0.1012858 0.2418464,0.1012858 0.0976,0 0.17855,-0.033719 0.242362,-0.1012858 0.06757,-0.067567 0.101286,-0.14852 0.101286,-0.2423625 0,-0.093843 -0.03372,-0.1728654 -0.101286,-0.236678 -0.06757,-0.067566 -0.14852,-0.1012858 -0.242362,-0.1012858 z M 8.2041495,8.165393 v 2.871659 H 8.6769899 V 8.165393 Z" />
  <path
     d="m 11.431588,14.834834 v -1.322996 h 0.860464 v 0.200904 h -0.620801 v 0.359173 h 0.576226 v 0.200904 h -0.576226 v 0.361111 h 0.625969 v 0.200904 z M 9.7830094,13.511838 h 0.2932826 l 0.392764,0.958655 h 0.0155 l 0.392765,-0.958655 h 0.293281 v 1.322996 h -0.22997 V 13.92592 h -0.01227 l -0.365632,0.905038 h -0.171839 l -0.365633,-0.906976 h -0.01227 v 0.910852 H 9.7830089 Z M 7.3185389,14.834834 H 7.0627252 l 0.4657619,-1.322996 h 0.2958656 l 0.4664078,1.322996 H 8.0349468 l -0.353359,-1.051679 h -0.010337 z m 0.0084,-0.518733 h 0.6976745 v 0.192506 h -0.697676 z m 1.5865621,0.518733 h -0.44832 v -1.322996 h 0.4573637 c 0.1313524,0 0.2441861,0.02649 0.3385013,0.07946 0.094746,0.05254 0.1675279,0.128121 0.2183461,0.226744 0.050818,0.09862 0.076227,0.216623 0.076227,0.354005 0,0.137812 -0.025625,0.256244 -0.076873,0.355297 -0.050818,0.09905 -0.124246,0.175064 -0.2202841,0.228036 -0.095607,0.05297 -0.2105941,0.07946 -0.3449609,0.07946 z M 8.7048448,14.62747 h 0.1970283 c 0.092162,0 0.1690351,-0.0168 0.2306198,-0.05039 0.061585,-0.03402 0.107881,-0.08462 0.1388888,-0.151808 0.031008,-0.06761 0.046512,-0.152024 0.046512,-0.25323 0,-0.101206 -0.015505,-0.185186 -0.046512,-0.251938 -0.031008,-0.06718 -0.076873,-0.117356 -0.1375965,-0.150517 -0.060293,-0.03359 -0.1352281,-0.05039 -0.2248062,-0.05039 H 8.7048448 Z m -3.8449592,0.207364 v -1.322996 h 0.4961237 c 0.1016365,0 0.1869077,0.01766 0.255814,0.05297 0.069337,0.03531 0.121662,0.08484 0.1569765,0.148579 0.035745,0.06331 0.053618,0.137165 0.053618,0.221576 0,0.08484 -0.018087,0.158484 -0.054264,0.22093 -0.035745,0.06201 -0.088502,0.110032 -0.1582685,0.144057 -0.069767,0.03359 -0.1554694,0.05039 -0.2571059,0.05039 H 4.99942 v -0.198968 h 0.3210592 c 0.059431,0 0.108096,-0.0082 0.1459947,-0.02455 0.037899,-0.01679 0.065892,-0.04113 0.083979,-0.073 0.018518,-0.0323 0.027778,-0.07192 0.027778,-0.118863 0,-0.04694 -0.00926,-0.08699 -0.027778,-0.120155 -0.018518,-0.03359 -0.046727,-0.059 -0.084625,-0.07623 -0.037898,-0.01766 -0.086778,-0.02649 -0.1466408,-0.02649 H 5.0995492 v 1.122738 z m 0.6834622,-0.599483 0.3275189,0.599483 H 5.6034251 l -0.321705,-0.599483 z m 0.4999992,0.599483 v -1.322996 h 0.8604644 v 0.200904 H 6.2830103 v 0.359173 h 0.5762271 v 0.200904 H 6.2830103 V 14.63393 H 6.908979 v 0.200904 z"
     style="font-weight:600;font-family:Inter;-inkscape-font-specification:'Inter Semi-Bold';stroke-width:0.264583;fill:#808080;fill-opacity:1"
     id="path2465" />
  <path
     id="path9791"
     style="opacity:0.2;fill:#ffffff;fill-opacity:1;stroke-width:0.140009;stroke-linejoin:round"
     d="m 3.175,0.5291668 c -0.2931583,0 -0.5291667,0.2360083 -0.5291667,0.5291667 V 1.3229168 C 2.6458334,1.0297584 2.8818417,0.7937501 3.175,0.7937501 h 7.14375 c 0,0 1e-6,-0.2645833 0,-0.2645833 z"
     sodipodi:nodetypes="sscsccs" />
  <path
     id="rect9905"
     style="opacity:0.2;fill:#000000;fill-opacity:1;stroke-width:2;stroke-linejoin:round"
     d="M 10 59 L 10 60 C 10 61.108 10.892 62 12 62 L 52 62 C 53.108 62 54 61.108 54 60 L 54 59 C 54 60.108 53.108 61 52 61 L 12 61 C 10.892 61 10 60.108 10 59 z "
     transform="scale(0.26458334)" />
  <path
     id="rect5598"
     style="opacity:0.1;fill:#000000;fill-opacity:1;stroke-width:0.529167;stroke-linejoin:round"
     d="M 10.444901,4.3115072 10.31875,3.4395834 14.2875,4.4979167 v 3.7041668 z"
     sodipodi:nodetypes="ccccc" />
  <path
     id="rect2607"
     style="fill:#f1f1f1;fill-opacity:1;stroke-width:0.529167;stroke-linejoin:round"
     d="m 14.2875,4.4979167 -3.439583,-1e-7 c -0.293158,0 -0.529166,-0.2360083 -0.529166,-0.5291667 V 0.52916673 Z"
     sodipodi:nodetypes="csscc" />
</svg>
