<?xml version="1.0" encoding="UTF-8" standalone="no"?>
<!-- Created with Inkscape (http://www.inkscape.org/) -->

<svg
   width="64"
   height="64"
   viewBox="0 0 16.933333 16.933334"
   version="1.1"
   id="svg5"
   inkscape:version="1.1.2 (0a00cf5339, 2022-02-04, custom)"
   sodipodi:docname="text-x-chdr.svg"
   xmlns:inkscape="http://www.inkscape.org/namespaces/inkscape"
   xmlns:sodipodi="http://sodipodi.sourceforge.net/DTD/sodipodi-0.dtd"
   xmlns="http://www.w3.org/2000/svg"
   xmlns:svg="http://www.w3.org/2000/svg">
  <sodipodi:namedview
     id="namedview7"
     pagecolor="#ffffff"
     bordercolor="#666666"
     borderopacity="1.0"
     inkscape:pageshadow="2"
     inkscape:pageopacity="0.0"
     inkscape:pagecheckerboard="0"
     inkscape:document-units="px"
     showgrid="false"
     units="px"
     height="64px"
     inkscape:zoom="12.40625"
     inkscape:cx="31.959698"
     inkscape:cy="32"
     inkscape:window-width="1920"
     inkscape:window-height="1017"
     inkscape:window-x="0"
     inkscape:window-y="32"
     inkscape:window-maximized="1"
     inkscape:current-layer="svg5" />
  <defs
     id="defs2" />
  <path
     id="rect1068"
     style="fill:#e5e5e5;fill-opacity:1;stroke-width:0.529167;stroke-linejoin:round"
     d="m 3.175,0.5291667 7.143751,3e-8 3.968749,3.96874997 1e-6,11.3770833 c 0,0.293158 -0.236009,0.529167 -0.529167,0.529167 H 3.175 c -0.2931584,0 -0.5291667,-0.236009 -0.5291667,-0.529167 V 1.0583334 c 0,-0.29315835 0.2360083,-0.5291667 0.5291667,-0.5291667 z"
     sodipodi:nodetypes="cccsssssc" />
  <path
     id="rect8140"
     style="opacity:0.75;fill:#ffffff;fill-opacity:1;stroke-width:0.518136;stroke-linejoin:round"
     d="m 3.175,0.5291668 h 7.143751 l -1e-6,2.9104166 0.79375,1.0583333 3.175,0 V 15.875 c 0,0.295111 -0.236009,0.529167 -0.529167,0.529167 H 3.175 c -0.293159,0 -0.529167,-0.236009 -0.529167,-0.529167 V 1.0583337 c 0,-0.2931589 0.236008,-0.5291669 0.529167,-0.5291669 z"
     sodipodi:nodetypes="sccccssssss" />
  <path
     d="M 10.453843,12.170835 H 9.5711984 V 9.0770296 q 0,-0.6278606 -0.2638835,-0.909943 -0.2638835,-0.2820823 -0.8189487,-0.2820823 -0.2274858,0 -0.4549715,0.081895 Q 7.8150084,8.0396946 7.6330198,8.1943849 7.4601306,8.3399758 7.341838,8.5674615 7.2326448,8.7949473 7.2326448,9.0861291 V 12.170835 H 6.3500001 V 5.2916667 H 7.2326448 V 7.79401 Q 7.4601306,7.4573311 7.8241078,7.2844419 8.1971844,7.1024533 8.7067525,7.1024533 q 0.3639772,0 0.6824573,0.1091932 0.31848,0.1091931 0.5550656,0.3275794 0.2365846,0.2183864 0.3730766,0.5550653 0.136491,0.3366789 0.136491,0.782551 z"
     id="path17404"
     style="font-weight:bold;font-size:9.09943px;line-height:1.25;font-family:'나눔스퀘어';-inkscape-font-specification:'나눔스퀘어 Bold';fill:#df523c;fill-opacity:1;stroke-width:0.227486" />
  <path
     id="path17404-7"
     style="font-weight:bold;font-size:9.09943px;line-height:1.25;font-family:'나눔스퀘어';-inkscape-font-specification:'나눔스퀘어 Bold';opacity:0.2;fill:#000000;fill-opacity:1;stroke-width:0.227486"
     d="m 8.488371,7.884791 c -0.151657,0 -0.3030953,0.027569 -0.4547526,0.082166 C 7.8880277,8.0154867 7.7544518,8.0912059 7.633126,8.1943328 7.5178666,8.2913934 7.4205328,8.4157796 7.3416711,8.5674366 7.2688755,8.7190939 7.2326339,8.8921468 7.2326339,9.0862681 v 0.2645834 c 0,-0.1941214 0.036242,-0.3671742 0.1090372,-0.5188316 C 7.4205328,8.6803629 7.5178666,8.5559767 7.633126,8.4589162 7.7544518,8.3557892 7.8880277,8.28007 8.0336184,8.2315399 8.1852757,8.1769429 8.336714,8.1493739 8.488371,8.1493739 c 0.3700436,0 0.6431492,0.094099 0.8190715,0.2821535 0.1759225,0.1880547 0.2635499,0.4914482 0.2635499,0.910022 v -0.264583 c 0,-0.4185737 -0.087627,-0.7219672 -0.2635499,-0.9100219 C 9.1315205,7.9788895 8.8584146,7.884791 8.488371,7.884791 Z m -2.1383707,4.286043 v 0.264583 h 0.8826336 v -0.264583 z m 3.2209921,0 v 0.264583 h 0.8826336 v -0.264583 z" />
  <path
     d="m 7.4717215,14.834834 v -1.322995 h 0.2396638 v 0.560076 h 0.6130488 v -0.560076 h 0.24031 v 1.322995 h -0.24031 V 14.272819 H 7.7113853 v 0.562015 z M 7.2514365,13.958221 H 7.0098347 c -0.00689,-0.03962 -0.019595,-0.07472 -0.038114,-0.105297 -0.018518,-0.03101 -0.041559,-0.05728 -0.069121,-0.07881 -0.027563,-0.02153 -0.059001,-0.03768 -0.094315,-0.04845 -0.034884,-0.0112 -0.072567,-0.0168 -0.1130491,-0.0168 -0.071921,0 -0.1356587,0.01809 -0.1912141,0.05426 -0.055555,0.03575 -0.099052,0.08829 -0.1304909,0.157624 -0.031439,0.06891 -0.047158,0.1531 -0.047158,0.252584 0,0.101206 0.015719,0.186477 0.047158,0.255813 0.031869,0.06891 0.075366,0.121016 0.1304909,0.15633 0.055555,0.03489 0.1190779,0.05233 0.1905683,0.05233 0.039621,0 0.076658,-0.0052 0.111111,-0.0155 0.034884,-0.01077 0.066107,-0.02649 0.093669,-0.04716 0.027993,-0.02067 0.051464,-0.04608 0.070413,-0.07623 0.019381,-0.03015 0.032731,-0.0646 0.040052,-0.103359 l 0.2416018,0.0013 c -0.00904,0.06287 -0.028639,0.121873 -0.058785,0.177002 -0.029716,0.05513 -0.068691,0.103791 -0.1169249,0.145994 -0.048234,0.04177 -0.1046509,0.0745 -0.1692505,0.09819 -0.064599,0.02325 -0.1363046,0.03488 -0.215116,0.03488 -0.1162791,0 -0.2200688,-0.02692 -0.3113694,-0.08075 -0.091301,-0.05383 -0.1632212,-0.131568 -0.2157621,-0.233203 -0.052541,-0.101637 -0.078811,-0.223515 -0.078811,-0.365633 0,-0.14255 0.026486,-0.264427 0.079457,-0.365633 0.052971,-0.101637 0.1251074,-0.179372 0.216408,-0.233204 0.091301,-0.05383 0.1946597,-0.08075 0.3100774,-0.08075 0.073643,0 0.1421188,0.01034 0.2054262,0.03101 0.063307,0.02067 0.1197242,0.05103 0.1692505,0.09108 0.049526,0.03962 0.090224,0.08828 0.122093,0.145996 0.032299,0.05728 0.053402,0.12274 0.063307,0.196382 z m 2.8914725,0.876613 v -1.322995 h 0.496124 c 0.101636,0 0.186907,0.01765 0.255813,0.05297 0.06934,0.03531 0.121662,0.08484 0.156977,0.14858 0.03575,0.06331 0.05362,0.137165 0.05362,0.221575 0,0.08484 -0.01809,0.158484 -0.05426,0.22093 -0.03575,0.06201 -0.0885,0.110033 -0.158269,0.144058 -0.06977,0.03359 -0.155469,0.05039 -0.257105,0.05039 H 10.28245 v -0.198965 h 0.321059 c 0.05943,0 0.108098,-0.0082 0.145995,-0.02455 0.0379,-0.01679 0.06589,-0.04113 0.08398,-0.073 0.01852,-0.0323 0.02778,-0.07192 0.02778,-0.118863 0,-0.04694 -0.0093,-0.08699 -0.02778,-0.120155 -0.01852,-0.03359 -0.04673,-0.059 -0.08463,-0.07623 -0.0379,-0.01766 -0.08678,-0.02649 -0.146641,-0.02649 h -0.219638 v 1.122738 z m 0.683462,-0.599483 0.327519,0.599483 H 10.886448 L 10.564743,14.235351 Z M 9.2734001,14.834834 H 8.82508 v -1.322995 h 0.4573641 c 0.1313521,0 0.2441858,0.02649 0.338501,0.07946 0.094746,0.05254 0.1675279,0.128122 0.2183461,0.226744 0.050818,0.09862 0.076227,0.216624 0.076227,0.354006 0,0.137811 -0.025625,0.256244 -0.076873,0.355296 -0.050818,0.09905 -0.124246,0.175064 -0.2202842,0.228036 -0.095607,0.05297 -0.210594,0.07946 -0.3449608,0.07946 z M 9.0647439,14.62747 h 0.1970283 c 0.092162,0 0.1690351,-0.0168 0.2306201,-0.05039 0.061585,-0.03402 0.1078809,-0.08462 0.1388888,-0.151808 0.031008,-0.06761 0.046512,-0.152024 0.046512,-0.25323 0,-0.101206 -0.015505,-0.185185 -0.046512,-0.251938 -0.031008,-0.06718 -0.076874,-0.117355 -0.1375968,-0.150517 -0.060293,-0.03359 -0.1352281,-0.05039 -0.2248062,-0.05039 H 9.0647439 Z"
     style="font-weight:600;font-family:Inter;-inkscape-font-specification:'Inter Semi-Bold';stroke-width:0.264583;fill:#808080;fill-opacity:1"
     id="path2847" />
  <path
     id="path9791"
     style="opacity:0.2;fill:#ffffff;fill-opacity:1;stroke-width:0.140009;stroke-linejoin:round"
     d="m 3.175,0.5291668 c -0.2931583,0 -0.5291667,0.2360083 -0.5291667,0.5291667 V 1.3229168 C 2.6458334,1.0297584 2.8818417,0.7937501 3.175,0.7937501 h 7.14375 c 0,0 1e-6,-0.2645833 0,-0.2645833 z"
     sodipodi:nodetypes="sscsccs" />
  <path
     id="rect9905"
     style="opacity:0.2;fill:#000000;fill-opacity:1;stroke-width:2;stroke-linejoin:round"
     d="M 10 59 L 10 60 C 10 61.108 10.892 62 12 62 L 52 62 C 53.108 62 54 61.108 54 60 L 54 59 C 54 60.108 53.108 61 52 61 L 12 61 C 10.892 61 10 60.108 10 59 z "
     transform="scale(0.26458334)" />
  <path
     id="rect5598"
     style="opacity:0.1;fill:#000000;fill-opacity:1;stroke-width:0.529167;stroke-linejoin:round"
     d="M 10.444901,4.3115072 10.31875,3.4395834 14.2875,4.4979167 v 3.7041668 z"
     sodipodi:nodetypes="ccccc" />
  <path
     id="rect2607"
     style="fill:#f1f1f1;fill-opacity:1;stroke-width:0.529167;stroke-linejoin:round"
     d="m 14.2875,4.4979167 -3.439583,-1e-7 c -0.293158,0 -0.529166,-0.2360083 -0.529166,-0.5291667 V 0.52916673 Z"
     sodipodi:nodetypes="csscc" />
</svg>
