<?xml version="1.0" encoding="UTF-8" standalone="no"?>
<!-- Created with Inkscape (http://www.inkscape.org/) -->

<svg
   width="64"
   height="64"
   viewBox="0 0 16.933333 16.933334"
   version="1.1"
   id="svg5"
   inkscape:version="1.1.2 (0a00cf5339, 2022-02-04, custom)"
   sodipodi:docname="text-x-apport.svg"
   xmlns:inkscape="http://www.inkscape.org/namespaces/inkscape"
   xmlns:sodipodi="http://sodipodi.sourceforge.net/DTD/sodipodi-0.dtd"
   xmlns="http://www.w3.org/2000/svg"
   xmlns:svg="http://www.w3.org/2000/svg">
  <sodipodi:namedview
     id="namedview7"
     pagecolor="#ffffff"
     bordercolor="#666666"
     borderopacity="1.0"
     inkscape:pageshadow="2"
     inkscape:pageopacity="0.0"
     inkscape:pagecheckerboard="0"
     inkscape:document-units="px"
     showgrid="false"
     units="px"
     height="64px"
     inkscape:zoom="12.40625"
     inkscape:cx="31.959698"
     inkscape:cy="32"
     inkscape:window-width="1920"
     inkscape:window-height="1017"
     inkscape:window-x="0"
     inkscape:window-y="32"
     inkscape:window-maximized="1"
     inkscape:current-layer="svg5" />
  <defs
     id="defs2" />
  <path
     id="rect1068"
     style="fill:#e5e5e5;fill-opacity:1;stroke-width:0.529167;stroke-linejoin:round"
     d="m 3.175,0.5291667 7.143751,3e-8 3.968749,3.96874997 1e-6,11.3770833 c 0,0.293158 -0.236009,0.529167 -0.529167,0.529167 H 3.175 c -0.2931584,0 -0.5291667,-0.236009 -0.5291667,-0.529167 V 1.0583334 c 0,-0.29315835 0.2360083,-0.5291667 0.5291667,-0.5291667 z"
     sodipodi:nodetypes="cccsssssc" />
  <path
     id="rect8140"
     style="opacity:0.75;fill:#ffffff;fill-opacity:1;stroke-width:0.518136;stroke-linejoin:round"
     d="m 3.175,0.5291668 h 7.143751 l -1e-6,2.9104166 0.79375,1.0583333 3.175,0 V 15.875 c 0,0.295111 -0.236009,0.529167 -0.529167,0.529167 H 3.175 c -0.293159,0 -0.529167,-0.236009 -0.529167,-0.529167 V 1.0583337 c 0,-0.2931589 0.236008,-0.5291669 0.529167,-0.5291669 z"
     sodipodi:nodetypes="sccccssssss" />
  <path
     d="m 6.164871,14.834751 v -1.322916 h 0.4960937 c 0.1016302,0 0.1868964,0.01895 0.2557981,0.05684 0.069333,0.03789 0.1216549,0.09 0.1569673,0.156322 0.035743,0.06589 0.053614,0.140817 0.053614,0.224791 0,0.08484 -0.017873,0.160198 -0.053614,0.226086 -0.035743,0.06589 -0.088496,0.117778 -0.158259,0.155675 -0.069763,0.03747 -0.1556752,0.0562 -0.2577362,0.0562 H 6.3289436 V 14.190734 H 6.625437 c 0.059428,0 0.10809,-0.01034 0.145986,-0.03101 0.037896,-0.02068 0.065887,-0.0491 0.083974,-0.08527 0.018518,-0.03617 0.027776,-0.07773 0.027776,-0.12467 0,-0.04694 -0.00926,-0.08828 -0.027776,-0.124023 -0.018087,-0.03574 -0.046293,-0.06352 -0.08462,-0.08333 -0.037896,-0.02024 -0.086773,-0.03036 -0.1466319,-0.03036 H 6.4045202 v 1.12267 z m 3.5230371,-0.661457 c 0,0.14254 -0.026699,0.264625 -0.080098,0.366255 -0.052969,0.1012 -0.1253156,0.178715 -0.2170408,0.232545 -0.091295,0.05383 -0.1948633,0.08075 -0.3107048,0.08075 -0.1158412,0 -0.2196248,-0.02692 -0.3113502,-0.08075 -0.091295,-0.05426 -0.1636423,-0.13199 -0.2170413,-0.23319 -0.052968,-0.10163 -0.079453,-0.223501 -0.079453,-0.36561 0,-0.142541 0.026484,-0.264412 0.079453,-0.365611 0.053399,-0.101631 0.1257457,-0.17936 0.217041,-0.23319 0.091725,-0.05383 0.195509,-0.08074 0.3113502,-0.08074 0.1158415,0 0.2194097,0.02691 0.3107048,0.08074 0.091725,0.05383 0.1640726,0.131563 0.2170408,0.23319 0.053399,0.101199 0.080098,0.22307 0.080098,0.365611 z m -0.2409414,0 c 0,-0.100339 -0.015719,-0.18496 -0.047155,-0.253862 -0.031006,-0.06933 -0.07407,-0.121654 -0.1291913,-0.156967 -0.055121,-0.03574 -0.1186402,-0.05361 -0.1905566,-0.05361 -0.071916,0 -0.1354354,0.01787 -0.1905569,0.05361 -0.055121,0.03531 -0.0984,0.08764 -0.1298371,0.156967 -0.031006,0.0689 -0.046509,0.153523 -0.046509,0.253862 0,0.100337 0.015502,0.185173 0.046509,0.254505 0.031437,0.0689 0.074716,0.121225 0.1298371,0.156967 0.055122,0.03531 0.1186403,0.05297 0.1905569,0.05297 0.071916,0 0.1354352,-0.01766 0.1905566,-0.05297 0.055121,-0.03574 0.098185,-0.08806 0.1291913,-0.156967 0.031436,-0.06933 0.047155,-0.154168 0.047155,-0.254505 z m 1.5935723,-0.460566 v -0.200893 h 1.055491 v 0.200893 h -0.40889 v 1.122023 h -0.237712 v -1.122023 z m -1.1252538,1.122023 v -1.322916 h 0.4960938 c 0.10163,0 0.186896,0.01766 0.255798,0.05297 0.06933,0.03531 0.121655,0.08484 0.156967,0.14857 0.03574,0.06331 0.05361,0.137161 0.05361,0.221562 0,0.08484 -0.01809,0.158475 -0.05426,0.220917 -0.03574,0.06201 -0.08849,0.11003 -0.158259,0.144048 -0.06976,0.03359 -0.15546,0.05039 -0.25709,0.05039 h -0.353338 v -0.198955 h 0.32104 c 0.05943,0 0.108089,-0.0082 0.145986,-0.02455 0.03789,-0.01679 0.06588,-0.04112 0.08397,-0.07299 0.01852,-0.0323 0.02778,-0.07192 0.02778,-0.118856 0,-0.04694 -0.0093,-0.08699 -0.02778,-0.120147 -0.01852,-0.03359 -0.04673,-0.059 -0.08462,-0.07622 -0.03789,-0.01765 -0.08677,-0.02648 -0.146632,-0.02648 h -0.219624 v 1.12267 z m 0.6834208,-0.599445 0.327499,0.599445 H 10.65878 L 10.337094,14.235306 Z M 5.0182988,14.834751 H 4.7625007 l 0.4657336,-1.322916 h 0.2958475 l 0.4663798,1.322916 H 5.7346632 L 5.3813256,13.783136 h -0.010335 z m 0.0084,-0.518702 h 0.6976311 v 0.192495 h -0.697634 z m 2.3086413,0.518702 v -1.322916 h 0.4960945 c 0.1016301,0 0.1868963,0.01895 0.2557983,0.05684 0.069332,0.03789 0.1216549,0.09 0.156967,0.156322 0.035743,0.06589 0.053614,0.140817 0.053614,0.224791 0,0.08484 -0.01787,0.160198 -0.053614,0.226086 -0.035743,0.06589 -0.088496,0.117778 -0.1582589,0.155675 -0.069763,0.03747 -0.1556753,0.0562 -0.2577362,0.0562 H 7.4994129 v -0.197016 h 0.2964937 c 0.059428,0 0.1080899,-0.01034 0.1459857,-0.03101 0.037896,-0.02068 0.065887,-0.0491 0.083974,-0.08527 0.018518,-0.03617 0.027776,-0.07773 0.027776,-0.12467 0,-0.04694 -0.00926,-0.08828 -0.027776,-0.124023 -0.018087,-0.03574 -0.046293,-0.06352 -0.08462,-0.08333 -0.037896,-0.02024 -0.086774,-0.03036 -0.146632,-0.03036 H 7.5749898 v 1.12267 z"
     style="font-weight:600;font-family:Inter;-inkscape-font-specification:'Inter Semi-Bold';stroke-width:0.264583;fill:#808080;fill-opacity:1"
     id="path24526" />
  <path
     id="path9791"
     style="opacity:0.2;fill:#ffffff;fill-opacity:1;stroke-width:0.140009;stroke-linejoin:round"
     d="m 3.175,0.5291668 c -0.2931583,0 -0.5291667,0.2360083 -0.5291667,0.5291667 V 1.3229168 C 2.6458334,1.0297584 2.8818417,0.7937501 3.175,0.7937501 h 7.14375 c 0,0 1e-6,-0.2645833 0,-0.2645833 z"
     sodipodi:nodetypes="sscsccs" />
  <path
     id="rect9905"
     style="opacity:0.2;fill:#000000;fill-opacity:1;stroke-width:2;stroke-linejoin:round"
     d="M 10 59 L 10 60 C 10 61.108 10.892 62 12 62 L 52 62 C 53.108 62 54 61.108 54 60 L 54 59 C 54 60.108 53.108 61 52 61 L 12 61 C 10.892 61 10 60.108 10 59 z "
     transform="scale(0.26458334)" />
  <path
     id="rect5598"
     style="opacity:0.1;fill:#000000;fill-opacity:1;stroke-width:0.529167;stroke-linejoin:round"
     d="M 10.444901,4.3115072 10.31875,3.4395834 14.2875,4.4979167 v 3.7041668 z"
     sodipodi:nodetypes="ccccc" />
  <path
     id="rect2607"
     style="fill:#f1f1f1;fill-opacity:1;stroke-width:0.529167;stroke-linejoin:round"
     d="m 14.2875,4.4979167 -3.439583,-1e-7 c -0.293158,0 -0.529166,-0.2360083 -0.529166,-0.5291667 V 0.52916673 Z"
     sodipodi:nodetypes="csscc" />
</svg>
