<?xml version="1.0" encoding="UTF-8" standalone="no"?>
<!-- Created with Inkscape (http://www.inkscape.org/) -->

<svg
   width="64"
   height="64"
   viewBox="0 0 16.933333 16.933333"
   version="1.1"
   id="svg5"
   inkscape:version="1.1.2 (0a00cf5339, 2022-02-04, custom)"
   sodipodi:docname="video-webm.svg"
   xmlns:inkscape="http://www.inkscape.org/namespaces/inkscape"
   xmlns:sodipodi="http://sodipodi.sourceforge.net/DTD/sodipodi-0.dtd"
   xmlns="http://www.w3.org/2000/svg"
   xmlns:svg="http://www.w3.org/2000/svg">
  <sodipodi:namedview
     id="namedview7"
     pagecolor="#ffffff"
     bordercolor="#666666"
     borderopacity="1.0"
     inkscape:pageshadow="2"
     inkscape:pageopacity="0.0"
     inkscape:pagecheckerboard="0"
     inkscape:document-units="px"
     showgrid="false"
     units="px"
     height="48px"
     inkscape:zoom="12.40625"
     inkscape:cx="31.959698"
     inkscape:cy="32"
     inkscape:window-width="1920"
     inkscape:window-height="1017"
     inkscape:window-x="0"
     inkscape:window-y="32"
     inkscape:window-maximized="1"
     inkscape:current-layer="svg5"
     inkscape:lockguides="true"
     showguides="false" />
  <defs
     id="defs2" />
  <path
     id="rect1786"
     style="opacity:1;fill:#a852d0;stroke-width:0.519224;stroke-linejoin:round;fill-opacity:1"
     d="M 1.3229167,2.3812499 H 15.610416 c 0.293158,0 0.529167,0.2360084 0.529167,0.5291668 V 14.022916 c 0,0.293158 -0.236009,0.529167 -0.529167,0.529167 H 1.3229167 c -0.2931583,0 -0.52916671,-0.236009 -0.52916671,-0.529167 V 2.9104167 c 0,-0.2931584 0.23600841,-0.5291668 0.52916671,-0.5291668 z" />
  <path
     id="rect5201"
     style="opacity:0.2;fill:#000000;fill-opacity:1;stroke-width:0.264583"
     d="m 0.7937501,13.758333 v 0.264583 c 0,0.293158 0.2360083,0.529167 0.5291667,0.529167 H 15.610416 c 0.293159,0 0.529167,-0.236009 0.529167,-0.529167 v -0.264583 c 0,0.293158 -0.236008,0.529166 -0.529167,0.529166 H 1.3229168 c -0.2931584,0 -0.5291667,-0.236008 -0.5291667,-0.529166 z" />
  <path
     id="rect5559"
     style="opacity:0.2;fill:#ffffff;fill-opacity:1;stroke-width:0.264583"
     d="m 1.3229167,2.3812499 c -0.2931583,0 -0.5291666,0.236008 -0.5291666,0.529166 v 0.264584 c 0,-0.293159 0.2360083,-0.529167 0.5291666,-0.529167 H 15.610416 c 0.293158,0 0.529167,0.236008 0.529167,0.529167 v -0.264584 c 0,-0.293158 -0.236009,-0.529166 -0.529167,-0.529166 z" />
  <path
     style="color:#000000;fill:#ffffff;fill-opacity:1;stroke-width:0.818065;stroke-linecap:round;stroke-linejoin:round;stroke-miterlimit:1;-inkscape-stroke:none;opacity:0.7"
     d="M 7.1041536,6.1481993 C 6.7644585,5.963339 6.3506117,6.2088413 6.3499999,6.5955786 v 4.0823364 c 6.118e-4,0.386737 0.4144586,0.63224 0.7541537,0.44738 l 3.7420084,-2.04037 c 0.355117,-0.1932684 0.355117,-0.7030882 0,-0.8963565 z"
     id="path3846"
     sodipodi:nodetypes="ccccccc" />
  <path
     id="path3846-75"
     style="color:#000000;opacity:0.2;fill:#000000;fill-opacity:1;stroke-width:3.0919;stroke-linecap:round;stroke-linejoin:round;stroke-miterlimit:1;-inkscape-stroke:none"
     d="M 7 16 L 7 17 L 10 17 L 10 16 L 7 16 z M 54 16 L 54 17 L 57 17 L 57 16 L 54 16 z M 7 21 L 7 22 L 10 22 L 10 21 L 7 21 z M 54 21 L 54 22 L 57 22 L 57 21 L 54 21 z M 7 26 L 7 27 L 10 27 L 10 26 L 7 26 z M 54 26 L 54 27 L 57 27 L 57 26 L 54 26 z M 7 31 L 7 32 L 10 32 L 10 31 L 7 31 z M 54 31 L 54 32 L 57 32 L 57 31 L 54 31 z M 41.935547 33.142578 C 41.808682 33.624455 41.495372 34.063146 40.994141 34.335938 L 26.849609 42.048828 C 25.565722 42.747512 24.002312 41.819105 24 40.357422 L 24 41.357422 C 24.002312 42.819105 25.565722 43.747512 26.849609 43.048828 L 40.994141 35.335938 C 41.835084 34.878262 42.148394 33.951049 41.935547 33.142578 z M 7 36 L 7 37 L 10 37 L 10 36 L 7 36 z M 54 36 L 54 37 L 57 37 L 57 36 L 54 36 z M 7 41 L 7 42 L 10 42 L 10 41 L 7 41 z M 54 41 L 54 42 L 57 42 L 57 41 L 54 41 z M 7 46 L 7 47 L 10 47 L 10 46 L 7 46 z M 54 46 L 54 47 L 57 47 L 57 46 L 54 46 z M 7 51 L 7 52 L 10 52 L 10 51 L 7 51 z M 54 51 L 54 52 L 57 52 L 57 51 L 54 51 z "
     transform="scale(0.26458333)" />
  <path
     id="rect3981"
     style="opacity:0.6;fill:#ffffff;stroke-width:1.26933;stroke-linejoin:round"
     d="M 7 13 L 7 16 L 10 16 L 10 13 L 7 13 z M 7 18 L 7 21 L 10 21 L 10 18 L 7 18 z M 7 23 L 7 26 L 10 26 L 10 23 L 7 23 z M 7 28 L 7 31 L 10 31 L 10 28 L 7 28 z M 7 33 L 7 36 L 10 36 L 10 33 L 7 33 z M 7 38 L 7 41 L 10 41 L 10 38 L 7 38 z M 7 43 L 7 46 L 10 46 L 10 43 L 7 43 z M 7 48 L 7 51 L 10 51 L 10 48 L 7 48 z "
     transform="scale(0.26458333)" />
  <path
     id="rect3981-0"
     style="fill:#f9f9f9;stroke-width:1.26933;stroke-linejoin:round;opacity:0.6"
     d="M 54 13 L 54 16 L 57 16 L 57 13 L 54 13 z M 54 18 L 54 21 L 57 21 L 57 18 L 54 18 z M 54 23 L 54 26 L 57 26 L 57 23 L 54 23 z M 54 28 L 54 31 L 57 31 L 57 28 L 54 28 z M 54 33 L 54 36 L 57 36 L 57 33 L 54 33 z M 54 38 L 54 41 L 57 41 L 57 38 L 54 38 z M 54 43 L 54 46 L 57 46 L 57 43 L 54 43 z M 54 48 L 54 51 L 57 51 L 57 48 L 54 48 z "
     transform="scale(0.26458333)" />
</svg>
