<?xml version="1.0" encoding="UTF-8" standalone="no"?>
<!-- Created with Inkscape (http://www.inkscape.org/) -->

<svg
   width="16"
   height="16"
   viewBox="0 0 4.2333333 4.2333335"
   version="1.1"
   id="svg5"
   inkscape:version="1.2 (dc2aedaf03, 2022-05-15)"
   sodipodi:docname="applications-ebook-reader.svg"
   xmlns:inkscape="http://www.inkscape.org/namespaces/inkscape"
   xmlns:sodipodi="http://sodipodi.sourceforge.net/DTD/sodipodi-0.dtd"
   xmlns="http://www.w3.org/2000/svg"
   xmlns:svg="http://www.w3.org/2000/svg">
  <sodipodi:namedview
     id="namedview7"
     pagecolor="#ffffff"
     bordercolor="#666666"
     borderopacity="1.0"
     inkscape:pageshadow="2"
     inkscape:pageopacity="0.0"
     inkscape:pagecheckerboard="0"
     inkscape:document-units="px"
     showgrid="false"
     units="px"
     height="64px"
     inkscape:zoom="46.4375"
     inkscape:cx="8.0107672"
     inkscape:cy="8.0107672"
     inkscape:window-width="1920"
     inkscape:window-height="1024"
     inkscape:window-x="0"
     inkscape:window-y="32"
     inkscape:window-maximized="1"
     inkscape:current-layer="svg5"
     inkscape:showpageshadow="2"
     inkscape:deskcolor="#d1d1d1" />
  <defs
     id="defs2" />
  <rect
     style="fill:#f47c29;stroke-width:0.264583;fill-opacity:1"
     id="rect846"
     width="4.2333336"
     height="4.2333336"
     x="-2.220446e-16"
     y="0"
     ry="1.0583334" />
  <path
     id="path2904"
     style="color:#000000;fill:#ffffff;fill-opacity:1;stroke:none;stroke-width:0.0856002;stroke-linecap:round;stroke-linejoin:round;-inkscape-stroke:none"
     d="M 1.2567709 1.0583333 C 0.85600694 1.0596933 0.62401555 1.2362522 0.62218425 1.2376506 C 0.60322917 1.2488416 0.58303806 1.2617765 0.56534018 1.2795085 C 0.5465918 1.2982925 0.52916667 1.3248697 0.52916667 1.3580567 L 0.52916667 3.155363 C 0.52926365 3.189677 0.56797267 3.2103157 0.59634604 3.1910197 C 0.59634604 3.1910197 0.68731999 3.1287134 0.81700441 3.0659628 C 0.94668862 3.0032128 1.1144508 2.9415238 1.2578044 2.9414226 C 1.5928396 2.9464426 1.6366011 3.0121537 1.8164266 3.0788819 C 1.8308206 3.0797686 1.8450816 3.0817848 1.8758545 3.0768148 C 1.8975885 3.0733048 1.9210429 3.0675329 1.9430339 3.0525269 C 1.9650269 3.0375159 1.984366 3.00814 1.984375 2.975529 L 1.984375 1.5291057 C 1.984372 1.5278757 1.9844914 1.5267083 1.984375 1.5254883 C 1.9666702 1.322373 1.8167834 1.2033565 1.6608806 1.1399821 C 1.5049778 1.076608 1.3380369 1.061581 1.2583211 1.0583333 C 1.2577159 1.0583203 1.2573809 1.0583203 1.2567709 1.0583333 z M 2.9750123 1.0583333 C 2.8952963 1.0615933 2.7283555 1.0766082 2.5724528 1.1399821 C 2.41655 1.2033561 2.2666652 1.3223716 2.2489584 1.5254883 C 2.2488451 1.5267183 2.2489664 1.5278757 2.2489584 1.5291057 L 2.2489584 2.975529 C 2.2489665 3.008141 2.2683065 3.0375149 2.2902995 3.0525269 C 2.3122905 3.0675419 2.3357449 3.0732978 2.3574789 3.0768148 C 2.3882528 3.0817948 2.4025108 3.0797719 2.4169068 3.0788819 C 2.5967316 3.012151 2.640494 2.9464491 2.975529 2.9414226 C 3.1188822 2.9415277 3.2866447 3.0032133 3.416329 3.0659628 C 3.5460131 3.1287137 3.6369874 3.1910197 3.6369874 3.1910197 C 3.6653603 3.2103157 3.7040727 3.1896879 3.7041667 3.155363 L 3.7041667 1.3580567 C 3.7041667 1.3248697 3.6867432 1.2982925 3.6679932 1.2795085 C 3.6502952 1.2617765 3.6301031 1.2488356 3.6111491 1.2376506 C 3.6093091 1.2362406 3.3773258 1.0596899 2.9765625 1.0583333 C 2.9759514 1.0583204 2.9756123 1.0583207 2.9750123 1.0583333 z " />
</svg>
