<?xml version="1.0" encoding="UTF-8" standalone="no"?>
<!-- Created with Inkscape (http://www.inkscape.org/) -->

<svg
   width="16"
   height="16"
   viewBox="0 0 4.2333333 4.2333335"
   version="1.1"
   id="svg5"
   inkscape:version="1.2 (dc2aedaf03, 2022-05-15)"
   sodipodi:docname="emacs.svg"
   xmlns:inkscape="http://www.inkscape.org/namespaces/inkscape"
   xmlns:sodipodi="http://sodipodi.sourceforge.net/DTD/sodipodi-0.dtd"
   xmlns="http://www.w3.org/2000/svg"
   xmlns:svg="http://www.w3.org/2000/svg">
  <sodipodi:namedview
     id="namedview7"
     pagecolor="#ffffff"
     bordercolor="#666666"
     borderopacity="1.0"
     inkscape:pageshadow="2"
     inkscape:pageopacity="0.0"
     inkscape:pagecheckerboard="0"
     inkscape:document-units="px"
     showgrid="false"
     units="px"
     height="64px"
     inkscape:zoom="19.136077"
     inkscape:cx="4.3112284"
     inkscape:cy="15.860095"
     inkscape:window-width="1409"
     inkscape:window-height="901"
     inkscape:window-x="237"
     inkscape:window-y="108"
     inkscape:window-maximized="0"
     inkscape:current-layer="svg5"
     inkscape:showpageshadow="2"
     inkscape:deskcolor="#d1d1d1" />
  <defs
     id="defs2" />
  <rect
     style="fill:#c462ed;stroke-width:0.264583;fill-opacity:1"
     id="rect846"
     width="4.2333336"
     height="4.2333336"
     x="-2.220446e-16"
     y="0"
     ry="1.0583334" />
  <path
     d="m 2.5142677,0.52932869 c -0.035179,8.94e-4 -0.070575,0.00566 -0.105419,0.01434 -0.2095745,0.0521968 -0.7111897,0.2350609 -0.7111897,0.2350609 0.6331937,-0.0420042 0.7398788,-0.0370403 0.792192,0.0284862 0.030915,0.0386437 -0.00576,0.0964046 -0.1726624,0.1344866 -0.1819068,0.0416665 -0.561394,0.10076781 -0.561394,0.10076781 -0.3652685,0.043459 -0.6234663,0.059973 -0.6889044,0.2337043 -0.042454,0.1134686 0.069161,0.2051578 0.1195647,0.2637409 0.2096868,0.211142 0.4982331,0.3151559 0.6848348,0.3929954 0.07023,0.029346 0.2734303,0.080808 0.2734303,0.080808 -0.5868432,3.3e-4 -0.9950673,0.2096047 -1.22704461,0.4369843 -0.2605374,0.2831654 -0.1137218,0.5940275 0.47322221,0.7571165 0.3336818,0.079865 0.5256777,0.1021574 1.0200823,0.065305 0.2961594,-0.0336 0.3437186,-0.026331 0.348425,-0.00136 0.00684,0.035172 -0.3214415,0.142311 -0.4108236,0.1747938 -0.227271,0.082329 -0.8262045,0.2567559 -0.8292045,0.2575395 0,0 0.1758819,0.00294 0.3997776,-0.030231 0.090616,-0.013778 0.4344397,-0.068899 0.689292,-0.1420443 0,0 0.3108574,-0.088075 0.4749664,-0.1620035 0.171939,-0.077171 0.2640336,-0.1399299 0.301335,-0.223042 0.01344,-0.027894 0.029452,-0.1163606 -0.093985,-0.1544463 C 3.0951905,2.9348688 2.8537283,2.961696 2.3745485,3.0091909 1.8428314,3.0207268 1.6598794,2.9392396 1.5606534,2.8710225 1.4651062,2.8012381 1.49558,2.5915792 1.8685772,2.3871421 2.0560827,2.2788262 2.8057197,2.0557705 2.8057197,2.0557705 2.5395798,1.9395045 2.0441412,1.7367523 1.9422152,1.6926181 1.852717,1.6540865 1.7098328,1.5964153 1.6742111,1.5187933 1.6347834,1.4444188 1.7442043,1.3721345 1.8063724,1.3496193 2.0073216,1.2769249 2.2943166,1.2222195 2.557869,1.2027305 2.6903805,1.1932095 2.7113466,1.1829644 2.7113466,1.1829644 2.8920198,1.1411852 3.0031216,1.0049684 2.9382684,0.80334029 2.8874214,0.62944179 2.7042354,0.52449869 2.5142677,0.52932869 Z"
     style="fill:#ffffff;fill-opacity:1;stroke-width:0.0992175"
     id="path1310"
     sodipodi:nodetypes="sccccccccccccccccccccccccccccccs" />
</svg>
