<?xml version="1.0" encoding="UTF-8" standalone="no"?>
<!-- Created with Inkscape (http://www.inkscape.org/) -->

<svg
   width="16"
   height="16"
   viewBox="0 0 4.2333333 4.2333335"
   version="1.1"
   id="svg5"
   inkscape:version="1.2 (dc2aedaf03, 2022-05-15)"
   sodipodi:docname="fbmessenger.svg"
   xmlns:inkscape="http://www.inkscape.org/namespaces/inkscape"
   xmlns:sodipodi="http://sodipodi.sourceforge.net/DTD/sodipodi-0.dtd"
   xmlns="http://www.w3.org/2000/svg"
   xmlns:svg="http://www.w3.org/2000/svg">
  <sodipodi:namedview
     id="namedview7"
     pagecolor="#ffffff"
     bordercolor="#666666"
     borderopacity="1.0"
     inkscape:pageshadow="2"
     inkscape:pageopacity="0.0"
     inkscape:pagecheckerboard="0"
     inkscape:document-units="px"
     showgrid="false"
     units="px"
     height="64px"
     inkscape:zoom="54.125"
     inkscape:cx="7.9907621"
     inkscape:cy="8"
     inkscape:window-width="1920"
     inkscape:window-height="1024"
     inkscape:window-x="0"
     inkscape:window-y="32"
     inkscape:window-maximized="1"
     inkscape:current-layer="svg5"
     inkscape:showpageshadow="2"
     inkscape:deskcolor="#d1d1d1" />
  <defs
     id="defs2" />
  <rect
     style="fill:#f8f8f8;stroke-width:0.264583;fill-opacity:1"
     id="rect846"
     width="4.2333336"
     height="4.2333336"
     x="-2.220446e-16"
     y="0"
     ry="1.0583334" />
  <path
     d="m 2.1166666,0.52916667 c -0.8941593,0 -1.58749993,0.65524063 -1.58749993,1.53987503 0,0.4627562 0.1897063,0.8628063 0.49847503,1.139031 0.025797,0.023019 0.041672,0.055562 0.042466,0.090488 l 0.00873,0.2825751 c 0.00277,0.090091 0.095647,0.1488283 0.1781967,0.1123154 L 1.5721541,3.5545448 c 0.026591,-0.011908 0.056753,-0.01389 0.084931,-0.00635 0.1448594,0.039688 0.2988469,0.061119 0.4595813,0.061119 0.8941594,0 1.5875001,-0.6552404 1.5875001,-1.5398748 0,-0.8846346 -0.6933407,-1.54027203 -1.5874999,-1.54027233 z"
     style="fill:#4a93f3;fill-opacity:1;stroke-width:0.00396876"
     id="path5193"
     sodipodi:nodetypes="csccccccsscc" />
  <path
     d="M 1.1443446,2.5276056 1.6199282,1.7731479 C 1.695617,1.6529365 1.8575177,1.6233896 1.971253,1.7083879 L 2.3496962,1.992119 c 0.034809,0.025905 0.082569,0.025905 0.1169733,-4.038e-4 L 2.9774668,1.6039615 c 0.067998,-0.051808 0.1570436,0.029953 0.1117116,0.1024022 L 2.61319,2.4604169 C 2.537501,2.5806282 2.3756003,2.610175 2.261865,2.5251769 L 1.8834218,2.2414459 C 1.8486128,2.2155418 1.8008525,2.2155418 1.7664485,2.2418508 L 1.2556514,2.6296031 C 1.1876531,2.6814116 1.0986077,2.6000571 1.1443446,2.5276056 Z"
     style="fill:#ffffff;stroke-width:0.00404753"
     id="path10974" />
</svg>
