<?xml version="1.0" encoding="UTF-8" standalone="no"?>
<!-- Created with Inkscape (http://www.inkscape.org/) -->

<svg
   width="16"
   height="16"
   viewBox="0 0 4.2333333 4.2333335"
   version="1.1"
   id="svg5"
   inkscape:version="1.2 (dc2aedaf03, 2022-05-15)"
   sodipodi:docname="firefox.svg"
   xmlns:inkscape="http://www.inkscape.org/namespaces/inkscape"
   xmlns:sodipodi="http://sodipodi.sourceforge.net/DTD/sodipodi-0.dtd"
   xmlns="http://www.w3.org/2000/svg"
   xmlns:svg="http://www.w3.org/2000/svg">
  <sodipodi:namedview
     id="namedview7"
     pagecolor="#ffffff"
     bordercolor="#666666"
     borderopacity="1.0"
     inkscape:pageshadow="2"
     inkscape:pageopacity="0.0"
     inkscape:pagecheckerboard="0"
     inkscape:document-units="px"
     showgrid="false"
     units="px"
     height="64px"
     inkscape:zoom="24.84375"
     inkscape:cx="1.5899371"
     inkscape:cy="3.4012579"
     inkscape:window-width="1920"
     inkscape:window-height="1011"
     inkscape:window-x="0"
     inkscape:window-y="0"
     inkscape:window-maximized="1"
     inkscape:current-layer="svg5"
     inkscape:showpageshadow="2"
     inkscape:deskcolor="#d1d1d1" />
  <defs
     id="defs2" />
  <rect
     style="fill:#40226a;stroke-width:0.264583;fill-opacity:1"
     id="rect846"
     width="4.2333336"
     height="4.2333336"
     x="-2.220446e-16"
     y="0"
     ry="1.0583334" />
  <path
     d="M 2.6990773,0.26458334 C 2.810137,0.7030909 3.1502969,0.84166707 3.5229496,1.3189452 3.8385504,1.7231538 3.7841575,1.9409726 3.9008296,2.3464555 L 3.023887,3.101237 2.0333191,2.0843449 C 2.0288711,1.408317 1.8666098,0.83037297 2.6990773,0.26458334 Z"
     style="fill:#ffde3f;stroke-width:0.231511"
     id="path469" />
  <circle
     style="fill:#8357cd;fill-opacity:1;stroke-width:0.277812;stroke-linejoin:round"
     id="path1835"
     cx="2.1166668"
     cy="2.1166668"
     r="0.9260416" />
  <path
     d="M 0.90876937,1.3493437 C 1.0374277,1.2216803 1.2475128,0.92441117 1.4981772,0.84200547 1.4308325,1.2009554 1.5181388,1.3150434 1.5615948,1.4985609 L 1.1587085,1.3941092 Z"
     style="fill:#ff750e;stroke-width:0.231511"
     id="path497" />
  <path
     d="m 2.4628988,1.4901721 c -0.013172,1.297e-4 -0.026339,5.926e-4 -0.039487,0.0014 0.2682009,0.1259007 0.4396083,0.3953257 0.4399982,0.691607 -2.038e-4,0.407076 -0.3191019,0.7520203 -0.7256336,0.7730335 0.101654,0.0481 0.2126624,0.063903 0.3251219,0.064216 0.4225687,3.7e-6 0.7651316,-0.3425518 0.7651371,-0.7651203 3.8e-6,-0.4225755 -0.3425619,-0.7651414 -0.7651371,-0.7651376 z"
     style="fill:#ffba36;stroke-width:0.231511"
     id="path441" />
  <path
     d="m 0.94833947,1.4598167 c -0.43324605,0.3350397 -0.68375613,0.092657 -0.68375613,0.6784876 0,1.0109279 0.82920606,1.8304467 1.85208346,1.8304467 1.0228775,0 1.8520833,-0.8195188 1.8520833,-1.8304467 0,-0.4706557 -0.1797404,-0.8998245 -0.475073,-1.22411813 0.00658,-2.5e-4 -0.027617,-0.026541 -0.04525,-0.01998 0.1234632,0.20464343 0.1945256,0.44445833 0.1945256,0.70088703 0,0.7504286 -0.4173581,1.4938583 -1.1677868,1.4938583 C 1.9931695,3.1123455 1.3510982,2.8042101 1.2522738,2.5158682 1.188515,2.3298378 1.2046091,2.1209027 1.3780769,2.0052461 1.4722989,1.9454348 1.6096664,1.8863799 1.8269929,1.8794447 2.0255202,1.7488819 1.9289239,1.7637331 1.9193745,1.7242038 1.8577032,1.7073405 1.7482313,1.6840349 1.5970818,1.5650746 1.463207,1.4597109 1.4010279,1.4197584 1.0108898,1.4161141 0.93718557,1.2741917 0.95556407,1.6283307 0.94833947,1.4598167 Z"
     style="fill:#f74e66;stroke-width:0.231511"
     id="path357" />
  <path
     d="M 0.97629107,0.69594599 C 0.56159046,1.0166441 0.28934838,1.5083963 0.26674642,2.063669 c 0.023715,0.8509659 0.80052028,1.4420603 1.75731228,1.4420603 0.9717352,0 1.7132029,-0.6122232 1.7132029,-1.4816705 0,-0.2343207 -0.057635,-0.4565372 -0.1602488,-0.6563696 0.012486,0.074016 0.019716,0.1497818 0.019716,0.227351 0,0.7504288 -0.5621521,1.3588602 -1.3125809,1.3588602 C 1.802151,2.9772953 1.4395643,2.7110335 1.3407399,2.4226916 1.2769811,2.2366613 1.2978587,2.1581641 1.4713266,2.0425074 1.5655484,1.9826964 1.6982115,1.9421876 1.915538,1.9352527 2.1140651,1.8046898 2.1292875,1.754485 2.1197378,1.7149556 2.0580667,1.6980918 1.8879899,1.6327909 1.7368406,1.5138304 1.6029658,1.4084659 1.4337121,1.196116 1.043574,1.1924718 0.96986967,1.0505496 0.98351547,0.86446017 0.97629107,0.69594599 Z"
     style="fill:#ff7f1f;stroke-width:0.231511"
     id="path385" />
  <path
     d="m 1.0920607,1.6541741 c -0.12603783,-0.00273 -0.25863643,0.040489 -0.34292143,0.098007 -0.0150966,0.015097 0.146749,0.2883864 0.42843633,0.2913488 -0.026081,0.4543917 0.3371928,0.7369594 0.5655575,0.8027096 l 6.93e-5,-2.037e-4 c -6.06e-5,-3.13e-5 -1.204e-4,-7.05e-5 -1.853e-4,-1.019e-4 -0.018402,-0.00912 -0.036302,-0.018718 -0.053703,-0.028754 -0.00162,-9.569e-4 -0.00323,-0.00188 -0.00485,-0.00284 -0.00973,-0.00568 -0.019286,-0.011503 -0.028685,-0.017459 -0.00184,-0.00118 -0.00369,-0.00231 -0.00551,-0.0035 -0.0094,-0.00606 -0.018639,-0.012236 -0.027705,-0.018545 -0.00142,-9.877e-4 -0.00286,-0.00197 -0.00428,-0.00296 -0.0052,-0.00366 -0.01036,-0.00736 -0.01545,-0.011107 -0.00998,-0.00735 -0.019704,-0.01486 -0.029226,-0.0225 -0.00226,-0.00179 -0.00449,-0.00363 -0.00673,-0.00546 -0.00674,-0.00552 -0.013373,-0.011107 -0.019879,-0.016767 -0.00316,-0.00274 -0.00631,-0.00553 -0.00941,-0.00832 -0.00452,-0.00405 -0.00898,-0.00812 -0.013371,-0.012236 -0.00425,-0.00398 -0.00845,-0.00797 -0.012577,-0.012001 -0.00341,-0.00333 -0.00678,-0.00667 -0.010103,-0.010045 -0.00484,-0.00489 -0.0096,-0.00982 -0.014266,-0.014792 -8.99e-5,-9.27e-5 -1.759e-4,-1.945e-4 -2.685e-4,-2.778e-4 -0.00288,-0.00309 -0.00571,-0.00618 -0.00852,-0.0093 -0.00398,-0.00438 -0.00789,-0.00877 -0.011731,-0.0132 -0.00302,-0.00349 -0.00602,-0.00699 -0.00896,-0.010512 -0.00392,-0.00469 -0.00775,-0.0094 -0.011515,-0.014147 -0.00212,-0.00267 -0.00428,-0.00534 -0.00636,-0.00803 -0.00472,-0.00611 -0.0093,-0.012293 -0.013776,-0.018493 -0.00178,-0.00247 -0.00356,-0.00493 -0.00531,-0.00742 -0.00465,-0.00662 -0.00918,-0.013272 -0.013557,-0.019975 -0.00119,-0.00183 -0.00235,-0.00368 -0.00351,-0.00551 -0.00434,-0.0068 -0.00857,-0.013625 -0.012627,-0.020504 -8.611e-4,-0.00146 -0.00169,-0.00292 -0.00253,-0.00438 -0.00408,-0.00706 -0.00797,-0.014159 -0.011731,-0.021282 -6.945e-4,-0.00132 -0.00142,-0.00264 -0.00211,-0.00395 -0.00393,-0.00757 -0.00764,-0.015185 -0.011212,-0.02282 -7.501e-4,-0.0016 -0.00148,-0.0032 -0.00222,-0.00479 -0.00349,-0.00765 -0.00683,-0.015322 -0.00994,-0.023023 -4.907e-4,-0.00122 -9.507e-4,-0.00245 -0.00143,-0.00366 -0.00326,-0.0082 -0.00636,-0.016417 -0.00918,-0.024655 C 1.2770228,2.2366735 1.2977751,2.1581669 1.4712429,2.0425101 1.5654649,1.9826991 1.6981743,1.9422767 1.9155008,1.9353418 2.1140279,1.8047789 2.1292278,1.7544157 2.1196782,1.7148863 1.7848496,1.9803005 1.4720834,1.754052 1.1775951,1.6637913 c -0.027712,-0.00591 -0.056446,-0.00898 -0.085532,-0.00961 z"
     style="fill:#ffba36;stroke-width:0.231511"
     id="path413" />
</svg>
