<?xml version="1.0" encoding="UTF-8" standalone="no"?>
<!-- Created with Inkscape (http://www.inkscape.org/) -->

<svg
   width="16"
   height="16"
   viewBox="0 0 4.2333333 4.2333335"
   version="1.1"
   id="svg5"
   inkscape:version="1.2 (dc2aedaf03, 2022-05-15)"
   sodipodi:docname="gnome-boxes.svg"
   xmlns:inkscape="http://www.inkscape.org/namespaces/inkscape"
   xmlns:sodipodi="http://sodipodi.sourceforge.net/DTD/sodipodi-0.dtd"
   xmlns="http://www.w3.org/2000/svg"
   xmlns:svg="http://www.w3.org/2000/svg">
  <sodipodi:namedview
     id="namedview7"
     pagecolor="#ffffff"
     bordercolor="#666666"
     borderopacity="1.0"
     inkscape:pageshadow="2"
     inkscape:pageopacity="0.0"
     inkscape:pagecheckerboard="0"
     inkscape:document-units="px"
     showgrid="false"
     units="px"
     height="64px"
     inkscape:zoom="49"
     inkscape:cx="8.0102041"
     inkscape:cy="8.0306122"
     inkscape:window-width="1920"
     inkscape:window-height="1011"
     inkscape:window-x="0"
     inkscape:window-y="0"
     inkscape:window-maximized="1"
     inkscape:current-layer="svg5"
     inkscape:showpageshadow="2"
     inkscape:deskcolor="#d1d1d1" />
  <defs
     id="defs2" />
  <rect
     style="fill:#4d4d4d;stroke-width:0.264583;fill-opacity:1"
     id="rect846"
     width="4.2333336"
     height="4.2333336"
     x="-2.220446e-16"
     y="0"
     ry="1.0583334" />
  <path
     d="m 0.92605767,0.52916667 c -0.2191969,0 -0.396891,0.17769285 -0.396891,0.39689089 1.72e-5,0.16818104 0.1060315,0.31809264 0.264594,0.37415264 v 1.6329117 c -0.1585625,0.056063 -0.2645771,0.2059742 -0.264594,0.3741553 0,0.219194 0.1776941,0.3968908 0.396891,0.3968908 C 1.0942386,3.7041495 1.2441499,3.598135 1.3002103,3.4395741 h 1.6329128 c 0.05606,0.1585609 0.2059717,0.2645754 0.3741526,0.2645939 0.2191969,0 0.396891,-0.1776968 0.396891,-0.3968908 C 3.7041498,3.1390961 3.5981352,2.9891845 3.4395727,2.9331219 V 1.3002102 c 0.1585625,-0.05606 0.2645771,-0.2059716 0.264594,-0.37415264 0,-0.21919804 -0.1776941,-0.39689089 -0.396891,-0.39689089 -0.1680862,1.27e-4 -0.3178655,0.10612041 -0.3738941,0.26459393 H 1.3002103 C 1.2441499,0.63519712 1.0942386,0.52918255 0.92605767,0.52916667 Z M 1.3002103,1.0583545 h 1.6329128 c 0.012266,0.034752 0.029311,0.067625 0.050645,0.097672 L 2.7974671,1.3423279 C 2.7707597,1.3295749 2.741537,1.322959 2.7119391,1.322959 2.6279436,1.3230781 2.5531198,1.3760636 2.5251213,1.455256 H 1.7087289 C 1.6806671,1.3758863 1.6055795,1.3228585 1.5213943,1.322959 c -0.02953,1.191e-4 -0.058662,0.00683 -0.085269,0.019633 L 1.2495652,1.1560321 c 0.021334,-0.030047 0.03838,-0.062921 0.050645,-0.097672 z M 1.1557687,1.2498229 1.3423281,1.4363833 c -0.012682,0.026548 -0.019302,0.055588 -0.019379,0.085011 8.7e-6,0.084091 0.053016,0.159045 0.132297,0.1870763 v 0.8163917 c -0.079281,0.028031 -0.1322885,0.1029877 -0.132297,0.1870789 4.29e-5,0.029702 0.00675,0.059019 0.019638,0.085783 l -0.1863009,0.186304 c -0.030113,-0.021459 -0.063075,-0.03858 -0.097931,-0.050906 v -1.632912 c 0.034647,-0.012197 0.067431,-0.029164 0.097414,-0.050387 z m 1.921796,0 c 0.029983,0.021221 0.062767,0.038181 0.097414,0.050387 v 1.6329117 c -0.034855,0.01233 -0.067817,0.029457 -0.097931,0.050906 L 2.8907468,2.797724 C 2.9036298,2.77096 2.9103428,2.741643 2.9103848,2.711941 2.9103765,2.6278496 2.8573693,2.5528932 2.778088,2.5248619 V 1.7084702 C 2.857369,1.6804392 2.9103765,1.6054851 2.910385,1.5213939 2.9103072,1.4919709 2.903685,1.4629319 2.891006,1.4363829 Z M 1.7087289,1.5875423 h 0.8161338 c 0.019982,0.056502 0.064427,0.1009452 0.1209279,0.1209279 V 2.5248619 C 2.5893877,2.5449173 2.5450474,2.5893461 2.5251213,2.6457924 H 1.7087289 C 1.6886939,2.589235 1.6441425,2.5447771 1.5875427,2.5248619 V 1.7084702 c 0.0566,-0.019925 0.1011499,-0.064371 0.1211862,-0.1209279 z m 0,1.190547 h 0.8161338 c 0.02803,0.07928 0.1029859,0.1322864 0.1870764,0.132297 0.029598,-2.7e-6 0.058821,-0.00661 0.085528,-0.019369 l 0.1865593,0.186301 c -0.021334,0.030047 -0.03838,0.062921 -0.050645,0.097672 H 1.3002103 c -0.012263,-0.034752 -0.029311,-0.067625 -0.050645,-0.097672 l 0.186301,-0.1863037 c 0.026708,0.012753 0.05593,0.019369 0.085528,0.019369 0.084185,1.006e-4 0.1592728,-0.052927 0.1873346,-0.1322969 z"
     style="fill:#ffffff;fill-opacity:1;stroke-width:0.264594;enable-background:new"
     id="path401" />
</svg>
