<?xml version="1.0" encoding="UTF-8" standalone="no"?>
<!-- Created with Inkscape (http://www.inkscape.org/) -->

<svg
   width="16"
   height="16"
   viewBox="0 0 4.2333333 4.2333335"
   version="1.1"
   id="svg5"
   inkscape:version="1.2 (dc2aedaf03, 2022-05-15)"
   sodipodi:docname="inkscape.svg"
   xmlns:inkscape="http://www.inkscape.org/namespaces/inkscape"
   xmlns:sodipodi="http://sodipodi.sourceforge.net/DTD/sodipodi-0.dtd"
   xmlns="http://www.w3.org/2000/svg"
   xmlns:svg="http://www.w3.org/2000/svg">
  <sodipodi:namedview
     id="namedview7"
     pagecolor="#ffffff"
     bordercolor="#666666"
     borderopacity="1.0"
     inkscape:pageshadow="2"
     inkscape:pageopacity="0.0"
     inkscape:pagecheckerboard="0"
     inkscape:document-units="px"
     showgrid="false"
     units="px"
     height="64px"
     inkscape:zoom="54.125"
     inkscape:cx="6.7159353"
     inkscape:cy="8.0369515"
     inkscape:window-width="1920"
     inkscape:window-height="1024"
     inkscape:window-x="0"
     inkscape:window-y="32"
     inkscape:window-maximized="1"
     inkscape:current-layer="svg5"
     inkscape:showpageshadow="2"
     inkscape:deskcolor="#d1d1d1" />
  <defs
     id="defs2" />
  <rect
     style="fill:#4d4d4d;stroke-width:0.264583;fill-opacity:1"
     id="rect846"
     width="4.2333336"
     height="4.2333336"
     x="-2.220446e-16"
     y="0"
     ry="1.0583334" />
  <path
     d="m 2.1166666,0.52916667 c -0.089746,0 -0.17955,0.033968 -0.2473578,0.1057644 L 0.63493117,1.9072049 c -0.0678078,0.069802 -0.10377,0.1616471 -0.1057645,0.2533869 v 0.00586 c 0,0.2732253 0.72793653,0.008 0.79375013,0.3410645 0.035898,0.1814853 -0.39687513,0.097739 -0.39687513,0.2792247 0,0.2133951 0.61221873,0.067823 0.78772133,0.241329 C 1.785559,3.2035724 1.4784316,3.1756256 1.5342734,3.3391622 1.6359854,3.4448618 1.8672914,3.3850312 1.911167,3.5565476 1.96302,3.751994 2.2940794,3.7180577 2.4875311,3.5744636 2.5912372,3.4687597 2.330009,3.4210165 2.4317206,3.3133216 2.5354267,3.2076214 3.0419923,3.2294398 3.0459811,2.9980957 2.9981167,2.8525063 2.8066465,2.8285429 2.8046521,2.6570296 2.7946831,2.5114423 2.9602738,2.5534369 3.486781,2.4098441 3.6961873,2.3101274 3.7041667,2.2581881 3.7041667,2.1664484 v -0.00586 C 3.7021666,2.0688548 3.6603532,1.9770072 3.5925454,1.9072053 L 2.3640248,0.63493117 C 2.2942226,0.56313467 2.2064126,0.52916667 2.1166666,0.52916667 Z m 0.023944,0.2671672 c 0.093734,0 0.3490092,0.31526603 0.5763648,0.55259333 0.065813,0.085757 -0.023944,0.1734605 -0.023944,0.1734605 L 2.2164022,1.2610773 2.0050456,1.5463312 1.8195272,1.2671063 1.7079062,1.7018772 1.3787272,1.5044733 1.4665773,1.39268 1.9811024,0.86420227 c 0.037894,-0.039888 0.069762,-0.067868 0.1595082,-0.0678684 z M 3.5355299,2.7062946 c -0.01851,2.4e-6 -0.035287,0.00226 -0.048749,0.00672 -0.033904,0.00997 -0.1934499,0.015906 -0.1794894,0.1355646 0.1435929,0.061824 0.3630249,0.1095936 0.3889512,-0.012058 0.019944,-0.089746 -0.065808,-0.1275408 -0.1415934,-0.1295354 -0.00648,-4.8e-4 -0.01295,-6.9e-4 -0.019118,-6.9e-4 z M 1.1155217,3.1083373 c -0.00732,2.4e-5 -0.014628,5.4e-4 -0.021876,0.00156 -0.013961,0.00198 -0.024036,0.00587 -0.036001,0.011892 C 0.94795507,3.1636683 0.87411207,3.2515003 0.97582367,3.289393 1.0775357,3.327285 1.1473886,3.287333 1.2371343,3.239439 1.3268803,3.191575 1.3228723,3.183669 1.3168883,3.165713 1.3049243,3.167693 1.2231553,3.117877 1.1373988,3.109902 1.1301488,3.108882 1.1228418,3.108382 1.1155228,3.108342 Z"
     style="fill:#f2f2f2;fill-opacity:1;stroke-width:0.052767"
     id="path866"
     sodipodi:nodetypes="scccscsccccccccscccsscccccccccssccccsssccscccss" />
</svg>
