<?xml version="1.0" encoding="UTF-8" standalone="no"?>
<!-- Created with Inkscape (http://www.inkscape.org/) -->

<svg
   width="16"
   height="16"
   viewBox="0 0 4.2333333 4.2333335"
   version="1.1"
   id="svg5"
   inkscape:version="1.1.2 (0a00cf5339, 2022-02-04, custom)"
   sodipodi:docname="internet-web-browser.svg"
   xmlns:inkscape="http://www.inkscape.org/namespaces/inkscape"
   xmlns:sodipodi="http://sodipodi.sourceforge.net/DTD/sodipodi-0.dtd"
   xmlns="http://www.w3.org/2000/svg"
   xmlns:svg="http://www.w3.org/2000/svg">
  <sodipodi:namedview
     id="namedview7"
     pagecolor="#ffffff"
     bordercolor="#666666"
     borderopacity="1.0"
     inkscape:pageshadow="2"
     inkscape:pageopacity="0.0"
     inkscape:pagecheckerboard="0"
     inkscape:document-units="px"
     showgrid="false"
     units="px"
     height="64px"
     inkscape:zoom="49"
     inkscape:cx="8"
     inkscape:cy="8"
     inkscape:window-width="1920"
     inkscape:window-height="1011"
     inkscape:window-x="0"
     inkscape:window-y="0"
     inkscape:window-maximized="1"
     inkscape:current-layer="svg5" />
  <defs
     id="defs2" />
  <rect
     style="fill:#f5f5f5;stroke-width:0.264583;fill-opacity:1"
     id="rect846"
     width="4.2333336"
     height="4.2333336"
     x="-2.220446e-16"
     y="0"
     ry="1.0583334" />
  <circle
     style="opacity:1;fill:#02b3ff;fill-opacity:1;stroke-width:1.10885;stroke-linejoin:round"
     id="path1149"
     cx="2.1166666"
     cy="2.1166666"
     r="1.5875" />
  <path
     d="m 1.929578,2.1941613 0.3741773,0.3741774 0.7483548,-1.122532 z m 0,0 0.3741773,0.3741774 -1.122532,0.7483547 z"
     style="opacity:0.2;fill:#000000;stroke-width:0.0555659;stroke-linejoin:round"
     id="path5407" />
  <g
     id="g5342"
     transform="rotate(45,2.1166667,2.1166667)">
    <path
       d="M 1.8520833,2.1166667 H 2.38125 L 2.1166667,3.4395834 Z"
       style="opacity:1;fill:#f5f5f5;stroke-width:0.210013;stroke-linejoin:round"
       id="path2848"
       sodipodi:nodetypes="cccc" />
    <path
       d="M 1.8520833,2.1166667 H 2.38125 L 2.1166667,0.79375 Z"
       style="opacity:1;fill:#ef5555;fill-opacity:1;stroke-width:0.0555659;stroke-linejoin:round"
       id="path3048"
       sodipodi:nodetypes="cccc" />
  </g>
  <path
     id="path4852"
     style="opacity:0.2;fill:#000000;fill-opacity:1;stroke-width:0.79375;stroke-linejoin:round"
     d="M 3.6984825,2.2520589 A 1.5875,1.5875 0 0 0 2.1166667,0.79374995 1.5875,1.5875 0 0 0 0.53536785,2.2489583 1.5875,1.5875 0 0 1 0.52916685,2.1166666 1.5875,1.5875 0 0 1 2.1166669,0.52916668 1.5875,1.5875 0 0 1 3.704167,2.1166666 1.5875,1.5875 0 0 1 3.698487,2.2520589 Z" />
</svg>
