<?xml version="1.0" encoding="UTF-8" standalone="no"?>
<!-- Created with Inkscape (http://www.inkscape.org/) -->

<svg
   width="16"
   height="16"
   viewBox="0 0 4.2333333 4.2333335"
   version="1.1"
   id="svg5"
   inkscape:version="1.2 (dc2aedaf03, 2022-05-15)"
   sodipodi:docname="kate.svg"
   xmlns:inkscape="http://www.inkscape.org/namespaces/inkscape"
   xmlns:sodipodi="http://sodipodi.sourceforge.net/DTD/sodipodi-0.dtd"
   xmlns="http://www.w3.org/2000/svg"
   xmlns:svg="http://www.w3.org/2000/svg">
  <sodipodi:namedview
     id="namedview7"
     pagecolor="#ffffff"
     bordercolor="#666666"
     borderopacity="1.0"
     inkscape:pageshadow="2"
     inkscape:pageopacity="0.0"
     inkscape:pagecheckerboard="0"
     inkscape:document-units="px"
     showgrid="false"
     units="px"
     height="64px"
     inkscape:zoom="19.136077"
     inkscape:cx="-4.572515"
     inkscape:cy="15.860095"
     inkscape:window-width="1409"
     inkscape:window-height="901"
     inkscape:window-x="237"
     inkscape:window-y="108"
     inkscape:window-maximized="0"
     inkscape:current-layer="svg5"
     inkscape:showpageshadow="2"
     inkscape:deskcolor="#d1d1d1" />
  <defs
     id="defs2" />
  <rect
     style="fill:#16a3ff;stroke-width:0.264583;fill-opacity:1"
     id="rect846"
     width="4.2333336"
     height="4.2333336"
     x="-2.220446e-16"
     y="0"
     ry="1.0583334" />
  <path
     id="path18"
     style="fill:#d4d4d4;fill-opacity:1;stroke-width:0.0380065"
     d="m 2.0080056,0.79375036 c -0.2264682,-1.744e-4 -0.486936,0.064382 -0.7395015,0.24734134 -0.24678,0.178778 -0.35491769,0.2277749 -0.47462789,0.2871985 0.106668,0.00813 0.74464859,-0.08286 0.85755919,0.2919915 C 1.7101398,1.6020729 1.913994,1.5455182 2.0430697,1.5080258 1.941573,1.3102229 1.8101881,0.93472446 2.4992827,0.90852886 2.3811271,0.84441786 2.2078304,0.79390636 2.0080056,0.79375036 Z" />
  <path
     id="path24"
     style="fill:#eaeaea;fill-opacity:1;stroke-width:0.0380065"
     d="M 3.3523015,1.1046614 C 2.9129136,1.2546076 2.3461877,1.4272884 1.6883916,1.6094345 1.2281035,1.7368975 0.97086241,2.0311737 1.1652035,2.4397497 1.3599566,2.8491971 1.6964598,2.8587017 2.1119369,3.1366191 2.4363026,3.3535793 2.5156285,3.4640128 2.7249298,3.7647477 2.6814128,3.3492293 2.4804014,2.8136937 2.3863962,2.5777362 2.7492638,2.7947951 2.9335086,2.8434776 3.4394575,2.8964672 2.7829259,2.4291125 2.6582612,2.3377935 2.282465,2.0174658 2.0303442,2.0301749 2.0580506,2.0279856 1.9093717,2.0365111 2.1050994,2.3127149 2.1823385,2.7183421 1.8244862,2.792788 1.4895217,2.8624747 1.166588,2.5733536 1.2584137,2.263672 1.3581344,1.9273971 1.78855,1.991922 2.2400852,1.9335891 2.6916204,1.8752462 3.1042835,1.4324255 3.3524275,1.1046614 Z" />
  <path
     id="path26"
     style="fill:#bcbcbc;fill-opacity:1;stroke-width:0.0380065"
     d="M 2.2825912,2.0165828 C 2.0304704,2.029292 2.0581768,2.0271023 1.9094979,2.0356281 2.2802649,2.6537713 2.7796706,2.8485024 3.4395834,2.8957098 2.7830518,2.4283559 2.6583874,2.3369107 2.2825912,2.0165828 Z" />
  <path
     id="path28"
     style="fill:#f2f2f2;fill-opacity:1;stroke-width:0.0380065"
     d="M 2.0080056,0.79387646 C 1.7815377,0.79370206 1.5210696,0.85825846 1.2685041,1.0412179 1.0217241,1.2199958 0.91346031,1.2688666 0.79375001,1.3282902 1.3048846,1.2145234 1.4386634,1.0833284 1.8965064,1.179835 1.8990497,1.0721972 1.8101881,0.93485056 2.4992827,0.90865496 2.3811271,0.84454406 2.2078304,0.79403256 2.0080056,0.79387646 Z" />
  <path
     id="path30"
     style="fill:#bcbcbc;fill-opacity:1;stroke-width:0.0380065"
     d="M 2.1300997,0.82225576 C 1.7876132,0.82279766 1.456234,1.0309904 1.76798,1.5864787 1.8754719,1.5580291 1.9626551,1.5313834 2.0430697,1.5080258 1.941573,1.3102228 1.8103141,0.93485056 2.4994089,0.90865496 2.3998456,0.85365606 2.264116,0.82204266 2.1300997,0.82225576 Z" />
  <path
     id="path32"
     style="fill:#d8d8d8;fill-opacity:1;stroke-width:0.0380065"
     d="M 3.3524275,1.1049136 C 2.9129971,1.2548598 2.3262453,1.3896199 1.6746435,1.5936683 1.0332573,1.794525 0.95627361,2.1757722 1.2614409,2.5953945 0.72954621,1.8489542 2.185705,1.5494556 3.3524275,1.1049136 Z" />
</svg>
