<?xml version="1.0" encoding="UTF-8" standalone="no"?>
<!-- Created with Inkscape (http://www.inkscape.org/) -->

<svg
   width="16"
   height="16"
   viewBox="0 0 4.2333333 4.2333335"
   version="1.1"
   id="svg5"
   inkscape:version="1.2 (dc2aedaf03, 2022-05-15)"
   sodipodi:docname="microsoft-edge.svg"
   xmlns:inkscape="http://www.inkscape.org/namespaces/inkscape"
   xmlns:sodipodi="http://sodipodi.sourceforge.net/DTD/sodipodi-0.dtd"
   xmlns="http://www.w3.org/2000/svg"
   xmlns:svg="http://www.w3.org/2000/svg">
  <sodipodi:namedview
     id="namedview7"
     pagecolor="#ffffff"
     bordercolor="#666666"
     borderopacity="1.0"
     inkscape:pageshadow="2"
     inkscape:pageopacity="0.0"
     inkscape:pagecheckerboard="0"
     inkscape:document-units="px"
     showgrid="false"
     units="px"
     height="64px"
     inkscape:zoom="17.567184"
     inkscape:cx="6.4609103"
     inkscape:cy="5.2654995"
     inkscape:window-width="1920"
     inkscape:window-height="1011"
     inkscape:window-x="0"
     inkscape:window-y="0"
     inkscape:window-maximized="1"
     inkscape:current-layer="svg5"
     inkscape:showpageshadow="2"
     inkscape:deskcolor="#d1d1d1" />
  <defs
     id="defs2" />
  <rect
     style="fill:#f8f8f8;stroke-width:0.264583;fill-opacity:1"
     id="rect846"
     width="4.2333336"
     height="4.2333336"
     x="-2.220446e-16"
     y="0"
     ry="1.0583334" />
  <path
     d="M 3.3947974,2.8918403 C 3.2426686,3.0415169 3.0066822,3.1166628 2.8188685,3.1175854 c -0.5868424,0 -1.0980351,-0.4908546 -1.0980351,-1.0087977 0.00153,-0.1414576 0.079485,-0.2710169 0.2037578,-0.3386408 -0.5307871,0.02232 -0.6672044,0.5753546 -0.6672044,0.8993635 0,0.9161034 0.8444228,1.0089785 1.0263539,1.0089785 0.098096,0 0.2460471,-0.02852 0.3348423,-0.056544 l 0.016246,-0.00546 C 2.9765226,3.4983783 3.2678185,3.2674724 3.4607736,2.9617744 3.4883315,2.9183618 3.4397498,2.8668649 3.3947974,2.8918392 Z"
     style="fill:#0e539b;stroke-width:0.198438"
     id="path406" />
  <path
     d="M 1.7927707,3.5227464 C 1.6821565,3.454101 1.5862947,3.3641533 1.510759,3.2581329 1.1442369,2.7560415 1.3668909,2.0448336 1.9245912,1.7701469 c 0.038693,-0.018228 0.1047932,-0.051211 0.1927204,-0.0496 0.1255783,9.155e-4 0.263424,0.06057 0.3385368,0.1611984 0.05008,0.066858 0.077692,0.1478596 0.078874,0.2313819 0,-0.0026 0.2834017,-0.9870307 -1.0120662,-0.9870307 -0.54442877,0 -0.99212546,0.5165791 -0.99212546,0.9697948 -0.002148,0.2397451 0.0491565,0.4769567 0.150183,0.6943934 C 1.0224719,3.5193753 1.8560944,3.8770732 2.6200713,3.6224414 2.3585342,3.7048914 2.0263857,3.6686382 1.7938868,3.5232422 Z"
     style="fill:#0b87da;stroke-width:0.198438"
     id="path378" />
  <path
     d="m 2.4579289,2.2480465 c -0.010045,0.01302 -0.040925,0.031 -0.040925,0.070183 0,0.032364 0.021083,0.063487 0.058535,0.089651 0.1783344,0.1239989 0.4749101,0.107631 0.475778,0.107631 C 3.083459,2.5151945 3.2130963,2.4794391 3.3267127,2.4119729 3.5599326,2.275815 3.7035391,2.1532624 3.7040924,1.8832338 3.7073176,1.6053525 3.6048797,1.4205943 3.5634584,1.338755 3.3006692,0.82477988 2.7334216,0.52916668 2.1165675,0.52916668 1.2485143,0.52908087 0.54137367,1.2261825 0.52916667,2.0940318 0.53511953,1.6409402 0.98554443,1.1241567 1.5212922,1.1241567 c 0.793812,0 1.2389946,0.7100209 0.9366367,1.1238898 z"
     style="fill:#17dcbe;stroke-width:0.198438"
     id="path350" />
</svg>
