<?xml version="1.0" encoding="UTF-8" standalone="no"?>
<!-- Created with Inkscape (http://www.inkscape.org/) -->

<svg
   width="16"
   height="16"
   viewBox="0 0 4.2333333 4.2333335"
   version="1.1"
   id="svg5"
   inkscape:version="1.2 (dc2aedaf03, 2022-05-15)"
   sodipodi:docname="ms-office.svg"
   xmlns:inkscape="http://www.inkscape.org/namespaces/inkscape"
   xmlns:sodipodi="http://sodipodi.sourceforge.net/DTD/sodipodi-0.dtd"
   xmlns="http://www.w3.org/2000/svg"
   xmlns:svg="http://www.w3.org/2000/svg">
  <sodipodi:namedview
     id="namedview7"
     pagecolor="#ffffff"
     bordercolor="#666666"
     borderopacity="1.0"
     inkscape:pageshadow="2"
     inkscape:pageopacity="0.0"
     inkscape:pagecheckerboard="0"
     inkscape:document-units="px"
     showgrid="false"
     units="px"
     height="64px"
     inkscape:zoom="49.6875"
     inkscape:cx="8"
     inkscape:cy="8"
     inkscape:window-width="1920"
     inkscape:window-height="1011"
     inkscape:window-x="0"
     inkscape:window-y="0"
     inkscape:window-maximized="1"
     inkscape:current-layer="svg5"
     inkscape:showpageshadow="2"
     inkscape:deskcolor="#d1d1d1" />
  <defs
     id="defs2" />
  <rect
     style="fill:#f8f8f8;stroke-width:0.264583;fill-opacity:1"
     id="rect846"
     width="4.2333336"
     height="4.2333336"
     x="-2.220446e-16"
     y="0"
     ry="1.0583334" />
  <path
     d="M 2.179958,0.54176638 2.4208777,1.09289 V 3.0087009 L 2.1836323,3.6910446 3.0806511,3.4354279 C 3.2181014,3.3959365 3.3128914,3.2703345 3.3131728,3.1273235 V 1.1054871 C 3.3132351,0.96207558 3.2180768,0.83605528 3.0801261,0.79685788 Z"
     style="isolation:isolate;fill:#e5600d;fill-opacity:1;stroke-width:0.0138875"
     id="path1272" />
  <path
     d="M 1.0425436,2.9882305 1.3049835,2.8465129 C 1.3782949,2.8062209 1.4237798,2.7291382 1.4236063,2.6454842 V 1.6140954 c 9.7e-5,-0.096231 0.060256,-0.1821693 0.1506406,-0.2152006 L 2.4208777,1.09289 V 0.86036818 c -2.028e-4,-0.1480668 -0.098508,-0.278071 -0.2409198,-0.3186018 -0.029519,-0.008476 -0.060092,-0.0127179 -0.090804,-0.0125972 v 0 c -0.057766,1.323e-4 -0.1145258,0.015135 -0.1648123,0.043565 L 0.9554136,1.1254325 c -0.09995,0.056953 -0.1616637,0.1631487 -0.161663,0.2781863 v 1.4360707 c -3.263e-4,0.1278907 0.1363639,0.209499 0.248793,0.148541 z"
     style="isolation:isolate;fill:#970b03;fill-opacity:1;stroke-width:0.0138875"
     id="path880"
     sodipodi:nodetypes="ccccccccssccccc" />
  <path
     d="M 2.4208778,3.0087009 H 1.4199322 c -0.171486,0.00183 -0.2315276,0.2284086 -0.083456,0.314928 l 0.5962634,0.3380223 c 0.049112,0.027917 0.1046458,0.04257 0.1611382,0.042515 v 0 c 0.030395,-2.04e-5 0.060626,-0.00444 0.089754,-0.013123 0.1407012,-0.039977 0.2376413,-0.1686583 0.237246,-0.3149277 z"
     style="isolation:isolate;fill:#c32020;fill-opacity:1;stroke-width:0.0138875"
     id="path5755" />
</svg>
