<?xml version="1.0" encoding="UTF-8" standalone="no"?>
<!-- Created with Inkscape (http://www.inkscape.org/) -->

<svg
   width="16"
   height="16"
   viewBox="0 0 4.2333333 4.2333335"
   version="1.1"
   id="svg5"
   inkscape:version="1.1.2 (0a00cf5339, 2022-02-04, custom)"
   sodipodi:docname="multimedia-photo-manager.svg"
   xmlns:inkscape="http://www.inkscape.org/namespaces/inkscape"
   xmlns:sodipodi="http://sodipodi.sourceforge.net/DTD/sodipodi-0.dtd"
   xmlns="http://www.w3.org/2000/svg"
   xmlns:svg="http://www.w3.org/2000/svg">
  <sodipodi:namedview
     id="namedview7"
     pagecolor="#ffffff"
     bordercolor="#666666"
     borderopacity="1.0"
     inkscape:pageshadow="2"
     inkscape:pageopacity="0.0"
     inkscape:pagecheckerboard="0"
     inkscape:document-units="px"
     showgrid="false"
     units="px"
     height="64px"
     inkscape:zoom="49.624998"
     inkscape:cx="7.9899248"
     inkscape:cy="8.0000004"
     inkscape:window-width="1920"
     inkscape:window-height="1017"
     inkscape:window-x="0"
     inkscape:window-y="32"
     inkscape:window-maximized="1"
     inkscape:current-layer="svg5" />
  <defs
     id="defs2" />
  <rect
     style="fill:#f8f8f8;stroke-width:0.264583;fill-opacity:1"
     id="rect846"
     width="4.2333336"
     height="4.2333336"
     x="-2.220446e-16"
     y="0"
     ry="1.0583334" />
  <g
     id="g267135"
     transform="matrix(0.30434783,0,0,0.30434783,0.26458334,0.26458334)"
     style="opacity:0.8">
    <rect
       style="fill:#ffac10;fill-opacity:1;stroke-width:0.79375;stroke-linejoin:round"
       id="rect908"
       width="3.7041669"
       height="5.8208332"
       x="4.2333336"
       y="-6.1767578e-09"
       ry="1.8520834" />
    <rect
       style="fill:#186ac0;fill-opacity:1;stroke-width:0.79375;stroke-linejoin:round"
       id="rect1100"
       width="3.7041669"
       height="5.8208332"
       x="4.2333336"
       y="6.3499999"
       ry="1.8520833" />
    <rect
       style="fill:#f82d2d;fill-opacity:1;stroke-width:0.79375;stroke-linejoin:round"
       id="rect10803"
       width="3.7041667"
       height="5.8208332"
       x="-1.8520833"
       y="2.5206625"
       ry="1.8520833"
       transform="rotate(-45)" />
    <rect
       style="fill:#1cbb71;fill-opacity:1;stroke-width:0.79375;stroke-linejoin:round"
       id="rect10805"
       width="3.7041664"
       height="5.8208337"
       x="-1.8520833"
       y="8.8706627"
       ry="1.8520832"
       transform="rotate(-45)" />
    <path
       d="m 6.1965209,6.3536173 c -0.6481813,0.729043 -0.6231412,1.839241 0.075964,2.5383463 l 1.4965495,1.4965494 c 0.050162,0.05016 0.1024784,0.09682 0.1565796,0.140043 C 7.933314,10.459676 7.9375,10.389755 7.9375,10.31875 V 8.2020832 C 7.9374998,7.2133245 7.1704698,6.4106874 6.1965209,6.3536173 Z"
       style="fill:#198388;fill-opacity:1;stroke-width:0.79375;stroke-linejoin:round"
       id="path167848" />
    <rect
       style="fill:#ecdb3c;fill-opacity:1;stroke-width:0.79375;stroke-linejoin:round"
       id="rect16548"
       width="3.7041664"
       height="5.8208332"
       x="6.7539954"
       y="-6.0854163"
       ry="1.8520832"
       transform="rotate(45)" />
    <rect
       style="fill:#8723c8;fill-opacity:1;stroke-width:0.79375;stroke-linejoin:round"
       id="rect16550"
       width="3.7041664"
       height="5.8208337"
       x="6.7539954"
       y="0.26458293"
       ry="1.8520832"
       transform="rotate(45)" />
    <path
       d="m 5.9743122,6.3536173 c -0.973949,0.05707 -1.740979,0.8597072 -1.740979,1.8484659 V 10.31875 c 0,0.071 0.00418,0.140924 0.011885,0.209807 0.054101,-0.04323 0.1064178,-0.08988 0.1565796,-0.140044 L 5.8983474,8.8919636 C 6.5974527,8.1928583 6.6224929,7.0826603 5.9743122,6.3536173 Z"
       style="fill:#4239b7;fill-opacity:1;stroke-width:0.79375;stroke-linejoin:round"
       id="path156906" />
    <path
       d="m 6.0854166,6.4910765 c -0.4757414,0.6492538 -0.4757494,1.5336089 0,2.1828125 0.4757497,-0.6492036 0.475741,-1.5335587 0,-2.1828125 z"
       style="fill:#264f80;fill-opacity:1;stroke-width:0.79375;stroke-linejoin:round"
       id="path205513" />
    <rect
       style="fill:#b2358d;fill-opacity:1;stroke-width:0.79375;stroke-linejoin:round"
       id="rect32093"
       width="5.8208332"
       height="3.7041667"
       x="-4.4408921e-16"
       y="4.2333331"
       ry="1.8520832" />
    <rect
       style="fill:#88d332;fill-opacity:1;stroke-width:0.79375;stroke-linejoin:round"
       id="rect32095"
       width="5.8208332"
       height="3.7041667"
       x="6.3499985"
       y="4.2333331"
       ry="1.8520832" />
    <path
       d="M 7.9256143,1.642277 C 7.8715131,1.6855027 7.8191965,1.7321582 7.7690347,1.7823201 L 6.2724852,3.2788696 C 5.5733798,3.9779749 5.5483397,5.088173 6.1965209,5.817216 7.1704699,5.7601459 7.9374999,4.9575088 7.9374999,3.96875 V 1.8520833 c 0,-0.071005 -0.00418,-0.1409243 -0.011886,-0.2098063 z"
       style="fill:#d9aa14;fill-opacity:1;stroke-width:0.79375;stroke-linejoin:round"
       id="path45218" />
    <path
       d="m 4.2452192,1.6422769 c -0.0077,0.068882 -0.011886,0.1388011 -0.011886,0.2098064 v 2.1166666 c 0,0.9887588 0.76703,1.7913959 1.740979,1.848466 C 6.6224938,5.0881729 6.5974537,3.9779748 5.8983483,3.2788695 L 4.4017988,1.7823201 C 4.351637,1.7321582 4.2993204,1.6855026 4.2452192,1.6422769 Z"
       style="fill:#ec6407;fill-opacity:1;stroke-width:0.79375;stroke-linejoin:round"
       id="path76064" />
    <path
       d="m 6.0854166,3.4969442 c -0.4757497,0.6492036 -0.4757417,1.5335586 0,2.1828125 0.4757417,-0.6492539 0.4757497,-1.5336089 0,-2.1828125 z"
       style="fill:#a7462b;fill-opacity:1;stroke-width:0.79375;stroke-linejoin:round"
       id="path94043" />
    <path
       d="m 1.8520833,4.2333333 c -0.071005,0 -0.1409244,0.00418 -0.2098064,0.011885 0.043226,0.054101 0.089881,0.1064178 0.1400432,0.1565796 L 3.2788695,5.8983475 C 3.9779748,6.5974528 5.0881729,6.622493 5.8172159,5.9743117 5.7601458,5.0003633 4.9575084,4.2333333 3.9687499,4.2333333 Z"
       style="fill:#be3134;fill-opacity:1;stroke-width:0.79375;stroke-linejoin:round"
       id="path93843" />
    <path
       d="M 4.2550373,4.2550373 C 4.3774884,5.0506341 5.0030644,5.6758948 5.7986125,5.7986125 5.6758945,5.0030649 5.0506339,4.3774883 4.2550373,4.2550373 Z"
       style="fill:#9d3033;fill-opacity:1;stroke-width:0.79375;stroke-linejoin:round"
       id="path231518" />
    <path
       d="m 4.5888671,5.7283325 c -0.473428,0 -0.9472327,0.1813878 -1.3099976,0.5441527 L 1.78232,7.7690346 C 1.732158,7.8191966 1.685503,7.871513 1.6422769,7.9256142 c 0.068882,0.0077 0.138801,0.011886 0.2098063,0.011886 h 2.1166667 c 0.9887585,0 1.7913959,-0.76703 1.848466,-1.740979 C 5.4664723,5.88468 5.0278095,5.7283325 4.5888671,5.7283325 Z"
       style="fill:#7c2389;fill-opacity:1;stroke-width:0.79375;stroke-linejoin:round"
       id="path105609" />
    <path
       d="m 4.5888671,5.7283325 c -0.3834704,0 -0.7671668,0.1190805 -1.091923,0.357084 0.6492036,0.4757497 1.5335586,0.4757415 2.1828125,0 C 5.3552636,5.8475966 4.9721234,5.7283325 4.5888671,5.7283325 Z"
       style="fill:#6d2154;fill-opacity:1;stroke-width:0.79375;stroke-linejoin:round"
       id="path266678" />
    <path
       d="M 5.7986125,6.3722207 C 5.0030644,6.4949384 4.3774884,7.1201993 4.2550373,7.9157959 5.0506339,7.7933449 5.6758945,7.1677688 5.7986125,6.3722207 Z"
       style="fill:#51267d;fill-opacity:1;stroke-width:0.79375;stroke-linejoin:round"
       id="path160730" />
    <path
       d="m 8.2020832,4.2333333 c -0.9887584,0 -1.7913958,0.76703 -1.8484659,1.740979 0.729043,0.6481812 1.839241,0.6231411 2.5383463,-0.075964 L 10.388513,4.4017986 c 0.05016,-0.050162 0.09682,-0.1024785 0.140043,-0.1565797 -0.06888,-0.0077 -0.138801,-0.011886 -0.209806,-0.011886 z"
       style="fill:#a6c327;fill-opacity:1;stroke-width:0.79375;stroke-linejoin:round"
       id="path111206" />
    <path
       d="m 7.5819661,5.7283331 c -0.4389424,0 -0.8776051,0.1563476 -1.2283487,0.4681884 0.05707,0.973949 0.8597075,1.740979 1.8484659,1.740979 H 10.31875 c 0.071,0 0.140924,-0.00418 0.209807,-0.011885 -0.04323,-0.054101 -0.08988,-0.1064179 -0.140044,-0.1565797 L 8.8919637,6.2724863 C 8.5291988,5.9097214 8.0553941,5.7283336 7.5819661,5.7283331 Z"
       style="fill:#40b040;fill-opacity:1;stroke-width:0.79375;stroke-linejoin:round"
       id="path115732" />
    <path
       d="m 7.5819661,5.7283331 c -0.3832563,0 -0.7663966,0.1192644 -1.0908895,0.3570841 0.6492539,0.4757414 1.5336089,0.4757494 2.1828125,0 C 8.3491329,5.8474133 7.9654365,5.7283334 7.5819661,5.7283331 Z"
       style="fill:#4e7727;fill-opacity:1;stroke-width:0.79375;stroke-linejoin:round"
       id="path249560" />
    <path
       d="M 6.3722207,6.3722207 C 6.4949384,7.1677688 7.1201991,7.7933449 7.9157959,7.9157959 7.7933449,7.1201993 7.1677685,6.4949384 6.3722207,6.3722207 Z"
       style="fill:#23714d;fill-opacity:1;stroke-width:0.79375;stroke-linejoin:round"
       id="path214446" />
    <path
       d="M 7.9157959,4.2550373 C 7.1201993,4.3774883 6.4949387,5.0030644 6.3722207,5.7986125 7.1677688,5.6758948 7.7933449,5.0506341 7.9157959,4.2550373 Z"
       style="fill:#90891e;fill-opacity:1;stroke-width:0.79375;stroke-linejoin:round"
       id="path242621" />
  </g>
</svg>
