<?xml version="1.0" encoding="UTF-8" standalone="no"?>
<!-- Created with Inkscape (http://www.inkscape.org/) -->

<svg
   width="16"
   height="16"
   viewBox="0 0 4.2333333 4.2333335"
   version="1.1"
   id="svg5"
   inkscape:version="1.2 (dc2aedaf03, 2022-05-15)"
   sodipodi:docname="plasma.svg"
   xmlns:inkscape="http://www.inkscape.org/namespaces/inkscape"
   xmlns:sodipodi="http://sodipodi.sourceforge.net/DTD/sodipodi-0.dtd"
   xmlns="http://www.w3.org/2000/svg"
   xmlns:svg="http://www.w3.org/2000/svg">
  <sodipodi:namedview
     id="namedview7"
     pagecolor="#ffffff"
     bordercolor="#666666"
     borderopacity="1.0"
     inkscape:pageshadow="2"
     inkscape:pageopacity="0.0"
     inkscape:pagecheckerboard="0"
     inkscape:document-units="px"
     showgrid="false"
     units="px"
     height="64px"
     inkscape:zoom="49.6875"
     inkscape:cx="8"
     inkscape:cy="8"
     inkscape:window-width="1920"
     inkscape:window-height="1011"
     inkscape:window-x="0"
     inkscape:window-y="0"
     inkscape:window-maximized="1"
     inkscape:current-layer="svg5"
     inkscape:showpageshadow="2"
     inkscape:deskcolor="#d1d1d1" />
  <defs
     id="defs2" />
  <rect
     style="fill:#3daee9;stroke-width:0.264583;fill-opacity:1"
     id="rect846"
     width="4.2333336"
     height="4.2333336"
     x="-2.220446e-16"
     y="0"
     ry="1.0583334" />
  <path
     d="m 1.3758333,0.52916667 c -0.1172633,0 -0.2116667,0.0944033 -0.2116667,0.21166667 0,0.11726334 0.094403,0.21166669 0.2116667,0.21166669 0.1172633,0 0.2116667,-0.0944034 0.2116667,-0.21166669 C 1.5875,0.62357 1.493097,0.52916667 1.3758333,0.52916667 Z m 1.1944048,0 L 2.1166667,0.95250003 2.7970239,1.5875 2.1166667,2.2225 2.5702381,2.6458333 3.2505952,2.0108333 3.7041666,1.5875 3.2505952,1.1641667 Z M 0.79375003,1.8520833 c -0.1465782,0 -0.2645834,0.1180031 -0.2645834,0.2645834 0,0.1465781 0.1180052,0.2645833 0.2645834,0.2645833 0.1465802,0 0.26458327,-0.1180052 0.26458327,-0.2645833 0,-0.1465803 -0.11800307,-0.2645834 -0.26458327,-0.2645834 z M 1.7197916,2.9104166 c -0.2198687,0 -0.396875,0.1770063 -0.396875,0.396875 0,0.2198688 0.1770063,0.396875 0.396875,0.396875 0.2198688,0 0.3968751,-0.1770062 0.3968751,-0.396875 0,-0.2198687 -0.1770063,-0.396875 -0.3968751,-0.396875 z"
     style="fill:#ffffff;stroke-width:0.264583"
     id="path360" />
</svg>
