<?xml version="1.0" encoding="UTF-8" standalone="no"?>
<svg
   width="16"
   height="16"
   version="1.1"
   id="svg6"
   sodipodi:docname="audio-volume-medium-symbolic.svg"
   inkscape:version="1.2 (dc2aedaf03, 2022-05-15)"
   xmlns:inkscape="http://www.inkscape.org/namespaces/inkscape"
   xmlns:sodipodi="http://sodipodi.sourceforge.net/DTD/sodipodi-0.dtd"
   xmlns="http://www.w3.org/2000/svg"
   xmlns:svg="http://www.w3.org/2000/svg">
  <defs
     id="defs10" />
  <sodipodi:namedview
     id="namedview8"
     pagecolor="#ffffff"
     bordercolor="#666666"
     borderopacity="1.0"
     inkscape:pageshadow="2"
     inkscape:pageopacity="0.0"
     inkscape:pagecheckerboard="0"
     showgrid="false"
     inkscape:zoom="24.84375"
     inkscape:cx="3.7232704"
     inkscape:cy="9.1169811"
     inkscape:window-width="1920"
     inkscape:window-height="1011"
     inkscape:window-x="0"
     inkscape:window-y="0"
     inkscape:window-maximized="1"
     inkscape:current-layer="svg6"
     inkscape:showpageshadow="2"
     inkscape:deskcolor="#d1d1d1" />
  <g
     fill="#363636"
     stroke-linecap="round"
     stroke-linejoin="round"
     stroke-width="2.001"
     style="paint-order:stroke fill markers"
     aria-label="î§"
     id="g4">
    <path
       id="path2"
       d="M 5.2929688,1.9960938 2.2910156,4.9980469 H 1 c -0.55232375,0 -1.000055149509,0.4477314 -1,1 v 4.0039061 c -5.5149509e-5,0.552269 0.44767625,1 1,1 h 1.2910156 l 3.0019532,3.001953 H 6.0039062 V 1.9960938 Z m 5.6660152,1.0488281 -0.710937,0.7109375 c 0.562766,0.5627994 0.994642,1.2105799 1.296875,1.9453125 0.30744,0.7347326 0.460937,1.5015622 0.460937,2.2988281 0,0.7972659 -0.153497,1.5640955 -0.460937,2.298828 -0.302226,0.734759 -0.734102,1.38254 -1.296875,1.945313 l 0.710937,0.710937 c 0.328287,-0.328273 0.617068,-0.682107 0.867188,-1.0625 0.255333,-0.385586 0.468665,-0.788858 0.640625,-1.210937 C 12.643963,10.259574 12.776648,9.8231329 12.865234,9.375 12.959028,8.9216338 13.005859,8.4637662 13.005859,8 c 0,-0.4585862 -0.04683,-0.9138413 -0.140625,-1.3671875 C 12.776654,6.179493 12.64397,5.740439 12.466797,5.3183594 12.294837,4.8962865 12.081505,4.4956273 11.826172,4.1152344 11.576052,3.7296548 11.287271,3.3732082 10.958984,3.0449219 Z M 5.0019531,3.7089844 V 12.291016 L 2.7128906,10 H 1 V 6 h 1.7128906 z m 3.8300781,1.4609375 -0.703125,0.703125 C 8.4102926,6.1544333 8.6262306,6.4815895 8.7773438,6.8515625 8.9284569,7.2163221 9.0039062,7.5987604 9.0039062,8 c 0,0.4012263 -0.075449,0.786277 -0.2265624,1.15625 C 8.6262306,9.5210096 8.4102926,9.8436136 8.1289062,10.125 l 0.703125,0.705078 C 9.2072109,10.454899 9.4979454,10.02107 9.7011719,9.53125 9.9043983,9.0414238 10.005859,8.5315061 10.005859,8 10.005859,7.4684872 9.9043983,6.9585695 9.7011719,6.46875 9.4979454,5.9789305 9.2072109,5.5451015 8.8320312,5.1699219 Z"
       sodipodi:nodetypes="ccsccsccccccccsccccccsccccccccccccccscccsssc" />
    <path
       d="m 13.076172,0.9257812 -0.703125,0.703125 c 0.422059,0.4220996 0.796067,0.8819203 1.119141,1.3769532 0.328286,0.4897995 0.604058,1.0049422 0.828124,1.546875 0.224067,0.5419128 0.393173,1.1058337 0.507813,1.6894531 C 14.947978,6.8206136 15.007812,7.4059606 15.007812,8 c 0,0.5940461 -0.05983,1.1820056 -0.179687,1.765625 -0.11464,0.578433 -0.283746,1.139741 -0.507813,1.681641 -0.224066,0.541899 -0.499838,1.059654 -0.828124,1.554687 -0.323054,0.489853 -0.697062,0.947061 -1.119141,1.369141 l 0.703125,0.703125 c 0.468986,-0.468993 0.884594,-0.978251 1.24414,-1.525391 0.36476,-0.547146 0.671756,-1.119497 0.921876,-1.71875 0.250119,-0.604459 0.43744,-1.226248 0.5625,-1.8671874 C 15.934961,9.3167379 16,8.6617793 16,8 16,7.3382073 15.93496,6.6878144 15.804688,6.046875 15.679628,5.400729 15.492307,4.7769871 15.242188,4.1777344 14.992068,3.573275 14.685072,2.9983113 14.320312,2.4511719 13.96076,1.9040191 13.545151,1.3947608 13.076172,0.9257812 Z"
       id="path343"
       style="opacity:0.35" />
  </g>
</svg>
