<?xml version="1.0" encoding="UTF-8" standalone="no"?>
<svg
   width="16"
   height="16"
   version="1.1"
   id="svg6"
   sodipodi:docname="audio-volume-high-symbolic.svg"
   inkscape:version="1.2 (dc2aedaf03, 2022-05-15)"
   xmlns:inkscape="http://www.inkscape.org/namespaces/inkscape"
   xmlns:sodipodi="http://sodipodi.sourceforge.net/DTD/sodipodi-0.dtd"
   xmlns="http://www.w3.org/2000/svg"
   xmlns:svg="http://www.w3.org/2000/svg">
  <defs
     id="defs10" />
  <sodipodi:namedview
     id="namedview8"
     pagecolor="#ffffff"
     bordercolor="#666666"
     borderopacity="1.0"
     inkscape:pageshadow="2"
     inkscape:pageopacity="0.0"
     inkscape:pagecheckerboard="0"
     showgrid="false"
     inkscape:zoom="49.6875"
     inkscape:cx="8"
     inkscape:cy="8"
     inkscape:window-width="1920"
     inkscape:window-height="1011"
     inkscape:window-x="0"
     inkscape:window-y="0"
     inkscape:window-maximized="1"
     inkscape:current-layer="g4"
     inkscape:showpageshadow="2"
     inkscape:deskcolor="#d1d1d1" />
  <g
     fill="#363636"
     stroke-linecap="round"
     stroke-linejoin="round"
     stroke-width="2.001"
     style="paint-order:stroke fill markers"
     aria-label="î§"
     id="g4">
    <path
       id="path2"
       d="M 13.076172 0.92578125 L 12.373047 1.6289062 C 12.795106 2.0510058 13.169114 2.5108265 13.492188 3.0058594 C 13.820474 3.4956589 14.096246 4.0108016 14.320312 4.5527344 C 14.544379 5.0946472 14.713485 5.6585681 14.828125 6.2421875 C 14.947978 6.8206136 15.007812 7.4059606 15.007812 8 C 15.007812 8.5940461 14.947978 9.1820056 14.828125 9.765625 C 14.713485 10.344058 14.544379 10.905366 14.320312 11.447266 C 14.096246 11.989165 13.820474 12.50692 13.492188 13.001953 C 13.169134 13.491806 12.795126 13.949014 12.373047 14.371094 L 13.076172 15.074219 C 13.545158 14.605226 13.960766 14.095968 14.320312 13.548828 C 14.685072 13.001682 14.992068 12.429331 15.242188 11.830078 C 15.492307 11.225619 15.679628 10.60383 15.804688 9.9628906 C 15.934961 9.3167379 16 8.6617793 16 8 C 16 7.3382073 15.934961 6.6878144 15.804688 6.046875 C 15.679628 5.400729 15.492307 4.7769871 15.242188 4.1777344 C 14.992068 3.573275 14.685072 2.9983113 14.320312 2.4511719 C 13.96076 1.9040191 13.545151 1.3947608 13.076172 0.92578125 z M 5.2929688 1.9960938 L 2.2910156 4.9980469 L 1 4.9980469 A 1 0.99990016 0 0 0 0 5.9980469 L 0 10.001953 A 1 0.99990016 0 0 0 1 11.001953 L 2.2910156 11.001953 L 5.2929688 14.003906 L 6.0039062 14.003906 L 6.0039062 1.9960938 L 5.2929688 1.9960938 z M 10.958984 3.0449219 L 10.248047 3.7558594 C 10.810813 4.3186588 11.242689 4.9664393 11.544922 5.7011719 C 11.852362 6.4359045 12.005859 7.2027341 12.005859 8 C 12.005859 8.7972659 11.852362 9.5640955 11.544922 10.298828 C 11.242696 11.033587 10.81082 11.681368 10.248047 12.244141 L 10.958984 12.955078 C 11.287271 12.626805 11.576052 12.272971 11.826172 11.892578 C 12.081505 11.506992 12.294837 11.10372 12.466797 10.681641 C 12.643963 10.259574 12.776648 9.8231329 12.865234 9.375 C 12.959028 8.9216338 13.005859 8.4637662 13.005859 8 C 13.005859 7.5414138 12.959028 7.0861587 12.865234 6.6328125 C 12.776654 6.179493 12.64397 5.740439 12.466797 5.3183594 C 12.294837 4.8962865 12.081505 4.4956273 11.826172 4.1152344 C 11.576052 3.7296548 11.287271 3.3732082 10.958984 3.0449219 z M 5.0019531 3.7089844 L 5.0019531 12.291016 L 2.7128906 10 L 1 10 L 1 6 L 2.7128906 6 L 5.0019531 3.7089844 z M 8.8320312 5.1699219 L 8.1289062 5.8730469 C 8.4102926 6.1544333 8.6262306 6.4815895 8.7773438 6.8515625 C 8.9284569 7.2163221 9.0039062 7.5987604 9.0039062 8 C 9.0039062 8.4012263 8.9284569 8.786277 8.7773438 9.15625 C 8.6262306 9.5210096 8.4102926 9.8436136 8.1289062 10.125 L 8.8320312 10.830078 C 9.2072109 10.454899 9.4979454 10.02107 9.7011719 9.53125 C 9.9043983 9.0414238 10.005859 8.5315061 10.005859 8 C 10.005859 7.4684872 9.9043983 6.9585695 9.7011719 6.46875 C 9.4979454 5.9789305 9.2072109 5.5451015 8.8320312 5.1699219 z " />
  </g>
</svg>
