<?xml version="1.0" encoding="UTF-8" standalone="no"?>
<svg
   width="16"
   height="16"
   version="1.1"
   id="svg6"
   sodipodi:docname="audio-volume-low-symbolic.svg"
   inkscape:version="1.2 (dc2aedaf03, 2022-05-15)"
   xmlns:inkscape="http://www.inkscape.org/namespaces/inkscape"
   xmlns:sodipodi="http://sodipodi.sourceforge.net/DTD/sodipodi-0.dtd"
   xmlns="http://www.w3.org/2000/svg"
   xmlns:svg="http://www.w3.org/2000/svg">
  <defs
     id="defs10" />
  <sodipodi:namedview
     id="namedview8"
     pagecolor="#ffffff"
     bordercolor="#666666"
     borderopacity="1.0"
     inkscape:pageshadow="2"
     inkscape:pageopacity="0.0"
     inkscape:pagecheckerboard="0"
     showgrid="false"
     inkscape:zoom="56.189949"
     inkscape:cx="7.9996513"
     inkscape:cy="7.9996513"
     inkscape:window-width="1920"
     inkscape:window-height="1011"
     inkscape:window-x="0"
     inkscape:window-y="0"
     inkscape:window-maximized="1"
     inkscape:current-layer="g4"
     inkscape:showpageshadow="2"
     inkscape:deskcolor="#d1d1d1" />
  <g
     fill="#363636"
     stroke-linecap="round"
     stroke-linejoin="round"
     stroke-width="2.001"
     style="paint-order:stroke fill markers"
     aria-label="î§"
     id="g4">
    <path
       id="path2"
       d="M 5.2929688,1.9960938 2.2910156,4.9980469 H 1 c -0.55232375,0 -1.000055149509,0.4477314 -1,1 v 4.0039061 c -5.5149509e-5,0.552269 0.44767625,1 1,1 h 1.2910156 l 3.0019532,3.001953 H 6.0039062 V 1.9960938 Z M 5.0019531,3.7089844 V 12.291016 L 2.7128906,10 H 1 V 6 h 1.7128906 z m 3.8300781,1.4609375 -0.703125,0.703125 C 8.4102926,6.1544333 8.6262306,6.4815895 8.7773438,6.8515625 8.9284569,7.2163221 9.0039062,7.5987604 9.0039062,8 c 0,0.4012263 -0.075449,0.786277 -0.2265624,1.15625 C 8.6262306,9.5210096 8.4102926,9.8436136 8.1289062,10.125 l 0.703125,0.705078 C 9.2072109,10.454899 9.4979454,10.02107 9.7011719,9.53125 9.9043983,9.0414238 10.005859,8.5315061 10.005859,8 10.005859,7.4684872 9.9043983,6.9585695 9.7011719,6.46875 9.4979454,5.9789305 9.2072109,5.5451015 8.8320312,5.1699219 Z"
       sodipodi:nodetypes="ccsccscccccccccccccccscccsssc" />
    <path
       id="path524"
       d="M 13.076172 0.92578125 L 12.373047 1.6289062 C 12.795105 2.0510054 13.169114 2.510827 13.492188 3.0058594 C 13.820473 3.4956584 14.096247 4.0108021 14.320312 4.5527344 C 14.544379 5.0946466 14.713485 5.6585687 14.828125 6.2421875 C 14.947978 6.820613 15.007812 7.4059612 15.007812 8 C 15.007812 8.5940455 14.947982 9.1820062 14.828125 9.765625 C 14.713485 10.344057 14.544379 10.905366 14.320312 11.447266 C 14.096247 11.989164 13.820473 12.506921 13.492188 13.001953 C 13.169134 13.491806 12.795125 13.949014 12.373047 14.371094 L 13.076172 15.074219 C 13.545157 14.605226 13.960767 14.095968 14.320312 13.548828 C 14.685072 13.001683 14.992068 12.429331 15.242188 11.830078 C 15.492306 11.22562 15.679628 10.603829 15.804688 9.9628906 C 15.93496 9.3167386 16 8.6617786 16 8 C 16 7.338208 15.934959 6.6878138 15.804688 6.046875 C 15.679628 5.4007296 15.492306 4.7769865 15.242188 4.1777344 C 14.992068 3.5732756 14.685072 2.9983107 14.320312 2.4511719 C 13.960761 1.9040196 13.54515 1.3947604 13.076172 0.92578125 z M 10.958984 3.0449219 L 10.248047 3.7558594 C 10.810812 4.3186582 11.242689 4.96644 11.544922 5.7011719 C 11.852362 6.4359037 12.005859 7.2027349 12.005859 8 C 12.005859 8.7972651 11.852362 9.5640964 11.544922 10.298828 C 11.242696 11.033586 10.810819 11.681368 10.248047 12.244141 L 10.958984 12.955078 C 11.287271 12.626805 11.576052 12.272971 11.826172 11.892578 C 12.081505 11.506993 12.294837 11.103719 12.466797 10.681641 C 12.643963 10.259574 12.776648 9.8231325 12.865234 9.375 C 12.959024 8.9216343 13.005859 8.4637657 13.005859 8 C 13.005859 7.5414143 12.959029 7.0861582 12.865234 6.6328125 C 12.776654 6.1794935 12.64397 5.7404386 12.466797 5.3183594 C 12.294837 4.8962869 12.081505 4.4956269 11.826172 4.1152344 C 11.576052 3.7296552 11.287271 3.3732078 10.958984 3.0449219 z "
       style="opacity:0.35" />
  </g>
</svg>
