<?xml version="1.0" encoding="UTF-8" standalone="no"?>
<!-- Created with Inkscape (http://www.inkscape.org/) -->

<svg
   width="16"
   height="16"
   viewBox="0 0 4.2333332 4.2333335"
   version="1.1"
   id="svg5"
   inkscape:version="1.2 (dc2aedaf03, 2022-05-15)"
   sodipodi:docname="battery-missing-symbolic.svg"
   xmlns:inkscape="http://www.inkscape.org/namespaces/inkscape"
   xmlns:sodipodi="http://sodipodi.sourceforge.net/DTD/sodipodi-0.dtd"
   xmlns="http://www.w3.org/2000/svg"
   xmlns:svg="http://www.w3.org/2000/svg">
  <sodipodi:namedview
     id="namedview7"
     pagecolor="#ffffff"
     bordercolor="#666666"
     borderopacity="1.0"
     inkscape:pageshadow="2"
     inkscape:pageopacity="0.0"
     inkscape:pagecheckerboard="0"
     inkscape:document-units="px"
     showgrid="false"
     units="px"
     height="16px"
     inkscape:zoom="49.6875"
     inkscape:cx="8"
     inkscape:cy="8"
     inkscape:window-width="1920"
     inkscape:window-height="1011"
     inkscape:window-x="0"
     inkscape:window-y="0"
     inkscape:window-maximized="1"
     inkscape:current-layer="svg5"
     inkscape:showpageshadow="2"
     inkscape:deskcolor="#d1d1d1" />
  <defs
     id="defs2" />
  <path
     id="rect846"
     style="fill:#363636;stroke-width:3;stroke-linejoin:round"
     d="M 6.9746094,0 C 6.4342534,0.01369014 6,0.45634479 6,1 H 5 C 3.8919998,1 3,1.892 3,3 v 10 c 0,1.108 0.8919998,2 2,2 h 6 c 1.108,0 2,-0.892 2,-2 V 3 C 13,1.892 12.108,1 11,1 H 10 C 10,0.44771534 9.5522846,1.2524249e-7 9,0 H 7 c -0.00863,0 -0.016813,-2.1730383e-4 -0.025391,0 z M 5,2 h 6 c 0.554,0 1,0.4460001 1,1 v 10 c 0,0.554 -0.446,1 -1,1 H 5 C 4.4459999,14 4,13.554 4,13 V 3 C 4,2.4460001 4.4459999,2 5,2 Z"
     transform="scale(0.26458333)"
     sodipodi:nodetypes="scsssssssscssssssssssss" />
  <path
     d="M 1.9171966,2.624603 V 2.611104 c 0.0015,-0.1432409 0.016499,-0.2572337 0.044997,-0.3419784 0.028498,-0.084745 0.068995,-0.1533654 0.1214923,-0.205862 0.052497,-0.052497 0.1154927,-0.1008686 0.1889881,-0.1451158 0.044247,-0.026998 0.083995,-0.058871 0.1192425,-0.095619 0.035248,-0.037497 0.062996,-0.08062 0.083245,-0.1293668 0.020999,-0.048747 0.031498,-0.1027433 0.031498,-0.1619898 0,-0.073495 -0.017249,-0.1372414 -0.051747,-0.191238 -0.034498,-0.053997 -0.08062,-0.095619 -0.1383661,-0.1248672 -0.057746,-0.029248 -0.1218672,-0.043872 -0.1923628,-0.043872 -0.061496,0 -0.1207422,0.012749 -0.1777388,0.038248 -0.056997,0.025499 -0.1046186,0.065621 -0.142866,0.1203674 -0.038247,0.054747 -0.060371,0.1263672 -0.066371,0.2148615 H 1.4537259 c 0.006,-0.127492 0.038998,-0.2366101 0.098994,-0.3273544 0.060746,-0.090744 0.140616,-0.1601148 0.2396098,-0.2081118 0.099744,-0.047997 0.2103618,-0.0719955 0.3318541,-0.0719955 0.1319917,0 0.2467344,0.0262483 0.3442282,0.078745 0.098244,0.052497 0.173989,0.1244922 0.2272357,0.2159864 0.053997,0.091494 0.080995,0.1957377 0.080995,0.3127303 0,0.082495 -0.012749,0.1571151 -0.038248,0.2238609 -0.024749,0.066746 -0.060746,0.126367 -0.1079932,0.1788637 -0.046497,0.052497 -0.1027438,0.098994 -0.1687393,0.1394912 -0.065996,0.041247 -0.1188676,0.084745 -0.158615,0.1304918 -0.039747,0.044997 -0.06862,0.098619 -0.086619,0.1608648 -0.017999,0.062246 -0.027748,0.1398661 -0.029248,0.2328603 v 0.013499 z m 0.143991,0.665958 c -0.055497,0 -0.1031186,-0.019874 -0.142866,-0.059621 -0.039747,-0.039747 -0.059621,-0.087369 -0.059621,-0.142866 0,-0.055497 0.019874,-0.1031187 0.059621,-0.142866 0.039747,-0.039747 0.087369,-0.059621 0.142866,-0.059621 0.055497,0 0.1031187,0.019874 0.1428659,0.059621 0.039747,0.039747 0.059621,0.087369 0.059621,0.142866 0,0.036748 -0.00937,0.070496 -0.028123,0.1012436 -0.017999,0.030748 -0.042372,0.055496 -0.07312,0.074245 -0.029998,0.017999 -0.063746,0.026998 -0.1012439,0.026998 z"
     style="font-family:Inter;-inkscape-font-specification:Inter;fill:#f55f55;fill-opacity:1"
     id="path1109" />
</svg>
