<?xml version="1.0" encoding="UTF-8" standalone="no"?>
<!-- Created with Inkscape (http://www.inkscape.org/) -->

<svg
   width="16"
   height="16"
   viewBox="0 0 4.2333332 4.2333335"
   version="1.1"
   id="svg5"
   inkscape:version="1.1.2 (0a00cf5339, 2022-02-04, custom)"
   sodipodi:docname="battery-full-symbolic.svg"
   xmlns:inkscape="http://www.inkscape.org/namespaces/inkscape"
   xmlns:sodipodi="http://sodipodi.sourceforge.net/DTD/sodipodi-0.dtd"
   xmlns="http://www.w3.org/2000/svg"
   xmlns:svg="http://www.w3.org/2000/svg">
  <sodipodi:namedview
     id="namedview7"
     pagecolor="#ffffff"
     bordercolor="#666666"
     borderopacity="1.0"
     inkscape:pageshadow="2"
     inkscape:pageopacity="0.0"
     inkscape:pagecheckerboard="0"
     inkscape:document-units="px"
     showgrid="false"
     units="px"
     height="16px"
     inkscape:zoom="49"
     inkscape:cx="8"
     inkscape:cy="8"
     inkscape:window-width="1920"
     inkscape:window-height="1011"
     inkscape:window-x="0"
     inkscape:window-y="0"
     inkscape:window-maximized="1"
     inkscape:current-layer="svg5" />
  <defs
     id="defs2" />
  <path
     id="rect846"
     style="fill:#363636;stroke-width:3;stroke-linejoin:round"
     d="M 6.9746094 0 C 6.4342534 0.013690141 6 0.45634479 6 1 L 5 1 C 3.8919998 1 3 1.892 3 3 L 3 13 C 3 14.108 3.8919998 15 5 15 L 11 15 C 12.108 15 13 14.108 13 13 L 13 3 C 13 1.892 12.108 1 11 1 L 10 1 C 10 0.44771534 9.5522846 1.2524249e-07 9 0 L 7 0 C 6.9913706 1.9569139e-09 6.9831865 -0.00021730383 6.9746094 0 z M 5 2 L 11 2 C 11.554 2 12 2.4460001 12 3 L 12 13 C 12 13.554 11.554 14 11 14 L 5 14 C 4.4459999 14 4 13.554 4 13 L 4 3 C 4 2.4460001 4.4459999 2 5 2 z M 5 3 L 5 13 L 11 13 L 11 3 L 5 3 z "
     transform="scale(0.26458333)" />
</svg>
