<?xml version="1.0" encoding="UTF-8" standalone="no"?>
<!-- Created with Inkscape (http://www.inkscape.org/) -->

<svg
   width="16"
   height="16"
   viewBox="0 0 4.2333332 4.2333335"
   version="1.1"
   id="svg5"
   inkscape:version="1.2 (dc2aedaf03, 2022-05-15)"
   sodipodi:docname="network-cellular-secure-signal-none-symbolic.svg"
   xmlns:inkscape="http://www.inkscape.org/namespaces/inkscape"
   xmlns:sodipodi="http://sodipodi.sourceforge.net/DTD/sodipodi-0.dtd"
   xmlns="http://www.w3.org/2000/svg"
   xmlns:svg="http://www.w3.org/2000/svg">
  <sodipodi:namedview
     id="namedview7"
     pagecolor="#ffffff"
     bordercolor="#666666"
     borderopacity="1.0"
     inkscape:pageshadow="2"
     inkscape:pageopacity="0.0"
     inkscape:pagecheckerboard="0"
     inkscape:document-units="px"
     showgrid="false"
     units="px"
     height="16px"
     inkscape:zoom="49"
     inkscape:cx="8.0306122"
     inkscape:cy="8.1122449"
     inkscape:window-width="1920"
     inkscape:window-height="1011"
     inkscape:window-x="0"
     inkscape:window-y="0"
     inkscape:window-maximized="1"
     inkscape:current-layer="svg5"
     inkscape:showpageshadow="2"
     inkscape:deskcolor="#d1d1d1" />
  <defs
     id="defs2" />
  <path
     id="rect843"
     style="opacity:0.15;fill:#363636;stroke-width:3;stroke-linejoin:round"
     d="M 14 1 C 13.446003 1 13 1.4460018 13 2 L 13 8.0000001 C 13.737895 7.9999286 14.449942 8.271813 15 8.763672 L 15 2 C 15 1.4460018 14.554 1 14 1 z M 10 4.0000001 C 9.4460024 4.0000001 9.0000001 4.4460019 9.0000001 5.0000001 L 9.0000001 11 L 10 11 C 10.000482 10.146906 10.364142 9.3343552 11 8.7656251 L 11 5.0000001 C 11 4.4460019 10.554 4.0000001 10 4.0000001 z M 6.0000001 8.0000001 C 5.4460011 8.0000001 5.0000001 8.4460015 5.0000001 9.0000001 L 5.0000001 14 C 5.0000001 14.553999 5.4460015 15 6.0000001 15 C 6.5539987 15 7.0000001 14.553999 7.0000001 14 L 7.0000001 9.0000001 C 7.0000001 8.4460015 6.5539987 8.0000001 6.0000001 8.0000001 z M 1.9492188 12 C 1.4191862 12.026495 1 12.463179 1 13 L 1 14 C 1 14.553999 1.4460009 15 2 15 C 2.5539996 15 3 14.553999 3 14 L 3 13 C 3 12.446001 2.5539996 12 2 12 C 1.9913411 12 1.9832113 11.999784 1.9746094 12 C 1.9661416 12.000213 1.957632 11.99958 1.9492188 12 z "
     transform="scale(0.26458333)" />
  <path
     id="rect845"
     style="fill:#363636;stroke-width:3;stroke-linejoin:round"
     d="M 12.947266,9 C 11.863385,9.0278252 11,9.9277653 11,11.03125 V 12 h -1 v 4 h 6 V 12 H 15 V 11.03125 C 15,9.9112498 14.107999,9 13,9 12.982688,9 12.96447,8.9995583 12.947266,9 Z M 13,10 c 0.553999,0 1,0.442 1,1 v 1 h -2 v -1 c 0,-0.558 0.446,-1 1,-1 z"
     transform="scale(0.26458333)"
     sodipodi:nodetypes="ssccccccsssssccss" />
</svg>
