<?xml version="1.0" encoding="UTF-8" standalone="no"?>
<!-- Created with Inkscape (http://www.inkscape.org/) -->

<svg
   width="16"
   height="16"
   viewBox="0 0 4.2333332 4.2333335"
   version="1.1"
   id="svg5"
   inkscape:version="1.1.2 (0a00cf5339, 2022-02-04, custom)"
   sodipodi:docname="network-cellular-signal-ok-symbolic.svg"
   xmlns:inkscape="http://www.inkscape.org/namespaces/inkscape"
   xmlns:sodipodi="http://sodipodi.sourceforge.net/DTD/sodipodi-0.dtd"
   xmlns="http://www.w3.org/2000/svg"
   xmlns:svg="http://www.w3.org/2000/svg">
  <sodipodi:namedview
     id="namedview7"
     pagecolor="#ffffff"
     bordercolor="#666666"
     borderopacity="1.0"
     inkscape:pageshadow="2"
     inkscape:pageopacity="0.0"
     inkscape:pagecheckerboard="0"
     inkscape:document-units="px"
     showgrid="false"
     units="px"
     height="16px"
     inkscape:zoom="49"
     inkscape:cx="8"
     inkscape:cy="8"
     inkscape:window-width="1920"
     inkscape:window-height="1011"
     inkscape:window-x="0"
     inkscape:window-y="0"
     inkscape:window-maximized="1"
     inkscape:current-layer="svg5" />
  <defs
     id="defs2" />
  <path
     id="rect843"
     style="fill:#363636;display:inline;opacity:0.15;stroke-width:3;stroke-linejoin:round"
     d="M 14 1 C 13.446 1 13 1.446 13 2 L 13 14 C 13 14.554 13.446 15 14 15 C 14.554 15 15 14.554 15 14 L 15 2 C 15 1.446 14.554 1 14 1 z M 10 4 C 9.4460003 4 9 4.4460003 9 5 L 9 14 C 9 14.554 9.4460003 15 10 15 C 10.554 15 11 14.554 11 14 L 11 5 C 11 4.4460003 10.554 4 10 4 z "
     transform="scale(0.26458333)" />
  <path
     id="rect1029"
     style="fill:#363636;stroke-width:3;stroke-linejoin:round"
     d="M 6 8 C 5.4460003 8 5 8.4460003 5 9 L 5 14 C 5 14.554 5.4460003 15 6 15 C 6.5540001 15 7 14.554 7 14 L 7 9 C 7 8.4460003 6.5540001 8 6 8 z M 1.9746094 12 C 1.4326694 12.013639 1 12.454657 1 13 L 1 14 C 1 14.554 1.4460003 15 2 15 C 2.5540001 15 3 14.554 3 14 L 3 13 C 3 12.446 2.5540001 12 2 12 C 1.9913438 12 1.9832116 11.999784 1.9746094 12 z "
     transform="scale(0.26458333)" />
</svg>
