<?xml version="1.0" encoding="UTF-8" standalone="no"?>
<!-- Created with Inkscape (http://www.inkscape.org/) -->

<svg
   width="64"
   height="64"
   viewBox="0 0 16.933333 16.933334"
   version="1.1"
   id="svg5"
   inkscape:version="1.1.2 (0a00cf5339, 2022-02-04, custom)"
   sodipodi:docname="application-vnd.visio.svg"
   xmlns:inkscape="http://www.inkscape.org/namespaces/inkscape"
   xmlns:sodipodi="http://sodipodi.sourceforge.net/DTD/sodipodi-0.dtd"
   xmlns="http://www.w3.org/2000/svg"
   xmlns:svg="http://www.w3.org/2000/svg">
  <sodipodi:namedview
     id="namedview7"
     pagecolor="#ffffff"
     bordercolor="#666666"
     borderopacity="1.0"
     inkscape:pageshadow="2"
     inkscape:pageopacity="0.0"
     inkscape:pagecheckerboard="0"
     inkscape:document-units="px"
     showgrid="false"
     units="px"
     height="64px"
     inkscape:zoom="8.905126"
     inkscape:cx="13.082353"
     inkscape:cy="33.463872"
     inkscape:window-width="1920"
     inkscape:window-height="1017"
     inkscape:window-x="0"
     inkscape:window-y="32"
     inkscape:window-maximized="1"
     inkscape:current-layer="svg5" />
  <defs
     id="defs2" />
  <path
     id="rect1068"
     style="fill:#3e428b;fill-opacity:1;stroke-width:0.529167;stroke-linejoin:round"
     d="m 3.175,0.5291667 7.143751,3e-8 3.968749,3.96874997 1e-6,11.3770833 c 0,0.293158 -0.236009,0.529167 -0.529167,0.529167 H 3.175 c -0.2931584,0 -0.5291667,-0.236009 -0.5291667,-0.529167 V 1.0583334 c 0,-0.29315835 0.2360083,-0.5291667 0.5291667,-0.5291667 z"
     sodipodi:nodetypes="cccsssssc" />
  <path
     id="path9791"
     style="opacity:0.2;fill:#ffffff;fill-opacity:1;stroke-width:0.140009;stroke-linejoin:round"
     d="m 3.175,0.5291667 c -0.2931583,0 -0.5291667,0.2360083 -0.5291667,0.5291667 V 1.3229167 C 2.6458334,1.0297583 2.8818417,0.79375 3.175,0.79375 h 7.14375 c 0,0 1e-6,-0.2645833 0,-0.2645833 z"
     sodipodi:nodetypes="sscsccs" />
  <path
     id="rect9905"
     style="opacity:0.2;fill:#000000;fill-opacity:1;stroke-width:2;stroke-linejoin:round"
     d="M 10 59 L 10 60 C 10 61.108 10.892 62 12 62 L 52 62 C 53.108 62 54 61.108 54 60 L 54 59 C 54 60.108 53.108 61 52 61 L 12 61 C 10.892 61 10 60.108 10 59 z "
     transform="scale(0.26458334)" />
  <path
     id="rect5598"
     style="opacity:0.1;fill:#000000;fill-opacity:1;stroke-width:0.529167;stroke-linejoin:round"
     d="M 10.444901,4.3115072 10.31875,3.4395834 14.2875,4.4979167 v 3.7041668 z"
     sodipodi:nodetypes="ccccc" />
  <path
     id="rect2607"
     style="fill:#f1f1f1;fill-opacity:1;stroke-width:0.529167;stroke-linejoin:round"
     d="m 14.2875,4.4979167 -3.439583,-1e-7 c -0.293158,0 -0.529166,-0.2360083 -0.529166,-0.5291667 V 0.52916673 Z"
     sodipodi:nodetypes="csscc" />
  <path
     d="M 8.4776391,6.3500001 5.0270834,7.1101747 v 5.8897133 l 3.4278553,0.758455 z M 6.8787405,11.158323 6.3602665,11.10209 5.8010524,8.9103203 6.2336607,8.8926903 6.6394779,10.572396 7.0360789,8.8480895 7.4644005,8.8236785 Z"
     enable-background="new"
     id="path10"
     sodipodi:nodetypes="ccccccccccccc"
     style="fill:#ffffff;fill-opacity:1;stroke-width:1.00002" />
  <path
     id="rect1609"
     style="opacity:1;fill:#ffffff;stroke-width:0.670893;stroke-linecap:round;stroke-linejoin:round"
     d="M 33 27 L 33 33 L 37.5 33 L 40.5 30 L 44 33.5 L 41 36.5 L 41 43 L 37 43 L 37 46 L 33 46 L 33 49 L 44 49 C 44.553999 49 45 48.553999 45 48 L 45 28 C 45 27.446 44.553999 27 44 27 L 33 27 z M 40.5 31.5 L 38.5 33.5 L 40.5 35.5 L 42.5 33.5 L 40.5 31.5 z M 33 34 L 33 39 L 37 39 L 37 42 L 40 42 L 40 36.5 L 37.5 34 L 33 34 z M 33 40 L 33 45 L 36 45 L 36 40 L 33 40 z "
     transform="scale(0.26458334)" />
</svg>
