<?xml version="1.0" encoding="UTF-8" standalone="no"?>
<!-- Created with Inkscape (http://www.inkscape.org/) -->

<svg
   width="64"
   height="64"
   viewBox="0 0 16.933333 16.933334"
   version="1.1"
   id="svg5"
   inkscape:version="1.1.2 (0a00cf5339, 2022-02-04, custom)"
   sodipodi:docname="application-vnd.oasis.opendocument.database.svg"
   xmlns:inkscape="http://www.inkscape.org/namespaces/inkscape"
   xmlns:sodipodi="http://sodipodi.sourceforge.net/DTD/sodipodi-0.dtd"
   xmlns="http://www.w3.org/2000/svg"
   xmlns:svg="http://www.w3.org/2000/svg">
  <sodipodi:namedview
     id="namedview7"
     pagecolor="#ffffff"
     bordercolor="#666666"
     borderopacity="1.0"
     inkscape:pageshadow="2"
     inkscape:pageopacity="0.0"
     inkscape:pagecheckerboard="0"
     inkscape:document-units="px"
     showgrid="false"
     units="px"
     height="64px"
     inkscape:zoom="8.7173008"
     inkscape:cx="24.950384"
     inkscape:cy="31.546462"
     inkscape:window-width="1920"
     inkscape:window-height="1017"
     inkscape:window-x="0"
     inkscape:window-y="32"
     inkscape:window-maximized="1"
     inkscape:current-layer="svg5" />
  <defs
     id="defs2" />
  <path
     id="rect1068"
     style="fill:#d55fc6;fill-opacity:1;stroke-width:0.529167;stroke-linejoin:round"
     d="m 3.175,0.5291667 7.143751,3e-8 3.968749,3.96874997 1e-6,11.3770833 c 0,0.293158 -0.236009,0.529167 -0.529167,0.529167 H 3.175 c -0.2931584,0 -0.5291667,-0.236009 -0.5291667,-0.529167 V 1.0583334 c 0,-0.29315835 0.2360083,-0.5291667 0.5291667,-0.5291667 z"
     sodipodi:nodetypes="cccsssssc" />
  <path
     id="rect9905"
     style="opacity:0.2;fill:#000000;fill-opacity:1;stroke-width:2;stroke-linejoin:round"
     d="M 10 59 L 10 60 C 10 61.108 10.892 62 12 62 L 52 62 C 53.108 62 54 61.108 54 60 L 54 59 C 54 60.108 53.108 61 52 61 L 12 61 C 10.892 61 10 60.108 10 59 z "
     transform="scale(0.26458334)" />
  <path
     id="rect5598"
     style="opacity:0.1;fill:#000000;fill-opacity:1;stroke-width:0.529167;stroke-linejoin:round"
     d="M 10.444901,4.3115072 10.31875,3.4395834 14.2875,4.4979167 v 3.7041668 z"
     sodipodi:nodetypes="ccccc" />
  <path
     id="rect2607"
     style="fill:#f1f1f1;fill-opacity:1;stroke-width:0.529167;stroke-linejoin:round"
     d="m 14.2875,4.4979167 -3.439583,-1e-7 c -0.293158,0 -0.529166,-0.2360083 -0.529166,-0.5291667 V 0.52916673 Z"
     sodipodi:nodetypes="csscc" />
  <path
     id="path1285"
     style="fill:#fef7ff;stroke-width:2.00804;stroke-linecap:round;stroke-linejoin:round;fill-opacity:1"
     d="M 8.4666668,6.8791668 A 2.1166669,1.0583334 0 0 0 6.3500001,7.9375002 V 11.90625 A 2.1166669,1.0583334 0 0 0 8.4666668,12.964584 2.1166669,1.0583334 0 0 0 10.583334,11.90625 V 7.9375002 A 2.1166669,1.0583334 0 0 0 8.4666668,6.8791668 Z M 6.6145834,8.2020835 h 0.01912 c 0.1315175,0.4555901 0.9123402,0.7937191 1.832963,0.7937501 0.9206227,-3.1e-5 1.7014466,-0.33816 1.8329636,-0.7937501 h 0.01912 V 11.90625 C 10.31875,12.344627 9.489544,12.7 8.4666664,12.7 7.4437888,12.7 6.614583,12.344627 6.614583,11.90625 Z" />
  <path
     id="path1285-5"
     style="opacity:0.2;fill:#000000;stroke-width:2.00804;stroke-linecap:round;stroke-linejoin:round;fill-opacity:1"
     d="m 6.3691204,8.0672079 a 2.1166669,1.0583334 0 0 0 -0.01912,0.1348756 v 3.9687505 a 2.1166669,1.0583334 0 0 0 2.1166667,1.058333 2.1166669,1.0583334 0 0 0 2.1166669,-1.058333 V 12.04681 a 2.1166669,1.0583334 0 0 1 -2.0215823,0.91674 2.1166669,1.0583334 0 0 1 -0.075964,10e-4 2.1166669,1.0583334 0 0 1 -0.00672,0 c -0.00416,1.2e-5 -0.00823,0 -0.012402,0 -0.5530385,0 -1.049183,-0.103998 -1.3885458,-0.268718 A 2.1166669,1.0583334 0 0 1 6.3691204,11.90625 Z m 0.2645834,0.1348756 v 0.2645834 c 0.1315175,0.45559 0.9123402,0.793719 1.832963,0.79375 0.9206227,-3.1e-5 1.7014472,-0.33816 1.8329632,-0.79375 h 0.01912 v 3.5537881 c 0.01253,-0.03727 0.01912,-0.07545 0.01912,-0.114205 V 8.2020835 H 10.31875 C 10.187234,8.6576736 9.4064099,8.9958026 8.4857872,8.9958336 7.5651644,8.9958026 6.7843414,8.6576736 6.6528239,8.2020835 Z" />
</svg>
