<?xml version="1.0" encoding="UTF-8" standalone="no"?>
<!-- Created with Inkscape (http://www.inkscape.org/) -->

<svg
   width="64"
   height="64"
   viewBox="0 0 16.933333 16.933334"
   version="1.1"
   id="svg5"
   inkscape:version="1.1.2 (0a00cf5339, 2022-02-04, custom)"
   sodipodi:docname="application-vnd.iccprofile.svg"
   xmlns:inkscape="http://www.inkscape.org/namespaces/inkscape"
   xmlns:sodipodi="http://sodipodi.sourceforge.net/DTD/sodipodi-0.dtd"
   xmlns="http://www.w3.org/2000/svg"
   xmlns:svg="http://www.w3.org/2000/svg">
  <sodipodi:namedview
     id="namedview7"
     pagecolor="#ffffff"
     bordercolor="#666666"
     borderopacity="1.0"
     inkscape:pageshadow="2"
     inkscape:pageopacity="0.0"
     inkscape:pagecheckerboard="0"
     inkscape:document-units="px"
     showgrid="false"
     units="px"
     height="64px"
     inkscape:zoom="4.452563"
     inkscape:cx="61.425296"
     inkscape:cy="72.542488"
     inkscape:window-width="1920"
     inkscape:window-height="1017"
     inkscape:window-x="0"
     inkscape:window-y="32"
     inkscape:window-maximized="1"
     inkscape:current-layer="svg5" />
  <defs
     id="defs2" />
  <path
     id="rect1068"
     style="fill:#f8ad1c;fill-opacity:1;stroke-width:0.529167;stroke-linejoin:round"
     d="m 3.175,0.5291667 7.143751,3e-8 3.968749,3.96874997 1e-6,11.3770833 c 0,0.293158 -0.236009,0.529167 -0.529167,0.529167 H 3.175 c -0.2931584,0 -0.5291667,-0.236009 -0.5291667,-0.529167 V 1.0583334 c 0,-0.29315835 0.2360083,-0.5291667 0.5291667,-0.5291667 z"
     sodipodi:nodetypes="cccsssssc" />
  <path
     id="path9791"
     style="opacity:0.2;fill:#ffffff;fill-opacity:1;stroke-width:0.140009;stroke-linejoin:round"
     d="m 3.175,0.5291667 c -0.2931583,0 -0.5291667,0.2360083 -0.5291667,0.5291667 V 1.3229167 C 2.6458334,1.0297583 2.8818417,0.79375 3.175,0.79375 h 7.14375 c 0,0 1e-6,-0.2645833 0,-0.2645833 z"
     sodipodi:nodetypes="sscsccs" />
  <path
     id="rect9905"
     style="opacity:0.2;fill:#000000;fill-opacity:1;stroke-width:2;stroke-linejoin:round"
     d="M 10 59 L 10 60 C 10 61.108 10.892 62 12 62 L 52 62 C 53.108 62 54 61.108 54 60 L 54 59 C 54 60.108 53.108 61 52 61 L 12 61 C 10.892 61 10 60.108 10 59 z "
     transform="scale(0.26458334)" />
  <path
     id="rect5598"
     style="opacity:0.1;fill:#000000;fill-opacity:1;stroke-width:0.529167;stroke-linejoin:round"
     d="M 10.444901,4.3115072 10.31875,3.4395834 14.2875,4.4979167 v 3.7041668 z"
     sodipodi:nodetypes="ccccc" />
  <path
     id="rect2607"
     style="fill:#f1f1f1;fill-opacity:1;stroke-width:0.529167;stroke-linejoin:round"
     d="m 14.2875,4.4979167 -3.439583,-1e-7 c -0.293158,0 -0.529166,-0.2360083 -0.529166,-0.5291667 V 0.52916673 Z"
     sodipodi:nodetypes="csscc" />
  <path
     id="path2248"
     style="opacity:1;fill:#fff7e7;stroke-width:0.782706;stroke-linecap:round;stroke-linejoin:round;fill-opacity:1"
     d="M 32 26 C 32 26 24.999999 37.134006 25 41 C 25.000001 44.865992 28.134007 48 32 48 C 35.865993 48 39 44.865992 39 41 C 39 37.134006 32 26 32 26 z M 37.925781 40.060547 A 6 6 0 0 1 38 41 A 6 6 0 0 1 32 47 A 6 6 0 0 1 31.060547 46.925781 A 8.0000005 8.0000005 0 0 0 37.925781 40.060547 z "
     transform="scale(0.26458334)" />
  <path
     id="path2248-7"
     style="opacity:0.2;fill:#000000;stroke-width:0.782706;stroke-linecap:round;stroke-linejoin:round;fill-opacity:1"
     d="M 37.925781 40.060547 A 8.0000008 8.0000008 0 0 1 31.060547 46.925781 A 5.9999999 5.9999999 0 0 0 32 47 A 5.9999999 5.9999999 0 0 0 35.195312 46.076172 A 8.0000008 8.0000008 0 0 0 37.925781 41.060547 A 5.9999999 5.9999999 0 0 1 37.976562 41.5 A 5.9999999 5.9999999 0 0 0 38 41 A 5.9999999 5.9999999 0 0 0 37.925781 40.060547 z M 38.976562 41.582031 C 38.680796 45.175745 35.670021 48 32 48 C 28.330661 48 25.320157 45.176744 25.023438 41.583984 C 25.008025 41.730333 25 41.869506 25 42 C 25.000001 45.865992 28.134008 49 32 49 C 35.865996 49 39 45.865992 39 42 C 39 41.868944 38.992106 41.729075 38.976562 41.582031 z "
     transform="scale(0.26458334)" />
</svg>
