<?xml version="1.0" encoding="UTF-8" standalone="no"?>
<!-- Created with Inkscape (http://www.inkscape.org/) -->

<svg
   width="64"
   height="64"
   viewBox="0 0 16.933333 16.933334"
   version="1.1"
   id="svg5"
   inkscape:version="1.1.2 (0a00cf5339, 2022-02-04, custom)"
   sodipodi:docname="application-x-cd-image.svg"
   xmlns:inkscape="http://www.inkscape.org/namespaces/inkscape"
   xmlns:sodipodi="http://sodipodi.sourceforge.net/DTD/sodipodi-0.dtd"
   xmlns="http://www.w3.org/2000/svg"
   xmlns:svg="http://www.w3.org/2000/svg">
  <sodipodi:namedview
     id="namedview7"
     pagecolor="#ffffff"
     bordercolor="#666666"
     borderopacity="1.0"
     inkscape:pageshadow="2"
     inkscape:pageopacity="0.0"
     inkscape:pagecheckerboard="0"
     inkscape:document-units="px"
     showgrid="false"
     units="px"
     height="64px"
     inkscape:zoom="8"
     inkscape:cx="19.6875"
     inkscape:cy="35.125"
     inkscape:window-width="1576"
     inkscape:window-height="755"
     inkscape:window-x="282"
     inkscape:window-y="116"
     inkscape:window-maximized="0"
     inkscape:current-layer="svg5" />
  <defs
     id="defs2" />
  <path
     id="rect1068"
     style="fill:#666666;fill-opacity:1;stroke-width:0.529167;stroke-linejoin:round"
     d="m 3.175,0.5291667 7.143751,3e-8 3.968749,3.96874997 1e-6,11.3770833 c 0,0.293158 -0.236009,0.529167 -0.529167,0.529167 H 3.175 c -0.2931584,0 -0.5291667,-0.236009 -0.5291667,-0.529167 V 1.0583334 c 0,-0.29315835 0.2360083,-0.5291667 0.5291667,-0.5291667 z"
     sodipodi:nodetypes="cccsssssc" />
  <path
     id="path9791"
     style="opacity:0.2;fill:#ffffff;fill-opacity:1;stroke-width:0.140009;stroke-linejoin:round"
     d="m 3.1750012,0.52916673 c -0.2931584,0 -0.5291667,0.2360083 -0.5291667,0.52916667 v 0.2645833 c 0,-0.2931584 0.2360083,-0.52916667 0.5291667,-0.52916667 h 7.1437498 c 0,0 10e-7,-0.2645832 0,-0.2645833 z"
     sodipodi:nodetypes="sscsccs" />
  <path
     id="rect9905"
     style="opacity:0.2;fill:#000000;fill-opacity:1;stroke-width:2;stroke-linejoin:round"
     d="M 10 59 L 10 60 C 10 61.108 10.892 62 12 62 L 52 62 C 53.108 62 54 61.108 54 60 L 54 59 C 54 60.108 53.108 61 52 61 L 12 61 C 10.892 61 10 60.108 10 59 z "
     transform="scale(0.26458334)" />
  <path
     id="rect5598"
     style="opacity:0.1;fill:#000000;fill-opacity:1;stroke-width:0.529167;stroke-linejoin:round"
     d="M 10.444901,4.3115072 10.31875,3.4395834 14.2875,4.4979167 v 3.7041668 z"
     sodipodi:nodetypes="ccccc" />
  <path
     id="rect2607"
     style="fill:#f1f1f1;fill-opacity:1;stroke-width:0.529167;stroke-linejoin:round"
     d="m 14.2875,4.4979167 -3.439583,-1e-7 c -0.293158,0 -0.529166,-0.2360083 -0.529166,-0.5291667 V 0.52916673 Z"
     sodipodi:nodetypes="csscc" />
  <path
     id="path863"
     style="opacity:1;fill:#dedede;stroke-width:2.00885;stroke-linejoin:round;fill-opacity:1"
     d="M 32 24 A 16.000001 16.000001 0 0 0 16 40 A 16.000001 16.000001 0 0 0 32 56 A 16.000001 16.000001 0 0 0 48 40 A 16.000001 16.000001 0 0 0 32 24 z M 32 37 A 2.9999999 2.9999999 0 0 1 35 40 A 2.9999999 2.9999999 0 0 1 32 43 A 2.9999999 2.9999999 0 0 1 29 40 A 2.9999999 2.9999999 0 0 1 32 37 z "
     transform="scale(0.26458334)" />
  <path
     id="path863-5"
     style="opacity:0.2;fill:#ffffff;fill-opacity:1;stroke-width:0.531508;stroke-linejoin:round"
     d="m 12.696383,10.682023 c -0.05359,2.297966 -1.931126,4.133292 -4.2297161,4.134631 -2.2852966,-0.0017 -4.1567509,-1.81686 -4.2281659,-4.101041 -0.00241,0.04407 -0.00413,0.08817 -0.00517,0.132291 3e-7,2.338006 1.895328,4.233334 4.2333335,4.233334 2.3380055,0 4.2333335,-1.895328 4.2333335,-4.233334 -1.22e-4,-0.05531 -0.0013,-0.110616 -0.0036,-0.165881 z"
     sodipodi:nodetypes="ccccscc" />
  <path
     id="path1291"
     style="opacity:1;fill:#ffffff;fill-opacity:1;stroke-width:1.61213;stroke-linejoin:round"
     d="M 32 34 A 5.9999999 5.9999999 0 0 0 26 40 A 5.9999999 5.9999999 0 0 0 32 46 A 5.9999999 5.9999999 0 0 0 38 40 A 5.9999999 5.9999999 0 0 0 32 34 z M 32 37 A 2.9999999 2.9999999 0 0 1 35 40 A 2.9999999 2.9999999 0 0 1 32 43 A 2.9999999 2.9999999 0 0 1 29 40 A 2.9999999 2.9999999 0 0 1 32 37 z "
     transform="scale(0.26458334)" />
  <path
     id="path1023"
     style="opacity:0.3;fill:#000000;fill-opacity:1;stroke-width:1.45214;stroke-linejoin:round"
     d="M 32 36 C 29.79086 36 27.999998 37.79086 28 40 C 28.000003 42.209138 29.790863 44 32 44 C 34.209137 44 35.999997 42.209138 36 40 C 36.000002 37.79086 34.20914 36 32 36 z M 32 37 A 2.9999999 2.9999999 0 0 1 35 40 A 2.9999999 2.9999999 0 0 1 32 43 A 2.9999999 2.9999999 0 0 1 29 40 A 2.9999999 2.9999999 0 0 1 32 37 z "
     transform="scale(0.26458334)" />
</svg>
