<?xml version="1.0" encoding="UTF-8" standalone="no"?>
<!-- Created with Inkscape (http://www.inkscape.org/) -->

<svg
   width="64"
   height="64"
   viewBox="0 0 16.933333 16.933334"
   version="1.1"
   id="svg5"
   inkscape:version="1.1.2 (0a00cf5339, 2022-02-04, custom)"
   sodipodi:docname="application-pgp.svg"
   xmlns:inkscape="http://www.inkscape.org/namespaces/inkscape"
   xmlns:sodipodi="http://sodipodi.sourceforge.net/DTD/sodipodi-0.dtd"
   xmlns="http://www.w3.org/2000/svg"
   xmlns:svg="http://www.w3.org/2000/svg">
  <sodipodi:namedview
     id="namedview7"
     pagecolor="#ffffff"
     bordercolor="#666666"
     borderopacity="1.0"
     inkscape:pageshadow="2"
     inkscape:pageopacity="0.0"
     inkscape:pagecheckerboard="0"
     inkscape:document-units="px"
     showgrid="false"
     units="px"
     height="64px"
     inkscape:zoom="12.59375"
     inkscape:cx="22.590571"
     inkscape:cy="28.744417"
     inkscape:window-width="1920"
     inkscape:window-height="1017"
     inkscape:window-x="0"
     inkscape:window-y="32"
     inkscape:window-maximized="1"
     inkscape:current-layer="svg5" />
  <defs
     id="defs2" />
  <path
     id="rect1068"
     style="fill:#8087a2;fill-opacity:1;stroke-width:0.529167;stroke-linejoin:round"
     d="m 3.175,0.5291667 7.143751,3e-8 3.968749,3.96874997 1e-6,11.3770833 c 0,0.293158 -0.236009,0.529167 -0.529167,0.529167 H 3.175 c -0.2931584,0 -0.5291667,-0.236009 -0.5291667,-0.529167 V 1.0583334 c 0,-0.29315835 0.2360083,-0.5291667 0.5291667,-0.5291667 z"
     sodipodi:nodetypes="cccsssssc" />
  <path
     id="path9791"
     style="opacity:0.2;fill:#ffffff;fill-opacity:1;stroke-width:0.140009;stroke-linejoin:round"
     d="m 3.1750007,0.52916673 c -0.2931584,0 -0.5291667,0.23600831 -0.5291667,0.52916667 v 0.2645833 c 0,-0.2931584 0.2360083,-0.52916666 0.5291667,-0.52916666 h 7.1437503 c 0,0 10e-7,-0.26458321 0,-0.26458331 z"
     sodipodi:nodetypes="sscsccs" />
  <path
     id="rect9905"
     style="opacity:0.2;fill:#000000;fill-opacity:1;stroke-width:2;stroke-linejoin:round"
     d="M 10 59 L 10 60 C 10 61.108 10.892 62 12 62 L 52 62 C 53.108 62 54 61.108 54 60 L 54 59 C 54 60.108 53.108 61 52 61 L 12 61 C 10.892 61 10 60.108 10 59 z "
     transform="scale(0.26458334)" />
  <path
     id="rect5598"
     style="opacity:0.1;fill:#000000;fill-opacity:1;stroke-width:0.529167;stroke-linejoin:round"
     d="M 10.444901,4.3115072 10.31875,3.4395834 14.2875,4.4979167 v 3.7041668 z"
     sodipodi:nodetypes="ccccc" />
  <path
     id="rect2607"
     style="fill:#f1f1f1;fill-opacity:1;stroke-width:0.529167;stroke-linejoin:round"
     d="m 14.2875,4.4979167 -3.439583,-1e-7 c -0.293158,0 -0.529166,-0.2360083 -0.529166,-0.5291667 V 0.52916673 Z"
     sodipodi:nodetypes="csscc" />
  <path
     id="rect943"
     style="opacity:1;fill:#f9f9f9;stroke-width:6.97138;stroke-linecap:round;stroke-linejoin:round;fill-opacity:1"
     d="m 32,24 c -3.313708,0 -6,2.686292 -6,6 v 2 H 23 V 44.999999 H 40.999999 V 32 H 38 v -2 c 0,-3.313708 -2.686292,-6 -6,-6 z m 0,2 c 2.209139,0 4,1.790861 4,4 v 2 h -8 v -2 c 0,-2.209139 1.790861,-4 4,-4 z"
     transform="scale(0.26458334)"
     sodipodi:nodetypes="ssccccccssssccss" />
  <path
     id="rect943-6"
     style="opacity:0.2;fill:#000000;stroke-width:6.97138;stroke-linecap:round;stroke-linejoin:round;fill-opacity:1"
     d="M 32 26 C 29.790861 26 28 27.790861 28 30 L 28 31 C 28 28.790861 29.790861 27 32 27 C 34.209139 27 36 28.790861 36 31 L 36 30 C 36 27.790861 34.209139 26 32 26 z M 23 45 L 23 46 L 41 46 L 41 45 L 23 45 z "
     transform="scale(0.26458334)" />
</svg>
