<?xml version="1.0" encoding="UTF-8" standalone="no"?>
<!-- Created with Inkscape (http://www.inkscape.org/) -->

<svg
   width="64"
   height="64"
   viewBox="0 0 16.933333 16.933334"
   version="1.1"
   id="svg5"
   inkscape:version="1.1.2 (0a00cf5339, 2022-02-04, custom)"
   sodipodi:docname="application-x-designer.svg"
   xmlns:inkscape="http://www.inkscape.org/namespaces/inkscape"
   xmlns:sodipodi="http://sodipodi.sourceforge.net/DTD/sodipodi-0.dtd"
   xmlns:xlink="http://www.w3.org/1999/xlink"
   xmlns="http://www.w3.org/2000/svg"
   xmlns:svg="http://www.w3.org/2000/svg">
  <sodipodi:namedview
     id="namedview7"
     pagecolor="#ffffff"
     bordercolor="#666666"
     borderopacity="1.0"
     inkscape:pageshadow="2"
     inkscape:pageopacity="0.0"
     inkscape:pagecheckerboard="0"
     inkscape:document-units="px"
     showgrid="false"
     units="px"
     height="64px"
     inkscape:zoom="12.59375"
     inkscape:cx="18.620347"
     inkscape:cy="41.766749"
     inkscape:window-width="1920"
     inkscape:window-height="1017"
     inkscape:window-x="0"
     inkscape:window-y="32"
     inkscape:window-maximized="1"
     inkscape:current-layer="svg5" />
  <defs
     id="defs2">
    <linearGradient
       inkscape:collect="always"
       id="linearGradient6263">
      <stop
         style="stop-color:#000000;stop-opacity:1;"
         offset="0"
         id="stop6259" />
      <stop
         style="stop-color:#000000;stop-opacity:0;"
         offset="1"
         id="stop6261" />
    </linearGradient>
    <linearGradient
       inkscape:collect="always"
       xlink:href="#linearGradient6263"
       id="linearGradient7715"
       x1="13"
       y1="53.5"
       x2="49"
       y2="29.5"
       gradientUnits="userSpaceOnUse" />
  </defs>
  <path
     id="rect1068"
     style="fill:#4ac95d;fill-opacity:1;stroke-width:0.529167;stroke-linejoin:round"
     d="m 3.175,0.5291667 7.143751,3e-8 3.968749,3.96874997 1e-6,11.3770833 c 0,0.293158 -0.236009,0.529167 -0.529167,0.529167 H 3.175 c -0.2931584,0 -0.5291667,-0.236009 -0.5291667,-0.529167 V 1.0583334 c 0,-0.29315835 0.2360083,-0.5291667 0.5291667,-0.5291667 z"
     sodipodi:nodetypes="cccsssssc" />
  <path
     id="path9791"
     style="opacity:0.2;fill:#ffffff;fill-opacity:1;stroke-width:0.140009;stroke-linejoin:round"
     d="m 3.175,0.5291667 c -0.2931583,0 -0.5291667,0.2360083 -0.5291667,0.5291667 V 1.3229167 C 2.6458334,1.0297583 2.8818417,0.79375 3.175,0.79375 h 7.14375 c 0,0 1e-6,-0.2645833 0,-0.2645833 z"
     sodipodi:nodetypes="sscsccs" />
  <path
     id="rect9905"
     style="opacity:0.2;fill:#000000;fill-opacity:1;stroke-width:2;stroke-linejoin:round"
     d="M 10 59 L 10 60 C 10 61.108 10.892 62 12 62 L 52 62 C 53.108 62 54 61.108 54 60 L 54 59 C 54 60.108 53.108 61 52 61 L 12 61 C 10.892 61 10 60.108 10 59 z "
     transform="scale(0.26458334)" />
  <path
     id="rect5598"
     style="opacity:0.1;fill:#000000;fill-opacity:1;stroke-width:0.529167;stroke-linejoin:round"
     d="M 10.444901,4.3115072 10.31875,3.4395834 14.2875,4.4979167 v 3.7041668 z"
     sodipodi:nodetypes="ccccc" />
  <path
     id="rect2607"
     style="fill:#f1f1f1;fill-opacity:1;stroke-width:0.529167;stroke-linejoin:round"
     d="m 14.2875,4.4979167 -3.439583,-1e-7 c -0.293158,0 -0.529166,-0.2360083 -0.529166,-0.5291667 V 0.52916673 Z"
     sodipodi:nodetypes="csscc" />
  <path
     id="rect863"
     style="fill:#f7fff8;fill-opacity:1;stroke-width:7.34846;stroke-linecap:round;stroke-linejoin:round"
     d="M 45 28 L 19 48 L 22 48 L 22 47 L 23 47 L 23 48 L 26 48 L 26 47 L 27 47 L 27 48 L 30 48 L 30 47 L 31 47 L 31 48 L 34 48 L 34 47 L 35 47 L 35 48 L 38 48 L 38 47 L 39 47 L 39 48 L 42 48 L 42 47 L 43 47 L 43 48 L 45 48 L 45 28 z M 42 34 L 42 45 L 27 45 L 42 34 z "
     transform="scale(0.26458334)" />
  <path
     id="rect863-2"
     style="opacity:0.3;fill:url(#linearGradient7715);fill-opacity:1;stroke-width:7.34846;stroke-linecap:round;stroke-linejoin:round"
     d="M 42 34 L 27 45 L 28.363281 45 L 42 35 L 42 34 z M 22 47 L 22 48 L 23 48 L 23 47 L 22 47 z M 23 48 L 23 49 L 26 49 L 26 48 L 23 48 z M 26 48 L 27 48 L 27 47 L 26 47 L 26 48 z M 27 48 L 27 49 L 30 49 L 30 48 L 27 48 z M 30 48 L 31 48 L 31 47 L 30 47 L 30 48 z M 31 48 L 31 49 L 34 49 L 34 48 L 31 48 z M 34 48 L 35 48 L 35 47 L 34 47 L 34 48 z M 35 48 L 35 49 L 38 49 L 38 48 L 35 48 z M 38 48 L 39 48 L 39 47 L 38 47 L 38 48 z M 39 48 L 39 49 L 42 49 L 42 48 L 39 48 z M 42 48 L 43 48 L 43 47 L 42 47 L 42 48 z M 43 48 L 43 49 L 45 49 L 45 48 L 43 48 z M 22 48 L 20.300781 48 L 19 49 L 22 49 L 22 48 z "
     transform="scale(0.26458334)" />
</svg>
