<?xml version="1.0" encoding="UTF-8" standalone="no"?>
<!-- Created with Inkscape (http://www.inkscape.org/) -->

<svg
   width="64"
   height="64"
   viewBox="0 0 16.933333 16.933334"
   version="1.1"
   id="svg5"
   inkscape:version="1.1.2 (0a00cf5339, 2022-02-04, custom)"
   sodipodi:docname="text-x-vala.svg"
   xmlns:inkscape="http://www.inkscape.org/namespaces/inkscape"
   xmlns:sodipodi="http://sodipodi.sourceforge.net/DTD/sodipodi-0.dtd"
   xmlns="http://www.w3.org/2000/svg"
   xmlns:svg="http://www.w3.org/2000/svg">
  <sodipodi:namedview
     id="namedview7"
     pagecolor="#ffffff"
     bordercolor="#666666"
     borderopacity="1.0"
     inkscape:pageshadow="2"
     inkscape:pageopacity="0.0"
     inkscape:pagecheckerboard="0"
     inkscape:document-units="px"
     showgrid="false"
     units="px"
     height="64px"
     inkscape:zoom="12.40625"
     inkscape:cx="31.959698"
     inkscape:cy="32"
     inkscape:window-width="1920"
     inkscape:window-height="1017"
     inkscape:window-x="0"
     inkscape:window-y="32"
     inkscape:window-maximized="1"
     inkscape:current-layer="svg5" />
  <defs
     id="defs2" />
  <path
     id="rect1068"
     style="fill:#e5e5e5;fill-opacity:1;stroke-width:0.529167;stroke-linejoin:round"
     d="m 3.175,0.5291667 7.143751,3e-8 3.968749,3.96874997 1e-6,11.3770833 c 0,0.293158 -0.236009,0.529167 -0.529167,0.529167 H 3.175 c -0.2931584,0 -0.5291667,-0.236009 -0.5291667,-0.529167 V 1.0583334 c 0,-0.29315835 0.2360083,-0.5291667 0.5291667,-0.5291667 z"
     sodipodi:nodetypes="cccsssssc" />
  <path
     id="rect8140"
     style="opacity:0.75;fill:#ffffff;fill-opacity:1;stroke-width:0.518136;stroke-linejoin:round"
     d="m 3.175,0.5291668 h 7.143751 l -1e-6,2.9104166 0.79375,1.0583333 3.175,0 V 15.875 c 0,0.295111 -0.236009,0.529167 -0.529167,0.529167 H 3.175 c -0.293159,0 -0.529167,-0.236009 -0.529167,-0.529167 V 1.0583337 c 0,-0.2931589 0.236008,-0.5291669 0.529167,-0.5291669 z"
     sodipodi:nodetypes="sccccssssss" />
  <path
     d="M 7.9078986,11.377083 7.7942076,6.5575156 C 7.4636172,6.6815542 7.2052593,6.8756083 7.0191341,7.1396777 6.8354278,7.4038813 6.7435747,7.7323219 6.7435747,8.1249989 c 0,0.089501 0.00457,0.1630107 0.013706,0.2205282 0.011423,0.055098 0.022847,0.099849 0.034269,0.1342518 0.011557,0.032253 0.021971,0.057518 0.031246,0.075795 0.011423,0.01841 0.017134,0.034538 0.017134,0.048378 -0.1217541,0 -0.2296662,-0.011489 -0.3237369,-0.03447 C 6.4221218,8.5442172 6.3428339,8.505111 6.2783284,8.4521627 6.2165107,8.3993489 6.1683332,8.3293334 6.1337957,8.2421167 6.1015431,8.1547654 6.0854167,8.0468532 6.0854167,7.9183798 c 0,-0.1562914 0.033327,-0.3101639 0.099984,-0.4616173 C 6.2543407,7.3051746 6.347336,7.1615825 6.4643869,7.0259866 6.5839902,6.8905252 6.7229459,6.7654114 6.881253,6.6506455 7.0421137,6.5357449 7.2132548,6.436971 7.3946766,6.3543234 7.5783827,6.269391 7.76901,6.2039449 7.9665579,6.1579847 c 0.1996983,-0.048379 0.3983215,-0.072568 0.5958696,-0.072568 0.052814,0 0.1010585,0.00122 0.1447341,0.00363 0.04596,0.00229 0.091853,0.00571 0.1376789,0.010281 l 0.062087,4.3406143 1.4848355,-4.3198524 h 0.49266 L 8.924263,11.37668 Z"
     style="color:#000000;isolation:auto;mix-blend-mode:normal;fill:#7839b7;stroke-width:0.195978"
     id="path863" />
  <path
     d="M 9.8984927,14.816667 H 9.6426942 L 10.108428,13.49375 h 0.295848 l 0.466379,1.322917 h -0.255798 l -0.353338,-1.051616 h -0.01034 z m 0.0084,-0.518702 h 0.6976333 v 0.192494 H 9.9068907 Z M 7.5026429,14.816667 H 7.246844 L 7.7125779,13.49375 h 0.2958475 l 0.4663797,1.322917 H 8.2190068 L 7.8656692,13.765051 h -0.010335 z m 0.0084,-0.518702 h 0.6976322 v 0.192494 H 7.5110408 Z m 1.1381727,0.518702 V 13.49375 h 0.2396492 v 1.122025 h 0.5826517 v 0.200892 z M 6.3483211,13.49375 6.6926152,14.53503 h 0.013565 L 7.0498287,13.49375 H 7.3133785 L 6.8469988,14.816667 H 6.5511512 L 6.0854176,13.49375 Z"
     style="font-weight:600;font-family:Inter;-inkscape-font-specification:'Inter Semi-Bold';stroke-width:0.264583;fill:#808080;fill-opacity:1"
     id="path15181" />
  <path
     id="path9791"
     style="opacity:0.2;fill:#ffffff;fill-opacity:1;stroke-width:0.140009;stroke-linejoin:round"
     d="m 3.175,0.5291668 c -0.2931583,0 -0.5291667,0.2360083 -0.5291667,0.5291667 V 1.3229168 C 2.6458334,1.0297584 2.8818417,0.7937501 3.175,0.7937501 h 7.14375 c 0,0 1e-6,-0.2645833 0,-0.2645833 z"
     sodipodi:nodetypes="sscsccs" />
  <path
     id="rect9905"
     style="opacity:0.2;fill:#000000;fill-opacity:1;stroke-width:2;stroke-linejoin:round"
     d="M 10 59 L 10 60 C 10 61.108 10.892 62 12 62 L 52 62 C 53.108 62 54 61.108 54 60 L 54 59 C 54 60.108 53.108 61 52 61 L 12 61 C 10.892 61 10 60.108 10 59 z "
     transform="scale(0.26458334)" />
  <path
     id="rect5598"
     style="opacity:0.1;fill:#000000;fill-opacity:1;stroke-width:0.529167;stroke-linejoin:round"
     d="M 10.444901,4.3115072 10.31875,3.4395834 14.2875,4.4979167 v 3.7041668 z"
     sodipodi:nodetypes="ccccc" />
  <path
     id="rect2607"
     style="fill:#f1f1f1;fill-opacity:1;stroke-width:0.529167;stroke-linejoin:round"
     d="m 14.2875,4.4979167 -3.439583,-1e-7 c -0.293158,0 -0.529166,-0.2360083 -0.529166,-0.5291667 V 0.52916673 Z"
     sodipodi:nodetypes="csscc" />
</svg>
