<?xml version="1.0" encoding="UTF-8" standalone="no"?>
<!-- Created with Inkscape (http://www.inkscape.org/) -->

<svg
   width="64"
   height="64"
   viewBox="0 0 16.933333 16.933334"
   version="1.1"
   id="svg5"
   inkscape:version="1.1.2 (0a00cf5339, 2022-02-04, custom)"
   sodipodi:docname="text-x-cpp.svg"
   xmlns:inkscape="http://www.inkscape.org/namespaces/inkscape"
   xmlns:sodipodi="http://sodipodi.sourceforge.net/DTD/sodipodi-0.dtd"
   xmlns="http://www.w3.org/2000/svg"
   xmlns:svg="http://www.w3.org/2000/svg">
  <sodipodi:namedview
     id="namedview7"
     pagecolor="#ffffff"
     bordercolor="#666666"
     borderopacity="1.0"
     inkscape:pageshadow="2"
     inkscape:pageopacity="0.0"
     inkscape:pagecheckerboard="0"
     inkscape:document-units="px"
     showgrid="false"
     units="mm"
     height="64px"
     inkscape:zoom="12.40625"
     inkscape:cx="31.959698"
     inkscape:cy="32"
     inkscape:window-width="1920"
     inkscape:window-height="1017"
     inkscape:window-x="0"
     inkscape:window-y="32"
     inkscape:window-maximized="1"
     inkscape:current-layer="svg5" />
  <defs
     id="defs2" />
  <path
     id="rect1068"
     style="fill:#e5e5e5;fill-opacity:1;stroke-width:0.529167;stroke-linejoin:round"
     d="m 3.175,0.5291667 7.143751,3e-8 3.968749,3.96874997 1e-6,11.3770833 c 0,0.293158 -0.236009,0.529167 -0.529167,0.529167 H 3.175 c -0.2931584,0 -0.5291667,-0.236009 -0.5291667,-0.529167 V 1.0583334 c 0,-0.29315835 0.2360083,-0.5291667 0.5291667,-0.5291667 z"
     sodipodi:nodetypes="cccsssssc" />
  <path
     id="rect8140"
     style="opacity:0.75;fill:#ffffff;fill-opacity:1;stroke-width:0.518136;stroke-linejoin:round"
     d="m 3.175,0.5291668 h 7.143751 l -1e-6,2.9104166 0.79375,1.0583333 3.175,0 V 15.875 c 0,0.295111 -0.236009,0.529167 -0.529167,0.529167 H 3.175 c -0.293159,0 -0.529167,-0.236009 -0.529167,-0.529167 V 1.0583337 c 0,-0.2931589 0.236008,-0.5291669 0.529167,-0.5291669 z"
     sodipodi:nodetypes="sccccssssss" />
  <path
     id="path7478"
     style="font-weight:bold;font-size:4.26747px;line-height:1.25;font-family:'나눔스퀘어';-inkscape-font-specification:'나눔스퀘어 Bold';fill:#14a397;fill-opacity:1;stroke-width:0.106687"
     d="m 5.9960164,7.4083334 c -0.1820786,0 -0.348927,0.028367 -0.4997109,0.085266 -0.1507842,0.0569 -0.2812701,0.1425157 -0.3922242,0.2563151 -0.1081093,0.1137992 -0.1924365,0.2543427 -0.252181,0.4221965 -0.059745,0.1678538 -0.0894,0.364358 -0.0894,0.5891112 v 0.465088 c 0,0.2275983 0.029656,0.4253916 0.0894,0.5932453 0.059744,0.1678541 0.1440717,0.3083975 0.252181,0.4221965 0.108109,0.113799 0.2373059,0.198126 0.3880898,0.252181 0.1507842,0.0569 0.3189216,0.08527 0.5038453,0.08527 0.2076836,0 0.4023818,-0.02837 0.5844606,-0.08527 0.1820786,-0.0569 0.3496995,-0.159536 0.5033285,-0.307474 L 6.8533286,9.8619306 C 6.7253044,9.987109 6.5873392,10.072726 6.4394004,10.118246 c -0.1479392,0.04552 -0.2954449,0.06821 -0.443384,0.06821 -0.1166442,0 -0.2249535,-0.02012 -0.3245279,-0.05994 C 5.5747592,10.086684 5.489143,10.025566 5.4151734,9.9430625 5.3440492,9.860558 5.2886052,9.7553435 5.2487753,9.6273195 5.208946,9.4992953 5.1893473,9.3474055 5.1893473,9.1710165 V 8.8165163 c 0,-0.1763887 0.019598,-0.3282788 0.059428,-0.456303 0.03983,-0.128024 0.095274,-0.2337555 0.1663981,-0.3162597 0.07397,-0.082504 0.1595858,-0.1436214 0.2563151,-0.1834515 0.099574,-0.03983 0.2078837,-0.059428 0.3245279,-0.059428 0.1394042,0 0.2716958,0.018309 0.396875,0.055294 0.1280242,0.036985 0.2616052,0.1125434 0.4010091,0.2263428 L 7.0114584,7.7369957 C 6.8663643,7.6231968 6.7139577,7.5406754 6.5546388,7.4894655 6.3953197,7.4354109 6.2093899,7.4083334 5.9960164,7.4083334 Z M 8.3431601,7.9845256 V 8.8847291 H 7.459493 V 9.2433636 H 8.3431601 V 10.203512 H 8.727116 V 9.2433636 H 9.6102663 V 8.8847291 H 8.727116 V 7.9845256 Z m 2.5600509,0 V 8.8847291 H 10.02006 v 0.3586345 h 0.883151 v 0.9601484 h 0.384472 V 9.2433636 h 0.883151 V 8.8847291 H 11.287683 V 7.9845256 Z" />
  <path
     d="m 5.9960164,7.8010763 c -0.1166451,0 -0.2249581,0.019598 -0.3245279,0.059428 -0.096729,0.03983 -0.182345,0.1009475 -0.2563151,0.1834515 -0.071128,0.0825 -0.1265682,0.188236 -0.166398,0.31626 -0.03983,0.128024 -0.059428,0.279915 -0.059428,0.456303 v 0.264583 c 0,-0.176389 0.019598,-0.328279 0.059428,-0.456303 0.03983,-0.128024 0.095274,-0.233756 0.1663981,-0.31626 0.07397,-0.0825 0.1595858,-0.143621 0.2563151,-0.183451 0.099574,-0.03983 0.2078835,-0.05943 0.3245278,-0.05943 0.1394041,0 0.2716958,0.01831 0.396875,0.05529 0.1280242,0.03698 0.2616051,0.112543 0.4010091,0.226343 l 0.2175579,-0.345716 c -0.0378,-0.02965 -0.075936,-0.05728 -0.1147218,-0.08268 L 6.7939005,8.0827128 C 6.6544965,7.9689138 6.5209156,7.893355 6.3928914,7.85637 6.2677125,7.8193852 6.1354205,7.8010763 5.9960164,7.8010763 Z M 4.7625,9.2263128 v 0.264583 c 0,0.227598 0.029656,0.425391 0.0894,0.5932452 0.059744,0.167854 0.1440717,0.308398 0.252181,0.422197 0.108109,0.113799 0.2373061,0.198127 0.3880898,0.252181 0.1507844,0.0569 0.3189215,0.08527 0.5038452,0.08527 0.2076836,0 0.4023818,-0.02837 0.5844606,-0.08527 0.1820786,-0.0569 0.3496993,-0.159537 0.5033285,-0.307475 L 6.9675333,10.287229 c -0.1209839,0.09463 -0.2498527,0.16383 -0.3870563,0.206706 -0.1820791,0.0569 -0.3767775,0.08527 -0.5844606,0.08527 -0.184924,0 -0.35306,-0.02837 -0.5038453,-0.08527 C 5.3413883,10.439885 5.2121904,10.355553 5.1040814,10.241754 4.9959713,10.127955 4.9116404,9.9874118 4.8519004,9.8195578 c -0.05974,-0.167854 -0.0894,-0.365647 -0.0894,-0.593245 z m 2.6969929,0.01705 v 0.264584 H 8.34316 v -0.264584 z m 1.267623,0 v 0.264584 h 0.8831504 v -0.264584 z m 1.2929441,0 v 0.264583 h 0.883151 v -0.264583 z m 1.267623,0 v 0.264584 h 0.883151 V 9.2433628 Z M 8.34316,10.203512 v 0.264582 h 0.3839559 v -0.264582 z m 2.560051,0 v 0.264582 h 0.384472 v -0.264582 z"
     style="font-weight:bold;font-size:4.26747px;line-height:1.25;font-family:'나눔스퀘어';-inkscape-font-specification:'나눔스퀘어 Bold';opacity:0.2;fill:#000000;fill-opacity:1;stroke-width:0.0282276"
     id="path1270" />
  <path
     id="path9791"
     style="opacity:0.2;fill:#ffffff;fill-opacity:1;stroke-width:0.140009;stroke-linejoin:round"
     d="m 3.175,0.5291668 c -0.2931583,0 -0.5291667,0.2360083 -0.5291667,0.5291667 v 0.2645833 c 0,-0.2931584 0.2360084,-0.5291667 0.5291667,-0.5291667 h 7.143751 c 0,0 10e-7,-0.2645833 0,-0.2645833 z"
     sodipodi:nodetypes="sscsccs" />
  <path
     id="rect9905"
     style="opacity:0.2;fill:#000000;fill-opacity:1;stroke-width:2;stroke-linejoin:round"
     d="M 10 59 L 10 60 C 10 61.108 10.892 62 12 62 L 52 62 C 53.108 62 54 61.108 54 60 L 54 59 C 54 60.108 53.108 61 52 61 L 12 61 C 10.892 61 10 60.108 10 59 z "
     transform="scale(0.26458334)" />
  <path
     id="rect5598"
     style="opacity:0.1;fill:#000000;fill-opacity:1;stroke-width:0.529167;stroke-linejoin:round"
     d="M 10.444901,4.3115072 10.31875,3.4395834 14.2875,4.4979167 v 3.7041668 z"
     sodipodi:nodetypes="ccccc" />
  <path
     id="rect2607"
     style="fill:#f1f1f1;fill-opacity:1;stroke-width:0.529167;stroke-linejoin:round"
     d="m 14.2875,4.4979167 -3.439583,-1e-7 c -0.293158,0 -0.529166,-0.2360083 -0.529166,-0.5291667 V 0.52916673 Z"
     sodipodi:nodetypes="csscc" />
  <path
     d="m 7.4687952,13.493752 c -0.1123392,0 -0.2129251,0.02615 -0.3017904,0.07855 -0.088865,0.0524 -0.1587646,0.127934 -0.2103231,0.22686 -0.051559,0.09851 -0.077515,0.217303 -0.077515,0.35605 0,0.138328 0.025342,0.257125 0.076481,0.356051 0.05114,0.09892 0.1214577,0.17446 0.2103231,0.226859 0.088865,0.05239 0.1896464,0.07855 0.3028241,0.07855 0.076709,0 0.1464127,-0.01147 0.2092893,-0.03411 0.062876,-0.02305 0.1179,-0.05494 0.1648479,-0.0956 0.046948,-0.04108 0.084765,-0.08846 0.1136883,-0.14211 0.029343,-0.05365 0.048558,-0.110882 0.057361,-0.172082 l -0.2351275,-10e-4 c -0.00712,0.03773 -0.019894,0.07091 -0.038758,0.100252 -0.018444,0.02934 -0.041483,0.05429 -0.068729,0.07441 -0.026827,0.02012 -0.056997,0.03551 -0.09095,0.04599 -0.033534,0.01006 -0.069957,0.01499 -0.1085207,0.01499 -0.069583,0 -0.1314443,-0.01721 -0.1855185,-0.05116 -0.053654,-0.03437 -0.095588,-0.08486 -0.1266071,-0.151928 -0.0306,-0.06749 -0.045992,-0.150574 -0.045992,-0.249081 0,-0.09683 0.015391,-0.178911 0.045992,-0.24598 0.0306,-0.06748 0.072533,-0.118685 0.1266071,-0.153479 0.054074,-0.03521 0.1165498,-0.05271 0.1865522,-0.05271 0.039402,0 0.076117,0.0056 0.1100706,0.01654 0.034373,0.01048 0.06464,0.02607 0.091467,0.04702 0.026827,0.02096 0.049155,0.0463 0.06718,0.07648 0.018023,0.02976 0.0305,0.06427 0.037207,0.102837 h 0.2351271 c -0.00964,-0.07168 -0.030057,-0.13545 -0.061495,-0.191203 -0.031019,-0.05617 -0.070651,-0.103544 -0.1188559,-0.14211 -0.048205,-0.03899 -0.1032293,-0.06876 -0.1648478,-0.08888 -0.061619,-0.02012 -0.1283087,-0.02997 -0.1999877,-0.02997 z m 1.1296468,0.22889 v 0.336451 H 8.2620282 v 0.197404 H 8.598442 v 0.336414 h 0.1974041 v -0.336414 h 0.336413 v -0.197405 h -0.336413 v -0.336414 z m 1.1906245,0 v 0.336451 H 9.4526528 v 0.197404 h 0.3364137 v 0.336414 h 0.197404 V 14.256497 H 10.322884 V 14.059092 H 9.9864705 v -0.336414 z"
     style="font-weight:600;font-size:1.7706px;line-height:1.25;font-family:Inter;-inkscape-font-specification:'Inter Semi-Bold';text-align:center;text-anchor:middle;fill:#808080;fill-opacity:1;stroke-width:0.0442648"
     id="path7609"
     sodipodi:nodetypes="cscsccsccccccccsccsccscccccccscccccccccccccccccccccccccccc" />
  <text
     xml:space="preserve"
     style="font-size:10.5833px;line-height:1.25;font-family:'Noto Serif';-inkscape-font-specification:'Noto Serif';stroke-width:0.264583"
     x="11.210568"
     y="8.940918"
     id="text80811"><tspan
       sodipodi:role="line"
       id="tspan80809"
       style="stroke-width:0.264583" /></text>
</svg>
