<?xml version="1.0" encoding="UTF-8" standalone="no"?>
<!-- Created with Inkscape (http://www.inkscape.org/) -->

<svg
   width="64"
   height="64"
   viewBox="0 0 16.933333 16.933334"
   version="1.1"
   id="svg5"
   inkscape:version="1.1.2 (0a00cf5339, 2022-02-04, custom)"
   sodipodi:docname="text-rust.svg"
   xmlns:inkscape="http://www.inkscape.org/namespaces/inkscape"
   xmlns:sodipodi="http://sodipodi.sourceforge.net/DTD/sodipodi-0.dtd"
   xmlns="http://www.w3.org/2000/svg"
   xmlns:svg="http://www.w3.org/2000/svg">
  <sodipodi:namedview
     id="namedview7"
     pagecolor="#ffffff"
     bordercolor="#666666"
     borderopacity="1.0"
     inkscape:pageshadow="2"
     inkscape:pageopacity="0.0"
     inkscape:pagecheckerboard="0"
     inkscape:document-units="px"
     showgrid="false"
     units="px"
     height="64px"
     inkscape:zoom="12.40625"
     inkscape:cx="31.959698"
     inkscape:cy="32"
     inkscape:window-width="1920"
     inkscape:window-height="1017"
     inkscape:window-x="0"
     inkscape:window-y="32"
     inkscape:window-maximized="1"
     inkscape:current-layer="svg5" />
  <defs
     id="defs2" />
  <path
     id="rect1068"
     style="fill:#e5e5e5;fill-opacity:1;stroke-width:0.529167;stroke-linejoin:round"
     d="m 3.175,0.5291667 7.143751,3e-8 3.968749,3.96874997 1e-6,11.3770833 c 0,0.293158 -0.236009,0.529167 -0.529167,0.529167 H 3.175 c -0.2931584,0 -0.5291667,-0.236009 -0.5291667,-0.529167 V 1.0583334 c 0,-0.29315835 0.2360083,-0.5291667 0.5291667,-0.5291667 z"
     sodipodi:nodetypes="cccsssssc" />
  <path
     id="rect8140"
     style="opacity:0.75;fill:#ffffff;fill-opacity:1;stroke-width:0.518136;stroke-linejoin:round"
     d="m 3.175,0.5291668 h 7.143751 l -1e-6,2.9104166 0.79375,1.0583333 3.175,0 V 15.875 c 0,0.295111 -0.236009,0.529167 -0.529167,0.529167 H 3.175 c -0.293159,0 -0.529167,-0.236009 -0.529167,-0.529167 V 1.0583337 c 0,-0.2931589 0.236008,-0.5291669 0.529167,-0.5291669 z"
     sodipodi:nodetypes="sccccssssss" />
  <path
     d="m 8.4645517,5.8208425 c -0.03034,8.731e-4 -0.05827,0.016772 -0.0745,0.042425 l -0.16659,0.2690284 c -0.02448,0.00206 -0.04916,0.00457 -0.07347,0.00725 L 7.9327037,5.9067244 c -0.04648,-0.049386 -0.128688,-0.032611 -0.152106,0.03104 l -0.110716,0.295931 c -0.02478,0.00715 -0.04897,0.014957 -0.07347,0.022765 l -0.257645,-0.18625 c -0.05508,-0.041232 -0.134246,-0.009 -0.144861,0.05898 l -0.04967,0.3145559 c -0.02194,0.011414 -0.04357,0.024254 -0.06519,0.036216 l -0.291782,-0.13141 c -0.06163,-0.028337 -0.131541,0.018082 -0.129339,0.085881 l 0.01346,0.3186956 c -0.01916,0.015359 -0.03815,0.030731 -0.05691,0.046562 l -0.308354,-0.075534 c -0.06696,-0.01905 -0.129736,0.040872 -0.11382,0.1086456 l 0.07553,0.3135221 c -0.0155,0.01836 -0.03049,0.03713 -0.04553,0.05587 l -0.318694,-0.01345 c -0.06825,-0.003 -0.115485,0.06728 -0.08692,0.129339 l 0.13348,0.289723 c -0.01258,0.02265 -0.02528,0.04527 -0.03725,0.06829 l -0.314556,0.04863 c -0.06798,0.01061 -0.100213,0.08978 -0.05898,0.144861 l 0.186251,0.257646 c -0.0079,0.02481 -0.01552,0.0494 -0.02276,0.0745 l -0.295931,0.109681 c -0.0611,0.02374 -0.078,0.102225 -0.03208,0.149 l 0.233848,0.219362 c -0.0027,0.02464 -0.0051,0.04968 -0.0072,0.0745 l -0.269027,0.167625 c -0.05442,0.0361 -0.05442,0.116005 0,0.152104 l 0.269029,0.167625 c 0.0021,0.02448 0.0046,0.04916 0.0072,0.07347 l -0.23385,0.216257 c -0.0505,0.04681 -0.03296,0.130537 0.03208,0.153139 l 0.296966,0.111749 c 0.0067,0.02298 0.01347,0.04555 0.02069,0.06829 l -0.185212,0.2617854 c -0.04123,0.05508 -0.009,0.134247 0.05898,0.144862 l 0.315591,0.04863 c 0.01127,0.02165 0.02338,0.04282 0.03518,0.06415 l -0.132445,0.289722 c -0.02857,0.06206 0.01867,0.13235 0.08692,0.129342 l 0.318696,-0.01035 c 0.01506,0.01876 0.03002,0.03749 0.04553,0.05587 l -0.07554,0.310417 c -0.01592,0.06777 0.04686,0.127696 0.113819,0.108646 l 0.309382,-0.07243 c 0.01838,0.01552 0.0371,0.03047 0.05587,0.04553 l -0.01346,0.320765 c -0.0022,0.0678 0.06771,0.114217 0.12934,0.08588 l 0.292827,-0.131409 c 0.02119,0.01171 0.04265,0.02295 0.06415,0.03414 l 0.04967,0.316625 c 0.01126,0.06755 0.09013,0.0991 0.144861,0.05795 l 0.257646,-0.186251 c 0.02418,0.0077 0.04798,0.01568 0.07243,0.02276 l 0.111749,0.296966 c 0.02342,0.06365 0.105621,0.08043 0.152106,0.03104 l 0.217298,-0.233821 c 0.02396,0.0026 0.04829,0.0052 0.07243,0.0072 l 0.167626,0.270063 c 0.03598,0.05547 0.117162,0.05547 0.153139,0 l 0.167625,-0.270064 c 0.02413,-0.0021 0.04846,-0.0046 0.07243,-0.0072 l 0.217292,0.233849 c 0.04649,0.04938 0.128686,0.03261 0.152104,-0.03104 l 0.11175,-0.296966 c 0.02445,-0.0071 0.04825,-0.01506 0.07243,-0.02276 l 0.258681,0.186252 c 0.0546,0.03998 0.132198,0.0087 0.143826,-0.05795 l 0.04967,-0.316626 c 0.02124,-0.01105 0.04219,-0.02258 0.06312,-0.03414 l 0.2907593,0.13141 c 0.06134,0.02727 0.130137,-0.01878 0.128307,-0.08588 l -0.0093,-0.31973 c 0.01894,-0.0152 0.03733,-0.03091 0.05587,-0.04656 l 0.309383,0.07243 c 0.06539,0.01513 0.124193,-0.04312 0.109681,-0.108646 l -0.07243,-0.310418 c 0.01566,-0.01854 0.03137,-0.03693 0.04656,-0.05588 l 0.31973,0.01035 c 0.0678,0.0022 0.114218,-0.06771 0.08588,-0.129342 L 10.98513,10.382943 c 0.01157,-0.02093 0.02309,-0.04188 0.03414,-0.06312 l 0.315591,-0.04863 c 0.06798,-0.01062 0.100213,-0.08978 0.05898,-0.144862 L 11.207593,9.8676507 c 0.0077,-0.02418 0.01568,-0.04798 0.02276,-0.07243 l 0.296966,-0.110716 c 0.06467,-0.02311 0.0816,-0.106672 0.03104,-0.153139 l -0.23384,-0.216256 c 0.0027,-0.02431 0.0052,-0.04898 0.0072,-0.07347 l 0.269028,-0.167625 c 0.05442,-0.0361 0.05442,-0.116005 0,-0.152104 L 11.33176,8.7542847 c -0.0021,-0.02483 -0.0045,-0.04986 -0.0072,-0.0745 l 0.233806,-0.219362 c 0.04601,-0.04645 0.02969,-0.124788 -0.03104,-0.149 L 11.23036,8.2007077 c -0.0071,-0.02445 -0.01506,-0.04824 -0.02276,-0.07243 l 0.186251,-0.258681 c 0.04123,-0.05508 0.009,-0.134245 -0.05898,-0.144861 l -0.314557,-0.04863 c -0.01197,-0.02302 -0.02468,-0.04564 -0.03725,-0.06829 l 0.13348,-0.289723 c 0.02834,-0.06163 -0.01808,-0.131541 -0.08588,-0.12934 l -0.320765,0.01346 c -0.01506,-0.01876 -0.03001,-0.03749 -0.04553,-0.05587 l 0.07243,-0.3135211 c 0.01451,-0.065528 -0.04429,-0.1237768 -0.10968,-0.1086456 l -0.309383,0.075535 c -0.01854,-0.015658 -0.03693,-0.031374 -0.05587,-0.046562 l 0.0093,-0.3186953 c 0.0018,-0.06711 -0.06697,-0.1131695 -0.12831,-0.085892 L 9.8531337,6.479971 C 9.8316637,6.468089 9.8107837,6.455098 9.7889837,6.443755 L 9.7393247,6.1291907 c -0.011,-0.067101 -0.08888,-0.099039 -0.143827,-0.05898 L 9.3337127,6.255427 c -0.02274,-0.00721 -0.04531,-0.014036 -0.06829,-0.020693 l -0.11278,-0.2969656 c -0.02342,-0.063651 -0.105621,-0.080426 -0.152105,-0.03104 l -0.216258,0.2328133 c -0.02431,-0.0027 -0.04898,-0.00519 -0.07346,-0.00725 L 8.5431907,5.8632713 c -0.01702,-0.026884 -0.04682,-0.04296 -0.07864,-0.042425 z m -0.0021,0.556682 c 0.102083,0.00296 0.183271,0.086899 0.183145,0.1893549 -0.01467,0.2366539 -0.363,0.2366539 -0.377675,0 -1.29e-4,-0.1066702 0.0879,-0.1923595 0.19453,-0.1893549 z m -0.427345,0.3114516 0.290757,0.3052436 c 0.0657,0.06875 0.174416,0.0715 0.24316,0.0052 l 0.325936,-0.3104169 c 0.672456,0.1257257 1.2555873,0.5408409 1.5945123,1.1350929 l -0.223501,0.503911 c -0.03832,0.087 0.0016,0.188704 0.08795,0.22764 l 0.429411,0.19039 c 0.01347,0.134452 0.01521,0.269822 0.0052,0.404576 h -0.239016 c -0.02372,0 -0.03414,0.01518 -0.03414,0.03829 v 0.109681 c 0,0.257945 -0.145412,0.315051 -0.273167,0.329043 -0.121672,0.01399 -0.2561375,-0.05202 -0.2731705,-0.126237 -0.07179,-0.403343 -0.1911528,-0.488342 -0.3797438,-0.63739 0.234219,-0.14844 0.4780443,-0.367959 0.4780443,-0.661189 0,-0.316955 -0.2174283,-0.51668 -0.3652593,-0.614626 -0.208039,-0.136885 -0.437698,-0.164525 -0.499751,-0.164525 h -2.469887 c 0.341626,-0.38149 0.799501,-0.6397035 1.302718,-0.7346545 z m -1.828324,1.3999826 c 0.102181,0.0033 0.183282,0.08712 0.183146,0.189355 -0.01468,0.236649 -0.362996,0.236649 -0.377674,0 -1.3e-4,-0.10667 0.0879,-0.19236 0.194528,-0.189355 z m 4.5103653,0.0083 c 0.102587,0.0027 0.184301,0.08673 0.184181,0.189355 -2.91e-4,0.252177 -0.378414,0.252177 -0.378709,0 -1.3e-4,-0.10667 0.0879,-0.192359 0.194528,-0.189355 z m -4.1544203,0.03103 h 0.330077 v 1.486899 h -0.665323 c -0.08223,-0.288638 -0.107881,-0.590453 -0.07554,-0.888828 l 0.407682,-0.181077 c 0.087,-0.03893 0.125851,-0.140643 0.08692,-0.227639 z m 1.376183,0.01552 h 0.785356 c 0.04076,0 0.286619,0.04745 0.286619,0.231778 0,0.152699 -0.188397,0.206945 -0.343528,0.206945 h -0.728447 z m 0,1.06887 h 0.60221 c 0.05475,0 0.293352,0.01538 0.369397,0.320764 0.02372,0.09369 0.07689,0.398723 0.112784,0.4966673 0.03589,0.109505 0.181153,0.329042 0.336286,0.329042 h 0.9819543 c -0.06576,0.0881 -0.137684,0.171435 -0.215223,0.249374 l -0.3994043,-0.08588 c -0.09308,-0.02007 -0.185835,0.03936 -0.20591,0.132445 l -0.09416,0.44286 c -0.617543,0.279655 -1.326307,0.276259 -1.941143,-0.0093 l -0.0952,-0.442877 c -0.02007,-0.09308 -0.111795,-0.152521 -0.204875,-0.132446 l -0.391122,0.08381 c -0.0725,-0.07474 -0.139909,-0.154244 -0.201769,-0.237995 h 1.902858 c 0.02129,0 0.03518,-0.0038 0.03518,-0.0238 V 9.6627757 c 0,-0.01946 -0.01388,-0.0238 -0.03518,-0.0238 h -0.556682 z m -0.877446,1.5407043 c 0.102181,0.0033 0.183282,0.08712 0.183146,0.189355 -0.01468,0.236649 -0.362995,0.236649 -0.377674,0 -1.3e-4,-0.10667 0.0879,-0.192359 0.194528,-0.189355 z m 2.800999,0.0083 c 0.1025878,0.0027 0.1843033,0.08673 0.1841833,0.189355 0,0.252473 -0.3787113,0.252473 -0.3787113,0 -1.29e-4,-0.10667 0.0879,-0.192359 0.194528,-0.189355 z"
     style="fill:#6c5f47;fill-opacity:1;stroke-width:0.0160962"
     id="path891" />
  <path
     d="m 9.3639445,13.864822 c -0.00586,-0.05483 -0.030556,-0.09753 -0.074088,-0.128084 -0.043113,-0.03055 -0.099203,-0.04583 -0.1682681,-0.04583 -0.048555,0 -0.090204,0.0073 -0.1249453,0.02197 -0.034742,0.01465 -0.061322,0.03454 -0.079739,0.05965 -0.018418,0.02511 -0.027835,0.05379 -0.028254,0.08602 0,0.02679 0.00607,0.05002 0.018209,0.06969 0.012557,0.01967 0.02951,0.03642 0.050857,0.05023 0.021347,0.01339 0.044997,0.0247 0.070949,0.03391 0.025953,0.0092 0.052113,0.01695 0.078483,0.02323 l 0.1205503,0.03014 c 0.048555,0.0113 0.095226,0.02658 0.140014,0.04583 0.045206,0.01925 0.085599,0.04353 0.1211782,0.07283 0.035998,0.0293 0.064461,0.06467 0.08539,0.106109 0.020929,0.04144 0.031393,0.09 0.031393,0.145665 0,0.07534 -0.019254,0.141689 -0.057764,0.199034 -0.03851,0.05693 -0.09418,0.101505 -0.1670124,0.133735 -0.072414,0.03181 -0.1601058,0.04772 -0.2630758,0.04772 -0.10004,0 -0.1868948,-0.01549 -0.2605643,-0.04646 -0.073251,-0.03097 -0.1305962,-0.07618 -0.1720355,-0.135619 -0.041021,-0.05944 -0.063205,-0.131854 -0.066554,-0.217242 h 0.229171 c 0.00335,0.04479 0.017161,0.08204 0.041439,0.11176 0.024278,0.02972 0.05588,0.0519 0.094808,0.06655 0.039346,0.01465 0.083297,0.02197 0.131852,0.02197 0.050648,0 0.095017,-0.0075 0.1331073,-0.0226 0.038509,-0.01549 0.068647,-0.03683 0.090413,-0.06404 0.021765,-0.02763 0.032858,-0.05986 0.033277,-0.09669 -4.233e-4,-0.03349 -0.010255,-0.06111 -0.02951,-0.08288 -0.019254,-0.02219 -0.046253,-0.0406 -0.080995,-0.05525 -0.034323,-0.01506 -0.074507,-0.02846 -0.1205502,-0.04018 L 8.9953861,14.21832 c -0.1059,-0.02721 -0.1896155,-0.06844 -0.2511464,-0.12369 -0.061112,-0.05567 -0.091668,-0.129552 -0.091668,-0.221636 0,-0.07576 0.020511,-0.142108 0.061531,-0.199034 0.041439,-0.05693 0.097738,-0.101086 0.1688959,-0.132479 0.071158,-0.03181 0.1517343,-0.04772 0.2417283,-0.04772 0.09125,0 0.1711981,0.01591 0.2398448,0.04772 0.069065,0.03139 0.123271,0.07513 0.1626172,0.131223 0.039346,0.05567 0.059647,0.119715 0.060903,0.192127 z M 8.1785326,13.511334 h 0.2329381 v 0.840084 c 0,0.09209 -0.021765,0.173082 -0.065298,0.242984 -0.043113,0.0699 -0.1038071,0.124527 -0.1820812,0.163873 -0.078274,0.03893 -0.1697329,0.05839 -0.2743772,0.05839 -0.1050628,0 -0.1967314,-0.01946 -0.2750052,-0.05839 -0.078274,-0.03935 -0.1389676,-0.09397 -0.1820812,-0.163873 -0.043113,-0.0699 -0.06467,-0.150897 -0.06467,-0.242984 v -0.840084 h 0.2329383 v 0.820621 c 0,0.05358 0.011721,0.101297 0.03516,0.143153 0.023857,0.04186 0.057345,0.07472 0.1004586,0.09858 0.043113,0.02344 0.09418,0.03516 0.1531993,0.03516 0.059019,0 0.1100857,-0.01172 0.153199,-0.03516 0.043532,-0.02386 0.077018,-0.05672 0.1004586,-0.09858 0.023439,-0.04186 0.03516,-0.08958 0.03516,-0.143153 z m -1.9608245,1.285869 v -1.285869 h 0.482201 c 0.098784,0 0.1816624,0.01716 0.2486348,0.05148 0.067391,0.03433 0.1182481,0.08246 0.1525714,0.144409 0.034742,0.06153 0.052113,0.133319 0.052113,0.215358 0,0.08246 -0.017582,0.154036 -0.052741,0.21473 -0.034742,0.06027 -0.086018,0.106944 -0.1538271,0.140014 -0.06781,0.03265 -0.1511062,0.04897 -0.2498905,0.04897 H 6.3533272 v -0.193383 h 0.3120493 c 0.057764,0 0.1050631,-0.008 0.1418976,-0.02386 0.036835,-0.01633 0.064042,-0.03998 0.081622,-0.07095 0.018,-0.03139 0.026998,-0.0699 0.026998,-0.115527 0,-0.04563 -0.009,-0.08455 -0.026998,-0.116783 -0.018,-0.03265 -0.045415,-0.05734 -0.08225,-0.07409 -0.036835,-0.01716 -0.084343,-0.02574 -0.1425254,-0.02574 H 6.4506465 v 1.091231 z m 0.664282,-0.582659 0.3183278,0.582659 H 6.9403817 L 6.6277046,14.214544 Z M 9.7563591,13.7066 V 13.511334 H 10.782292 V 13.7066 h -0.397439 v 1.090603 H 10.153798 V 13.7066 Z"
     style="font-weight:600;font-family:Inter;-inkscape-font-specification:'Inter Semi-Bold';text-align:center;text-anchor:middle;stroke-width:0.264583;fill:#808080;fill-opacity:1"
     id="path4719" />
  <path
     id="path9791"
     style="opacity:0.2;fill:#ffffff;fill-opacity:1;stroke-width:0.140009;stroke-linejoin:round"
     d="m 3.175,0.5291668 c -0.2931583,0 -0.5291667,0.2360083 -0.5291667,0.5291667 V 1.3229168 C 2.6458334,1.0297584 2.8818417,0.7937501 3.175,0.7937501 h 7.14375 c 0,0 1e-6,-0.2645833 0,-0.2645833 z"
     sodipodi:nodetypes="sscsccs" />
  <path
     id="rect9905"
     style="opacity:0.2;fill:#000000;fill-opacity:1;stroke-width:2;stroke-linejoin:round"
     d="M 10 59 L 10 60 C 10 61.108 10.892 62 12 62 L 52 62 C 53.108 62 54 61.108 54 60 L 54 59 C 54 60.108 53.108 61 52 61 L 12 61 C 10.892 61 10 60.108 10 59 z "
     transform="scale(0.26458334)" />
  <path
     id="rect5598"
     style="opacity:0.1;fill:#000000;fill-opacity:1;stroke-width:0.529167;stroke-linejoin:round"
     d="M 10.444901,4.3115072 10.31875,3.4395834 14.2875,4.4979167 v 3.7041668 z"
     sodipodi:nodetypes="ccccc" />
  <path
     id="rect2607"
     style="fill:#f1f1f1;fill-opacity:1;stroke-width:0.529167;stroke-linejoin:round"
     d="m 14.2875,4.4979167 -3.439583,-1e-7 c -0.293158,0 -0.529166,-0.2360083 -0.529166,-0.5291667 V 0.52916673 Z"
     sodipodi:nodetypes="csscc" />
</svg>
