<?xml version="1.0" encoding="UTF-8" standalone="no"?>
<!-- Created with Inkscape (http://www.inkscape.org/) -->

<svg
   width="64"
   height="64"
   viewBox="0 0 16.933333 16.933334"
   version="1.1"
   id="svg5"
   inkscape:version="1.1.2 (0a00cf5339, 2022-02-04, custom)"
   sodipodi:docname="text-x-fortran.svg"
   xmlns:inkscape="http://www.inkscape.org/namespaces/inkscape"
   xmlns:sodipodi="http://sodipodi.sourceforge.net/DTD/sodipodi-0.dtd"
   xmlns="http://www.w3.org/2000/svg"
   xmlns:svg="http://www.w3.org/2000/svg">
  <sodipodi:namedview
     id="namedview7"
     pagecolor="#ffffff"
     bordercolor="#666666"
     borderopacity="1.0"
     inkscape:pageshadow="2"
     inkscape:pageopacity="0.0"
     inkscape:pagecheckerboard="0"
     inkscape:document-units="px"
     showgrid="false"
     units="px"
     height="64px"
     inkscape:zoom="12.40625"
     inkscape:cx="31.959698"
     inkscape:cy="32"
     inkscape:window-width="1920"
     inkscape:window-height="1017"
     inkscape:window-x="0"
     inkscape:window-y="32"
     inkscape:window-maximized="1"
     inkscape:current-layer="svg5" />
  <defs
     id="defs2" />
  <path
     id="rect1068"
     style="fill:#e5e5e5;fill-opacity:1;stroke-width:0.529167;stroke-linejoin:round"
     d="m 3.175,0.5291667 7.143751,3e-8 3.968749,3.96874997 1e-6,11.3770833 c 0,0.293158 -0.236009,0.529167 -0.529167,0.529167 H 3.175 c -0.2931584,0 -0.5291667,-0.236009 -0.5291667,-0.529167 V 1.0583334 c 0,-0.29315835 0.2360083,-0.5291667 0.5291667,-0.5291667 z"
     sodipodi:nodetypes="cccsssssc" />
  <path
     id="rect8140"
     style="opacity:0.75;fill:#ffffff;fill-opacity:1;stroke-width:0.518136;stroke-linejoin:round"
     d="m 3.175,0.5291668 h 7.143751 l -1e-6,2.9104166 0.79375,1.0583333 3.175,0 V 15.875 c 0,0.295111 -0.236009,0.529167 -0.529167,0.529167 H 3.175 c -0.293159,0 -0.529167,-0.236009 -0.529167,-0.529167 V 1.0583337 c 0,-0.2931589 0.236008,-0.5291669 0.529167,-0.5291669 z"
     sodipodi:nodetypes="sccccssssss" />
  <path
     d="m 7.7116354,12.303122 q 0,0.348476 0.02904,0.551753 0.038719,0.203277 0.1355181,0.309754 0.106479,0.106482 0.2903961,0.1452 0.1839176,0.02904 0.4936736,0.02904 v 0.241997 q -0.2032774,0 -0.5614326,0 -0.3484755,-0.0097 -0.7259905,-0.0097 -0.3871949,0 -0.7453501,0.0097 -0.3484754,0 -0.5420728,0 v -0.242 q 0.3194358,0 0.5130333,-0.02904 0.1935974,-0.03872 0.300076,-0.15488 0.096798,-0.10648 0.1258382,-0.309755 0.038719,-0.203278 0.038719,-0.542073 V 7.5309445 q 0,-0.300076 -0.0484,-0.4743137 Q 6.9759651,6.8727133 6.8694865,6.7855944 6.7630079,6.6887956 6.5694104,6.659756 6.3854928,6.6210365 6.0854168,6.6113567 V 6.3500001 q 1.1615848,0.02904 2.3522088,0.02904 1.1906247,0 2.3522084,-0.02904 l 0.05808,1.4616608 -0.251677,-0.00968 Q 10.547839,7.4728653 10.480078,7.2502282 10.421999,7.0275912 10.267121,6.9017529 10.121924,6.7662346 9.8508883,6.7178354 9.5798503,6.659756 9.1248967,6.659756 H 7.7116354 v 2.9717208 h 1.4132613 q 0.4646336,0 0.6388716,-0.154878 0.183918,-0.1548779 0.212957,-0.7066306 h 0.2710357 q -0.01936,0.1935974 -0.02904,0.4839935 0,0.2807164 0,0.6001523 0,0.319436 0,0.619511 0.0097,0.300077 0.02904,0.513035 H 10.005766 Q 9.9767283,10.454266 9.8024883,10.250989 9.6379303,10.038032 9.1442565,10.038032 H 7.7116354 Z"
     style="font-weight:normal;font-size:8.81084px;line-height:1.25;font-family:'나눔명조';-inkscape-font-specification:'나눔명조';fill:#a1a1a1;fill-opacity:1;stroke-width:0.247809"
     id="path51347" />
  <path
     id="path9791"
     style="opacity:0.2;fill:#ffffff;fill-opacity:1;stroke-width:0.140009;stroke-linejoin:round"
     d="m 3.175,0.5291668 c -0.2931583,0 -0.5291667,0.2360083 -0.5291667,0.5291667 V 1.3229168 C 2.6458334,1.0297584 2.8818417,0.7937501 3.175,0.7937501 h 7.14375 c 0,0 1e-6,-0.2645833 0,-0.2645833 z"
     sodipodi:nodetypes="sscsccs" />
  <path
     id="rect9905"
     style="opacity:0.2;fill:#000000;fill-opacity:1;stroke-width:2;stroke-linejoin:round"
     d="M 10 59 L 10 60 C 10 61.108 10.892 62 12 62 L 52 62 C 53.108 62 54 61.108 54 60 L 54 59 C 54 60.108 53.108 61 52 61 L 12 61 C 10.892 61 10 60.108 10 59 z "
     transform="scale(0.26458334)" />
  <path
     id="rect5598"
     style="opacity:0.1;fill:#000000;fill-opacity:1;stroke-width:0.529167;stroke-linejoin:round"
     d="M 10.444901,4.3115072 10.31875,3.4395834 14.2875,4.4979167 v 3.7041668 z"
     sodipodi:nodetypes="ccccc" />
  <path
     id="rect2607"
     style="fill:#f1f1f1;fill-opacity:1;stroke-width:0.529167;stroke-linejoin:round"
     d="m 14.2875,4.4979167 -3.439583,-1e-7 c -0.293158,0 -0.529166,-0.2360083 -0.529166,-0.5291667 V 0.52916673 Z"
     sodipodi:nodetypes="csscc" />
</svg>
