<?xml version="1.0" encoding="UTF-8" standalone="no"?>
<!-- Created with Inkscape (http://www.inkscape.org/) -->

<svg
   width="64"
   height="64"
   viewBox="0 0 16.933333 16.933334"
   version="1.1"
   id="svg5"
   inkscape:version="1.1.2 (0a00cf5339, 2022-02-04, custom)"
   sodipodi:docname="text-vnd.trolltech.linguist.svg"
   xmlns:inkscape="http://www.inkscape.org/namespaces/inkscape"
   xmlns:sodipodi="http://sodipodi.sourceforge.net/DTD/sodipodi-0.dtd"
   xmlns="http://www.w3.org/2000/svg"
   xmlns:svg="http://www.w3.org/2000/svg">
  <sodipodi:namedview
     id="namedview7"
     pagecolor="#ffffff"
     bordercolor="#666666"
     borderopacity="1.0"
     inkscape:pageshadow="2"
     inkscape:pageopacity="0.0"
     inkscape:pagecheckerboard="0"
     inkscape:document-units="px"
     showgrid="false"
     units="px"
     height="64px"
     inkscape:zoom="12.40625"
     inkscape:cx="31.959698"
     inkscape:cy="32"
     inkscape:window-width="1920"
     inkscape:window-height="1017"
     inkscape:window-x="0"
     inkscape:window-y="32"
     inkscape:window-maximized="1"
     inkscape:current-layer="svg5" />
  <defs
     id="defs2" />
  <path
     id="rect1068"
     style="fill:#e5e5e5;fill-opacity:1;stroke-width:0.529167;stroke-linejoin:round"
     d="m 3.175,0.5291667 7.143751,3e-8 3.968749,3.96874997 1e-6,11.3770833 c 0,0.293158 -0.236009,0.529167 -0.529167,0.529167 H 3.175 c -0.2931584,0 -0.5291667,-0.236009 -0.5291667,-0.529167 V 1.0583334 c 0,-0.29315835 0.2360083,-0.5291667 0.5291667,-0.5291667 z"
     sodipodi:nodetypes="cccsssssc" />
  <path
     id="rect8140"
     style="opacity:0.75;fill:#ffffff;fill-opacity:1;stroke-width:0.518136;stroke-linejoin:round"
     d="m 3.175,0.5291668 h 7.143751 l -1e-6,2.9104166 0.79375,1.0583333 3.175,0 V 15.875 c 0,0.295111 -0.236009,0.529167 -0.529167,0.529167 H 3.175 c -0.293159,0 -0.529167,-0.236009 -0.529167,-0.529167 V 1.0583337 c 0,-0.2931589 0.236008,-0.5291669 0.529167,-0.5291669 z"
     sodipodi:nodetypes="sccccssssss" />
  <path
     d="m 4.5772917,15.061783 v -1.28587 h 0.2329381 v 1.090603 h 0.5663351 v 0.195267 z m 2.5434856,-1.28587 v 1.28587 H 6.9135816 L 6.3076911,14.185909 h -0.010673 v 0.875874 H 6.0640799 v -1.28587 h 0.2084515 l 0.6052627,0.8765 h 0.011303 v -0.8765 z m 3.1179837,0 v 1.28587 h -0.232939 v -1.28587 z m -0.719536,0 h 0.2329381 v 0.840085 c 0,0.09209 -0.021765,0.173081 -0.065298,0.242984 -0.043113,0.0699 -0.1038072,0.124526 -0.1820812,0.163872 -0.078274,0.03893 -0.1697329,0.05839 -0.2743772,0.05839 -0.1050629,0 -0.1967315,-0.01946 -0.2750053,-0.05839 -0.078274,-0.03935 -0.1389674,-0.09397 -0.182081,-0.163872 -0.043113,-0.0699 -0.06467,-0.150897 -0.06467,-0.242984 v -0.840085 h 0.2329384 v 0.82062 c 0,0.05358 0.011721,0.101299 0.03516,0.143155 0.023858,0.04186 0.057345,0.07472 0.1004586,0.09858 0.043113,0.02344 0.09418,0.03516 0.1531991,0.03516 0.05902,0 0.110086,-0.01172 0.1531993,-0.03516 0.043532,-0.02386 0.077018,-0.05672 0.1004586,-0.09858 0.023439,-0.04186 0.03516,-0.08958 0.03516,-0.143155 z m -1.2839869,0.410624 c -0.010464,-0.03391 -0.024905,-0.06425 -0.043323,-0.09104 -0.018,-0.02721 -0.039765,-0.05044 -0.065298,-0.06969 -0.025114,-0.01925 -0.053996,-0.03369 -0.086645,-0.04332 -0.032649,-0.01005 -0.068228,-0.01507 -0.1067371,-0.01507 -0.069065,0 -0.1305962,0.01737 -0.1845927,0.05211 -0.053997,0.03474 -0.096482,0.08581 -0.1274566,0.153199 -0.030556,0.06697 -0.045834,0.148594 -0.045834,0.244868 0,0.09711 0.015277,0.179359 0.045834,0.246751 0.030556,0.06739 0.073042,0.118666 0.1274566,0.153827 0.054415,0.03474 0.1176206,0.05211 0.1896155,0.05211 0.065298,0 0.121806,-0.01256 0.1695239,-0.03767 0.048136,-0.02511 0.08518,-0.06069 0.1111321,-0.106737 0.025953,-0.04646 0.038928,-0.100875 0.038928,-0.163245 l 0.052741,0.0082 h -0.349094 v -0.18212 h 0.5217565 v 0.154455 c 0,0.110086 -0.02344,0.205312 -0.070321,0.285679 -0.046881,0.08037 -0.1113417,0.142316 -0.1933826,0.185848 -0.082041,0.04311 -0.176221,0.06467 -0.2825396,0.06467 -0.1184574,0 -0.2224738,-0.02658 -0.3120493,-0.07974 -0.089157,-0.05358 -0.15885,-0.129551 -0.2090793,-0.227915 -0.049811,-0.09878 -0.074716,-0.215985 -0.074716,-0.351605 0,-0.103807 0.01465,-0.196522 0.043951,-0.278144 0.029719,-0.08162 0.071158,-0.150897 0.1243172,-0.207824 0.053159,-0.05735 0.1155274,-0.100879 0.187104,-0.130596 0.071577,-0.03014 0.1494322,-0.04521 0.2335663,-0.04521 0.071158,0 0.1375023,0.01046 0.1990333,0.03139 0.061531,0.02051 0.116155,0.04981 0.1638729,0.0879 0.048136,0.03809 0.087692,0.0833 0.1186667,0.135619 0.030975,0.05232 0.051276,0.110084 0.060903,0.173291 z M 5.8110483,13.775913 v 1.28587 H 5.5781102 v -1.28587 z m 5.7719727,0.195267 v -0.195267 h 1.025932 v 0.195267 h -0.397439 v 1.090603 H 11.98046 V 13.97118 Z m -0.392415,0.158222 c -0.0059,-0.05483 -0.03056,-0.09753 -0.07409,-0.128084 -0.04311,-0.03056 -0.0992,-0.04584 -0.168268,-0.04584 -0.04855,0 -0.0902,0.0073 -0.124945,0.02198 -0.03474,0.01465 -0.06132,0.03453 -0.07974,0.05965 -0.01842,0.02512 -0.02784,0.05379 -0.02825,0.08602 0,0.02679 0.0061,0.05002 0.01821,0.06969 0.01256,0.01967 0.02951,0.03642 0.05086,0.05023 0.02135,0.01339 0.045,0.02469 0.07095,0.0339 0.02595,0.0092 0.05211,0.01695 0.07848,0.02323 l 0.12055,0.03014 c 0.04855,0.0113 0.09523,0.02658 0.140014,0.04583 0.04521,0.01925 0.0856,0.04353 0.121178,0.07283 0.036,0.0293 0.06446,0.06467 0.08539,0.106109 0.02093,0.04144 0.03139,0.09 0.03139,0.145665 0,0.07534 -0.01925,0.141688 -0.05776,0.199034 -0.03851,0.05693 -0.09418,0.101505 -0.167012,0.133735 -0.07241,0.03181 -0.160105,0.04772 -0.263075,0.04772 -0.10004,0 -0.186895,-0.01549 -0.260565,-0.04646 -0.07325,-0.03097 -0.130596,-0.07618 -0.172035,-0.135619 -0.04102,-0.05944 -0.0632,-0.131854 -0.06655,-0.217242 h 0.229163 c 0.0033,0.04479 0.01715,0.08204 0.04144,0.11176 0.02428,0.02972 0.05588,0.0519 0.09481,0.06655 0.03935,0.01465 0.0833,0.02198 0.131852,0.02198 0.05065,0 0.09502,-0.0075 0.133108,-0.0226 0.03851,-0.01549 0.06864,-0.03683 0.09041,-0.06404 0.02177,-0.02763 0.03286,-0.05986 0.03328,-0.09669 -4.24e-4,-0.03349 -0.01025,-0.06111 -0.02951,-0.08288 -0.01925,-0.02219 -0.04625,-0.0406 -0.08099,-0.05525 -0.03432,-0.01507 -0.0745,-0.02846 -0.12055,-0.04018 L 10.822059,14.4829 c -0.1059,-0.02721 -0.189616,-0.06844 -0.251147,-0.12369 -0.06111,-0.05567 -0.09167,-0.129553 -0.09167,-0.221637 0,-0.07576 0.02051,-0.142107 0.06153,-0.199033 0.04144,-0.05693 0.09774,-0.101087 0.168896,-0.13248 0.07116,-0.03181 0.151733,-0.04772 0.241727,-0.04772 0.09125,0 0.171199,0.01591 0.239845,0.04772 0.06907,0.03139 0.123271,0.07513 0.162617,0.131224 0.03935,0.05567 0.05965,0.119715 0.0609,0.192127 z"
     style="font-weight:600;font-size:1.76807px;line-height:1.25;font-family:Inter;-inkscape-font-specification:'Inter Semi-Bold';text-align:center;text-anchor:middle;fill:#808080;stroke-width:0.011695"
     id="path13369" />
  <path
     d="m 10.51202,6.6145834 c -0.273159,0 -0.5132974,0.037239 -0.7203693,0.1121378 C 9.5889841,6.7972139 9.4192173,6.8919853 9.2826376,7.0109417 9.1460581,7.1298981 9.0448674,7.2665331 8.9787803,7.4207358 8.9126935,7.5705328 8.8795615,7.7269433 8.8795615,7.8899576 v 0.1188559 c 0,0.2158839 0.039551,0.3990067 0.1188559,0.5488038 0.08371,0.1453912 0.1964616,0.2686701 0.3374469,0.3700034 0.1409854,0.096927 0.3084402,0.1783424 0.5022954,0.2444295 0.1938553,0.061681 0.4031733,0.1169008 0.6278683,0.1653645 0.193855,0.039652 0.356686,0.085623 0.488859,0.1384928 0.132174,0.048464 0.240302,0.1036835 0.324012,0.1653645 0.08371,0.061681 0.143037,0.1320525 0.178283,0.2113566 0.03525,0.079304 0.05271,0.1722804 0.05271,0.2780194 v 0.10542 c 0,0.189448 -0.08604,0.352796 -0.257865,0.489375 -0.16742,0.13658 -0.420398,0.204639 -0.759644,0.204639 -0.101333,0 -0.214084,-0.01336 -0.337447,-0.03979 C 10.03598,10.863863 9.9173246,10.828932 9.7983687,10.784872 9.679412,10.736407 9.562553,10.681187 9.4480022,10.619507 9.3334516,10.557825 9.2322606,10.493874 9.1441449,10.427787 l -0.3307292,0.535368 c 0.1982608,0.158608 0.4383987,0.290619 0.7203694,0.396358 0.2863765,0.110145 0.5991979,0.165365 0.9384449,0.165365 0.242318,0 0.467304,-0.02851 0.674377,-0.08578 0.211478,-0.05287 0.391772,-0.134802 0.541569,-0.244946 0.149797,-0.114551 0.266656,-0.252981 0.350366,-0.415996 0.08812,-0.163014 0.132292,-0.354869 0.132292,-0.575158 v -0.118859 c 0,-0.1630143 -0.0262,-0.3130052 -0.07906,-0.449585 C 12.043305,9.4979745 11.959578,9.3746956 11.840621,9.2645509 11.721666,9.1544059 11.562942,9.0578393 11.364682,8.9741294 11.170826,8.8860133 10.926064,8.8087055 10.630876,8.742619 10.454645,8.7029667 10.298234,8.6634152 10.161654,8.6237631 10.025075,8.5797052 9.9105277,8.5291097 9.8180056,8.4718343 9.7254842,8.4145592 9.655113,8.3482953 9.606649,8.2733968 9.558185,8.1940927 9.5337851,8.0993214 9.5337851,7.9891764 V 7.8832399 c 0,-0.1894491 0.088352,-0.3499673 0.2645836,-0.4821413 0.1806369,-0.1321736 0.4207753,-0.1984375 0.7203693,-0.1984375 0.22029,0 0.420877,0.026712 0.601514,0.079582 0.180637,0.052869 0.358619,0.1383922 0.534851,0.2573486 L 11.966195,7.0310955 C 11.763529,6.894516 11.543167,6.7910129 11.305254,6.7205202 11.067341,6.6500275 10.802802,6.6145834 10.51202,6.6145834 Z M 4.7625001,6.6874474 V 7.2491701 H 6.2161583 V 11.452014 H 6.8708986 V 7.2491701 H 8.3245567 V 6.6874473 Z"
     style="font-weight:bold;font-size:6.60869px;line-height:1.25;font-family:'나눔스퀘어';-inkscape-font-specification:'나눔스퀘어 Bold';fill:#000000;fill-opacity:1;stroke-width:0.0437139;opacity:0.2"
     id="path859" />
  <path
     id="path10474"
     style="font-weight:bold;font-size:6.60869px;line-height:1.25;font-family:'나눔스퀘어';-inkscape-font-specification:'나눔스퀘어 Bold';fill:#2057b5;fill-opacity:1;stroke-width:0.165218"
     d="m 10.51202,6.3500001 c -0.273159,0 -0.5132974,0.037239 -0.7203694,0.1121378 C 9.588984,6.5326306 9.4192173,6.6274019 9.2826375,6.7463583 9.146058,6.8653147 9.0448673,7.0019498 8.9787802,7.1561524 8.9126934,7.3059494 8.8795615,7.46236 8.8795615,7.6253743 v 0.1188559 c 0,0.2158838 0.039551,0.3990067 0.1188559,0.5488038 0.08371,0.1453911 0.1964615,0.26867 0.3374469,0.3700033 0.1409853,0.096927 0.3084401,0.1783425 0.5022953,0.2444295 0.1938554,0.061681 0.4031734,0.1169009 0.6278684,0.1653646 0.193855,0.039652 0.356686,0.085623 0.488859,0.1384927 0.132174,0.048464 0.240302,0.1036836 0.324012,0.1653646 0.08371,0.061681 0.143037,0.1320525 0.178283,0.2113566 0.03525,0.079304 0.05271,0.1722803 0.05271,0.2780196 v 0.10542 c 0,0.1894481 -0.08604,0.3527961 -0.257865,0.4893751 -0.16742,0.13658 -0.420398,0.204639 -0.759644,0.204639 -0.101333,0 -0.214084,-0.01336 -0.337447,-0.03979 C 10.03598,10.599279 9.9173246,10.564349 9.7983686,10.520289 9.679412,10.471824 9.562553,10.416604 9.4480021,10.354924 9.3334516,10.293242 9.2322606,10.229291 9.1441448,10.163204 l -0.3307291,0.535368 c 0.1982607,0.158608 0.4383987,0.290619 0.7203694,0.396358 0.2863765,0.110145 0.5991979,0.165365 0.9384449,0.165365 0.242318,0 0.467304,-0.02851 0.674377,-0.08578 0.211478,-0.05287 0.391772,-0.134802 0.541569,-0.244946 0.149797,-0.114551 0.266656,-0.252981 0.350366,-0.415996 0.08812,-0.163014 0.132292,-0.354869 0.132292,-0.5751581 V 9.8195557 c 0,-0.1630143 -0.0262,-0.3130052 -0.07906,-0.449585 C 12.043305,9.2333912 11.959578,9.1101123 11.840621,8.9999676 11.721666,8.8898226 11.562942,8.793256 11.364682,8.7095461 11.170826,8.62143 10.926064,8.5441222 10.630876,8.4780357 10.454645,8.4383833 10.298234,8.3988318 10.161654,8.3591798 10.025075,8.3151219 9.9105276,8.2645264 9.8180056,8.207251 9.7254842,8.1499759 9.6551129,8.083712 9.6066489,8.0088135 9.5581849,7.9295094 9.5337851,7.834738 9.5337851,7.7245931 V 7.6186565 c 0,-0.1894491 0.088352,-0.3499673 0.2645835,-0.4821412 0.180637,-0.1321737 0.4207754,-0.1984375 0.7203694,-0.1984375 0.22029,0 0.420877,0.026712 0.601514,0.079582 0.180637,0.052869 0.358619,0.1383922 0.534851,0.2573486 L 11.966195,6.7665122 C 11.763529,6.6299327 11.543167,6.5264295 11.305254,6.4559368 11.067341,6.3854442 10.802802,6.3500001 10.51202,6.3500001 Z M 4.7625,6.4228639 V 6.9845868 H 6.2161582 V 11.187431 H 6.8708985 V 6.9845868 H 8.3245567 V 6.4228639 Z"
     sodipodi:nodetypes="scscsscccccscsscsccscccscccsscscccscsscssccssccccccccc" />
  <path
     id="path9791"
     style="opacity:0.2;fill:#ffffff;fill-opacity:1;stroke-width:0.140009;stroke-linejoin:round"
     d="m 3.175,0.5291668 c -0.2931583,0 -0.5291667,0.2360083 -0.5291667,0.5291667 V 1.3229168 C 2.6458334,1.0297584 2.8818417,0.7937501 3.175,0.7937501 h 7.14375 c 0,0 1e-6,-0.2645833 0,-0.2645833 z"
     sodipodi:nodetypes="sscsccs" />
  <path
     id="rect9905"
     style="opacity:0.2;fill:#000000;fill-opacity:1;stroke-width:2;stroke-linejoin:round"
     d="M 10 59 L 10 60 C 10 61.108 10.892 62 12 62 L 52 62 C 53.108 62 54 61.108 54 60 L 54 59 C 54 60.108 53.108 61 52 61 L 12 61 C 10.892 61 10 60.108 10 59 z "
     transform="scale(0.26458334)" />
  <path
     id="rect5598"
     style="opacity:0.1;fill:#000000;fill-opacity:1;stroke-width:0.529167;stroke-linejoin:round"
     d="M 10.444901,4.3115072 10.31875,3.4395834 14.2875,4.4979167 v 3.7041668 z"
     sodipodi:nodetypes="ccccc" />
  <path
     id="rect2607"
     style="fill:#f1f1f1;fill-opacity:1;stroke-width:0.529167;stroke-linejoin:round"
     d="m 14.2875,4.4979167 -3.439583,-1e-7 c -0.293158,0 -0.529166,-0.2360083 -0.529166,-0.5291667 V 0.52916673 Z"
     sodipodi:nodetypes="csscc" />
</svg>
