<?xml version="1.0" encoding="UTF-8" standalone="no"?>
<!-- Created with Inkscape (http://www.inkscape.org/) -->

<svg
   width="64"
   height="64"
   viewBox="0 0 16.933333 16.933334"
   version="1.1"
   id="svg5"
   inkscape:version="1.1.2 (0a00cf5339, 2022-02-04, custom)"
   sodipodi:docname="virtualbox-vmdk.svg"
   xmlns:inkscape="http://www.inkscape.org/namespaces/inkscape"
   xmlns:sodipodi="http://sodipodi.sourceforge.net/DTD/sodipodi-0.dtd"
   xmlns="http://www.w3.org/2000/svg"
   xmlns:svg="http://www.w3.org/2000/svg">
  <sodipodi:namedview
     id="namedview7"
     pagecolor="#ffffff"
     bordercolor="#666666"
     borderopacity="1.0"
     inkscape:pageshadow="2"
     inkscape:pageopacity="0.0"
     inkscape:pagecheckerboard="0"
     inkscape:document-units="px"
     showgrid="false"
     units="px"
     height="64px"
     inkscape:zoom="12.328125"
     inkscape:cx="25.713561"
     inkscape:cy="34.757921"
     inkscape:window-width="1920"
     inkscape:window-height="1011"
     inkscape:window-x="0"
     inkscape:window-y="0"
     inkscape:window-maximized="1"
     inkscape:current-layer="svg5"
     showguides="false" />
  <defs
     id="defs2" />
  <path
     id="rect1068"
     style="fill:#24a1d7;fill-opacity:1;stroke-width:0.529167;stroke-linejoin:round"
     d="m 3.175,0.5291667 7.143751,3e-8 3.968749,3.96874997 1e-6,11.3770833 c 0,0.293158 -0.236009,0.529167 -0.529167,0.529167 H 3.175 c -0.2931584,0 -0.5291667,-0.236009 -0.5291667,-0.529167 V 1.0583334 c 0,-0.29315835 0.2360083,-0.5291667 0.5291667,-0.5291667 z"
     sodipodi:nodetypes="cccsssssc" />
  <path
     id="rect1614"
     style="opacity:0.3;fill:#f9f9f9;fill-opacity:1;stroke-width:0.273862;stroke-linejoin:round"
     d="m 3.7041667,12.7 v 0.264584 H 6.8791668 V 12.7 Z m 0,0.529167 v 0.264583 h 2.6458334 v -0.264583 z m 0,0.529167 v 0.264583 h 3.1750001 v -0.264583 z m 0,0.529166 v 0.264584 H 5.8208335 V 14.2875 Z" />
  <path
     id="rect5598"
     style="opacity:0.1;fill:#000000;fill-opacity:1;stroke-width:0.529167;stroke-linejoin:round"
     d="M 10.444901,4.3115072 10.31875,3.4395834 14.2875,4.4979167 v 3.7041668 z"
     sodipodi:nodetypes="ccccc" />
  <path
     id="rect2607"
     style="fill:#f1f1f1;fill-opacity:1;stroke-width:0.529167;stroke-linejoin:round"
     d="m 14.2875,4.4979167 -3.439583,-1e-7 c -0.293158,0 -0.529166,-0.2360083 -0.529166,-0.5291667 V 0.52916673 Z"
     sodipodi:nodetypes="csscc" />
  <path
     id="rect11027"
     style="opacity:0.6;fill:#fefefe;fill-opacity:1;stroke-width:0.703438;stroke-linejoin:round"
     d="m 24,2 v 2 h 2 V 2 Z m 0,2 h -2 v 2 h 2 z m 0,2 v 2 h 2 V 6 Z m 0,2 h -2 v 2 h 2 z m 0,2 v 2 h 2 v -2 z m 0,2 h -2 v 2 h 2 z m 0,2 v 2 h 2 v -2 z m 0,2 h -2 v 2 h 2 z m 0,2 v 2 h 2 v -2 z m 0,2 h -2 v 2 h 2 z m 0,2 v 2 h 2 v -2 z m -2,3 v 5 c 0,0.554 0.446,1 1,1 h 2 c 0.554,0 1,-0.446 1,-1 v -5 z m 1,3 h 2 v 2 h -2 z"
     transform="scale(0.26458334)" />
  <path
     id="path9791"
     style="opacity:0.2;fill:#ffffff;fill-opacity:1;stroke-width:0.140009;stroke-linejoin:round"
     d="m 3.175,0.5291667 c -0.2931583,0 -0.5291667,0.23600829 -0.5291667,0.5291667 V 1.3229167 C 2.6458334,1.0297583 2.8818417,0.79374999 3.175,0.79374999 h 7.14375 c 0,0 1e-6,-0.26458329 0,-0.26458329 z"
     sodipodi:nodetypes="sscsccs" />
  <path
     id="rect9905"
     style="opacity:0.2;fill:#000000;fill-opacity:1;stroke-width:2;stroke-linejoin:round"
     d="M 10 59 L 10 60 C 10 61.108 10.892 62 12 62 L 52 62 C 53.108 62 54 61.108 54 60 L 54 59 C 54 60.108 53.108 61 52 61 L 12 61 C 10.892 61 10 60.108 10 59 z "
     transform="scale(0.26458334)" />
  <path
     d="m 12.618222,14.155208 h 0.17964 v -0.370327 l 0.140689,-0.161618 0.384861,0.531945 h 0.216265 l -0.481947,-0.654612 0.480203,-0.536014 h -0.226149 l -0.499388,0.56857 h -0.01453 v -0.56857 h -0.17964 z M 8.9254243,12.964582 H 8.73125 l 0.4284623,1.190626 H 9.3672578 L 9.79572,12.964582 H 9.6015461 l -0.3313753,0.969709 h -0.013372 z m 1.0417957,0 v 1.190626 h 0.17092 v -0.862157 h 0.01105 l 0.351141,0.860413 h 0.141852 l 0.351142,-0.859832 h 0.01105 v 0.861576 h 0.170919 v -1.190626 h -0.21801 l -0.379046,0.925525 h -0.01395 L 10.18523,12.964582 Z m 1.855121,1.190626 c 0.362769,0 0.57264,-0.224987 0.57264,-0.597057 0,-0.370327 -0.209871,-0.593569 -0.560431,-0.593569 H 11.4369 v 1.190626 z M 11.61654,13.99824 v -0.876691 h 0.206964 c 0.260449,0 0.394744,0.155805 0.394744,0.436602 0,0.281959 -0.134295,0.440089 -0.40579,0.440089 z"
     style="font-weight:500;font-family:Inter;-inkscape-font-specification:'Inter Medium';text-align:end;text-anchor:end;stroke-width:0.264583;fill:#ffffff;opacity:0.6"
     id="path8303" />
</svg>
