<?xml version="1.0" encoding="UTF-8" standalone="no"?>
<!-- Created with Inkscape (http://www.inkscape.org/) -->

<svg
   width="16"
   height="16"
   viewBox="0 0 4.2333333 4.2333335"
   version="1.1"
   id="svg5"
   inkscape:version="1.1.2 (0a00cf5339, 2022-02-04, custom)"
   sodipodi:docname="steam.svg"
   xmlns:inkscape="http://www.inkscape.org/namespaces/inkscape"
   xmlns:sodipodi="http://sodipodi.sourceforge.net/DTD/sodipodi-0.dtd"
   xmlns="http://www.w3.org/2000/svg"
   xmlns:svg="http://www.w3.org/2000/svg">
  <sodipodi:namedview
     id="namedview7"
     pagecolor="#ffffff"
     bordercolor="#666666"
     borderopacity="1.0"
     inkscape:pageshadow="2"
     inkscape:pageopacity="0.0"
     inkscape:pagecheckerboard="0"
     inkscape:document-units="px"
     showgrid="false"
     units="px"
     height="64px"
     inkscape:zoom="49.625"
     inkscape:cx="7.9899244"
     inkscape:cy="8"
     inkscape:window-width="1920"
     inkscape:window-height="1017"
     inkscape:window-x="0"
     inkscape:window-y="32"
     inkscape:window-maximized="1"
     inkscape:current-layer="svg5" />
  <defs
     id="defs2" />
  <rect
     style="fill:#2862b3;stroke-width:0.264583;fill-opacity:1"
     id="rect846"
     width="4.2333336"
     height="4.2333336"
     x="-2.220446e-16"
     y="0"
     ry="1.0583334" />
  <path
     d="m 2.7781246,0.79375151 c -0.5114387,0 -0.9260417,0.41460299 -0.9260417,0.92604169 4.181e-4,0.00776 9.367e-4,0.01551 0.00155,0.023255 L 1.4707109,2.3817683 C 1.4655409,2.3815355 1.4603769,2.3813714 1.4552079,2.3812391 1.3026839,2.3816625 1.154994,2.4347901 1.0371455,2.5316174 L 0.005684,2.0040136 v 0.6418198 l 0.79116665,0.3570855 c -0.001434,0.013229 -0.002469,0.026499 -0.003101,0.039791 0,0.3653134 0.29614495,0.6614583 0.66145835,0.6614583 0.3653133,0 0.6614583,-0.2961449 0.6614583,-0.6614583 -4.8e-5,-0.031125 -0.00229,-0.062208 -0.00672,-0.093017 L 2.6463497,2.6365332 h 5.292e-4 c 0.043464,0.00621 0.087328,0.00932 0.1312457,0.0093 0.5114388,0 0.9260417,-0.4146028 0.9260417,-0.9260415 0,-0.5114387 -0.4146029,-0.92604169 -0.9260417,-0.92604169 z m 0,0.39687509 c 0.2922506,0 0.5291667,0.2369159 0.5291667,0.5291666 0,0.2922507 -0.2369161,0.5291667 -0.5291667,0.5291667 -0.2922507,0 -0.5291666,-0.236916 -0.5291666,-0.5291667 0,-0.2922507 0.2369159,-0.5291666 0.5291666,-0.5291666 z m 0,0.1322916 c -0.219188,0 -0.396875,0.177687 -0.396875,0.396875 0,0.219188 0.177687,0.396875 0.396875,0.396875 0.219188,0 0.3968751,-0.177687 0.3968751,-0.396875 0,-0.219188 -0.1776871,-0.396875 -0.3968751,-0.396875 z M 1.4552079,2.6458349 c 0.219188,0 0.396875,0.177687 0.396875,0.396875 0,0.219188 -0.177687,0.396875 -0.396875,0.396875 C 1.2758628,3.4388176 1.1193218,3.3178591 1.0733191,3.1445126 L 1.3348018,3.2783544 C 1.6490308,3.4390084 1.889843,2.9677193 1.575614,2.8070653 L 1.312581,2.6727065 c 0.045486,-0.017648 0.093837,-0.026758 0.1426269,-0.026872 z"
     style="fill:#ffffff;stroke-width:0.264583"
     id="path897"
     sodipodi:nodetypes="ccccccccccscccccsccsssssssssscscccccc" />
</svg>
