<?xml version="1.0" encoding="UTF-8" standalone="no"?>
<!-- Created with Inkscape (http://www.inkscape.org/) -->

<svg
   width="64"
   height="64"
   viewBox="0 0 16.933333 16.933333"
   version="1.1"
   id="svg5"
   inkscape:version="1.2 (dc2aedaf03, 2022-05-15)"
   sodipodi:docname="battery.svg"
   xmlns:inkscape="http://www.inkscape.org/namespaces/inkscape"
   xmlns:sodipodi="http://sodipodi.sourceforge.net/DTD/sodipodi-0.dtd"
   xmlns="http://www.w3.org/2000/svg"
   xmlns:svg="http://www.w3.org/2000/svg">
  <sodipodi:namedview
     id="namedview7"
     pagecolor="#ffffff"
     bordercolor="#666666"
     borderopacity="1.0"
     inkscape:pageshadow="2"
     inkscape:pageopacity="0.0"
     inkscape:pagecheckerboard="0"
     inkscape:document-units="px"
     showgrid="false"
     units="px"
     height="48px"
     inkscape:zoom="12.421875"
     inkscape:cx="32"
     inkscape:cy="32"
     inkscape:window-width="1920"
     inkscape:window-height="1011"
     inkscape:window-x="0"
     inkscape:window-y="0"
     inkscape:window-maximized="1"
     inkscape:current-layer="svg5"
     inkscape:lockguides="true"
     showguides="false"
     inkscape:showpageshadow="2"
     inkscape:deskcolor="#d1d1d1" />
  <defs
     id="defs2" />
  <path
     id="rect1033-9"
     style="opacity:0.3;fill:#b3b3b3;fill-opacity:1;stroke-width:3.50436;stroke-linecap:round;stroke-linejoin:round"
     d="M 8.4666656,1.0583333 A 4.762499,1.5874998 0 0 0 3.7041668,2.6458331 V 14.552081 a 4.762499,1.5874998 0 0 0 4.7624988,1.5875 4.762499,1.5874998 0 0 0 4.7624984,-1.5875 V 2.6458331 A 4.762499,1.5874998 0 0 0 8.4666656,1.0583333 Z" />
  <path
     id="path1137-7"
     style="fill:#7fcb54;fill-opacity:1;stroke-width:3.7307;stroke-linecap:round;stroke-linejoin:round"
     d="m 3.7041668,7.8052068 v 6.7468742 a 4.762499,1.5874998 0 0 0 4.7624988,1.5875 4.762499,1.5874998 0 0 0 4.7625004,-1.5875 V 7.8052068 Z" />
  <ellipse
     style="fill:#6cbd3d;fill-opacity:0.99215686;stroke-width:3.57187;stroke-linecap:round;stroke-linejoin:round"
     id="path2269"
     cx="8.4666672"
     cy="7.8052096"
     rx="4.7624993"
     ry="1.5874997" />
  <path
     id="rect1033"
     style="opacity:0.15;fill:#ffffff;fill-opacity:1;stroke-width:3.50436;stroke-linecap:round;stroke-linejoin:round"
     d="M 3.7041658,2.6458364 V 14.552083 a 4.762499,1.5874998 0 0 0 4.7624988,1.587499 4.762499,1.5874998 0 0 0 4.7625004,-1.587499 V 2.6458364 Z" />
  <path
     id="path1137-3-6"
     style="fill:#8f8f8f;fill-opacity:1;stroke-width:3.7307;stroke-linecap:round;stroke-linejoin:round"
     d="m 3.7041668,2.6458331 v 1.1906248 c 0,0.876752 2.1322436,1.5875 4.7624988,1.5875 2.6302564,0 4.7625004,-0.710748 4.7625004,-1.5875 V 2.6458331 c 0,0 -9.5249987,0 -9.5249992,0 z"
     sodipodi:nodetypes="cssscc" />
  <ellipse
     style="fill:#acacac;fill-opacity:1;stroke-width:3.7307;stroke-linecap:round;stroke-linejoin:round"
     id="path1137-3"
     cx="8.4666672"
     cy="2.6458333"
     rx="4.7624989"
     ry="1.5874997" />
  <path
     id="path5953-5"
     style="fill:#8f8f8f;fill-opacity:1;stroke-width:4.89101;stroke-linecap:round;stroke-linejoin:round"
     d="m 7.2760412,2.1497395 v 0.3968749 c 0,0.273985 0.5330608,0.4960937 1.1906244,0.4960937 0.6575638,0 1.1906248,-0.2221087 1.1906248,-0.4960937 9.45e-5,-0.00361 9.45e-5,-0.00723 0,-0.010845 V 2.1497395 Z"
     sodipodi:nodetypes="csscccc" />
  <ellipse
     style="opacity:1;fill:#bebebe;fill-opacity:1;stroke-width:4.89099;stroke-linecap:round;stroke-linejoin:round"
     id="path5953"
     cx="8.4666672"
     cy="2.14974"
     rx="1.1906248"
     ry="0.49609369" />
</svg>
