<?xml version="1.0" encoding="UTF-8" standalone="no"?>
<svg
   width="64"
   height="64"
   version="1.1"
   id="svg23"
   sodipodi:docname="computer.svg"
   inkscape:version="1.2 (dc2aedaf03, 2022-05-15)"
   xmlns:inkscape="http://www.inkscape.org/namespaces/inkscape"
   xmlns:sodipodi="http://sodipodi.sourceforge.net/DTD/sodipodi-0.dtd"
   xmlns="http://www.w3.org/2000/svg"
   xmlns:svg="http://www.w3.org/2000/svg">
  <defs
     id="defs27" />
  <sodipodi:namedview
     id="namedview25"
     pagecolor="#ffffff"
     bordercolor="#000000"
     borderopacity="0.25"
     inkscape:showpageshadow="2"
     inkscape:pageopacity="0.0"
     inkscape:pagecheckerboard="0"
     inkscape:deskcolor="#d1d1d1"
     showgrid="false"
     inkscape:zoom="11.828125"
     inkscape:cx="32.084544"
     inkscape:cy="32.084544"
     inkscape:window-width="1920"
     inkscape:window-height="1011"
     inkscape:window-x="0"
     inkscape:window-y="0"
     inkscape:window-maximized="1"
     inkscape:current-layer="svg23" />
  <radialGradient
     id="a"
     cx="199.22"
     cy="60.978"
     r="62.148"
     gradientTransform="matrix(.49549 0 0 2.4566 -66.708 -122.5)"
     gradientUnits="userSpaceOnUse">
    <stop
       stop-color="#e6e6e8"
       offset="0"
       id="stop2" />
    <stop
       stop-color="#cbccce"
       offset="1"
       id="stop4" />
  </radialGradient>
  <path
     d="M39.617 52.606c-.043 1.784-.463 3.77 2.424 5.464 2.305 1.41-1.279 1.507-2.169 1.507h-15.74c-.89 0-4.473-.096-2.169-1.507 2.888-1.693 2.468-3.68 2.424-5.464z"
     fill="#b3b3b3"
     id="path7" />
  <rect
     x="1.569"
     y="2.846"
     width="60.865"
     height="50.113"
     rx="2.772"
     fill="url(#a)"
     id="rect9" />
  <rect
     x="1.569"
     y="2.846"
     width="60.865"
     height="50.113"
     rx="2.772"
     fill="#dddee0"
     id="rect11" />
  <path
     d="M4.34 2.846c-1.535 0-2.772 1.217-2.772 2.73v36.476h60.865V5.575c0-1.512-1.236-2.73-2.772-2.73z"
     fill="#080808"
     id="path13" />
  <path
     d="M4.096 4.57h55.572v35.35H4.096z"
     fill="#1c92f4"
     id="path15" />
  <path
     d="M4.096 4.569V39.92h55.572V4.569zm.27.244h55.078v34.885H4.367z"
     fill-opacity=".212"
     id="path19" />
  <path
     d="M4.34 2.966c-1.535 0-2.772 1.217-2.772 2.73V42.05h60.865V5.695c0-1.512-1.236-2.73-2.772-2.73zm-.244 2.567h55.572v34.388H4.096z"
     fill="#080808"
     id="path21" />
</svg>
