<?xml version="1.0" encoding="UTF-8" standalone="no"?>
<!-- Created with Inkscape (http://www.inkscape.org/) -->

<svg
   width="64"
   height="64"
   viewBox="0 0 16.933333 16.933334"
   version="1.1"
   id="svg5"
   inkscape:version="1.2 (dc2aedaf03, 2022-05-15)"
   sodipodi:docname="device-harddisk-usb.svg"
   xmlns:inkscape="http://www.inkscape.org/namespaces/inkscape"
   xmlns:sodipodi="http://sodipodi.sourceforge.net/DTD/sodipodi-0.dtd"
   xmlns="http://www.w3.org/2000/svg"
   xmlns:svg="http://www.w3.org/2000/svg">
  <sodipodi:namedview
     id="namedview7"
     pagecolor="#ffffff"
     bordercolor="#666666"
     borderopacity="1.0"
     inkscape:pageshadow="2"
     inkscape:pageopacity="0.0"
     inkscape:pagecheckerboard="0"
     inkscape:document-units="px"
     showgrid="false"
     units="px"
     height="64px"
     inkscape:zoom="5.1040251"
     inkscape:cx="-20.865885"
     inkscape:cy="36.735713"
     inkscape:window-width="1920"
     inkscape:window-height="1011"
     inkscape:window-x="0"
     inkscape:window-y="0"
     inkscape:window-maximized="1"
     inkscape:current-layer="svg5"
     inkscape:showpageshadow="2"
     inkscape:deskcolor="#d1d1d1" />
  <defs
     id="defs2" />
  <path
     id="path1957"
     style="color:#000000;fill:#bfcdd0;fill-opacity:1;stroke:none;stroke-width:1;stroke-linecap:round;stroke-linejoin:round;-inkscape-stroke:none"
     d="M 3.7051653,1.3229167 C 3.0335923,1.322766 2.4682433,1.8258106 2.3905173,2.4928712 L 1.0763853,14.045655 15.850677,14.009998 14.542747,2.4928712 C 14.465021,1.8258107 13.900189,1.3227661 13.228615,1.3229167 Z"
     sodipodi:nodetypes="ccccccc" />
  <path
     id="path1957-56"
     style="color:#000000;fill:#ebae25;fill-opacity:1;stroke:none;stroke-width:3.77953;stroke-linecap:round;stroke-linejoin:round;-inkscape-stroke:none"
     d="M 14.003906,5 C 11.465678,4.9994304 9.3289239,6.9007011 9.0351562,9.421875 L 5.0524213,44.486328 C 5.6790858,42.46082 7.5317433,41 9.7321087,41 H 54.264062 c 2.190492,0 4.037085,1.447625 4.671875,3.458984 L 54.964844,9.421875 C 54.671061,6.9007015 52.536279,4.9994308 49.998047,5 Z"
     sodipodi:nodetypes="cccsscccc"
     transform="scale(0.26458334)" />
  <path
     id="rect846"
     style="fill:#5e5e5e;stroke-width:0.237835;fill-opacity:1"
     d="M 2.6458334,12.7 H 14.2875 c 0.879475,0 1.5875,0.708025 1.5875,1.5875 0,0.879475 -0.708025,1.5875 -1.5875,1.5875 H 2.6458334 c -0.879475,0 -1.5875,-0.708025 -1.5875,-1.5875 0,-0.879475 0.708025,-1.5875 1.5875,-1.5875 z" />
  <path
     id="rect5143"
     style="opacity:0.5;fill:#bfcdd0;fill-opacity:1;stroke:none;stroke-width:1.5875;stroke-linecap:round;stroke-linejoin:round;stroke-miterlimit:4;stroke-dasharray:none;stroke-opacity:1"
     d="m 2.6458334,12.7 c -0.8794755,0 -1.5875004,0.708025 -1.5875004,1.5875 0,0.879475 0.7080249,1.5875 1.5875004,1.5875 H 14.287501 c 0.879475,0 1.5875,-0.708025 1.5875,-1.5875 0,-0.879475 -0.708025,-1.5875 -1.5875,-1.5875 z m 0,0.529167 H 14.287501 c 0.586316,0 1.058333,0.472017 1.058333,1.058333 0,0.586317 -0.472017,1.058334 -1.058333,1.058334 H 2.6458334 c -0.586317,0 -1.0583337,-0.472017 -1.0583337,-1.058334 0,-0.586316 0.4720167,-1.058333 1.0583337,-1.058333 z" />
  <rect
     style="fill:#74cc49;fill-opacity:1;stroke:none;stroke-width:2.31589;stroke-linecap:round;stroke-linejoin:round;stroke-miterlimit:4;stroke-dasharray:none;stroke-opacity:1"
     id="rect10502"
     width="9.5249996"
     height="0.5291667"
     x="3.7041698"
     y="14.022917"
     ry="0.26458335" />
</svg>
