<?xml version="1.0" encoding="UTF-8" standalone="no"?>
<!-- Created with Inkscape (http://www.inkscape.org/) -->

<svg
   width="64"
   height="64"
   viewBox="0 0 16.933333 16.933334"
   version="1.1"
   id="svg5"
   inkscape:version="1.2 (dc2aedaf03, 2022-05-15)"
   sodipodi:docname="drive-removable-media.svg"
   xmlns:inkscape="http://www.inkscape.org/namespaces/inkscape"
   xmlns:sodipodi="http://sodipodi.sourceforge.net/DTD/sodipodi-0.dtd"
   xmlns="http://www.w3.org/2000/svg"
   xmlns:svg="http://www.w3.org/2000/svg">
  <sodipodi:namedview
     id="namedview7"
     pagecolor="#ffffff"
     bordercolor="#666666"
     borderopacity="1.0"
     inkscape:pageshadow="2"
     inkscape:pageopacity="0.0"
     inkscape:pagecheckerboard="0"
     inkscape:document-units="px"
     showgrid="false"
     units="px"
     height="64px"
     inkscape:zoom="8.8277862"
     inkscape:cx="30.98172"
     inkscape:cy="39.364343"
     inkscape:window-width="1920"
     inkscape:window-height="1011"
     inkscape:window-x="0"
     inkscape:window-y="0"
     inkscape:window-maximized="1"
     inkscape:current-layer="svg5"
     inkscape:showpageshadow="2"
     inkscape:deskcolor="#d1d1d1" />
  <defs
     id="defs2" />
  <path
     style="color:#000000;fill:#bfcdd0;fill-opacity:1;stroke:none;stroke-linecap:round;stroke-linejoin:round;-inkscape-stroke:none"
     d="M 3.1716147,1.3229167 C 2.7661199,1.3230289 2.4258917,1.628729 2.3825522,2.0319011 L 1.0583333,14.201823 H 15.875 L 14.542708,2.0319011 C 14.499369,1.6287292 14.159141,1.3230292 13.753646,1.3229167 Z"
     id="path2077"
     sodipodi:nodetypes="ccccccc" />
  <path
     id="rect846"
     style="fill:#5e5e5e;stroke-width:0.237835;fill-opacity:1"
     d="M 2.6458334,12.7 H 14.2875 c 0.879475,0 1.5875,0.708025 1.5875,1.5875 0,0.879475 -0.708025,1.5875 -1.5875,1.5875 H 2.6458334 c -0.879475,0 -1.5875,-0.708025 -1.5875,-1.5875 0,-0.879475 0.708025,-1.5875 1.5875,-1.5875 z" />
  <path
     id="rect5143"
     style="opacity:0.5;fill:#bfcdd0;fill-opacity:1;stroke:none;stroke-width:1.5875;stroke-linecap:round;stroke-linejoin:round;stroke-miterlimit:4;stroke-dasharray:none;stroke-opacity:1"
     d="m 2.6458334,12.7 c -0.8794755,0 -1.5875004,0.708025 -1.5875004,1.5875 0,0.879475 0.7080249,1.5875 1.5875004,1.5875 H 14.287501 c 0.879475,0 1.5875,-0.708025 1.5875,-1.5875 0,-0.879475 -0.708025,-1.5875 -1.5875,-1.5875 z m 0,0.529167 H 14.287501 c 0.586316,0 1.058333,0.472017 1.058333,1.058333 0,0.586317 -0.472017,1.058334 -1.058333,1.058334 H 2.6458334 c -0.586317,0 -1.0583337,-0.472017 -1.0583337,-1.058334 0,-0.586316 0.4720167,-1.058333 1.0583337,-1.058333 z" />
  <rect
     style="fill:#74cc49;fill-opacity:1;stroke:none;stroke-width:1.09172;stroke-linecap:round;stroke-linejoin:round;stroke-miterlimit:4;stroke-dasharray:none;stroke-opacity:1"
     id="rect10502"
     width="2.1166668"
     height="0.5291667"
     x="12.170834"
     y="14.022917"
     ry="0.26458335" />
</svg>
