<?xml version="1.0" encoding="UTF-8" standalone="no"?>
<!-- Created with Inkscape (http://www.inkscape.org/) -->

<svg
   width="64"
   height="64"
   viewBox="0 0 16.933333 16.933334"
   version="1.1"
   id="svg5"
   inkscape:version="1.2 (dc2aedaf03, 2022-05-15)"
   sodipodi:docname="security-low.svg"
   xmlns:inkscape="http://www.inkscape.org/namespaces/inkscape"
   xmlns:sodipodi="http://sodipodi.sourceforge.net/DTD/sodipodi-0.dtd"
   xmlns="http://www.w3.org/2000/svg"
   xmlns:svg="http://www.w3.org/2000/svg">
  <sodipodi:namedview
     id="namedview7"
     pagecolor="#ffffff"
     bordercolor="#666666"
     borderopacity="1.0"
     inkscape:pageshadow="2"
     inkscape:pageopacity="0.0"
     inkscape:pagecheckerboard="0"
     inkscape:document-units="px"
     showgrid="false"
     units="px"
     height="32px"
     inkscape:zoom="6.171875"
     inkscape:cx="-2.5924051"
     inkscape:cy="31.270886"
     inkscape:window-width="1920"
     inkscape:window-height="1011"
     inkscape:window-x="0"
     inkscape:window-y="0"
     inkscape:window-maximized="1"
     inkscape:current-layer="svg5"
     inkscape:showpageshadow="2"
     inkscape:deskcolor="#d1d1d1" />
  <defs
     id="defs2" />
  <path
     id="rect1090-7"
     style="opacity:0.2;fill:#000000;fill-opacity:1;stroke-width:0.529166"
     d="m 8.4666668,1.3229167 c 0,0 -2.9853709,1.5912798 -5.8208333,1.5875 v 5.2916665 c 0,6.5166878 5.8208333,7.9374998 5.8208333,7.9374998 0,0 5.8208332,-1.420812 5.8208332,-7.9374998 V 2.9104167 c -2.835462,0.00378 -5.8208332,-1.5875 -5.8208332,-1.5875 z" />
  <path
     id="rect1090"
     style="opacity:1;fill:#ec604c;fill-opacity:0.945098;stroke-width:0.529166"
     d="m 8.4666668,1.0583333 c 0,0 -2.985371,1.5912801 -5.8208334,1.5875001 v 5.2916667 c 0,6.5166869 5.8208334,7.9374999 5.8208334,7.9374999 0,0 5.8208332,-1.420813 5.8208332,-7.9374999 V 2.6458334 C 11.452038,2.6496134 8.4666668,1.0583333 8.4666668,1.0583333 Z" />
  <path
     id="rect1090-5"
     style="opacity:0.2;fill:#ffffff;fill-opacity:1;stroke-width:0.529166"
     d="M 8.4666658,1.0583335 V 15.875001 c 0,0 5.8208342,-1.420814 5.8208342,-7.9375006 V 2.6458335 c -2.835464,0.00378 -5.8208342,-1.5875 -5.8208342,-1.5875 z"
     sodipodi:nodetypes="ccscc" />
  <path
     id="rect4191"
     style="opacity:1;fill:#fff8f7;fill-opacity:1;stroke-width:0.529166"
     d="M 6.2218826,11.059318 8.4666668,8.814172 10.712011,11.059318 11.086189,10.68514 8.8408043,8.4400348 11.086189,6.1950111 10.712011,5.8208335 8.4669466,8.065898 6.2218826,5.8208335 5.8477052,6.1950111 8.0925296,8.4400348 5.8477052,10.68514 Z"
     sodipodi:nodetypes="ccccccccccccc" />
  <path
     id="rect4191-9"
     style="opacity:0.2;fill:#000000;fill-opacity:1;stroke-width:0.529166"
     d="M 6.1122884,6.459554 5.8477051,6.7241373 7.8279462,8.7043784 8.0925296,8.4397951 Z m 4.7097906,0 L 8.840804,8.4397951 9.1053874,8.7043784 11.086663,6.7241373 Z M 8.4666668,8.8139323 6.2218423,11.059791 6.1122884,10.950236 5.8477051,11.21482 l 0.3741372,0.374137 2.2448245,-2.245858 2.2458582,2.245858 0.374138,-0.374137 -0.264584,-0.264584 -0.109554,0.109555 z" />
</svg>
