<?xml version="1.0" encoding="UTF-8" standalone="no"?>
<!-- Created with Inkscape (http://www.inkscape.org/) -->

<svg
   width="64"
   height="64"
   viewBox="0 0 16.933333 16.933334"
   version="1.1"
   id="svg5"
   inkscape:version="1.2 (dc2aedaf03, 2022-05-15)"
   sodipodi:docname="security-medium.svg"
   xmlns:inkscape="http://www.inkscape.org/namespaces/inkscape"
   xmlns:sodipodi="http://sodipodi.sourceforge.net/DTD/sodipodi-0.dtd"
   xmlns="http://www.w3.org/2000/svg"
   xmlns:svg="http://www.w3.org/2000/svg">
  <sodipodi:namedview
     id="namedview7"
     pagecolor="#ffffff"
     bordercolor="#666666"
     borderopacity="1.0"
     inkscape:pageshadow="2"
     inkscape:pageopacity="0.0"
     inkscape:pagecheckerboard="0"
     inkscape:document-units="px"
     showgrid="false"
     units="px"
     height="32px"
     inkscape:zoom="6.171875"
     inkscape:cx="4.3746835"
     inkscape:cy="30.298734"
     inkscape:window-width="1920"
     inkscape:window-height="1011"
     inkscape:window-x="0"
     inkscape:window-y="0"
     inkscape:window-maximized="1"
     inkscape:current-layer="svg5"
     inkscape:showpageshadow="2"
     inkscape:deskcolor="#d1d1d1" />
  <defs
     id="defs2" />
  <path
     id="rect1090-7"
     style="opacity:0.2;fill:#000000;fill-opacity:1;stroke-width:0.529166"
     d="m 8.4666668,1.3229167 c 0,0 -2.9853709,1.5912798 -5.8208333,1.5875 v 5.2916665 c 0,6.5166878 5.8208333,7.9374998 5.8208333,7.9374998 0,0 5.8208332,-1.420812 5.8208332,-7.9374998 V 2.9104167 c -2.835462,0.00378 -5.8208332,-1.5875 -5.8208332,-1.5875 z" />
  <path
     id="rect1090"
     style="opacity:1;fill:#ffcc55;fill-opacity:1;stroke-width:0.529166"
     d="m 8.4666668,1.0583333 c 0,0 -2.985371,1.5912801 -5.8208334,1.5875001 v 5.2916667 c 0,6.5166869 5.8208334,7.9374999 5.8208334,7.9374999 0,0 5.8208332,-1.420813 5.8208332,-7.9374999 V 2.6458334 C 11.452038,2.6496134 8.4666668,1.0583333 8.4666668,1.0583333 Z" />
  <path
     id="rect1090-5"
     style="opacity:0.2;fill:#ffffff;fill-opacity:1;stroke-width:0.529166"
     d="M 8.4666658,1.0583335 V 15.875001 c 0,0 5.8208342,-1.420814 5.8208342,-7.9375006 V 2.6458335 c -2.835464,0.00378 -5.8208342,-1.5875 -5.8208342,-1.5875 z"
     sodipodi:nodetypes="ccscc" />
  <path
     d="M 8.0124272,7.2558845 V 4.7625001 H 8.8743373 V 7.2558845 L 8.7717327,9.9442268 H 8.1047774 Z m 0.4309556,4.9149495 q -0.2770444,0 -0.471999,-0.184706 -0.184696,-0.194942 -0.184696,-0.471987 0,-0.266793 0.184696,-0.451484 0.194954,-0.194958 0.471999,-0.194958 0.2667827,0 0.4514769,0.194958 0.194956,0.184692 0.194956,0.451484 0,0.277045 -0.194956,0.471987 -0.184694,0.184706 -0.4514769,0.184706 z"
     style="font-size:30.4709px;line-height:1.25;font-family:'Google Sans';-inkscape-font-specification:'Google Sans';fill:#fffbe7;fill-opacity:1;stroke-width:0.256522"
     id="path13331" />
  <path
     id="rect4191-5"
     style="opacity:0.2;fill:#000000;fill-opacity:1;stroke-width:0.529166"
     d="M 8.0119142,7.2553713 V 7.784538 l 0.093018,2.689241 h 0.6666263 l 0.10232,-2.689241 V 7.2553713 l -0.10232,2.6892415 H 8.1049316 Z m -0.1726,4.5289227 c -0.034706,0.07897 -0.05271,0.165098 -0.05271,0.259416 0,0.184696 0.06187,0.341327 0.185002,0.471289 0.12997,0.123138 0.286593,0.185002 0.4712892,0.185002 0.177856,0 0.3285225,-0.06186 0.4516523,-0.185002 0.12997,-0.129962 0.195336,-0.286594 0.195336,-0.471289 0,-0.09391 -0.01844,-0.179688 -0.054776,-0.258383 -0.032454,0.07278 -0.079636,0.139586 -0.14056,0.200505 -0.12313,0.123138 -0.2737963,0.185002 -0.4516523,0.185002 -0.184696,0 -0.341319,-0.06186 -0.4712892,-0.185002 -0.05795,-0.06116 -0.101544,-0.128414 -0.132292,-0.201538 z" />
</svg>
