<?xml version="1.0" encoding="UTF-8" standalone="no"?>
<!-- Created with Inkscape (http://www.inkscape.org/) -->

<svg
   width="32"
   height="32"
   viewBox="0 0 8.4666665 8.466667"
   version="1.1"
   id="svg5"
   inkscape:version="1.2 (dc2aedaf03, 2022-05-15)"
   sodipodi:docname="drive-removable-media.svg"
   xmlns:inkscape="http://www.inkscape.org/namespaces/inkscape"
   xmlns:sodipodi="http://sodipodi.sourceforge.net/DTD/sodipodi-0.dtd"
   xmlns="http://www.w3.org/2000/svg"
   xmlns:svg="http://www.w3.org/2000/svg">
  <sodipodi:namedview
     id="namedview7"
     pagecolor="#ffffff"
     bordercolor="#666666"
     borderopacity="1.0"
     inkscape:pageshadow="2"
     inkscape:pageopacity="0.0"
     inkscape:pagecheckerboard="0"
     inkscape:document-units="px"
     showgrid="false"
     units="px"
     height="64px"
     inkscape:zoom="27.0625"
     inkscape:cx="15.981524"
     inkscape:cy="16"
     inkscape:window-width="1920"
     inkscape:window-height="1024"
     inkscape:window-x="0"
     inkscape:window-y="32"
     inkscape:window-maximized="1"
     inkscape:current-layer="svg5"
     inkscape:showpageshadow="2"
     inkscape:deskcolor="#d1d1d1" />
  <defs
     id="defs2" />
  <path
     style="color:#000000;fill:#bfcdd0;fill-opacity:1;stroke:none;stroke-width:0.5;stroke-linecap:round;stroke-linejoin:round"
     d="m 1.5858075,0.52916667 c -0.2027474,5.61e-5 -0.3728615,0.1529061 -0.3945313,0.3544922 L 0.52916677,7.2098959 H 7.9374996 L 7.2713537,0.88365887 c -0.021669,-0.201586 -0.1917835,-0.354436 -0.394531,-0.3544922 z"
     id="path2077"
     sodipodi:nodetypes="ccccccc" />
  <path
     id="rect846"
     style="fill:#5e5e5e;fill-opacity:1;stroke-width:0.138737"
     d="m 1.4552085,6.3500001 h 5.5562499 c 0.513027,0 0.9260417,0.4130146 0.9260417,0.9260416 0,0.5130271 -0.4130147,0.9260418 -0.9260417,0.9260418 H 1.4552085 c -0.51302702,0 -0.92604163,-0.4130147 -0.92604163,-0.9260418 0,-0.513027 0.41301461,-0.9260416 0.92604163,-0.9260416 z"
     sodipodi:nodetypes="sssssss" />
  <path
     id="rect5143"
     style="opacity:0.5;fill:#bfcdd0;fill-opacity:1;stroke:none;stroke-width:0.926042;stroke-linecap:round;stroke-linejoin:round;stroke-miterlimit:4;stroke-dasharray:none;stroke-opacity:1"
     d="M 1.4552083 6.3500001 C 0.94218143 6.3500001 0.52916667 6.7630153 0.52916667 7.2760417 C 0.52916667 7.7890683 0.94218143 8.2020834 1.4552083 8.2020834 L 7.0114584 8.2020834 C 7.5244849 8.2020834 7.9375001 7.7890683 7.9375001 7.2760417 C 7.9375001 6.7630153 7.5244849 6.3500001 7.0114584 6.3500001 L 1.4552083 6.3500001 z M 1.4552083 6.6145834 L 7.0114584 6.6145834 C 7.3779059 6.6145834 7.6729167 6.9095942 7.6729167 7.2760417 C 7.6729167 7.6424894 7.3779059 7.9375001 7.0114584 7.9375001 L 1.4552083 7.9375001 C 1.0887606 7.9375001 0.79375001 7.6424894 0.79375001 7.2760417 C 0.79375001 6.9095943 1.0887606 6.6145834 1.4552083 6.6145834 z " />
  <rect
     style="fill:#74cc49;fill-opacity:1;stroke:none;stroke-width:0.54586;stroke-linecap:round;stroke-linejoin:round;stroke-miterlimit:4;stroke-dasharray:none;stroke-opacity:1"
     id="rect10502"
     width="1.0583334"
     height="0.26458335"
     x="6.0854168"
     y="7.1437502"
     ry="0.13229167" />
</svg>
