<?xml version="1.0" encoding="UTF-8" standalone="no"?>
<!-- Created with Inkscape (http://www.inkscape.org/) -->

<svg
   width="16"
   height="16"
   viewBox="0 0 4.2333332 4.2333335"
   version="1.1"
   id="svg5"
   inkscape:version="1.1.2 (0a00cf5339, 2022-02-04, custom)"
   sodipodi:docname="battery-full-charging-symbolic.svg"
   xmlns:inkscape="http://www.inkscape.org/namespaces/inkscape"
   xmlns:sodipodi="http://sodipodi.sourceforge.net/DTD/sodipodi-0.dtd"
   xmlns="http://www.w3.org/2000/svg"
   xmlns:svg="http://www.w3.org/2000/svg">
  <sodipodi:namedview
     id="namedview7"
     pagecolor="#ffffff"
     bordercolor="#666666"
     borderopacity="1.0"
     inkscape:pageshadow="2"
     inkscape:pageopacity="0.0"
     inkscape:pagecheckerboard="0"
     inkscape:document-units="px"
     showgrid="false"
     units="px"
     height="16px"
     inkscape:zoom="49"
     inkscape:cx="8"
     inkscape:cy="8"
     inkscape:window-width="1920"
     inkscape:window-height="1011"
     inkscape:window-x="0"
     inkscape:window-y="0"
     inkscape:window-maximized="1"
     inkscape:current-layer="svg5" />
  <defs
     id="defs2" />
  <path
     id="rect846"
     style="fill:#dedede;stroke-width:3;stroke-linejoin:round"
     d="M 6.9746094,0 C 6.4342534,0.01369014 6,0.45634479 6,1 H 5 C 3.8919998,1 3,1.892 3,3 v 10 c 0,1.108 0.8919998,2 2,2 h 6 c 1.108,0 2,-0.892 2,-2 V 3 C 13,1.892 12.108,1 11,1 H 10 C 10,0.44771534 9.5522846,1.2524249e-7 9,0 H 7 c -0.00863,0 -0.016813,-2.1730383e-4 -0.025391,0 z M 5,2 h 6 c 0.554,0 1,0.4460001 1,1 v 10 c 0,0.554 -0.446,1 -1,1 H 5 C 4.4459999,14 4,13.554 4,13 V 3 C 4,2.4460001 4.4459999,2 5,2 Z"
     transform="scale(0.26458333)"
     sodipodi:nodetypes="scsssssssscssssssssssss" />
  <path
     id="rect953"
     class="success"
     style="fill:#33d17a;fill-opacity:1;stroke-width:3;stroke-linejoin:round"
     d="M 5,3 V 7.0000001 L 7.7929688,3 Z M 10,3 9.6328125,6.0019531 H 11 V 3 Z M 7.484375,7.078125 6.8652344,8.0019531 h 0.5019531 z m 1.1445312,0.9238281 -0.109375,0.921875 0.6113282,-0.921875 z M 11,9.0000001 8.2011719,13 H 11 Z M 5,10.001953 V 13 h 1.0000001 l 0.3710937,-2.998047 z"
     transform="scale(0.26458333)"
     sodipodi:nodetypes="cccccccccccccccccccccccccc" />
  <path
     style="color:#000000;fill:#dedede;stroke-width:0.529167;-inkscape-stroke:none"
     d="M 1.3229375,2.3811427 2.381271,0.79364272 2.2489794,1.8519761 h 0.6614583 l -1.0583334,1.5875 0.1322917,-1.0583334 z"
     id="path1537" />
</svg>
