<?xml version="1.0" encoding="UTF-8" standalone="no"?>
<!-- Created with Inkscape (http://www.inkscape.org/) -->

<svg
   width="16"
   height="16"
   viewBox="0 0 4.2333332 4.2333335"
   version="1.1"
   id="svg5"
   inkscape:version="1.1.2 (0a00cf5339, 2022-02-04, custom)"
   sodipodi:docname="battery-level-90-charging-symbolic.svg"
   xmlns:inkscape="http://www.inkscape.org/namespaces/inkscape"
   xmlns:sodipodi="http://sodipodi.sourceforge.net/DTD/sodipodi-0.dtd"
   xmlns="http://www.w3.org/2000/svg"
   xmlns:svg="http://www.w3.org/2000/svg">
  <sodipodi:namedview
     id="namedview7"
     pagecolor="#ffffff"
     bordercolor="#666666"
     borderopacity="1.0"
     inkscape:pageshadow="2"
     inkscape:pageopacity="0.0"
     inkscape:pagecheckerboard="0"
     inkscape:document-units="px"
     showgrid="false"
     units="px"
     height="16px"
     inkscape:zoom="49"
     inkscape:cx="8"
     inkscape:cy="8.0102041"
     inkscape:window-width="1920"
     inkscape:window-height="1011"
     inkscape:window-x="0"
     inkscape:window-y="0"
     inkscape:window-maximized="1"
     inkscape:current-layer="svg5" />
  <defs
     id="defs2" />
  <path
     id="rect846"
     style="fill:#dedede;stroke-width:3;stroke-linejoin:round"
     d="M 6.9746094,0 C 6.4342534,0.01369014 6,0.45634479 6,1 H 5 C 3.8919998,1 3,1.892 3,3 v 10 c 0,1.108 0.8919998,2 2,2 h 6 c 1.108,0 2,-0.892 2,-2 V 3 C 13,1.892 12.108,1 11,1 H 10 C 10,0.44771534 9.5522846,1.2524249e-7 9,0 H 7 c -0.00863,0 -0.016813,-2.1730383e-4 -0.025391,0 z M 5,2 h 6 c 0.554,0 1,0.4460001 1,1 v 10 c 0,0.554 -0.446,1 -1,1 H 5 C 4.4459999,14 4,13.554 4,13 V 3 C 4,2.4460001 4.4459999,2 5,2 Z"
     transform="scale(0.26458333)"
     sodipodi:nodetypes="scsssssssscssssssssssss" />
  <path
     id="rect953"
     style="fill:#33d17a;fill-opacity:1;stroke-width:3;stroke-linejoin:round"
     class="success"
     d="M 5 4 L 5 7 L 7.09375 4 L 5 4 z M 9.8769531 4 L 9.6328125 6.0019531 L 11 6.0019531 L 11 4 L 9.8769531 4 z M 7.484375 7.078125 L 6.8652344 8.0019531 L 7.3671875 8.0019531 L 7.484375 7.078125 z M 8.6289062 8.0019531 L 8.5195312 8.9238281 L 9.1308594 8.0019531 L 8.6289062 8.0019531 z M 11 9 L 8.2011719 13 L 11 13 L 11 9 z M 5 10.001953 L 5 13 L 6 13 L 6.3710938 10.001953 L 5 10.001953 z "
     transform="scale(0.26458333)" />
  <path
     style="color:#000000;fill:#dedede;stroke-width:0.529167;-inkscape-stroke:none"
     d="M 1.3229375,2.3811427 2.381271,0.79364272 2.2489794,1.8519761 h 0.6614583 l -1.0583334,1.5875 0.1322917,-1.0583334 z"
     id="path1537" />
</svg>
