<?xml version="1.0" encoding="UTF-8" standalone="no"?>
<!-- Created with Inkscape (http://www.inkscape.org/) -->

<svg
   width="16"
   height="16"
   viewBox="0 0 4.2333332 4.2333335"
   version="1.1"
   id="svg5"
   inkscape:version="1.1.2 (0a00cf5339, 2022-02-04, custom)"
   sodipodi:docname="network-cellular-secure-signal-good-symbolic.svg"
   xmlns:inkscape="http://www.inkscape.org/namespaces/inkscape"
   xmlns:sodipodi="http://sodipodi.sourceforge.net/DTD/sodipodi-0.dtd"
   xmlns="http://www.w3.org/2000/svg"
   xmlns:svg="http://www.w3.org/2000/svg">
  <sodipodi:namedview
     id="namedview7"
     pagecolor="#ffffff"
     bordercolor="#666666"
     borderopacity="1.0"
     inkscape:pageshadow="2"
     inkscape:pageopacity="0.0"
     inkscape:pagecheckerboard="0"
     inkscape:document-units="px"
     showgrid="false"
     units="px"
     height="16px"
     inkscape:zoom="49"
     inkscape:cx="8"
     inkscape:cy="12.897959"
     inkscape:window-width="1920"
     inkscape:window-height="1011"
     inkscape:window-x="0"
     inkscape:window-y="0"
     inkscape:window-maximized="1"
     inkscape:current-layer="svg5" />
  <defs
     id="defs2" />
  <path
     id="rect843"
     style="opacity:0.15;fill:#dedede;stroke-width:3;stroke-linejoin:round"
     d="m 14,1 c -0.554,0 -1,0.446 -1,1 v 6 c 0.737898,-7.15e-5 1.449939,0.2718114 2,0.7636719 V 2 C 15,1.446 14.554,1 14,1 Z"
     transform="scale(0.26458333)"
     sodipodi:nodetypes="ssccss" />
  <path
     id="rect845"
     style="fill:#dedede;stroke-width:3;stroke-linejoin:round"
     d="M 10 4 C 9.4460003 4 9 4.4460003 9 5 L 9 11 L 10 11 A 2.9999999 2.9999999 0 0 1 11 8.765625 L 11 5 C 11 4.4460003 10.554 4 10 4 z M 6 8 C 5.4460003 8 5 8.4460003 5 9 L 5 14 C 5 14.554 5.4460003 15 6 15 C 6.5540001 15 7 14.554 7 14 L 7 9 C 7 8.4460003 6.5540001 8 6 8 z M 12.947266 9 C 11.863385 9.0278252 11 9.9277653 11 11.03125 L 11 12 L 10 12 L 10 16 L 16 16 L 16 12 L 15 12 L 15 11.03125 C 15 9.9112498 14.107999 9 13 9 C 12.982688 9 12.96447 8.9995583 12.947266 9 z M 13 10 C 13.553999 10 14 10.442 14 11 L 14 12 L 12 12 L 12 11 C 12 10.442 12.446 10 13 10 z M 1.9746094 12 C 1.4326694 12.013639 1 12.454657 1 13 L 1 14 C 1 14.554 1.4460003 15 2 15 C 2.5540001 15 3 14.554 3 14 L 3 13 C 3 12.446 2.5540001 12 2 12 C 1.9913438 12 1.9832116 11.999784 1.9746094 12 z "
     transform="scale(0.26458333)" />
</svg>
