<?xml version="1.0" encoding="UTF-8" standalone="no"?>
<!-- Created with Inkscape (http://www.inkscape.org/) -->

<svg
   width="16"
   height="16"
   viewBox="0 0 4.2333332 4.2333335"
   version="1.1"
   id="svg5"
   inkscape:version="1.2 (dc2aedaf03, 2022-05-15)"
   sodipodi:docname="network-cellular-secure-signal-low-symbolic.svg"
   xmlns:inkscape="http://www.inkscape.org/namespaces/inkscape"
   xmlns:sodipodi="http://sodipodi.sourceforge.net/DTD/sodipodi-0.dtd"
   xmlns="http://www.w3.org/2000/svg"
   xmlns:svg="http://www.w3.org/2000/svg">
  <sodipodi:namedview
     id="namedview7"
     pagecolor="#ffffff"
     bordercolor="#666666"
     borderopacity="1.0"
     inkscape:pageshadow="2"
     inkscape:pageopacity="0.0"
     inkscape:pagecheckerboard="0"
     inkscape:document-units="px"
     showgrid="false"
     units="px"
     height="16px"
     inkscape:zoom="49"
     inkscape:cx="8.0306122"
     inkscape:cy="8.0306122"
     inkscape:window-width="1920"
     inkscape:window-height="1011"
     inkscape:window-x="0"
     inkscape:window-y="0"
     inkscape:window-maximized="1"
     inkscape:current-layer="svg5"
     inkscape:showpageshadow="2"
     inkscape:deskcolor="#d1d1d1" />
  <defs
     id="defs2" />
  <path
     id="rect843"
     style="opacity:0.15;fill:#dedede;stroke-width:3;stroke-linejoin:round"
     d="M 14 1 C 13.446002 1 13 1.4460012 13 2 L 13 8.0000001 C 13.737896 7.9999286 14.449941 8.2718125 15 8.763672 L 15 2 C 15 1.4460012 14.554 1 14 1 z M 10 4.0000001 C 9.4460017 4.0000001 9.0000001 4.4460014 9.0000001 5.0000001 L 9.0000001 11 L 10 11 C 10.000482 10.146905 10.364141 9.3343557 11 8.7656251 L 11 5.0000001 C 11 4.4460014 10.554 4.0000001 10 4.0000001 z M 6.0000001 8.0000001 C 5.4460005 8.0000001 5.0000001 8.4460009 5.0000001 9.0000001 L 5.0000001 14 C 5.0000001 14.553999 5.4460009 15 6.0000001 15 C 6.5539993 15 7.0000001 14.553999 7.0000001 14 L 7.0000001 9.0000001 C 7.0000001 8.4460009 6.5539993 8.0000001 6.0000001 8.0000001 z "
     transform="scale(0.26458333)" />
  <path
     id="rect845"
     style="fill:#dedede;stroke-width:3;stroke-linejoin:round"
     d="M 12.947266,9 C 11.863385,9.0278252 11,9.9277653 11,11.03125 V 12 h -1 v 4 h 6 V 12 H 15 V 11.03125 C 15,9.9112498 14.107999,9 13,9 12.982688,9 12.96447,8.9995583 12.947266,9 Z M 13,10 c 0.553999,0 1,0.442 1,1 v 1 h -2 v -1 c 0,-0.558 0.446,-1 1,-1 z M 1.9746094,12 C 1.4326694,12.013639 1,12.454657 1,13 v 1 c 0,0.554 0.4460003,1 1,1 0.5540001,0 1,-0.446 1,-1 V 13 C 3,12.446 2.5540001,12 2,12 1.99134,12 1.983212,11.999784 1.9746094,12 Z"
     transform="scale(0.26458333)"
     sodipodi:nodetypes="ssccccccsssssccsscssssssc" />
</svg>
