<?xml version="1.0" encoding="UTF-8" standalone="no"?>
<!-- Created with Inkscape (http://www.inkscape.org/) -->

<svg
   width="16"
   height="16"
   viewBox="0 0 4.2333332 4.2333335"
   version="1.1"
   id="svg5"
   inkscape:version="1.1.2 (0a00cf5339, 2022-02-04, custom)"
   sodipodi:docname="network-cellular-signal-low-symbolic.svg"
   xmlns:inkscape="http://www.inkscape.org/namespaces/inkscape"
   xmlns:sodipodi="http://sodipodi.sourceforge.net/DTD/sodipodi-0.dtd"
   xmlns="http://www.w3.org/2000/svg"
   xmlns:svg="http://www.w3.org/2000/svg">
  <sodipodi:namedview
     id="namedview7"
     pagecolor="#ffffff"
     bordercolor="#666666"
     borderopacity="1.0"
     inkscape:pageshadow="2"
     inkscape:pageopacity="0.0"
     inkscape:pagecheckerboard="0"
     inkscape:document-units="px"
     showgrid="false"
     units="px"
     height="16px"
     inkscape:zoom="8.6620581"
     inkscape:cx="-1.6162441"
     inkscape:cy="-4.8487322"
     inkscape:window-width="1920"
     inkscape:window-height="1011"
     inkscape:window-x="0"
     inkscape:window-y="0"
     inkscape:window-maximized="1"
     inkscape:current-layer="svg5" />
  <defs
     id="defs2" />
  <path
     id="rect843"
     style="fill:#dedede;display:inline;opacity:0.15;stroke-width:3;stroke-linejoin:round"
     d="M 14 1 C 13.446 1 13 1.446 13 2 L 13 14 C 13 14.554 13.446 15 14 15 C 14.554 15 15 14.554 15 14 L 15 2 C 15 1.446 14.554 1 14 1 z M 10 4 C 9.4460003 4 9 4.4460003 9 5 L 9 14 C 9 14.554 9.4460003 15 10 15 C 10.554 15 11 14.554 11 14 L 11 5 C 11 4.4460003 10.554 4 10 4 z M 6 8 C 5.4460003 8 5 8.4460003 5 9 L 5 14 C 5 14.554 5.4460003 15 6 15 C 6.5540001 15 7 14.554 7 14 L 7 9 C 7 8.4460003 6.5540001 8 6 8 z "
     transform="scale(0.26458333)" />
  <path
     id="rect1133"
     style="fill:#dedede;stroke-width:0.79375;stroke-linejoin:round"
     d="m 0.52916663,3.175 c 0.1465792,0 0.26458343,0.1180042 0.26458343,0.2645833 v 0.2645835 c 0,0.1465791 -0.11800423,0.2645833 -0.26458343,0.2645833 -0.1465791,0 -0.2645833,-0.1180042 -0.2645833,-0.2645833 V 3.4395833 c 0,-0.1465791 0.1180042,-0.2645833 0.2645833,-0.2645833 z"
     sodipodi:nodetypes="sssssss" />
</svg>
