<?xml version="1.0" encoding="UTF-8" standalone="no"?>
<!-- Created with Inkscape (http://www.inkscape.org/) -->

<svg
   width="32"
   height="32"
   viewBox="0 0 8.4666665 8.4666669"
   version="1.1"
   id="svg3354"
   inkscape:version="1.1.2 (0a00cf5339, 2022-02-04, custom)"
   sodipodi:docname="dialog-warning.svg"
   xmlns:inkscape="http://www.inkscape.org/namespaces/inkscape"
   xmlns:sodipodi="http://sodipodi.sourceforge.net/DTD/sodipodi-0.dtd"
   xmlns="http://www.w3.org/2000/svg"
   xmlns:svg="http://www.w3.org/2000/svg">
  <sodipodi:namedview
     id="namedview3356"
     pagecolor="#ffffff"
     bordercolor="#666666"
     borderopacity="1.0"
     inkscape:pageshadow="2"
     inkscape:pageopacity="0.0"
     inkscape:pagecheckerboard="0"
     inkscape:document-units="px"
     showgrid="false"
     units="px"
     inkscape:zoom="24.65625"
     inkscape:cx="15.979721"
     inkscape:cy="16"
     inkscape:window-width="1920"
     inkscape:window-height="1011"
     inkscape:window-x="0"
     inkscape:window-y="0"
     inkscape:window-maximized="1"
     inkscape:current-layer="svg3354" />
  <defs
     id="defs3351" />
  <path
     style="color:#000000;fill:#000000;fill-opacity:1;stroke-width:0.264583;stroke-linejoin:round;-inkscape-stroke:none;opacity:0.2"
     d="m 4.2344125,1.0583333 c -0.289519,2e-5 -0.556068,0.15765 -0.695565,0.41134 l -2.910417,5.29167 c -0.290714,0.52899 0.09195,1.17606 0.695565,1.17616 h 5.8208327 c 0.603613,-1e-4 0.986279,-0.64717 0.695565,-1.17616 l -2.9104167,-5.29167 c -0.139496,-0.25369 -0.406046,-0.41132 -0.695564,-0.41134 z"
     id="path1436-7"
     sodipodi:nodetypes="cccccccc" />
  <path
     style="color:#000000;fill:#efd05f;fill-opacity:1;stroke-width:0.264583;stroke-linejoin:round;-inkscape-stroke:none"
     d="m 4.2344125,0.79375 c -0.289519,2e-5 -0.556068,0.15765 -0.695565,0.41134 l -2.910417,5.29167 c -0.290714,0.52899 0.09195,1.17606 0.695565,1.17616 h 5.820833 c 0.603613,-1e-4 0.986279,-0.64717 0.695565,-1.17616 L 4.9299765,1.20509 C 4.7904805,0.9514 4.5239305,0.79377 4.2344125,0.79375 Z"
     id="path1436"
     sodipodi:nodetypes="cccccccc" />
  <path
     id="path4099"
     style="color:#000000;opacity:0.2;fill:#ffffff;fill-opacity:1;stroke-width:0.264583;stroke-linejoin:round;-inkscape-stroke:none"
     d="M 16.003906 3 C 14.909661 3.0000756 13.902232 3.5958592 13.375 4.5546875 L 2.375 24.554688 C 2.0277067 25.186631 1.9357334 25.86238 2.0429688 26.492188 C 2.0981199 26.176183 2.2071187 25.860168 2.375 25.554688 L 13.375 5.5546875 C 13.902232 4.5958592 14.909661 4.0000756 16.003906 4 C 17.098147 4.0000756 18.105584 4.5958592 18.632812 5.5546875 L 29.632812 25.554688 C 29.800694 25.860168 29.909693 26.176183 29.964844 26.492188 C 30.07208 25.86238 29.980106 25.186631 29.632812 24.554688 L 18.632812 4.5546875 C 18.105584 3.5958592 17.098147 3.0000756 16.003906 3 z "
     transform="scale(0.26458333)" />
  <path
     d="M 3.9165095,3.71956 V 2.11667 h 0.554085 v 1.60289 l -0.06596,1.72822 h -0.428757 z m 0.277043,3.15961 q -0.1781,0 -0.303428,-0.11874 -0.118733,-0.12532 -0.118733,-0.30342 0,-0.17151 0.118733,-0.29024 0.125328,-0.12533 0.303428,-0.12533 0.171503,0 0.290235,0.12533 0.125329,0.11873 0.125329,0.29024 0,0.1781 -0.125329,0.30342 -0.118732,0.11874 -0.290235,0.11874 z"
     style="font-size:30.4709px;line-height:1.25;font-family:'Google Sans';-inkscape-font-specification:'Google Sans';fill:#4d4d4d;fill-opacity:1;stroke-width:0.164907"
     id="path13331" />
</svg>
