<?xml version="1.0" encoding="UTF-8" standalone="no"?>
<!-- Created with Inkscape (http://www.inkscape.org/) -->

<svg
   width="32"
   height="32"
   viewBox="0 0 8.4666665 8.466667"
   version="1.1"
   id="svg5"
   inkscape:version="1.2 (dc2aedaf03, 2022-05-15)"
   sodipodi:docname="image-missing.svg"
   xmlns:inkscape="http://www.inkscape.org/namespaces/inkscape"
   xmlns:sodipodi="http://sodipodi.sourceforge.net/DTD/sodipodi-0.dtd"
   xmlns="http://www.w3.org/2000/svg"
   xmlns:svg="http://www.w3.org/2000/svg">
  <sodipodi:namedview
     id="namedview7"
     pagecolor="#ffffff"
     bordercolor="#666666"
     borderopacity="1.0"
     inkscape:pageshadow="2"
     inkscape:pageopacity="0.0"
     inkscape:pagecheckerboard="0"
     inkscape:document-units="px"
     showgrid="false"
     units="px"
     height="64px"
     inkscape:zoom="27.0625"
     inkscape:cx="16.018476"
     inkscape:cy="16"
     inkscape:window-width="1920"
     inkscape:window-height="1024"
     inkscape:window-x="0"
     inkscape:window-y="32"
     inkscape:window-maximized="1"
     inkscape:current-layer="svg5"
     inkscape:showpageshadow="2"
     inkscape:deskcolor="#d1d1d1" />
  <defs
     id="defs2" />
  <path
     id="rect2621"
     style="opacity:1;fill:#949494;fill-opacity:1;stroke-width:1.19062;stroke-linecap:round;stroke-linejoin:round"
     d="m 0.79374991,1.0583333 c -0.29315837,0 -0.52916657,0.2360083 -0.52916657,0.5291667 v 5.2916667 c 0,0.2931585 0.2360082,0.5291667 0.52916657,0.5291667 H 7.6729167 c 0.2931585,0 0.5291667,-0.2360082 0.5291667,-0.5291667 V 1.5875 c 0,-0.2931584 -0.2360082,-0.5291667 -0.5291667,-0.5291667 z"
     sodipodi:nodetypes="sssssssss" />
  <path
     d="m 3.8167401,5.0944835 c 0,-0.1912074 0.03633,-0.3499095 0.1089875,-0.4761064 0.072659,-0.1261968 0.2026802,-0.2772506 0.3900639,-0.4531615 0.152966,-0.1376694 0.2619541,-0.254306 0.3269645,-0.3499097 0.068835,-0.099428 0.1032523,-0.2179764 0.1032523,-0.355646 0,-0.183559 -0.059275,-0.3307888 -0.1778231,-0.4416892 C 4.4496365,2.9032463 4.285198,2.845884 4.0748698,2.845884 3.8836621,2.845884 3.7306962,2.901335 3.615972,3.0122345 3.505072,3.1193108 3.4209408,3.253156 3.3635784,3.4137703 L 2.9104166,3.2244748 c 0.084131,-0.2218006 0.2218003,-0.4168323 0.413008,-0.5850949 0.1912077,-0.1720867 0.4397774,-0.25813 0.7457093,-0.25813 0.2294489,0 0.4321288,0.047802 0.6080398,0.1434055 0.1797348,0.09178 0.317404,0.2198888 0.4130079,0.3843271 0.099427,0.1644384 0.1491413,0.3479975 0.1491413,0.5506774 0,0.2103283 -0.053538,0.3900634 -0.1606139,0.5392052 C 4.9754569,4.1441828 4.8416118,4.2914125 4.6771737,4.4405544 4.5509764,4.5552789 4.4591965,4.6642671 4.4018342,4.7675192 4.3444712,4.8707708 4.3157897,4.9912313 4.3157897,5.1289006 V 5.3698219 H 3.8167384 Z m 0.2466578,1.5200998 c -0.099428,0 -0.1854718,-0.034417 -0.2581306,-0.1032523 C 3.7364333,6.438672 3.7020161,6.3507168 3.7020161,6.2474649 c 0,-0.099428 0.034417,-0.1835593 0.1032512,-0.2523941 0.072659,-0.072658 0.1587024,-0.1089878 0.2581306,-0.1089878 0.1032512,0 0.1892947,0.03633 0.2581296,0.1089878 0.072659,0.068835 0.1089885,0.1529661 0.1089885,0.2523941 0,0.1032522 -0.03633,0.1912073 -0.1089885,0.2638661 -0.068835,0.068835 -0.1548781,0.1032523 -0.2581296,0.1032523 z"
     style="font-size:7.8202px;line-height:1.25;font-family:'Google Sans';-inkscape-font-specification:'Google Sans';opacity:0.2;fill:#000000;fill-opacity:1;stroke-width:0.143405"
     id="path1469" />
  <path
     id="rect944"
     style="opacity:0.2;fill:#000000;stroke-width:0.132291"
     d="m 0.26458344,6.6145814 v 0.264585 c 0,0.293158 0.2360082,0.529167 0.52916647,0.529167 H 7.6729166 c 0.2931585,0 0.5291669,-0.236009 0.5291669,-0.529167 v -0.264585 c 0,0.293158 -0.2360084,0.529167 -0.5291669,0.529167 H 0.79374991 c -0.29315827,0 -0.52916647,-0.236009 -0.52916647,-0.529167 z"
     sodipodi:nodetypes="csssscssc" />
  <path
     id="rect1172"
     style="opacity:0.2;fill:#ffffff;stroke-width:0.132291"
     d="m 0.79375011,1.0583335 c -0.29315827,0 -0.52916647,0.2360083 -0.52916647,0.5291665 v 0.2645832 c 0,-0.2931583 0.2360082,-0.5291666 0.52916647,-0.5291666 H 7.6729168 c 0.2931585,0 0.5291669,0.2360083 0.5291669,0.5291666 V 1.5875 c 0,-0.2931582 -0.2360084,-0.5291665 -0.5291669,-0.5291665 z"
     sodipodi:nodetypes="sscsscsss" />
  <path
     d="m 3.8167401,4.8299001 c 0,-0.1912073 0.03633,-0.3499094 0.1089875,-0.4761063 C 3.9983866,4.227597 4.128408,4.0765432 4.3157917,3.9006323 4.4687575,3.7629628 4.5777457,3.6463263 4.6427561,3.5507226 c 0.068835,-0.099428 0.1032523,-0.2179765 0.1032523,-0.355646 0,-0.1835591 -0.059275,-0.3307888 -0.177823,-0.4416891 C 4.4496366,2.638663 4.2851981,2.5813007 4.0748698,2.5813007 c -0.1912076,0 -0.3441736,0.055451 -0.4588978,0.1663505 C 3.505072,2.8547274 3.4209408,2.9885727 3.3635784,3.149187 L 2.9104166,2.9598916 c 0.084131,-0.2218007 0.2218003,-0.4168324 0.413008,-0.585095 0.1912077,-0.1720867 0.4397775,-0.25813 0.7457093,-0.25813 0.2294489,0 0.4321289,0.047802 0.6080399,0.1434055 0.1797348,0.091779 0.3174041,0.2198888 0.4130079,0.3843271 0.099427,0.1644384 0.1491414,0.3479975 0.1491414,0.5506774 0,0.2103283 -0.053538,0.3900633 -0.1606139,0.5392052 C 4.975457,3.8795994 4.8416119,4.0268292 4.6771738,4.175971 4.5509765,4.2906955 4.4591967,4.3996838 4.4018343,4.5029359 4.3444713,4.6061876 4.3157898,4.7266481 4.3157898,4.8643173 V 5.1052386 H 3.8167384 Z M 4.0633979,6.35 C 3.9639699,6.35 3.8779262,6.315583 3.8052673,6.2467477 3.7364333,6.1740887 3.7020161,6.0861335 3.7020161,5.9828816 c 0,-0.099428 0.034417,-0.1835593 0.1032512,-0.2523942 0.072659,-0.072658 0.1587025,-0.1089877 0.2581306,-0.1089877 0.1032512,0 0.1892949,0.03633 0.2581298,0.1089877 0.072659,0.068835 0.1089884,0.1529662 0.1089884,0.2523942 0,0.1032522 -0.03633,0.1912072 -0.1089884,0.2638661 C 4.2526927,6.3155827 4.1666496,6.35 4.0633979,6.35 Z"
     style="font-size:7.8202px;line-height:1.25;font-family:'Google Sans';-inkscape-font-specification:'Google Sans';fill:#f9f9f9;fill-opacity:1;stroke-width:0.143405"
     id="path14687"
     sodipodi:nodetypes="csccscsccccsccsccsscccscssscsss" />
</svg>
