<?xml version="1.0" encoding="UTF-8" standalone="no"?>
<!-- Created with Inkscape (http://www.inkscape.org/) -->

<svg
   width="32"
   height="32"
   viewBox="0 0 8.4666665 8.4666669"
   version="1.1"
   id="svg5"
   inkscape:version="1.2 (dc2aedaf03, 2022-05-15)"
   sodipodi:docname="security-high.svg"
   xmlns:inkscape="http://www.inkscape.org/namespaces/inkscape"
   xmlns:sodipodi="http://sodipodi.sourceforge.net/DTD/sodipodi-0.dtd"
   xmlns="http://www.w3.org/2000/svg"
   xmlns:svg="http://www.w3.org/2000/svg">
  <sodipodi:namedview
     id="namedview7"
     pagecolor="#ffffff"
     bordercolor="#666666"
     borderopacity="1.0"
     inkscape:pageshadow="2"
     inkscape:pageopacity="0.0"
     inkscape:pagecheckerboard="0"
     inkscape:document-units="px"
     showgrid="false"
     units="px"
     height="32px"
     inkscape:zoom="27.241381"
     inkscape:cx="16.005062"
     inkscape:cy="16.482277"
     inkscape:window-width="1920"
     inkscape:window-height="1011"
     inkscape:window-x="0"
     inkscape:window-y="0"
     inkscape:window-maximized="1"
     inkscape:current-layer="svg5"
     inkscape:showpageshadow="2"
     inkscape:deskcolor="#d1d1d1" />
  <defs
     id="defs2" />
  <path
     id="rect1090-7"
     style="fill:#000000;fill-opacity:1;stroke-width:0.264583;opacity:0.2"
     d="m 4.2333333,0.79375 c 0,0 -1.4926854,0.7956399 -2.9104166,0.79375 v 2.6458332 c 0,3.2583435 2.9104166,3.9687496 2.9104166,3.9687496 0,0 2.9104167,-0.7104061 2.9104167,-3.9687496 V 1.5875 C 5.7260188,1.58939 4.2333333,0.79375 4.2333333,0.79375 Z" />
  <path
     id="rect1090"
     style="opacity:1;fill:#78dd60;fill-opacity:1;stroke-width:0.999999"
     d="M 16 2 C 16 2 10.358354 5.0071433 5 5 L 5 15 C 5 27.314999 16 30 16 30 C 16 30 27 27.314999 27 15 L 27 5 C 21.641646 5.0071433 16 2 16 2 z "
     transform="scale(0.26458333)" />
  <path
     id="rect1090-5"
     style="fill:#ffffff;fill-opacity:1;stroke-width:0.264583;opacity:0.2"
     d="M 4.2333328,0.52916675 V 7.9375001 c 0,0 2.9104171,-0.710407 2.9104171,-3.96875 V 1.3229167 C 5.7260179,1.3248067 4.2333328,0.52916675 4.2333328,0.52916675 Z"
     sodipodi:nodetypes="ccscc" />
  <path
     id="rect4191"
     style="opacity:1;fill:#f9f9f9;fill-opacity:1;stroke-width:0.264583"
     d="M 3.955454,5.1366776 5.7942414,3.2978902 5.6071527,3.1108014 3.955454,4.7625002 2.832922,3.6399681 2.6458333,3.8270569 Z"
     sodipodi:nodetypes="ccccccc" />
  <path
     id="rect4191-5"
     style="fill:#000000;fill-opacity:1;stroke-width:0.999999;opacity:0.2"
     d="M 21.400391 12.964844 L 14.949219 19.414062 L 10.5 14.964844 L 10 15.464844 L 14.949219 20.414062 L 21.900391 13.464844 L 21.400391 12.964844 z "
     transform="scale(0.26458333)" />
</svg>
