<?xml version="1.0" encoding="UTF-8" standalone="no"?>
<!-- Created with Inkscape (http://www.inkscape.org/) -->

<svg
   width="32"
   height="32"
   viewBox="0 0 8.4666665 8.4666669"
   version="1.1"
   id="svg5"
   inkscape:version="1.2 (dc2aedaf03, 2022-05-15)"
   sodipodi:docname="security-medium.svg"
   xmlns:inkscape="http://www.inkscape.org/namespaces/inkscape"
   xmlns:sodipodi="http://sodipodi.sourceforge.net/DTD/sodipodi-0.dtd"
   xmlns="http://www.w3.org/2000/svg"
   xmlns:svg="http://www.w3.org/2000/svg">
  <sodipodi:namedview
     id="namedview7"
     pagecolor="#ffffff"
     bordercolor="#666666"
     borderopacity="1.0"
     inkscape:pageshadow="2"
     inkscape:pageopacity="0.0"
     inkscape:pagecheckerboard="0"
     inkscape:document-units="px"
     showgrid="false"
     units="px"
     height="32px"
     inkscape:zoom="12.34375"
     inkscape:cx="18.389873"
     inkscape:cy="22.602532"
     inkscape:window-width="1920"
     inkscape:window-height="1011"
     inkscape:window-x="0"
     inkscape:window-y="0"
     inkscape:window-maximized="1"
     inkscape:current-layer="svg5"
     inkscape:showpageshadow="2"
     inkscape:deskcolor="#d1d1d1" />
  <defs
     id="defs2" />
  <path
     id="rect1090-7"
     style="fill:#000000;fill-opacity:1;stroke-width:0.264583;opacity:0.2"
     d="m 4.2333333,0.79375 c 0,0 -1.4926854,0.7956399 -2.9104166,0.79375 v 2.6458332 c 0,3.2583435 2.9104166,3.9687496 2.9104166,3.9687496 0,0 2.9104167,-0.7104061 2.9104167,-3.9687496 V 1.5875 C 5.7260188,1.58939 4.2333333,0.79375 4.2333333,0.79375 Z" />
  <path
     id="rect1090"
     style="opacity:1;fill:#ffcc55;fill-opacity:1;stroke-width:0.999999"
     d="M 16 2 C 16 2 10.358354 5.0071433 5 5 L 5 15 C 5 27.314999 16 30 16 30 C 16 30 27 27.314999 27 15 L 27 5 C 21.641646 5.0071433 16 2 16 2 z "
     transform="scale(0.26458333)" />
  <path
     id="rect1090-5"
     style="fill:#ffffff;fill-opacity:1;stroke-width:0.264583;opacity:0.2"
     d="M 4.2333328,0.52916675 V 7.9375001 c 0,0 2.9104171,-0.710407 2.9104171,-3.96875 V 1.3229167 C 5.7260179,1.3248067 4.2333328,0.52916675 4.2333328,0.52916675 Z"
     sodipodi:nodetypes="ccscc" />
  <path
     d="M 4.0062135,3.6279422 V 2.38125 h 0.430955 V 3.6279422 L 4.3858662,4.9721133 H 4.0523886 Z m 0.2154778,2.4574745 q -0.1385222,0 -0.2359995,-0.092353 -0.092348,-0.097471 -0.092348,-0.2359933 0,-0.1333967 0.092348,-0.2257422 0.097477,-0.097479 0.2359995,-0.097479 0.1333913,0 0.2257384,0.097479 0.097478,0.092346 0.097478,0.2257422 0,0.1385222 -0.097478,0.2359933 -0.092347,0.092353 -0.2257384,0.092353 z"
     style="font-size:30.4709px;line-height:1.25;font-family:'Google Sans';-inkscape-font-specification:'Google Sans';fill:#fffbe7;fill-opacity:1;stroke-width:0.128261"
     id="path13331" />
  <path
     id="rect4191-5"
     style="opacity:0.2;fill:#000000;fill-opacity:1;stroke-width:0.264583"
     d="m 4.005957,3.6276856 v 0.2645833 l 0.046509,1.3446207 h 0.3333131 l 0.05116,-1.3446207 V 3.6276856 l -0.05116,1.3446207 H 4.0524657 Z m -0.0863,2.264461 c -0.017353,0.039485 -0.026355,0.082549 -0.026355,0.129708 0,0.092348 0.030935,0.1706637 0.092501,0.2356445 0.064985,0.061569 0.1432965,0.092501 0.2356446,0.092501 0.088928,0 0.1642612,-0.030932 0.2258261,-0.092501 0.064985,-0.064981 0.097668,-0.1432967 0.097668,-0.2356445 0,-0.046954 -0.00922,-0.089844 -0.027388,-0.1291913 -0.016227,0.036392 -0.039818,0.069793 -0.07028,0.1002525 -0.061565,0.061569 -0.1368981,0.092501 -0.2258261,0.092501 -0.092348,0 -0.1706595,-0.030932 -0.2356446,-0.092501 -0.028975,-0.030582 -0.050772,-0.064207 -0.066146,-0.1007692 z" />
</svg>
