<?xml version="1.0" encoding="UTF-8" standalone="no"?>
<!-- Created with Inkscape (http://www.inkscape.org/) -->

<svg
   width="32"
   height="32"
   viewBox="0 0 8.4666665 8.466667"
   version="1.1"
   id="svg5"
   inkscape:version="1.2 (dc2aedaf03, 2022-05-15)"
   sodipodi:docname="folder-documents.svg"
   xmlns:inkscape="http://www.inkscape.org/namespaces/inkscape"
   xmlns:sodipodi="http://sodipodi.sourceforge.net/DTD/sodipodi-0.dtd"
   xmlns="http://www.w3.org/2000/svg"
   xmlns:svg="http://www.w3.org/2000/svg">
  <sodipodi:namedview
     id="namedview7"
     pagecolor="#ffffff"
     bordercolor="#666666"
     borderopacity="1.0"
     inkscape:pageshadow="2"
     inkscape:pageopacity="0.0"
     inkscape:pagecheckerboard="0"
     inkscape:document-units="px"
     showgrid="false"
     units="px"
     height="64px"
     inkscape:zoom="24.84375"
     inkscape:cx="16.040252"
     inkscape:cy="16.040252"
     inkscape:window-width="1920"
     inkscape:window-height="1011"
     inkscape:window-x="0"
     inkscape:window-y="0"
     inkscape:window-maximized="1"
     inkscape:current-layer="svg5"
     inkscape:showpageshadow="2"
     inkscape:deskcolor="#d1d1d1" />
  <defs
     id="defs2" />
  <path
     d="m 0.79374991,1.0583334 c -0.29315816,0 -0.5291664,0.2360084 -0.5291664,0.5291666 v 5.8208332 c 0,0.2931579 0.23600824,0.5291659 0.5291664,0.5291659 H 7.672916 c 0.2931584,0 0.5291669,-0.236008 0.5291669,-0.5291659 V 2.3812499 c 0,-0.2917028 -0.236009,-0.5291666 -0.5291669,-0.5291666 H 4.3656244 C 4.1969742,1.8516378 3.965618,1.8281897 3.8643631,1.7337443 L 3.279386,1.1766724 C 3.1594951,1.0603765 2.9104163,1.0583334 2.9104163,1.0583334 Z"
     style="opacity:0.2;fill:#000000;fill-opacity:1;stroke-width:0.37225"
     id="path959"
     sodipodi:nodetypes="ssssssssccccs" />
  <path
     id="rect846"
     style="fill:#46a1cf;fill-opacity:1;stroke-width:0.37225"
     d="M 0.79375031,0.79375001 H 2.9104166 c 0,0 0.2490405,0.00206 0.3689319,0.1183457 L 3.8644011,1.4691542 C 3.9656563,1.5636002 4.1969746,1.5870543 4.3656249,1.5875 l 3.3072911,-10e-8 c 0.2931579,0 0.5291664,0.2382722 0.5291664,0.5291668 V 4.2333323 H 0.26458354 V 1.3229167 c 0,-0.2931583 0.23600836,-0.52916669 0.52916677,-0.52916669 z"
     sodipodi:nodetypes="sccccssccss" />
  <path
     id="rect846-7"
     style="opacity:0.1;fill:#000000;fill-opacity:1;stroke-width:0.37225"
     d="M 0.79375031,0.79375001 H 2.9104167 c 0,0 0.2490405,0.00205 0.3689315,0.118346 L 3.8644011,1.4691544 c 0.101255,0.094445 0.332573,0.1179 0.5012234,0.1183455 h 3.307292 c 0.2931579,0 0.5291664,0.2374634 0.5291664,0.5291665 V 4.7624987 H 0.26458334 V 1.3229169 c 0,-0.2931584 0.23600846,-0.52916689 0.52916697,-0.52916689 z"
     sodipodi:nodetypes="sccccssccss" />
  <path
     id="path563"
     style="opacity:0.2;fill:#ffffff;fill-opacity:1;stroke-width:0.37225"
     d="m 0.79375041,0.79375001 c -0.29315815,0 -0.52916663,0.23600849 -0.52916663,0.52916659 V 1.5875 c 0,-0.2931581 0.23600848,-0.5291667 0.52916663,-0.5291667 H 2.9104171 c 0,0 0.2490789,0.00204 0.3689698,0.118339 l 0.5849772,0.557072 c 0.1012549,0.094445 0.3326111,0.1178935 0.5012614,0.118339 h 3.3072917 c 0.2931576,0 0.5291666,0.2374639 0.5291666,0.5291667 V 2.1166666 C 8.2020838,1.8249638 7.9660748,1.5875 7.6729172,1.5875 H 4.3656255 C 4.1969752,1.5870545 3.965619,1.5636058 3.8643641,1.4691609 L 3.2793869,0.91208901 C 3.159496,0.79579311 2.9104171,0.79375001 2.9104171,0.79375001 Z" />
  <path
     d="m 0.5291669,2.38125 c -0.14657917,0 -0.26458336,0.1180041 -0.26458336,0.2645832 v 3.8364579 c 0,0.2931585 0.23600826,0.529167 0.52916667,0.529167 H 7.672916 c 0.2931584,0 0.5291669,-0.2360085 0.5291669,-0.529167 V 2.6458332 C 8.2020829,2.4992541 8.0840784,2.38125 7.9374994,2.38125 Z"
     style="opacity:0.2;fill:#000000;fill-opacity:1;stroke-width:0.112064"
     id="path1660"
     sodipodi:nodetypes="sssssssss" />
  <path
     id="rect5146"
     style="fill:#7dcef7;fill-opacity:1;stroke-width:0.112064"
     d="m 0.5291669,2.6458333 c -0.14657916,0 -0.26458335,0.1180042 -0.26458335,0.2645833 V 7.14375 c 0,0.2931585 0.23600825,0.5291669 0.52916666,0.5291669 H 7.672916 c 0.2931584,0 0.5291669,-0.2360084 0.5291669,-0.5291669 V 2.9104166 c 0,-0.1465791 -0.1180045,-0.2645833 -0.2645835,-0.2645833 z"
     sodipodi:nodetypes="sccssccss" />
  <rect
     style="opacity:0.2;fill:#1493c4;fill-opacity:1;stroke-width:0.0245659"
     id="rect23488"
     width="7.9375"
     height="0.26458335"
     x="0.26458299"
     y="6.6145835" />
  <path
     id="rect2076"
     style="opacity:0.2;fill:#000000;stroke-width:1.52722;stroke-linejoin:round"
     d="m 3.1750001,3.1749989 c -0.1465792,0 -0.2645834,0.1180042 -0.2645834,0.2645833 v 2.6458342 c 0,0.14658 0.1180042,0.264584 0.2645834,0.264584 h 2.1166675 c 0.146578,0 0.264583,-0.118004 0.264583,-0.264584 V 3.9687501 L 4.7625001,3.1749989 Z m 0,0.2645833 h 1.3229167 v 0.7937512 h 0.7937508 v 1.852083 H 3.1750001 Z"
     sodipodi:nodetypes="ssssssccsccccccc" />
  <path
     id="path402"
     style="opacity:0.2;fill:#000000;fill-opacity:1;stroke-width:0.37225"
     d="m 0.26458378,6.8791667 v 0.2645834 c 0,0.2931577 0.23600877,0.5291666 0.52916663,0.5291666 H 7.6729172 c 0.2931581,0 0.5291666,-0.2360089 0.5291666,-0.5291666 V 6.8791667 c 0,0.2931577 -0.2360085,0.5291667 -0.5291666,0.5291667 H 0.79375041 c -0.29315787,0 -0.52916663,-0.236009 -0.52916663,-0.5291667 z" />
  <path
     id="path458"
     style="opacity:0.2;fill:#ffffff;fill-opacity:1;stroke-width:0.112064"
     d="m 0.52916712,2.6458334 c -0.14657906,0 -0.26458334,0.1180043 -0.26458334,0.2645833 V 3.175 c 0,-0.1465789 0.11800428,-0.2645833 0.26458334,-0.2645833 H 7.9375005 c 0.146579,0 0.2645833,0.1180044 0.2645833,0.2645833 V 2.9104167 c 0,-0.146579 -0.1180044,-0.2645833 -0.2645833,-0.2645833 z"
     sodipodi:nodetypes="sscsscsss" />
</svg>
