<?xml version="1.0" encoding="UTF-8" standalone="no"?>
<!-- Created with Inkscape (http://www.inkscape.org/) -->

<svg
   width="32"
   height="32"
   viewBox="0 0 8.4666665 8.466667"
   version="1.1"
   id="svg5"
   inkscape:version="1.2 (dc2aedaf03, 2022-05-15)"
   sodipodi:docname="folder-github.svg"
   xmlns:inkscape="http://www.inkscape.org/namespaces/inkscape"
   xmlns:sodipodi="http://sodipodi.sourceforge.net/DTD/sodipodi-0.dtd"
   xmlns="http://www.w3.org/2000/svg"
   xmlns:svg="http://www.w3.org/2000/svg">
  <sodipodi:namedview
     id="namedview7"
     pagecolor="#ffffff"
     bordercolor="#666666"
     borderopacity="1.0"
     inkscape:pageshadow="2"
     inkscape:pageopacity="0.0"
     inkscape:pagecheckerboard="0"
     inkscape:document-units="px"
     showgrid="false"
     units="px"
     height="64px"
     inkscape:zoom="24.84375"
     inkscape:cx="16.040252"
     inkscape:cy="16.040252"
     inkscape:window-width="1920"
     inkscape:window-height="1011"
     inkscape:window-x="0"
     inkscape:window-y="0"
     inkscape:window-maximized="1"
     inkscape:current-layer="svg5"
     inkscape:showpageshadow="2"
     inkscape:deskcolor="#d1d1d1" />
  <defs
     id="defs2" />
  <path
     d="m 0.79374991,1.0583334 c -0.29315816,0 -0.5291664,0.2360084 -0.5291664,0.5291666 v 5.8208332 c 0,0.2931579 0.23600824,0.5291659 0.5291664,0.5291659 H 7.672916 c 0.2931584,0 0.5291669,-0.236008 0.5291669,-0.5291659 V 2.3812499 c 0,-0.2917028 -0.236009,-0.5291666 -0.5291669,-0.5291666 H 4.3656244 C 4.1969742,1.8516378 3.965618,1.8281897 3.8643631,1.7337443 L 3.279386,1.1766724 C 3.1594951,1.0603765 2.9104163,1.0583334 2.9104163,1.0583334 Z"
     style="opacity:0.2;fill:#000000;fill-opacity:1;stroke-width:0.37225"
     id="path959"
     sodipodi:nodetypes="ssssssssccccs" />
  <path
     id="rect846"
     style="fill:#46a1cf;fill-opacity:1;stroke-width:0.37225"
     d="M 0.79375031,0.79375001 H 2.9104166 c 0,0 0.2490405,0.00206 0.3689319,0.1183457 L 3.8644011,1.4691542 C 3.9656563,1.5636002 4.1969746,1.5870543 4.3656249,1.5875 l 3.3072911,-10e-8 c 0.2931579,0 0.5291664,0.2382722 0.5291664,0.5291668 V 4.2333323 H 0.26458354 V 1.3229167 c 0,-0.2931583 0.23600836,-0.52916669 0.52916677,-0.52916669 z"
     sodipodi:nodetypes="sccccssccss" />
  <path
     id="rect846-7"
     style="opacity:0.1;fill:#000000;fill-opacity:1;stroke-width:0.37225"
     d="M 0.79375031,0.79375001 H 2.9104167 c 0,0 0.2490405,0.00205 0.3689315,0.118346 L 3.8644011,1.4691544 c 0.101255,0.094445 0.332573,0.1179 0.5012234,0.1183455 h 3.307292 c 0.2931579,0 0.5291664,0.2374634 0.5291664,0.5291665 V 4.7624987 H 0.26458334 V 1.3229169 c 0,-0.2931584 0.23600846,-0.52916689 0.52916697,-0.52916689 z"
     sodipodi:nodetypes="sccccssccss" />
  <path
     id="path563"
     style="opacity:0.2;fill:#ffffff;fill-opacity:1;stroke-width:0.37225"
     d="m 0.79375041,0.79375001 c -0.29315815,0 -0.52916663,0.23600849 -0.52916663,0.52916659 V 1.5875 c 0,-0.2931581 0.23600848,-0.5291667 0.52916663,-0.5291667 H 2.9104171 c 0,0 0.2490789,0.00204 0.3689698,0.118339 l 0.5849772,0.557072 c 0.1012549,0.094445 0.3326111,0.1178935 0.5012614,0.118339 h 3.3072917 c 0.2931576,0 0.5291666,0.2374639 0.5291666,0.5291667 V 2.1166666 C 8.2020838,1.8249638 7.9660748,1.5875 7.6729172,1.5875 H 4.3656255 C 4.1969752,1.5870545 3.965619,1.5636058 3.8643641,1.4691609 L 3.2793869,0.91208901 C 3.159496,0.79579311 2.9104171,0.79375001 2.9104171,0.79375001 Z" />
  <path
     d="m 0.5291669,2.38125 c -0.14657917,0 -0.26458336,0.1180041 -0.26458336,0.2645832 v 3.8364579 c 0,0.2931585 0.23600826,0.529167 0.52916667,0.529167 H 7.672916 c 0.2931584,0 0.5291669,-0.2360085 0.5291669,-0.529167 V 2.6458332 C 8.2020829,2.4992541 8.0840784,2.38125 7.9374994,2.38125 Z"
     style="opacity:0.2;fill:#000000;fill-opacity:1;stroke-width:0.112064"
     id="path1660"
     sodipodi:nodetypes="sssssssss" />
  <path
     id="rect5146"
     style="fill:#7dcef7;fill-opacity:1;stroke-width:0.112064"
     d="m 0.5291669,2.6458333 c -0.14657916,0 -0.26458335,0.1180042 -0.26458335,0.2645833 V 7.14375 c 0,0.2931585 0.23600825,0.5291669 0.52916666,0.5291669 H 7.672916 c 0.2931584,0 0.5291669,-0.2360084 0.5291669,-0.5291669 V 2.9104166 c 0,-0.1465791 -0.1180045,-0.2645833 -0.2645835,-0.2645833 z"
     sodipodi:nodetypes="sccssccss" />
  <path
     id="path4"
     d="m 4.2333335,3.4395834 c -0.7328959,0 -1.3229168,0.5900209 -1.3229168,1.3229168 0,0.7085492 0.5514912,1.2834641 1.2503853,1.3208867 C 4.088732,6.0793369 4.0182329,6.0693019 3.949667,6.0544118 3.9494495,5.9347364 3.949317,5.8232041 3.949117,5.7858794 3.604669,5.8626537 3.5683638,5.5965193 3.5683638,5.5965193 3.5120311,5.4496814 3.4308676,5.4106692 3.4308676,5.4106692 c -0.1124342,-0.078801 0.00831,-0.07733 0.00831,-0.07733 0.1242928,0.00897 0.1897262,0.1310359 0.1897262,0.1310359 C 3.7393581,5.6585732 3.8813371,5.6214866 3.9518817,5.588952 3.9631317,5.506875 4.0326207,5.4603251 4.0679689,5.428571 3.7930141,5.396501 3.4773851,5.2685115 3.4773851,4.7815079 c 0,-0.1387173 0.046474,-0.2522769 0.1256844,-0.3410644 -0.01277,-0.032137 -0.055432,-0.1897703 0.011997,-0.3646881 0,0 0.00649,-0.00195 0.019932,-0.00258 0.040302,-0.0019 0.1308476,0.035008 0.3082132,0.1583514 0.1048687,-0.030436 0.2330295,-0.034734 0.328699,-0.035989 0.112161,-0.00148 0.2282273,0.00508 0.3307292,0.035989 C 4.7799447,4.1081786 4.8932876,4.0711119 4.9335497,4.0729923 h 1.89e-4 c 0.013425,6.251e-4 0.01993,0.00277 0.01993,0.00277 0.067578,0.1749178 0.02487,0.3325429 0.012175,0.3646879 0.079355,0.088787 0.1179292,0.2021628 0.1179292,0.3408801 0,0.4882509 -0.2895173,0.6148823 -0.5653033,0.6463239 0.044395,0.039245 0.093387,0.097789 0.093387,0.2163032 0,0.070421 -3e-4,0.2177442 -5.5e-4,0.3862817 -0.087752,0.02597 -0.1793396,0.04323 -0.2737009,0.050753 0.6837382,-0.052886 1.2186445,-0.62073 1.2186445,-1.318487 0,-0.7328959 -0.5900208,-1.3229168 -1.3229161,-1.3229168 z M 4.160802,6.0833869 c 0.024015,0.00125 0.048184,0.00205 0.072531,0.00205 -0.024387,0 -0.048508,-7e-4 -0.072531,-0.00205 z m 0.072531,0.00205 c 0.030937,0 0.061517,-0.0014 0.09191,-0.0035 -0.030391,0.00215 -0.060945,0.0035 -0.09191,0.0035 z"
     style="opacity:0.2;fill:#000000;fill-opacity:1;stroke-width:0.0944938" />
  <path
     id="path402"
     style="opacity:0.2;fill:#000000;fill-opacity:1;stroke-width:0.37225"
     d="m 0.26458378,6.8791667 v 0.2645834 c 0,0.2931577 0.23600877,0.5291666 0.52916663,0.5291666 H 7.6729172 c 0.2931581,0 0.5291666,-0.2360089 0.5291666,-0.5291666 V 6.8791667 c 0,0.2931577 -0.2360085,0.5291667 -0.5291666,0.5291667 H 0.79375041 c -0.29315787,0 -0.52916663,-0.236009 -0.52916663,-0.5291667 z" />
  <path
     id="path458"
     style="opacity:0.2;fill:#ffffff;fill-opacity:1;stroke-width:0.112064"
     d="m 0.52916712,2.6458334 c -0.14657906,0 -0.26458334,0.1180043 -0.26458334,0.2645833 V 3.175 c 0,-0.1465789 0.11800428,-0.2645833 0.26458334,-0.2645833 H 7.9375005 c 0.146579,0 0.2645833,0.1180044 0.2645833,0.2645833 V 2.9104167 c 0,-0.146579 -0.1180044,-0.2645833 -0.2645833,-0.2645833 z"
     sodipodi:nodetypes="sscsscsss" />
  <rect
     style="opacity:0.2;fill:#1493c4;fill-opacity:1;stroke-width:0.0245659"
     id="rect23488"
     width="7.9375"
     height="0.26458335"
     x="0.26458356"
     y="6.6145835" />
</svg>
