<?xml version="1.0" encoding="UTF-8" standalone="no"?>
<svg
   width="32"
   height="32"
   version="1.1"
   id="svg23"
   sodipodi:docname="dialog-error.svg"
   inkscape:version="1.1.2 (0a00cf5339, 2022-02-04, custom)"
   xmlns:inkscape="http://www.inkscape.org/namespaces/inkscape"
   xmlns:sodipodi="http://sodipodi.sourceforge.net/DTD/sodipodi-0.dtd"
   xmlns="http://www.w3.org/2000/svg"
   xmlns:svg="http://www.w3.org/2000/svg">
  <sodipodi:namedview
     id="namedview25"
     pagecolor="#ffffff"
     bordercolor="#666666"
     borderopacity="1.0"
     inkscape:pageshadow="2"
     inkscape:pageopacity="0.0"
     inkscape:pagecheckerboard="0"
     showgrid="false"
     inkscape:zoom="12.328125"
     inkscape:cx="5.9214195"
     inkscape:cy="5.2319392"
     inkscape:window-width="1920"
     inkscape:window-height="1011"
     inkscape:window-x="0"
     inkscape:window-y="0"
     inkscape:window-maximized="1"
     inkscape:current-layer="svg23" />
  <defs
     id="defs13">
    <linearGradient
       id="a"
       x1="16"
       x2="16"
       y1="1"
       y2="31"
       gradientUnits="userSpaceOnUse"
       gradientTransform="translate(-40.473639,0.71003224)">
      <stop
         stop-color="#ff5355"
         offset="0"
         id="stop2" />
      <stop
         stop-color="#ff9349"
         offset="1"
         id="stop4" />
    </linearGradient>
    <filter
       id="c"
       x="-0.035999999"
       y="-0.035999999"
       width="1.072"
       height="1.072"
       color-interpolation-filters="sRGB">
      <feGaussianBlur
         stdDeviation="0.45"
         id="feGaussianBlur7" />
    </filter>
    <filter
       id="b"
       x="-0.108"
       y="-0.021600001"
       width="1.216"
       height="1.0432"
       color-interpolation-filters="sRGB">
      <feGaussianBlur
         stdDeviation="0.18"
         id="feGaussianBlur10" />
    </filter>
  </defs>
  <circle
     style="opacity:1;fill:#ff784e;fill-opacity:1;stroke-width:1.00772"
     id="path2032"
     cx="16"
     cy="16"
     r="14" />
  <path
     id="rect1024"
     style="opacity:1;fill:#ffffff;stroke-width:5.7898;stroke-linejoin:round;fill-opacity:1"
     d="M 21.656854,8.9289322 16,14.585786 10.343146,8.9289322 8.9289322,10.343146 14.585786,16 8.9289322,21.656854 10.343146,23.071068 16,17.414214 21.656854,23.071068 23.071068,21.656854 17.414214,16 23.071068,10.343146 Z" />
  <path
     id="path12207"
     style="opacity:0.2;fill:#ffffff;fill-opacity:1;stroke-width:3;stroke-linejoin:round"
     d="M 16 2 A 14 14 0 0 0 2 16 A 14 14 0 0 0 2.0351562 16.5 A 14 14 0 0 1 16 3 A 14 14 0 0 1 29.980469 16.279297 A 14 14 0 0 0 30 16 A 14 14 0 0 0 16 2 z " />
  <path
     id="path12415"
     style="opacity:0.2;fill:#000000;fill-opacity:1;stroke-width:3;stroke-linejoin:round"
     d="M 29.980469,16.279 A 14,14 0 0 1 16,29.999703 a 14,14 0 0 1 -13.9648438,-13.5 14,14 0 0 0 -0.035156,0.5 14,14 0 0 0 14,14 14,14 0 0 0 14,-14 14,14 0 0 0 -0.01953,-0.720703 z" />
</svg>
