<?xml version="1.0" encoding="UTF-8" standalone="no"?>
<!-- Created with Inkscape (http://www.inkscape.org/) -->

<svg
   width="32"
   height="32"
   viewBox="0 0 8.4666665 8.4666669"
   version="1.1"
   id="svg5"
   inkscape:version="1.1.2 (0a00cf5339, 2022-02-04, custom)"
   sodipodi:docname="dialog-information.svg"
   xmlns:inkscape="http://www.inkscape.org/namespaces/inkscape"
   xmlns:sodipodi="http://sodipodi.sourceforge.net/DTD/sodipodi-0.dtd"
   xmlns="http://www.w3.org/2000/svg"
   xmlns:svg="http://www.w3.org/2000/svg">
  <sodipodi:namedview
     id="namedview7"
     pagecolor="#ffffff"
     bordercolor="#666666"
     borderopacity="1.0"
     inkscape:pageshadow="2"
     inkscape:pageopacity="0.0"
     inkscape:pagecheckerboard="0"
     inkscape:document-units="px"
     showgrid="false"
     units="px"
     height="32px"
     inkscape:zoom="12.59375"
     inkscape:cx="8.8933002"
     inkscape:cy="18.937965"
     inkscape:window-width="1920"
     inkscape:window-height="1011"
     inkscape:window-x="0"
     inkscape:window-y="0"
     inkscape:window-maximized="1"
     inkscape:current-layer="svg5" />
  <defs
     id="defs2" />
  <circle
     style="opacity:0.2;fill:#1a1a1a;fill-opacity:1;stroke-width:1.57477;stroke-linejoin:round"
     id="path1154"
     cx="4.2333336"
     cy="4.4979167"
     r="3.7041667" />
  <circle
     style="fill:#33abff;fill-opacity:1;stroke-width:0.28008"
     id="path846"
     cx="4.2333331"
     cy="4.2333331"
     r="3.7041667" />
  <path
     id="path12207"
     style="opacity:0.2;fill:#ffffff;fill-opacity:1;stroke-width:0.79375;stroke-linejoin:round"
     d="M 4.2333333,0.52916667 A 3.7041666,3.7041666 0 0 0 0.52916667,4.2333333 3.7041666,3.7041666 0 0 0 0.53846867,4.3656249 3.7041666,3.7041666 0 0 1 4.2333336,0.79375 3.7041666,3.7041666 0 0 1 7.9323326,4.3072306 3.7041666,3.7041666 0 0 0 7.9375026,4.2333336 3.7041666,3.7041666 0 0 0 4.233336,0.52916697 Z" />
  <path
     d="m 4.2027698,2.6469288 q -0.1642243,0 -0.2824657,-0.1182414 -0.1182415,-0.1182415 -0.1182415,-0.2824658 0,-0.1642242 0.1182415,-0.2758967 0.1182414,-0.1182415 0.2824657,-0.1182415 0.1642242,0 0.2824657,0.1182415 0.1182415,0.1116725 0.1182415,0.2758967 0,0.1642243 -0.1182415,0.2824658 Q 4.373563,2.6469288 4.2027698,2.6469288 Z M 3.926873,3.264412 H 4.4786665 V 6.6145868 H 3.926873 Z"
     style="font-size:6.56897px;line-height:1.25;font-family:'Google Sans';-inkscape-font-specification:'Google Sans';stroke-width:0.164224;fill-opacity:1;fill:#f9f9f9"
     id="path5250" />
</svg>
