<?xml version="1.0" encoding="UTF-8" standalone="no"?>
<!-- Created with Inkscape (http://www.inkscape.org/) -->

<svg
   width="64"
   height="64"
   viewBox="0 0 16.933333 16.933334"
   version="1.1"
   id="svg5"
   inkscape:version="1.2 (dc2aedaf03, 2022-05-15)"
   sodipodi:docname="accessories-ebook-reader.svg"
   xmlns:inkscape="http://www.inkscape.org/namespaces/inkscape"
   xmlns:sodipodi="http://sodipodi.sourceforge.net/DTD/sodipodi-0.dtd"
   xmlns="http://www.w3.org/2000/svg"
   xmlns:svg="http://www.w3.org/2000/svg">
  <sodipodi:namedview
     id="namedview7"
     pagecolor="#ffffff"
     bordercolor="#666666"
     borderopacity="1.0"
     inkscape:pageshadow="2"
     inkscape:pageopacity="0.0"
     inkscape:pagecheckerboard="0"
     inkscape:document-units="px"
     showgrid="false"
     units="px"
     height="64px"
     inkscape:zoom="12.40625"
     inkscape:cx="32"
     inkscape:cy="32"
     inkscape:window-width="1920"
     inkscape:window-height="1011"
     inkscape:window-x="0"
     inkscape:window-y="0"
     inkscape:window-maximized="1"
     inkscape:current-layer="svg5"
     inkscape:showpageshadow="2"
     inkscape:deskcolor="#d1d1d1" />
  <defs
     id="defs2" />
  <rect
     style="fill:#f47c29;stroke-width:0.264583;fill-opacity:1"
     id="rect846"
     width="14.816667"
     height="14.816667"
     x="1.0583335"
     y="1.0583333"
     ry="3.175" />
  <path
     d="M 5.8203166,5.2916989 C 4.5087246,5.2961389 3.7504674,5.8746826 3.7444744,5.8792599 3.6824394,5.9158649 3.616362,5.9576519 3.5584392,6.0156854 3.4970802,6.0771614 3.4395833,6.1633885 3.4395833,6.2720005 v 5.8833615 c 3.175e-4,0.112297 0.1262494,0.178389 0.2191081,0.115238 0,0 0.2985317,-0.203913 0.7229533,-0.409277 0.4244216,-0.205364 0.972615,-0.405846 1.4417725,-0.406177 1.09648,0.01645 1.240826,0.230684 1.8293456,0.449068 0.047109,0.0029 0.09307,0.0096 0.1937867,-0.0067 0.07113,-0.01151 0.1481677,-0.03044 0.2201415,-0.07958 0.071973,-0.04913 0.1353648,-0.14545 0.1353923,-0.252181 V 6.8326899 c -9.7e-6,-0.00402 -1.484e-4,-0.00841 -5.291e-4,-0.012401 C 8.1436131,6.1555413 7.6529441,5.7657555 7.1427168,5.5583492 6.632489,5.3509428 6.0874063,5.3023272 5.8265179,5.2916989 c -0.00198,-4.29e-5 -0.0042,-4.29e-5 -0.0062,0 z m 5.2927004,0 c -0.260888,0.010628 -0.805971,0.059244 -1.3161991,0.2666503 -0.5102281,0.2074063 -1.0009003,0.5971921 -1.0588498,1.2619386 -3.705e-4,0.00404 -5.028e-4,0.0084 -5.292e-4,0.012401 v 4.7335602 c 2.7e-5,0.106731 0.062905,0.202534 0.1348756,0.251664 0.071974,0.04914 0.1495282,0.06807 0.2206585,0.07958 0.1007155,0.0163 0.1466763,0.0096 0.1937864,0.0067 0.5885188,-0.218384 0.7328646,-0.432618 1.8293456,-0.449069 0.469157,3.44e-4 1.01735,0.200814 1.441772,0.406178 0.424422,0.205364 0.722953,0.409276 0.722953,0.409276 0.09286,0.06315 0.2188,-0.0029 0.219108,-0.115237 V 6.2725175 c 0,-0.1086125 -0.05749,-0.1953559 -0.118855,-0.2568321 -0.05792,-0.058033 -0.124005,-0.099821 -0.186035,-0.1364255 -0.006,-0.00458 -0.764251,-0.5831213 -2.075843,-0.587561 -0.002,-4.29e-5 -0.0042,-4.29e-5 -0.0062,0 z"
     style="color:#000000;fill:#000000;fill-opacity:1;stroke:none;stroke-width:0.074122;stroke-linecap:round;stroke-linejoin:round;-inkscape-stroke:none;opacity:0.2"
     id="path2026" />
  <path
     d="M 5.8203166,5.0271156 C 4.5087247,5.0315556 3.7504675,5.6100993 3.7444744,5.6146766 3.6824394,5.6512816 3.6163621,5.6930686 3.5584393,5.7511023 3.4970803,5.8125783 3.4395834,5.8988052 3.4395834,6.0074174 v 5.8833616 c 3.175e-4,0.112297 0.1262494,0.178389 0.2191081,0.115238 0,0 0.2985317,-0.203913 0.7229533,-0.409277 0.4244215,-0.205364 0.9726149,-0.405846 1.4417725,-0.406177 1.0964799,0.01645 1.2408259,0.230684 1.8293455,0.449068 0.047109,0.0029 0.09307,0.0096 0.1937867,-0.0067 0.07113,-0.01151 0.1481677,-0.03044 0.2201415,-0.07958 0.071973,-0.04913 0.1353648,-0.14545 0.1353923,-0.252181 V 6.5681068 c -9.8e-6,-0.00402 -1.484e-4,-0.00841 -5.292e-4,-0.012401 C 8.143613,5.8909579 7.652944,5.5011724 7.1427165,5.2937658 6.6324887,5.0863595 6.0874061,5.0377441 5.8265177,5.0271156 c -0.00198,-4.29e-5 -0.0042,-4.29e-5 -0.0062,0 z m 5.2927004,0 c -0.260888,0.010628 -0.805971,0.059244 -1.316199,0.2666502 -0.510228,0.2074066 -1.0009002,0.5971921 -1.05885,1.2619387 -3.704e-4,0.00404 -5.027e-4,0.0084 -5.292e-4,0.012401 v 4.7335605 c 2.7e-5,0.106731 0.062905,0.202534 0.1348754,0.251664 0.071974,0.04914 0.1495284,0.06807 0.2206585,0.07958 0.1007157,0.0163 0.1466765,0.0096 0.1937864,0.0067 0.588519,-0.218384 0.7328649,-0.432618 1.8293459,-0.449068 0.469157,3.44e-4 1.01735,0.200813 1.441772,0.406177 0.424422,0.205364 0.722953,0.409277 0.722953,0.409277 0.09286,0.06315 0.2188,-0.0029 0.219108,-0.115238 V 6.0079342 c 0,-0.1086123 -0.05749,-0.1953559 -0.118855,-0.2568319 -0.05792,-0.058033 -0.124005,-0.099821 -0.186035,-0.1364257 -0.006,-0.00458 -0.764251,-0.5831211 -2.075843,-0.587561 -0.002,-4.29e-5 -0.0042,-4.29e-5 -0.0062,0 z"
     style="color:#000000;fill:#fff8ed;fill-opacity:1;stroke:none;stroke-width:0.280146;stroke-linecap:round;stroke-linejoin:round;-inkscape-stroke:none"
     id="path866"
     sodipodi:nodetypes="scssccsccsccccscsscsccccsccsccsccccc" />
  <path
     id="rect845"
     style="opacity:0.2;fill:#000000;stroke-width:0.999999"
     d="M 4 47 L 4 48 C 4 54.648 9.3519997 60 16 60 L 48 60 C 54.648 60 60 54.648 60 48 L 60 47 C 60 53.648 54.648 59 48 59 L 16 59 C 9.3519997 59 4 53.648 4 47 z "
     transform="scale(0.26458334)" />
  <path
     id="rect843"
     style="opacity:0.2;fill:#ffffff;stroke-width:0.999999"
     d="M 16 4 C 9.3519997 4 4 9.3519997 4 16 L 4 17 C 4 10.352 9.3519997 5 16 5 L 48 5 C 54.648 5 60 10.352 60 17 L 60 16 C 60 9.3519997 54.648 4 48 4 L 16 4 z "
     transform="scale(0.26458334)" />
</svg>
