<?xml version="1.0" encoding="UTF-8" standalone="no"?>
<!-- Created with Inkscape (http://www.inkscape.org/) -->

<svg
   width="64"
   height="64"
   viewBox="0 0 16.933333 16.933334"
   version="1.1"
   id="svg5"
   inkscape:version="1.2 (dc2aedaf03, 2022-05-15)"
   sodipodi:docname="accessories-podcasts.svg"
   xmlns:inkscape="http://www.inkscape.org/namespaces/inkscape"
   xmlns:sodipodi="http://sodipodi.sourceforge.net/DTD/sodipodi-0.dtd"
   xmlns="http://www.w3.org/2000/svg"
   xmlns:svg="http://www.w3.org/2000/svg">
  <sodipodi:namedview
     id="namedview7"
     pagecolor="#ffffff"
     bordercolor="#666666"
     borderopacity="1.0"
     inkscape:pageshadow="2"
     inkscape:pageopacity="0.0"
     inkscape:pagecheckerboard="0"
     inkscape:document-units="px"
     showgrid="false"
     units="px"
     height="64px"
     inkscape:zoom="12.34375"
     inkscape:cx="27.220253"
     inkscape:cy="32"
     inkscape:window-width="1920"
     inkscape:window-height="1011"
     inkscape:window-x="0"
     inkscape:window-y="0"
     inkscape:window-maximized="1"
     inkscape:current-layer="svg5"
     inkscape:showpageshadow="2"
     inkscape:deskcolor="#d1d1d1" />
  <defs
     id="defs2" />
  <rect
     style="fill:#c462ed;stroke-width:0.264583;fill-opacity:1"
     id="rect846"
     width="14.816667"
     height="14.816667"
     x="1.0583335"
     y="1.0583333"
     ry="3.175" />
  <path
     id="path863"
     style="fill:#ffffff;fill-opacity:1;stroke-width:1.99231;stroke-linecap:round;stroke-linejoin:round"
     d="M 8.4666665,3.175 A 5.2916666,5.2916666 0 0 0 3.175,8.4666667 5.2916666,5.2916666 0 0 0 7.1437499,13.588318 v -0.548287 a 4.7624999,4.7624999 0 0 1 -3.4395833,-4.5733643 4.7624999,4.7624999 0 0 1 4.7624999,-4.7625 4.7624999,4.7624999 0 0 1 4.7625005,4.7625 4.7624999,4.7624999 0 0 1 -3.4395835,4.5733643 v 0.548287 A 5.2916666,5.2916666 0 0 0 13.758334,8.4666667 5.2916666,5.2916666 0 0 0 8.4666665,3.175 Z m 0,2.1166667 a 3.175,3.175 0 0 0 -3.1749999,3.175 3.175,3.175 0 0 0 1.8520833,2.8861293 V 10.755933 A 2.6458333,2.6458333 0 0 1 5.8208333,8.4666667 2.6458333,2.6458333 0 0 1 8.4666665,5.8208334 2.6458333,2.6458333 0 0 1 11.1125,8.4666667 2.6458333,2.6458333 0 0 1 9.7895835,10.755933 v 0.596863 a 3.175,3.175 0 0 0 1.8520835,-2.8861293 3.175,3.175 0 0 0 -3.1750005,-3.175 z m 0,2.1166666 A 1.0583333,1.0583333 0 0 0 7.4083332,8.4666667 1.0583333,1.0583333 0 0 0 8.4666665,9.5249998 1.0583333,1.0583333 0 0 0 9.5249995,8.4666667 1.0583333,1.0583333 0 0 0 8.4666665,7.4083333 Z m 0,2.6458337 c -0.439737,0 -0.79375,0.354012 -0.79375,0.79375 v 3.175 c 0,0.439737 0.354013,0.79375 0.79375,0.79375 0.439738,0 0.79375,-0.354013 0.79375,-0.79375 v -3.175 c 0,-0.439738 -0.354012,-0.79375 -0.79375,-0.79375 z" />
  <path
     id="rect845"
     style="opacity:0.2;fill:#000000;stroke-width:0.999999"
     d="M 4 47 L 4 48 C 4 54.648 9.3519997 60 16 60 L 48 60 C 54.648 60 60 54.648 60 48 L 60 47 C 60 53.648 54.648 59 48 59 L 16 59 C 9.3519997 59 4 53.648 4 47 z "
     transform="scale(0.26458334)" />
  <path
     id="rect843"
     style="opacity:0.2;fill:#ffffff;stroke-width:0.999999"
     d="M 16 4 C 9.3519997 4 4 9.3519997 4 16 L 4 17 C 4 10.352 9.3519997 5 16 5 L 48 5 C 54.648 5 60 10.352 60 17 L 60 16 C 60 9.3519997 54.648 4 48 4 L 16 4 z "
     transform="scale(0.26458334)" />
</svg>
