<?xml version="1.0" encoding="UTF-8" standalone="no"?>
<!-- Created with Inkscape (http://www.inkscape.org/) -->

<svg
   width="64"
   height="64"
   viewBox="0 0 16.933333 16.933334"
   version="1.1"
   id="svg5"
   inkscape:version="1.1.2 (0a00cf5339, 2022-02-04, custom)"
   sodipodi:docname="accessories-clock.svg"
   xmlns:inkscape="http://www.inkscape.org/namespaces/inkscape"
   xmlns:sodipodi="http://sodipodi.sourceforge.net/DTD/sodipodi-0.dtd"
   xmlns="http://www.w3.org/2000/svg"
   xmlns:svg="http://www.w3.org/2000/svg">
  <sodipodi:namedview
     id="namedview7"
     pagecolor="#ffffff"
     bordercolor="#666666"
     borderopacity="1.0"
     inkscape:pageshadow="2"
     inkscape:pageopacity="0.0"
     inkscape:pagecheckerboard="0"
     inkscape:document-units="px"
     showgrid="false"
     units="px"
     height="64px"
     inkscape:zoom="12.25"
     inkscape:cx="32"
     inkscape:cy="32"
     inkscape:window-width="1920"
     inkscape:window-height="1011"
     inkscape:window-x="0"
     inkscape:window-y="0"
     inkscape:window-maximized="1"
     inkscape:current-layer="svg5" />
  <defs
     id="defs2" />
  <rect
     style="fill:#f5f5f5;stroke-width:0.264583;fill-opacity:1"
     id="rect846"
     width="14.816667"
     height="14.816667"
     x="1.0583335"
     y="1.0583333"
     ry="3.175" />
  <circle
     style="fill:#4d4d4d;fill-opacity:1;stroke-width:4.4354;stroke-linejoin:round"
     id="path1149"
     cx="8.4666672"
     cy="8.4666672"
     r="6.3499999" />
  <path
     d="M 8.6169501,8.4666667 11.909954,11.759671 11.759671,11.909161 8.4666667,8.6161563 Z"
     style="fill:#d35f5f;stroke-width:0.264583"
     id="path1343" />
  <path
     d="m 8.4671961,4.8683336 c -0.117253,-1.466e-4 -0.2123424,0.094943 -0.2121958,0.2121959 9.15e-5,0.00495 3.439e-4,0.00989 7.937e-4,0.014817 v 3.3689397 c 0.0013,0.1162185 0.09597,0.2097024 0.2121958,0.20955 0.1172531,1.466e-4 0.2123425,-0.094943 0.2121959,-0.2121958 -9.16e-5,-0.00495 -3.44e-4,-0.00989 -7.938e-4,-0.014817 V 5.0805295 c 5.6e-6,-8.732e-4 5.6e-6,-0.00177 0,-0.00265 -0.00146,-0.116115 -0.096072,-0.2094394 -0.2121958,-0.2092854 z"
     id="path1562"
     style="fill:#ffffff;stroke-width:0.264583" />
  <path
     d="m 8.4666665,2.6458334 c -0.07329,0 -0.132291,0.06258 -0.132291,0.1405599 v 0.7772136 c 0,0.07798 0.059,0.1405598 0.132291,0.1405598 0.07329,0 0.132292,-0.06258 0.132292,-0.1405598 V 2.7863933 c 0,-0.07798 -0.059,-0.1405599 -0.132292,-0.1405599 z M 5.6192953,3.4085775 c -0.02164,1.27e-5 -0.043211,0.0056 -0.063045,0.017052 -0.063471,0.036645 -0.082915,0.1205693 -0.043925,0.188102 l 0.3880901,0.6728272 c 0.03899,0.067533 0.1215311,0.092455 0.1850017,0.05581 0.063471,-0.036645 0.083432,-0.1205693 0.044442,-0.1881021 L 5.7412518,3.4814403 C 5.7144461,3.4350114 5.6669052,3.4085486 5.6192953,3.4085764 Z m 5.6947427,5.291e-4 c -0.04761,-2.8e-5 -0.09515,0.025919 -0.121957,0.072347 l -0.38809,0.6728271 c -0.03899,0.067521 -0.01954,0.1514451 0.04392,0.1880899 0.06347,0.036645 0.146012,0.011721 0.185002,-0.05581 L 11.42152,3.6137335 c 0.03899,-0.067533 0.01903,-0.1514573 -0.04444,-0.1881021 -0.01983,-0.011451 -0.0414,-0.016523 -0.06304,-0.016536 z M 3.5341513,5.4921833 c -0.044279,0.00183 -0.085618,0.024411 -0.1085204,0.064079 -0.036645,0.063471 -0.011724,0.1460117 0.05581,0.1850017 l 0.6728276,0.3886067 c 0.067533,0.03899 0.1514573,0.019029 0.1881021,-0.044442 0.036645,-0.063471 0.011721,-0.1460116 -0.05581,-0.1850017 L 3.6137329,5.5123372 C 3.588407,5.4977163 3.5607186,5.4910832 3.5341513,5.4921839 Z m 9.8515947,0 c -0.02236,0.00116 -0.04504,0.00797 -0.06615,0.020153 l -0.672827,0.3880901 c -0.06753,0.038978 -0.09245,0.1215194 -0.05581,0.18499 0.03664,0.063471 0.120569,0.083432 0.188102,0.044442 l 0.672827,-0.3886067 c 0.06753,-0.03899 0.09245,-0.1215311 0.05581,-0.1850017 -0.02519,-0.043636 -0.07278,-0.066665 -0.121956,-0.064079 z M 2.7863933,8.3343751 c -0.07798,0 -0.1405599,0.059002 -0.1405599,0.1322917 0,0.07329 0.06258,0.1322917 0.1405599,0.1322917 h 0.7772135 c 0.07798,0 0.1405599,-0.059002 0.1405599,-0.1322917 0,-0.07329 -0.06258,-0.1322917 -0.1405599,-0.1322917 z m 10.5833327,0 c -0.07798,0 -0.14056,0.059002 -0.14056,0.1322917 0,0.07329 0.06258,0.1322917 0.14056,0.1322917 h 0.777214 c 0.07798,0 0.14056,-0.059002 0.14056,-0.1322917 0,-0.07329 -0.06258,-0.1322917 -0.14056,-0.1322917 z M 4.2204143,10.783838 c -0.022355,0.0012 -0.045042,0.008 -0.066146,0.02015 l -0.6728272,0.38809 c -0.067533,0.03899 -0.092455,0.121532 -0.05581,0.185003 0.036645,0.06347 0.1205693,0.08343 0.188102,0.04444 l 0.6728273,-0.388606 c 0.067533,-0.03899 0.092455,-0.121531 0.05581,-0.185002 -0.025194,-0.04364 -0.072775,-0.06667 -0.1219563,-0.06408 z m 8.4790687,0 c -0.04428,0.0018 -0.08562,0.02441 -0.10852,0.06408 -0.03664,0.06347 -0.01172,0.146012 0.05581,0.185002 l 0.672827,0.388606 c 0.06753,0.03899 0.151458,0.01903 0.188102,-0.04444 0.03665,-0.06347 0.01172,-0.146012 -0.05581,-0.185002 l -0.672827,-0.38809 c -0.02533,-0.01462 -0.05302,-0.02125 -0.07958,-0.02015 z m -6.6771114,1.790589 c -0.04761,-2.8e-5 -0.095151,0.02592 -0.1219565,0.07235 L 5.512325,13.319604 c -0.03899,0.06753 -0.019545,0.151457 0.043925,0.188102 0.063471,0.03665 0.1460116,0.01172 0.1850017,-0.05581 l 0.3886068,-0.672827 c 0.03899,-0.06753 0.019029,-0.151457 -0.044442,-0.188102 -0.019833,-0.01145 -0.041404,-0.01652 -0.063045,-0.01654 z m 4.8885904,0 c -0.02164,1.2e-5 -0.04321,0.0051 -0.06305,0.01654 -0.06347,0.03665 -0.08291,0.120569 -0.04392,0.188102 l 0.38809,0.672827 c 0.03899,0.06753 0.121531,0.09246 0.185002,0.05581 0.06347,-0.03665 0.08343,-0.120569 0.04444,-0.188102 l -0.388607,-0.672827 c -0.02681,-0.04643 -0.07435,-0.07237 -0.121956,-0.07235 z m -2.4442955,0.65474 c -0.07329,0 -0.132291,0.06258 -0.132291,0.14056 v 0.777213 c 0,0.07798 0.059,0.14056 0.132291,0.14056 0.07329,0 0.132292,-0.06258 0.132292,-0.14056 v -0.777213 c 0,-0.07798 -0.059,-0.14056 -0.132292,-0.14056 z"
     id="path1012"
     style="stroke-width:0.264583;fill:#ffffff" />
  <path
     id="rect845"
     style="opacity:0.2;fill:#000000;stroke-width:0.999999"
     d="M 4 47 L 4 48 C 4 54.648 9.3519997 60 16 60 L 48 60 C 54.648 60 60 54.648 60 48 L 60 47 C 60 53.648 54.648 59 48 59 L 16 59 C 9.3519997 59 4 53.648 4 47 z "
     transform="scale(0.26458334)" />
  <path
     id="rect843"
     style="opacity:0.2;fill:#ffffff;stroke-width:0.999999"
     d="M 16 4 C 9.3519997 4 4 9.3519997 4 16 L 4 17 C 4 10.352 9.3519997 5 16 5 L 48 5 C 54.648 5 60 10.352 60 17 L 60 16 C 60 9.3519997 54.648 4 48 4 L 16 4 z "
     transform="scale(0.26458334)" />
  <path
     id="path2459"
     style="opacity:0.2;fill:#000000;fill-opacity:1;stroke-width:3.27273;stroke-linejoin:round"
     d="M 32 8 A 24.000002 24.000002 0 0 0 8 32 A 24.000002 24.000002 0 0 0 8.0175781 32.490234 A 24.000002 24.000002 0 0 1 32 9 A 24.000002 24.000002 0 0 1 55.988281 32.296875 A 24.000002 24.000002 0 0 0 56 32 A 24.000002 24.000002 0 0 0 32 8 z "
     transform="scale(0.26458334)" />
</svg>
