<?xml version="1.0" encoding="UTF-8" standalone="no"?>
<!-- Created with Inkscape (http://www.inkscape.org/) -->

<svg
   width="64"
   height="64"
   viewBox="0 0 16.933333 16.933334"
   version="1.1"
   id="svg5"
   inkscape:version="1.2 (dc2aedaf03, 2022-05-15)"
   sodipodi:docname="applications-games.svg"
   xmlns:inkscape="http://www.inkscape.org/namespaces/inkscape"
   xmlns:sodipodi="http://sodipodi.sourceforge.net/DTD/sodipodi-0.dtd"
   xmlns="http://www.w3.org/2000/svg"
   xmlns:svg="http://www.w3.org/2000/svg">
  <sodipodi:namedview
     id="namedview7"
     pagecolor="#ffffff"
     bordercolor="#666666"
     borderopacity="1.0"
     inkscape:pageshadow="2"
     inkscape:pageopacity="0.0"
     inkscape:pagecheckerboard="0"
     inkscape:document-units="px"
     showgrid="false"
     units="px"
     height="64px"
     inkscape:zoom="17.456699"
     inkscape:cx="21.309871"
     inkscape:cy="35.917444"
     inkscape:window-width="1920"
     inkscape:window-height="1011"
     inkscape:window-x="0"
     inkscape:window-y="0"
     inkscape:window-maximized="1"
     inkscape:current-layer="svg5"
     inkscape:showpageshadow="2"
     inkscape:deskcolor="#d1d1d1" />
  <defs
     id="defs2" />
  <rect
     style="fill:#f8f8f8;stroke-width:0.264583;fill-opacity:1"
     id="rect846"
     width="14.816667"
     height="14.816667"
     x="1.0583335"
     y="1.0583333"
     ry="3.175" />
  <path
     d="m 4.7609496,5.9949954 v 5.291e-4 c -0.135819,0.1171221 -0.2610897,0.2624209 -0.3513997,0.442867 0,0 -1.226613,2.7045676 -1.23455,4.5862835 0.07214,1.246188 0.7526477,1.402476 0.8821165,1.410767 0.1783292,-0.0028 0.3326678,-0.01395 0.5291667,-0.176217 0.1007182,-0.09084 0.9600889,-0.959737 1.23455,-1.23455 0.2748129,-0.274637 0.3526062,-0.35295 0.7053834,-0.35295 h 1.9404499 v -5.29e-4 h 1.9404506 c 0.352779,0 0.430923,0.07813 0.705384,0.35295 0.274814,0.274637 1.134009,1.143534 1.23455,1.23455 0.196674,0.162277 0.351013,0.17391 0.529167,0.176733 0.129644,-0.0083 0.810149,-0.165272 0.882116,-1.411283 -0.0078,-1.8818929 -1.23455,-4.5862836 -1.23455,-4.5862836 -0.08989,-0.1804948 -0.215175,-0.3257881 -0.350883,-0.442867 0,0 -5.03e-4,1.3e-6 -5.29e-4,0 8e-6,-1.654e-4 -7e-6,-3.44e-4 0,-5.292e-4 -0.0019,-0.00111 -0.312007,-0.1848043 -0.445451,-0.2325439 C 11.184789,5.6237654 10.239333,5.5791506 9.8779241,5.5562501 H 8.4666664 7.0553831 c -0.00295,4.2e-6 -1.2186713,0.0018 -1.8479492,0.2056722 -0.1585065,0.011046 -0.4459675,0.2330609 -0.4459675,0.2330609 -5.292e-4,5.292e-4 -8.02e-5,0 -5.292e-4,0 z"
     style="fill:#000000;fill-opacity:1;stroke-width:0.176388;opacity:0.2"
     id="path583" />
  <path
     d="m 4.7609497,5.730412 v 5.291e-4 C 4.6251307,5.8480632 4.49986,5.993362 4.40955,6.1738081 c 0,0 -1.2266131,2.7045675 -1.23455,4.5862839 0.07214,1.246188 0.7526477,1.402476 0.8821165,1.410767 0.1783292,-0.0028 0.3326678,-0.01395 0.5291667,-0.176217 0.1007182,-0.09084 0.960089,-0.959737 1.2345501,-1.23455 0.2748129,-0.274637 0.3526062,-0.35295 0.7053834,-0.35295 h 1.9404498 v -5.29e-4 h 1.9404505 c 0.352779,0 0.430923,0.07813 0.705384,0.35295 0.274814,0.274637 1.134009,1.143534 1.23455,1.23455 0.196674,0.162277 0.351013,0.17391 0.529167,0.176733 0.129644,-0.0083 0.810149,-0.165272 0.882116,-1.411283 -0.0078,-1.8818934 -1.23455,-4.586284 -1.23455,-4.586284 -0.08989,-0.1804948 -0.215175,-0.3257881 -0.350883,-0.442867 0,0 -5.03e-4,1.3e-6 -5.29e-4,0 8e-6,-1.654e-4 -7e-6,-3.44e-4 0,-5.292e-4 -0.0019,-0.00111 -0.312007,-0.1848043 -0.445451,-0.2325439 C 11.184789,5.359182 10.239333,5.3145672 9.8779245,5.2916667 H 8.4666665 7.0553833 c -0.00295,4.2e-6 -1.2186713,0.0018 -1.8479492,0.2056722 -0.1585066,0.011046 -0.4459676,0.2330609 -0.4459676,0.2330609 -5.292e-4,5.292e-4 -8.02e-5,0 -5.292e-4,0 z"
     style="fill:#333333;fill-opacity:1;stroke-width:0.176388"
     id="path395"
     sodipodi:nodetypes="cccccccsccscccccccccccccccc" />
  <path
     id="rect28732"
     style="fill:#808080;fill-opacity:1;stroke-width:0.203676"
     d="m 5.8208334,6.6145834 v 0.79375 h -0.79375 V 7.9375 h 0.79375 V 8.73125 H 6.35 V 7.9375 H 7.14375 V 7.4083334 H 6.35 v -0.79375 z" />
  <path
     id="path611"
     style="fill:#ffffff;fill-opacity:1;stroke-width:0.176388;opacity:0.2"
     d="M 7.0553834 5.2916667 C 7.0524334 5.2916709 5.8367114 5.2934669 5.2074341 5.4973389 C 5.0489277 5.5083849 4.7614665 5.7303996 4.7614665 5.7303996 L 4.7609498 5.7303996 L 4.7609498 5.7309164 C 4.6251309 5.8480384 4.49986 5.9933375 4.40955 6.1737834 C 4.40955 6.1737834 3.1829369 8.8783527 3.175 10.760067 C 3.1763835 10.783966 3.1783448 10.806726 3.1801677 10.82983 C 3.2651299 8.9619747 4.40955 6.4383668 4.40955 6.4383668 C 4.4998599 6.2579208 4.6251309 6.1126217 4.7609498 5.9954997 L 4.7609498 5.994983 L 4.7614665 5.994983 C 4.7614665 5.994983 5.0489278 5.7729682 5.2074341 5.7619223 C 5.8367114 5.5580503 7.0524334 5.5562543 7.0553834 5.5562501 L 8.4666667 5.5562501 L 9.8779501 5.5562501 C 10.239359 5.5791505 11.184801 5.6237655 11.726933 5.7619223 C 11.860377 5.8096618 12.170484 5.9933562 12.172384 5.9944662 L 12.172384 5.994983 L 12.172901 5.994983 C 12.308608 6.1120618 12.433894 6.2573554 12.523783 6.43785 C 12.523783 6.43785 13.668318 8.9613096 13.753166 10.829313 C 13.754985 10.806212 13.756953 10.783446 13.758333 10.75955 C 13.750533 8.877659 12.523783 6.1732667 12.523783 6.1732667 C 12.433894 5.992772 12.308608 5.8474784 12.172901 5.7303996 L 12.172384 5.7303996 L 12.172384 5.7298829 C 12.170484 5.7287729 11.860377 5.5450785 11.726933 5.4973389 C 11.184801 5.3591822 10.239358 5.3145672 9.8779501 5.2916667 L 8.4666667 5.2916667 L 7.0553834 5.2916667 z " />
  <path
     id="rect845"
     style="opacity:0.2;fill:#000000;stroke-width:0.999999"
     d="M 4 47 L 4 48 C 4 54.648 9.3519997 60 16 60 L 48 60 C 54.648 60 60 54.648 60 48 L 60 47 C 60 53.648 54.648 59 48 59 L 16 59 C 9.3519997 59 4 53.648 4 47 z "
     transform="scale(0.26458334)" />
  <path
     id="rect843"
     style="opacity:0.2;fill:#ffffff;stroke-width:0.999999"
     d="M 16 4 C 9.3519997 4 4 9.3519997 4 16 L 4 17 C 4 10.352 9.3519997 5 16 5 L 48 5 C 54.648 5 60 10.352 60 17 L 60 16 C 60 9.3519997 54.648 4 48 4 L 16 4 z "
     transform="scale(0.26458334)" />
  <circle
     style="opacity:1;fill:#d03737;stroke-width:0.264583;fill-opacity:1"
     id="path737"
     cx="11.773955"
     cy="7.5406251"
     r="0.39687502" />
  <circle
     style="opacity:1;fill:#69cf44;stroke-width:0.264583;fill-opacity:1"
     id="path739"
     cx="10.980206"
     cy="8.3343744"
     r="0.39687502" />
  <circle
     style="opacity:1;fill:#1084f6;stroke-width:0.264583;fill-opacity:1"
     id="path741"
     cx="10.186457"
     cy="7.5406256"
     r="0.39687502" />
  <circle
     style="opacity:1;fill:#eac509;stroke-width:0.264583;fill-opacity:1"
     id="path743"
     cx="10.980206"
     cy="6.7468753"
     r="0.39687502" />
</svg>
