<?xml version="1.0" encoding="UTF-8" standalone="no"?>
<!-- Created with Inkscape (http://www.inkscape.org/) -->

<svg
   width="64"
   height="64"
   viewBox="0 0 16.933333 16.933334"
   version="1.1"
   id="svg5"
   inkscape:version="1.2 (dc2aedaf03, 2022-05-15)"
   sodipodi:docname="applications-internet.svg"
   xmlns:inkscape="http://www.inkscape.org/namespaces/inkscape"
   xmlns:sodipodi="http://sodipodi.sourceforge.net/DTD/sodipodi-0.dtd"
   xmlns="http://www.w3.org/2000/svg"
   xmlns:svg="http://www.w3.org/2000/svg">
  <sodipodi:namedview
     id="namedview7"
     pagecolor="#ffffff"
     bordercolor="#666666"
     borderopacity="1.0"
     inkscape:pageshadow="2"
     inkscape:pageopacity="0.0"
     inkscape:pagecheckerboard="0"
     inkscape:document-units="px"
     showgrid="false"
     units="px"
     height="64px"
     inkscape:zoom="12.34375"
     inkscape:cx="31.959494"
     inkscape:cy="32"
     inkscape:window-width="1920"
     inkscape:window-height="1011"
     inkscape:window-x="0"
     inkscape:window-y="0"
     inkscape:window-maximized="1"
     inkscape:current-layer="svg5"
     inkscape:showpageshadow="2"
     inkscape:deskcolor="#d1d1d1" />
  <defs
     id="defs2" />
  <rect
     style="fill:#4bc4f7;stroke-width:0.264583;fill-opacity:1"
     id="rect846"
     width="14.816667"
     height="14.816667"
     x="1.0583335"
     y="1.0583333"
     ry="3.175" />
  <path
     d="M 8.4666665,4.4979167 C 7.0018035,4.4990867 5.6752292,5.3634162 5.0823768,6.70295 3.6540929,7.0445139 2.6464327,8.3210263 2.6458333,9.7895835 c 0,1.7535035 1.4214959,3.1749995 3.1749999,3.1749995 H 11.90625 c 1.315128,0 2.38125,-1.066122 2.38125,-2.38125 1.1e-4,-1.2130235 -0.911642,-2.2322626 -2.117184,-2.3667796 1.82e-4,-0.0048 3.54e-4,-0.0096 5.17e-4,-0.01447 0,-2.045755 -1.658412,-3.7041671 -3.7041665,-3.7041667 z"
     style="fill:#000000;stroke-width:0.176389;opacity:0.2"
     id="path14044" />
  <path
     id="path867"
     style="fill:#ffffff;stroke-width:0.176389"
     d="M 8.4666666,4.2333334 C 7.0018036,4.2345034 5.6752293,5.0988328 5.0823769,6.4383666 3.6540929,6.7799305 2.6464327,8.0564429 2.6458333,9.5249999 2.6458333,11.278504 4.0673292,12.7 5.8208333,12.7 H 11.90625 c 1.315128,0 2.38125,-1.066122 2.38125,-2.38125 1.1e-4,-1.2130241 -0.911642,-2.2322631 -2.117184,-2.3667801 1.82e-4,-0.0048 3.54e-4,-0.0096 5.17e-4,-0.01447 0,-2.045755 -1.658412,-3.704167 -3.7041664,-3.7041665 z"
     sodipodi:nodetypes="ccccccccc" />
  <path
     id="rect845"
     style="opacity:0.2;fill:#000000;stroke-width:0.999999"
     d="M 4 47 L 4 48 C 4 54.648 9.3519997 60 16 60 L 48 60 C 54.648 60 60 54.648 60 48 L 60 47 C 60 53.648 54.648 59 48 59 L 16 59 C 9.3519997 59 4 53.648 4 47 z "
     transform="scale(0.26458334)" />
  <path
     id="rect843"
     style="opacity:0.2;fill:#ffffff;stroke-width:0.999999"
     d="M 16 4 C 9.3519997 4 4 9.3519997 4 16 L 4 17 C 4 10.352 9.3519997 5 16 5 L 48 5 C 54.648 5 60 10.352 60 17 L 60 16 C 60 9.3519997 54.648 4 48 4 L 16 4 z "
     transform="scale(0.26458334)" />
</svg>
