<?xml version="1.0" encoding="UTF-8" standalone="no"?>
<!-- Created with Inkscape (http://www.inkscape.org/) -->

<svg
   width="64"
   height="64"
   viewBox="0 0 16.933333 16.933334"
   version="1.1"
   id="svg5"
   inkscape:version="1.2 (dc2aedaf03, 2022-05-15)"
   sodipodi:docname="disk-utility.svg"
   xmlns:inkscape="http://www.inkscape.org/namespaces/inkscape"
   xmlns:sodipodi="http://sodipodi.sourceforge.net/DTD/sodipodi-0.dtd"
   xmlns:xlink="http://www.w3.org/1999/xlink"
   xmlns="http://www.w3.org/2000/svg"
   xmlns:svg="http://www.w3.org/2000/svg">
  <sodipodi:namedview
     id="namedview7"
     pagecolor="#ffffff"
     bordercolor="#666666"
     borderopacity="1.0"
     inkscape:pageshadow="2"
     inkscape:pageopacity="0.0"
     inkscape:pagecheckerboard="0"
     inkscape:document-units="px"
     showgrid="false"
     units="px"
     height="64px"
     inkscape:zoom="12.34375"
     inkscape:cx="32"
     inkscape:cy="32"
     inkscape:window-width="1920"
     inkscape:window-height="1011"
     inkscape:window-x="0"
     inkscape:window-y="0"
     inkscape:window-maximized="1"
     inkscape:current-layer="svg5"
     inkscape:showpageshadow="2"
     inkscape:deskcolor="#d1d1d1" />
  <defs
     id="defs2">
    <linearGradient
       inkscape:collect="always"
       xlink:href="#linearGradient10743"
       id="linearGradient10745"
       x1="2.9104166"
       y1="2.9104371"
       x2="5.6719961"
       y2="4.4845524"
       gradientUnits="userSpaceOnUse"
       gradientTransform="translate(1.8520833,2.3812499)" />
    <linearGradient
       inkscape:collect="always"
       id="linearGradient10743">
      <stop
         style="stop-color:#b3b3b3;stop-opacity:1;"
         offset="0"
         id="stop10739" />
      <stop
         style="stop-color:#ffffff;stop-opacity:1"
         offset="1"
         id="stop10741" />
    </linearGradient>
    <linearGradient
       inkscape:collect="always"
       xlink:href="#linearGradient10743"
       id="linearGradient11167"
       x1="33.111916"
       y1="11.271812"
       x2="49.959011"
       y2="44.755169"
       gradientUnits="userSpaceOnUse"
       gradientTransform="matrix(0.26458334,0,0,0.26458334,1.8520833,1.8520833)" />
    <linearGradient
       inkscape:collect="always"
       xlink:href="#linearGradient10743"
       id="linearGradient20713"
       x1="24"
       y1="27.5"
       x2="34"
       y2="31.5"
       gradientUnits="userSpaceOnUse"
       gradientTransform="matrix(0.26458334,0,0,0.26458334,1.3229164,1.5874996)" />
  </defs>
  <rect
     style="fill:#4d4d4d;stroke-width:0.264583;fill-opacity:1"
     id="rect846"
     width="14.816667"
     height="14.816667"
     x="1.0583335"
     y="1.0583333"
     ry="3.175" />
  <path
     d="M 5.2921733,2.9104305 C 4.6788395,2.9102618 4.1657302,3.3762911 4.1067158,3.9868506 L 3.1806741,12.188934 c -0.017243,0.17939 0.00591,0.352704 0.062012,0.51108 h -0.067696 l 0.2645833,1.058334 c 0.1422029,0.568811 0.4720176,1.058333 1.0583334,1.058333 h 7.9375002 c 0.586316,0 0.916129,-0.489522 1.058333,-1.058333 l 0.264584,-1.058334 h -0.0677 c 0.0561,-0.158376 0.07925,-0.33169 0.06201,-0.51108 L 12.826598,3.9868506 C 12.767584,3.3762911 12.254475,2.9102615 11.64114,2.9104305 Z"
     style="opacity:0.2;fill:#1a1a1a;fill-opacity:1;stroke-width:2.88651;stroke-linecap:round;stroke-linejoin:round"
     id="path3343" />
  <path
     id="rect1078-8"
     style="fill:#5e5e5e;fill-opacity:1;stroke-width:2.88651;stroke-linecap:round;stroke-linejoin:round"
     d="m 13.758335,12.435417 -0.264584,1.058333 c -0.142204,0.568812 -0.472016,1.058333 -1.058333,1.058333 H 4.4979166 c -0.5863164,0 -0.9161299,-0.489521 -1.0583329,-1.058333 L 3.1750001,12.435417 Z"
     sodipodi:nodetypes="csssscc" />
  <circle
     style="fill:#74cc49;fill-opacity:1;stroke:none;stroke-width:2.38125;stroke-linecap:round;stroke-linejoin:round;stroke-miterlimit:4;stroke-dasharray:none;stroke-opacity:1"
     id="path16342-9"
     cx="12.170835"
     cy="14.022917"
     r="0.26458335" />
  <path
     style="color:#000000;fill:#dbdbdb;fill-opacity:1;stroke:none;stroke-width:0.999985;stroke-linecap:round;stroke-linejoin:round;-inkscape-stroke:none"
     d="M 5.2922553,2.6458334 C 4.6789208,2.6456647 4.165805,3.1114962 4.1067905,3.7220563 L 3.1805717,11.924418 c -0.067243,0.699566 0.4827557,1.304907 1.1854649,1.304749 h 8.2012614 c 0.702709,1.58e-4 1.252708,-0.605183 1.185465,-1.304749 L 12.826548,3.7220563 C 12.767534,3.1114962 12.254418,2.6456644 11.641083,2.6458334 Z"
     id="path3247"
     sodipodi:nodetypes="ccccccccc" />
  <path
     id="path3247-7"
     style="color:#000000;fill:#b3b3b3;fill-opacity:1;stroke:none;stroke-width:0.999985;stroke-linecap:round;stroke-linejoin:round;-inkscape-stroke:none"
     d="m 3.1822348,12.170834 -0.00155,0.01912 c -0.06724,0.699565 0.4827485,1.304987 1.1854575,1.304829 h 8.2010507 c 0.702709,1.58e-4 1.252701,-0.605264 1.185458,-1.30483 l -0.0016,-0.01912 c -0.06471,0.58984 -0.565066,1.059508 -1.183897,1.059368 H 4.3661419 C 3.7473113,13.23034 3.2469558,12.760672 3.1822348,12.170834 Z"
     sodipodi:nodetypes="ccccccccc" />
  <path
     id="rect5838"
     style="fill:url(#linearGradient10745);fill-opacity:1;stroke-width:2.38125;stroke-linecap:round;stroke-linejoin:round"
     d="m 5.8232059,3.9687501 c -0.4397375,0 -0.7565815,0.3555861 -0.79375,0.79375 L 4.8947918,6.3500002 c -0.037168,0.4381639 0.3540125,0.79375 0.79375,0.79375 0.586895,0.034865 1.937615,-0.1538032 2.5159143,-2.3812501 0.043755,-0.4375552 -0.3540125,-0.79375 -0.79375,-0.79375 z m 0,0.2645834 h 1.5875002 c 0.2931583,0 0.558337,0.2374633 0.5291667,0.5291666 -0.2142606,0.8653757 -0.696995,2.1126051 -2.251331,2.1166668 -0.2931583,0 -0.5539457,-0.2370577 -0.5291667,-0.5291667 L 5.2940393,4.7625001 C 5.3188183,4.4703912 5.5300476,4.2333335 5.8232059,4.2333335 Z"
     sodipodi:nodetypes="sssccssssccsss" />
  <path
     id="path6940"
     style="fill:url(#linearGradient11167);fill-opacity:1;stroke:none;stroke-width:2.47707;stroke-linecap:round;stroke-linejoin:round;stroke-miterlimit:4;stroke-dasharray:none;stroke-opacity:1"
     d="m 10.054167,3.9687501 c -0.439738,0 -1.0317367,0.1638562 -1.3229171,0.79375 C 8.4529771,5.7094152 8.5404797,6.4017804 7.0858726,7.516854 4.5962929,8.2638268 4.4979168,10.054168 4.4979168,10.054168 4.4866728,12.400747 7.0855083,12.695545 8.4666923,12.7 10.232744,12.7057 12.442212,11.845255 12.435418,10.054168 L 11.906252,4.7625001 c -0.04376,-0.4375559 -0.354012,-0.79375 -0.79375,-0.79375 z m 0,0.2645834 h 1.058335 c 0.293158,0 0.508279,0.2367533 0.529166,0.5291666 l 0.438216,4.548043 -0.0021,-0.00414 0.0708,0.4454516 c 0.0078,0.06519 0.01266,0.1304967 0.01447,0.1958527 l 5.3e-4,0.0083 c 0.0031,0.03271 0.0056,0.06544 0.0072,0.09819 -0.01465,1.528557 -2.157466,2.38072 -3.7041427,2.381251 C 6.9258506,12.435977 4.7624491,11.953795 4.7624491,10.054165 4.8100501,9.3089722 5.6701166,8.1777451 7.2093283,7.7431945 l 0.024805,0.00878 C 8.8129356,6.7560664 8.7670194,5.8285023 9.0619793,4.7625001 9.2732513,4.2757976 9.7610087,4.2333335 10.054167,4.2333335 Z"
     sodipodi:nodetypes="scccscssssscccccccsccccs" />
  <path
     id="path15442-6-1"
     style="fill:#666666;fill-opacity:1;stroke:none;stroke-width:2.11315;stroke-linecap:round;stroke-linejoin:round;stroke-miterlimit:4;stroke-dasharray:none;stroke-opacity:1"
     d="m 11.503172,3.1212566 a 0.46302085,0.35718751 0 0 0 -0.192236,0.289388 0.46302085,0.35718751 0 0 0 0.463021,0.357601 0.46302085,0.35718751 0 0 0 0.463021,-0.357601 0.46302085,0.35718751 0 0 0 -0.190686,-0.2888712 0.39687501,0.29104167 0 0 1 0.12454,0.2118734 0.39687501,0.29104167 0 0 1 -0.396875,0.2909383 0.39687501,0.29104167 0 0 1 -0.396875,-0.2909383 0.39687501,0.29104167 0 0 1 0.12609,-0.2123902 z" />
  <ellipse
     style="fill:#999999;fill-opacity:1;stroke:none;stroke-width:1.76599;stroke-linecap:round;stroke-linejoin:round;stroke-miterlimit:4;stroke-dasharray:none;stroke-opacity:1"
     id="path15442-2"
     cx="4.3656249"
     cy="12.197293"
     rx="0.39687499"
     ry="0.29104167" />
  <ellipse
     style="fill:#999999;fill-opacity:1;stroke:none;stroke-width:1.76599;stroke-linecap:round;stroke-linejoin:round;stroke-miterlimit:4;stroke-dasharray:none;stroke-opacity:1"
     id="path15442-6-9"
     cx="12.597992"
     cy="12.197293"
     rx="0.39687499"
     ry="0.29104167" />
  <path
     id="path15442-6-1-2"
     style="fill:#666666;fill-opacity:1;stroke:none;stroke-width:2.11315;stroke-linecap:round;stroke-linejoin:round;stroke-miterlimit:4;stroke-dasharray:none;stroke-opacity:1"
     d="m 5.1387046,3.0427084 a 0.39687501,0.29104167 0 0 1 0.016536,5.16e-4 0.46302085,0.35718751 0 0 0 -0.016536,-5.16e-4 z m 0.020153,5.16e-4 A 0.39687501,0.29104167 0 0 1 5.5262774,3.3336459 0.39687501,0.29104167 0 0 1 5.1294024,3.6245843 0.39687501,0.29104167 0 0 1 4.7325273,3.3336459 0.39687501,0.29104167 0 0 1 5.0431027,3.0499423 0.46302085,0.35718751 0 0 0 4.6699989,3.3997918 0.46302085,0.35718751 0 0 0 5.1330197,3.7568759 0.46302085,0.35718751 0 0 0 5.5960406,3.3997918 0.46302085,0.35718751 0 0 0 5.1588576,3.0432244 Z" />
  <path
     id="path15442-6-1-6"
     style="fill:#666666;fill-opacity:1;stroke:none;stroke-width:2.11315;stroke-linecap:round;stroke-linejoin:round;stroke-miterlimit:4;stroke-dasharray:none;stroke-opacity:1"
     d="m 12.323277,11.984797 a 0.46302085,0.35718751 0 0 0 -0.192236,0.289388 0.46302085,0.35718751 0 0 0 0.463021,0.357601 0.46302085,0.35718751 0 0 0 0.463021,-0.357601 0.46302085,0.35718751 0 0 0 -0.190686,-0.288871 0.39687501,0.29104167 0 0 1 0.12454,0.211874 0.39687501,0.29104167 0 0 1 -0.396875,0.290938 0.39687501,0.29104167 0 0 1 -0.396875,-0.290938 0.39687501,0.29104167 0 0 1 0.12609,-0.212391 z" />
  <path
     id="path15442-6-1-2-0"
     style="fill:#666666;fill-opacity:1;stroke:none;stroke-width:2.11315;stroke-linecap:round;stroke-linejoin:round;stroke-miterlimit:4;stroke-dasharray:none;stroke-opacity:1"
     d="m 4.37131,11.906249 a 0.39687501,0.29104167 0 0 1 0.016536,5.16e-4 0.46302085,0.35718751 0 0 0 -0.016536,-5.16e-4 z m 0.020153,5.16e-4 a 0.39687501,0.29104167 0 0 1 0.3674197,0.290422 0.39687501,0.29104167 0 0 1 -0.3968749,0.290938 0.39687501,0.29104167 0 0 1 -0.3968751,-0.290938 0.39687501,0.29104167 0 0 1 0.3105754,-0.283704 0.46302085,0.35718751 0 0 0 -0.3731038,0.34985 0.46302085,0.35718751 0 0 0 0.4630208,0.357084 0.46302085,0.35718751 0 0 0 0.4630208,-0.357084 0.46302085,0.35718751 0 0 0 -0.4371829,-0.356568 z" />
  <ellipse
     style="fill:#999999;fill-opacity:1;stroke:none;stroke-width:1.76599;stroke-linecap:round;stroke-linejoin:round;stroke-miterlimit:4;stroke-dasharray:none;stroke-opacity:1"
     id="path15442"
     cx="5.1290898"
     cy="3.3337498"
     rx="0.39687499"
     ry="0.29104167" />
  <ellipse
     style="fill:#999999;fill-opacity:1;stroke:none;stroke-width:1.76599;stroke-linecap:round;stroke-linejoin:round;stroke-miterlimit:4;stroke-dasharray:none;stroke-opacity:1"
     id="path15442-6"
     cx="11.77396"
     cy="3.3337498"
     rx="0.39687499"
     ry="0.29104167" />
  <path
     id="path20461"
     style="fill:url(#linearGradient20713);fill-opacity:1;stroke:none;stroke-width:2.25905;stroke-linecap:round;stroke-linejoin:round;stroke-miterlimit:4;stroke-dasharray:none;stroke-opacity:1"
     d="M 8.4666667,8.7312499 A 1.8520834,1.190625 0 0 0 6.6145833,9.9218744 1.8520834,1.190625 0 0 0 8.4666667,11.1125 1.8520834,1.190625 0 0 0 10.31875,9.9218744 1.8520834,1.190625 0 0 0 8.5782878,8.7338338 1.5875,1.0583334 0 0 1 10.054167,9.7895834 1.5875,1.0583334 0 0 1 8.4666667,10.847917 1.5875,1.0583334 0 0 1 6.8791666,9.7895834 1.5875,1.0583334 0 0 1 8.4666667,8.7312499 Z" />
  <path
     id="rect845"
     style="opacity:0.2;fill:#000000;stroke-width:0.999999"
     d="M 4 47 L 4 48 C 4 54.648 9.3519997 60 16 60 L 48 60 C 54.648 60 60 54.648 60 48 L 60 47 C 60 53.648 54.648 59 48 59 L 16 59 C 9.3519997 59 4 53.648 4 47 z "
     transform="scale(0.26458334)" />
  <path
     id="rect843"
     style="opacity:0.2;fill:#ffffff;stroke-width:0.999999"
     d="M 16 4 C 9.3519997 4 4 9.3519997 4 16 L 4 17 C 4 10.352 9.3519997 5 16 5 L 48 5 C 54.648 5 60 10.352 60 17 L 60 16 C 60 9.3519997 54.648 4 48 4 L 16 4 z "
     transform="scale(0.26458334)" />
  <circle
     style="fill:#e6e6e6;fill-opacity:1;stroke-width:0.846667;stroke-linejoin:round"
     id="path849"
     cx="12.170834"
     cy="12.170834"
     r="4.2333336" />
  <circle
     style="fill:#666666;fill-opacity:1;stroke-width:0.854808;stroke-linejoin:round"
     id="path1107"
     cx="12.170834"
     cy="12.170834"
     r="3.7041667" />
  <path
     d="m 13.989579,9.3440232 -0.142875,0.3815289 c -0.0093,0.02514 0,0.05821 0.02117,0.07461 l 0.168275,0.128587 c 0.02064,0.01587 0.05556,0.01667 0.07752,0.0011 l 0.331259,-0.2365383 c 0.02295,-0.01548 0.0536,-0.01284 0.07355,0.0063 l 0.138906,0.1386423 c 0.0191,0.02002 0.02164,0.05066 0.0061,0.07355 l -0.236538,0.3312589 c -0.0154,0.0237 -0.01488,0.05437 0.0013,0.07752 l 0.128852,0.168011 c 0.01588,0.02064 0.04974,0.03069 0.07461,0.02117 l 0.381,-0.142875 c 0.02614,-0.009 0.05501,0.0015 0.06932,0.02514 l 0.09816,0.169862 c 0.01376,0.02381 0.0077,0.05556 -0.01323,0.07276 l -0.314325,0.258762 c -0.02104,0.01885 -0.02848,0.04861 -0.01879,0.07514 l 0.0807,0.195792 c 0.01005,0.02381 0.03995,0.04233 0.06668,0.03969 l 0.405342,-0.03942 c 0.02646,-0.0026 0.05398,0.01614 0.06085,0.04207 l 0.05053,0.189706 c 0.0068,0.02682 -0.0063,0.05469 -0.03122,0.06668 l -0.371211,0.16854 c -0.02535,0.01275 -0.04027,0.03975 -0.03757,0.068 l 0.02778,0.20955 c 0.0051,0.02771 0.02642,0.04963 0.05397,0.05556 l 0.401902,0.06694 c 0.02646,0.0045 0.04763,0.02963 0.04763,0.05636 v 0.196321 c -5.56e-4,0.02763 -0.02045,0.05107 -0.04763,0.05609 l -0.401373,0.06694 c -0.0277,0.0057 -0.04911,0.02771 -0.05397,0.05556 l -0.02752,0.210079 c -0.0022,0.02813 0.01274,0.05483 0.03784,0.06773 l 0.370416,0.16854 c 0.02462,0.01228 0.03755,0.0399 0.03122,0.06668 l -0.05053,0.189441 c -0.0076,0.02681 -0.03307,0.04453 -0.06086,0.04233 l -0.404812,-0.03942 c -0.02828,-0.0018 -0.05474,0.01399 -0.06668,0.03969 l -0.08123,0.195792 c -0.0095,0.02654 -0.0021,0.05622 0.01878,0.07514 l 0.31459,0.258762 c 0.02064,0.0172 0.02646,0.04948 0.01323,0.07276 l -0.09843,0.169862 c -0.01434,0.02377 -0.04336,0.03425 -0.06959,0.02514 l -0.38153,-0.142875 c -0.02678,-0.0088 -0.05621,-3.97e-4 -0.07435,0.02117 l -0.128588,0.168011 c -0.01599,0.02323 -0.01651,0.05377 -0.0013,0.07752 l 0.236538,0.331523 c 0.01555,0.02289 0.01302,0.05353 -0.0061,0.07355 l -0.138906,0.138641 c -0.01996,0.01919 -0.0506,0.02183 -0.07355,0.0063 L 14.113897,14.44276 c -0.0237,-0.0154 -0.05437,-0.01488 -0.07752,0.0013 l -0.168275,0.128852 c -0.02138,0.01826 -0.02972,0.04756 -0.02117,0.07435 l 0.142875,0.381264 c 0.009,0.02614 -0.0015,0.05501 -0.02514,0.06932 l -0.169863,0.0979 c -0.02419,0.01335 -0.05443,0.0079 -0.07249,-0.01296 l -0.259027,-0.314325 c -0.01885,-0.02104 -0.04861,-0.02848 -0.07514,-0.01879 l -0.195527,0.0807 c -0.02535,0.01217 -0.04097,0.03832 -0.03969,0.06641 l 0.03916,0.405607 c 0.0026,0.02646 -0.01588,0.05371 -0.04207,0.06085 l -0.189442,0.05053 c -0.02689,0.0067 -0.05478,-0.0065 -0.06668,-0.03148 l -0.168804,-0.370946 c -0.01271,-0.02525 -0.03958,-0.04015 -0.06773,-0.03757 l -0.209815,0.02752 c -0.02779,0.0052 -0.04972,0.02658 -0.05556,0.05424 l -0.06694,0.401638 c -0.0053,0.02702 -0.02857,0.04678 -0.05609,0.04763 h -0.19632 c -0.02773,-4.23e-4 -0.05132,-0.02035 -0.05636,-0.04763 l -0.06668,-0.401372 c -0.0058,-0.0276 -0.02778,-0.04888 -0.05556,-0.05371 l -0.210079,-0.02752 c -0.02813,-0.0022 -0.05483,0.01274 -0.06773,0.03783 l -0.168539,0.370417 c -0.01228,0.02462 -0.0399,0.03755 -0.06668,0.03122 l -0.189707,-0.0508 c -0.0267,-0.0077 -0.04429,-0.03315 -0.04207,-0.06085 l 0.03916,-0.404813 c 0.0016,-0.02818 -0.01408,-0.05451 -0.03969,-0.06641 l -0.195791,-0.08123 c -0.02641,-0.0095 -0.05594,-0.0022 -0.07488,0.01852 l -0.259027,0.314855 c -0.01821,0.02086 -0.04847,0.02625 -0.07276,0.01296 l -0.169862,-0.09816 c -0.02367,-0.01442 -0.03404,-0.04343 -0.02487,-0.06959 l 0.142875,-0.381529 c 0.0088,-0.02678 3.97e-4,-0.05621 -0.02117,-0.07435 l -0.168275,-0.128852 c -0.02328,-0.01591 -0.05382,-0.01633 -0.07752,-0.0011 l -0.3312142,0.236661 c -0.02289,0.01555 -0.05353,0.01302 -0.07355,-0.0061 l -0.13891,-0.138891 c -0.0191,-0.02002 -0.02164,-0.05066 -0.0061,-0.07355 l 0.236538,-0.331259 c 0.0154,-0.02369 0.01488,-0.05437 -0.0013,-0.07752 l -0.129117,-0.16801 c -0.01822,-0.02127 -0.04738,-0.0296 -0.07408,-0.02117 l -0.38153,0.142875 c -0.02614,0.009 -0.05501,-0.0015 -0.06932,-0.02513 l -0.0979,-0.169863 c -0.0135,-0.02426 -0.0081,-0.05466 0.01296,-0.07276 l 0.314579,-0.258772 c 0.02095,-0.01891 0.02828,-0.04866 0.01852,-0.07514 l -0.0807,-0.195793 c -0.01214,-0.02526 -0.03815,-0.04087 -0.06615,-0.03969 l -0.405871,0.03969 c -0.02763,0.0019 -0.05283,-0.01575 -0.06059,-0.04233 l -0.0508,-0.189442 c -0.0067,-0.02695 0.0066,-0.05487 0.03175,-0.06668 l 0.370681,-0.168804 c 0.02536,-0.01263 0.04037,-0.03952 0.03784,-0.06773 l -0.02778,-0.209814 c -0.0051,-0.02771 -0.02642,-0.04963 -0.05397,-0.05556 l -0.401901,-0.06694 c -0.02711,-0.0053 -0.0469,-0.02874 -0.04763,-0.05636 v -0.196057 c 4.23e-4,-0.02773 0.02035,-0.05132 0.04763,-0.05636 l 0.401373,-0.06694 c 0.0276,-0.0058 0.04888,-0.02778 0.05371,-0.05556 l 0.02752,-0.209815 c 0.0023,-0.02817 -0.01249,-0.05497 -0.03757,-0.068 l -0.370417,-0.168535 c -0.02473,-0.0122 -0.03778,-0.03983 -0.03148,-0.06668 l 0.0508,-0.189442 c 0.0071,-0.02646 0.0344,-0.04498 0.06085,-0.04233 l 0.404813,0.03942 c 0.02828,0.0018 0.05474,-0.01399 0.06668,-0.03969 l 0.08123,-0.195791 c 0.0095,-0.02654 0.0021,-0.05622 -0.01879,-0.07514 l -0.31459,-0.258758 c -0.02095,-0.01814 -0.02645,-0.04841 -0.01323,-0.07276 l 0.09816,-0.169862 c 0.01442,-0.02367 0.04343,-0.03404 0.06959,-0.02487 l 0.381793,0.142875 c 0.02487,0.0093 0.05821,-2.65e-4 0.07408,-0.02117 l 0.128852,-0.168275 c 0.01591,-0.02328 0.01633,-0.05382 0.0011,-0.07752 L 9.6773998,9.9118194 c -0.01534,-0.02289 -0.0127,-0.05337 0.0063,-0.07329 l 0.138906,-0.1389073 c 0.01996,-0.01919 0.0506,-0.02183 0.07355,-0.0063 L 10.22715,9.9298604 c 0.02369,0.0154 0.05437,0.01488 0.07752,-0.0013 l 0.16801,-0.128852 c 0.02138,-0.01826 0.02972,-0.04756 0.02117,-0.07435 L 10.351029,9.3442878 c -0.0091,-0.026284 0.0015,-0.055326 0.0254,-0.069585 l 0.169862,-0.097896 c 0.02419,-0.013351 0.05443,-0.00794 0.0725,0.012965 l 0.259027,0.314325 c 0.01693,0.020637 0.05054,0.029104 0.07488,0.01905 l 0.195792,-0.080963 c 0.02381,-0.010054 0.04233,-0.039687 0.03969,-0.06641 L 11.14876,8.9701676 c -0.002,-0.027724 0.01565,-0.053073 0.04233,-0.060854 l 0.189442,-0.050271 c 0.02682,-0.00675 0.05469,0.00629 0.06668,0.031221 l 0.168804,0.3709458 c 0.01271,0.025252 0.03958,0.040155 0.06773,0.037571 l 0.209815,-0.027517 c 0.02771,-0.00513 0.04963,-0.026421 0.05556,-0.053975 l 0.06694,-0.4019021 c 0.0042,-0.026458 0.02963,-0.047625 0.05609,-0.047625 h 0.196321 c 0.02763,5.556e-4 0.05107,0.020447 0.05609,0.047625 l 0.06694,0.4013729 c 0.0045,0.026458 0.0291,0.050271 0.05556,0.05371 l 0.210079,0.027517 c 0.02807,0.00222 0.05475,-0.012581 0.06773,-0.037571 l 0.168539,-0.370417 c 0.0122,-0.024725 0.03983,-0.037776 0.06668,-0.031485 l 0.189706,0.0508 c 0.02646,0.00714 0.04472,0.034131 0.04207,0.060854 l -0.03916,0.4048125 c -0.0016,0.028183 0.01408,0.054514 0.03969,0.06641 l 0.195792,0.081492 c 0.02381,0.00979 0.05821,0.00159 0.07488,-0.018785 l 0.259027,-0.3148541 c 0.01817,-0.020725 0.04827,-0.026107 0.0725,-0.012965 l 0.169862,0.09816 c 0.02381,0.013758 0.0344,0.044715 0.02514,0.069585 z M 13.339233,10.157089 C 12.810721,9.8508744 12.183286,9.7638724 11.591395,9.9147304 c -0.110066,0.02805 -0.04551,0.0127 -0.04551,0.0127 -0.153194,0.05239 -0.214312,0.2100796 -0.137054,0.3511026 0,0 -0.04445,-0.08123 0.0037,0.0061 l 0.687388,1.254125 c 0.103716,0.189442 0.362479,0.338931 0.578643,0.334698 l 1.523736,-0.03175 c 0.09419,-0.0021 0,0 0,0 0.156104,-0.0034 0.257969,-0.134937 0.223837,-0.28231 -0.163778,-0.592109 -0.554163,-1.095893 -1.086643,-1.402292 z m -0.03837,4.079081 c 0.534665,-0.295464 0.932337,-0.788589 1.107811,-1.373716 0.03281,-0.10848 0.0127,-0.04524 0.0127,-0.04524 0.0344,-0.158486 -0.06959,-0.291836 -0.230188,-0.29845 0,0 0.0926,0.0037 -0.0071,0 l -1.429015,-0.05689 c -0.215635,-0.0087 -0.477308,0.136261 -0.584729,0.323586 l -0.757767,1.322387 c -0.04683,0.08202 0,0 0,0 -0.07752,0.135996 -0.01693,0.290777 0.127,0.337344 0,0 -0.09102,-0.02513 0,0 0.59176,0.164566 1.224524,0.08948 1.761331,-0.209021 z M 10.52803,13.863108 c 0.112448,0.101071 0.277019,0.07593 0.3556,-0.05927 0,0 -0.04763,0.08149 0,0 l 0.766233,-1.31736 c 0.10848,-0.186796 0.103188,-0.485775 -0.01191,-0.668073 l -0.763587,-1.209146 c -0.05345,-0.08467 -0.0037,-0.0061 -0.0037,-0.0061 -0.08573,-0.135995 -0.25347,-0.159014 -0.373591,-0.05027 0,0 0.04498,-0.04921 -0.03281,0.0336 -0.418955,0.444552 -0.6471792,1.035483 -0.6357932,1.646237 0.0098,0.614261 0.2612322,1.199924 0.6998232,1.630098 z"
     style="fill:#ffffff;stroke-width:0.264583;image-rendering:optimizeSpeed"
     id="path864" />
</svg>
