<?xml version="1.0" encoding="UTF-8" standalone="no"?>
<!-- Created with Inkscape (http://www.inkscape.org/) -->

<svg
   width="64"
   height="64"
   viewBox="0 0 16.933333 16.933334"
   version="1.1"
   id="svg5"
   inkscape:version="1.1.2 (0a00cf5339, 2022-02-04, custom)"
   sodipodi:docname="elisa.svg"
   xmlns:inkscape="http://www.inkscape.org/namespaces/inkscape"
   xmlns:sodipodi="http://sodipodi.sourceforge.net/DTD/sodipodi-0.dtd"
   xmlns="http://www.w3.org/2000/svg"
   xmlns:svg="http://www.w3.org/2000/svg">
  <sodipodi:namedview
     id="namedview7"
     pagecolor="#ffffff"
     bordercolor="#666666"
     borderopacity="1.0"
     inkscape:pageshadow="2"
     inkscape:pageopacity="0.0"
     inkscape:pagecheckerboard="0"
     inkscape:document-units="px"
     showgrid="false"
     units="px"
     height="64px"
     inkscape:zoom="8"
     inkscape:cx="46.625"
     inkscape:cy="21.75"
     inkscape:window-width="1920"
     inkscape:window-height="1011"
     inkscape:window-x="0"
     inkscape:window-y="0"
     inkscape:window-maximized="1"
     inkscape:current-layer="svg5" />
  <defs
     id="defs2" />
  <rect
     style="fill:#65eab5;stroke-width:0.264583;fill-opacity:1"
     id="rect846"
     width="14.816667"
     height="14.816667"
     x="1.0583335"
     y="1.0583333"
     ry="3.175" />
  <path
     d="m 11.771774,3.1750052 c -0.114736,0.00209 -0.228838,0.017539 -0.340007,0.046001 L 9.0347205,3.707016 6.905678,4.127024 C 6.6616732,4.179025 6.5396709,4.2840273 6.4856697,4.4400303 c -0.011094,0.032242 -0.019457,0.065358 -0.025,0.099002 -0.011898,0.077733 -0.01625,0.1564339 -0.012999,0.2350048 l 0.006,5.3881059 c -0.004,0.094 -0.010001,0.178003 -0.023001,0.252005 -0.011544,0.100539 -0.056639,0.194252 -0.1280025,0.266005 -0.072001,0.066 -0.1800034,0.112002 -0.3430066,0.138003 -0.4820097,0.072 -0.8430167,0.168003 -1.1100221,0.286006 -0.051052,0.02248 -0.1011005,0.04717 -0.1500029,0.074 -0.084968,0.046 -0.1647579,0.100988 -0.2380045,0.164003 -0.1821757,0.15634 -0.2968404,0.37707 -0.3200064,0.616012 -0.010001,0.079 -0.014999,0.160003 -0.013999,0.245005 0.004,0.254005 0.083002,0.48901 0.2200042,0.679014 0.092557,0.128042 0.2111558,0.235054 0.3480071,0.314006 0.1390025,0.08 0.2980057,0.132002 0.4720092,0.150003 0.087002,0.009 0.1790036,0.009 0.2730052,0 0.2298267,-0.02103 0.4560084,-0.07144 0.6730133,-0.150003 0.38296,-0.142269 0.6846743,-0.444714 0.8260158,-0.828017 0.037,-0.108002 0.063,-0.247004 0.079,-0.404008 0.02,-0.210004 0.024,-0.451008 0.009,-0.694013 l -0.006,-4.2860845 c 0,-0.1120022 -0.006,-0.2060041 0.006,-0.2830055 v -0.00101 l 0.005,-0.019999 c 0.004,-0.016999 0.008,-0.036001 0.015,-0.052001 0.0089,-0.022524 0.02141,-0.043461 0.037,-0.062001 0.05,-0.058001 0.136003,-0.1000022 0.285006,-0.1310027 L 9.7627337,5.9520508 11.182762,5.6650451 c 0.116001,-0.023 0.201004,-0.013999 0.258005,0.032001 0.056,0.047001 0.084,0.1310027 0.086,0.2610054 l 0.006,3.2020626 c -0.009,0.190004 -0.022,0.328007 -0.088,0.427009 -0.01675,0.02505 -0.03695,0.0476 -0.06,0.067 -0.05793,0.04612 -0.125127,0.0792 -0.197004,0.097 -0.043,0.012 -0.091,0.022 -0.145003,0.031 -0.175369,0.02576 -0.349538,0.05912 -0.52201,0.100002 -0.202207,0.04571 -0.399477,0.111018 -0.5890113,0.1950029 -0.107003,0.049 -0.2000052,0.102002 -0.2800062,0.159003 -0.08,0.057 -0.145003,0.117003 -0.200004,0.181004 -0.193004,0.224004 -0.249005,0.48901 -0.245005,0.786015 0.006,0.422009 0.225005,0.779016 0.5740122,0.96802 0.140002,0.076 0.3000053,0.125002 0.4740093,0.140002 0.088,0.009 0.180003,0.008 0.274005,-10e-4 0.248005,-0.028 0.470009,-0.07 0.667013,-0.143003 0.128911,-0.04656 0.250226,-0.11194 0.360007,-0.194003 0.204706,-0.160484 0.361691,-0.373832 0.454009,-0.617013 0.08,-0.250004 0.089,-0.655012 0.097,-1.088021 l -0.004,-6.5551287 c -5.4e-5,-0.093805 -0.0077,-0.1874493 -0.023,-0.2800053 l -0.007,-0.032001 c -0.0078,-0.03232 -0.01956,-0.063555 -0.035,-0.093002 -0.01435,-0.024747 -0.03297,-0.046755 -0.055,-0.065001 -0.006,-0.006 -0.014,-0.010001 -0.021,-0.015999 -0.01775,-0.011681 -0.0369,-0.02109 -0.057,-0.028001 l -0.027,-0.010001 C 11.843129,3.180143 11.807539,3.175439 11.771775,3.175 Z"
     style="fill:#ffffff;stroke-width:0.264583"
     id="path867"
     sodipodi:nodetypes="ccccccccccccccccccscccccccccccccccccccccccsccccccccccccccccccc" />
  <path
     id="path1288"
     style="opacity:0.2;fill:#000000;stroke-width:0.264583"
     d="M 44.492188 12 C 44.05854 12.007899 43.627198 12.066255 43.207031 12.173828 L 34.146484 14.011719 L 26.099609 15.597656 C 25.177386 15.794195 24.717771 16.191632 24.513672 16.78125 C 24.471742 16.90311 24.438919 17.029092 24.417969 17.15625 C 24.373 17.450044 24.35685 17.746007 24.369141 18.042969 L 24.392578 38.408203 C 24.37746 38.763479 24.353818 39.081636 24.304688 39.361328 C 24.261057 39.741318 24.090033 40.094042 23.820312 40.365234 C 23.548183 40.614683 23.141465 40.788447 22.525391 40.886719 C 20.703621 41.158845 19.339232 41.522754 18.330078 41.96875 C 18.137126 42.053714 17.946547 42.146642 17.761719 42.248047 C 17.44058 42.421905 17.140118 42.629021 16.863281 42.867188 C 16.174743 43.458079 15.741853 44.292225 15.654297 45.195312 C 15.616498 45.493895 15.59583 45.801776 15.599609 46.123047 C 15.614727 47.083066 15.913837 47.971328 16.431641 48.689453 C 16.702859 49.064656 17.034331 49.390941 17.410156 49.658203 C 16.905948 48.945575 16.614511 48.06934 16.599609 47.123047 C 16.59583 46.801783 16.616498 46.493895 16.654297 46.195312 C 16.741853 45.292225 17.174743 44.458079 17.863281 43.867188 C 18.140118 43.629021 18.44058 43.421905 18.761719 43.248047 C 18.946547 43.146642 19.137126 43.053714 19.330078 42.96875 C 20.339232 42.522754 21.703621 42.158845 23.525391 41.886719 C 24.141465 41.788447 24.548183 41.614683 24.820312 41.365234 C 25.090033 41.094042 25.261057 40.741318 25.304688 40.361328 C 25.353818 40.081636 25.37746 39.763479 25.392578 39.408203 L 25.369141 19.042969 C 25.35685 18.746007 25.373 18.450044 25.417969 18.15625 C 25.438919 18.029092 25.471742 17.90311 25.513672 17.78125 C 25.717771 17.191632 26.177386 16.794195 27.099609 16.597656 L 35.146484 15.011719 L 44.207031 13.173828 C 44.627198 13.066255 45.05854 13.007899 45.492188 13 C 45.549281 13.000701 45.60547 13.005305 45.662109 13.011719 C 45.660142 12.999371 45.658289 12.986947 45.65625 12.974609 L 45.628906 12.853516 C 45.599426 12.731361 45.556403 12.613249 45.498047 12.501953 C 45.443811 12.408421 45.372325 12.326774 45.289062 12.257812 C 45.266385 12.235135 45.235441 12.219935 45.208984 12.197266 C 45.141898 12.153117 45.070109 12.115964 44.994141 12.089844 L 44.892578 12.052734 C 44.761617 12.019286 44.627366 12.001659 44.492188 12 z M 43.710938 22.365234 C 43.663421 22.364366 43.612203 22.367347 43.560547 22.371094 C 43.563486 22.418629 43.565617 22.468247 43.566406 22.519531 L 43.587891 34.621094 C 43.553875 35.33922 43.505308 35.860194 43.255859 36.234375 C 43.192552 36.329056 43.116415 36.414958 43.029297 36.488281 C 42.810349 36.662593 42.556817 36.788193 42.285156 36.855469 C 42.122637 36.900819 41.940434 36.938641 41.736328 36.972656 C 41.073516 37.070017 40.415535 37.195094 39.763672 37.349609 C 38.999425 37.522372 38.253458 37.768512 37.537109 38.085938 C 37.132688 38.271134 36.780882 38.472063 36.478516 38.6875 C 36.176153 38.902933 35.930534 39.1292 35.722656 39.371094 C 34.993192 40.217723 34.781757 41.219258 34.796875 42.341797 C 34.817043 43.760331 35.475787 44.984202 36.548828 45.740234 C 36.079021 45.066308 35.809682 44.242542 35.796875 43.341797 C 35.781757 42.219258 35.993192 41.217723 36.722656 40.371094 C 36.930534 40.1292 37.176153 39.902933 37.478516 39.6875 C 37.780882 39.472063 38.132689 39.271134 38.537109 39.085938 C 39.253458 38.768514 39.999425 38.522372 40.763672 38.349609 C 41.415535 38.195095 42.073516 38.070017 42.736328 37.972656 C 42.940434 37.938641 43.122637 37.900823 43.285156 37.855469 C 43.556817 37.788193 43.810349 37.662593 44.029297 37.488281 C 44.116415 37.414958 44.192552 37.329056 44.255859 37.234375 C 44.505308 36.860194 44.553875 36.33922 44.587891 35.621094 L 44.566406 23.519531 C 44.558847 23.028182 44.451888 22.708892 44.240234 22.53125 C 44.105586 22.422589 43.931033 22.369259 43.710938 22.365234 z "
     transform="scale(0.26458334)" />
  <path
     id="rect845"
     style="opacity:0.2;fill:#000000;stroke-width:0.999999"
     d="M 4 47 L 4 48 C 4 54.648 9.3519997 60 16 60 L 48 60 C 54.648 60 60 54.648 60 48 L 60 47 C 60 53.648 54.648 59 48 59 L 16 59 C 9.3519997 59 4 53.648 4 47 z "
     transform="scale(0.26458334)" />
  <path
     id="rect843"
     style="opacity:0.2;fill:#ffffff;stroke-width:0.999999"
     d="M 16 4 C 9.3519997 4 4 9.3519997 4 16 L 4 17 C 4 10.352 9.3519997 5 16 5 L 48 5 C 54.648 5 60 10.352 60 17 L 60 16 C 60 9.3519997 54.648 4 48 4 L 16 4 z "
     transform="scale(0.26458334)" />
</svg>
