<?xml version="1.0" encoding="UTF-8" standalone="no"?>
<!-- Created with Inkscape (http://www.inkscape.org/) -->

<svg
   width="64"
   height="64"
   viewBox="0 0 16.933333 16.933334"
   version="1.1"
   id="svg5"
   inkscape:version="1.1.2 (0a00cf5339, 2022-02-04, custom)"
   sodipodi:docname="firefox.svg"
   xmlns:inkscape="http://www.inkscape.org/namespaces/inkscape"
   xmlns:sodipodi="http://sodipodi.sourceforge.net/DTD/sodipodi-0.dtd"
   xmlns="http://www.w3.org/2000/svg"
   xmlns:svg="http://www.w3.org/2000/svg">
  <sodipodi:namedview
     id="namedview7"
     pagecolor="#ffffff"
     bordercolor="#666666"
     borderopacity="1.0"
     inkscape:pageshadow="2"
     inkscape:pageopacity="0.0"
     inkscape:pagecheckerboard="0"
     inkscape:document-units="px"
     showgrid="false"
     units="px"
     height="64px"
     inkscape:zoom="12.25"
     inkscape:cx="32"
     inkscape:cy="32"
     inkscape:window-width="1920"
     inkscape:window-height="1011"
     inkscape:window-x="0"
     inkscape:window-y="0"
     inkscape:window-maximized="1"
     inkscape:current-layer="svg5" />
  <defs
     id="defs2" />
  <rect
     style="fill:#40226a;fill-opacity:1;stroke-width:0.264583"
     id="rect846"
     width="14.816667"
     height="14.816667"
     x="1.0583334"
     y="1.0583334"
     ry="3.175" />
  <g
     id="g1031">
    <path
       d="M 5.1285853,6.8546049 C 3.8907417,7.8118595 3.1750001,7.1193377 3.1750001,8.7931374 c 0,2.8883596 2.3691554,5.2298376 5.2916564,5.2298376 2.9225015,0 5.2916565,-2.341478 5.2916565,-5.2298376 0,-1.3447278 -0.513543,-2.5709224 -1.357349,-3.4974737 0.01881,-7.144e-4 -0.07891,-0.075833 -0.129287,-0.057085 0.352752,0.5846948 0.555786,1.2698781 0.555786,2.0025303 0,2.1440783 -1.192448,4.268158 -3.3365264,4.268158 C 8.1138087,11.576112 6.279322,10.695724 5.9969671,9.8718921 5.8147996,9.3403778 5.8607826,8.7434214 6.3564038,8.412974 6.6256089,8.2420857 7.0180873,8.0733572 7.6390189,8.0535434 8.2062385,7.6805068 7.9302498,7.7229386 7.9029651,7.6099977 7.7267622,7.5618155 7.4139855,7.49523 6.9821313,7.1553438 6.5996327,6.8543025 6.4219779,6.7401522 5.3073,6.7297401 5.0967165,6.3242489 5.149226,7.336073 5.1285853,6.8546049 Z"
       style="opacity:0.2;fill:#000000;stroke-width:0.0700042"
       id="path872" />
    <path
       d="m 10.130627,2.6458333 c 0.223221,0.5942419 1.030447,1.5118214 2.095167,2.8754703 0.901715,1.1548795 1.005057,2.4433914 1.338405,3.6019114 l -2.505546,2.156514 -2.8301885,-2.9054 C 8.2157555,6.4428243 7.7521526,4.2623718 10.130627,2.6458333 Z"
       style="fill:#ffde3f;stroke-width:0.264583"
       id="path1349" />
    <path
       d="M 10.130627,2.6458333 C 8.3988414,3.8228475 8.1749949,5.2986367 8.1855261,6.7597942 8.2067137,5.3862394 8.5033878,4.0163756 10.130627,2.9104166 c 0.223221,0.5942419 1.030759,1.511628 2.095479,2.875277 0.846476,1.0841316 0.990963,2.2847854 1.281059,3.3863567 l 0.05684,-0.049093 C 13.230661,7.9644377 13.127821,6.6759898 12.226106,5.5211103 11.161386,4.1574612 10.353848,3.2400752 10.130627,2.6458333 Z"
       style="opacity:0.2;fill:#ffffff;stroke-width:0.264583"
       id="path2052" />
    <circle
       style="opacity:1;fill:#8357cd;fill-opacity:1;stroke-width:0.79375;stroke-linejoin:round"
       id="path1835"
       cx="8.4666662"
       cy="8.4666672"
       r="2.6458333" />
    <path
       d="M 5.0155277,6.27433 C 5.3831223,5.9095778 5.983364,5.0602391 6.6995466,4.8247946 6.5071356,5.850364 6.75658,6.1763291 6.8807386,6.7006637 L 5.729637,6.4022298 Z"
       style="fill:#ff750e;stroke-width:0.264583"
       id="path1469" />
    <path
       d="m 9.4558895,6.6766959 c -0.03763,3.704e-4 -0.07525,0.00169 -0.112819,0.00401 0.7662875,0.3597156 1.2560215,1.1294997 1.2571355,1.9760161 -5.82e-4,1.1630683 -0.9117175,2.14862 -2.0732355,2.208659 0.290441,0.137428 0.607606,0.182578 0.928919,0.183472 1.2073365,1.1e-5 2.1860865,-0.978717 2.1861015,-2.1860534 1.1e-5,-1.2073551 -0.978746,-2.1861129 -2.1861015,-2.1861021 z"
       style="fill:#ffba36;stroke-width:0.264583"
       id="path1109" />
    <path
       d="M 5.1285852,6.5899631 C 3.8907416,7.5472177 3.175,6.8546959 3.175,8.5284957 c 0,2.8883593 2.3691554,5.2298373 5.2916565,5.2298373 2.9225015,0 5.2916565,-2.341478 5.2916565,-5.2298373 0,-1.3447279 -0.513543,-2.5709225 -1.357349,-3.4974738 0.01881,-7.143e-4 -0.07891,-0.075833 -0.129287,-0.057085 0.352752,0.5846948 0.555786,1.269878 0.555786,2.0025302 0,2.1440781 -1.192448,4.2681579 -3.3365265,4.2681579 C 8.1138085,11.31147 6.2793219,10.431082 5.996967,9.6072503 5.8147995,9.075736 5.8607825,8.4787796 6.3564038,8.1483323 6.6256088,7.977444 7.0180873,7.8087155 7.6390189,7.7889016 8.2062385,7.415865 7.9302497,7.4582968 7.9029651,7.345356 7.7267621,7.2971737 7.4139854,7.2305882 6.9821312,6.890702 6.5996326,6.5896607 6.4219778,6.4755104 5.3072999,6.4650983 5.0967164,6.0596071 5.1492259,7.0714312 5.1285852,6.5899631 Z"
       style="fill:#f74e66;stroke-width:0.264583"
       id="path869"
       sodipodi:nodetypes="csssccscscccscc" />
    <path
       d="M 5.208444,4.6720125 C 4.0235874,5.5882911 3.2457545,6.9932948 3.1811776,8.5797844 c 0.067756,2.4313266 2.287196,4.3847456 5.0208823,4.3847456 2.7763811,0 5.0270831,-2.013786 5.0270831,-4.4979166 0,-0.669487 -0.164669,-1.3043898 -0.457853,-1.8753382 0.03568,0.2114714 0.05633,0.4279469 0.05633,0.649573 0,2.1440782 -1.738372,3.8824498 -3.8824501,3.8824498 -1.377128,0.06685 -2.413088,-0.693904 -2.695443,-1.5177366 -0.182167,-0.531514 -0.122517,-0.755791 0.373104,-1.086238 0.269205,-0.170889 0.648242,-0.286628 1.269173,-0.306441 0.567219,-0.373037 0.610712,-0.516479 0.583427,-0.62942 C 8.2992249,7.5352805 7.8132929,7.3487069 7.3814379,7.0088208 6.9989399,6.7077794 6.5153579,6.1010668 5.4006802,6.0906547 5.1900967,5.6851635 5.2290847,5.1534806 5.208444,4.6720125 Z"
       style="opacity:0.1;stroke-width:0.264583"
       id="path2271" />
    <path
       d="M 5.2084468,4.4074828 C 4.0235903,5.3237614 3.2457572,6.7287651 3.1811804,8.3152547 3.2489374,10.746582 5.4683766,12.7 8.2020625,12.7 c 2.7763815,0 5.0270835,-2.013786 5.0270835,-4.4979166 0,-0.6694863 -0.164669,-1.3043895 -0.457853,-1.8753379 0.03568,0.2114715 0.05633,0.4279469 0.05633,0.649573 0,2.1440779 -1.738372,3.8824505 -3.8824515,3.8824505 C 7.5680417,10.925614 6.5320821,10.164864 6.2497269,9.3410321 6.0675597,8.8095178 6.1272095,8.5852408 6.622831,8.2547934 6.8920361,8.0839052 7.2710726,7.9681661 7.8920039,7.9483522 8.4592235,7.5753159 8.5027155,7.4318739 8.4754305,7.3189331 8.2992285,7.2707509 7.8132954,7.0841773 7.3814409,6.7442911 6.9989423,6.4432498 6.5153609,5.8365372 5.4006832,5.826125 5.1900995,5.4206339 5.2290874,4.888951 5.2084468,4.4074828 Z"
       style="fill:#ff7f1f;stroke-width:0.264583"
       id="path989" />
    <path
       d="M 5.5393231,7.1450174 C 5.1792156,7.1372043 4.8003629,7.2606991 4.5595494,7.4250357 4.5164155,7.4681697 4.9788313,8.2489951 5.7836507,8.2574591 5.709135,9.5557184 6.7470568,10.363053 7.399526,10.55091 l 1.979e-4,-5.82e-4 c -1.731e-4,-8.9e-5 -3.44e-4,-2e-4 -5.292e-4,-2.91e-4 -0.052578,-0.02607 -0.1037196,-0.05348 -0.1534353,-0.08215 -0.00465,-0.0027 -0.00924,-0.0054 -0.013862,-0.0081 -0.02779,-0.01625 -0.055103,-0.03288 -0.081958,-0.04989 -0.00526,-0.0033 -0.010522,-0.0066 -0.015745,-0.01 -0.02688,-0.01729 -0.053253,-0.03496 -0.079156,-0.05298 -0.00406,-0.0028 -0.00818,-0.0056 -0.012219,-0.0085 -0.01487,-0.01047 -0.029605,-0.02103 -0.044142,-0.03173 -0.028508,-0.02099 -0.056296,-0.04245 -0.083503,-0.06428 -0.00646,-0.0052 -0.01284,-0.01038 -0.019222,-0.0156 -0.01927,-0.01578 -0.038211,-0.03173 -0.056796,-0.04791 -0.00905,-0.0079 -0.018018,-0.0158 -0.026901,-0.02376 -0.012898,-0.01157 -0.025651,-0.02321 -0.038202,-0.03497 -0.012129,-0.01135 -0.024135,-0.02277 -0.035932,-0.03429 -0.00973,-0.0095 -0.019373,-0.01906 -0.028881,-0.02869 -0.013819,-0.01398 -0.027427,-0.02806 -0.040762,-0.04226 -2.572e-4,-2.64e-4 -5.027e-4,-5.55e-4 -7.673e-4,-8.2e-4 -0.00824,-0.0088 -0.016285,-0.01769 -0.024342,-0.02656 -0.011353,-0.0125 -0.02254,-0.02506 -0.033517,-0.03772 -0.00864,-0.01 -0.017187,-0.01997 -0.025596,-0.03004 -0.011192,-0.01339 -0.022119,-0.02688 -0.032889,-0.04042 -0.00607,-0.0076 -0.012221,-0.01525 -0.018158,-0.02294 -0.013507,-0.01748 -0.02656,-0.03512 -0.039361,-0.05283 -0.0051,-0.0071 -0.010179,-0.01411 -0.015166,-0.0212 -0.013306,-0.01892 -0.026244,-0.03794 -0.038733,-0.05709 -0.00341,-0.0052 -0.0067,-0.0105 -0.010046,-0.01575 -0.012414,-0.01944 -0.024514,-0.03893 -0.036077,-0.05858 -0.00246,-0.0042 -0.00484,-0.0083 -0.00724,-0.01251 -0.011652,-0.02016 -0.022773,-0.04045 -0.033517,-0.0608 -0.00198,-0.0038 -0.00408,-0.0075 -0.00604,-0.0113 -0.011224,-0.02163 -0.021836,-0.04339 -0.03202,-0.0652 -0.00214,-0.0046 -0.00424,-0.0091 -0.00633,-0.01372 -0.00997,-0.02186 -0.019492,-0.04378 -0.028398,-0.06578 -0.0014,-0.0035 -0.00272,-0.007 -0.00411,-0.01048 -0.00929,-0.02341 -0.018158,-0.04688 -0.026225,-0.07041 C 6.0677846,8.8092979 6.1270767,8.584994 6.6226979,8.2545466 6.891903,8.0836583 7.2710723,7.9681661 7.8920039,7.9483522 8.4592233,7.5753159 8.5026514,7.4314212 8.4753668,7.3184804 7.5187155,8.0768053 6.6250993,7.4303822 5.783706,7.1724949 5.7045289,7.1555933 5.6224319,7.1468171 5.5393302,7.1450148 Z"
       style="fill:#ffba36;stroke-width:0.264583"
       id="path1229" />
    <path
       d="M 5.2082761,4.407285 C 4.0234194,5.3235635 3.2455863,6.7285672 3.1810094,8.3150568 c 0.00111,0.040123 0.00754,0.079 0.00982,0.1188559 0.1049713,-1.5263816 0.869162,-2.8740466 2.0174483,-3.7620444 0.02064,0.4814681 -0.018346,1.0130269 0.1922362,1.4185181 1.1146777,0.010411 1.598259,0.6172488 1.9807576,0.9182902 0.3807712,0.2996819 0.791177,0.4736523 1.006657,0.5451864 0.09072,-0.1052534 0.101684,-0.1757228 0.08733,-0.2351278 C 8.2990575,7.2705529 7.8131242,7.0839794 7.3812702,6.7440932 6.9987716,6.4430519 6.5151903,5.8362152 5.4005126,5.825803 5.1899291,5.4203119 5.228917,4.8887531 5.2082764,4.407285 Z m 7.5628459,1.9192626 c 0.01964,0.1163765 0.0333,0.2345518 0.04289,0.3539837 0.241532,0.4983972 0.385747,1.042864 0.409794,1.6154054 7.41e-4,-0.031591 0.0052,-0.062304 0.0052,-0.094051 0,-0.6694863 -0.164669,-1.3043895 -0.457853,-1.8753379 z m 0.05013,0.7746299 C 12.754637,9.1868616 11.046855,10.858571 8.9449985,10.858571 7.5678708,10.925416 6.5319111,10.164666 6.249556,9.3408342 6.2110724,9.228549 6.1860774,9.132454 6.1710078,9.0436947 c -0.031743,0.1512261 -0.00249,0.325306 0.078548,0.5617226 0.2823549,0.8238327 1.3183148,1.5845817 2.6954427,1.5177367 2.1440795,0 3.8824515,-1.7383722 3.8824515,-3.88245 0,-0.047041 -0.0044,-0.092948 -0.0062,-0.1395265 z"
       style="opacity:0.2;fill:#ffffff;stroke-width:0.264583"
       id="path1589" />
  </g>
  <path
     id="rect12059"
     style="opacity:0.2;fill:#ffffff;fill-opacity:1;stroke-width:0.999999"
     d="M 16 4 C 9.3519997 4 4 9.3519997 4 16 L 4 17 C 4 10.352 9.3519997 5 16 5 L 48 5 C 54.648 5 60 10.352 60 17 L 60 16 C 60 9.3519997 54.648 4 48 4 L 16 4 z "
     transform="scale(0.26458334)" />
  <path
     id="rect14210"
     style="opacity:0.2;fill:#000000;fill-opacity:1;stroke-width:0.999999"
     d="M 4 47 L 4 48 C 4 54.648 9.3519997 60 16 60 L 48 60 C 54.648 60 60 54.648 60 48 L 60 47 C 60 53.648 54.648 59 48 59 L 16 59 C 9.3519997 59 4 53.648 4 47 z "
     transform="scale(0.26458334)" />
</svg>
