<?xml version="1.0" encoding="UTF-8" standalone="no"?>
<!-- Created with Inkscape (http://www.inkscape.org/) -->

<svg
   width="64"
   height="64"
   viewBox="0 0 16.933333 16.933334"
   version="1.1"
   id="svg5"
   inkscape:version="1.2 (dc2aedaf03, 2022-05-15)"
   sodipodi:docname="gnome-robots.svg"
   xmlns:inkscape="http://www.inkscape.org/namespaces/inkscape"
   xmlns:sodipodi="http://sodipodi.sourceforge.net/DTD/sodipodi-0.dtd"
   xmlns="http://www.w3.org/2000/svg"
   xmlns:svg="http://www.w3.org/2000/svg">
  <sodipodi:namedview
     id="namedview7"
     pagecolor="#ffffff"
     bordercolor="#666666"
     borderopacity="1.0"
     inkscape:pageshadow="2"
     inkscape:pageopacity="0.0"
     inkscape:pagecheckerboard="0"
     inkscape:document-units="px"
     showgrid="false"
     units="px"
     height="64px"
     inkscape:zoom="12.34375"
     inkscape:cx="32"
     inkscape:cy="32"
     inkscape:window-width="1920"
     inkscape:window-height="1011"
     inkscape:window-x="0"
     inkscape:window-y="0"
     inkscape:window-maximized="1"
     inkscape:current-layer="svg5"
     inkscape:showpageshadow="2"
     inkscape:deskcolor="#d1d1d1" />
  <defs
     id="defs2" />
  <rect
     style="fill:#4d4d4d;stroke-width:0.264583;fill-opacity:1"
     id="rect846"
     width="14.816667"
     height="14.816667"
     x="1.0583335"
     y="1.0583333"
     ry="3.175" />
  <rect
     style="fill:#373737;fill-opacity:1;stroke-width:2.28303;stroke-linecap:round;stroke-linejoin:round"
     id="rect1404"
     width="9.5249996"
     height="2.1166666"
     x="3.7041624"
     y="7.4083333" />
  <path
     d="M 8.4666622,3.4395834 C 5.9536793,3.4415678 3.7886959,5.2107055 3.2861,7.6729168 H 13.651359 C 13.148452,5.2091847 10.981199,3.4396104 8.4666622,3.4395834 Z M 3.2850666,9.7895839 c 0.5026739,2.4625901 2.6682246,4.2318321 5.1815956,4.2333321 2.5133718,-0.0015 4.6789228,-1.770742 5.1815958,-4.2333321 z"
     style="opacity:0.2;fill:#000000;fill-opacity:1;stroke-width:2.50658;stroke-linecap:round;stroke-linejoin:round"
     id="path7652" />
  <path
     id="path948"
     style="fill:#c2c2c2;fill-opacity:1;stroke-width:2.50658;stroke-linecap:round;stroke-linejoin:round"
     d="M 8.4666624,3.175 C 5.9536795,3.1769844 3.788696,4.9461221 3.2861001,7.4083333 H 13.651359 C 13.148452,4.9446013 10.981199,3.175027 8.4666624,3.175 Z M 3.2850667,9.5250003 c 0.5026739,2.4625907 2.6682247,4.2318327 5.1815957,4.2333327 2.5133716,-0.0015 4.6789226,-1.770742 5.1815956,-4.2333327 z"
     sodipodi:nodetypes="cccccccc" />
  <path
     id="path6616"
     style="fill:#df1010;fill-opacity:1;stroke-width:2.01733;stroke-linecap:round;stroke-linejoin:round"
     d="M 6.0854123,7.9374998 A 0.52916664,0.52916664 0 0 0 5.5562457,8.4666665 0.52916664,0.52916664 0 0 0 6.0854123,8.9958332 0.52916664,0.52916664 0 0 0 6.614579,8.4666665 0.52916664,0.52916664 0 0 0 6.0854123,7.9374998 Z m 2.38125,0 A 0.52916664,0.52916664 0 0 0 7.9374956,8.4666665 0.52916664,0.52916664 0 0 0 8.4666623,8.9958332 0.52916664,0.52916664 0 0 0 8.995829,8.4666665 0.52916664,0.52916664 0 0 0 8.4666623,7.9374998 Z m 2.3812497,0 a 0.52916664,0.52916664 0 0 0 -0.529166,0.5291667 0.52916664,0.52916664 0 0 0 0.529166,0.5291667 0.52916664,0.52916664 0 0 0 0.529167,-0.5291667 0.52916664,0.52916664 0 0 0 -0.529167,-0.5291667 z" />
  <path
     id="rect845"
     style="opacity:0.2;fill:#000000;stroke-width:0.999999"
     d="M 4 47 L 4 48 C 4 54.648 9.3519997 60 16 60 L 48 60 C 54.648 60 60 54.648 60 48 L 60 47 C 60 53.648 54.648 59 48 59 L 16 59 C 9.3519997 59 4 53.648 4 47 z "
     transform="scale(0.26458334)" />
  <path
     id="rect843"
     style="opacity:0.2;fill:#ffffff;stroke-width:0.999999"
     d="M 16 4 C 9.3519997 4 4 9.3519997 4 16 L 4 17 C 4 10.352 9.3519997 5 16 5 L 48 5 C 54.648 5 60 10.352 60 17 L 60 16 C 60 9.3519997 54.648 4 48 4 L 16 4 z "
     transform="scale(0.26458334)" />
</svg>
