<?xml version="1.0" encoding="UTF-8" standalone="no"?>
<!-- Created with Inkscape (http://www.inkscape.org/) -->

<svg
   width="64"
   height="64"
   viewBox="0 0 16.933333 16.933334"
   version="1.1"
   id="svg5"
   inkscape:version="1.1.2 (0a00cf5339, 2022-02-04, custom)"
   sodipodi:docname="hitori.svg"
   xmlns:inkscape="http://www.inkscape.org/namespaces/inkscape"
   xmlns:sodipodi="http://sodipodi.sourceforge.net/DTD/sodipodi-0.dtd"
   xmlns="http://www.w3.org/2000/svg"
   xmlns:svg="http://www.w3.org/2000/svg">
  <sodipodi:namedview
     id="namedview7"
     pagecolor="#ffffff"
     bordercolor="#666666"
     borderopacity="1.0"
     inkscape:pageshadow="2"
     inkscape:pageopacity="0.0"
     inkscape:pagecheckerboard="0"
     inkscape:document-units="px"
     showgrid="false"
     units="px"
     height="64px"
     inkscape:zoom="14.178571"
     inkscape:cx="31.984887"
     inkscape:cy="32.020152"
     inkscape:window-width="1920"
     inkscape:window-height="1017"
     inkscape:window-x="0"
     inkscape:window-y="32"
     inkscape:window-maximized="1"
     inkscape:current-layer="svg5"
     showguides="true" />
  <defs
     id="defs2" />
  <rect
     style="fill:#efefef;stroke-width:0.264583;fill-opacity:1"
     id="rect846"
     width="14.816667"
     height="14.816667"
     x="1.0583335"
     y="1.0583333"
     ry="3.175" />
  <path
     id="rect849"
     style="fill:#bfbfbf;stroke-width:1.6838;stroke-linecap:round;stroke-linejoin:round;fill-opacity:1;stroke:none"
     d="m 5.8208333,1.0583333 v 4.7625 h -4.7625 v 0.2645834 h 4.7625 v 4.7625003 h -4.7625 l 1e-7,0.529166 h 4.7624999 v 4.233334 H 6.0854166 V 11.1125 h 4.7624994 v 4.497917 H 11.1125 V 11.1125 H 15.875 V 10.847917 H 11.1125 V 6.0854167 H 15.875 V 5.8208333 h -4.7625 v -4.7625 h -0.264584 v 4.7625 H 6.0854166 v -4.7625 z M 6.0854166,6.0854167 H 10.847916 V 10.847917 H 6.0854166 Z"
     sodipodi:nodetypes="cccccccccccccccccccccccccccccccccc" />
  <path
     d="m 3.8375612,14.248505 q -0.2248743,0 -0.4029925,-0.0757 Q 3.2564505,14.097105 3.1529193,13.960176 3.0505012,13.823248 3.0427085,13.64513 h 0.2872157 q 0.00779,0.105757 0.0757,0.18591 0.067908,0.07904 0.1792315,0.122457 0.1124371,0.04342 0.2482522,0.04342 0.149174,0 0.2671774,-0.0501 0.1180033,-0.05121 0.1847976,-0.142494 0.066794,-0.09129 0.066794,-0.208176 0,-0.124683 -0.065681,-0.220421 -0.064567,-0.09574 -0.18925,-0.149174 -0.1246828,-0.05344 -0.2994613,-0.05344 H 3.6126869 v -0.249361 h 0.1847977 q 0.1380416,0 0.2449125,-0.04898 0.1079842,-0.04898 0.1669859,-0.136928 0.060115,-0.08906 0.060115,-0.205949 0,-0.112437 -0.052322,-0.198157 -0.052322,-0.08572 -0.1491741,-0.132475 -0.096852,-0.04787 -0.2259875,-0.04787 -0.1224562,0 -0.2304404,0.04342 -0.1068709,0.04342 -0.1736653,0.124683 -0.066794,0.08015 -0.072361,0.188137 H 3.091691 q 0.00668,-0.175892 0.1090975,-0.31282 0.102418,-0.138042 0.2727436,-0.213742 0.1703255,-0.07681 0.372935,-0.07681 0.2104022,0 0.3684821,0.08349 0.1591931,0.08349 0.2437993,0.223761 0.085719,0.140268 0.084606,0.305028 0.00111,0.126909 -0.045643,0.231553 -0.046756,0.104645 -0.1347019,0.177005 -0.087946,0.07236 -0.2070625,0.105758 v 0.01781 q 0.1469476,0.02226 0.2538185,0.09685 0.1079842,0.07347 0.1647593,0.190364 0.056775,0.115776 0.055662,0.260498 0.00111,0.183684 -0.102418,0.332858 -0.102418,0.148061 -0.2849891,0.232667 -0.181458,0.08461 -0.405219,0.08461 z"
     style="font-size:3.22394px;line-height:1.25;font-family:Pretendard;-inkscape-font-specification:Pretendard;fill:#cccccc;fill-opacity:1;stroke-width:0.0805987"
     id="path11358" />
  <path
     d="m 3.8375611,4.9880784 q -0.2248743,0 -0.4029925,-0.0757 -0.1781182,-0.0757 -0.2816494,-0.212629 -0.1024181,-0.136928 -0.1102108,-0.315046 h 0.2872157 q 0.00779,0.105757 0.0757,0.18591 0.067908,0.07904 0.1792315,0.122457 0.1124371,0.04342 0.2482522,0.04342 0.149174,0 0.2671774,-0.0501 0.1180033,-0.05121 0.1847976,-0.142494 0.066794,-0.09129 0.066794,-0.208176 0,-0.124683 -0.065681,-0.220421 -0.064567,-0.09574 -0.18925,-0.149174 -0.1246828,-0.05344 -0.2994613,-0.05344 H 3.6126868 v -0.249361 h 0.1847977 q 0.1380416,0 0.2449125,-0.04898 0.1079842,-0.04898 0.1669859,-0.136928 0.060115,-0.08906 0.060115,-0.205949 0,-0.112437 -0.052322,-0.198157 -0.052322,-0.08572 -0.1491741,-0.132475 -0.096852,-0.04787 -0.2259875,-0.04787 -0.1224562,0 -0.2304404,0.04342 -0.1068709,0.04342 -0.1736653,0.124683 -0.066794,0.08015 -0.072361,0.188137 H 3.0916909 q 0.00668,-0.175892 0.1090975,-0.31282 0.102418,-0.138042 0.2727436,-0.213742 0.1703255,-0.07681 0.372935,-0.07681 0.2104022,0 0.3684821,0.08349 0.1591931,0.08349 0.2437993,0.223761 0.085719,0.140268 0.084606,0.305028 0.00111,0.126909 -0.045643,0.231553 -0.046756,0.104645 -0.1347019,0.177005 -0.087946,0.07236 -0.2070625,0.105758 v 0.01781 q 0.1469476,0.02226 0.2538185,0.09685 0.1079842,0.07347 0.1647593,0.190364 0.056775,0.115776 0.055662,0.260498 0.00111,0.183684 -0.102418,0.332858 -0.102418,0.148061 -0.2849891,0.232667 -0.181458,0.08461 -0.405219,0.08461 z"
     style="font-size:3.22394px;line-height:1.25;font-family:Pretendard;-inkscape-font-specification:Pretendard;fill:#808080;stroke-width:0.0805987"
     id="path11358-7" />
  <path
     d="m 8.4677693,9.485995 q -0.2248743,0 -0.4029925,-0.0757 Q 7.8866586,9.334595 7.7831274,9.197666 7.6807094,9.060738 7.6729167,8.88262 h 0.2872156 q 0.00779,0.105757 0.0757,0.18591 0.067908,0.07904 0.1792315,0.122457 0.1124371,0.04342 0.2482522,0.04342 0.149174,0 0.2671774,-0.0501 0.1180033,-0.05121 0.1847976,-0.142494 0.066794,-0.09129 0.066794,-0.208176 0,-0.124683 -0.065681,-0.220421 Q 8.851837,8.517476 8.727154,8.464042 8.6024712,8.410602 8.4276927,8.410602 H 8.242895 V 8.161241 h 0.1847977 q 0.1380416,0 0.2449125,-0.04898 0.1079842,-0.04898 0.1669859,-0.136928 0.060115,-0.08906 0.060115,-0.205949 0,-0.112437 -0.052322,-0.198157 Q 8.7950621,7.485507 8.69821,7.438752 8.601358,7.390882 8.4722225,7.390882 q -0.1224562,0 -0.2304404,0.04342 -0.1068709,0.04342 -0.1736653,0.124683 -0.066794,0.08015 -0.072361,0.188137 H 7.7218992 Q 7.7285792,7.57123 7.8309966,7.434302 7.9334146,7.29626 8.1037402,7.22056 8.2740657,7.14375 8.4766752,7.14375 q 0.2104022,0 0.3684821,0.08349 0.1591931,0.08349 0.2437993,0.223761 0.085719,0.140268 0.084606,0.305028 0.00111,0.126909 -0.045643,0.231553 -0.046756,0.104645 -0.1347019,0.177005 -0.087946,0.07236 -0.2070625,0.105758 v 0.01781 q 0.1469476,0.02226 0.2538185,0.09685 0.1079842,0.07347 0.1647593,0.190364 0.056775,0.115776 0.055662,0.260498 0.00111,0.183684 -0.102418,0.332858 -0.102418,0.148061 -0.2849891,0.232667 -0.181458,0.08461 -0.405219,0.08461 z"
     style="font-size:3.22394px;line-height:1.25;font-family:Pretendard;-inkscape-font-specification:Pretendard;fill:#808080;stroke-width:0.0805987"
     id="path11358-5" />
  <path
     d="m 13.230313,9.503805 q -0.224874,0 -0.402992,-0.0757 -0.178118,-0.0757 -0.28165,-0.212629 -0.102418,-0.136928 -0.11021,-0.315046 h 0.287215 q 0.0078,0.105757 0.0757,0.18591 0.06791,0.07904 0.179232,0.122457 0.112437,0.04342 0.248252,0.04342 0.149174,0 0.267177,-0.0501 0.118004,-0.05121 0.184798,-0.142494 0.06679,-0.09129 0.06679,-0.208176 0,-0.124683 -0.06568,-0.220421 -0.06457,-0.09574 -0.18925,-0.149174 -0.124683,-0.05344 -0.299461,-0.05344 H 13.005436 V 8.179051 h 0.184798 q 0.138041,0 0.244912,-0.04898 0.107984,-0.04898 0.166986,-0.136928 0.06011,-0.08906 0.06011,-0.205949 0,-0.112437 -0.05232,-0.198157 -0.05232,-0.08572 -0.149174,-0.132475 -0.09685,-0.04787 -0.225988,-0.04787 -0.122456,0 -0.23044,0.04342 -0.106871,0.04342 -0.173665,0.124683 -0.06679,0.08015 -0.07236,0.188137 h -0.273857 q 0.0067,-0.175892 0.109098,-0.31282 0.102418,-0.138042 0.272743,-0.213742 0.170326,-0.07681 0.372935,-0.07681 0.210402,0 0.368482,0.08349 0.159193,0.08349 0.2438,0.223761 0.08572,0.140268 0.08461,0.305028 0.0011,0.126909 -0.04564,0.231553 -0.04676,0.104645 -0.134702,0.177005 -0.08795,0.07236 -0.207063,0.105758 v 0.01781 q 0.146948,0.02226 0.253819,0.09685 0.107984,0.07347 0.164759,0.190364 0.05678,0.115776 0.05566,0.260498 0.0011,0.183684 -0.102418,0.332858 -0.102418,0.148061 -0.284989,0.232667 -0.181458,0.08461 -0.405219,0.08461 z"
     style="font-size:3.22394px;line-height:1.25;font-family:Pretendard;-inkscape-font-specification:Pretendard;fill:#808080;stroke-width:0.0805987"
     id="path11358-5-2" />
  <path
     d="m 7.675173,14.248606 -0.00226,-0.209864 0.7875542,-0.830429 q 0.1557055,-0.165861 0.2369432,-0.266279 0.082366,-0.101547 0.1252414,-0.195196 0.042876,-0.09478 0.044004,-0.197453 -0.00113,-0.117343 -0.062057,-0.206479 -0.0598,-0.08914 -0.1647319,-0.137653 -0.1038037,-0.04852 -0.2335584,-0.04852 -0.1353961,0 -0.2380715,0.05416 -0.1015471,0.05416 -0.1568338,0.15232 -0.054159,0.09816 -0.054159,0.226789 H 7.6841994 q -0.00113,-0.200838 0.093649,-0.355415 0.095906,-0.155706 0.2628942,-0.241457 0.1669885,-0.08688 0.3745959,-0.08688 0.2053508,0 0.3689545,0.08575 0.164732,0.08462 0.2572527,0.231302 0.092521,0.146679 0.093649,0.326079 -0.00113,0.132011 -0.049645,0.252739 -0.047389,0.1196 -0.1613471,0.266279 -0.1128301,0.14668 -0.3215658,0.361057 l -0.5280452,0.546101 v 0.01805 h 1.1012219 v 0.254996 z"
     style="font-size:3.26756px;line-height:1.25;font-family:Pretendard;-inkscape-font-specification:Pretendard;fill:#808080;stroke-width:0.272297"
     id="path11192" />
  <path
     d="m 12.437717,14.248606 -0.0023,-0.209864 0.787554,-0.830429 q 0.155705,-0.165861 0.236943,-0.266279 0.08237,-0.101547 0.125241,-0.195196 0.04288,-0.09478 0.044,-0.197453 -0.0011,-0.117343 -0.06206,-0.206479 -0.0598,-0.08914 -0.164732,-0.137653 -0.103804,-0.04852 -0.233559,-0.04852 -0.135396,0 -0.238071,0.05416 -0.101547,0.05416 -0.156834,0.15232 -0.05416,0.09816 -0.05416,0.226789 h -0.273044 q -0.0011,-0.200838 0.09365,-0.355415 0.0959,-0.155706 0.262894,-0.241457 0.166988,-0.08688 0.374596,-0.08688 0.205351,0 0.368954,0.08575 0.164732,0.08462 0.257253,0.231302 0.09252,0.146679 0.09365,0.326079 -0.0011,0.132011 -0.04964,0.252739 -0.04739,0.1196 -0.161347,0.266279 -0.112831,0.14668 -0.321566,0.361057 l -0.528045,0.546097 v 0.01805 h 1.101222 v 0.254996 z"
     style="font-size:3.26756px;line-height:1.25;font-family:Pretendard;-inkscape-font-specification:Pretendard;fill:#808080;stroke-width:0.272297"
     id="path11189" />
  <path
     d="M 3.0449684,9.486106 3.0427084,9.276242 3.8302627,8.445813 Q 3.9859682,8.279952 4.0672059,8.179534 4.1495719,8.077987 4.1924473,7.984338 4.2353233,7.889558 4.2364513,7.786885 4.2353213,7.669542 4.1743943,7.580406 4.1145943,7.491266 4.0096624,7.442753 3.9058587,7.394233 3.776104,7.394233 q -0.1353962,0 -0.2380716,0.05416 -0.1015471,0.05416 -0.1568338,0.15232 -0.054159,0.09816 -0.054159,0.226789 H 3.0539948 Q 3.0528648,7.626664 3.1476438,7.472087 3.2435498,7.316381 3.410538,7.23063 3.5775265,7.14375 3.785134,7.14375 q 0.2053508,0 0.3689545,0.08575 0.1647319,0.08462 0.2572526,0.231302 0.092521,0.146679 0.093649,0.326079 Q 4.5038601,7.918892 4.4553451,8.03962 4.4079561,8.15922 4.293998,8.305899 4.1811679,8.452579 3.9724323,8.666956 L 3.444387,9.213057 v 0.01805 h 1.101222 v 0.254996 z"
     style="font-size:3.26756px;line-height:1.25;font-family:Pretendard;-inkscape-font-specification:Pretendard;fill:#808080;stroke-width:0.272297"
     id="path11192-6" />
  <path
     d="M 8.5208022,2.6458334 H 8.8135969 V 4.9881908 H 8.5208022 V 2.9500653 H 8.5070774 L 7.9375003,3.327496 V 3.0347013 Z"
     style="font-size:3.31224px;line-height:1.25;font-family:Pretendard;-inkscape-font-specification:Pretendard;fill:#808080;stroke-width:0.276019"
     id="path14445" />
  <path
     d="m 13.151054,2.6458334 h 0.292795 V 4.9881908 H 13.151054 V 2.9500653 h -0.01372 L 12.567752,3.327496 V 3.0347013 Z"
     style="font-size:3.31224px;line-height:1.25;font-family:Pretendard;-inkscape-font-specification:Pretendard;fill:#808080;stroke-width:0.276019"
     id="path14445-1" />
  <path
     id="rect845"
     style="opacity:0.2;fill:#000000;stroke-width:0.999999"
     d="M 4 47 L 4 48 C 4 54.648 9.3519997 60 16 60 L 48 60 C 54.648 60 60 54.648 60 48 L 60 47 C 60 53.648 54.648 59 48 59 L 16 59 C 9.3519997 59 4 53.648 4 47 z "
     transform="scale(0.26458334)" />
  <path
     id="rect843"
     style="opacity:0.2;fill:#ffffff;stroke-width:0.999999"
     d="M 16 4 C 9.3519997 4 4 9.3519997 4 16 L 4 17 C 4 10.352 9.3519997 5 16 5 L 48 5 C 54.648 5 60 10.352 60 17 L 60 16 C 60 9.3519997 54.648 4 48 4 L 16 4 z "
     transform="scale(0.26458334)" />
</svg>
