<?xml version="1.0" encoding="UTF-8" standalone="no"?>
<!-- Created with Inkscape (http://www.inkscape.org/) -->

<svg
   width="64"
   height="64"
   viewBox="0 0 16.933333 16.933334"
   version="1.1"
   id="svg5"
   inkscape:version="1.1.2 (0a00cf5339, 2022-02-04, custom)"
   sodipodi:docname="inkscape.svg"
   xmlns:inkscape="http://www.inkscape.org/namespaces/inkscape"
   xmlns:sodipodi="http://sodipodi.sourceforge.net/DTD/sodipodi-0.dtd"
   xmlns="http://www.w3.org/2000/svg"
   xmlns:svg="http://www.w3.org/2000/svg">
  <sodipodi:namedview
     id="namedview7"
     pagecolor="#ffffff"
     bordercolor="#666666"
     borderopacity="1.0"
     inkscape:pageshadow="2"
     inkscape:pageopacity="0.0"
     inkscape:pagecheckerboard="0"
     inkscape:document-units="px"
     showgrid="false"
     units="px"
     height="64px"
     inkscape:zoom="12.25"
     inkscape:cx="32.040816"
     inkscape:cy="32"
     inkscape:window-width="1920"
     inkscape:window-height="1017"
     inkscape:window-x="0"
     inkscape:window-y="32"
     inkscape:window-maximized="1"
     inkscape:current-layer="svg5"
     inkscape:lockguides="true" />
  <defs
     id="defs2" />
  <rect
     style="fill:#4d4d4d;fill-opacity:1;stroke-width:0.264583"
     id="rect846"
     width="14.816667"
     height="14.816667"
     x="1.0583334"
     y="1.0583334"
     ry="3.175" />
  <path
     d="m 8.4666663,3.4395834 c -0.299152,0 -0.5985,0.113226 -0.8245261,0.3525483 L 3.5275484,8.0330438 C 3.3015222,8.2657173 3.1816483,8.5718675 3.1750001,8.8776666 v 0.019521 c 0,0.9107509 2.4264551,0.026694 2.6458334,1.1368814 0.1196607,0.604951 -1.3229167,0.325797 -1.3229167,0.930749 0,0.711317 2.0407283,0.226074 2.6257374,0.80443 0.239321,0.585008 -0.784438,0.491852 -0.5982988,1.036974 0.3390389,0.352334 1.1100599,0.152897 1.2563118,0.724618 0.1728441,0.651488 1.2763751,0.538367 1.9212142,0.05972 C 10.048568,13.238226 9.1778073,13.079082 9.5168462,12.720099 9.8625334,12.367765 11.551085,12.440493 11.564381,11.669346 11.404833,11.184048 10.766599,11.10417 10.759951,10.532459 10.726721,10.047168 11.27869,10.18715 13.033714,9.7085075 13.731735,9.3761183 13.758333,9.2029874 13.758333,8.8971883 V 8.8776674 C 13.751666,8.5718765 13.612288,8.2657184 13.386262,8.0330449 L 9.2911932,3.7921317 C 9.0585194,3.55281 8.7658193,3.4395834 8.4666663,3.4395834 Z m 0.07981,0.890557 c 0.312448,0 1.1633639,1.0508867 1.9212157,1.8419779 0.219377,0.2858553 -0.07981,0.5782017 -0.07981,0.5782017 L 8.7991182,5.8792852 8.0945962,6.8301313 7.4762012,5.8993819 7.1041312,7.3486186 6.0068684,6.6906054 6.2997018,6.3179606 8.0147852,4.5563685 C 8.1410944,4.4234111 8.2473262,4.3301415 8.5464763,4.3301404 Z m 4.6497307,6.3665356 c -0.0617,8e-6 -0.117622,0.0075 -0.162494,0.02239 -0.113012,0.03324 -0.644833,0.05302 -0.598298,0.451882 0.478643,0.20608 1.210083,0.365313 1.296504,-0.04019 0.06648,-0.299153 -0.21936,-0.425136 -0.471978,-0.431785 -0.0216,-0.0016 -0.04317,-0.0023 -0.06373,-0.0023 z m -8.0666904,1.340142 c -0.024397,8e-5 -0.04876,0.0018 -0.072921,0.0052 -0.046536,0.0066 -0.080118,0.01957 -0.1200041,0.03962 -0.3656307,0.139596 -0.6117757,0.432369 -0.2727368,0.558678 0.3390387,0.126307 0.5718829,-0.0069 0.8710351,-0.166513 0.2991519,-0.159548 0.2857899,-0.185901 0.2658464,-0.24575 -0.039887,0.0066 -0.3124419,-0.159452 -0.5982983,-0.186035 -0.024162,-0.0034 -0.048524,-0.0051 -0.072921,-0.0052 z"
     style="opacity:0.2;fill:#000000;fill-opacity:1;stroke-width:0.0465376"
     id="path5231" />
  <path
     d="m 8.4666662,3.175 c -0.299152,0 -0.5985,0.113226 -0.824526,0.3525483 L 3.5275483,7.7684605 C 3.3015222,8.001134 3.1816482,8.3072842 3.175,8.6130833 v 0.019521 c 0,0.910751 2.4264551,0.026694 2.6458333,1.1368819 0.1196607,0.6049508 -1.3229167,0.3257968 -1.3229167,0.9307488 0,0.711317 2.0407286,0.226074 2.6257376,0.80443 0.239321,0.585008 -0.7844379,0.491852 -0.598299,1.036974 0.339039,0.352334 1.11006,0.152897 1.256312,0.724618 0.172844,0.651488 1.276375,0.538367 1.921214,0.05972 0.3456868,-0.352334 -0.525074,-0.511478 -0.186035,-0.870461 0.345687,-0.352334 2.0342388,-0.279606 2.0475348,-1.050753 -0.159548,-0.485298 -0.797782,-0.565176 -0.80443,-1.136887 -0.03323,-0.4852908 0.518739,-0.3453087 2.273763,-0.8239516 0.698021,-0.3323892 0.724619,-0.5055201 0.724619,-0.8113191 V 8.6130843 C 13.751666,8.3072932 13.612288,8.0011351 13.386262,7.7684616 L 9.2911932,3.5275483 C 9.0585192,3.2882266 8.7658192,3.175 8.4666662,3.175 Z m 0.07981,0.8905571 c 0.312448,0 1.163364,1.0508866 1.9212158,1.8419778 0.219377,0.2858555 -0.07981,0.5782018 -0.07981,0.5782018 L 8.7991182,5.6147017 8.0945962,6.565548 7.4762012,5.6347984 7.1041312,7.0840351 6.0068682,6.4260219 6.2997016,6.0533774 8.0147852,4.2917851 c 0.126309,-0.1329574 0.232541,-0.226227 0.531691,-0.226228 z m 4.6497308,6.3665359 c -0.0617,8e-6 -0.117622,0.0075 -0.162494,0.02239 -0.113012,0.03324 -0.644833,0.05302 -0.598298,0.451882 0.478643,0.20608 1.210083,0.365313 1.296504,-0.04019 0.06648,-0.299153 -0.21936,-0.425136 -0.471978,-0.431785 -0.0216,-0.0016 -0.04317,-0.0023 -0.06373,-0.0023 z m -8.0666905,1.340142 c -0.024397,8e-5 -0.04876,0.0018 -0.072921,0.0052 -0.046536,0.0066 -0.080118,0.01957 -0.1200041,0.03962 -0.3656307,0.139597 -0.6117757,0.43237 -0.2727368,0.558679 0.3390387,0.126307 0.5718829,-0.0069 0.8710351,-0.166513 0.2991519,-0.159548 0.2857899,-0.185901 0.2658464,-0.24575 -0.039887,0.0066 -0.3124419,-0.159452 -0.5982983,-0.186035 -0.024162,-0.0034 -0.048524,-0.0051 -0.072921,-0.0052 z"
     style="fill:#f2f2f2;fill-opacity:1;stroke-width:0.17589"
     id="path866"
     sodipodi:nodetypes="scccscsccccccccscccsscccccccccssccccsssccscccss" />
  <path
     id="rect12059"
     style="opacity:0.2;fill:#ffffff;fill-opacity:1;stroke-width:0.999999"
     d="M 16 4 C 9.3519997 4 4 9.3519997 4 16 L 4 17 C 4 10.352 9.3519997 5 16 5 L 48 5 C 54.648 5 60 10.352 60 17 L 60 16 C 60 9.3519997 54.648 4 48 4 L 16 4 z "
     transform="scale(0.26458334)" />
  <path
     id="rect14210"
     style="opacity:0.2;fill:#000000;fill-opacity:1;stroke-width:0.999999"
     d="M 4 47 L 4 48 C 4 54.648 9.3519997 60 16 60 L 48 60 C 54.648 60 60 54.648 60 48 L 60 47 C 60 53.648 54.648 59 48 59 L 16 59 C 9.3519997 59 4 53.648 4 47 z "
     transform="scale(0.26458334)" />
</svg>
