<?xml version="1.0" encoding="UTF-8" standalone="no"?>
<!-- Created with Inkscape (http://www.inkscape.org/) -->

<svg
   width="64"
   height="64"
   viewBox="0 0 16.933333 16.933334"
   version="1.1"
   id="svg5"
   inkscape:version="1.2 (dc2aedaf03, 2022-05-15)"
   sodipodi:docname="jockey.svg"
   xmlns:inkscape="http://www.inkscape.org/namespaces/inkscape"
   xmlns:sodipodi="http://sodipodi.sourceforge.net/DTD/sodipodi-0.dtd"
   xmlns="http://www.w3.org/2000/svg"
   xmlns:svg="http://www.w3.org/2000/svg">
  <sodipodi:namedview
     id="namedview7"
     pagecolor="#ffffff"
     bordercolor="#666666"
     borderopacity="1.0"
     inkscape:pageshadow="2"
     inkscape:pageopacity="0.0"
     inkscape:pagecheckerboard="0"
     inkscape:document-units="px"
     showgrid="false"
     units="px"
     height="64px"
     inkscape:zoom="12.34375"
     inkscape:cx="32"
     inkscape:cy="32"
     inkscape:window-width="1920"
     inkscape:window-height="1011"
     inkscape:window-x="0"
     inkscape:window-y="0"
     inkscape:window-maximized="1"
     inkscape:current-layer="svg5"
     inkscape:showpageshadow="2"
     inkscape:deskcolor="#d1d1d1" />
  <defs
     id="defs2" />
  <rect
     style="fill:#50b162;stroke-width:0.264583;fill-opacity:1"
     id="rect846"
     width="14.816667"
     height="14.816667"
     x="1.0583335"
     y="1.0583333"
     ry="3.175" />
  <path
     id="path65"
     style="opacity:0.1;fill:#000000;stroke-width:0.264832"
     d="M 4.5015341 1.0583333 L 4.5015341 2.6928589 L 5.5609009 3.7522258 L 5.5609009 1.0583333 L 4.5015341 1.0583333 z M 6.0911011 1.0583333 L 6.0905844 4.2819092 L 7.0176596 5.2089844 L 7.1954265 5.0312175 L 6.8853679 5.0312175 L 6.8853679 1.0583333 L 6.0911011 1.0583333 z M 7.4145346 1.0583333 L 7.4145346 4.8110759 L 8.2547934 3.9713339 L 8.2093181 3.9713339 L 8.2093181 1.0583333 L 7.4145346 1.0583333 z M 8.7390016 1.0583333 L 8.7390016 3.4876424 L 9.5337851 2.6928589 L 9.5337851 1.0583333 L 8.7390016 1.0583333 z M 10.062952 1.0583333 L 10.062952 2.911967 L 7.3923137 5.5836386 L 7.6796347 5.8709595 L 10.857735 2.6928589 L 10.857735 1.0583333 L 10.062952 1.0583333 z M 11.387419 1.0583333 L 11.387419 2.911967 L 7.8289796 6.4704062 L 7.6796347 6.3210613 L 7.5302898 6.4704062 L 7.0176596 5.9577759 L 6.5050294 6.4704062 L 6.3556845 6.3210613 L 6.2063396 6.4704062 L 2.6473837 2.911967 L 2.6473837 1.4805298 C 2.2427259 1.7133941 1.8950386 2.0325909 1.6288412 2.4138062 L 1.6288412 4.4813803 L 1.0583333 5.0508545 L 1.0583333 5.6213624 L 1.9135783 6.4766073 L 4.453475 6.4766073 L 2.4753011 4.4989502 C 2.2723866 4.478498 2.1177409 4.3075685 2.1177002 4.1036255 C 2.117707 3.884234 2.2957005 3.7067579 2.515092 3.7067505 C 2.7344839 3.7067572 2.9119603 3.8842335 2.911967 4.1036255 C 2.9119953 4.1291475 2.910089 4.1550537 2.9052491 4.1801066 L 5.2017497 6.4766073 L 12.752193 7.5742148 L 14.748454 5.293217 L 15.875 5.293217 C 15.8668 5.1967621 15.853196 5.1019533 15.837276 5.0079631 L 14.748454 5.0079631 L 14.748454 2.76934 L 12.466423 5.3366252 L 11.611178 5.3366252 L 13.892692 2.76934 L 13.892692 1.289327 C 13.528011 1.1421897 13.129622 1.0603114 12.711369 1.0588501 L 12.711369 2.911967 L 9.152413 6.4704062 L 8.7787924 6.095752 L 12.181686 2.6928589 L 12.181686 1.0583333 L 11.387419 1.0583333 z M 3.9718506 1.0697022 C 3.6952309 1.0920707 3.4287621 1.1494159 3.1770671 1.2376506 L 3.1770671 2.6928589 L 6.3556845 5.8709595 L 6.6430054 5.5836386 L 6.0905844 5.0312175 L 5.5609009 5.0312175 L 5.5609009 4.5010173 L 3.9718506 2.911967 L 3.9718506 1.0697022 z M 3.9108724 9.8996542 L 1.0588501 12.181686 L 1.0583333 12.7 C 1.0583333 12.703119 1.0583244 12.706185 1.0583333 12.709302 C 1.0587226 12.845647 1.0688157 12.97965 1.0857219 13.111345 L 2.7698568 11.896432 L 2.7698568 12.465906 L 1.1725383 13.546977 C 1.1794587 13.572204 1.1862053 13.597456 1.1937256 13.622424 L 2.1998657 13.607438 L 2.1998657 15.141712 C 2.6726474 15.535354 3.2624097 15.793629 3.9108724 15.858464 L 3.9108724 12.751677 L 5.6218791 11.325924 L 6.4776409 11.325924 L 4.7666342 12.751677 L 4.7666342 15.875 L 5.8254843 15.875 L 5.8254843 14.530379 L 9.3839234 10.972457 L 9.5337851 11.122319 L 9.68313 10.972457 L 10.195243 11.485087 L 10.70839 10.972457 L 10.857735 11.122319 L 11.007597 10.972457 L 14.566036 14.530379 L 14.566036 15.271419 C 14.788547 15.11 14.988939 14.92088 15.162382 14.708146 L 15.162382 14.552083 L 11.956893 11.347111 L 12.33103 10.972457 L 15.5205 14.16141 C 15.717577 13.780406 15.839628 13.354347 15.867765 12.901538 L 13.892692 11.018966 L 13.323218 10.470162 L 12.752193 9.8996542 L 9.3213949 9.8996542 L 9.3839234 9.9621827 L 6.0833497 13.262756 C 6.0881697 13.287816 6.0906444 13.313718 6.0905844 13.339238 C 6.0905749 13.558627 5.9125825 13.736106 5.6931926 13.736113 C 5.4738013 13.736106 5.2963253 13.558628 5.2963176 13.339238 C 5.2963583 13.135294 5.4510032 12.963849 5.6539185 12.943396 L 8.6976604 9.8996542 L 3.9108724 9.8996542 z M 9.5337851 11.57242 L 6.3556845 14.750004 L 6.3556845 15.875 L 7.1499512 15.875 L 7.1499512 14.530379 L 8.7390016 12.941329 L 8.7390016 12.412162 L 9.268685 12.412162 L 9.8211061 11.859225 L 9.5337851 11.57242 z M 10.857735 11.57242 L 10.569898 11.859225 L 13.241052 14.530379 L 13.241052 15.828491 C 13.5203 15.780895 13.78688 15.697578 14.035836 15.582512 L 14.035836 14.750004 L 10.857735 11.57242 z M 10.195243 12.233879 L 9.268685 13.160954 L 9.268685 15.875 L 10.062952 15.875 L 10.062952 12.412162 L 10.373527 12.412162 L 10.195243 12.233879 z M 10.592635 12.63127 L 10.592635 15.875 L 11.387419 15.875 L 11.387419 13.471529 L 11.432894 13.471529 L 10.592635 12.63127 z M 8.7390016 13.690637 L 7.6796347 14.750004 L 7.6796347 15.875 L 8.7390016 15.875 L 8.7390016 13.690637 z M 11.916585 13.955221 L 11.916585 15.875 L 12.7 15.875 C 12.703817 15.875 12.707555 15.874497 12.711369 15.874483 L 12.711369 14.750004 L 11.916585 13.955221 z " />
  <path
     id="rect2616"
     style="fill:#e6e6e6;fill-opacity:1;stroke-width:3.34264;stroke-linecap:round;stroke-linejoin:round"
     d="M 5.8141152,3.7041668 C 5.6707269,3.7077752 5.5562499,3.8244612 5.5562499,3.9687502 v 0.5291666 c 0,0.1465792 0.1180041,0.2645833 0.2645833,0.2645833 0.1465792,0 0.2645833,-0.1180041 0.2645833,-0.2645833 V 3.9687502 c 0,-0.1465792 -0.1180041,-0.2645834 -0.2645833,-0.2645834 -0.0023,0 -0.00444,-5.71e-5 -0.00672,0 z m 1.3229166,0 C 6.9936435,3.7077752 6.8791665,3.8244612 6.8791665,3.9687502 v 0.5291666 c 0,0.1465792 0.1180042,0.2645833 0.2645834,0.2645833 0.1465791,0 0.2645833,-0.1180041 0.2645833,-0.2645833 V 3.9687502 c 0,-0.1465792 -0.1180042,-0.2645834 -0.2645833,-0.2645834 -0.0023,0 -0.00444,-5.71e-5 -0.00672,0 z m 1.3229167,0 C 8.3165602,3.7077752 8.2020832,3.8244612 8.2020832,3.9687502 v 0.5291666 c 0,0.1465792 0.1180041,0.2645833 0.2645833,0.2645833 0.1465792,0 0.2645833,-0.1180041 0.2645833,-0.2645833 V 3.9687502 c 0,-0.1465792 -0.1180041,-0.2645834 -0.2645833,-0.2645834 -0.0023,0 -0.00444,-5.71e-5 -0.00672,0 z m 1.3229171,0 c -0.143389,0.00361 -0.257866,0.1202944 -0.257866,0.2645834 v 0.5291666 c 0,0.1465792 0.118004,0.2645833 0.264584,0.2645833 0.146578,0 0.2645834,-0.1180041 0.2645834,-0.2645833 V 3.9687502 c 0,-0.1465792 -0.1180054,-0.2645834 -0.2645834,-0.2645834 -0.0023,0 -0.0044,-5.71e-5 -0.0067,0 z m 1.3229164,0 c -0.143389,0.00361 -0.257865,0.1202944 -0.257865,0.2645834 v 0.5291666 c 0,0.1465792 0.118003,0.2645833 0.264583,0.2645833 0.146579,0 0.264584,-0.1180041 0.264584,-0.2645833 V 3.9687502 c 0,-0.1465792 -0.118005,-0.2645834 -0.264584,-0.2645834 -0.0023,0 -0.0044,-5.71e-5 -0.0067,0 z M 3.9687499,5.5562501 c -0.1465789,0 -0.2645833,0.1180042 -0.2645833,0.2645834 0,0.1465791 0.1180044,0.2645833 0.2645833,0.2645833 h 0.5291666 c 0.146579,0 0.2645834,-0.1180042 0.2645834,-0.2645833 0,-0.0023 5.71e-5,-0.00444 0,-0.00672 C 4.7588915,5.6707271 4.6422052,5.5562501 4.4979165,5.5562501 Z m 8.4666671,0 c -0.146579,0 -0.264583,0.1180042 -0.264583,0.2645834 0,0.1465791 0.118004,0.2645833 0.264583,0.2645833 h 0.529167 c 0.146578,0 0.264583,-0.1180042 0.264583,-0.2645833 0,-0.0023 5.8e-5,-0.00444 0,-0.00672 -0.0036,-0.1433886 -0.120295,-0.2578656 -0.264583,-0.2578656 z M 3.9687499,6.8791668 c -0.1465789,0 -0.2645833,0.1180041 -0.2645833,0.2645833 0,0.1465792 0.1180044,0.2645833 0.2645833,0.2645833 h 0.5291666 c 0.146579,0 0.2645834,-0.1180041 0.2645834,-0.2645833 0,-0.0023 5.71e-5,-0.00444 0,-0.00672 C 4.7588915,6.9936438 4.6422052,6.8791668 4.4979165,6.8791668 Z m 8.4666671,0 c -0.146579,0 -0.264583,0.1180041 -0.264583,0.2645833 0,0.1465792 0.118004,0.2645833 0.264583,0.2645833 h 0.529167 c 0.146578,0 0.264583,-0.1180041 0.264583,-0.2645833 0,-0.0023 5.8e-5,-0.00444 0,-0.00672 -0.0036,-0.1433885 -0.120295,-0.2578655 -0.264583,-0.2578655 z M 3.9687499,8.2020834 c -0.1465789,0 -0.2645833,0.1180045 -0.2645833,0.2645834 0,0.1465789 0.1180044,0.2645833 0.2645833,0.2645833 h 0.5291666 c 0.146579,0 0.2645834,-0.1180044 0.2645834,-0.2645833 0,-0.0023 5.71e-5,-0.00444 0,-0.00672 C 4.7588915,8.3165607 4.6422052,8.2020834 4.4979165,8.2020834 Z m 8.4666671,0 c -0.146579,0 -0.264583,0.1180045 -0.264583,0.2645834 0,0.1465789 0.118004,0.2645833 0.264583,0.2645833 h 0.529167 c 0.146578,0 0.264583,-0.1180044 0.264583,-0.2645833 0,-0.0023 5.8e-5,-0.00444 0,-0.00672 -0.0036,-0.1433883 -0.120295,-0.2578656 -0.264583,-0.2578656 z M 3.9687499,9.5250001 c -0.1465789,0 -0.2645833,0.1180034 -0.2645833,0.2645833 0,0.1465789 0.1180044,0.2645836 0.2645833,0.2645836 h 0.5291666 c 0.146579,0 0.2645834,-0.1180047 0.2645834,-0.2645836 0,-0.0023 5.71e-5,-0.00444 0,-0.00672 C 4.7588915,9.6394763 4.6422052,9.5250001 4.4979165,9.5250001 Z m 8.4666671,0 c -0.146579,0 -0.264583,0.1180034 -0.264583,0.2645833 0,0.1465789 0.118004,0.2645836 0.264583,0.2645836 h 0.529167 c 0.146578,0 0.264583,-0.1180047 0.264583,-0.2645836 0,-0.0023 5.8e-5,-0.00444 0,-0.00672 -0.0036,-0.1433893 -0.120295,-0.2578655 -0.264583,-0.2578655 z M 3.9687499,10.847917 c -0.1465789,0 -0.2645833,0.118003 -0.2645833,0.264583 0,0.146579 0.1180044,0.264583 0.2645833,0.264583 h 0.5291666 c 0.146579,0 0.2645834,-0.118004 0.2645834,-0.264583 0,-0.0023 5.71e-5,-0.0044 0,-0.0067 -0.00361,-0.143387 -0.1202947,-0.257863 -0.2645834,-0.257863 z m 8.4666671,0 c -0.146579,0 -0.264583,0.118003 -0.264583,0.264583 0,0.146579 0.118004,0.264583 0.264583,0.264583 h 0.529167 c 0.146578,0 0.264583,-0.118004 0.264583,-0.264583 0,-0.0023 5.8e-5,-0.0044 0,-0.0067 -0.0036,-0.143387 -0.120295,-0.257863 -0.264583,-0.257863 z m -6.6213018,1.322916 c -0.1433883,0.0036 -0.2578653,0.120295 -0.2578653,0.264584 v 0.529166 c 0,0.146579 0.1180041,0.264584 0.2645833,0.264584 0.1465792,0 0.2645833,-0.118005 0.2645833,-0.264584 v -0.529166 c 0,-0.146579 -0.1180041,-0.264584 -0.2645833,-0.264584 -0.0023,0 -0.00444,-5.7e-5 -0.00672,0 z m 1.3229166,0 c -0.1433883,0.0036 -0.2578653,0.120295 -0.2578653,0.264584 v 0.529166 c 0,0.146579 0.1180042,0.264584 0.2645834,0.264584 0.1465791,0 0.2645833,-0.118005 0.2645833,-0.264584 v -0.529166 c 0,-0.146579 -0.1180042,-0.264584 -0.2645833,-0.264584 -0.0023,0 -0.00444,-5.7e-5 -0.00672,0 z m 1.3229167,0 c -0.1433881,0.0036 -0.2578653,0.120295 -0.2578653,0.264584 v 0.529166 c 0,0.146579 0.1180044,0.264584 0.2645833,0.264584 0.1465789,0 0.2645833,-0.118005 0.2645833,-0.264584 v -0.529166 c 0,-0.146579 -0.1180044,-0.264584 -0.2645833,-0.264584 -0.0023,0 -0.00444,-5.7e-5 -0.00672,0 z m 1.3229171,0 c -0.14339,0.0036 -0.257866,0.120295 -0.257866,0.264584 v 0.529166 c 0,0.146579 0.118004,0.264584 0.264584,0.264584 0.146578,0 0.2645834,-0.118005 0.2645834,-0.264584 v -0.529166 c 0,-0.146579 -0.1180054,-0.264584 -0.2645834,-0.264584 -0.0023,0 -0.0044,-5.7e-5 -0.0067,0 z m 1.3229164,0 c -0.143389,0.0036 -0.257865,0.120295 -0.257865,0.264584 v 0.529166 c 0,0.146579 0.118003,0.264584 0.264583,0.264584 0.146579,0 0.264584,-0.118005 0.264584,-0.264584 v -0.529166 c 0,-0.146579 -0.118005,-0.264584 -0.264584,-0.264584 -0.0023,0 -0.0044,-5.7e-5 -0.0067,0 z"
     sodipodi:nodetypes="cssssssccssssssccssssssccssssssccsssssscssssscssssssscssssssscssssssscssssssscssssssscssssssscssssssscssssssscssssssscsscssssssccssssssccssssssccssssssccssssssc" />
  <path
     id="rect2090"
     style="fill:#6a6a6a;fill-opacity:1;stroke-width:2.38125;stroke-linecap:round;stroke-linejoin:round"
     d="m 5.2916666,4.4979169 h 6.3500004 c 0.439737,0 0.79375,0.3540125 0.79375,0.79375 v 6.3500001 c 0,0.439737 -0.354013,0.79375 -0.79375,0.79375 H 5.2916666 c -0.4397375,0 -0.79375,-0.354013 -0.79375,-0.79375 V 5.2916669 c 0,-0.4397375 0.3540125,-0.79375 0.79375,-0.79375 z"
     sodipodi:nodetypes="sssssssss" />
  <path
     id="path3811"
     style="fill:#ffffff;fill-opacity:1;stroke-width:2.38125;stroke-linecap:round;stroke-linejoin:round;opacity:0.2"
     d="M 5.2916667 4.4979167 C 4.8519298 4.4979167 4.4979167 4.8519296 4.4979167 5.2916667 L 4.4979167 5.5562501 C 4.4979167 5.1165129 4.8519298 4.7625 5.2916667 4.7625 L 11.641667 4.7625 C 12.081403 4.7625 12.435417 5.1165129 12.435417 5.5562501 L 12.435417 5.2916667 C 12.435417 4.8519296 12.081403 4.4979167 11.641667 4.4979167 L 5.2916667 4.4979167 z " />
  <path
     id="path3755"
     style="fill:#000000;fill-opacity:1;stroke-width:2.38125;stroke-linecap:round;stroke-linejoin:round;opacity:0.2"
     d="M 4.4979167 11.377083 L 4.4979167 11.641667 C 4.4979167 12.081403 4.8519298 12.435417 5.2916667 12.435417 L 11.641667 12.435417 C 12.081403 12.435417 12.435417 12.081403 12.435417 11.641667 L 12.435417 11.377083 C 12.435417 11.81682 12.081403 12.170833 11.641667 12.170833 L 5.2916667 12.170833 C 4.8519298 12.170833 4.4979167 11.81682 4.4979167 11.377083 z " />
  <path
     id="rect6497"
     style="opacity:0.3;fill:#000000;fill-opacity:0.999661;stroke-width:0.18258;stroke-linecap:round;stroke-linejoin:round"
     d="M 5.8208332,5.8208335 V 6.0854168 H 11.1125 V 5.8208335 Z m 0,1.0583333 V 7.1437501 H 11.1125 V 6.8791668 Z m 0,1.0583333 V 8.2020834 H 8.4666665 V 7.9375001 Z" />
  <path
     id="rect845"
     style="opacity:0.2;fill:#000000;stroke-width:0.999999"
     d="M 4 47 L 4 48 C 4 54.648 9.3519997 60 16 60 L 48 60 C 54.648 60 60 54.648 60 48 L 60 47 C 60 53.648 54.648 59 48 59 L 16 59 C 9.3519997 59 4 53.648 4 47 z "
     transform="scale(0.26458334)" />
  <path
     id="rect843"
     style="opacity:0.2;fill:#ffffff;stroke-width:0.999999"
     d="M 16 4 C 9.3519997 4 4 9.3519997 4 16 L 4 17 C 4 10.352 9.3519997 5 16 5 L 48 5 C 54.648 5 60 10.352 60 17 L 60 16 C 60 9.3519997 54.648 4 48 4 L 16 4 z "
     transform="scale(0.26458334)" />
</svg>
