<?xml version="1.0" encoding="UTF-8" standalone="no"?>
<!-- Created with Inkscape (http://www.inkscape.org/) -->

<svg
   width="64"
   height="64"
   viewBox="0 0 16.933333 16.933334"
   version="1.1"
   id="svg5"
   inkscape:version="1.2 (dc2aedaf03, 2022-05-15)"
   sodipodi:docname="multimedia-photo-viewer.svg"
   xmlns:inkscape="http://www.inkscape.org/namespaces/inkscape"
   xmlns:sodipodi="http://sodipodi.sourceforge.net/DTD/sodipodi-0.dtd"
   xmlns:xlink="http://www.w3.org/1999/xlink"
   xmlns="http://www.w3.org/2000/svg"
   xmlns:svg="http://www.w3.org/2000/svg">
  <sodipodi:namedview
     id="namedview7"
     pagecolor="#ffffff"
     bordercolor="#666666"
     borderopacity="1.0"
     inkscape:pageshadow="2"
     inkscape:pageopacity="0.0"
     inkscape:pagecheckerboard="0"
     inkscape:document-units="px"
     showgrid="false"
     units="px"
     height="64px"
     inkscape:zoom="12.34375"
     inkscape:cx="32"
     inkscape:cy="32"
     inkscape:window-width="1920"
     inkscape:window-height="1011"
     inkscape:window-x="0"
     inkscape:window-y="0"
     inkscape:window-maximized="1"
     inkscape:current-layer="svg5"
     inkscape:showpageshadow="2"
     inkscape:deskcolor="#d1d1d1" />
  <defs
     id="defs2">
    <linearGradient
       inkscape:collect="always"
       id="linearGradient21580">
      <stop
         style="stop-color:#1a2e8f;stop-opacity:1;"
         offset="0"
         id="stop21576" />
      <stop
         style="stop-color:#000000;stop-opacity:1;"
         offset="1"
         id="stop21578" />
    </linearGradient>
    <radialGradient
       inkscape:collect="always"
       xlink:href="#linearGradient21580"
       id="radialGradient21582"
       cx="12.170834"
       cy="12.170834"
       fx="12.170834"
       fy="12.170834"
       r="1.5875"
       gradientUnits="userSpaceOnUse"
       gradientTransform="matrix(1.2499997,4.0462591e-7,-4.0387159e-7,1.2499998,-3.0426995,-3.0427116)" />
  </defs>
  <rect
     style="fill:#f0f0f0;fill-opacity:1;stroke-width:0.264583"
     id="rect846"
     width="14.816667"
     height="14.816667"
     x="1.0583334"
     y="1.0583334"
     ry="3.175" />
  <path
     id="rect12059"
     style="opacity:0.2;fill:#ffffff;fill-opacity:1;stroke-width:0.999999"
     d="M 16 4 C 9.3519997 4 4 9.3519997 4 16 L 4 17 C 4 10.352 9.3519997 5 16 5 L 48 5 C 54.648 5 60 10.352 60 17 L 60 16 C 60 9.3519997 54.648 4 48 4 L 16 4 z "
     transform="scale(0.26458334)" />
  <path
     id="rect14210"
     style="opacity:0.2;fill:#000000;fill-opacity:1;stroke-width:0.999999"
     d="M 4 47 L 4 48 C 4 54.648 9.3519997 60 16 60 L 48 60 C 54.648 60 60 54.648 60 48 L 60 47 C 60 53.648 54.648 59 48 59 L 16 59 C 9.3519997 59 4 53.648 4 47 z "
     transform="scale(0.26458334)" />
  <rect
     style="opacity:1;fill:#91ccff;fill-opacity:1;stroke-width:0.264583"
     id="rect14930"
     width="12.7"
     height="12.7"
     x="2.1166668"
     y="2.1166668"
     ry="2.1166668" />
  <path
     id="path5357"
     style="fill:#927b63;stroke-width:1.00002"
     d="M 2.1166667 8.6170452 L 2.1166667 12.7 C 2.1166667 13.872632 3.0607011 14.816667 4.2333334 14.816667 L 12.7 14.816667 C 13.872632 14.816667 14.816667 13.872632 14.816667 12.7 L 14.816667 8.6170452 L 2.1166667 8.6170452 z " />
  <path
     id="path6943"
     style="fill:#d5e8f9;stroke-width:1.00002"
     d="m 7.0626181,10.029362 -1.6779338,0.115755 -0.3700033,0.17415 0.6170166,0.07286 0.3638021,0.619083 -0.2237589,0.545187 -1.2619385,0.07286 -0.8712647,-0.545703 c 0,0 -0.2795817,0.61898 -0.4495849,0.399976 -0.1670032,-0.218004 -0.6723104,0.182934 -0.6723104,0.182934 L 2.1166667,11.880412 V 12.7 c 0,1.172632 0.9440344,2.116667 2.1166667,2.116667 H 6.168099 l 0.00672,-0.0083 c -0.040001,-0.055 -0.083894,-0.116026 -0.1508952,-0.232028 -0.1690033,-0.290005 -2.12e-5,-0.655225 0.1689819,-1.055232 0.1680031,-0.400008 0.9818522,0.363285 0.9818522,0.363285 0,0 0.2971236,0.538236 0.4971273,0.932243 h 2.1177002 c 0.3070056,-0.256005 1.0201476,-0.490371 1.1451496,-0.45837 0.068,0.018 0.146601,0.235937 0.177767,0.45837 h 1.322917 c 0.056,0 0.110397,0.003 0.166398,3.2e-5 l 0.297139,-0.386575 c 0,0 0.42172,-0.763813 0.561723,-0.872815 0.140003,-0.110002 0.505375,0.07428 0.674378,0.255282 0.0094,0.01021 0.05646,0.142483 0.118855,0.326595 C 14.60317,13.76203 14.816667,13.256946 14.816667,12.7 v -1.997811 l -0.0015,-0.0031 c -1.58603,0.015 -3.347083,0.05633 -3.347083,0.05633 l -1.234033,-0.180351 -0.3090253,-0.04289 -0.3079916,0.04237 -0.8144205,0.145728 c 0,0 -0.3936788,-0.290837 -0.4216797,-0.472839 -0.028,-0.181998 -1.3182658,-0.218075 -1.3182658,-0.218075 z"
     sodipodi:nodetypes="cccccccccccsscccccccccscccccscccccccscc" />
  <path
     id="path10299"
     style="fill:#b9e3e9;stroke-width:1.00002"
     d="M 7.4352052 10.053133 L 7.8470663 10.243303 L 8.4790691 10.415902 C 8.4337261 10.368272 8.4006459 10.310259 8.3829509 10.24692 C 8.3629509 10.116917 7.8132122 10.074133 7.4352052 10.053133 z M 10.025228 10.21023 L 9.6619426 10.457243 L 9.8691651 10.413318 L 11.103198 11.030335 L 12.619385 10.917163 L 14.021367 10.972974 C 14.021367 10.972974 14.401659 11.205369 14.816667 11.509375 L 14.816667 10.700122 C 13.230038 10.714136 11.470101 10.755933 11.470101 10.755933 L 10.236068 10.575065 L 10.025228 10.21023 z M 3.6400879 11.083045 C 3.6400879 11.083045 3.5682423 11.241363 3.4752401 11.370366 L 4.310848 11.703162 L 5.3221558 11.87111 L 6.3329468 11.421008 L 5.8931804 11.263912 L 5.7732911 11.556917 L 4.5108358 11.629264 L 3.6411215 11.083045 L 3.6400879 11.083045 z M 13.769186 13.078272 L 12.899471 13.893209 L 12.630237 14.767057 L 12.899988 14.431161 C 12.899988 14.431161 13.323259 13.667348 13.463261 13.558346 C 13.603264 13.448344 13.968084 13.631106 14.136088 13.81311 C 14.171088 13.85111 14.194647 13.966955 14.25391 14.139189 C 14.254403 14.138655 14.254945 14.13815 14.255461 14.137638 C 14.427369 13.951612 14.566178 13.734368 14.662671 13.4953 L 14.471468 13.275159 L 13.769186 13.078272 z M 6.644039 13.320634 C 6.6237689 13.321187 6.6034098 13.324594 6.5840943 13.330969 C 6.5340934 13.354969 6.4570356 13.378236 6.3510336 13.416235 C 6.643039 13.390236 7.1763062 13.884941 7.1763062 13.884941 C 7.1763062 13.884941 7.472913 14.415391 7.6729167 14.808399 L 8.080127 14.808399 L 7.8460328 14.622363 L 7.9602377 14.088029 L 7.6791179 13.471013 C 7.6791179 13.471013 7.1262084 13.36142 6.8032024 13.329419 C 6.757022 13.324654 6.7106134 13.321679 6.6641928 13.321151 L 6.6631592 13.321151 C 6.6567393 13.320732 6.6504494 13.320459 6.644039 13.320634 z M 6.2590495 13.450342 C 6.1740476 13.480342 6.0513103 13.52734 6.0513103 13.52734 L 5.7422852 14.060124 L 5.0968466 14.228072 L 4.8172771 14.706079 L 4.5532105 14.808399 L 6.1758505 14.808399 C 6.1209865 14.734459 6.0706712 14.657329 6.0249553 14.577405 C 5.8559521 14.286399 6.0249006 13.92218 6.1929037 13.522172 C 6.2089037 13.485172 6.2350493 13.468342 6.2590495 13.450342 z M 10.99106 13.975374 L 10.008175 14.341244 L 9.6262859 14.808399 L 9.8304078 14.808399 C 10.137414 14.553394 10.812281 14.326296 10.936283 14.358297 C 10.971283 14.368297 11.012104 14.428323 11.054106 14.513326 L 11.186397 14.2844 L 10.99106 13.975374 z " />
  <path
     d="m 2.1166667,7.6739167 v 3.1600623 l 0.612,0.182004 0.336,0.08 0.309,-1.00702 0.9400001,-0.096 0.6840001,0.348007 H 5.783667 l 0.7900001,0.555011 0.784,-0.162004 0.674,0.48301 0.561,0.121002 -0.3269999,-0.946018 1.5340005,0.140002 0.7849993,0.122003 1.375,-0.524011 2.667001,-0.121002 0.189999,-0.006 V 7.6729167 Z"
     style="fill:#353b71;stroke-width:1.00001"
     id="path3875" />
  <path
     d="m 9.1668056,8.6518751 -7.0501389,0.080002 v 0.5500108 l 0.7360145,0.043001 c 0,0 1.0100199,-0.084002 1.1220221,-0.056001 0.1120022,0.028001 1.1780232,0.1960039 1.1780232,0.1960039 l 2.891057,-0.253005 2.5820515,0.029 2.750054,-0.2530049 0.982019,0.2240044 -0.53401,-0.3070061 c 0,0 -0.730015,0 -0.897018,0.055001 -0.169003,0.057001 -4.9680982,0.2800055 -5.7541137,0.2800055 -0.7860154,0 -4.8530956,-0.1100021 -4.8530956,-0.1100021 L 2.5996763,8.9318807 7.258768,8.847879 Z"
     style="opacity:0.15;fill:#ffffff;stroke-width:1.00002"
     id="path441" />
  <g
     id="g25327">
    <circle
       style="fill:#dadada;fill-opacity:1;stroke-width:0.846667;stroke-linejoin:round"
       id="path849"
       cx="12.170834"
       cy="12.170834"
       r="4.2333336" />
    <path
       id="path11745"
       style="opacity:0.2;fill:#000000;fill-opacity:1;stroke-width:0.264583"
       d="M 16.400549 12.004952 A 4.2333336 4.2333336 0 0 1 12.170833 16.139583 A 4.2333336 4.2333336 0 0 1 7.9426677 12.038542 A 4.2333336 4.2333336 0 0 0 7.9375001 12.170833 A 4.2333336 4.2333336 0 0 0 12.170833 16.404167 A 4.2333336 4.2333336 0 0 0 16.404167 12.170833 A 4.2333336 4.2333336 0 0 0 16.400549 12.004952 z " />
    <path
       id="path11827"
       style="opacity:0.2;fill:#ffffff;fill-opacity:1;stroke-width:0.264583"
       d="M 12.170833 7.9375001 A 4.2333336 4.2333336 0 0 0 7.9375001 12.170833 A 4.2333336 4.2333336 0 0 0 7.9426677 12.303125 A 4.2333336 4.2333336 0 0 1 12.170833 8.2020834 A 4.2333336 4.2333336 0 0 1 16.400549 12.269535 A 4.2333336 4.2333336 0 0 0 16.404167 12.170833 A 4.2333336 4.2333336 0 0 0 12.170833 7.9375001 z " />
    <circle
       style="opacity:0.8;fill:#666666;fill-opacity:1;stroke-width:0.264583"
       id="path12637"
       cx="12.170834"
       cy="12.170834"
       r="2.9104166" />
    <circle
       style="opacity:0.8;fill:#333333;fill-opacity:1;stroke-width:0.216477"
       id="path12691"
       cx="12.170834"
       cy="12.170834"
       r="2.3812499" />
    <ellipse
       style="opacity:0.8;fill:#000000;fill-opacity:1;stroke-width:0.225123"
       id="path14199"
       cx="12.170834"
       cy="12.170834"
       rx="1.984375"
       ry="1.9843752" />
    <circle
       style="opacity:1;fill:url(#radialGradient21582);fill-opacity:1;stroke-width:0.176389"
       id="path21469"
       cx="12.170834"
       cy="12.170834"
       r="1.5875" />
    <path
       id="path21523"
       style="opacity:1;fill:#101a50;fill-opacity:1;stroke-width:0.264583"
       d="M 12.170833 10.583333 A 1.5875001 1.5875 0 0 0 10.583333 12.170833 A 1.5875001 1.5875 0 0 0 12.170833 13.758333 A 1.5875001 1.5875 0 0 0 13.758333 12.170833 A 1.5875001 1.5875 0 0 0 12.170833 10.583333 z M 12.170833 10.847917 A 1.3229166 1.3229166 0 0 1 13.49375 12.170833 A 1.3229166 1.3229166 0 0 1 12.170833 13.49375 A 1.3229166 1.3229166 0 0 1 10.847917 12.170833 A 1.3229166 1.3229166 0 0 1 12.170833 10.847917 z " />
    <circle
       style="opacity:0.2;fill:#ffffff;fill-opacity:1;stroke-width:0.264583"
       id="path24587"
       cx="11.641666"
       cy="11.641666"
       r="0.5291667" />
    <circle
       style="opacity:0.2;fill:#ffffff;fill-opacity:1;stroke-width:0.176389"
       id="path25315"
       cx="12.700001"
       cy="12.700001"
       r="0.26458335" />
  </g>
</svg>
