<?xml version="1.0" encoding="UTF-8" standalone="no"?>
<!-- Created with Inkscape (http://www.inkscape.org/) -->

<svg
   width="64"
   height="64"
   viewBox="0 0 16.933333 16.933334"
   version="1.1"
   id="svg5"
   inkscape:version="1.1.2 (0a00cf5339, 2022-02-04, custom)"
   sodipodi:docname="org.gnome.Adwaita1.Demo.svg"
   xmlns:inkscape="http://www.inkscape.org/namespaces/inkscape"
   xmlns:sodipodi="http://sodipodi.sourceforge.net/DTD/sodipodi-0.dtd"
   xmlns="http://www.w3.org/2000/svg"
   xmlns:svg="http://www.w3.org/2000/svg">
  <sodipodi:namedview
     id="namedview7"
     pagecolor="#ffffff"
     bordercolor="#666666"
     borderopacity="1.0"
     inkscape:pageshadow="2"
     inkscape:pageopacity="0.0"
     inkscape:pagecheckerboard="0"
     inkscape:document-units="px"
     showgrid="false"
     units="px"
     height="64px"
     inkscape:zoom="12.40625"
     inkscape:cx="31.959698"
     inkscape:cy="32"
     inkscape:window-width="1920"
     inkscape:window-height="1017"
     inkscape:window-x="0"
     inkscape:window-y="32"
     inkscape:window-maximized="1"
     inkscape:current-layer="svg5" />
  <defs
     id="defs2" />
  <rect
     style="fill:#7cd9b2;stroke-width:0.264583;fill-opacity:1"
     id="rect846"
     width="14.816667"
     height="14.816667"
     x="1.0583335"
     y="1.0583333"
     ry="3.175" />
  <path
     id="rect967"
     style="fill:#3989e1;stroke-width:0.264583"
     d="M 4.2333335,1.0583333 H 12.7 c 1.75895,0 3.175,1.41605 3.175,3.1749999 V 8.2020834 H 1.0583335 V 4.2333332 c 0,-1.7589499 1.41605,-3.1749999 3.175,-3.1749999 z"
     sodipodi:nodetypes="sssccss" />
  <path
     d="M 3.4395834,8.2020848 H 8.9958335 V 13.758334 Z"
     style="fill:#ffffff;stroke-width:0.30868;stroke-linejoin:round"
     id="path24313"
     sodipodi:nodetypes="cccc" />
  <path
     d="M 8.9958335,8.2020848 V 4.2333334 h 3.9687495 z"
     style="opacity:1;fill:#e6effb;stroke-width:0.220486;stroke-linejoin:round;fill-opacity:1"
     id="path24513"
     sodipodi:nodetypes="cccc" />
  <path
     d="M 8.9958335,8.2020848 H 11.90625 v 2.9104162 z"
     style="opacity:1;fill:#d8f4e8;stroke-width:0.161689;stroke-linejoin:round;fill-opacity:1"
     id="path24651" />
  <path
     id="rect845"
     style="opacity:0.2;fill:#000000;stroke-width:0.999999"
     d="M 4 47 L 4 48 C 4 54.648 9.3519997 60 16 60 L 48 60 C 54.648 60 60 54.648 60 48 L 60 47 C 60 53.648 54.648 59 48 59 L 16 59 C 9.3519997 59 4 53.648 4 47 z "
     transform="scale(0.26458334)" />
  <path
     id="rect843"
     style="opacity:0.2;fill:#ffffff;stroke-width:0.999999"
     d="M 16 4 C 9.3519997 4 4 9.3519997 4 16 L 4 17 C 4 10.352 9.3519997 5 16 5 L 48 5 C 54.648 5 60 10.352 60 17 L 60 16 C 60 9.3519997 54.648 4 48 4 L 16 4 z "
     transform="scale(0.26458334)" />
</svg>
