<?xml version="1.0" encoding="UTF-8" standalone="no"?>
<!-- Created with Inkscape (http://www.inkscape.org/) -->

<svg
   width="64"
   height="64"
   viewBox="0 0 16.933333 16.933334"
   version="1.1"
   id="svg5"
   inkscape:version="1.1.2 (0a00cf5339, 2022-02-04, custom)"
   sodipodi:docname="org.gnome.Usage.svg"
   xmlns:inkscape="http://www.inkscape.org/namespaces/inkscape"
   xmlns:sodipodi="http://sodipodi.sourceforge.net/DTD/sodipodi-0.dtd"
   xmlns="http://www.w3.org/2000/svg"
   xmlns:svg="http://www.w3.org/2000/svg">
  <sodipodi:namedview
     id="namedview7"
     pagecolor="#ffffff"
     bordercolor="#666666"
     borderopacity="1.0"
     inkscape:pageshadow="2"
     inkscape:pageopacity="0.0"
     inkscape:pagecheckerboard="0"
     inkscape:document-units="px"
     showgrid="false"
     units="px"
     height="64px"
     inkscape:zoom="12.25"
     inkscape:cx="32"
     inkscape:cy="32"
     inkscape:window-width="1920"
     inkscape:window-height="1011"
     inkscape:window-x="0"
     inkscape:window-y="0"
     inkscape:window-maximized="1"
     inkscape:current-layer="svg5" />
  <defs
     id="defs2" />
  <rect
     style="fill:#cccccc;fill-opacity:1;stroke-width:0.264583"
     id="rect846"
     width="14.816667"
     height="14.816667"
     x="1.0583334"
     y="1.0583334"
     ry="3.175" />
  <path
     id="rect12059"
     style="opacity:0.2;fill:#ffffff;fill-opacity:1;stroke-width:0.999999"
     d="M 16 4 C 9.3519997 4 4 9.3519997 4 16 L 4 17 C 4 10.352 9.3519997 5 16 5 L 48 5 C 54.648 5 60 10.352 60 17 L 60 16 C 60 9.3519997 54.648 4 48 4 L 16 4 z "
     transform="scale(0.26458334)" />
  <path
     id="rect14210"
     style="opacity:0.2;fill:#000000;fill-opacity:1;stroke-width:0.999999"
     d="M 4 47 L 4 48 C 4 54.648 9.3519997 60 16 60 L 48 60 C 54.648 60 60 54.648 60 48 L 60 47 C 60 53.648 54.648 59 48 59 L 16 59 C 9.3519997 59 4 53.648 4 47 z "
     transform="scale(0.26458334)" />
  <rect
     style="opacity:1;fill:#3d3d3d;fill-opacity:1;stroke-width:0.264583"
     id="rect14930"
     width="13.229167"
     height="13.229167"
     x="1.8520833"
     y="1.8520833"
     ry="2.3812499" />
  <path
     id="rect1228"
     style="opacity:0.2;fill:#ffffff;fill-opacity:1;stroke-width:0.79375;stroke-linejoin:round"
     d="m 4.2333334,1.8520834 c -1.3192125,0 -2.38125,1.0620375 -2.38125,2.3812501 v 0.2645833 c 0,-1.3192125 1.0620375,-2.3812501 2.38125,-2.3812501 H 12.7 c 1.319213,0 2.38125,1.0620376 2.38125,2.3812501 V 4.2333335 c 0,-1.3192126 -1.062037,-2.3812501 -2.38125,-2.3812501 z" />
  <rect
     style="opacity:0.35;fill:#000000;stroke-width:0.79375;stroke-linejoin:round"
     id="rect847"
     width="11.1125"
     height="11.1125"
     x="2.9104166"
     y="2.9104166"
     ry="1.3229166" />
  <path
     id="path1101"
     style="opacity:0.35;fill:#eed27a;stroke-width:0.999999;fill-opacity:1"
     d="M 21.527344 11 L 21.527344 14.884766 L 15.003906 14.884766 L 15.003906 11.099609 C 14.902351 11.119994 14.802317 11.143521 14.703125 11.169922 L 14.703125 14.884766 L 11.125 14.884766 C 11.102516 14.98411 11.082912 15.084016 11.066406 15.185547 L 14.703125 15.185547 L 14.703125 21.707031 L 11 21.707031 L 11 22.007812 L 14.703125 22.007812 L 14.703125 28.53125 L 11 28.53125 L 11 28.830078 L 14.705078 28.830078 L 14.705078 35.353516 L 11 35.353516 L 11 35.654297 L 14.705078 35.654297 L 14.705078 42.177734 L 11 42.177734 L 11 42.476562 L 14.703125 42.476562 L 14.703125 49 L 11.099609 49 C 11.120066 49.10151 11.143453 49.201636 11.169922 49.300781 L 14.703125 49.300781 L 14.703125 52.830078 C 14.802317 52.856479 14.902351 52.880006 15.003906 52.900391 L 15.003906 49.300781 L 21.527344 49.300781 L 21.527344 53 L 21.826172 53 L 21.826172 49.300781 L 28.349609 49.300781 L 28.349609 53 L 28.650391 53 L 28.650391 49.300781 L 35.173828 49.300781 L 35.173828 53 L 35.472656 53 L 35.472656 49.300781 L 41.996094 49.300781 L 41.996094 53 L 42.296875 53 L 42.296875 49.300781 L 48.818359 49.300781 L 48.818359 52.933594 C 48.920006 52.916989 49.019689 52.895644 49.119141 52.873047 L 49.119141 49.300781 L 52.830078 49.300781 C 52.856547 49.201636 52.879934 49.10151 52.900391 49 L 49.119141 49 L 49.119141 42.476562 L 53 42.476562 L 53 42.177734 L 49.119141 42.177734 L 49.119141 35.654297 L 53 35.654297 L 53 35.353516 L 49.119141 35.353516 L 49.119141 28.830078 L 53 28.830078 L 53 28.53125 L 49.119141 28.53125 L 49.119141 22.007812 L 53 22.007812 L 53 21.707031 L 49.119141 21.707031 L 49.119141 15.185547 L 52.933594 15.185547 C 52.917088 15.084016 52.897484 14.98411 52.875 14.884766 L 49.119141 14.884766 L 49.119141 11.126953 C 49.019689 11.104356 48.920006 11.083011 48.818359 11.066406 L 48.818359 14.884766 L 42.296875 14.884766 L 42.296875 11 L 41.996094 11 L 41.996094 14.884766 L 35.472656 14.884766 L 35.472656 11 L 35.173828 11 L 35.173828 14.884766 L 28.650391 14.884766 L 28.650391 11 L 28.349609 11 L 28.349609 14.884766 L 21.826172 14.884766 L 21.826172 11 L 21.527344 11 z M 15.003906 15.185547 L 21.527344 15.185547 L 21.527344 21.707031 L 15.003906 21.707031 L 15.003906 15.185547 z M 21.826172 15.185547 L 28.349609 15.185547 L 28.349609 21.707031 L 21.826172 21.707031 L 21.826172 15.185547 z M 28.650391 15.185547 L 35.173828 15.185547 L 35.173828 21.707031 L 28.650391 21.707031 L 28.650391 15.185547 z M 35.472656 15.185547 L 41.996094 15.185547 L 41.996094 21.707031 L 35.472656 21.707031 L 35.472656 15.185547 z M 42.296875 15.185547 L 48.818359 15.185547 L 48.818359 21.707031 L 42.296875 21.707031 L 42.296875 15.185547 z M 15.003906 22.007812 L 21.527344 22.007812 L 21.527344 28.53125 L 15.003906 28.53125 L 15.003906 22.007812 z M 21.826172 22.007812 L 28.349609 22.007812 L 28.349609 28.53125 L 21.826172 28.53125 L 21.826172 22.007812 z M 28.650391 22.007812 L 35.173828 22.007812 L 35.173828 28.53125 L 28.650391 28.53125 L 28.650391 22.007812 z M 35.472656 22.007812 L 41.996094 22.007812 L 41.996094 28.53125 L 35.472656 28.53125 L 35.472656 22.007812 z M 42.296875 22.007812 L 48.820312 22.007812 L 48.820312 28.53125 L 42.296875 28.53125 L 42.296875 22.007812 z M 15.005859 28.830078 L 21.529297 28.830078 L 21.529297 35.353516 L 15.005859 35.353516 L 15.005859 28.830078 z M 21.828125 28.830078 L 28.351562 28.830078 L 28.351562 35.353516 L 21.828125 35.353516 L 21.828125 28.830078 z M 28.652344 28.830078 L 35.175781 28.830078 L 35.175781 35.353516 L 28.652344 35.353516 L 28.652344 28.830078 z M 35.474609 28.830078 L 41.998047 28.830078 L 41.998047 35.353516 L 35.474609 35.353516 L 35.474609 28.830078 z M 42.298828 28.830078 L 48.820312 28.830078 L 48.820312 35.353516 L 42.298828 35.353516 L 42.298828 28.830078 z M 15.005859 35.654297 L 21.529297 35.654297 L 21.529297 42.177734 L 15.005859 42.177734 L 15.005859 35.654297 z M 21.828125 35.654297 L 28.351562 35.654297 L 28.351562 42.177734 L 21.828125 42.177734 L 21.828125 35.654297 z M 28.652344 35.654297 L 35.175781 35.654297 L 35.175781 42.177734 L 28.652344 42.177734 L 28.652344 35.654297 z M 35.474609 35.654297 L 41.998047 35.654297 L 41.998047 42.177734 L 35.474609 42.177734 L 35.474609 35.654297 z M 42.298828 35.654297 L 48.820312 35.654297 L 48.820312 42.177734 L 42.298828 42.177734 L 42.298828 35.654297 z M 15.005859 42.476562 L 21.529297 42.476562 L 21.529297 49 L 15.005859 49 L 15.005859 42.476562 z M 21.828125 42.476562 L 28.351562 42.476562 L 28.351562 49 L 21.828125 49 L 21.828125 42.476562 z M 28.652344 42.476562 L 35.175781 42.476562 L 35.175781 49 L 28.652344 49 L 28.652344 42.476562 z M 35.474609 42.476562 L 41.998047 42.476562 L 41.998047 49 L 35.474609 49 L 35.474609 42.476562 z M 42.296875 42.476562 L 48.818359 42.476562 L 48.818359 49 L 42.296875 49 L 42.296875 42.476562 z "
     transform="scale(0.26458334)" />
  <path
     id="path867"
     style="fill:#eed27a;stroke-width:1.7443;fill-opacity:1"
     d="M 27.085938 19.205078 C 26.984623 19.22065 26.904285 19.369214 26.796875 19.685547 C 26.589183 20.297291 26.54026 21.178174 26.267578 29.394531 C 26.123677 33.731062 25.810917 37.617107 25.541016 38.412109 C 25.191604 39.441222 24.608182 39.119848 23.144531 37.089844 C 22.391306 36.045136 21.539102 34.981264 21.25 34.726562 C 20.752346 34.28823 20.69662 34.285627 20.191406 34.65625 C 19.897864 34.871631 19.515618 35.433607 19.341797 35.90625 C 18.892914 37.126759 18.277282 37.787195 17.421875 37.966797 C 17.014383 38.05263 14.911216 37.986461 12.75 37.820312 L 11 37.685547 L 11 38.431641 C 12.183548 38.545328 14.254186 38.638672 15.626953 38.638672 C 18.563074 38.638672 19.064692 38.4068 19.716797 36.755859 C 19.939188 36.192893 20.213471 35.667845 20.326172 35.589844 C 20.759005 35.290278 21.359135 35.787634 22.589844 37.466797 C 23.291549 38.424184 24.097657 39.378135 24.380859 39.585938 C 25.070175 40.09171 25.72145 39.829614 26.064453 38.908203 C 26.413545 37.970415 26.761149 34.049564 26.90625 29.394531 C 27.031643 25.371703 27.139094 24.432909 27.421875 24.945312 C 27.585317 25.241488 27.746794 26.899554 27.945312 30.330078 C 27.986241 31.037963 28.171046 33.513362 28.355469 35.830078 C 28.974513 43.607234 29.197128 44.995095 29.789062 44.775391 C 30.100768 44.659624 30.512732 42.732483 30.539062 41.263672 C 30.550174 40.648168 30.694768 39.778333 30.861328 39.332031 C 31.205273 38.410261 31.372622 38.375738 33.404297 38.794922 C 35.24891 39.175566 35.639535 38.93616 36.431641 36.941406 C 37.495449 34.262687 37.536188 34.196988 38.150391 34.117188 C 38.629132 34.05512 38.914673 34.27569 39.8125 35.404297 C 43.109223 39.547927 43.48297 39.71247 45.271484 37.818359 C 45.879138 37.174823 46.467423 36.648438 46.578125 36.648438 C 46.688827 36.648438 47.274952 37.121998 47.880859 37.701172 C 48.704195 38.450606 49.369104 38.757435 50.287109 38.865234 C 50.554171 38.864898 50.770272 38.647921 50.769531 38.380859 C 50.769195 38.114592 50.553419 37.898778 50.287109 37.898438 C 49.411468 38.240258 48.583569 37.425403 48.134766 37 C 46.652053 35.582797 46.161375 35.599094 44.914062 37.115234 C 43.504355 38.828846 43.437404 38.804246 40.804688 35.515625 C 38.100269 32.137301 37.474094 32.180302 36.208984 35.830078 C 35.941314 36.602313 35.502367 37.490637 35.234375 37.806641 C 34.763261 38.362072 34.707855 38.372196 33.529297 38.099609 C 31.745584 37.687043 31.056762 37.740991 30.568359 38.328125 C 30.335317 38.608192 30.089967 39.028937 30.023438 39.263672 C 29.870126 39.804507 29.575822 39.81343 29.431641 39.28125 C 29.264589 38.664461 28.911027 35.151613 28.791016 32.904297 C 28.638754 30.053077 27.870099 20.970803 27.716797 20.216797 C 27.645537 19.866824 27.458553 19.459161 27.300781 19.3125 C 27.215561 19.233309 27.146707 19.195739 27.085938 19.205078 z "
     transform="scale(0.26458334)" />
</svg>
