<?xml version="1.0" encoding="UTF-8" standalone="no"?>
<!-- Created with Inkscape (http://www.inkscape.org/) -->

<svg
   width="64"
   height="64"
   viewBox="0 0 16.933333 16.933334"
   version="1.1"
   id="svg5"
   inkscape:version="1.2 (dc2aedaf03, 2022-05-15)"
   sodipodi:docname="org.gnome.Shell.Extensions.GSConnect.svg"
   xmlns:inkscape="http://www.inkscape.org/namespaces/inkscape"
   xmlns:sodipodi="http://sodipodi.sourceforge.net/DTD/sodipodi-0.dtd"
   xmlns="http://www.w3.org/2000/svg"
   xmlns:svg="http://www.w3.org/2000/svg">
  <sodipodi:namedview
     id="namedview7"
     pagecolor="#ffffff"
     bordercolor="#666666"
     borderopacity="1.0"
     inkscape:pageshadow="2"
     inkscape:pageopacity="0.0"
     inkscape:pagecheckerboard="0"
     inkscape:document-units="px"
     showgrid="false"
     units="px"
     height="64px"
     inkscape:zoom="12.34375"
     inkscape:cx="32"
     inkscape:cy="32"
     inkscape:window-width="1920"
     inkscape:window-height="1011"
     inkscape:window-x="0"
     inkscape:window-y="0"
     inkscape:window-maximized="1"
     inkscape:current-layer="svg5"
     inkscape:showpageshadow="2"
     inkscape:deskcolor="#d1d1d1" />
  <defs
     id="defs2" />
  <rect
     style="fill:#4d4d4d;stroke-width:0.264583;fill-opacity:1"
     id="rect846"
     width="14.816667"
     height="14.816667"
     x="1.0583335"
     y="1.0583333"
     ry="3.175" />
  <path
     d="m 13.493749,11.90625 v 0.264583 c 0,0.293158 -0.236008,0.529166 -0.529166,0.529166 H 3.4395833 c -0.2931583,0 -0.5291666,-0.236008 -0.5291666,-0.529166 V 11.90625 Z"
     style="fill:#000000;fill-opacity:1;stroke-width:0.264583;opacity:0.2"
     id="path3810" />
  <path
     id="rect2021"
     style="fill:#1a1a1a;fill-opacity:1;stroke-width:0.264583"
     d="M 4.2333332,4.4979167 H 12.170834 C 12.463992,4.4979167 12.7,4.733925 12.7,5.0270833 V 10.847916 H 3.7041666 V 5.0270833 c 0,-0.2931583 0.2360083,-0.5291666 0.5291666,-0.5291666 z"
     sodipodi:nodetypes="sssccss" />
  <path
     id="rect2125"
     style="fill:#999999;fill-opacity:1;stroke-width:0.264583"
     d="m 13.493749,11.641666 v 0.264583 c 0,0.293158 -0.236008,0.529166 -0.529166,0.529166 H 3.4395833 c -0.2931583,0 -0.5291666,-0.236008 -0.5291666,-0.529166 v -0.264583 z"
     sodipodi:nodetypes="csssscc" />
  <rect
     style="opacity:0.2;fill:#000000;fill-opacity:1;stroke-width:0.264583"
     id="rect3931"
     width="3.96875"
     height="7.1437497"
     x="10.186459"
     y="6.7468753"
     ry="0.66145837" />
  <path
     id="rect2584"
     style="fill:#cccccc;fill-opacity:1;stroke-width:0.264583"
     d="M 3.7041666,10.847916 H 12.7 l 0.793749,0.79375 H 2.9104167 Z"
     sodipodi:nodetypes="ccccc" />
  <rect
     style="fill:#6084c8;fill-opacity:1;stroke-width:0.264583"
     id="rect2898"
     width="7.9375"
     height="4.7624998"
     x="4.2333331"
     y="5.0270834" />
  <rect
     style="fill:#b3b3b3;fill-opacity:1;stroke-width:0.257716"
     id="rect6948"
     width="3.96875"
     height="7.1437502"
     x="10.186459"
     y="6.4822917"
     ry="0.66145831" />
  <path
     id="rect849"
     style="fill:#1a1a1a;stroke-width:0.264583"
     d="m 10.847917,6.6145834 h 2.645835 c 0.293159,0 0.529167,0.2360083 0.529167,0.5291666 v 5.820833 c 0,0.293159 -0.236008,0.529167 -0.529167,0.529167 h -2.645835 c -0.293158,0 -0.529167,-0.236008 -0.529167,-0.529167 V 7.14375 c 0,-0.2931583 0.236009,-0.5291666 0.529167,-0.5291666 z"
     sodipodi:nodetypes="sssssssss" />
  <path
     id="rect1027"
     style="fill:#cccccc;fill-opacity:1;stroke-width:0.264583"
     d="m 10.847917,6.879167 h 2.645835 c 0.146579,0 0.264583,0.1180042 0.264583,0.2645833 v 5.8208327 c 0,0.146579 -0.118004,0.264583 -0.264583,0.264583 h -2.645835 c -0.146579,0 -0.264583,-0.118004 -0.264583,-0.264583 V 7.1437503 c 0,-0.1465791 0.118004,-0.2645833 0.264583,-0.2645833 z"
     sodipodi:nodetypes="sssssssss" />
  <path
     id="rect1520"
     style="fill:#1a1a1a;stroke-width:0.264583"
     d="m 12.964585,6.6145834 v 0.5291667 c 0,0.1465791 -0.118004,0.2645833 -0.264583,0.2645833 h -1.058334 c -0.14658,0 -0.264584,-0.1180042 -0.264584,-0.2645833 V 6.6145834 Z"
     sodipodi:nodetypes="csssscc" />
  <path
     id="rect845"
     style="opacity:0.2;fill:#000000;stroke-width:0.999999"
     d="M 4 47 L 4 48 C 4 54.648 9.3519997 60 16 60 L 48 60 C 54.648 60 60 54.648 60 48 L 60 47 C 60 53.648 54.648 59 48 59 L 16 59 C 9.3519997 59 4 53.648 4 47 z "
     transform="scale(0.26458334)" />
  <path
     id="rect843"
     style="opacity:0.2;fill:#ffffff;stroke-width:0.999999"
     d="M 16 4 C 9.3519997 4 4 9.3519997 4 16 L 4 17 C 4 10.352 9.3519997 5 16 5 L 48 5 C 54.648 5 60 10.352 60 17 L 60 16 C 60 9.3519997 54.648 4 48 4 L 16 4 z "
     transform="scale(0.26458334)" />
</svg>
