<?xml version="1.0" encoding="UTF-8" standalone="no"?>
<!-- Created with Inkscape (http://www.inkscape.org/) -->

<svg
   width="64"
   height="64"
   viewBox="0 0 16.933333 16.933334"
   version="1.1"
   id="svg5"
   inkscape:version="1.1.2 (0a00cf5339, 2022-02-04, custom)"
   sodipodi:docname="preferences-system.svg"
   xmlns:inkscape="http://www.inkscape.org/namespaces/inkscape"
   xmlns:sodipodi="http://sodipodi.sourceforge.net/DTD/sodipodi-0.dtd"
   xmlns="http://www.w3.org/2000/svg"
   xmlns:svg="http://www.w3.org/2000/svg">
  <sodipodi:namedview
     id="namedview7"
     pagecolor="#ffffff"
     bordercolor="#666666"
     borderopacity="1.0"
     inkscape:pageshadow="2"
     inkscape:pageopacity="0.0"
     inkscape:pagecheckerboard="0"
     inkscape:document-units="px"
     showgrid="false"
     units="px"
     height="64px"
     inkscape:zoom="12.25"
     inkscape:cx="32"
     inkscape:cy="32"
     inkscape:window-width="1920"
     inkscape:window-height="1011"
     inkscape:window-x="0"
     inkscape:window-y="0"
     inkscape:window-maximized="1"
     inkscape:current-layer="svg5" />
  <defs
     id="defs2" />
  <rect
     style="fill:#e4e4e4;fill-opacity:1;stroke-width:0.264583"
     id="rect846"
     width="14.816667"
     height="14.816667"
     x="1.0583334"
     y="1.0583334"
     ry="3.175" />
  <circle
     style="opacity:1;fill:#626262;fill-opacity:1;stroke-width:0.785081;stroke-linejoin:round"
     id="path1195"
     cx="8.4666672"
     cy="8.4666672"
     r="6.0854168" />
  <path
     id="path860"
     style="opacity:0.15;fill:#ffffff;stroke-width:0.999999"
     d="M 32 9 A 23 23 0 0 0 28.335938 9.3027344 C 28.4296 17.606191 21.986658 24.604189 13.607422 25.107422 C 12.635564 25.162542 11.407362 25.145994 10.105469 24.982422 A 23 23 0 0 0 9.1699219 29.353516 C 9.4187538 28.926217 9.6597768 28.235843 10.001953 27.236328 C 10.682282 27.323257 11.372786 27.37538 12.064453 27.386719 C 12.593598 29.677157 12.763758 30.464064 13.640625 30.324219 C 14.623322 30.169254 14.563353 29.330734 14.763672 27.251953 C 15.45156 27.157465 16.135951 27.025552 16.8125 26.855469 C 17.787637 28.881336 18.142337 29.594703 18.951172 29.273438 C 19.877175 28.895477 19.62382 28.094152 19.355469 26.007812 C 19.982882 25.74702 20.596055 25.455906 21.189453 25.130859 C 22.712632 26.83546 23.247786 27.429281 23.939453 26.892578 C 24.72561 26.280282 24.26536 25.57654 23.441406 23.664062 C 24.000787 23.236968 24.530643 22.776504 25.037109 22.285156 C 26.866437 23.509747 27.531403 23.936062 28.060547 23.251953 C 28.657724 22.473355 28.059769 21.907366 26.8125 20.308594 C 27.220697 19.787008 27.595509 19.242722 27.939453 18.675781 C 30.124063 19.303195 30.890865 19.52122 31.189453 18.697266 C 31.522059 17.778823 30.784499 17.413558 29.132812 16.291016 C 29.408724 15.637145 29.647211 14.963405 29.84375 14.279297 C 32.103953 14.351104 32.905255 14.37126 32.992188 13.501953 C 33.086676 12.530595 32.278854 12.359636 30.400391 11.667969 C 30.491099 10.957404 30.535283 10.239609 30.539062 9.5214844 C 31.534291 9.330161 32.231648 9.1909543 32.685547 9.0117188 A 23 23 0 0 0 32 9 z M 31.042969 21.419922 L 29.818359 21.582031 C 29.76616 21.589212 29.718232 21.616859 29.685547 21.658203 C 29.654441 21.702193 29.640302 21.754887 29.644531 21.808594 L 29.666016 23.335938 C 28.775697 23.558832 27.923779 23.91597 27.140625 24.394531 L 26.101562 23.298828 C 26.067471 23.257268 26.020115 23.229656 25.966797 23.222656 C 25.913369 23.214341 25.85768 23.227258 25.814453 23.259766 L 24.832031 24.007812 C 24.788971 24.042282 24.761117 24.093521 24.755859 24.148438 C 24.751777 24.201597 24.766231 24.253871 24.794922 24.298828 L 25.550781 25.623047 C 24.89691 26.25802 24.341031 26.985833 23.910156 27.787109 L 22.474609 27.369141 C 22.370245 27.327721 22.250971 27.37833 22.208984 27.482422 L 21.728516 28.615234 C 21.707501 28.666061 21.707501 28.724556 21.728516 28.775391 C 21.752553 28.8248 21.792376 28.864619 21.841797 28.888672 L 23.158203 29.652344 C 22.909601 30.529633 22.79524 31.438067 22.818359 32.349609 L 21.351562 32.705078 C 21.296895 32.711125 21.245959 32.738919 21.210938 32.78125 C 21.178434 32.824488 21.165509 32.878198 21.173828 32.931641 L 21.332031 34.15625 C 21.339628 34.212943 21.370415 34.262733 21.408203 34.292969 C 21.453561 34.326984 21.50568 34.333984 21.558594 34.333984 L 23.09375 34.341797 C 23.316746 35.222446 23.672208 36.069058 24.148438 36.847656 L 23.052734 37.882812 C 22.962578 37.951449 22.944348 38.080271 23.013672 38.169922 L 23.769531 39.154297 C 23.803547 39.195872 23.853333 39.224736 23.90625 39.228516 C 23.959428 39.233051 24.011797 39.220509 24.056641 39.191406 L 25.373047 38.435547 C 26.0118 39.093196 26.74182 39.645552 27.546875 40.083984 L 27.126953 41.515625 C 27.107375 41.565439 27.107375 41.620108 27.126953 41.669922 C 27.146455 41.721097 27.18583 41.762 27.236328 41.783203 L 28.369141 42.255859 C 28.421071 42.277781 28.481276 42.277781 28.533203 42.255859 C 28.582443 42.23167 28.622197 42.191825 28.646484 42.142578 L 29.410156 40.832031 C 30.287457 41.080573 31.195884 41.19493 32.107422 41.171875 L 32.458984 42.638672 C 32.470323 42.695365 32.497488 42.739422 32.539062 42.773438 C 32.582489 42.805563 32.636048 42.820399 32.689453 42.8125 L 33.914062 42.652344 C 33.967618 42.646297 34.017181 42.620456 34.050781 42.578125 C 34.081395 42.532468 34.095387 42.476716 34.091797 42.421875 L 34.099609 40.892578 C 34.957581 40.673366 35.781315 40.328424 36.541016 39.871094 L 37.652344 40.925781 C 37.939588 40.963577 37.736149 40.998174 37.789062 41.001953 C 37.842467 41.00989 37.896026 40.995017 37.939453 40.962891 L 38.917969 40.210938 C 38.960148 40.1773 38.987904 40.129728 38.994141 40.076172 C 38.998676 40.022956 38.986134 39.96854 38.957031 39.923828 L 38.177734 38.625 C 38.820269 38.001363 39.364171 37.286161 39.798828 36.5 L 41.289062 36.859375 C 41.553629 36.745989 41.398132 36.878273 41.447266 36.859375 C 41.49776 36.83821 41.537138 36.797306 41.556641 36.746094 L 42.029297 35.607422 C 42.050462 35.556587 42.050462 35.500053 42.029297 35.449219 C 42.005486 35.399631 41.965603 35.359749 41.916016 35.335938 L 40.578125 34.595703 C 40.812456 33.790649 40.929814 32.954305 40.933594 32.115234 L 40.925781 31.949219 L 42.388672 31.515625 C 42.56631 31.285074 42.495154 31.477248 42.525391 31.439453 C 42.557895 31.396215 42.570815 31.340552 42.5625 31.287109 L 42.404297 30.060547 C 42.397494 30.008219 42.3697 29.960155 42.328125 29.927734 C 42.283867 29.897196 42.229413 29.883117 42.175781 29.886719 L 40.650391 29.912109 C 40.432493 29.044636 40.086148 28.213659 39.625 27.447266 L 40.683594 26.335938 C 40.721389 26.048686 40.752207 26.250306 40.759766 26.201172 C 40.767703 26.147763 40.752829 26.09224 40.720703 26.048828 L 39.964844 25.066406 C 39.931962 25.025077 39.88618 24.997404 39.833984 24.990234 C 39.780769 24.985548 39.726352 25.000115 39.681641 25.029297 L 38.378906 25.810547 C 37.756093 25.168289 37.040806 24.622234 36.257812 24.189453 L 36.613281 22.701172 C 36.499895 22.432822 36.632179 22.58637 36.613281 22.541016 C 36.593628 22.489826 36.554401 22.448956 36.503906 22.427734 L 35.361328 21.957031 C 35.312875 21.937264 35.259391 21.937264 35.210938 21.957031 C 35.161161 21.980578 35.121203 22.020544 35.097656 22.070312 L 34.353516 23.412109 C 33.493798 23.16497 32.601456 23.046457 31.707031 23.060547 L 31.273438 21.597656 C 31.042883 21.420015 31.235057 21.494957 31.197266 21.460938 C 31.152875 21.427829 31.097613 21.41489 31.042969 21.423828 L 31.042969 21.419922 z M 31.869141 24.96875 C 41.622997 24.744465 41.622997 39.491863 31.869141 39.267578 C 22.553654 39.053392 22.553654 25.182955 31.869141 24.96875 z M 54.949219 33.359375 C 54.076588 33.428441 53.98347 34.270557 53.474609 36.179688 C 52.785159 36.155499 52.093977 36.170184 51.40625 36.224609 C 50.733483 34.021099 50.498593 33.2489 49.640625 33.449219 C 48.669268 33.67599 48.799011 34.511822 48.746094 36.613281 C 48.084665 36.764462 47.437583 36.952778 46.798828 37.175781 C 45.615813 35.195267 45.204126 34.507566 44.417969 34.908203 C 43.518422 35.365537 43.859199 36.148919 44.320312 38.261719 C 43.724708 38.572094 43.145435 38.914602 42.587891 39.289062 C 40.856833 37.728089 40.259972 37.184708 39.625 37.800781 C 38.906875 38.496229 39.444736 39.141247 40.476562 40.966797 C 39.976735 41.431066 39.502911 41.923766 39.058594 42.441406 C 37.00249 41.337762 36.292888 40.952937 35.824219 41.705078 C 35.295074 42.555491 35.974666 43.053752 37.433594 44.599609 C 37.078318 45.158991 36.753795 45.736804 36.458984 46.333984 C 34.406663 45.895548 33.627636 45.57872 33.181641 46.470703 C 32.784783 47.260639 33.4791 47.664638 35.478516 48.847656 C 35.275555 49.492931 35.10985 50.148543 34.980469 50.8125 C 32.901687 50.922106 32.069459 50.825518 31.869141 51.796875 C 31.695282 52.654843 32.464079 52.87378 34.65625 53.478516 C 34.638415 53.929491 34.638576 54.38026 34.65625 54.830078 A 23 23 0 0 0 37.617188 54.289062 C 37.524388 52.367387 37.725842 50.315873 38.537109 48.220703 C 38.85081 47.400531 39.229156 46.694397 39.65625 46.142578 C 41.500418 43.155493 44.294394 40.873882 47.589844 39.664062 C 48.12942 39.41794 48.698658 39.242724 49.283203 39.142578 C 49.759435 39.021633 50.242898 38.923247 50.730469 38.847656 C 51.246684 38.77131 51.765844 38.71969 52.287109 38.695312 C 52.856652 38.681819 53.424295 38.698054 53.990234 38.738281 A 23 23 0 0 0 54.949219 33.359375 z "
     transform="scale(0.26458334)" />
  <path
     d="m 8.4603287,3.175 c -0.007,0 -0.013999,0 -0.019999,0.00201 -0.2500051,0.025 -0.2460051,0.2370048 -0.3270065,0.7580151 -0.1711729,0.01306 -0.3414477,0.035762 -0.51001,0.068001 C 7.3693082,3.465016 7.2893066,3.2790123 7.0793023,3.3530136 6.8412977,3.4390152 6.8992988,3.6440195 6.9452998,4.17603 6.7872123,4.2311291 6.6323076,4.2948935 6.4812905,4.3670337 6.145284,3.9600257 6.0412818,3.7770221 5.8132773,3.8820242 5.6112735,3.976026 5.684275,4.1650297 5.8952789,4.7110405 5.7542195,4.8066937 5.6186702,4.9101918 5.4892704,5.0210472 5.0632621,4.7180413 4.9142592,4.5680385 4.7222552,4.7290417 4.5532521,4.8710444 4.6722542,5.0340475 5.0102611,5.4960566 4.900586,5.6236069 4.7980933,5.7571477 4.703255,5.8960646 4.2092454,5.7260613 4.0232418,5.6250592 3.885239,5.8330633 3.7652365,6.014067 3.9212397,6.1380695 4.3622483,6.476076 4.2848328,6.6375888 4.2170466,6.8035476 4.1592444,6.9730858 3.6472341,6.9160846 3.4462302,6.8600835 3.3572286,7.0920882 3.2782276,7.2990924 3.4612305,7.384094 3.9872409,7.6260988 c -0.03293,0.1741735 -0.055635,0.3501438 -0.068001,0.5270108 -0.5050099,0.069 -0.713014,0.066 -0.7420147,0.312006 -0.026001,0.220004 0.1730036,0.256005 0.7480149,0.363007 0.013351,0.162043 0.035384,0.323277 0.066001,0.483009 -0.4850095,0.234005 -0.6920135,0.289006 -0.6440125,0.538011 0.043001,0.2170044 0.2440048,0.1910044 0.8180161,0.119002 0.05631,0.1622084 0.1217486,0.3211314 0.1960037,0.4760104 -0.4170081,0.353007 -0.6050118,0.457009 -0.4960096,0.688013 0.097002,0.201004 0.2850056,0.124003 0.8360164,-0.095 l -0.052001,-0.09001 c 0.1066166,0.162606 0.2235241,0.31826 0.3500063,0.466011 -0.2950057,0.439008 -0.4420087,0.592011 -0.2750053,0.780015 0.1440026,0.164003 0.304006,0.044 0.7460147,-0.297006 0.1315066,0.113759 0.2694009,0.219934 0.413008,0.318006 -0.2080041,0.555011 -0.2800054,0.744015 -0.077001,0.836017 0.2280045,0.104002 0.3320066,-0.082 0.662013,-0.49001 0.1580427,0.07592 0.3203149,0.142705 0.4860097,0.200004 -0.076002,0.562011 -0.100002,0.760015 0.1140023,0.804016 0.2460049,0.05 0.304006,-0.153003 0.5380106,-0.628012 0.1675805,0.03279 0.3368504,0.05616 0.50701,0.07 0.083002,0.569011 0.1130023,0.768015 0.3330064,0.751015 0.2500042,-0.02 0.2510042,-0.230005 0.3430072,-0.747015 0.176534,-0.01245 0.352169,-0.03516 0.526009,-0.068 0.215005,0.51001 0.296006,0.693013 0.50001,0.622012 0.2350049,-0.08 0.1880039,-0.283006 0.148003,-0.791016 0.1576439,-0.0535 0.3122119,-0.115595 0.4630089,-0.186003 0.372007,0.434008 0.50301,0.586011 0.680013,0.454009 0.197004,-0.146003 0.092,-0.325007 -0.098,-0.790016 0.148975,-0.09981 0.291893,-0.208334 0.428008,-0.325006 0.465009,0.330006 0.630012,0.445009 0.768015,0.274005 0.156003,-0.190004 0.01,-0.339007 -0.290006,-0.745015 0.117794,-0.136695 0.227323,-0.280285 0.328007,-0.430008 0.50701,0.210004 0.693014,0.282006 0.790015,0.088 0.110003,-0.222005 -0.068,-0.333007 -0.453008,-0.667013 0.0732,-0.154241 0.137635,-0.312496 0.193003,-0.4740104 0.560011,0.06 0.759015,0.08 0.797016,-0.136003 0.043,-0.244005 -0.159003,-0.300006 -0.626012,-0.51401 0.0324,-0.169554 0.0551,-0.340834 0.068,-0.51301 0.566011,-0.088 0.766015,-0.120003 0.746015,-0.340007 -0.022,-0.250004 -0.233005,-0.249005 -0.749015,-0.336006 -0.01369,-0.171162 -0.03706,-0.3414376 -0.07,-0.5100103 C 13.460428,7.3830864 13.643431,7.2980848 13.56443,7.0930808 13.47643,6.8610742 13.274423,6.9160752 12.766413,6.9730763 12.708793,6.8077072 12.641679,6.6457687 12.565409,6.488067 13.022418,6.13506 13.182421,6.0110574 13.059419,5.827054 12.917416,5.6160498 12.732413,5.724052 12.219402,5.9020555 12.123021,5.7616943 12.018856,5.6268136 11.907396,5.4980476 12.242403,5.0160378 12.359405,4.8500348 12.185402,4.711032 c -0.195004,-0.1560032 -0.340007,-0.004 -0.758015,0.3080059 -0.13226,-0.1124524 -0.270821,-0.2172917 -0.415008,-0.3140062 0.210004,-0.5400105 0.284005,-0.7280143 0.085,-0.8230161 h -10e-4 C 10.869381,3.7760135 10.763379,3.9600171 10.426372,4.366025 10.272393,4.2932696 10.114476,4.2291677 9.9533631,4.1740214 10.029364,3.59801 10.055365,3.3980059 9.8383611,3.3540052 9.5883561,3.3040042 9.5333541,3.5120083 9.2943501,4.0010178 9.1283631,3.9694222 8.9607681,3.9470538 8.7923401,3.9340165 8.7003381,3.3900059 8.6653371,3.1810017 8.4793338,3.1750014 h -0.019999 z m 1.1470224,1.6000316 c 0.160003,0 0.391008,0.094002 0.6320119,0.2270045 0.442009,0.2450047 0.916018,0.6240124 1.042021,0.7940157 0.606012,0.6480127 1.047021,1.4520286 1.073021,2.7430538 0.005,0.240005 -0.018,0.459009 -0.075,0.637013 -0.061,0.186004 -0.185004,0.372007 -0.380008,0.462009 -0.163003,0.069 -0.343007,0.117002 -0.51001,0.04 -0.52201,-0.240005 -1.178023,-0.653013 -1.7040329,-0.96402 -0.088,-0.053 -0.153003,-0.138002 -0.162003,-0.180003 v -0.002 c 0.0013,-0.02164 0.002,-0.04332 0.002,-0.065 3.7e-4,-0.409975 -0.236152,-0.7832569 -0.607013,-0.9580193 -0.02117,-0.042449 -0.03535,-0.088036 -0.042,-0.1350026 -0.02226,-0.631771 -0.02559,-1.2640667 -0.01,-1.8960373 0.002,-0.4330086 0.313006,-0.6880137 0.696014,-0.7000139 0.0099,-0.00148 0.01996,-0.00249 0.03,-0.003 z m -2.2640446,0.023 h 0.025 c 0.1459164,-0.00108 0.2887798,0.041784 0.4100082,0.1230024 0.1390029,0.1080022 0.2700054,0.240005 0.2840056,0.4240084 0.047001,0.5720114 0.010001,1.3470265 -0.004,1.9580387 -8.202e-4,0.078074 -0.024444,0.1542039 -0.068001,0.2190043 -0.3569146,0.1798029 -0.582059,0.5453732 -0.5820116,0.9450192 2.645e-4,0.01668 9.526e-4,0.03335 0.00201,0.05 -0.027713,0.05872 -0.069648,0.109594 -0.1220026,0.148003 -0.5400106,0.330007 -1.0970214,0.647013 -1.6490325,0.939019 -0.3770072,0.211004 -0.7510148,0.065 -0.9500185,-0.262005 C 4.4292589,9.0011146 4.5942622,7.6540883 4.7332649,7.3440823 5.0002702,6.4990656 5.4832798,5.7190504 6.5973017,5.0640373 6.8043058,4.9410348 7.0053098,4.8540332 7.1883134,4.8160325 c 0.042907,-0.00837 0.086348,-0.013713 0.1300025,-0.015999 z m 1.1240222,3.140062 c 0.2915474,5.56e-4 0.5279104,0.236465 0.5290104,0.528011 0,0.292716 -0.237294,0.53001 -0.5300105,0.53001 -0.292326,-5.55e-4 -0.5290108,-0.237684 -0.5290103,-0.53001 5.557e-4,-0.292326 0.2376839,-0.529011 0.5300104,-0.529011 z m -0.6250122,1.422028 h 0.010001 c 0.014171,-4.76e-4 0.028334,0.0012 0.042001,0.005 l 0.016999,0.002 c 0.1670786,0.103256 0.3596011,0.157965 0.5560111,0.158004 0.1956345,-1.09e-4 0.3874075,-0.05446 0.5540115,-0.157004 0.06813,-0.0069 0.136887,0.0035 0.200004,0.03 0.554522,0.30398 1.1004129,0.6234454 1.6370319,0.9580194 0.372007,0.220004 0.433008,0.618012 0.249005,0.95402 C 10.940377,11.706168 9.6933531,12.237179 9.3543461,12.27218 8.4893293,12.462194 7.5723113,12.434195 6.4472892,11.798182 6.2576708,11.696474 6.0855017,11.565154 5.9372792,11.409175 5.8072766,11.262171 5.7112747,11.060168 5.733275,10.846162 5.756276,10.672159 5.807277,10.493156 5.9582794,10.388153 6.430289,10.061147 7.1203025,9.7081396 7.6563131,9.4131336 c 0.057328,-0.03118 0.12085,-0.04928 0.1860037,-0.053 z"
     style="fill:#e4e4e4;stroke-width:0.264583;fill-opacity:1"
     id="path1087" />
  <path
     id="rect12059"
     style="opacity:0.2;fill:#ffffff;fill-opacity:1;stroke-width:0.999999"
     d="M 16 4 C 9.3519997 4 4 9.3519997 4 16 L 4 17 C 4 10.352 9.3519997 5 16 5 L 48 5 C 54.648 5 60 10.352 60 17 L 60 16 C 60 9.3519997 54.648 4 48 4 L 16 4 z "
     transform="scale(0.26458334)" />
  <path
     id="rect14210"
     style="opacity:0.2;fill:#000000;fill-opacity:1;stroke-width:0.999999"
     d="M 4 47 L 4 48 C 4 54.648 9.3519997 60 16 60 L 48 60 C 54.648 60 60 54.648 60 48 L 60 47 C 60 53.648 54.648 59 48 59 L 16 59 C 9.3519997 59 4 53.648 4 47 z "
     transform="scale(0.26458334)" />
</svg>
