<?xml version="1.0" encoding="UTF-8" standalone="no"?>
<!-- Created with Inkscape (http://www.inkscape.org/) -->

<svg
   width="64"
   height="64"
   viewBox="0 0 16.933333 16.933334"
   version="1.1"
   id="svg5"
   inkscape:version="1.2 (dc2aedaf03, 2022-05-15)"
   sodipodi:docname="qt.svg"
   xmlns:inkscape="http://www.inkscape.org/namespaces/inkscape"
   xmlns:sodipodi="http://sodipodi.sourceforge.net/DTD/sodipodi-0.dtd"
   xmlns="http://www.w3.org/2000/svg"
   xmlns:svg="http://www.w3.org/2000/svg">
  <sodipodi:namedview
     id="namedview7"
     pagecolor="#ffffff"
     bordercolor="#666666"
     borderopacity="1.0"
     inkscape:pageshadow="2"
     inkscape:pageopacity="0.0"
     inkscape:pagecheckerboard="0"
     inkscape:document-units="px"
     showgrid="false"
     units="px"
     height="64px"
     inkscape:zoom="12.34375"
     inkscape:cx="32"
     inkscape:cy="32"
     inkscape:window-width="1920"
     inkscape:window-height="1011"
     inkscape:window-x="0"
     inkscape:window-y="0"
     inkscape:window-maximized="1"
     inkscape:current-layer="svg5"
     inkscape:showpageshadow="2"
     inkscape:deskcolor="#d1d1d1" />
  <defs
     id="defs2" />
  <rect
     style="fill:#00cc5c;stroke-width:0.264583;fill-opacity:1"
     id="rect846"
     width="14.816667"
     height="14.816667"
     x="1.0583335"
     y="1.0583333"
     ry="3.175" />
  <path
     d="M 10.583333,4.4979167 V 6.0854166 H 9.5249997 V 7.14375 h 1.0583333 v 2.1786786 c 0,1.4941184 0.528743,2.0546554 1.477945,2.0546554 h 1.167888 V 10.31875 H 12.1791 c -0.510532,0 -0.537434,-0.3546812 -0.537434,-1.1017414 V 7.14375 h 1.5875 V 6.0854166 h -1.5875 V 4.4979167 Z m -4.2198973,0.011361 c -2.101026,10e-8 -2.659269,1.1870383 -2.659269,3.4282147 0,2.2411776 0.548423,3.4540536 2.659269,3.4540536 h 0.599446 l 0.873332,1.493455 1.011824,-0.373103 -0.824755,-1.494483 c 0.78543,-0.373528 0.97255,-1.5857976 0.97255,-3.0799151 0,-2.2411762 -0.531371,-3.4282144 -2.632397,-3.4282147 z m -0.0093,1.0469647 c 1.281645,0 1.583369,0.9297403 1.583366,2.4628987 0,1.5331575 -0.29201,2.2996009 -1.583366,2.2996009 -1.291355,0 -1.591634,-0.7664434 -1.591634,-2.2996009 0,-1.5331584 0.30999,-2.4628987 1.591634,-2.4628987 z"
     style="fill:#ffffff;stroke-width:0.529166"
     id="path1312" />
  <path
     id="rect845"
     style="opacity:0.2;fill:#000000;stroke-width:0.999999"
     d="M 4 47 L 4 48 C 4 54.648 9.3519997 60 16 60 L 48 60 C 54.648 60 60 54.648 60 48 L 60 47 C 60 53.648 54.648 59 48 59 L 16 59 C 9.3519997 59 4 53.648 4 47 z "
     transform="scale(0.26458334)" />
  <path
     id="rect843"
     style="opacity:0.2;fill:#ffffff;stroke-width:0.999999"
     d="M 16 4 C 9.3519997 4 4 9.3519997 4 16 L 4 17 C 4 10.352 9.3519997 5 16 5 L 48 5 C 54.648 5 60 10.352 60 17 L 60 16 C 60 9.3519997 54.648 4 48 4 L 16 4 z "
     transform="scale(0.26458334)" />
</svg>
