<?xml version="1.0" encoding="UTF-8" standalone="no"?>
<!-- Created with Inkscape (http://www.inkscape.org/) -->

<svg
   width="64"
   height="64"
   viewBox="0 0 16.933333 16.933334"
   version="1.1"
   id="svg5"
   inkscape:version="1.1.2 (0a00cf5339, 2022-02-04, custom)"
   sodipodi:docname="system-file-manager.svg"
   xmlns:inkscape="http://www.inkscape.org/namespaces/inkscape"
   xmlns:sodipodi="http://sodipodi.sourceforge.net/DTD/sodipodi-0.dtd"
   xmlns="http://www.w3.org/2000/svg"
   xmlns:svg="http://www.w3.org/2000/svg">
  <sodipodi:namedview
     id="namedview7"
     pagecolor="#ffffff"
     bordercolor="#666666"
     borderopacity="1.0"
     inkscape:pageshadow="2"
     inkscape:pageopacity="0.0"
     inkscape:pagecheckerboard="0"
     inkscape:document-units="px"
     showgrid="false"
     units="px"
     height="64px"
     inkscape:zoom="12.25"
     inkscape:cx="32"
     inkscape:cy="32"
     inkscape:window-width="1920"
     inkscape:window-height="1011"
     inkscape:window-x="0"
     inkscape:window-y="0"
     inkscape:window-maximized="1"
     inkscape:current-layer="svg5" />
  <defs
     id="defs2" />
  <rect
     style="fill:#cccccc;fill-opacity:1;stroke-width:0.264583"
     id="rect846"
     width="14.816667"
     height="14.816667"
     x="1.0583334"
     y="1.0583334"
     ry="3.175" />
  <rect
     style="opacity:1;fill:#2696f7;fill-opacity:1;stroke-width:0.264583"
     id="rect14930"
     width="14.816667"
     height="14.816667"
     x="1.0583334"
     y="1.0583334"
     ry="3.175" />
  <path
     id="path3333"
     style="color:#000000;fill:#dcf4ff;fill-opacity:1;stroke:none;stroke-width:2;stroke-linejoin:round;-inkscape-stroke:none"
     d="m 32,4 c -3.916526,9.329476 -6.944541,25.025955 -6.956476,29.81672 0.0021,0.01764 -0.01104,0.182524 0.0183,0.366558 0.220053,1.43461 0.735251,1.775558 1.938652,1.850901 l 6.132476,-0.06836 C 33.691072,42.031681 34.898581,52.326507 36.999999,60 H 48 c 6.648,0 12,-5.352 12,-12 V 16 C 60,9.3520002 54.648,4 48,4 Z"
     transform="scale(0.26458334)"
     sodipodi:nodetypes="ccccccssssc" />
  <path
     d="m 5.1519678,5.2917048 c -0.2151547,0.0054 -0.3870566,0.179881 -0.3870566,0.3958413 v 0.7953005 c 0,0.2193882 0.1769327,0.3958415 0.396875,0.3958415 0.2199424,0 0.3973918,-0.1764533 0.3973918,-0.3958415 V 5.6875461 c 0,-0.2193882 -0.1774494,-0.3958413 -0.3973918,-0.3958413 -0.00344,0 -0.0064,-8.57e-5 -0.00982,0 z m 6.6140662,0 c -0.215155,0.0054 -0.387056,0.179881 -0.387056,0.3958413 v 0.7953005 c 0,0.2193882 0.177449,0.3958415 0.397392,0.3958415 0.219942,0 0.396874,-0.1764533 0.396874,-0.3958415 V 5.6875461 c 0,-0.2193882 -0.176932,-0.3958413 -0.396874,-0.3958413 -0.0034,0 -0.0069,-8.57e-5 -0.01033,0 z M 4.6837791,10.751836 c -0.2254651,2.34e-4 -0.3476632,0.264009 -0.2020546,0.436149 0.8330164,1.013021 2.3594732,1.495985 3.8995033,1.509986 1.5400303,0.012 3.1188162,-0.449093 4.0638352,-1.483114 0.281273,-0.261183 -0.155721,-0.659977 -0.390157,-0.356051 -0.796017,0.871018 -2.2410327,1.320999 -3.6700609,1.309998 -1.4290277,-0.011 -2.8158299,-0.491215 -3.4938432,-1.317233 -0.050299,-0.06305 -0.1265706,-0.09975 -0.2072228,-0.09973 z"
     style="font-variant-ligatures:normal;font-variant-position:normal;font-variant-caps:normal;font-variant-numeric:normal;font-variant-alternates:normal;font-feature-settings:normal;text-indent:0;text-decoration-line:none;text-decoration-style:solid;text-decoration-color:#000000;text-transform:none;text-orientation:mixed;white-space:normal;shape-padding:0;isolation:auto;mix-blend-mode:normal;stroke-width:1.00002"
     id="path1032" />
  <path
     id="rect12059"
     style="opacity:0.2;fill:#ffffff;fill-opacity:1;stroke-width:0.999999"
     d="M 16 4 C 9.3519997 4 4 9.3519997 4 16 L 4 17 C 4 10.352 9.3519997 5 16 5 L 48 5 C 54.648 5 60 10.352 60 17 L 60 16 C 60 9.3519997 54.648 4 48 4 L 16 4 z "
     transform="scale(0.26458334)" />
  <path
     id="rect14210"
     style="opacity:0.2;fill:#000000;fill-opacity:1;stroke-width:0.999999"
     d="M 4 47 L 4 48 C 4 54.648 9.3519997 60 16 60 L 48 60 C 54.648 60 60 54.648 60 48 L 60 47 C 60 53.648 54.648 59 48 59 L 16 59 C 9.3519997 59 4 53.648 4 47 z "
     transform="scale(0.26458334)" />
</svg>
