<?xml version="1.0" encoding="UTF-8" standalone="no"?>
<!-- Created with Inkscape (http://www.inkscape.org/) -->

<svg
   width="64"
   height="64"
   viewBox="0 0 16.933333 16.933334"
   version="1.1"
   id="svg5"
   inkscape:version="1.1.2 (0a00cf5339, 2022-02-04, custom)"
   sodipodi:docname="system-software-install.svg"
   xmlns:inkscape="http://www.inkscape.org/namespaces/inkscape"
   xmlns:sodipodi="http://sodipodi.sourceforge.net/DTD/sodipodi-0.dtd"
   xmlns="http://www.w3.org/2000/svg"
   xmlns:svg="http://www.w3.org/2000/svg">
  <sodipodi:namedview
     id="namedview7"
     pagecolor="#ffffff"
     bordercolor="#666666"
     borderopacity="1.0"
     inkscape:pageshadow="2"
     inkscape:pageopacity="0.0"
     inkscape:pagecheckerboard="0"
     inkscape:document-units="px"
     showgrid="false"
     units="px"
     height="64px"
     inkscape:zoom="12.40625"
     inkscape:cx="31.959698"
     inkscape:cy="32"
     inkscape:window-width="1920"
     inkscape:window-height="1017"
     inkscape:window-x="0"
     inkscape:window-y="32"
     inkscape:window-maximized="1"
     inkscape:current-layer="svg5" />
  <defs
     id="defs2" />
  <rect
     style="fill:#48a3f6;stroke-width:0.264583;fill-opacity:1"
     id="rect846"
     width="14.816667"
     height="14.816667"
     x="1.0583335"
     y="1.0583333"
     ry="3.175" />
  <path
     id="rect945"
     style="fill:#ffffff;fill-opacity:1;stroke-width:0.278895"
     d="m 7.4569093,3.7951595 c -0.106579,0.00288 -0.213986,0.031626 -0.313159,0.088884 C 6.8263968,4.0672668 6.7181634,4.4699939 6.9013873,4.787347 L 7.7023723,6.175376 5.6156777,9.7896256 H 3.8364583 C 3.4700104,9.7896256 3.175,10.084636 3.175,10.451084 c 0,0.366448 0.2950104,0.661458 0.6614583,0.661458 h 6.118489 L 9.1911703,9.7896256 h -2.04742 L 10.031945,4.787347 c 0.183224,-0.3173531 0.07499,-0.7200802 -0.2423617,-0.9033039 -0.10909,-0.062984 -0.228275,-0.091396 -0.345199,-0.088884 -0.223218,0.0048 -0.438381,0.1224661 -0.558622,0.3307292 L 8.4666663,4.8519427 8.0475703,4.1258887 C 7.9216043,3.9077083 7.6913823,3.7888262 7.4569093,3.7951595 Z m 2.067057,2.8881959 -0.763778,1.3234334 2.7714067,4.8007412 c 0.183224,0.317353 0.586468,0.425069 0.903821,0.241845 0.317353,-0.183224 0.425587,-0.585951 0.242363,-0.903304 l -0.596863,-1.033529 h 1.015959 c 0.366447,0 0.661458,-0.29501 0.661458,-0.661458 0,-0.366448 -0.295011,-0.6614584 -0.661458,-0.6614584 H 11.317138 Z M 4.5464925,11.641709 4.255554,12.146071 c -0.1832239,0.317353 -0.074991,0.72008 0.2423626,0.903304 0.3173532,0.183224 0.7205969,0.07551 0.9038209,-0.241845 l 0.6728269,-1.165821 z" />
  <path
     id="rect845"
     style="opacity:0.2;fill:#000000;stroke-width:0.999999"
     d="M 4 47 L 4 48 C 4 54.648 9.3519997 60 16 60 L 48 60 C 54.648 60 60 54.648 60 48 L 60 47 C 60 53.648 54.648 59 48 59 L 16 59 C 9.3519997 59 4 53.648 4 47 z "
     transform="scale(0.26458334)" />
  <path
     id="rect843"
     style="opacity:0.2;fill:#ffffff;stroke-width:0.999999"
     d="M 16 4 C 9.3519997 4 4 9.3519997 4 16 L 4 17 C 4 10.352 9.3519997 5 16 5 L 48 5 C 54.648 5 60 10.352 60 17 L 60 16 C 60 9.3519997 54.648 4 48 4 L 16 4 z "
     transform="scale(0.26458334)" />
</svg>
