<?xml version="1.0" encoding="UTF-8" standalone="no"?>
<!-- Created with Inkscape (http://www.inkscape.org/) -->

<svg
   width="64"
   height="64"
   viewBox="0 0 16.933333 16.933334"
   version="1.1"
   id="svg5"
   inkscape:version="1.1.2 (0a00cf5339, 2022-02-04, custom)"
   sodipodi:docname="utilities-terminal.svg"
   xmlns:inkscape="http://www.inkscape.org/namespaces/inkscape"
   xmlns:sodipodi="http://sodipodi.sourceforge.net/DTD/sodipodi-0.dtd"
   xmlns="http://www.w3.org/2000/svg"
   xmlns:svg="http://www.w3.org/2000/svg">
  <sodipodi:namedview
     id="namedview7"
     pagecolor="#ffffff"
     bordercolor="#666666"
     borderopacity="1.0"
     inkscape:pageshadow="2"
     inkscape:pageopacity="0.0"
     inkscape:pagecheckerboard="0"
     inkscape:document-units="px"
     showgrid="false"
     units="px"
     height="64px"
     inkscape:zoom="15"
     inkscape:cx="32"
     inkscape:cy="32"
     inkscape:window-width="1920"
     inkscape:window-height="1011"
     inkscape:window-x="0"
     inkscape:window-y="0"
     inkscape:window-maximized="1"
     inkscape:current-layer="svg5" />
  <defs
     id="defs2" />
  <rect
     style="fill:#cccccc;fill-opacity:1;stroke-width:0.264583"
     id="rect846"
     width="14.816667"
     height="14.816667"
     x="1.0583334"
     y="1.0583334"
     ry="3.175" />
  <path
     id="rect12059"
     style="opacity:0.2;fill:#ffffff;fill-opacity:1;stroke-width:0.999999"
     d="M 16 4 C 9.3519997 4 4 9.3519997 4 16 L 4 17 C 4 10.352 9.3519997 5 16 5 L 48 5 C 54.648 5 60 10.352 60 17 L 60 16 C 60 9.3519997 54.648 4 48 4 L 16 4 z "
     transform="scale(0.26458334)" />
  <path
     id="rect14210"
     style="opacity:0.2;fill:#000000;fill-opacity:1;stroke-width:0.999999"
     d="M 4 47 L 4 48 C 4 54.648 9.3519997 60 16 60 L 48 60 C 54.648 60 60 54.648 60 48 L 60 47 C 60 53.648 54.648 59 48 59 L 16 59 C 9.3519997 59 4 53.648 4 47 z "
     transform="scale(0.26458334)" />
  <rect
     style="opacity:1;fill:#3d3d3d;fill-opacity:1;stroke-width:0.264583"
     id="rect14930"
     width="13.229167"
     height="13.229167"
     x="1.8520833"
     y="1.8520833"
     ry="2.3812499" />
  <path
     id="rect1228"
     style="opacity:0.2;fill:#ffffff;fill-opacity:1;stroke-width:0.79375;stroke-linejoin:round"
     d="m 4.2333334,1.8520834 c -1.3192125,0 -2.38125,1.0620375 -2.38125,2.3812501 v 0.2645833 c 0,-1.3192125 1.0620375,-2.3812501 2.38125,-2.3812501 H 12.7 c 1.319213,0 2.38125,1.0620376 2.38125,2.3812501 V 4.2333335 c 0,-1.3192126 -1.062037,-2.3812501 -2.38125,-2.3812501 z" />
  <rect
     style="opacity:0.1;fill:#ffffff;stroke-width:0.79375;stroke-linejoin:round"
     id="rect847"
     width="11.1125"
     height="11.1125"
     x="2.9104166"
     y="2.9104166"
     ry="1.3229166" />
  <path
     id="rect17316"
     style="opacity:1;fill:#ffffff;stroke-width:0.264583"
     d="M 3.96875,3.96875 V 4.4979166 L 5.5562501,5.2916667 3.96875,6.0854167 V 6.6145834 L 6.0854168,5.55625 V 5.0270833 Z M 6.0854168,6.6145834 V 7.14375 h 2.38125 V 6.6145834 Z" />
</svg>
