<?xml version="1.0" encoding="UTF-8" standalone="no"?>
<!-- Created with Inkscape (http://www.inkscape.org/) -->

<svg
   width="64"
   height="64"
   viewBox="0 0 16.933333 16.933334"
   version="1.1"
   id="svg5"
   inkscape:version="1.1.2 (0a00cf5339, 2022-02-04, custom)"
   sodipodi:docname="vlc.svg"
   xmlns:inkscape="http://www.inkscape.org/namespaces/inkscape"
   xmlns:sodipodi="http://sodipodi.sourceforge.net/DTD/sodipodi-0.dtd"
   xmlns="http://www.w3.org/2000/svg"
   xmlns:svg="http://www.w3.org/2000/svg">
  <sodipodi:namedview
     id="namedview7"
     pagecolor="#ffffff"
     bordercolor="#666666"
     borderopacity="1.0"
     inkscape:pageshadow="2"
     inkscape:pageopacity="0.0"
     inkscape:pagecheckerboard="0"
     inkscape:document-units="px"
     showgrid="false"
     units="px"
     height="64px"
     inkscape:zoom="12.25"
     inkscape:cx="32.040816"
     inkscape:cy="32"
     inkscape:window-width="1920"
     inkscape:window-height="1017"
     inkscape:window-x="0"
     inkscape:window-y="32"
     inkscape:window-maximized="1"
     inkscape:current-layer="svg5" />
  <defs
     id="defs2" />
  <rect
     style="fill:#eb8029;stroke-width:0.264583;fill-opacity:1"
     id="rect846"
     width="14.816667"
     height="14.816667"
     x="1.0583335"
     y="1.0583333"
     ry="3.175" />
  <path
     d="M 8.4660089,3.704284 C 8.2377524,3.7017705 8.0044954,3.7395131 7.7745812,3.8318809 7.632106,3.8891825 7.5236306,4.0085067 7.4801246,4.1557833 L 7.0177192,5.7185837 c 0.6928998,0.5025078 2.2004068,0.5025078 2.8933069,0 L 9.449711,4.1557841 C 9.403611,3.9998953 9.2849859,3.8760248 9.1312619,3.8231574 8.918312,3.7498437 8.6942711,3.706836 8.4660089,3.704284 Z M 6.4233536,7.7285217 5.8093575,9.8060753 c 0.5413114,0.3173197 3.1239794,1.3249167 5.3111195,0 L 10.506481,7.7285217 c -1.3820292,0.5496039 -2.5442316,0.6909258 -4.0831274,0 z m 4.6971234,2.0775536 0.33917,1.1418347 c 0.06442,0.217828 -0.02565,0.452553 -0.219207,0.571462 C 10.451698,12.003537 9.447552,12.241566 8.4463779,12.25115 7.4452033,12.26075 6.4387659,12.043032 5.6643103,11.503014 5.4869696,11.379245 5.4089019,11.155306 5.4701873,10.94791 L 5.8093575,9.8060753 H 5.198633 c -0.2027986,5e-5 -0.3854585,0.121453 -0.4634963,0.3086327 l -1.2563472,2.947834 c -0.1379064,0.330965 0.1049459,0.695682 0.463496,0.69579 h 9.0452635 c 0.358547,-1.12e-4 0.601409,-0.364828 0.463497,-0.69579 L 12.194698,10.114708 C 12.116658,9.9275293 11.934006,9.8061253 11.731201,9.8060753 Z"
     style="fill:#000000;fill-opacity:1;fill-rule:evenodd;stroke-width:0.0251288;opacity:0.2"
     id="path1504" />
  <path
     d="M 8.466009,3.4397006 C 8.2377523,3.4371871 8.0044954,3.4749296 7.7745812,3.5672975 7.632106,3.6245991 7.5236305,3.7439233 7.4801246,3.8911999 L 7.0177192,5.4540003 c 0.6929,0.5025077 2.2004068,0.5025077 2.8933068,0 L 9.449711,3.8912007 C 9.403611,3.7353119 9.284986,3.6114414 9.131262,3.558574 8.918312,3.4852603 8.694271,3.4422525 8.466009,3.4397006 Z M 6.4233536,7.4639382 5.8093575,9.5414919 c 0.5413114,0.31732 3.1239795,1.3249171 5.3111195,0 L 10.506481,7.4639382 c -1.382029,0.5496038 -2.5442316,0.6909257 -4.0831274,0 z m 4.6971234,2.0775537 0.33917,1.1418351 c 0.06442,0.217828 -0.02565,0.452553 -0.219207,0.571462 -0.788742,0.484165 -1.792888,0.722194 -2.794062,0.731778 C 7.4452033,11.996167 6.4387659,11.778449 5.6643103,11.238431 5.4869696,11.114662 5.4089019,10.890723 5.4701874,10.683327 L 5.8093575,9.5414919 H 5.1986331 c -0.2027987,5e-5 -0.3854585,0.121453 -0.4634963,0.308633 L 3.4787895,12.797959 c -0.1379063,0.330965 0.104946,0.695681 0.4634961,0.695789 h 9.0452634 c 0.358547,-1.12e-4 0.601409,-0.364827 0.463497,-0.695789 L 12.194698,9.8501249 c -0.07804,-0.187179 -0.260692,-0.308583 -0.463497,-0.308633 z"
     style="fill:#fdf6f0;fill-opacity:1;fill-rule:evenodd;stroke-width:0.0949748"
     id="path866"
     sodipodi:nodetypes="ccccccccccccccccccccccccccccc" />
  <path
     id="rect845"
     style="opacity:0.2;fill:#000000;stroke-width:0.999999"
     d="M 4 47 L 4 48 C 4 54.648 9.3519997 60 16 60 L 48 60 C 54.648 60 60 54.648 60 48 L 60 47 C 60 53.648 54.648 59 48 59 L 16 59 C 9.3519997 59 4 53.648 4 47 z "
     transform="scale(0.26458334)" />
  <path
     id="rect843"
     style="opacity:0.2;fill:#ffffff;stroke-width:0.999999"
     d="M 16 4 C 9.3519997 4 4 9.3519997 4 16 L 4 17 C 4 10.352 9.3519997 5 16 5 L 48 5 C 54.648 5 60 10.352 60 17 L 60 16 C 60 9.3519997 54.648 4 48 4 L 16 4 z "
     transform="scale(0.26458334)" />
</svg>
