<?xml version="1.0" encoding="UTF-8" standalone="no"?>
<!-- Created with Inkscape (http://www.inkscape.org/) -->

<svg
   width="32"
   height="32"
   viewBox="0 0 8.4666665 8.466667"
   version="1.1"
   id="svg5"
   inkscape:version="1.1.2 (0a00cf5339, 2022-02-04, custom)"
   sodipodi:docname="inkscape.svg"
   xmlns:inkscape="http://www.inkscape.org/namespaces/inkscape"
   xmlns:sodipodi="http://sodipodi.sourceforge.net/DTD/sodipodi-0.dtd"
   xmlns="http://www.w3.org/2000/svg"
   xmlns:svg="http://www.w3.org/2000/svg">
  <sodipodi:namedview
     id="namedview7"
     pagecolor="#ffffff"
     bordercolor="#666666"
     borderopacity="1.0"
     inkscape:pageshadow="2"
     inkscape:pageopacity="0.0"
     inkscape:pagecheckerboard="0"
     inkscape:document-units="px"
     showgrid="false"
     units="px"
     height="64px"
     inkscape:zoom="24.5"
     inkscape:cx="16.020408"
     inkscape:cy="16"
     inkscape:window-width="1920"
     inkscape:window-height="1017"
     inkscape:window-x="0"
     inkscape:window-y="32"
     inkscape:window-maximized="1"
     inkscape:current-layer="svg5" />
  <defs
     id="defs2" />
  <rect
     style="fill:#4d4d4d;stroke-width:0.264583;fill-opacity:1"
     id="rect846"
     width="7.9375"
     height="7.9375"
     x="0.26458335"
     y="0.26458335"
     ry="1.5875" />
  <path
     d="m 4.2333333,1.8520834 c -0.149576,0 -0.29925,0.056613 -0.412263,0.1762742 L 1.7637743,4.1488137 C 1.6507612,4.2651505 1.5908242,4.4182256 1.5875001,4.5711251 v 0.00976 c 0,0.4553755 1.2132276,0.013347 1.3229168,0.5684408 0.05983,0.3024755 -0.6614584,0.1628985 -0.6614584,0.4653745 0,0.3556585 1.0203642,0.113037 1.3128688,0.402215 0.1196605,0.292504 -0.3922191,0.245926 -0.2991495,0.518487 0.1695195,0.176167 0.55503,0.076448 0.628156,0.3623091 0.086422,0.325744 0.6381875,0.2691835 0.9606071,0.02986 C 5.0242842,6.7514049 4.5889039,6.6718329 4.7584233,6.4923414 4.9312669,6.3161744 5.7755428,6.3525384 5.7821908,5.9669649 5.7024168,5.7243159 5.3832997,5.6843769 5.3799757,5.3985214 5.3633607,5.1558759 5.6393453,5.2258669 6.5168573,4.9865456 6.8658678,4.820351 6.8791668,4.7337855 6.8791668,4.580886 V 4.571126 C 6.8758333,4.4182301 6.8061443,4.265151 6.6931313,4.1488143 L 4.6455968,2.0283576 C 4.5292599,1.9086967 4.3829098,1.8520834 4.2333333,1.8520834 Z m 0.039905,0.4452785 c 0.156224,0 0.581682,0.5254434 0.9606079,0.920989 0.1096885,0.1429277 -0.039905,0.2891009 -0.039905,0.2891009 L 4.3995593,3.0719344 4.0472983,3.5473574 3.7381008,3.0819827 3.5520657,3.8066011 3.0034343,3.4775945 3.149851,3.2912721 4.0073928,2.410476 C 4.0705474,2.3439973 4.1236633,2.2973625 4.2732383,2.2973619 Z m 2.3248655,3.183268 c -0.03085,4e-6 -0.058811,0.00375 -0.081247,0.011195 -0.056506,0.01662 -0.3224165,0.02651 -0.299149,0.225941 0.2393215,0.10304 0.6050415,0.1826565 0.648252,-0.020095 0.03324,-0.1495765 -0.10968,-0.212568 -0.235989,-0.2158925 -0.0108,-8e-4 -0.021585,-0.00115 -0.031865,-0.00115 z m -4.0333454,0.670071 c -0.012199,4e-5 -0.02438,9e-4 -0.036461,0.0026 -0.023268,0.0033 -0.040059,0.00978 -0.060002,0.01981 -0.1828153,0.069798 -0.3058878,0.2161845 -0.1363684,0.279339 0.1695194,0.063154 0.2859415,-0.00345 0.4355176,-0.083257 0.149576,-0.079774 0.142895,-0.09295 0.1329232,-0.122875 -0.019944,0.0033 -0.1562209,-0.079726 -0.2991491,-0.093018 -0.012081,-0.0017 -0.024262,-0.00255 -0.036461,-0.0026 z"
     style="opacity:0.2;fill:#000000;fill-opacity:1;stroke-width:0.0232688"
     id="path5231" />
  <path
     d="m 4.2333332,1.5875 c -0.149576,0 -0.29925,0.056613 -0.412263,0.1762742 L 1.7637742,3.8842303 C 1.6507611,4.0005671 1.5908241,4.1536422 1.5875,4.3065418 v 0.00976 c 0,0.4553755 1.2132276,0.013347 1.3229167,0.5684409 0.05983,0.3024754 -0.6614584,0.1628984 -0.6614584,0.4653745 0,0.3556585 1.0203644,0.113037 1.3128689,0.402215 0.1196605,0.292504 -0.392219,0.245926 -0.2991495,0.518487 0.1695195,0.176167 0.55503,0.076448 0.628156,0.362309 0.086422,0.325744 0.6381875,0.2691835 0.960607,0.02986 C 5.0242841,6.4868217 4.5889037,6.4072497 4.7584232,6.2277582 4.9312667,6.0515912 5.7755427,6.0879552 5.7821907,5.7023817 5.7024167,5.4597327 5.3832997,5.4197937 5.3799757,5.1339381 5.3633607,4.8912927 5.6393452,4.9612838 6.5168572,4.7219623 6.8658677,4.5557677 6.8791667,4.4692023 6.8791667,4.3163028 v -0.00976 C 6.8758332,4.1536467 6.8061442,4.0005676 6.6931312,3.8842309 L 4.6455967,1.7637742 C 4.5292597,1.6441133 4.3829097,1.5875 4.2333332,1.5875 Z m 0.039905,0.4452786 c 0.156224,0 0.581682,0.5254433 0.960608,0.9209889 0.1096885,0.1429278 -0.039905,0.2891009 -0.039905,0.2891009 L 4.3995592,2.8073509 4.0472982,3.2827741 3.7381007,2.8173993 3.5520657,3.5420176 3.0034342,3.213011 3.1498509,3.0266888 4.0073927,2.1458926 c 0.063155,-0.066479 0.1162705,-0.1131135 0.2658455,-0.113114 z m 2.3248655,3.183268 c -0.03085,4e-6 -0.058811,0.00375 -0.081247,0.011195 -0.056506,0.01662 -0.3224165,0.02651 -0.299149,0.225941 0.2393215,0.10304 0.6050415,0.1826565 0.648252,-0.020095 0.03324,-0.1495765 -0.10968,-0.212568 -0.235989,-0.2158925 -0.0108,-8e-4 -0.021585,-0.00115 -0.031865,-0.00115 z M 2.5647583,5.8861177 c -0.012198,4e-5 -0.02438,9e-4 -0.03646,0.0026 -0.023268,0.0033 -0.040059,0.00978 -0.060002,0.01981 -0.1828153,0.069799 -0.3058878,0.216185 -0.1363684,0.2793395 0.1695194,0.063154 0.2859415,-0.00345 0.4355176,-0.083257 0.149576,-0.079774 0.142895,-0.09295 0.1329232,-0.122875 -0.019944,0.0033 -0.156221,-0.079726 -0.2991492,-0.093018 -0.012081,-0.0017 -0.024262,-0.00255 -0.03646,-0.0026 z"
     style="fill:#f2f2f2;fill-opacity:1;stroke-width:0.087945"
     id="path866"
     sodipodi:nodetypes="scccscsccccccccscccsscccccccccssccccsssccscccss" />
  <path
     id="rect1107"
     style="opacity:0.2;fill:#ffffff;stroke-width:0.79375;stroke-linejoin:round"
     d="m 1.8520834,0.26458334 c -0.8794751,0 -1.58750006,0.70802492 -1.58750006,1.58750006 v 0.2645834 c 0,-0.8794751 0.70802496,-1.58750012 1.58750006,-1.58750012 h 4.7625001 c 0.879475,0 1.5875001,0.70802502 1.5875001,1.58750012 V 1.8520834 c 0,-0.87947514 -0.7080251,-1.58750006 -1.5875001,-1.58750006 z"
     sodipodi:nodetypes="sscsscsss" />
  <path
     id="rect1153"
     style="opacity:0.2;fill:#000000;stroke-width:0.79375;stroke-linejoin:round"
     d="m 0.26458334,6.3500001 v 0.2645834 c 0,0.879475 0.70802496,1.5875 1.58750006,1.5875 h 4.7625001 c 0.879475,0 1.5875001,-0.708025 1.5875001,-1.5875 V 6.3500001 c 0,0.879475 -0.7080251,1.5875001 -1.5875001,1.5875001 H 1.8520834 c -0.8794751,0 -1.58750006,-0.7080251 -1.58750006,-1.5875001 z"
     sodipodi:nodetypes="csssscssc" />
</svg>
