<?xml version="1.0" encoding="UTF-8" standalone="no"?>
<!-- Created with Inkscape (http://www.inkscape.org/) -->

<svg
   width="32"
   height="32"
   viewBox="0 0 8.4666665 8.466667"
   version="1.1"
   id="svg5"
   inkscape:version="1.1.2 (0a00cf5339, 2022-02-04, custom)"
   sodipodi:docname="preferences-system.svg"
   xmlns:inkscape="http://www.inkscape.org/namespaces/inkscape"
   xmlns:sodipodi="http://sodipodi.sourceforge.net/DTD/sodipodi-0.dtd"
   xmlns="http://www.w3.org/2000/svg"
   xmlns:svg="http://www.w3.org/2000/svg">
  <sodipodi:namedview
     id="namedview7"
     pagecolor="#ffffff"
     bordercolor="#666666"
     borderopacity="1.0"
     inkscape:pageshadow="2"
     inkscape:pageopacity="0.0"
     inkscape:pagecheckerboard="0"
     inkscape:document-units="px"
     showgrid="false"
     units="px"
     height="64px"
     inkscape:zoom="13.066667"
     inkscape:cx="10.561225"
     inkscape:cy="13.77551"
     inkscape:window-width="1920"
     inkscape:window-height="1011"
     inkscape:window-x="0"
     inkscape:window-y="0"
     inkscape:window-maximized="1"
     inkscape:current-layer="svg5" />
  <defs
     id="defs2" />
  <rect
     style="fill:#e4e4e4;fill-opacity:1;stroke-width:0.264583"
     id="rect846"
     width="7.9375"
     height="7.9375"
     x="0.26458335"
     y="0.26458335"
     ry="1.5875" />
  <path
     id="rect1107"
     style="opacity:0.2;fill:#ffffff;stroke-width:0.79375;stroke-linejoin:round"
     d="m 1.8520834,0.26458334 c -0.87947505,0 -1.58750006,0.70802492 -1.58750006,1.58750016 v 0.2645834 c 0,-0.8794752 0.70802501,-1.58750022 1.58750006,-1.58750022 h 4.7625001 c 0.879475,0 1.5875001,0.70802502 1.5875001,1.58750022 V 1.8520835 c 0,-0.87947524 -0.7080251,-1.58750016 -1.5875001,-1.58750016 z"
     sodipodi:nodetypes="sscsscsss" />
  <circle
     style="fill:#626262;fill-opacity:1;stroke-width:0.409608;stroke-linejoin:round"
     id="path1195"
     cx="4.2333331"
     cy="4.2333331"
     r="3.175" />
  <path
     id="path860"
     style="opacity:0.15;fill:#ffffff;stroke-width:0.499948"
     d="M 16 4 A 12 12 0 0 0 14.144531 4.1464844 C 14.147071 4.1802769 14.150164 4.2152506 14.152344 4.2480469 C 14.411627 8.5669428 11.121624 12.277729 6.8027344 12.537109 C 6.1945003 12.571606 5.3859973 12.550746 4.5546875 12.398438 A 12 12 0 0 0 4.0566406 14.900391 C 4.0672107 14.90372 4.076728 14.907136 4.0878906 14.910156 C 4.505491 15.023535 4.6409774 14.650286 5 13.601562 C 5.3401272 13.645023 5.6854542 13.672065 6.03125 13.677734 C 6.2957905 14.822828 6.3819281 15.214446 6.8203125 15.144531 C 7.311608 15.067065 7.2807106 14.648652 7.3808594 13.609375 C 7.724765 13.562134 8.0660586 13.495186 8.4042969 13.410156 C 8.8918117 14.422978 9.0702362 14.779756 9.4746094 14.619141 C 9.9375592 14.430183 9.809942 14.029384 9.6757812 12.986328 C 9.9894544 12.855947 10.297084 12.711334 10.59375 12.548828 C 11.355256 13.401035 11.622955 13.698011 11.96875 13.429688 C 12.361786 13.123574 12.130681 12.772541 11.71875 11.816406 C 11.998409 11.602882 12.262419 11.370648 12.515625 11.125 C 13.430188 11.737229 13.762801 11.951392 14.027344 11.609375 C 14.3259 11.220119 14.027861 10.937969 13.404297 10.138672 C 13.608372 9.8779072 13.794844 9.6057049 13.966797 9.3222656 C 15.058982 9.63594 15.442519 9.7439616 15.591797 9.3320312 C 15.758081 8.8728614 15.390205 8.6901151 14.564453 8.1289062 C 14.702395 7.8020036 14.821658 7.4650635 14.919922 7.1230469 C 16.049899 7.1589524 16.450679 7.1689821 16.494141 6.734375 C 16.541379 6.2487484 16.136394 6.1641552 15.197266 5.8183594 C 15.242615 5.4631155 15.265688 5.1031629 15.267578 4.7441406 C 16.338978 4.5381745 16.726736 4.4562816 16.673828 4.0273438 C 16.67348 4.0245514 16.672246 4.022291 16.671875 4.0195312 A 12 12 0 0 0 16 4 z M 15.519531 10.693359 L 14.90625 10.775391 C 14.880133 10.778991 14.856183 10.791822 14.839844 10.8125 C 14.82431 10.834497 14.818196 10.861822 14.820312 10.888672 L 14.832031 11.650391 C 14.386918 11.76183 13.959894 11.940434 13.568359 12.179688 L 13.048828 11.632812 C 13.031782 11.612025 13.007126 11.597231 12.980469 11.59375 C 12.953747 11.589555 12.927869 11.597084 12.90625 11.613281 L 12.414062 11.988281 C 12.392519 12.005516 12.379603 12.029182 12.376953 12.056641 C 12.374853 12.083211 12.382198 12.110343 12.396484 12.132812 L 12.773438 12.794922 C 12.446539 13.11238 12.168538 13.476359 11.953125 13.876953 L 11.234375 13.667969 C 11.182195 13.647257 11.124507 13.672531 11.103516 13.724609 L 10.863281 14.291016 C 10.852774 14.316414 10.852774 14.345684 10.863281 14.371094 C 10.8753 14.395812 10.895208 14.415704 10.919922 14.427734 L 11.578125 14.808594 C 11.453835 15.247191 11.396645 15.702481 11.408203 16.158203 L 10.673828 16.335938 C 10.646502 16.338937 10.621015 16.35184 10.603516 16.373047 C 10.587264 16.394666 10.58178 16.422509 10.585938 16.449219 L 10.664062 17.060547 C 10.66788 17.088893 10.684224 17.113796 10.703125 17.128906 C 10.725802 17.145914 10.750895 17.150391 10.777344 17.150391 L 11.544922 17.154297 C 11.656407 17.594573 11.834176 18.016993 12.072266 18.40625 L 11.525391 18.923828 C 11.480312 18.958146 11.471197 19.023542 11.505859 19.068359 L 11.882812 19.558594 C 11.89982 19.579381 11.924711 19.595763 11.951172 19.597656 C 11.97778 19.599856 12.004924 19.592638 12.027344 19.578125 L 12.685547 19.201172 C 13.00489 19.529961 13.369 19.804244 13.771484 20.023438 L 13.560547 20.740234 C 13.550758 20.765141 13.550758 20.793467 13.560547 20.818359 C 13.57026 20.843947 13.589991 20.864391 13.615234 20.875 L 14.183594 21.111328 C 14.209559 21.122364 14.23771 21.122364 14.263672 21.111328 C 14.288277 21.099196 14.308161 21.079288 14.320312 21.054688 L 14.703125 20.398438 C 15.141727 20.522697 15.597016 20.579887 16.052734 20.568359 L 16.228516 21.300781 C 16.234223 21.329128 16.246798 21.35214 16.267578 21.369141 C 16.289273 21.385204 16.317044 21.392603 16.34375 21.388672 L 16.955078 21.308594 C 16.981875 21.305494 17.006638 21.292578 17.023438 21.271484 C 17.038707 21.248656 17.044745 21.220761 17.042969 21.193359 L 17.046875 20.427734 C 17.475809 20.318137 17.88777 20.14661 18.267578 19.917969 L 18.824219 20.445312 C 18.967829 20.46421 18.866121 20.480528 18.892578 20.482422 C 18.919262 20.486315 18.945095 20.480942 18.966797 20.464844 L 19.457031 20.087891 C 19.478121 20.07111 19.491038 20.046302 19.494141 20.019531 C 19.496541 19.992923 19.491151 19.96768 19.476562 19.945312 L 19.085938 19.294922 C 19.407167 18.983137 19.67918 18.625457 19.896484 18.232422 L 20.642578 18.412109 C 20.77485 18.35542 20.696144 18.42152 20.720703 18.412109 C 20.74595 18.401489 20.765639 18.381052 20.775391 18.355469 L 21.011719 17.787109 C 21.022226 17.761711 21.022226 17.732441 21.011719 17.707031 C 20.999813 17.682238 20.979868 17.662292 20.955078 17.650391 L 20.287109 17.28125 C 20.404267 16.878767 20.462954 16.460506 20.464844 16.041016 L 20.460938 15.957031 L 21.191406 15.740234 C 21.280214 15.624966 21.244655 15.722026 21.259766 15.703125 C 21.276018 15.681506 21.283454 15.653671 21.279297 15.626953 L 21.199219 15.013672 C 21.195819 14.987518 21.182938 14.963476 21.162109 14.947266 C 21.139999 14.931996 21.112757 14.923967 21.085938 14.925781 L 20.322266 14.939453 C 20.213298 14.505761 20.041094 14.090186 19.810547 13.707031 L 20.339844 13.152344 C 20.358741 13.008733 20.37317 13.108551 20.376953 13.083984 C 20.380846 13.057301 20.373419 13.029522 20.357422 13.007812 L 19.980469 12.517578 C 19.964141 12.496904 19.94016 12.48211 19.914062 12.478516 C 19.887455 12.476116 19.860258 12.483458 19.837891 12.498047 L 19.1875 12.888672 C 18.876128 12.567581 18.518409 12.294492 18.126953 12.078125 L 18.304688 11.333984 C 18.247998 11.199822 18.314099 11.276576 18.304688 11.253906 C 18.294974 11.228319 18.275243 11.207875 18.25 11.197266 L 17.679688 10.960938 C 17.655461 10.951035 17.627735 10.951035 17.603516 10.960938 C 17.578646 10.972692 17.558656 10.992713 17.546875 11.017578 L 17.173828 11.689453 C 16.744026 11.56589 16.298726 11.506627 15.851562 11.513672 L 15.634766 10.78125 C 15.519498 10.692442 15.614605 10.731844 15.595703 10.714844 C 15.573517 10.698289 15.546842 10.690853 15.519531 10.695312 L 15.519531 10.693359 z M 15.933594 12.466797 C 20.809997 12.354655 20.809997 19.727373 15.933594 19.615234 C 11.276371 19.508134 11.276371 12.573896 15.933594 12.466797 z M 27.535156 16.658203 C 27.038192 16.656303 27.000808 17.072671 26.734375 18.072266 C 26.389686 18.060171 26.043044 18.068528 25.699219 18.095703 C 25.362871 16.994071 25.247298 16.606884 24.818359 16.707031 C 24.332733 16.820407 24.395595 17.238449 24.369141 18.289062 C 24.038461 18.364642 23.715826 18.458827 23.396484 18.570312 C 22.805041 17.580167 22.600067 17.237204 22.207031 17.4375 C 21.757308 17.666141 21.92572 18.056998 22.15625 19.113281 C 21.858481 19.268454 21.569757 19.439742 21.291016 19.626953 C 20.425581 18.84655 20.127998 18.574809 19.810547 18.882812 C 19.451522 19.230498 19.72047 19.554123 20.236328 20.466797 C 19.986442 20.698906 19.749479 20.944332 19.527344 21.203125 C 18.499404 20.651363 18.144467 20.457956 17.910156 20.833984 C 17.645612 21.259143 17.985456 21.508406 18.714844 22.28125 C 18.537221 22.560909 18.37395 22.851836 18.226562 23.150391 C 17.200513 22.931197 16.810863 22.770847 16.587891 23.216797 C 16.389484 23.611722 16.738684 23.814807 17.738281 24.40625 C 17.636812 24.728855 17.552964 25.056731 17.488281 25.388672 C 16.449005 25.443471 16.033743 25.395273 15.933594 25.880859 C 15.846676 26.309797 16.230207 26.418367 17.326172 26.720703 C 17.312944 27.055161 17.317256 27.390087 17.34375 27.722656 C 17.047338 27.826401 16.809288 27.903492 16.613281 27.976562 A 12 12 0 0 0 18.845703 27.652344 C 18.731891 26.544884 18.785153 25.332667 19.265625 24.091797 C 19.422462 23.681756 19.612648 23.328615 19.826172 23.052734 C 20.748155 21.559355 22.143473 20.419297 23.791016 19.814453 C 24.060772 19.691403 24.346431 19.602802 24.638672 19.552734 C 24.876759 19.492266 25.11757 19.444041 25.361328 19.40625 C 25.619409 19.368092 25.880022 19.342278 26.140625 19.330078 C 26.596889 19.319274 27.051754 19.34448 27.501953 19.402344 A 12 12 0 0 0 27.951172 17.037109 C 27.881926 16.770112 27.765523 16.659183 27.535156 16.658203 z "
     transform="scale(0.26458334)" />
  <path
     d="m 4.2301641,1.5874992 c -0.0035,0 -0.007,0 -0.01,10e-4 -0.1250025,0.0125 -0.1230025,0.1185024 -0.1635032,0.3790076 -0.085587,0.00653 -0.1707239,0.017881 -0.255005,0.034001 C 3.6846539,1.7325072 3.6446531,1.6395054 3.5396509,1.676506 3.4206486,1.7195068 3.4496492,1.822009 3.4726497,2.0880142 3.3936059,2.1155638 3.3161536,2.147446 3.240645,2.1835161 3.0726418,1.9800121 3.0206407,1.8885103 2.9066384,1.9410113 2.8056365,1.9880122 2.8421373,2.0825141 2.9476392,2.3555195 2.8771095,2.4033461 2.8093349,2.4550951 2.744635,2.5105228 2.5316308,2.3590199 2.4571294,2.2840185 2.3611274,2.3645201 c -0.084502,0.071001 -0.025,0.1525029 0.1440029,0.3835074 -0.054837,0.063775 -0.1060839,0.1305456 -0.153503,0.200004 -0.2470048,-0.085002 -0.3400066,-0.1355027 -0.409008,-0.031501 -0.060001,0.090502 0.018,0.1525031 0.2385046,0.3215063 -0.038708,0.080756 -0.072601,0.1637358 -0.1015019,0.2485049 -0.2560052,-0.028501 -0.3565071,-0.056501 -0.4010079,0.059501 -0.0395,0.1035021 0.052001,0.1460029 0.3150061,0.2670053 -0.016465,0.087087 -0.027818,0.1750719 -0.034001,0.2635054 -0.2525049,0.0345 -0.356507,0.033 -0.3710073,0.156003 -0.013001,0.110002 0.086502,0.1280025 0.3740074,0.1815035 0.00668,0.081022 0.017692,0.1616385 0.033,0.2415045 -0.2425047,0.1170025 -0.3460067,0.144503 -0.3220062,0.2690055 0.021501,0.1085022 0.1220024,0.095502 0.409008,0.059501 0.028155,0.081104 0.060874,0.1605657 0.098002,0.2380052 -0.2085032,0.1765041 -0.302505,0.2285051 -0.2480039,0.3440071 0.048501,0.100502 0.1425028,0.062002 0.4180082,-0.0475 l -0.026,-0.045005 c 0.053308,0.081303 0.111762,0.15913 0.1750031,0.2330055 -0.1475028,0.219504 -0.2210043,0.2960055 -0.1375026,0.3900075 0.072001,0.082001 0.152003,0.022 0.3730073,-0.148503 0.065753,0.056879 0.1347005,0.109967 0.206504,0.159003 -0.104002,0.2775055 -0.1400027,0.3720075 -0.038501,0.4180085 0.1140023,0.052001 0.1660033,-0.041 0.3310065,-0.245005 0.079021,0.03796 0.1601575,0.071353 0.2430049,0.100002 -0.038001,0.2810055 -0.050001,0.3800075 0.057001,0.402008 0.1230025,0.025 0.152003,-0.076501 0.2690053,-0.314006 0.08379,0.016395 0.1684252,0.02808 0.253505,0.035 0.041501,0.2845055 0.056501,0.3840075 0.1665032,0.3755075 0.1250021,-0.01 0.1255021,-0.1150025 0.1715036,-0.3735075 0.088267,-0.00622 0.1760845,-0.01758 0.2630045,-0.034 0.1075025,0.255005 0.148003,0.3465065 0.250005,0.311006 0.1175024,-0.04 0.094002,-0.141503 0.074002,-0.395508 0.078822,-0.02675 0.1561059,-0.057798 0.2315044,-0.093002 0.1860035,0.217004 0.251505,0.2930055 0.3400065,0.2270045 0.098502,-0.073002 0.046,-0.1625035 -0.049,-0.395008 0.074488,-0.049905 0.1459465,-0.104167 0.214004,-0.162503 0.2325045,0.165003 0.315006,0.2225045 0.3840075,0.1370025 0.078002,-0.095002 0.005,-0.1695035 -0.145003,-0.3725075 0.058897,-0.068347 0.1136615,-0.1401425 0.1640035,-0.215004 0.253505,0.105002 0.346507,0.141003 0.3950075,0.044 0.055002,-0.1110025 -0.034,-0.1665035 -0.226504,-0.3335065 0.0366,-0.077121 0.068817,-0.156248 0.096501,-0.2370052 0.2800055,0.03 0.3795075,0.04 0.398508,-0.068001 0.0215,-0.1220025 -0.079502,-0.150003 -0.313006,-0.257005 0.0162,-0.084777 0.02755,-0.170417 0.034,-0.256505 0.2830055,-0.044 0.3830075,-0.060002 0.3730075,-0.1700035 C 6.8677161,4.109551 6.7622136,4.1100505 6.5042086,4.06655 6.4973686,3.980969 6.4856786,3.8958312 6.4692086,3.8115449 6.7302137,3.6915424 6.8217152,3.6490416 6.7822147,3.5465396 6.7382147,3.4305363 6.6372112,3.4580368 6.3832062,3.4865374 6.3543962,3.4038528 6.3208392,3.3228836 6.2827042,3.2440327 6.5112087,3.0675292 6.5912102,3.0055279 6.5297092,2.9135262 6.4587077,2.8080241 6.3662062,2.8620252 6.1097007,2.951027 6.0615102,2.8808464 6.0094277,2.813406 5.9536977,2.749023 6.1212012,2.5080181 6.1797022,2.4250166 6.0927007,2.3555152 5.9951987,2.2775136 5.9226972,2.3535152 5.7136932,2.5095182 5.6475632,2.453292 5.5782827,2.4008723 5.5061892,2.3525151 5.6111912,2.0825098 5.6481917,1.9885079 5.5486892,1.941007 h -5e-4 C 5.4346902,1.888006 5.3816892,1.980008 5.2131857,2.1830117 5.1361967,2.1466337 5.0572377,2.1145827 4.9766813,2.0870097 5.0146813,1.799004 5.0276823,1.699002 4.9191803,1.6770016 4.7941778,1.6520016 4.7666768,1.7560036 4.6471748,2.0005079 4.5641818,1.9847099 4.4803838,1.9735259 4.3961698,1.9670079 4.3501688,1.6950022 4.3326683,1.5905001 4.2396667,1.5874999 h -0.01 z M 4.8036753,2.387515 c 0.080001,0 0.195504,0.047001 0.3160059,0.1135023 0.2210045,0.1225023 0.458009,0.3120062 0.5210105,0.3970078 0.303006,0.3240064 0.5235105,0.7260143 0.5365105,1.3715269 0.0025,0.1200025 -0.009,0.2295045 -0.0375,0.3185065 -0.0305,0.093002 -0.092502,0.1860035 -0.190004,0.2310045 -0.081501,0.0345 -0.1715035,0.058501 -0.255005,0.02 -0.261005,-0.1200025 -0.5890115,-0.3265065 -0.8520164,-0.48201 -0.044,-0.0265 -0.076501,-0.069001 -0.081001,-0.090001 v -10e-4 c 6.5e-4,-0.01082 0.001,-0.02166 0.001,-0.0325 1.85e-4,-0.2049875 -0.118076,-0.3916284 -0.3035065,-0.4790096 -0.010585,-0.021224 -0.017675,-0.044018 -0.021,-0.067501 -0.01113,-0.3158855 -0.012795,-0.6320334 -0.005,-0.9480187 10e-4,-0.2165043 0.156503,-0.3440068 0.348007,-0.3500069 0.00495,-7.4e-4 0.00998,-0.00124 0.015,-0.0015 z m -1.1320223,0.0115 h 0.0125 c 0.072958,-5.4e-4 0.1443899,0.020892 0.2050041,0.061501 0.069501,0.054001 0.1350027,0.1200025 0.1420028,0.2120042 0.023501,0.2860057 0.005,0.6735133 -0.002,0.9790194 -4.101e-4,0.039037 -0.012222,0.077102 -0.034,0.1095021 -0.1784573,0.089901 -0.2910295,0.2726866 -0.2910058,0.4725096 1.323e-4,0.00834 4.763e-4,0.016675 0.00101,0.025 -0.013857,0.02936 -0.034824,0.054797 -0.061001,0.074002 C 3.374152,4.4975565 3.0956466,4.6560595 2.8196411,4.8020625 2.6311375,4.9075645 2.4441337,4.8345625 2.3446318,4.67106 2.2146292,4.5005565 2.2971309,3.8270434 2.3666322,3.6720404 2.5001349,3.249532 2.7416397,2.8595244 3.2986506,2.5320179 3.4021527,2.4705166 3.5026547,2.4270158 3.5941565,2.4080155 c 0.021454,-0.00419 0.043174,-0.00686 0.065001,-0.008 z m 0.5620111,1.570031 c 0.1457737,2.78e-4 0.2639552,0.1182325 0.2645052,0.2640055 0,0.146358 -0.118647,0.265005 -0.2650052,0.265005 C 4.0870011,4.497779 3.9686587,4.3792145 3.9686589,4.2330515 3.9689368,4.0868885 4.0875009,3.968546 4.2336641,3.968546 Z M 3.921158,4.68006 h 0.005 c 0.00709,-2.38e-4 0.014167,6e-4 0.021001,0.0025 l 0.0085,0.001 c 0.083539,0.051628 0.1798006,0.078982 0.2780056,0.079002 0.097817,-5.45e-5 0.1937037,-0.02723 0.2770057,-0.078502 0.034065,-0.00345 0.068444,0.00175 0.100002,0.015 0.277261,0.15199 0.5502064,0.3117227 0.8185159,0.4790097 0.1860035,0.110002 0.216504,0.309006 0.1245025,0.47701 C 5.4701882,5.8530832 4.8466763,6.1185887 4.6771728,6.1360892 4.2446644,6.2310962 3.7861554,6.2170967 3.2236444,5.8990902 3.1288352,5.8482362 3.0427506,5.7825762 2.9686394,5.7045867 2.9036381,5.6310847 2.8556371,5.5300832 2.8666373,5.4230802 2.8781373,5.3360792 2.9036383,5.2465772 2.9791395,5.1940757 3.2151443,5.0305727 3.560151,4.854069 3.8281563,4.706566 c 0.028664,-0.01559 0.060425,-0.02464 0.093002,-0.0265 z"
     style="fill:#e4e4e4;fill-opacity:1;stroke-width:0.132291"
     id="path1087" />
  <path
     id="rect1153"
     style="opacity:0.2;fill:#000000;stroke-width:0.79375;stroke-linejoin:round"
     d="m 0.26458334,6.3500001 v 0.2645834 c 0,0.879475 0.70802496,1.5875 1.58750006,1.5875 h 4.7625001 c 0.879475,0 1.5875001,-0.708025 1.5875001,-1.5875 V 6.3500001 c 0,0.879475 -0.7080251,1.5875001 -1.5875001,1.5875001 H 1.8520834 c -0.8794751,0 -1.58750006,-0.7080251 -1.58750006,-1.5875001 z"
     sodipodi:nodetypes="csssscssc" />
</svg>
