<?xml version="1.0" encoding="UTF-8" standalone="no"?>
<!-- Created with Inkscape (http://www.inkscape.org/) -->

<svg
   width="32"
   height="32"
   viewBox="0 0 8.4666665 8.466667"
   version="1.1"
   id="svg5"
   inkscape:version="1.2 (dc2aedaf03, 2022-05-15)"
   sodipodi:docname="twitter.svg"
   xmlns:inkscape="http://www.inkscape.org/namespaces/inkscape"
   xmlns:sodipodi="http://sodipodi.sourceforge.net/DTD/sodipodi-0.dtd"
   xmlns="http://www.w3.org/2000/svg"
   xmlns:svg="http://www.w3.org/2000/svg">
  <sodipodi:namedview
     id="namedview7"
     pagecolor="#ffffff"
     bordercolor="#666666"
     borderopacity="1.0"
     inkscape:pageshadow="2"
     inkscape:pageopacity="0.0"
     inkscape:pagecheckerboard="0"
     inkscape:document-units="px"
     showgrid="false"
     units="px"
     height="64px"
     inkscape:zoom="24.6875"
     inkscape:cx="16"
     inkscape:cy="16"
     inkscape:window-width="1920"
     inkscape:window-height="1011"
     inkscape:window-x="0"
     inkscape:window-y="0"
     inkscape:window-maximized="1"
     inkscape:current-layer="svg5"
     inkscape:showpageshadow="2"
     inkscape:deskcolor="#d1d1d1" />
  <defs
     id="defs2" />
  <rect
     style="fill:#1da1f2;stroke-width:0.264583;fill-opacity:1"
     id="rect846"
     width="7.9375"
     height="7.9375"
     x="0.26458335"
     y="0.26458335"
     ry="1.5875" />
  <path
     d="M 4.9681009,1.9098845 C 4.4424212,2.1063262 4.1108262,2.609219 4.1477576,3.1624009 l 0.013354,0.2129432 -0.2105862,-0.02593 C 3.1859757,3.2496213 2.5172865,2.9109549 1.949175,2.3412722 L 1.6717984,2.0583948 1.6002934,2.2681956 C 1.4486399,2.7325847 1.545289,3.2244769 1.860383,3.5545003 2.0285376,3.7367982 1.9908207,3.7627288 1.700086,3.6542923 1.5995075,3.6197157 1.5107155,3.5937849 1.5020722,3.6071463 c -0.029074,0.030646 0.072291,0.4258869 0.1516533,0.583041 0.1092223,0.2176577 0.3323806,0.4306016 0.5759691,0.5563242 l 0.2066573,0.099793 -0.2435885,0.00476 c -0.2357309,0 -0.2435885,0.00476 -0.2200155,0.095864 0.084077,0.2828775 0.4164576,0.5830411 0.7865552,0.7134798 l 0.2608754,0.091149 -0.227087,0.1390811 A 2.3258773,2.3258773 0 0 1 1.6670837,6.2128071 c -0.1893704,0.00396 -0.344167,0.021216 -0.344167,0.033784 0,0.043216 0.5123217,0.2860198 0.810914,0.3818841 C 3.0296077,6.9113524 4.0935393,6.789559 4.8934526,6.3070969 5.4607783,5.963715 6.0288901,5.2816667 6.2936946,4.6208344 6.4367041,4.2680233 6.5797144,3.6252641 6.5797144,3.3140997 c 0,-0.1995854 0.01257,-0.2263016 0.248303,-0.4651754 0.1390805,-0.139081 0.2695185,-0.2907343 0.294663,-0.3347371 0.04243,-0.083292 0.037722,-0.083292 -0.1767978,-0.00785 -0.3575259,0.1304332 -0.4086004,0.1139318 -0.2310164,-0.08251 0.130438,-0.1390811 0.28602,-0.3905279 0.28602,-0.4643899 0,-0.012576 -0.062862,0.00704 -0.1343658,0.047146 A 2.2630157,2.2630157 0 0 1 6.4964224,2.153522 L 6.2685493,2.227365 6.0626777,2.0843555 C 5.9495274,2.0057781 5.7892303,1.9193438 5.7051529,1.8926277 a 1.410456,1.410456 0 0 0 -0.7354805,0.017284"
     fill="#ffffff"
     id="path6"
     style="stroke-width:0.785766" />
  <path
     id="rect1107"
     style="opacity:0.2;fill:#ffffff;stroke-width:0.79375;stroke-linejoin:round"
     d="m 1.8520834,0.26458334 c -0.8794751,0 -1.58750006,0.70802492 -1.58750006,1.58750006 v 0.2645834 c 0,-0.8794751 0.70802496,-1.58750012 1.58750006,-1.58750012 h 4.7625001 c 0.879475,0 1.5875001,0.70802502 1.5875001,1.58750012 V 1.8520834 c 0,-0.87947514 -0.7080251,-1.58750006 -1.5875001,-1.58750006 z"
     sodipodi:nodetypes="sscsscsss" />
  <path
     id="rect1153"
     style="opacity:0.2;fill:#000000;stroke-width:0.79375;stroke-linejoin:round"
     d="m 0.26458334,6.3500001 v 0.2645834 c 0,0.879475 0.70802496,1.5875 1.58750006,1.5875 h 4.7625001 c 0.879475,0 1.5875001,-0.708025 1.5875001,-1.5875 V 6.3500001 c 0,0.879475 -0.7080251,1.5875001 -1.5875001,1.5875001 H 1.8520834 c -0.8794751,0 -1.58750006,-0.7080251 -1.58750006,-1.5875001 z"
     sodipodi:nodetypes="csssscssc" />
</svg>
