<?xml version="1.0" encoding="UTF-8" standalone="no"?>
<!-- Created with Inkscape (http://www.inkscape.org/) -->

<svg
   width="24"
   height="24"
   viewBox="0 0 6.3499998 6.3500002"
   version="1.1"
   id="svg5"
   inkscape:version="1.2 (dc2aedaf03, 2022-05-15)"
   sodipodi:docname="battery-full.svg"
   xmlns:inkscape="http://www.inkscape.org/namespaces/inkscape"
   xmlns:sodipodi="http://sodipodi.sourceforge.net/DTD/sodipodi-0.dtd"
   xmlns="http://www.w3.org/2000/svg"
   xmlns:svg="http://www.w3.org/2000/svg">
  <sodipodi:namedview
     id="namedview7"
     pagecolor="#ffffff"
     bordercolor="#666666"
     borderopacity="1.0"
     inkscape:pageshadow="2"
     inkscape:pageopacity="0.0"
     inkscape:pagecheckerboard="0"
     inkscape:document-units="px"
     showgrid="false"
     units="px"
     height="16px"
     inkscape:zoom="17.324116"
     inkscape:cx="2.6552581"
     inkscape:cy="17.432347"
     inkscape:window-width="1920"
     inkscape:window-height="1024"
     inkscape:window-x="0"
     inkscape:window-y="32"
     inkscape:window-maximized="1"
     inkscape:current-layer="svg5"
     inkscape:showpageshadow="2"
     inkscape:deskcolor="#d1d1d1" />
  <defs
     id="defs2" />
  <path
     id="rect846"
     style="fill:#dedede;stroke-width:0.79375;stroke-linejoin:round"
     d="M 2.9036988,1.3229422 C 2.7607296,1.3265644 2.6458334,1.4436834 2.6458334,1.5875256 H 2.3812501 c -0.2931584,0 -0.5291668,0.2360083 -0.5291668,0.5291666 v 2.6458333 c 0,0.2931583 0.2360084,0.5291667 0.5291668,0.5291667 H 3.96875 c 0.2931584,0 0.5291667,-0.2360084 0.5291667,-0.5291667 V 2.1166922 c 0,-0.2931583 -0.2360083,-0.5291666 -0.5291667,-0.5291666 H 3.7041667 c 0,-0.1461254 -0.118458,-0.2645833 -0.2645833,-0.2645834 H 2.9104167 c -0.00228,0 -0.00445,-5.75e-5 -0.00672,0 z M 2.3812501,1.8521089 H 3.96875 c 0.1465792,0 0.2645834,0.1180042 0.2645834,0.2645833 v 2.6458333 c 0,0.1465792 -0.1180042,0.2645833 -0.2645834,0.2645833 H 2.3812501 c -0.1465792,0 -0.2645834,-0.1180041 -0.2645834,-0.2645833 V 2.1166922 c 0,-0.1465791 0.1180042,-0.2645833 0.2645834,-0.2645833 z m 0,0.2645833 V 4.7625255 H 3.96875 V 2.1166922 Z" />
</svg>
