<?xml version="1.0" encoding="UTF-8" standalone="no"?>
<!-- Created with Inkscape (http://www.inkscape.org/) -->

<svg
   width="64"
   height="64"
   viewBox="0 0 16.933333 16.933334"
   version="1.1"
   id="svg5"
   inkscape:version="1.1.2 (0a00cf5339, 2022-02-04, custom)"
   sodipodi:docname="accessories-calculator.svg"
   xmlns:inkscape="http://www.inkscape.org/namespaces/inkscape"
   xmlns:sodipodi="http://sodipodi.sourceforge.net/DTD/sodipodi-0.dtd"
   xmlns="http://www.w3.org/2000/svg"
   xmlns:svg="http://www.w3.org/2000/svg">
  <sodipodi:namedview
     id="namedview7"
     pagecolor="#ffffff"
     bordercolor="#666666"
     borderopacity="1.0"
     inkscape:pageshadow="2"
     inkscape:pageopacity="0.0"
     inkscape:pagecheckerboard="0"
     inkscape:document-units="px"
     showgrid="false"
     units="px"
     height="64px"
     inkscape:zoom="12.25"
     inkscape:cx="32"
     inkscape:cy="32"
     inkscape:window-width="1920"
     inkscape:window-height="1011"
     inkscape:window-x="0"
     inkscape:window-y="0"
     inkscape:window-maximized="1"
     inkscape:current-layer="svg5" />
  <defs
     id="defs2" />
  <rect
     style="fill:#cdcdcd;stroke-width:0.264583;fill-opacity:1"
     id="rect846"
     width="14.816667"
     height="14.816667"
     x="1.0583335"
     y="1.0583333"
     ry="3.175" />
  <rect
     style="opacity:0.2;fill:#000000;fill-opacity:1;stroke-width:0.79375;stroke-linejoin:round"
     id="rect4685"
     width="8.4666672"
     height="11.641666"
     x="4.2333336"
     y="2.9104166"
     ry="1.0583334" />
  <path
     id="rect845"
     style="opacity:0.2;fill:#000000;stroke-width:0.999999"
     d="M 4 47 L 4 48 C 4 54.648 9.3519997 60 16 60 L 48 60 C 54.648 60 60 54.648 60 48 L 60 47 C 60 53.648 54.648 59 48 59 L 16 59 C 9.3519997 59 4 53.648 4 47 z "
     transform="scale(0.26458334)" />
  <path
     id="rect843"
     style="opacity:0.2;fill:#ffffff;stroke-width:0.999999"
     d="M 16 4 C 9.3519997 4 4 9.3519997 4 16 L 4 17 C 4 10.352 9.3519997 5 16 5 L 48 5 C 54.648 5 60 10.352 60 17 L 60 16 C 60 9.3519997 54.648 4 48 4 L 16 4 z "
     transform="scale(0.26458334)" />
  <rect
     style="fill:#3e3e3e;fill-opacity:1;stroke-width:0.79375;stroke-linejoin:round"
     id="rect953"
     width="8.4666672"
     height="11.641666"
     x="4.2333336"
     y="2.6458333"
     ry="1.0583334" />
  <path
     id="path1563"
     style="fill:#e6e6e6;fill-opacity:1;stroke-width:0.595313;stroke-linejoin:round"
     d="m 5.8208334,6.6145834 a 0.79374999,0.79374999 0 0 0 -0.79375,0.7937501 0.79374999,0.79374999 0 0 0 0.79375,0.79375 0.79374999,0.79374999 0 0 0 0.79375,-0.79375 0.79374999,0.79374999 0 0 0 -0.79375,-0.7937501 z m 2.6458334,0 a 0.79374999,0.79374999 0 0 0 -0.79375,0.7937501 0.79374999,0.79374999 0 0 0 0.79375,0.79375 0.79374999,0.79374999 0 0 0 0.79375,-0.79375 0.79374999,0.79374999 0 0 0 -0.79375,-0.7937501 z M 5.8208334,9.2604168 a 0.79374999,0.79374999 0 0 0 -0.79375,0.7937502 0.79374999,0.79374999 0 0 0 0.79375,0.79375 0.79374999,0.79374999 0 0 0 0.79375,-0.79375 0.79374999,0.79374999 0 0 0 -0.79375,-0.7937502 z m 2.6458334,0 a 0.79374999,0.79374999 0 0 0 -0.79375,0.7937502 0.79374999,0.79374999 0 0 0 0.79375,0.79375 0.79374999,0.79374999 0 0 0 0.79375,-0.79375 0.79374999,0.79374999 0 0 0 -0.79375,-0.7937502 z M 5.8208334,11.906251 c -0.4397375,0 -0.79375,0.354012 -0.79375,0.79375 0,0.439737 0.3540125,0.79375 0.79375,0.79375 h 2.6458334 c 0.4397375,0 0.79375,-0.354013 0.79375,-0.79375 0,-0.439738 -0.3540125,-0.79375 -0.79375,-0.79375 z" />
  <rect
     style="fill:#646464;fill-opacity:1;stroke-width:0.79375;stroke-linejoin:round"
     id="rect2098"
     width="6.8791666"
     height="2.3812499"
     x="5.0270834"
     y="3.4395833"
     ry="0.5291667" />
  <path
     id="path4122"
     style="fill:#ee8823;fill-opacity:1;stroke-width:3;stroke-linejoin:round"
     d="M 42 25 A 2.9999999 2.9999999 0 0 0 39 28 A 2.9999999 2.9999999 0 0 0 42 31 A 2.9999999 2.9999999 0 0 0 45 28 A 2.9999999 2.9999999 0 0 0 42 25 z M 42 35 A 2.9999999 2.9999999 0 0 0 39 38 A 2.9999999 2.9999999 0 0 0 42 41 A 2.9999999 2.9999999 0 0 0 45 38 A 2.9999999 2.9999999 0 0 0 42 35 z M 42 45 A 2.9999999 2.9999999 0 0 0 39 48 A 2.9999999 2.9999999 0 0 0 42 51 A 2.9999999 2.9999999 0 0 0 45 48 A 2.9999999 2.9999999 0 0 0 42 45 z "
     transform="scale(0.26458334)" />
  <path
     id="rect5017"
     style="opacity:0.2;fill:#ffffff;fill-opacity:1;stroke-width:3;stroke-linejoin:round"
     d="M 20 10 C 17.784 10 16 11.784 16 14 L 16 15 C 16 12.784 17.784 11 20 11 L 44 11 C 46.216 11 48 12.784 48 15 L 48 14 C 48 11.784 46.216 10 44 10 L 20 10 z "
     transform="scale(0.26458334)" />
</svg>
