<?xml version="1.0" encoding="UTF-8" standalone="no"?>
<!-- Created with Inkscape (http://www.inkscape.org/) -->

<svg
   width="64"
   height="64"
   viewBox="0 0 16.933333 16.933334"
   version="1.1"
   id="svg5"
   inkscape:version="1.2 (dc2aedaf03, 2022-05-15)"
   sodipodi:docname="aisleriot.svg"
   xmlns:inkscape="http://www.inkscape.org/namespaces/inkscape"
   xmlns:sodipodi="http://sodipodi.sourceforge.net/DTD/sodipodi-0.dtd"
   xmlns="http://www.w3.org/2000/svg"
   xmlns:svg="http://www.w3.org/2000/svg">
  <sodipodi:namedview
     id="namedview7"
     pagecolor="#ffffff"
     bordercolor="#666666"
     borderopacity="1.0"
     inkscape:pageshadow="2"
     inkscape:pageopacity="0.0"
     inkscape:pagecheckerboard="0"
     inkscape:document-units="px"
     showgrid="false"
     units="px"
     height="64px"
     inkscape:zoom="12.34375"
     inkscape:cx="32"
     inkscape:cy="32"
     inkscape:window-width="1920"
     inkscape:window-height="1011"
     inkscape:window-x="0"
     inkscape:window-y="0"
     inkscape:window-maximized="1"
     inkscape:current-layer="svg5"
     inkscape:showpageshadow="2"
     inkscape:deskcolor="#d1d1d1" />
  <defs
     id="defs2" />
  <rect
     style="fill:#4d4d4d;stroke-width:0.264583;fill-opacity:1"
     id="rect846"
     width="14.816667"
     height="14.816667"
     x="1.0583335"
     y="1.0583333"
     ry="3.175" />
  <path
     id="rect849"
     style="fill:#f9f9f9;fill-opacity:1;stroke-width:3.175;stroke-linecap:round;stroke-linejoin:round"
     d="M 4.9339697,4.4827025 9.5341913,3.2500767 c 0.424754,-0.1138125 0.8583287,0.1365122 0.9721407,0.561266 l 2.054375,7.6670373 c 0.113814,0.424753 -0.136511,0.858328 -0.561266,0.972141 l -4.60022,1.232626 C 6.9744671,13.796959 6.540892,13.546634 6.4270797,13.121881 L 4.3727037,5.4548438 C 4.2588913,5.03009 4.5092159,4.596515 4.9339697,4.4827025 Z"
     sodipodi:nodetypes="sssssssss" />
  <path
     id="rect1209"
     style="fill:#333333;fill-opacity:1;stroke-width:3.175;stroke-linecap:round;stroke-linejoin:round"
     d="M 7.9873516,6.6776364 C 7.7259947,7.7118165 6.7902275,8.3826884 7.0702572,9.3886225 7.1840697,9.8133763 7.6176446,10.063701 8.0423984,9.9498885 8.2257699,9.9007543 8.3762515,9.7917307 8.4793403,9.6498423 L 8.4349247,10.392545 9.4571956,10.118628 9.0473796,9.4976366 c 0.160221,0.071335 0.345054,0.090511 0.5284257,0.041377 C 10.000559,9.4252009 10.250883,8.9916259 10.137071,8.5668721 9.8766143,7.5556933 8.7307833,7.4425842 7.9873516,6.6776364 Z" />
  <path
     id="rect849-1"
     style="opacity:0.2;fill:#000000;fill-opacity:1;stroke-width:3.175;stroke-linecap:round;stroke-linejoin:round"
     d="m 4.3563629,5.3810117 c -0.018386,0.1091335 -0.014076,0.2242286 0.016536,0.3384807 l 2.0541382,7.6667156 c 0.1138121,0.424754 0.5472798,0.675535 0.9720336,0.561723 l 4.6002353,-1.232999 c 0.4001,-0.107207 0.645731,-0.498117 0.577742,-0.898137 -0.04997,0.296592 -0.267239,0.550354 -0.577742,0.633553 l -4.6002353,1.233 C 6.9743173,13.79716 6.5408496,13.546378 6.4270375,13.121625 L 4.3728993,5.454909 C 4.3662893,5.430253 4.3605513,5.405662 4.3563629,5.3810117 Z m 5.7965441,3.525366 C 10.102487,9.2023668 9.8856933,9.4558302 9.5756813,9.5388972 9.3923106,9.5880272 9.2077706,9.5688962 9.0475486,9.4975562 l 0.214974,0.3260783 c 0.101633,0.013951 0.207511,0.00815 0.3131587,-0.020153 C 9.9754503,9.6963637 10.220324,9.3060543 10.152907,8.9063777 Z M 7.0249337,9.149257 c -0.015753,0.1601427 -0.00383,0.3267419 0.045475,0.5038452 0.1138126,0.4247538 0.54728,0.6750198 0.9720337,0.5612058 0.1733353,-0.04644 0.3173036,-0.14634 0.4196129,-0.2769853 L 8.4791077,9.6500016 C 8.3760186,9.7918902 8.2258139,9.900595 8.0424418,9.949725 7.6176882,10.063539 7.1842208,9.8132725 7.0704081,9.3885189 7.0476143,9.3066351 7.0326351,9.2270773 7.0249329,9.149257 Z m 2.2840979,1.009241 -0.8583452,0.22996 -0.01602,0.268718 1.0226772,-0.273886 z" />
  <path
     id="rect845"
     style="opacity:0.2;fill:#000000;stroke-width:0.999999"
     d="M 4 47 L 4 48 C 4 54.648 9.3519997 60 16 60 L 48 60 C 54.648 60 60 54.648 60 48 L 60 47 C 60 53.648 54.648 59 48 59 L 16 59 C 9.3519997 59 4 53.648 4 47 z "
     transform="scale(0.26458334)" />
  <path
     id="rect843"
     style="opacity:0.2;fill:#ffffff;stroke-width:0.999999"
     d="M 16 4 C 9.3519997 4 4 9.3519997 4 16 L 4 17 C 4 10.352 9.3519997 5 16 5 L 48 5 C 54.648 5 60 10.352 60 17 L 60 16 C 60 9.3519997 54.648 4 48 4 L 16 4 z "
     transform="scale(0.26458334)" />
</svg>
