<?xml version="1.0" encoding="UTF-8" standalone="no"?>
<!-- Created with Inkscape (http://www.inkscape.org/) -->

<svg
   width="64"
   height="64"
   viewBox="0 0 16.933333 16.933334"
   version="1.1"
   id="svg5"
   inkscape:version="1.2 (dc2aedaf03, 2022-05-15)"
   sodipodi:docname="android-studio.svg"
   xmlns:inkscape="http://www.inkscape.org/namespaces/inkscape"
   xmlns:sodipodi="http://sodipodi.sourceforge.net/DTD/sodipodi-0.dtd"
   xmlns="http://www.w3.org/2000/svg"
   xmlns:svg="http://www.w3.org/2000/svg">
  <sodipodi:namedview
     id="namedview7"
     pagecolor="#ffffff"
     bordercolor="#666666"
     borderopacity="1.0"
     inkscape:pageshadow="2"
     inkscape:pageopacity="0.0"
     inkscape:pagecheckerboard="0"
     inkscape:document-units="px"
     showgrid="false"
     units="px"
     height="64px"
     inkscape:zoom="13.53125"
     inkscape:cx="32"
     inkscape:cy="32"
     inkscape:window-width="1920"
     inkscape:window-height="1024"
     inkscape:window-x="0"
     inkscape:window-y="32"
     inkscape:window-maximized="1"
     inkscape:current-layer="svg5"
     inkscape:showpageshadow="2"
     inkscape:deskcolor="#d1d1d1" />
  <defs
     id="defs2" />
  <rect
     style="fill:#f8f8f8;stroke-width:0.264583;fill-opacity:1"
     id="rect846"
     width="14.816667"
     height="14.816667"
     x="1.0583335"
     y="1.0583333"
     ry="3.175" />
  <path
     d="m 4.2333457,5.7446334 v 5.8394356 c 0.0015,0.468622 0.380983,0.848627 0.850077,0.851627 h 6.5582543 v 1.278993 c -4.3e-5,0.02321 0.01659,0.04247 0.03772,0.04392 h 0.327629 c 0.383161,-0.0015 0.692984,-0.342669 0.692981,-0.762745 V 12.435696 7.428768 c 0,-0.0035 3.4e-5,-0.0069 0,-0.01033 -0.0092,-0.9229914 -1.241268,-0.8035687 -1.241268,-0.8035687 H 5.1412997 c -0.493739,0.03029 -0.910604,-0.3760697 -0.907954,-0.8702309 z"
     style="opacity:0.2;fill:#000000;stroke-width:0.264583"
     id="path3113" />
  <path
     d="M 7.3837015,4.7625443 H 5.0793553 c -0.4674844,0.00142 -0.845656,0.3569488 -0.8456534,0.7950324 -0.013896,0.4339048 0.3577902,0.7926634 0.821026,0.7924676 h 2.3536037 z"
     style="fill:#0a455f;stroke-width:0.264583"
     id="path1102"
     sodipodi:nodetypes="cccccc" />
  <path
     id="path2182"
     style="fill:#000000;stroke-width:0.264583;opacity:0.2"
     d="M 5.0792766 4.7625 C 4.6117926 4.76392 4.2338475 5.1197171 4.2338501 5.5578003 C 4.2322783 5.6068803 4.2357994 5.6547145 4.2436687 5.7014608 C 4.3056255 5.3206387 4.6556193 5.0283703 5.0792766 5.0270834 L 7.3835287 5.0270834 L 7.4041993 6.3500001 L 7.4083334 6.3500001 L 7.3835287 4.7625 L 5.0792766 4.7625 z " />
  <path
     d="M 6.7499747,3.4396275 C 6.6439498,3.4369817 6.5780643,3.5539143 6.635253,3.6432327 L 7.0827708,4.3625686 C 6.2995972,4.8431903 5.821873,5.6957387 5.8208324,6.6146276 c 0,1.4612533 1.1845801,2.6458334 2.6458334,2.6458334 1.4612533,0 2.6458332,-1.1845801 2.6458332,-2.6458334 C 11.111199,5.6958199 10.633259,4.843485 9.8500441,4.3630854 L 10.298078,3.6432327 c 0.05719,-0.089318 -0.0087,-0.2062498 -0.114721,-0.2036052 -0.04505,0.00131 -0.08633,0.025455 -0.109554,0.064079 L 9.6180161,4.2359614 C 9.2592891,4.0612267 8.8656852,3.9698923 8.4666658,3.9687942 8.0675516,3.9694927 7.6737669,4.0604745 7.314798,4.2349279 L 6.8595286,3.5037063 c -0.02322,-0.038624 -0.064506,-0.062772 -0.1095539,-0.064079 z"
     style="fill:#3ddc84;stroke-width:0.264583"
     id="path427"
     sodipodi:nodetypes="ccccscccccccccc" />
  <path
     id="path2248"
     style="fill:#ffffff;stroke-width:0.264583;opacity:0.2"
     d="M 6.7499757 3.4395834 C 6.6439509 3.4369376 6.5780653 3.5538702 6.635254 3.6431885 L 6.6833131 3.7201864 C 6.7026518 3.7096159 6.7251903 3.7035482 6.7499757 3.7041667 C 6.7950235 3.7054735 6.8363097 3.7296215 6.8595297 3.7682455 L 7.3147991 4.499467 C 7.6737676 4.3250138 8.0675529 4.2340319 8.4666667 4.2333334 C 8.8656857 4.2344315 9.259291 4.325766 9.6180177 4.5005005 L 10.073804 3.7682455 C 10.097028 3.7296215 10.138308 3.7054767 10.183358 3.7041667 C 10.208142 3.7035485 10.230682 3.7096158 10.25002 3.7201864 L 10.29808 3.6431885 C 10.355269 3.5538706 10.289379 3.4369388 10.183358 3.4395834 C 10.138308 3.4408934 10.097028 3.4650382 10.073804 3.5036621 L 9.6180177 4.2359172 C 9.259291 4.0611827 8.8656857 3.9698481 8.4666667 3.96875 C 8.0675529 3.9694485 7.6737676 4.0604304 7.3147991 4.2348837 L 6.8595297 3.5036621 C 6.8363097 3.4650382 6.7950235 3.4408902 6.7499757 3.4395834 z M 6.9659831 4.4390056 C 6.2525611 4.9303413 5.8218211 5.7424356 5.8208334 6.6145834 C 5.8208334 6.6600748 5.822182 6.7055647 5.8244507 6.7504924 C 5.8676782 5.8812452 6.3363103 5.0851999 7.0827719 4.6271078 L 6.9659831 4.4390056 z M 9.9668336 4.4395223 L 9.8500449 4.6276246 C 10.596546 5.085505 11.065412 5.8813341 11.108883 6.7504924 C 11.111152 6.7055647 11.1125 6.6600748 11.1125 6.6145834 C 11.111266 5.7425127 10.680312 4.9306484 9.9668336 4.4395223 z " />
  <path
     d="M 12.700001,12.170878 H 5.0830436 c -0.469093,-0.003 -0.8481959,-0.382968 -0.8496987,-0.85159 V 5.4800541 c -0.00265,0.4941617 0.413893,0.9002845 0.9076345,0.8699902 h 6.3175776 c 0,0 1.241444,-0.1203703 1.241444,0.8138986 z"
     style="fill:#4285f4;stroke-width:0.264583"
     id="path1135" />
  <path
     d="m 11.999449,7.9375443 h -0.317752 c -0.02212,0 -0.04003,0.014904 -0.04003,0.039142 v 5.4732207 c -4.3e-5,0.02321 0.0164,0.04244 0.03753,0.04389 h 0.327758 c 0.383161,-0.0015 0.693047,-0.342473 0.693044,-0.762548 V 7.1437943 c 1.1e-5,0.4232955 -0.314457,0.7967951 -0.70055,0.79375 z"
     style="fill:#0a455f;stroke-width:0.264583"
     id="path1583" />
  <path
     id="path504"
     style="fill:#ffffff;stroke-width:0.264583"
     d="M 7.4083324,5.0271276 A 0.26458334,0.26458334 0 0 0 7.1437491,5.2917109 0.26458334,0.26458334 0 0 0 7.4083324,5.5562943 0.26458334,0.26458334 0 0 0 7.6729157,5.2917109 0.26458334,0.26458334 0 0 0 7.4083324,5.0271276 Z m 2.1166667,0 a 0.26458334,0.26458334 0 0 0 -0.264583,0.2645833 0.26458334,0.26458334 0 0 0 0.264583,0.2645834 0.26458334,0.26458334 0 0 0 0.264583,-0.2645834 0.26458334,0.26458334 0 0 0 -0.264583,-0.2645833 z" />
  <circle
     style="fill:#073042;fill-opacity:1;stroke-width:0.264583"
     id="path1261"
     cx="8.6651039"
     cy="8.7974405"
     r="0.46302083" />
  <path
     d="M 8.4624089,7.6729495 C 8.316567,7.6752249 8.2000739,7.7942504 8.2019598,7.939083 V 8.2486249 C 7.8852046,8.3606143 7.6732646,8.6598972 7.6727931,8.9958663 c 3.44e-4,0.2352368 0.105015,0.458203 0.2857707,0.6087483 L 6.1302516,13.426087 c -0.069548,0.134496 -0.057536,0.294414 0.031523,0.418063 0.090358,0.122492 0.2421898,0.189822 0.3989422,0.17725 0.1568027,-0.01432 0.2931353,-0.108607 0.3560506,-0.24598 l 1.2231812,-2.472201 c 0.058999,-0.114862 0.1813505,-0.190152 0.3157433,-0.190686 0.0037,-1.1e-5 0.0071,0.0015 0.01085,0.0016 0.0037,-1.06e-4 0.0071,-0.0016 0.01085,-0.0016 0.134392,5.29e-4 0.256743,0.07582 0.315743,0.190686 l 1.2231801,2.472201 c 0.06292,0.137373 0.199248,0.231655 0.356051,0.24598 0.156752,0.01257 0.308584,-0.05476 0.398942,-0.17725 0.08906,-0.123649 0.101071,-0.283567 0.03152,-0.418063 L 8.9750386,9.6056483 c 0.18084,-0.150876 0.285342,-0.3742682 0.285254,-0.609782 C 9.2600396,8.6597075 9.0480596,8.3601611 8.7311269,8.2481082 V 7.939083 c 0.0019,-0.1480476 -0.119638,-0.2684444 -0.268718,-0.2661335 z m 0.0041,0.79375 c 0.292251,0 0.5291667,0.2369161 0.5291667,0.5291668 0,0.2922506 -0.2369157,0.5291667 -0.5291667,0.5291667 -0.2922503,0 -0.5291664,-0.2369161 -0.5291664,-0.5291667 0,-0.2922507 0.2369161,-0.5291668 0.5291664,-0.5291668 z"
     style="opacity:0.1;fill:#000000;stroke-width:0.264583"
     id="path3040" />
  <path
     d="M 8.4625309,7.4084319 C 8.3166888,7.4107073 8.2001957,7.5297328 8.2020816,7.6745654 V 7.9841073 C 7.8853264,8.0960967 7.6733864,8.3953796 7.6729149,8.7313486 c 3.44e-4,0.2352368 0.105015,0.458203 0.2857707,0.6087483 L 6.1303734,13.161569 c -0.069548,0.134496 -0.057536,0.294414 0.031523,0.418063 0.090358,0.122492 0.2421898,0.189822 0.3989422,0.17725 0.1568027,-0.01432 0.2931353,-0.108607 0.3560506,-0.24598 l 1.2231812,-2.472201 c 0.058999,-0.114862 0.1813505,-0.190152 0.3157429,-0.190686 0.00374,-1.1e-5 0.00713,0.0015 0.010853,0.0016 0.00373,-1.06e-4 0.0071,-0.0016 0.010853,-0.0016 0.1343925,5.29e-4 0.2567435,0.07582 0.3157429,0.190686 l 1.2231808,2.472201 c 0.06292,0.137373 0.199248,0.231655 0.356051,0.24598 0.156752,0.01257 0.308584,-0.05476 0.398942,-0.17725 0.08906,-0.123649 0.101071,-0.283567 0.03152,-0.418063 L 8.9751611,9.3411306 c 0.18084,-0.150876 0.285342,-0.3742682 0.285254,-0.609782 C 9.2601621,8.3951899 9.0481818,8.0956435 8.7312483,7.9835906 V 7.6745654 C 8.7331798,7.5265178 8.6116103,7.406121 8.4625309,7.4084319 Z m 0.00414,0.79375 c 0.2922505,0 0.5291667,0.2369161 0.5291667,0.5291667 0,0.2922506 -0.2369162,0.5291667 -0.5291667,0.5291667 -0.2922506,0 -0.5291667,-0.2369161 -0.5291667,-0.5291667 0,-0.2922506 0.2369161,-0.5291667 0.5291667,-0.5291667 z"
     style="fill:#0a455f;stroke-width:0.264583"
     id="path374"
     sodipodi:nodetypes="cccccccccccccccccccccccsssss" />
  <path
     id="rect845"
     style="opacity:0.2;fill:#000000;stroke-width:0.999999"
     d="M 4 47 L 4 48 C 4 54.648 9.3519997 60 16 60 L 48 60 C 54.648 60 60 54.648 60 48 L 60 47 C 60 53.648 54.648 59 48 59 L 16 59 C 9.3519997 59 4 53.648 4 47 z "
     transform="scale(0.26458334)" />
  <path
     id="rect843"
     style="opacity:0.2;fill:#ffffff;stroke-width:0.999999"
     d="M 16 4 C 9.3519997 4 4 9.3519997 4 16 L 4 17 C 4 10.352 9.3519997 5 16 5 L 48 5 C 54.648 5 60 10.352 60 17 L 60 16 C 60 9.3519997 54.648 4 48 4 L 16 4 z "
     transform="scale(0.26458334)" />
</svg>
