<?xml version="1.0" encoding="UTF-8" standalone="no"?>
<!-- Created with Inkscape (http://www.inkscape.org/) -->

<svg
   width="64"
   height="64"
   viewBox="0 0 16.933333 16.933334"
   version="1.1"
   id="svg5"
   inkscape:version="1.2 (dc2aedaf03, 2022-05-15)"
   sodipodi:docname="applications-all.svg"
   xmlns:inkscape="http://www.inkscape.org/namespaces/inkscape"
   xmlns:sodipodi="http://sodipodi.sourceforge.net/DTD/sodipodi-0.dtd"
   xmlns="http://www.w3.org/2000/svg"
   xmlns:svg="http://www.w3.org/2000/svg">
  <sodipodi:namedview
     id="namedview7"
     pagecolor="#ffffff"
     bordercolor="#666666"
     borderopacity="1.0"
     inkscape:pageshadow="2"
     inkscape:pageopacity="0.0"
     inkscape:pagecheckerboard="0"
     inkscape:document-units="px"
     showgrid="false"
     units="px"
     height="64px"
     inkscape:zoom="13.53125"
     inkscape:cx="31.963048"
     inkscape:cy="32"
     inkscape:window-width="1920"
     inkscape:window-height="1024"
     inkscape:window-x="0"
     inkscape:window-y="32"
     inkscape:window-maximized="1"
     inkscape:current-layer="svg5"
     inkscape:showpageshadow="2"
     inkscape:deskcolor="#d1d1d1" />
  <defs
     id="defs2" />
  <rect
     style="fill:#f8f8f8;stroke-width:0.264583;fill-opacity:1"
     id="rect846"
     width="14.816667"
     height="14.816667"
     x="1.0583335"
     y="1.0583333"
     ry="3.175" />
  <path
     d="m 4.0566006,3.4395842 c -0.488597,0 -0.8816,0.39352 -0.8816,0.8821167 v 0.8821167 c 0,0.4885967 0.393003,0.8815999 0.8816,0.8815999 h 0.882117 c 0.488597,0 0.882117,-0.3930032 0.882117,-0.8815999 V 4.3217009 c 0,-0.4885967 -0.39352,-0.8821167 -0.882117,-0.8821167 z m 3.96875,0 c -0.488597,0 -0.8816,0.39352 -0.8816,0.8821167 v 0.8821167 c 0,0.4885967 0.393003,0.8815999 0.8816,0.8815999 h 0.882117 c 0.4885958,0 0.8821158,-0.3930032 0.8821158,-0.8815999 V 4.3217009 c 0,-0.4885967 -0.39352,-0.8821167 -0.8821158,-0.8821167 z m 3.9687504,0 c -0.488597,0 -0.8816,0.39352 -0.8816,0.8821167 v 0.8821167 c 0,0.4885967 0.393003,0.8815999 0.8816,0.8815999 h 0.882117 c 0.488596,0 0.882116,-0.3930032 0.882116,-0.8815999 V 4.3217009 c 0,-0.4885967 -0.39352,-0.8821167 -0.882116,-0.8821167 z M 4.0566006,7.4083337 c -0.488597,0 -0.8816,0.39352 -0.8816,0.882117 v 0.8821167 c 0,0.488597 0.393003,0.8816006 0.8816,0.8816006 h 0.882117 c 0.488597,0 0.882117,-0.3930036 0.882117,-0.8816006 V 8.2904507 c 0,-0.488597 -0.39352,-0.882117 -0.882117,-0.882117 z m 3.96875,0 c -0.488597,0 -0.8816,0.39352 -0.8816,0.882117 v 0.8821167 c 0,0.488597 0.393003,0.8816006 0.8816,0.8816006 h 0.882117 c 0.4885958,0 0.8821158,-0.3930036 0.8821158,-0.8816006 V 8.2904507 c 0,-0.488597 -0.39352,-0.882117 -0.8821158,-0.882117 z m 3.9687504,0 c -0.488597,0 -0.8816,0.39352 -0.8816,0.882117 v 0.8821167 c 0,0.488597 0.393003,0.8816006 0.8816,0.8816006 h 0.882117 c 0.488596,0 0.882116,-0.3930036 0.882116,-0.8816006 V 8.2904507 c 0,-0.488597 -0.39352,-0.882117 -0.882116,-0.882117 z M 4.0566006,11.377083 c -0.488597,0 -0.8816,0.39352 -0.8816,0.882116 v 0.882118 c 0,0.488595 0.393003,0.8816 0.8816,0.8816 h 0.882117 c 0.488597,0 0.882117,-0.393004 0.882117,-0.8816 v -0.882118 c 0,-0.488597 -0.39352,-0.882117 -0.882117,-0.882117 z m 3.96875,0 c -0.488597,0 -0.8816,0.39352 -0.8816,0.882116 v 0.882118 c 0,0.488595 0.393003,0.8816 0.8816,0.8816 h 0.882117 c 0.4885958,0 0.8821158,-0.393004 0.8821158,-0.8816 v -0.882118 c 0,-0.488597 -0.39352,-0.882117 -0.8821158,-0.882117 z m 3.9687504,0 c -0.488597,0 -0.8816,0.39352 -0.8816,0.882116 v 0.882118 c 0,0.488595 0.393003,0.8816 0.8816,0.8816 h 0.882117 c 0.488596,0 0.882116,-0.393004 0.882116,-0.8816 v -0.882118 c 0,-0.488597 -0.39352,-0.882117 -0.882116,-0.882117 z"
     style="opacity:0.2;fill:#000000;fill-opacity:1;stroke-width:0.923267"
     id="path13756" />
  <rect
     style="fill:#12e55b;fill-opacity:1;stroke-width:0.923267"
     id="rect1698"
     width="2.6458333"
     height="2.6458333"
     x="3.1750007"
     y="3.1750011"
     ry="0.88194436" />
  <rect
     style="fill:#e46b01;fill-opacity:1;stroke-width:0.923267"
     id="rect1698-3"
     width="2.6458333"
     height="2.6458333"
     x="11.1125"
     y="3.1750011"
     ry="0.88194436" />
  <rect
     style="fill:#ffc901;fill-opacity:1;stroke-width:0.923267"
     id="rect1698-3-6"
     width="2.6458333"
     height="2.6458333"
     x="7.1437502"
     y="3.1750007"
     ry="0.88194436" />
  <rect
     style="fill:#cf1818;fill-opacity:1;stroke-width:0.923267"
     id="rect1698-7"
     width="2.6458333"
     height="2.6458333"
     x="3.1750007"
     y="7.1437502"
     ry="0.88194436" />
  <rect
     style="fill:#f16f58;fill-opacity:1;stroke-width:0.923267"
     id="rect1698-3-5"
     width="2.6458333"
     height="2.6458333"
     x="11.112505"
     y="7.1437502"
     ry="0.88194436" />
  <rect
     style="fill:#bd23ab;fill-opacity:1;stroke-width:0.923267"
     id="rect1698-7-5"
     width="2.6458333"
     height="2.6458333"
     x="3.1750007"
     y="11.112501"
     ry="0.88194436" />
  <rect
     style="fill:#60b5a8;fill-opacity:1;stroke-width:0.923267"
     id="rect1698-3-5-6"
     width="2.6458333"
     height="2.6458333"
     x="11.112505"
     y="11.112501"
     ry="0.88194436" />
  <rect
     style="fill:#2382e4;fill-opacity:1;stroke-width:0.923267"
     id="rect1698-3-6-3-2"
     width="2.6458333"
     height="2.6458333"
     x="7.1437502"
     y="11.112501"
     ry="0.88194436" />
  <rect
     style="fill:#808080;fill-opacity:1;stroke-width:0.923267"
     id="rect1698-3-6-3"
     width="2.6458333"
     height="2.6458333"
     x="7.1437502"
     y="7.1437502"
     ry="0.88194436" />
  <path
     id="rect845"
     style="opacity:0.2;fill:#000000;stroke-width:0.999999"
     d="M 4 47 L 4 48 C 4 54.648 9.3519997 60 16 60 L 48 60 C 54.648 60 60 54.648 60 48 L 60 47 C 60 53.648 54.648 59 48 59 L 16 59 C 9.3519997 59 4 53.648 4 47 z "
     transform="scale(0.26458334)" />
  <path
     id="rect843"
     style="opacity:0.2;fill:#ffffff;stroke-width:0.999999"
     d="M 16 4 C 9.3519997 4 4 9.3519997 4 16 L 4 17 C 4 10.352 9.3519997 5 16 5 L 48 5 C 54.648 5 60 10.352 60 17 L 60 16 C 60 9.3519997 54.648 4 48 4 L 16 4 z "
     transform="scale(0.26458334)" />
</svg>
