<?xml version="1.0" encoding="UTF-8" standalone="no"?>
<!-- Created with Inkscape (http://www.inkscape.org/) -->

<svg
   width="64"
   height="64"
   viewBox="0 0 16.933333 16.933334"
   version="1.1"
   id="svg5"
   inkscape:version="1.1.2 (0a00cf5339, 2022-02-04, custom)"
   sodipodi:docname="calligrakarbon.svg"
   xmlns:inkscape="http://www.inkscape.org/namespaces/inkscape"
   xmlns:sodipodi="http://sodipodi.sourceforge.net/DTD/sodipodi-0.dtd"
   xmlns="http://www.w3.org/2000/svg"
   xmlns:svg="http://www.w3.org/2000/svg">
  <sodipodi:namedview
     id="namedview7"
     pagecolor="#ffffff"
     bordercolor="#666666"
     borderopacity="1.0"
     inkscape:pageshadow="2"
     inkscape:pageopacity="0.0"
     inkscape:pagecheckerboard="0"
     inkscape:document-units="px"
     showgrid="false"
     units="px"
     height="64px"
     inkscape:zoom="12.40625"
     inkscape:cx="31.959698"
     inkscape:cy="32"
     inkscape:window-width="1920"
     inkscape:window-height="1017"
     inkscape:window-x="0"
     inkscape:window-y="32"
     inkscape:window-maximized="1"
     inkscape:current-layer="svg5"
     inkscape:lockguides="false" />
  <defs
     id="defs2" />
  <rect
     style="fill:#cacdd0;stroke-width:0.264583;fill-opacity:1"
     id="rect846"
     width="14.816667"
     height="14.816667"
     x="1.0583335"
     y="1.0583333"
     ry="3.175" />
  <path
     d="M 8.6131929,5.7150001 4.3391666,10.874375 8.7985859,15.333796 C 11.233354,15.21473 13.423289,13.816024 14.555185,11.657069 Z"
     style="opacity:0.1;fill:#000000;stroke-width:0.264583"
     id="path7661" />
  <path
     id="path917"
     style="fill:#59467b;fill-opacity:1;stroke-width:1.3"
     d="M 5.9042969 15.994141 C 5.3645562 15.990891 4.504652 15.993503 4 15.998047 C 3.9999999 15.998702 4 15.999345 4 16 L 4 48 C 4 54.648 9.3520002 60 16 60 L 48 60 C 54.648 60 60 54.648 60 48 L 60 46.587891 C 52.406736 46.438558 31.800753 46.119709 29.34375 39.974609 C 26.685249 33.329009 35.988105 31.999117 34.658203 25.353516 C 33.098203 17.553516 15.808583 16.053337 5.9042969 15.994141 z "
     transform="scale(0.26458334)" />
  <path
     d="m 1.985774,4.2470918 c -0.00241,0.00344 -0.00482,0.00688 -0.00722,0.00997 2.4482519,0.092214 6.4357769,0.3910807 6.8478399,2.4513911 0.3515247,1.7583151 -2.1253185,2.0947063 -1.4219234,3.8530221 0.6504247,1.625547 5.6015815,2.467442 7.7521315,2.376408 l 0.189521,-0.611214 C 13.916629,12.320826 8.4143279,12.202505 7.7639035,10.576613 7.0605088,8.8182982 9.5222173,8.4667728 9.1706926,6.7084577 8.7304259,4.5071243 4.4717989,4.2795388 1.9861179,4.2470918"
     style="fill:#1d1e1e;fill-opacity:1;stroke-width:0.264583"
     id="path6842" />
  <path
     id="path7158"
     style="fill:#393b3b;fill-opacity:1;stroke-width:2.6"
     d="M 6.5 14 A 2.4999999 2.4999999 0 0 0 4 16.5 A 2.4999999 2.4999999 0 0 0 6.5 19 A 2.4999999 2.4999999 0 0 0 9 16.5 A 2.4999999 2.4999999 0 0 0 6.5 14 z M 34 23 A 2.9999999 2.9999999 0 0 0 31 26 A 2.9999999 2.9999999 0 0 0 34 29 A 2.9999999 2.9999999 0 0 0 37 26 A 2.9999999 2.9999999 0 0 0 34 23 z M 29.5 36 A 3.5 3.5 0 0 0 26 39.5 A 3.5 3.5 0 0 0 29.5 43 A 3.5 3.5 0 0 0 33 39.5 A 3.5 3.5 0 0 0 29.5 36 z M 55 41 C 52.238579 41 50 43.238575 50 46 C 50 48.761425 52.238579 51 55 51 C 57.761425 51 60 48.761425 60 46 C 60 43.238575 57.761429 41 55 41 z "
     transform="scale(0.26458334)" />
  <path
     id="rect845"
     style="opacity:0.2;fill:#000000;stroke-width:0.999999"
     d="M 4 47 L 4 48 C 4 54.648 9.3519997 60 16 60 L 48 60 C 54.648 60 60 54.648 60 48 L 60 47 C 60 53.648 54.648 59 48 59 L 16 59 C 9.3519997 59 4 53.648 4 47 z "
     transform="scale(0.26458334)" />
  <path
     id="rect843"
     style="opacity:0.2;fill:#ffffff;stroke-width:0.999999"
     d="M 16 4 C 9.3519997 4 4 9.3519997 4 16 L 4 17 C 4 10.352 9.3519997 5 16 5 L 48 5 C 54.648 5 60 10.352 60 17 L 60 16 C 60 9.3519997 54.648 4 48 4 L 16 4 z "
     transform="scale(0.26458334)" />
  <path
     d="m 1.7197916,3.9687501 c -0.219188,0 -0.396875,0.1776871 -0.396875,0.396875 0,0.219188 0.177687,0.396875 0.396875,0.396875 0.219188,0 0.396875,-0.177687 0.396875,-0.396875 0,-0.2191879 -0.177687,-0.396875 -0.396875,-0.396875 z m 7.276042,2.3812501 c -0.2922508,0 -0.5291667,0.2369161 -0.5291669,0.5291667 2e-7,0.2922508 0.2369161,0.5291667 0.5291669,0.5291667 0.2922506,0 0.5291664,-0.2369159 0.5291667,-0.5291667 C 9.525,6.5869163 9.2880842,6.3500002 8.9958336,6.3500002 Z M 7.8052083,9.7895839 c -0.3653132,0 -0.6614584,0.2961451 -0.6614584,0.6614581 0,0.365314 0.2961452,0.661458 0.6614584,0.661458 0.3653134,0 0.6614586,-0.296144 0.6614584,-0.661458 2e-7,-0.365313 -0.296145,-0.6614581 -0.6614584,-0.6614581 z M 14.552084,11.1125 c -0.584501,0 -1.058333,0.473832 -1.058333,1.058334 0,0.584501 0.473832,1.058333 1.058333,1.058333 0.584501,0 1.058333,-0.473832 1.058333,-1.058333 0,-0.584502 -0.473832,-1.058334 -1.058333,-1.058334 z"
     style="fill:#f9f9f9;fill-opacity:1;stroke-width:0.496287"
     id="path9296" />
</svg>
