<?xml version="1.0" encoding="UTF-8" standalone="no"?>
<!-- Created with Inkscape (http://www.inkscape.org/) -->

<svg
   width="64"
   height="64"
   viewBox="0 0 16.933333 16.933334"
   version="1.1"
   id="svg5"
   inkscape:version="1.2 (dc2aedaf03, 2022-05-15)"
   sodipodi:docname="chromium-browser.svg"
   xmlns:inkscape="http://www.inkscape.org/namespaces/inkscape"
   xmlns:sodipodi="http://sodipodi.sourceforge.net/DTD/sodipodi-0.dtd"
   xmlns="http://www.w3.org/2000/svg"
   xmlns:svg="http://www.w3.org/2000/svg">
  <sodipodi:namedview
     id="namedview7"
     pagecolor="#ffffff"
     bordercolor="#666666"
     borderopacity="1.0"
     inkscape:pageshadow="2"
     inkscape:pageopacity="0.0"
     inkscape:pagecheckerboard="0"
     inkscape:document-units="px"
     showgrid="false"
     units="px"
     height="64px"
     inkscape:zoom="13.53125"
     inkscape:cx="32.110855"
     inkscape:cy="32.073903"
     inkscape:window-width="1920"
     inkscape:window-height="1024"
     inkscape:window-x="0"
     inkscape:window-y="32"
     inkscape:window-maximized="1"
     inkscape:current-layer="svg5"
     inkscape:showpageshadow="2"
     inkscape:deskcolor="#d1d1d1" />
  <defs
     id="defs2" />
  <rect
     style="fill:#f8f8f8;stroke-width:0.264583;fill-opacity:1"
     id="rect846"
     width="14.816667"
     height="14.816667"
     x="1.0583335"
     y="1.0583333"
     ry="3.175" />
  <ellipse
     style="opacity:0.2;fill:#000000;fill-opacity:1;stroke-width:0.264583"
     id="path8534"
     cx="8.4666672"
     cy="8.7312498"
     rx="5.8208332"
     ry="5.8208337" />
  <circle
     style="fill:#396bd7;fill-opacity:1;stroke-width:0.242534"
     id="path354"
     cx="8.4666672"
     cy="8.4666662"
     r="5.8208332" />
  <path
     id="rect6234"
     style="fill:#6199f6;stroke-width:0.242534;fill-opacity:1"
     d="M 3.4494019 5.5562501 C 3.4274441 5.5935858 3.3911998 5.6442739 3.3491496 5.7009441 A 5.8208332 5.8208332 0 0 0 2.6458334 8.4666667 A 5.8208332 5.8208332 0 0 0 8.4666667 14.2875 L 10.891842 12.929443 L 10.900627 10.054167 L 5.9531251 9.9590821 L 3.4494019 5.5562501 z " />
  <path
     id="rect2054"
     style="fill:#91b0e8;fill-opacity:1;stroke-width:0.242534"
     d="M 8.4666667 5.5562501 L 10.900627 10.054167 L 8.4666667 14.2875 A 5.8208332 5.8208332 0 0 0 14.2875 8.4666667 A 5.8208332 5.8208332 0 0 0 13.507186 5.5562501 L 8.4666667 5.5562501 z " />
  <circle
     style="fill:#ffffff;stroke-width:0.242534"
     id="path911"
     cx="8.4666672"
     cy="8.4666662"
     r="2.9104166" />
  <circle
     style="fill:#4688f4;fill-opacity:1;stroke-width:0.198437"
     id="path1724"
     cx="8.4666672"
     cy="8.4666672"
     r="2.3812499" />
  <path
     id="rect845"
     style="opacity:0.2;fill:#000000;stroke-width:0.999999"
     d="M 4 47 L 4 48 C 4 54.648 9.3519997 60 16 60 L 48 60 C 54.648 60 60 54.648 60 48 L 60 47 C 60 53.648 54.648 59 48 59 L 16 59 C 9.3519997 59 4 53.648 4 47 z "
     transform="scale(0.26458334)" />
  <path
     id="rect843"
     style="opacity:0.2;fill:#ffffff;stroke-width:0.999999"
     d="M 16 4 C 9.3519997 4 4 9.3519997 4 16 L 4 17 C 4 10.352 9.3519997 5 16 5 L 48 5 C 54.648 5 60 10.352 60 17 L 60 16 C 60 9.3519997 54.648 4 48 4 L 16 4 z "
     transform="scale(0.26458334)" />
</svg>
