<?xml version="1.0" encoding="UTF-8" standalone="no"?>
<!-- Created with Inkscape (http://www.inkscape.org/) -->

<svg
   width="64"
   height="64"
   viewBox="0 0 16.933333 16.933334"
   version="1.1"
   id="svg5"
   inkscape:version="1.2 (dc2aedaf03, 2022-05-15)"
   sodipodi:docname="chrome-remote-desktop.svg"
   xmlns:inkscape="http://www.inkscape.org/namespaces/inkscape"
   xmlns:sodipodi="http://sodipodi.sourceforge.net/DTD/sodipodi-0.dtd"
   xmlns="http://www.w3.org/2000/svg"
   xmlns:svg="http://www.w3.org/2000/svg">
  <sodipodi:namedview
     id="namedview7"
     pagecolor="#ffffff"
     bordercolor="#666666"
     borderopacity="1.0"
     inkscape:pageshadow="2"
     inkscape:pageopacity="0.0"
     inkscape:pagecheckerboard="0"
     inkscape:document-units="px"
     showgrid="false"
     units="px"
     height="64px"
     inkscape:zoom="12.421875"
     inkscape:cx="32"
     inkscape:cy="32"
     inkscape:window-width="1920"
     inkscape:window-height="1011"
     inkscape:window-x="0"
     inkscape:window-y="0"
     inkscape:window-maximized="1"
     inkscape:current-layer="svg5"
     inkscape:showpageshadow="2"
     inkscape:deskcolor="#d1d1d1" />
  <defs
     id="defs2" />
  <rect
     style="fill:#f8f8f8;stroke-width:0.264583;fill-opacity:1"
     id="rect846"
     width="14.816667"
     height="14.816667"
     x="1.0583335"
     y="1.0583333"
     ry="3.175" />
  <path
     d="m 5.2916662,4.4979167 h 7.9375008 c 0.293159,0 0.529167,0.2360083 0.529167,0.5291666 v 5.8208337 c 0,0.293158 -0.236008,0.529167 -0.529167,0.529167 H 5.2916662 c -0.2931582,0 -0.5291665,-0.236009 -0.5291665,-0.529167 V 5.0270833 c 0,-0.2931583 0.2360083,-0.5291666 0.5291665,-0.5291666 z"
     style="fill:#000000;stroke-width:0.529167;stroke-linecap:round;stroke-linejoin:round;opacity:0.2"
     id="path1416" />
  <path
     id="rect2845"
     style="fill:#6f6f6f;stroke-width:0.529167;stroke-linecap:round;stroke-linejoin:round"
     d="m 5.2916667,4.2333334 h 7.9375003 c 0.293159,0 0.529167,0.2360083 0.529167,0.5291666 v 5.820833 c 0,0.293158 -0.236008,0.529167 -0.529167,0.529167 H 5.2916667 c -0.2931583,0 -0.5291666,-0.236009 -0.5291666,-0.529167 V 4.7625 c 0,-0.2931583 0.2360083,-0.5291666 0.5291666,-0.5291666 z"
     sodipodi:nodetypes="sssssssss" />
  <rect
     style="fill:#f5f5f5;fill-opacity:1;stroke-width:0.529167;stroke-linecap:round;stroke-linejoin:round"
     id="rect3075"
     width="7.9374995"
     height="5.8208337"
     x="5.291667"
     y="4.7624998" />
  <path
     d="m 3.7041669,6.0854167 h 7.9375001 c 0.293159,0 0.529167,0.2360084 0.529167,0.5291668 v 5.8208325 c 0,0.293159 -0.236008,0.529167 -0.529167,0.529167 H 3.7041669 c -0.2931584,0 -0.5291668,-0.236008 -0.5291668,-0.529167 V 6.6145835 c 0,-0.2931584 0.2360084,-0.5291668 0.5291668,-0.5291668 z"
     style="fill:#000000;stroke-width:0.529167;stroke-linecap:round;stroke-linejoin:round;opacity:0.2"
     id="path1444" />
  <path
     id="rect1384"
     style="fill:#a5a5a5;stroke-width:0.529167;stroke-linecap:round;stroke-linejoin:round"
     d="m 3.7041668,5.8208332 h 7.9375002 c 0.293159,0 0.529167,0.2360084 0.529167,0.5291668 v 5.820832 c 0,0.293159 -0.236008,0.529167 -0.529167,0.529167 H 3.7041668 C 3.4110084,12.699999 3.175,12.463991 3.175,12.170832 V 6.35 c 0,-0.2931584 0.2360084,-0.5291668 0.5291668,-0.5291668 z"
     sodipodi:nodetypes="sssssssss" />
  <rect
     style="fill:#f1f1f1;fill-opacity:1;stroke-width:0.575418;stroke-linecap:round;stroke-linejoin:round"
     id="rect1664"
     width="7.9375"
     height="5.8208332"
     x="3.7041667"
     y="6.3499999" />
  <path
     id="path4797"
     style="fill:#ffce44;fill-opacity:1;stroke:none;stroke-width:0;stroke-linecap:butt;stroke-linejoin:miter;stroke-miterlimit:4;stroke-dasharray:none;stroke-dashoffset:0;stroke-opacity:1"
     d="m 10.486182,9.6402384 -2.570386,0.00103 C 8.6236133,9.7573475 9.1637752,10.371833 9.1637818,11.1125 9.1632675,11.476761 9.029487,11.828219 8.7875774,12.100553 l -0.040824,0.07028 H 10.66705 c 0.116965,-0.330981 0.180869,-0.687302 0.180868,-1.058333 2e-6,-0.531357 -0.130995,-1.032192 -0.361736,-1.4722616 z" />
  <path
     style="fill:#dd4c40;fill-opacity:1;stroke-width:0.0168001"
     clip-path="none"
     d="m 7.6729164,7.9374999 c -1.1414875,-4e-6 -2.1421214,0.6024875 -2.7016703,1.5067086 l 1.2389841,1.9512285 c 0.00575,0.09287 -0.02824,-0.276266 -0.028309,-0.282938 7.3e-6,-0.823451 0.6675441,-1.4909869 1.490995,-1.490994 0.07731,6.167e-4 0.2369679,0.016212 0.3132494,0.028788 L 10.486438,9.640333 C 9.9557226,8.6281567 8.8950661,7.9374955 7.6729164,7.9374999 Z M 4.9708635,9.4448265 c -0.7699805,3.6831305 -0.3849903,1.8415655 0,0 z"
     id="path3923"
     inkscape:connector-curvature="0"
     sodipodi:nodetypes="sccccccscc" />
  <path
     id="path3923-1"
     clip-path="none"
     style="fill:#19a15f;fill-opacity:1;stroke-width:0.0168001"
     d="M 4.9712727,9.4443846 C 4.6712656,9.9291909 4.4979143,10.500479 4.4979167,11.1125 c -1.3e-6,0.371086 0.063868,0.727313 0.1808676,1.058333 H 6.623885 C 6.4168401,11.96556 6.2691053,11.699032 6.2104736,11.395686 Z m 3.8163047,2.6561684 c -0.021387,0.02417 -0.043393,0.04769 -0.066146,0.07028 h 0.025321 z" />
  <path
     id="path4162"
     style="fill:#ffffff;fill-opacity:1;stroke:none;stroke-width:0;stroke-linecap:butt;stroke-linejoin:miter;stroke-miterlimit:4;stroke-dasharray:none;stroke-dashoffset:0;stroke-opacity:1"
     d="M 7.6729167,9.6216348 A 1.4910078,1.4910078 0 0 0 6.1820515,11.1125 1.4910078,1.4910078 0 0 0 6.6244018,12.170833 H 8.7214316 A 1.4910078,1.4910078 0 0 0 9.1637818,11.1125 1.4910078,1.4910078 0 0 0 7.6729167,9.6216348 Z" />
  <path
     id="path3956"
     clip-path="none"
     style="fill:#4889f4;fill-opacity:1;stroke:none;stroke-width:0;stroke-linecap:butt;stroke-linejoin:miter;stroke-miterlimit:4;stroke-dasharray:none;stroke-dashoffset:0;stroke-opacity:1"
     d="m 7.6729167,9.882084 a 1.2303149,1.2303149 0 0 0 -1.230416,1.230416 1.2303149,1.2303149 0 0 0 0.6040975,1.058333 h 1.252637 A 1.2303149,1.2303149 0 0 0 8.9033326,11.1125 1.2303149,1.2303149 0 0 0 7.6729167,9.882084 Z" />
  <path
     id="path3420"
     style="opacity:0.2;fill:#000000;fill-opacity:1;stroke-width:0.529167;stroke-linecap:round;stroke-linejoin:round"
     d="m 12.016322,5.9753458 c 0.09565,0.095647 0.154512,0.228075 0.154512,0.3746542 v 4.7625 h 1.058334 c 0.293158,0 0.529166,-0.236009 0.529166,-0.529167 V 7.7173584 Z" />
  <path
     id="rect845"
     style="opacity:0.2;fill:#000000;stroke-width:0.999999"
     d="M 4 47 L 4 48 C 4 54.648 9.3519997 60 16 60 L 48 60 C 54.648 60 60 54.648 60 48 L 60 47 C 60 53.648 54.648 59 48 59 L 16 59 C 9.3519997 59 4 53.648 4 47 z "
     transform="scale(0.26458334)" />
  <path
     id="rect843"
     style="opacity:0.2;fill:#ffffff;stroke-width:0.999999"
     d="M 16 4 C 9.3519997 4 4 9.3519997 4 16 L 4 17 C 4 10.352 9.3519997 5 16 5 L 48 5 C 54.648 5 60 10.352 60 17 L 60 16 C 60 9.3519997 54.648 4 48 4 L 16 4 z "
     transform="scale(0.26458334)" />
</svg>
