<?xml version="1.0" encoding="UTF-8" standalone="no"?>
<!-- Created with Inkscape (http://www.inkscape.org/) -->

<svg
   width="64"
   height="64"
   viewBox="0 0 16.933333 16.933334"
   version="1.1"
   id="svg5"
   inkscape:version="1.1.2 (0a00cf5339, 2022-02-04, custom)"
   sodipodi:docname="com.gitlab.newsflash.svg"
   xmlns:inkscape="http://www.inkscape.org/namespaces/inkscape"
   xmlns:sodipodi="http://sodipodi.sourceforge.net/DTD/sodipodi-0.dtd"
   xmlns="http://www.w3.org/2000/svg"
   xmlns:svg="http://www.w3.org/2000/svg">
  <sodipodi:namedview
     id="namedview7"
     pagecolor="#ffffff"
     bordercolor="#666666"
     borderopacity="1.0"
     inkscape:pageshadow="2"
     inkscape:pageopacity="0.0"
     inkscape:pagecheckerboard="0"
     inkscape:document-units="px"
     showgrid="false"
     units="px"
     height="64px"
     inkscape:zoom="12.25"
     inkscape:cx="32"
     inkscape:cy="32"
     inkscape:window-width="1920"
     inkscape:window-height="1011"
     inkscape:window-x="0"
     inkscape:window-y="0"
     inkscape:window-maximized="1"
     inkscape:current-layer="svg5" />
  <defs
     id="defs2" />
  <rect
     style="fill:#ff7605;stroke-width:0.264583;fill-opacity:1"
     id="rect846"
     width="14.816667"
     height="14.816667"
     x="1.0583335"
     y="1.0583333"
     ry="3.175" />
  <path
     d="M 7.9427275,4.5832579 6.3554349,9.0933861 c -0.012081,0.04405 -0.00254,0.0903 0.014092,0.1161789 0.021135,0.025889 0.040259,0.05671 0.096627,0.06222 l 1.1132174,-0.0055 c 0.03774,0 0.07096,0.018169 0.085052,0.05671 0.00906,0.03359 0.011568,0.06718 0,0.113977 l -0.9647561,3.896093 c -0.00705,0.03084 -0.01661,0.100212 0.049313,0.147014 0.042778,0.02808 0.1278292,0.01266 0.1796648,-0.04405 l 3.634066,-4.9883312 c 0.02366,-0.041296 0.02617,-0.1134263 0.01157,-0.1470141 -0.01409,-0.033591 -0.04479,-0.080389 -0.115247,-0.088098 l -1.6959963,0.00265 c -0.04932,-0.010462 -0.06593,-0.036338 -0.08002,-0.056713 -0.018619,-0.031385 -0.023651,-0.074884 -0.0046,-0.1216861 L 10.067471,4.6421777 c 0.01862,-0.043498 0.01862,-0.074332 0.007,-0.09801 -0.0096,-0.020373 -0.04025,-0.046251 -0.09411,-0.046251 H 8.086582 c -0.026173,0 -0.115751,0.010462 -0.1439339,0.085345 z"
     style="opacity:0.2;fill:#000000;stroke-width:0.0700042"
     id="path4226"
     sodipodi:nodetypes="ccccccccccccccccccsscc" />
  <path
     d="M 7.9427275,4.3186746 6.3554349,8.8288029 c -0.012081,0.04405 -0.00254,0.0903 0.014092,0.116179 0.021135,0.02589 0.040259,0.05671 0.096627,0.06222 l 1.1132175,-0.0055 c 0.03774,0 0.07096,0.01817 0.085052,0.05671 0.00906,0.03359 0.011568,0.06718 0,0.113977 l -0.964756,3.8960941 c -0.00705,0.03084 -0.016611,0.100212 0.049313,0.147014 0.042778,0.02808 0.1278292,0.01266 0.1796648,-0.04405 L 10.562711,8.1831145 c 0.02366,-0.041296 0.02617,-0.1134263 0.01157,-0.1470141 -0.01409,-0.033591 -0.04479,-0.080389 -0.115247,-0.088098 l -1.6959966,0.00265 c -0.04932,-0.010462 -0.06593,-0.036338 -0.08002,-0.056713 -0.01862,-0.031385 -0.02365,-0.074884 -0.0046,-0.1216861 L 10.067472,4.3775944 c 0.01862,-0.043498 0.01862,-0.074332 0.007,-0.09801 -0.0096,-0.020373 -0.04025,-0.046251 -0.09411,-0.046251 h -1.89378 c -0.026173,0 -0.115751,0.010462 -0.1439339,0.085345 z"
     style="fill:#ffffff;stroke-width:0.264583"
     id="path896"
     sodipodi:nodetypes="ccccccccccccccccccsscc" />
  <path
     id="rect845"
     style="opacity:0.2;fill:#000000;stroke-width:0.999999"
     d="M 4 47 L 4 48 C 4 54.648 9.3519997 60 16 60 L 48 60 C 54.648 60 60 54.648 60 48 L 60 47 C 60 53.648 54.648 59 48 59 L 16 59 C 9.3519997 59 4 53.648 4 47 z "
     transform="scale(0.26458334)" />
  <path
     id="rect843"
     style="opacity:0.2;fill:#ffffff;stroke-width:0.999999"
     d="M 16 4 C 9.3519997 4 4 9.3519997 4 16 L 4 17 C 4 10.352 9.3519997 5 16 5 L 48 5 C 54.648 5 60 10.352 60 17 L 60 16 C 60 9.3519997 54.648 4 48 4 L 16 4 z "
     transform="scale(0.26458334)" />
</svg>
