<?xml version="1.0" encoding="UTF-8" standalone="no"?>
<!-- Created with Inkscape (http://www.inkscape.org/) -->

<svg
   width="64"
   height="64"
   viewBox="0 0 16.933333 16.933334"
   version="1.1"
   id="svg5"
   inkscape:version="1.2 (dc2aedaf03, 2022-05-15)"
   sodipodi:docname="desktop-environment-kde.svg"
   xmlns:inkscape="http://www.inkscape.org/namespaces/inkscape"
   xmlns:sodipodi="http://sodipodi.sourceforge.net/DTD/sodipodi-0.dtd"
   xmlns="http://www.w3.org/2000/svg"
   xmlns:svg="http://www.w3.org/2000/svg">
  <sodipodi:namedview
     id="namedview7"
     pagecolor="#ffffff"
     bordercolor="#666666"
     borderopacity="1.0"
     inkscape:pageshadow="2"
     inkscape:pageopacity="0.0"
     inkscape:pagecheckerboard="0"
     inkscape:document-units="px"
     showgrid="false"
     units="px"
     height="64px"
     inkscape:zoom="12.34375"
     inkscape:cx="27.220253"
     inkscape:cy="32"
     inkscape:window-width="1920"
     inkscape:window-height="1011"
     inkscape:window-x="0"
     inkscape:window-y="0"
     inkscape:window-maximized="1"
     inkscape:current-layer="svg5"
     inkscape:showpageshadow="2"
     inkscape:deskcolor="#d1d1d1" />
  <defs
     id="defs2" />
  <rect
     style="fill:#2696f7;fill-opacity:1;stroke-width:0.264583"
     id="rect846"
     width="14.816667"
     height="14.816667"
     x="1.0583334"
     y="1.0583334"
     ry="3.175" />
  <path
     d="M 9.3968771,3.175 7.5354176,3.3474343 V 10.620838 L 9.3968771,10.248961 V 7.2708343 L 11.630212,10.620838 13.491672,9.8770849 11.072398,6.7441822 13.49375,3.5479151 11.543995,3.175 9.3968771,6.3401045 Z M 5.3789498,4.8941492 c -0.047189,-0.00331 -0.093474,0.014139 -0.1267287,0.047783 L 4.461724,5.732429 c -0.073092,0.072762 -0.073092,0.1910833 0,0.2638454 L 5.2792288,7.2781051 C 5.2138668,7.4103084 5.1573044,7.5466828 5.1099108,7.6863386 L 3.6265603,8.0156255 C 3.5235114,8.0151654 3.4396972,8.0985145 3.4395834,8.201564 v 1.1166677 c 0,0.1031781 0.085926,0.1636005 0.1869769,0.185938 l 1.4833505,0.3303261 c 0.046271,0.1382799 0.1013415,0.2732442 0.165163,0.4040782 l -0.8195823,1.284947 c -0.055312,0.08669 -0.072863,0.189412 0,0.262806 l 0.790497,0.790497 c 0.072643,0.0724 0.1901631,0.0724 0.2628066,0 l 1.2859855,-0.818543 c 0.1328242,0.06615 0.2698963,0.123412 0.4103109,0.171395 l 0.3292874,1.483352 c 0,0.103178 0.08276,0.185938 0.185938,0.185938 h 1.1177064 c 0.1031781,0 0.163601,-0.08489 0.1859386,-0.185938 l 0.3292868,-1.48439 c 0.1403105,-0.04663 0.2773804,-0.102502 0.4103109,-0.167241 l 1.2797534,0.815427 c 0.07264,0.0724 0.190163,0.0724 0.262806,0 l 0.790497,-0.790497 c 0.07286,-0.07339 0.05531,-0.176115 0,-0.262806 L 11.747592,10.975055 11.486864,11.078931 10.653777,9.8282631 C 10.233606,10.762767 9.3048251,11.36434 8.2802088,11.365629 6.8407689,11.365744 5.6738435,10.198818 5.6739581,8.7593785 5.6753381,7.7543251 6.2545414,6.8396396 7.1625024,6.4086626 V 5.606739 C 7.0374094,5.649665 6.9149677,5.69996 6.7958199,5.7573598 L 5.5160665,4.9419322 c -0.040837,-0.027453 -0.088063,-0.04391 -0.1371167,-0.047783 z"
     style="fill:#ffffff;fill-opacity:1;stroke-width:0.531846"
     id="path407" />
  <path
     id="rect12059"
     style="opacity:0.2;fill:#ffffff;fill-opacity:1;stroke-width:0.999999"
     d="M 16 4 C 9.3519997 4 4 9.3519997 4 16 L 4 17 C 4 10.352 9.3519997 5 16 5 L 48 5 C 54.648 5 60 10.352 60 17 L 60 16 C 60 9.3519997 54.648 4 48 4 L 16 4 z "
     transform="scale(0.26458334)" />
  <path
     id="rect14210"
     style="opacity:0.2;fill:#000000;fill-opacity:1;stroke-width:0.999999"
     d="M 4 47 L 4 48 C 4 54.648 9.3519997 60 16 60 L 48 60 C 54.648 60 60 54.648 60 48 L 60 47 C 60 53.648 54.648 59 48 59 L 16 59 C 9.3519997 59 4 53.648 4 47 z "
     transform="scale(0.26458334)" />
</svg>
