<?xml version="1.0" encoding="UTF-8" standalone="no"?>
<!-- Created with Inkscape (http://www.inkscape.org/) -->

<svg
   width="64"
   height="64"
   viewBox="0 0 16.933333 16.933334"
   version="1.1"
   id="svg5"
   inkscape:version="1.2 (dc2aedaf03, 2022-05-15)"
   sodipodi:docname="discord.svg"
   xmlns:inkscape="http://www.inkscape.org/namespaces/inkscape"
   xmlns:sodipodi="http://sodipodi.sourceforge.net/DTD/sodipodi-0.dtd"
   xmlns="http://www.w3.org/2000/svg"
   xmlns:svg="http://www.w3.org/2000/svg">
  <sodipodi:namedview
     id="namedview7"
     pagecolor="#ffffff"
     bordercolor="#666666"
     borderopacity="1.0"
     inkscape:pageshadow="2"
     inkscape:pageopacity="0.0"
     inkscape:pagecheckerboard="0"
     inkscape:document-units="px"
     showgrid="false"
     units="px"
     height="64px"
     inkscape:zoom="13.53125"
     inkscape:cx="32"
     inkscape:cy="32"
     inkscape:window-width="1920"
     inkscape:window-height="1024"
     inkscape:window-x="0"
     inkscape:window-y="32"
     inkscape:window-maximized="1"
     inkscape:current-layer="svg5"
     inkscape:showpageshadow="2"
     inkscape:deskcolor="#d1d1d1" />
  <defs
     id="defs2" />
  <rect
     style="fill:#5865f2;stroke-width:0.264583;fill-opacity:1"
     id="rect846"
     width="14.816667"
     height="14.816667"
     x="1.0583335"
     y="1.0583333"
     ry="3.175" />
  <path
     d="m 7.0197211,5.0271588 c 0,0 -1.233014,-0.027037 -2.5388956,0.943305 0,0 -1.3058254,2.3492268 -1.3058255,5.2421172 0,0 0.7617762,1.30506 2.7659416,1.368546 0,0 0.3350684,-0.397995 0.6071269,-0.742602 -1.1517147,-0.344606 -1.5868099,-1.061219 -1.5868099,-1.061219 0,0 0.090153,0.0636 0.2533878,0.154291 0.00908,0 0.01823,0.0084 0.036377,0.01756 0.027207,0.01813 0.054328,0.02702 0.081537,0.04515 0.2267146,0.12696 0.4537427,0.226962 0.6623207,0.308581 0.3718135,0.154167 0.8165108,0.290364 1.3334221,0.390117 0.6801463,0.126944 1.4776406,0.172015 2.3482281,0.0088 0.4262257,-0.08161 0.8624297,-0.199676 1.3158607,-0.390117 0.317401,-0.117892 0.670589,-0.28952 1.042402,-0.534373 0,0 -0.454013,0.73446 -1.642005,1.069999 0.27206,0.335538 0.599603,0.725041 0.599603,0.725041 2.004165,-0.06348 2.765942,-1.368831 2.765942,-1.359765 0,-2.8928904 -1.305826,-5.2421176 -1.305826,-5.2421176 C 11.155694,5.0001234 9.9123563,5.0271588 9.9123563,5.0271588 L 9.7856633,5.1726695 C 11.327327,5.6351684 12.043574,6.315423 12.043574,6.315423 11.100437,5.8075799 10.175527,5.553408 9.3140093,5.4536533 8.6610694,5.3811013 8.0357797,5.3986653 7.4825928,5.4712153 c -0.054412,0 -0.099878,0.00976 -0.1542906,0.018812 -0.3174021,0.036276 -1.0881199,0.1445252 -2.0584624,0.5707491 -0.3355392,0.145098 -0.5356265,0.2546429 -0.5356265,0.2546429 0,0 0.7434728,-0.7166322 2.3758239,-1.1791315 z m -0.244607,3.3467268 c 0.5169113,0 0.9335558,0.444058 0.9244892,0.997244 0,0.553186 -0.4075779,0.9972444 -0.9244892,0.9972444 -0.5078427,0 -0.9257434,-0.4440584 -0.9257434,-0.9972444 0,-0.553186 0.4088321,-0.997244 0.9257434,-0.997244 z m 3.3103489,0 c 0.507842,0 0.924489,0.444058 0.924489,0.997244 0,0.553186 -0.407578,0.9972444 -0.924489,0.9972444 -0.5078427,0 -0.9257436,-0.4440584 -0.9257436,-0.9972444 0,-0.553186 0.4088319,-0.997244 0.9257436,-0.997244 z"
     style="opacity:0.2;fill:#000000;fill-opacity:1;stroke-width:0.590617"
     id="path299" />
  <path
     id="rect889"
     style="fill:#ffffff;fill-opacity:1;stroke-width:0.590617"
     d="m 7.0197214,4.7625754 c 0,0 -1.233014,-0.027037 -2.5388956,0.943305 0,0 -1.3058254,2.3492272 -1.3058255,5.2421176 0,0 0.7617762,1.30506 2.7659416,1.368546 0,0 0.3350684,-0.397995 0.6071269,-0.742602 -1.1517147,-0.344606 -1.5868099,-1.061219 -1.5868099,-1.061219 0,0 0.090153,0.0636 0.2533878,0.154291 0.00908,0 0.01823,0.0084 0.036377,0.01756 0.027207,0.01813 0.054328,0.02702 0.081537,0.04515 0.2267146,0.12696 0.4537427,0.226962 0.6623207,0.308581 0.3718135,0.154167 0.8165108,0.290364 1.3334221,0.390117 0.6801463,0.126944 1.4776406,0.172015 2.3482278,0.0088 0.4262257,-0.08161 0.8624297,-0.199676 1.3158607,-0.390117 0.317401,-0.117892 0.670589,-0.28952 1.042402,-0.534373 0,0 -0.454013,0.73446 -1.642005,1.069999 0.27206,0.335538 0.599603,0.725041 0.599603,0.725041 2.004165,-0.06348 2.765942,-1.368831 2.765942,-1.359765 0,-2.8928914 -1.305826,-5.242118 -1.305826,-5.242118 C 11.155694,4.73554 9.9123563,4.7625754 9.9123563,4.7625754 L 9.7856633,4.9080861 C 11.327327,5.370585 12.043574,6.0508396 12.043574,6.0508396 11.100437,5.5429965 10.175527,5.2888246 9.3140103,5.1890699 8.6610697,5.1165189 8.03578,5.1340819 7.4825931,5.2066319 c -0.054412,0 -0.099878,0.00976 -0.1542906,0.018812 C 7.0109004,5.2617199 6.2401826,5.3699691 5.2698401,5.796193 4.9343009,5.941291 4.7342136,6.0508359 4.7342136,6.0508359 c 0,0 0.7434728,-0.7166322 2.3758239,-1.1791315 z m -0.244607,3.3467262 c 0.5169113,0 0.9335558,0.444059 0.9244892,0.997244 0,0.553187 -0.4075779,0.9972454 -0.9244892,0.9972454 -0.5078427,0 -0.9257434,-0.4440584 -0.9257434,-0.9972454 0,-0.553185 0.4088321,-0.997244 0.9257434,-0.997244 z m 3.3103486,0 c 0.507842,0 0.924489,0.444059 0.924489,0.997244 0,0.553187 -0.407578,0.9972454 -0.924489,0.9972454 -0.5078427,0 -0.9257432,-0.4440584 -0.9257432,-0.9972454 0,-0.553185 0.4088315,-0.997244 0.9257432,-0.997244 z"
     sodipodi:nodetypes="ccccccccccccccccccccccccccccscssssssss" />
  <path
     id="rect845"
     style="opacity:0.2;fill:#000000;stroke-width:0.999999"
     d="M 4 47 L 4 48 C 4 54.648 9.3519997 60 16 60 L 48 60 C 54.648 60 60 54.648 60 48 L 60 47 C 60 53.648 54.648 59 48 59 L 16 59 C 9.3519997 59 4 53.648 4 47 z "
     transform="scale(0.26458334)" />
  <path
     id="rect843"
     style="opacity:0.2;fill:#ffffff;stroke-width:0.999999"
     d="M 16 4 C 9.3519997 4 4 9.3519997 4 16 L 4 17 C 4 10.352 9.3519997 5 16 5 L 48 5 C 54.648 5 60 10.352 60 17 L 60 16 C 60 9.3519997 54.648 4 48 4 L 16 4 z "
     transform="scale(0.26458334)" />
</svg>
