<?xml version="1.0" encoding="UTF-8" standalone="no"?>
<!-- Created with Inkscape (http://www.inkscape.org/) -->

<svg
   width="64"
   height="64"
   viewBox="0 0 16.933333 16.933334"
   version="1.1"
   id="svg5"
   inkscape:version="1.2 (dc2aedaf03, 2022-05-15)"
   sodipodi:docname="emacs.svg"
   xmlns:inkscape="http://www.inkscape.org/namespaces/inkscape"
   xmlns:sodipodi="http://sodipodi.sourceforge.net/DTD/sodipodi-0.dtd"
   xmlns="http://www.w3.org/2000/svg"
   xmlns:svg="http://www.w3.org/2000/svg">
  <sodipodi:namedview
     id="namedview7"
     pagecolor="#ffffff"
     bordercolor="#666666"
     borderopacity="1.0"
     inkscape:pageshadow="2"
     inkscape:pageopacity="0.0"
     inkscape:pagecheckerboard="0"
     inkscape:document-units="px"
     showgrid="false"
     units="px"
     height="64px"
     inkscape:zoom="13.53125"
     inkscape:cx="32"
     inkscape:cy="32.036952"
     inkscape:window-width="1409"
     inkscape:window-height="901"
     inkscape:window-x="117"
     inkscape:window-y="100"
     inkscape:window-maximized="0"
     inkscape:current-layer="svg5"
     inkscape:showpageshadow="2"
     inkscape:deskcolor="#d1d1d1" />
  <defs
     id="defs2" />
  <rect
     style="fill:#c462ed;stroke-width:0.264583;fill-opacity:1"
     id="rect846"
     width="14.816667"
     height="14.816667"
     x="1.0583335"
     y="1.0583333"
     ry="3.175" />
  <path
     d="m 9.9683902,3.4401161 c -0.117264,0.00298 -0.235249,0.018865 -0.351396,0.0478 -0.698582,0.1739893 -2.370632,0.783536 -2.370632,0.783536 2.110645,-0.1400138 2.466262,-0.1234675 2.640639,0.094954 0.10305,0.1288136 -0.01922,0.3213499 -0.575541,0.4482885 -0.606356,0.1388889 -1.871313,0.3358932 -1.871313,0.3358932 -1.217562,0.1448639 -2.078221,0.199909 -2.296348,0.7790145 -0.141514,0.3782285 0.230536,0.6838594 0.39855,0.8791362 0.698957,0.7038065 1.660777,1.0505193 2.282783,1.3099843 0.234102,0.09782 0.911434,0.269361 0.911434,0.269361 -1.956143,0.0011 -3.31689,0.6986821 -4.090148,1.4566141 -0.8684578,0.9438841 -0.379074,1.9800911 1.577407,2.5237211 1.112273,0.266215 1.752259,0.340524 3.400274,0.217685 0.9871978,-0.112001 1.1457288,-0.08777 1.1614168,-0.0045 0.02278,0.117239 -1.0714718,0.47437 -1.3694118,0.582646 -0.75757,0.274427 -2.754015,0.855853 -2.764015,0.858465 0,0 0.586273,0.0098 1.332592,-0.100767 0.302053,-0.04593 1.448132,-0.229666 2.2976398,-0.473481 0,0 1.036191,-0.293585 1.583221,-0.540012 0.57313,-0.257254 0.880112,-0.466449 1.00445,-0.743489 0.0448,-0.09298 0.09817,-0.38787 -0.313285,-0.514821 -0.651906,-0.191539 -1.45678,-0.102116 -3.0540458,0.0562 -1.772391,0.03843 -2.382232,-0.233194 -2.712985,-0.460584 -0.31849,-0.232615 -0.216911,-0.931478 1.026413,-1.6129341 C 8.4411072,9.2717739 10.939897,8.5282548 10.939897,8.5282548 10.052764,8.1407018 8.4013022,7.464861 8.0615492,7.3177469 7.7632212,7.1893082 7.2869412,6.9970709 7.1682022,6.738331 7.0367762,6.4904163 7.4015122,6.2494686 7.6087392,6.1744178 8.2785702,5.9321029 9.2352202,5.7497517 10.113728,5.6847885 10.555433,5.6530515 10.62532,5.6189015 10.62532,5.6189015 11.227564,5.4796375 11.597903,5.0255814 11.381726,4.3534877 11.212236,3.7738261 10.601616,3.4240158 9.9683902,3.4401161 Z"
     style="fill:#000000;fill-opacity:1;stroke-width:0.330725;opacity:0.2"
     id="path1501" />
  <path
     d="m 9.9683901,3.1755328 c -0.117264,0.00298 -0.235249,0.018865 -0.351396,0.0478 C 8.9184121,3.3973221 7.2463619,4.0068688 7.2463619,4.0068688 9.3570071,3.866855 9.7126241,3.8834013 9.8870011,4.1018228 9.9900511,4.2306364 9.8677861,4.4231727 9.3114601,4.5501113 8.7051041,4.6890002 7.4401467,4.8860045 7.4401467,4.8860045 6.2225855,5.0308684 5.3619259,5.0859134 5.143799,5.6650189 5.0022852,6.0432474 5.3743351,6.3488783 5.5423494,6.5441551 6.2413058,7.2479616 7.2031265,7.5946744 7.825132,7.8541394 c 0.2341021,0.09782 0.9114341,0.269361 0.9114341,0.269361 -1.9561435,0.0011 -3.3168904,0.698682 -4.0901478,1.456614 -0.8684581,0.9438846 -0.3790739,1.9800916 1.5774071,2.5237216 1.1122726,0.266215 1.7522587,0.340524 3.4002737,0.217685 0.9871979,-0.112001 1.1457289,-0.08777 1.1614169,-0.0045 0.02278,0.117239 -1.0714719,0.47437 -1.3694119,0.582646 -0.75757,0.274427 -2.7540149,0.855853 -2.7640147,0.858465 0,0 0.5862726,0.0098 1.3325917,-0.100767 0.302053,-0.04593 1.448132,-0.229666 2.2976399,-0.473481 0,0 1.036191,-0.293585 1.583221,-0.540012 0.57313,-0.257254 0.880112,-0.466449 1.00445,-0.743489 0.0448,-0.09298 0.09817,-0.38787 -0.313285,-0.514821 -0.651906,-0.191539 -1.45678,-0.102116 -3.0540459,0.0562 C 7.7302696,11.480192 7.1204295,11.208568 6.7896763,10.981178 6.4711857,10.748563 6.5727648,10.0497 7.8160889,9.3682434 8.4411071,9.0071904 10.939897,8.2636714 10.939897,8.2636714 10.052764,7.8761184 8.4013021,7.2002776 8.0615491,7.0531635 7.7632215,6.9247248 7.2869409,6.7324875 7.1682021,6.4737476 7.036776,6.2258329 7.4015123,5.9848852 7.6087395,5.9098344 8.2785701,5.6675195 9.2352201,5.4851683 10.113728,5.4202051 c 0.441705,-0.031737 0.511592,-0.065887 0.511592,-0.065887 0.602244,-0.139264 0.972583,-0.59332 0.756406,-1.2654137 -0.16949,-0.5796616 -0.78011,-0.9294719 -1.4133359,-0.9133716 z"
     style="fill:#ffffff;fill-opacity:1;stroke-width:0.330725"
     id="path1310"
     sodipodi:nodetypes="sccccccccccccccccccccccccccccccs" />
  <path
     id="rect845"
     style="opacity:0.2;fill:#000000;stroke-width:0.999999"
     d="M 4 47 L 4 48 C 4 54.648 9.3519997 60 16 60 L 48 60 C 54.648 60 60 54.648 60 48 L 60 47 C 60 53.648 54.648 59 48 59 L 16 59 C 9.3519997 59 4 53.648 4 47 z "
     transform="scale(0.26458334)" />
  <path
     id="rect843"
     style="opacity:0.2;fill:#ffffff;stroke-width:0.999999"
     d="M 16 4 C 9.3519997 4 4 9.3519997 4 16 L 4 17 C 4 10.352 9.3519997 5 16 5 L 48 5 C 54.648 5 60 10.352 60 17 L 60 16 C 60 9.3519997 54.648 4 48 4 L 16 4 z "
     transform="scale(0.26458334)" />
</svg>
