<?xml version="1.0" encoding="UTF-8" standalone="no"?>
<!-- Created with Inkscape (http://www.inkscape.org/) -->

<svg
   width="64"
   height="64"
   viewBox="0 0 16.933333 16.933334"
   version="1.1"
   id="svg5"
   inkscape:version="1.2 (dc2aedaf03, 2022-05-15)"
   sodipodi:docname="evolution.svg"
   xmlns:inkscape="http://www.inkscape.org/namespaces/inkscape"
   xmlns:sodipodi="http://sodipodi.sourceforge.net/DTD/sodipodi-0.dtd"
   xmlns="http://www.w3.org/2000/svg"
   xmlns:svg="http://www.w3.org/2000/svg">
  <sodipodi:namedview
     id="namedview7"
     pagecolor="#ffffff"
     bordercolor="#666666"
     borderopacity="1.0"
     inkscape:pageshadow="2"
     inkscape:pageopacity="0.0"
     inkscape:pagecheckerboard="0"
     inkscape:document-units="px"
     showgrid="false"
     units="px"
     height="64px"
     inkscape:zoom="12.421875"
     inkscape:cx="32"
     inkscape:cy="32"
     inkscape:window-width="1920"
     inkscape:window-height="1011"
     inkscape:window-x="0"
     inkscape:window-y="0"
     inkscape:window-maximized="1"
     inkscape:current-layer="svg5"
     inkscape:showpageshadow="2"
     inkscape:deskcolor="#d1d1d1" />
  <defs
     id="defs2" />
  <rect
     style="fill:#efefef;stroke-width:0.264583;fill-opacity:1"
     id="rect846"
     width="14.816667"
     height="14.816667"
     x="1.0583335"
     y="1.0583333"
     ry="3.175" />
  <rect
     style="opacity:0.2;fill:#000000;fill-opacity:1;stroke-width:0.79375;stroke-linejoin:round"
     id="rect7105"
     width="10.054167"
     height="6.3500004"
     x="3.4395833"
     y="5.5562501"
     ry="0.5291667" />
  <path
     id="rect845"
     style="opacity:0.2;fill:#000000;stroke-width:0.999999"
     d="M 4 47 L 4 48 C 4 54.648 9.3519997 60 16 60 L 48 60 C 54.648 60 60 54.648 60 48 L 60 47 C 60 53.648 54.648 59 48 59 L 16 59 C 9.3519997 59 4 53.648 4 47 z "
     transform="scale(0.26458334)" />
  <path
     id="rect843"
     style="opacity:0.2;fill:#ffffff;stroke-width:0.999999"
     d="M 16 4 C 9.3519997 4 4 9.3519997 4 16 L 4 17 C 4 10.352 9.3519997 5 16 5 L 48 5 C 54.648 5 60 10.352 60 17 L 60 16 C 60 9.3519997 54.648 4 48 4 L 16 4 z "
     transform="scale(0.26458334)" />
  <rect
     style="fill:#2696f7;stroke-width:0.79375;stroke-linejoin:round;fill-opacity:1"
     id="rect926"
     width="10.054167"
     height="6.3499999"
     x="3.4395833"
     y="5.2916665"
     ry="0.5291667" />
  <path
     id="path5665"
     style="opacity:0.1;fill:#000000;stroke-width:0.79375;stroke-linejoin:round"
     d="M 32 26.609375 C 30.466512 26.609375 28.933024 27.197835 27.757812 28.373047 L 13.21875 42.912109 C 13.549359 43.558781 14.221176 44 15 44 L 49 44 C 49.778824 44 50.450641 43.558781 50.78125 42.912109 L 36.242188 28.373047 C 35.066975 27.197835 33.533488 26.609375 32 26.609375 z "
     transform="scale(0.26458334)" />
  <path
     d="m 3.968659,11.641606 c -0.13775,0 -0.2626093,-0.05232 -0.3565673,-0.137976 L 7.3441635,7.7715582 c 0.621883,-0.621883 1.6229417,-0.621883 2.2448247,0 L 13.321061,11.50363 c -0.09396,0.08566 -0.218818,0.137976 -0.356568,0.137976 z"
     style="fill:#3ea2f6;stroke-width:0.79375;stroke-linejoin:round;fill-opacity:1"
     id="path5361"
     sodipodi:nodetypes="scsscss" />
  <path
     id="path6508"
     style="opacity:0.2;fill:#000000;stroke-width:3;stroke-linejoin:round"
     d="M 15 20 C 14.221176 20 13.549359 20.441219 13.21875 21.087891 L 27.757812 35.626953 C 30.108236 37.977374 33.891764 37.977374 36.242188 35.626953 L 50.78125 21.087891 C 50.450641 20.441219 49.778824 20 49 20 L 15 20 z "
     transform="scale(0.26458334)" />
  <path
     id="rect1048"
     style="fill:#50abfb;stroke-width:3;stroke-linejoin:round;fill-opacity:1"
     d="m 15,20 c -0.52063,0 -0.992539,0.197727 -1.347656,0.521484 l 14.105468,14.105469 c 2.350424,2.350423 6.133952,2.350423 8.484376,0 L 50.347656,20.521484 C 49.992539,20.197727 49.52063,20 49,20 Z"
     sodipodi:nodetypes="scsscss"
     transform="scale(0.26458334)" />
  <path
     id="path5132"
     style="fill:#137fe3;stroke-width:3;stroke-linejoin:round;opacity:1;fill-opacity:1"
     d="M 15 20 C 14.47937 20 14.007461 20.197726 13.652344 20.521484 L 27.757812 34.626953 C 30.108236 36.977375 33.891764 36.977375 36.242188 34.626953 L 50.347656 20.521484 C 49.992532 20.197726 49.52063 20 49 20 L 48.869141 20 L 35.535156 33.333984 C 33.576471 35.29267 30.423529 35.29267 28.464844 33.333984 L 15.130859 20 L 15 20 z "
     transform="scale(0.26458334)" />
</svg>
