<?xml version="1.0" encoding="UTF-8" standalone="no"?>
<!-- Created with Inkscape (http://www.inkscape.org/) -->

<svg
   width="64"
   height="64"
   viewBox="0 0 16.933333 16.933334"
   version="1.1"
   id="svg5"
   inkscape:version="1.2 (dc2aedaf03, 2022-05-15)"
   sodipodi:docname="gmail.svg"
   xmlns:inkscape="http://www.inkscape.org/namespaces/inkscape"
   xmlns:sodipodi="http://sodipodi.sourceforge.net/DTD/sodipodi-0.dtd"
   xmlns="http://www.w3.org/2000/svg"
   xmlns:svg="http://www.w3.org/2000/svg">
  <sodipodi:namedview
     id="namedview7"
     pagecolor="#ffffff"
     bordercolor="#666666"
     borderopacity="1.0"
     inkscape:pageshadow="2"
     inkscape:pageopacity="0.0"
     inkscape:pagecheckerboard="0"
     inkscape:document-units="px"
     showgrid="false"
     units="px"
     height="64px"
     inkscape:zoom="12.34375"
     inkscape:cx="32"
     inkscape:cy="32"
     inkscape:window-width="1920"
     inkscape:window-height="1011"
     inkscape:window-x="0"
     inkscape:window-y="0"
     inkscape:window-maximized="1"
     inkscape:current-layer="svg5"
     inkscape:showpageshadow="2"
     inkscape:deskcolor="#d1d1d1" />
  <defs
     id="defs2" />
  <rect
     style="fill:#f8f8f8;stroke-width:0.264583;fill-opacity:1"
     id="rect846"
     width="14.816667"
     height="14.816667"
     x="1.0583335"
     y="1.0583333"
     ry="3.175" />
  <path
     d="M 4.4715623,5.0270834 C 3.9386985,5.0269381 3.439584,5.4481922 3.439584,6.0575115 v 0.9141561 4.9123614 c 0,0.379316 0.3075731,0.685746 0.6857462,0.685746 H 5.7247158 V 8.6852581 L 8.4666669,10.74198 11.208619,8.6852581 v 3.8845169 h 1.599385 c 0.379316,0 0.685747,-0.307572 0.685747,-0.685746 V 6.9716676 6.0575115 c 0,-0.8477481 -0.967865,-1.3311094 -1.645378,-0.8226889 L 11.208619,5.7148968 8.4666669,7.771102 5.7247158,5.7148968 5.0849616,5.2348226 C 4.8940897,5.0918294 4.6800743,5.0271402 4.4715623,5.0270834 Z"
     style="fill:#000000;stroke-width:0.114252;opacity:0.2"
     id="path3474" />
  <path
     d="M 4.1250947,12.305073 H 5.7246213 V 8.4205058 L 3.4395834,6.7067274 v 4.9128336 c 0,0.379316 0.3073377,0.685512 0.6855112,0.685512"
     style="fill:#4285f4;stroke-width:0.114252"
     id="path1327" />
  <path
     d="m 11.208713,12.305073 h 1.599527 c 0.379316,0 0.68551,-0.307338 0.68551,-0.685512 V 6.7067272 l -2.285037,1.7137784"
     style="fill:#34a853;stroke-width:0.114252"
     id="path1383" />
  <path
     d="M 11.208713,5.4499563 V 8.4205056 L 13.49375,6.7067272 V 5.7927118 c 0,-0.8477489 -0.967713,-1.3310345 -1.645227,-0.8226135"
     style="fill:#fbbc04;stroke-width:0.114252"
     id="path1355" />
  <path
     d="M 5.7246213,8.4205056 V 5.4499563 L 8.4666669,7.5064905 11.208713,5.4499563 V 8.4205056 L 8.4666669,10.477041"
     style="fill:#ea4335;stroke-width:0.114252"
     id="path1271" />
  <path
     d="M 3.4395834,5.7927118 V 6.7067272 L 5.7246213,8.4205056 V 5.4499563 L 5.0848107,4.9700983 C 4.4061544,4.4616773 3.4395834,4.9449624 3.4395834,5.7927118"
     style="fill:#c5221f;stroke-width:0.114252"
     id="path1299" />
  <path
     id="rect845"
     style="opacity:0.2;fill:#000000;stroke-width:0.999999"
     d="M 4 47 L 4 48 C 4 54.648 9.3519997 60 16 60 L 48 60 C 54.648 60 60 54.648 60 48 L 60 47 C 60 53.648 54.648 59 48 59 L 16 59 C 9.3519997 59 4 53.648 4 47 z "
     transform="scale(0.26458334)" />
  <path
     id="rect843"
     style="opacity:0.2;fill:#ffffff;stroke-width:0.999999"
     d="M 16 4 C 9.3519997 4 4 9.3519997 4 16 L 4 17 C 4 10.352 9.3519997 5 16 5 L 48 5 C 54.648 5 60 10.352 60 17 L 60 16 C 60 9.3519997 54.648 4 48 4 L 16 4 z "
     transform="scale(0.26458334)" />
</svg>
