<?xml version="1.0" encoding="UTF-8" standalone="no"?>
<!-- Created with Inkscape (http://www.inkscape.org/) -->

<svg
   width="64"
   height="64"
   viewBox="0 0 16.933333 16.933334"
   version="1.1"
   id="svg5"
   inkscape:version="1.1.2 (0a00cf5339, 2022-02-04, custom)"
   sodipodi:docname="gnome-sound-recorder.svg"
   xmlns:inkscape="http://www.inkscape.org/namespaces/inkscape"
   xmlns:sodipodi="http://sodipodi.sourceforge.net/DTD/sodipodi-0.dtd"
   xmlns="http://www.w3.org/2000/svg"
   xmlns:svg="http://www.w3.org/2000/svg">
  <sodipodi:namedview
     id="namedview7"
     pagecolor="#ffffff"
     bordercolor="#666666"
     borderopacity="1.0"
     inkscape:pageshadow="2"
     inkscape:pageopacity="0.0"
     inkscape:pagecheckerboard="0"
     inkscape:document-units="px"
     showgrid="false"
     units="px"
     height="64px"
     inkscape:zoom="12.25"
     inkscape:cx="32"
     inkscape:cy="32"
     inkscape:window-width="1920"
     inkscape:window-height="1011"
     inkscape:window-x="0"
     inkscape:window-y="0"
     inkscape:window-maximized="1"
     inkscape:current-layer="svg5" />
  <defs
     id="defs2" />
  <rect
     style="fill:#4d4d4d;stroke-width:0.264583;fill-opacity:1"
     id="rect846"
     width="14.816667"
     height="14.816667"
     x="1.0583335"
     y="1.0583333"
     ry="3.175" />
  <path
     d="m 5.1593752,3.7041668 c -0.07329,0 -0.1322916,0.059002 -0.1322916,0.1322916 v 9.2604166 c 0,0.176389 0.2645833,0.176389 0.2645833,0 V 3.8364584 c 0,-0.073289 -0.059002,-0.1322916 -0.1322917,-0.1322916 z m 1.0583334,0.5291667 c -0.07329,0 -0.1322917,0.059002 -0.1322917,0.1322916 v 8.2020839 c 0,0.176388 0.2645834,0.176388 0.2645834,0 V 4.3656251 c 0,-0.07329 -0.059002,-0.1322916 -0.1322917,-0.1322916 z M 5.6885419,4.7625001 c -0.07329,0 -0.1322917,0.059002 -0.1322917,0.1322917 v 7.1437502 c 0,0.176389 0.2645834,0.176389 0.2645834,0 V 4.8947918 c 0,-0.07329 -0.059002,-0.1322917 -0.1322917,-0.1322917 z m 1.0583334,0.7937501 c -0.07329,0 -0.1322917,0.059002 -0.1322917,0.1322916 v 5.5562502 c 0,0.176389 0.2645833,0.176389 0.2645833,0 V 5.6885418 c 0,-0.07329 -0.059002,-0.1322916 -0.1322916,-0.1322916 z M 4.1010419,5.8208335 c -0.07329,0 -0.1322917,0.059002 -0.1322917,0.1322917 v 5.0270838 c 0,0.176388 0.2645833,0.176388 0.2645833,0 V 5.9531252 c 0,-0.07329 -0.059002,-0.1322917 -0.1322916,-0.1322917 z m 0.5291666,0.2645833 c -0.073289,0 -0.1322916,0.059002 -0.1322916,0.1322917 v 4.4979165 c 0,0.176389 0.2645833,0.176389 0.2645833,0 V 6.2177085 c 0,-0.07329 -0.059002,-0.1322917 -0.1322917,-0.1322917 z m -1.5875,0.2645834 c -0.07329,0 -0.1322917,0.084667 -0.1322917,0.1891771 v 3.8549797 c 0,0.104775 0.059002,0.189177 0.1322917,0.189177 0.07329,0 0.1322917,-0.08467 0.1322917,-0.189177 V 6.5391773 c 0,-0.104775 -0.059002,-0.1891771 -0.1322917,-0.1891771 z m 0.5291667,1.0583333 c -0.07329,0 -0.1322917,0.059002 -0.1322917,0.1322917 v 1.8520839 c 0,0.1763882 0.2645834,0.1763882 0.2645834,0 V 7.5406252 c 0,-0.07329 -0.059002,-0.1322917 -0.1322917,-0.1322917 z M 7.8052085,7.1437502 c -0.07329,0 -0.1322918,0.059002 -0.1322918,0.1322917 v 2.3812497 c 0,0.1763892 0.2645838,0.1763892 0.2645838,0 V 7.2760419 c 0,-0.07329 -0.059,-0.1322917 -0.132292,-0.1322917 z M 2.5135418,7.4083335 c -0.07329,0 -0.1322916,0.059002 -0.1322916,0.1322917 v 1.8520834 c 0,0.176389 0.2645833,0.176389 0.2645833,0 V 7.5406252 c 0,-0.07329 -0.059002,-0.1322917 -0.1322917,-0.1322917 z M 7.276042,7.6729169 c -0.07329,0 -0.1322917,0.059002 -0.1322917,0.1322916 v 1.3229171 c 0,0.176388 0.2645831,0.176388 0.2645831,0 V 7.8052085 c 0,-0.07329 -0.059002,-0.1322916 -0.1322914,-0.1322916 z M 1.9843752,7.9375002 c -0.07329,0 -0.1322917,0.059002 -0.1322917,0.1322914 v 0.79375 c 0,0.176389 0.2645833,0.176389 0.2645833,0 v -0.79375 c 0,-0.07329 -0.059002,-0.1322914 -0.1322916,-0.1322914 z M 1.4485939,8.2020836 c -0.070467,0.0035 -0.1257654,0.06174 -0.1256771,0.132292 v 0.264583 c 0,0.176389 0.2645834,0.176389 0.2645834,0 v -0.264583 c 0,-0.07329 -0.059002,-0.132292 -0.1322917,-0.132292 z"
     style="fill:#ff8080;stroke-width:0.264583"
     id="path884"
     sodipodi:nodetypes="sssssssssssssssssssssssssssssssssssssssssssssssssssssssssssssssssssssssssccssssc" />
  <path
     d="m 8.3343755,1.8520834 c -0.219188,0 -0.396875,0.177687 -0.396875,0.396875 2.48e-4,0.1679739 0.106216,0.3176005 0.264583,0.3735917 V 14.310784 c -0.158367,0.05599 -0.264335,0.205618 -0.264583,0.373592 0,0.219188 0.177687,0.396875 0.396875,0.396875 0.219188,0 0.396875,-0.177687 0.396875,-0.396875 -2.48e-4,-0.167974 -0.106216,-0.317601 -0.264584,-0.373592 V 2.6225501 c 0.158368,-0.055991 0.264336,-0.2056178 0.264584,-0.3735917 0,-0.219188 -0.177687,-0.396875 -0.396875,-0.396875 z"
     style="fill:#69aeff;stroke-width:0.264583"
     id="path1004" />
  <path
     d="m 8.8635415,6.8791668 c 0.07329,0 0.132292,0.059002 0.132292,0.1322917 v 2.9104173 c 0,0.1763882 -0.264583,0.1763882 -0.264583,0 V 7.0114585 c 0,-0.07329 0.059,-0.1322917 0.132291,-0.1322917 z m 0.529167,0.7937501 c 0.07329,0 0.132292,0.059002 0.132292,0.1322916 v 1.3229171 c 0,0.176388 -0.264584,0.176388 -0.264584,0 V 7.8052085 c 0,-0.07329 0.059,-0.1322916 0.132292,-0.1322916 z M 9.9218752,7.4083335 c 0.07329,0 0.1322918,0.059002 0.1322918,0.1322917 v 1.8520834 c 0,0.176389 -0.2645835,0.176389 -0.2645835,0 V 7.5406252 c 0,-0.07329 0.059,-0.1322917 0.1322917,-0.1322917 z m 0.5291668,0 c 0.07329,0 0.132291,0.059002 0.132291,0.1322917 v 1.8520834 c 0,0.176389 -0.264583,0.176389 -0.264583,0 V 7.5406252 c 0,-0.07329 0.059,-0.1322917 0.132292,-0.1322917 z m 0.529166,0.2645834 c 0.07329,0 0.132292,0.059002 0.132292,0.1322916 v 1.3229171 c 0,0.176388 -0.264583,0.176388 -0.264583,0 V 7.8052085 c 0,-0.07329 0.059,-0.1322916 0.132291,-0.1322916 z m 0.529167,0.2645833 c 0.07329,0 0.132292,0.059002 0.132292,0.1322914 v 0.79375 c 0,0.176389 -0.264584,0.176389 -0.264584,0 v -0.79375 c 0,-0.07329 0.059,-0.1322914 0.132292,-0.1322914 z m 0.529167,0 c 0.07329,0 0.132291,0.059002 0.132291,0.1322914 v 0.79375 c 0,0.176389 -0.264583,0.176389 -0.264583,0 v -0.79375 c 0,-0.07329 0.059,-0.1322914 0.132292,-0.1322914 z m 0.529166,-0.5291667 c 0.07329,0 0.132292,0.059002 0.132292,0.1322917 v 1.8520834 c 0,0.176389 -0.264583,0.176389 -0.264583,0 V 7.5406252 c 0,-0.07329 0.059,-0.1322917 0.132291,-0.1322917 z m 0.529167,0.2645834 c 0.07329,0 0.132292,0.059002 0.132292,0.1322916 v 1.3229171 c 0,0.176388 -0.264584,0.176388 -0.264584,0 V 7.8052085 c 0,-0.07329 0.059,-0.1322916 0.132292,-0.1322916 z m 0.529167,-0.5291667 c 0.07329,0 0.132291,0.059002 0.132291,0.1322917 v 2.3812497 c 0,0.1763892 -0.264583,0.1763892 -0.264583,0 V 7.2760419 c 0,-0.07329 0.059,-0.1322917 0.132292,-0.1322917 z m 0.529166,0.79375 c 0.07329,0 0.132292,0.059002 0.132292,0.1322914 v 0.79375 c 0,0.176389 -0.264583,0.176389 -0.264583,0 v -0.79375 c 0,-0.07329 0.059,-0.1322914 0.132291,-0.1322914 z m 0.529167,0.2645834 c 0.07329,0 0.132292,0.059 0.132292,0.132292 v 0.264583 c 0,0.176389 -0.264584,0.176389 -0.264584,0 v -0.264583 c 0,-0.07329 0.059,-0.132292 0.132292,-0.132292 z m 0.529167,0 c 0.07329,0 0.132291,0.059 0.132291,0.132292 v 0.264583 c 0,0.176389 -0.264583,0.176389 -0.264583,0 v -0.264583 c 0,-0.07329 0.059,-0.132292 0.132292,-0.132292 z"
     id="path1124"
     style="fill:#ffffff;stroke-width:0.264583" />
  <path
     id="rect845"
     style="opacity:0.2;fill:#000000;stroke-width:0.999999"
     d="M 4 47 L 4 48 C 4 54.648 9.3519997 60 16 60 L 48 60 C 54.648 60 60 54.648 60 48 L 60 47 C 60 53.648 54.648 59 48 59 L 16 59 C 9.3519997 59 4 53.648 4 47 z "
     transform="scale(0.26458334)" />
  <path
     id="rect843"
     style="opacity:0.2;fill:#ffffff;stroke-width:0.999999"
     d="M 16 4 C 9.3519997 4 4 9.3519997 4 16 L 4 17 C 4 10.352 9.3519997 5 16 5 L 48 5 C 54.648 5 60 10.352 60 17 L 60 16 C 60 9.3519997 54.648 4 48 4 L 16 4 z "
     transform="scale(0.26458334)" />
</svg>
