<?xml version="1.0" encoding="UTF-8" standalone="no"?>
<!-- Created with Inkscape (http://www.inkscape.org/) -->

<svg
   width="64"
   height="64"
   viewBox="0 0 16.933333 16.933334"
   version="1.1"
   id="svg5"
   inkscape:version="1.2 (dc2aedaf03, 2022-05-15)"
   sodipodi:docname="gnome-boxes.svg"
   xmlns:inkscape="http://www.inkscape.org/namespaces/inkscape"
   xmlns:sodipodi="http://sodipodi.sourceforge.net/DTD/sodipodi-0.dtd"
   xmlns="http://www.w3.org/2000/svg"
   xmlns:svg="http://www.w3.org/2000/svg">
  <sodipodi:namedview
     id="namedview7"
     pagecolor="#ffffff"
     bordercolor="#666666"
     borderopacity="1.0"
     inkscape:pageshadow="2"
     inkscape:pageopacity="0.0"
     inkscape:pagecheckerboard="0"
     inkscape:document-units="px"
     showgrid="false"
     units="px"
     height="64px"
     inkscape:zoom="6.125"
     inkscape:cx="-15.020408"
     inkscape:cy="25.061224"
     inkscape:window-width="1920"
     inkscape:window-height="1011"
     inkscape:window-x="0"
     inkscape:window-y="0"
     inkscape:window-maximized="1"
     inkscape:current-layer="svg5"
     inkscape:showpageshadow="2"
     inkscape:deskcolor="#d1d1d1" />
  <defs
     id="defs2" />
  <rect
     style="fill:#4d4d4d;stroke-width:0.264583;fill-opacity:1"
     id="rect846"
     width="14.816667"
     height="14.816667"
     x="1.0583335"
     y="1.0583333"
     ry="3.175" />
  <path
     d="m 4.4738647,3.4395834 c -0.7173426,-1e-7 -1.2988638,0.5815211 -1.2988637,1.2988638 5.54e-5,0.5503884 0.346998,1.0409871 0.8659092,1.2244499 v 5.5367049 c -0.5189113,0.183463 -0.8658539,0.674062 -0.8659092,1.22445 -2e-7,0.717343 0.581521,1.298864 1.2988637,1.298864 0.550389,-5.5e-5 1.040987,-0.346998 1.22445,-0.865909 h 5.5367073 c 0.183463,0.518911 0.674061,0.865854 1.224449,0.865909 0.717343,0 1.298863,-0.581521 1.298863,-1.298864 -5.5e-5,-0.550388 -0.346997,-1.040986 -0.865908,-1.22445 V 5.9628971 c 0.518911,-0.1834632 0.865853,-0.6740618 0.865908,-1.2244499 0,-0.7173424 -0.58152,-1.2988634 -1.298863,-1.2988638 -0.550078,4.132e-4 -1.040245,0.3472902 -1.223605,0.8659092 H 5.6983147 C 5.5148517,3.7865814 5.0242537,3.4396388 4.4738647,3.4395834 Z m 1.22445,1.7318185 h 5.5367073 c 0.04014,0.1137253 0.09592,0.2213062 0.165741,0.3196423 l -1.138856,1.1388546 c -0.0874,-0.041749 -0.183038,-0.063418 -0.2798993,-0.063421 -0.274884,3.863e-4 -0.51975,0.1737918 -0.611378,0.4329546 h -1.806232 c -0.09183,-0.2597483 -0.337566,-0.4332858 -0.613071,-0.4329547 -0.09664,3.927e-4 -0.191975,0.022349 -0.279052,0.064267 L 5.5325737,5.4910442 c 0.06982,-0.098336 0.125601,-0.205917 0.165741,-0.3196423 z m -0.472699,0.6266004 1.139701,1.1397002 c -0.0415,0.086887 -0.06317,0.1819164 -0.06342,0.2782071 2.7e-5,0.2751942 0.173499,0.5204934 0.432954,0.6122248 v 1.8062318 c -0.259456,0.09173 -0.432927,0.33703 -0.432955,0.6122248 1.41e-4,0.09721 0.0221,0.193152 0.06427,0.280744 l -1.138854,1.138854 c -0.09855,-0.07018 -0.206422,-0.126255 -0.320488,-0.166587 V 5.9628971 c 0.113384,-0.039947 0.220674,-0.095442 0.318796,-0.1648948 z m 6.4821043,0 c 0.09812,0.069453 0.205412,0.1249477 0.318796,0.1648948 v 5.5367049 c -0.114066,0.04033 -0.221938,0.0964 -0.320488,0.166587 l -1.138854,-1.138854 c 0.04217,-0.08759 0.06413,-0.183532 0.06427,-0.280744 -2.9e-5,-0.2751948 -0.1735,-0.5204938 -0.432955,-0.6122248 V 7.8281344 c 0.259455,-0.091732 0.432925,-0.3370311 0.432953,-0.6122248 -2.55e-4,-0.096291 -0.02192,-0.1913201 -0.06342,-0.2782071 z M 7.5643977,7.432387 h 1.805386 c 0.06539,0.184906 0.210842,0.3303569 0.395748,0.3957474 v 1.8062318 c -0.184584,0.0656 -0.329692,0.211024 -0.394902,0.3957478 H 7.5643977 C 7.4988277,9.8450252 7.3530337,9.6995422 7.1678047,9.6343662 V 7.8281344 c 0.185228,-0.065176 0.331022,-0.2106589 0.396593,-0.3957474 z m 0,3.030681 h 1.805386 c 0.09173,0.259455 0.33703,0.432926 0.612224,0.432954 0.09686,10e-7 0.1924953,-0.02166 0.2798993,-0.06341 l 1.1397,1.138854 c -0.06982,0.09833 -0.125601,0.205914 -0.165741,0.319638 H 5.6983147 c -0.04014,-0.113727 -0.09592,-0.221311 -0.165741,-0.319649 l 1.138855,-1.138854 c 0.0874,0.04175 0.183037,0.06342 0.279898,0.06342 0.275505,3.31e-4 0.521237,-0.173207 0.613071,-0.432956 z"
     style="fill:#000000;fill-opacity:1;stroke-width:0.432954;opacity:0.2"
     id="path1871" />
  <path
     id="rect874"
     style="fill:#ffffff;fill-opacity:1;stroke-width:0.432954"
     d="m 4.4738642,3.1750002 c -0.7173427,-10e-8 -1.2988639,0.5815211 -1.2988638,1.2988638 5.54e-5,0.5503884 0.346998,1.040987 0.8659092,1.2244498 v 5.5367052 c -0.5189113,0.183463 -0.8658539,0.674062 -0.8659092,1.22445 -2e-7,0.717343 0.581521,1.298864 1.2988638,1.298864 0.5503884,-5.5e-5 1.040987,-0.346998 1.2244498,-0.865909 h 5.536707 c 0.183463,0.518911 0.674061,0.865854 1.224449,0.865909 0.717343,0 1.298863,-0.581521 1.298863,-1.298864 -5.5e-5,-0.550388 -0.346997,-1.040986 -0.865908,-1.22445 V 5.6983138 c 0.518911,-0.1834632 0.865853,-0.6740617 0.865908,-1.2244498 0,-0.7173424 -0.58152,-1.2988634 -1.298863,-1.2988638 -0.550078,4.132e-4 -1.040245,0.3472902 -1.223605,0.8659092 H 5.698314 C 5.5148512,3.5219982 5.0242526,3.1750556 4.4738642,3.1750002 Z M 5.698314,4.9068187 h 5.536707 c 0.04014,0.1137253 0.09592,0.2213061 0.165741,0.3196422 l -1.138856,1.1388546 c -0.0874,-0.041749 -0.183038,-0.063418 -0.2798987,-0.063421 -0.274884,3.863e-4 -0.51975,0.1737918 -0.6113776,0.4329546 H 7.5643975 C 7.4725629,6.4751008 7.2268313,6.3015633 6.9513265,6.3018944 6.8546859,6.3022871 6.7593511,6.3242432 6.6722741,6.3661615 L 5.5325732,5.2264609 C 5.6023918,5.1281248 5.6581746,5.020544 5.698314,4.9068187 Z M 5.2256154,5.533419 6.3653157,6.6731192 c -0.041504,0.086887 -0.063167,0.1819164 -0.063421,0.2782071 2.77e-5,0.2751942 0.1734991,0.5204934 0.4329548,0.6122248 V 9.369783 c -0.259456,0.09173 -0.4329274,0.33703 -0.432955,0.612225 1.404e-4,0.09721 0.022103,0.193152 0.064267,0.280744 L 5.2273068,11.401606 C 5.1287575,11.331422 5.0208855,11.275351 4.9068189,11.235019 V 5.6983138 C 5.0202032,5.6583667 5.1274928,5.6028721 5.2256154,5.533419 Z m 6.4821036,0 c 0.09812,0.069453 0.205412,0.1249477 0.318796,0.1648948 v 5.5367052 c -0.114066,0.04033 -0.221938,0.0964 -0.320488,0.166587 l -1.138854,-1.138854 c 0.04217,-0.08759 0.06413,-0.183532 0.06427,-0.280744 -2.9e-5,-0.275195 -0.1735,-0.520494 -0.432955,-0.612225 V 7.5635511 C 10.457943,7.4718191 10.631413,7.22652 10.631441,6.9513263 10.631186,6.8550353 10.609521,6.7600062 10.568021,6.6731192 Z M 7.5643975,7.1678037 h 1.8053862 c 0.065391,0.184906 0.2108416,0.3303569 0.3957476,0.3957474 V 9.369783 C 9.5809473,9.435383 9.4358392,9.580807 9.3706297,9.765531 H 7.5643975 C 7.4988266,9.580442 7.3530327,9.434959 7.1678043,9.369783 V 7.5635511 C 7.3530324,7.4983752 7.4988263,7.3528922 7.5643975,7.1678037 Z m 0,3.0306813 h 1.8053862 c 0.091731,0.259455 0.3370296,0.432926 0.6122236,0.432954 0.09686,10e-7 0.1924947,-0.02166 0.2798987,-0.06341 l 1.1397,1.138854 c -0.06982,0.09833 -0.125601,0.205914 -0.165741,0.319638 H 5.698314 C 5.6581751,11.912794 5.6023924,11.80521 5.5325732,11.706872 l 1.1388549,-1.138854 c 0.087402,0.04175 0.1830369,0.06342 0.2798984,0.06342 0.275505,3.31e-4 0.5212367,-0.173207 0.613071,-0.432956 z"
     sodipodi:nodetypes="ccccccccccccccccccccccccccccccccccccccccccccccccccccccccccccccccccccccc" />
  <path
     id="rect845"
     style="opacity:0.2;fill:#000000;stroke-width:0.999999"
     d="M 4 47 L 4 48 C 4 54.648 9.3519997 60 16 60 L 48 60 C 54.648 60 60 54.648 60 48 L 60 47 C 60 53.648 54.648 59 48 59 L 16 59 C 9.3519997 59 4 53.648 4 47 z "
     transform="scale(0.26458334)" />
  <path
     id="rect843"
     style="opacity:0.2;fill:#ffffff;stroke-width:0.999999"
     d="M 16 4 C 9.3519997 4 4 9.3519997 4 16 L 4 17 C 4 10.352 9.3519997 5 16 5 L 48 5 C 54.648 5 60 10.352 60 17 L 60 16 C 60 9.3519997 54.648 4 48 4 L 16 4 z "
     transform="scale(0.26458334)" />
</svg>
