<?xml version="1.0" encoding="UTF-8" standalone="no"?>
<!-- Created with Inkscape (http://www.inkscape.org/) -->

<svg
   width="64"
   height="64"
   viewBox="0 0 16.933333 16.933334"
   version="1.1"
   id="svg5"
   inkscape:version="1.2 (dc2aedaf03, 2022-05-15)"
   sodipodi:docname="google-chrome-beta.svg"
   xmlns:inkscape="http://www.inkscape.org/namespaces/inkscape"
   xmlns:sodipodi="http://sodipodi.sourceforge.net/DTD/sodipodi-0.dtd"
   xmlns="http://www.w3.org/2000/svg"
   xmlns:svg="http://www.w3.org/2000/svg">
  <sodipodi:namedview
     id="namedview7"
     pagecolor="#ffffff"
     bordercolor="#666666"
     borderopacity="1.0"
     inkscape:pageshadow="2"
     inkscape:pageopacity="0.0"
     inkscape:pagecheckerboard="0"
     inkscape:document-units="px"
     showgrid="false"
     units="px"
     height="64px"
     inkscape:zoom="13.53125"
     inkscape:cx="29.967667"
     inkscape:cy="32"
     inkscape:window-width="1920"
     inkscape:window-height="1024"
     inkscape:window-x="0"
     inkscape:window-y="32"
     inkscape:window-maximized="1"
     inkscape:current-layer="svg5"
     inkscape:showpageshadow="2"
     inkscape:deskcolor="#d1d1d1" />
  <defs
     id="defs2" />
  <rect
     style="fill:#f8f8f8;stroke-width:0.264583;fill-opacity:1"
     id="rect846"
     width="14.816667"
     height="14.816667"
     x="1.0583335"
     y="1.0583333"
     ry="3.175" />
  <ellipse
     style="opacity:0.2;fill:#000000;fill-opacity:1;stroke-width:0.264583"
     id="path8534"
     cx="8.4666672"
     cy="8.7312498"
     rx="5.8208332"
     ry="5.8208337" />
  <circle
     style="fill:#df362a;fill-opacity:0.996078;stroke-width:0.242534"
     id="path354"
     cx="8.4666672"
     cy="8.4666662"
     r="5.8208332" />
  <path
     id="rect6234"
     style="fill:#229141;stroke-width:0.242534"
     d="M 3.4494019 5.5562501 C 3.4274441 5.5935858 3.3911998 5.6442739 3.3491496 5.7009441 A 5.8208332 5.8208332 0 0 0 2.6458334 8.4666667 A 5.8208332 5.8208332 0 0 0 8.4666667 14.2875 L 10.891842 12.929443 L 10.900627 10.054167 L 5.9531251 9.9590821 L 3.4494019 5.5562501 z " />
  <path
     id="rect2054"
     style="fill:#fbbd0c;fill-opacity:1;stroke-width:0.242534"
     d="M 8.4666667 5.5562501 L 10.900627 10.054167 L 8.4666667 14.2875 A 5.8208332 5.8208332 0 0 0 14.2875 8.4666667 A 5.8208332 5.8208332 0 0 0 13.507186 5.5562501 L 8.4666667 5.5562501 z " />
  <circle
     style="fill:#ffffff;stroke-width:0.242534"
     id="path911"
     cx="8.4666672"
     cy="8.4666662"
     r="2.9104166" />
  <circle
     style="fill:#1a73e8;fill-opacity:1;stroke-width:0.198437"
     id="path1724"
     cx="8.4666672"
     cy="8.4666672"
     r="2.3812499" />
  <path
     id="path1272"
     style="fill:#414242;stroke-width:0.264583;fill-opacity:1"
     d="M 2.8701091 10.054167 A 5.8208332 5.8208337 0 0 0 8.4666667 14.2875 A 5.8208332 5.8208337 0 0 0 14.063224 10.054167 L 2.8701091 10.054167 z " />
  <path
     id="path59350"
     style="font-size:33.394px;line-height:1.25;font-family:'Google Sans';-inkscape-font-specification:'Google Sans';fill:#ffffff;stroke-width:0.0555252"
     d="m 6.3500001,10.847917 v 1.590215 h 0.6020457 c 0.084399,0 0.1630585,-0.0193 0.2356111,-0.05779 0.074034,-0.0385 0.1323397,-0.09129 0.1752791,-0.159403 0.04442,-0.06959 0.066682,-0.147827 0.066682,-0.233705 0,-0.08736 -0.025229,-0.163477 -0.075572,-0.228626 -0.050343,-0.06515 -0.1156451,-0.111158 -0.1956015,-0.13781 v -0.0088 c 0.06663,-0.03109 0.1190001,-0.07562 0.1574972,-0.133364 0.039978,-0.05775 0.060331,-0.124958 0.060331,-0.201953 0,-0.08144 -0.020777,-0.154585 -0.062237,-0.219734 -0.041459,-0.06515 -0.097857,-0.116035 -0.1689288,-0.153053 -0.069591,-0.03702 -0.144223,-0.05589 -0.2241795,-0.05589 z m 2.645065,0.137811 v 0.320075 H 8.7975584 v 0.170833 h 0.1975067 v 0.664282 c 0,0.0533 0.00742,0.09825 0.022228,0.135271 0.014808,0.03702 0.037069,0.06967 0.066682,0.0978 0.026653,0.02517 0.059303,0.0449 0.097801,0.05969 0.039978,0.01481 0.083018,0.02223 0.1289191,0.02223 0.03554,0 0.06416,-0.0019 0.08637,-0.0063 0.02369,-0.0044 0.04701,-0.01186 0.06922,-0.02223 v -0.18417 c -0.03998,0.02517 -0.08153,0.03747 -0.124473,0.03747 -0.0533,0 -0.0938,-0.01633 -0.1219332,-0.0489 -0.023691,-0.02961 -0.035564,-0.07562 -0.035564,-0.13781 v -0.61729 h 0.2749872 v -0.170833 h -0.274985 v -0.320075 z m -2.4583545,0.04255 h 0.393108 c 0.051824,0 0.096772,0.0123 0.1352699,0.03747 0.039978,0.02517 0.07072,0.05782 0.09145,0.0978 0.022212,0.0385 0.033023,0.07751 0.033023,0.117488 0,0.04145 -0.010817,0.08259 -0.033023,0.122568 -0.022212,0.0385 -0.054437,0.07009 -0.095896,0.09526 -0.039978,0.02517 -0.086411,0.03747 -0.1397155,0.03747 H 6.5367098 Z m 1.6099015,0.241962 c -0.1095689,0 -0.205404,0.02714 -0.2883216,0.08192 -0.082918,0.05478 -0.1471603,0.127933 -0.1930612,0.219734 -0.04442,0.0918 -0.066682,0.192724 -0.066682,0.302294 0,0.114012 0.023747,0.216841 0.071128,0.308643 0.048862,0.09032 0.1160727,0.16156 0.2019522,0.213384 0.085878,0.05182 0.1827729,0.07748 0.2908617,0.07748 0.1184535,0 0.2193757,-0.02671 0.302293,-0.08002 0.084399,-0.0533 0.15055,-0.125393 0.1994121,-0.217194 l -0.1600377,-0.07811 c -0.078476,0.136221 -0.1902111,0.204493 -0.3353167,0.204493 -0.062188,0 -0.1219789,-0.01484 -0.1797246,-0.04445 -0.056266,-0.02961 -0.1026993,-0.07414 -0.1397155,-0.133365 -0.037017,-0.05923 -0.057794,-0.13195 -0.062237,-0.217829 h 0.8948134 c 0.00445,-0.01629 0.00699,-0.03558 0.00699,-0.05779 0,-0.11253 -0.022264,-0.212393 -0.066682,-0.299752 -0.04294,-0.08736 -0.105273,-0.154996 -0.1867105,-0.203858 -0.081437,-0.05035 -0.1779063,-0.07558 -0.2889564,-0.07558 z m 1.9414069,0 c -0.09476,0 -0.1812678,0.0193 -0.2597428,0.05779 -0.07699,0.0385 -0.137844,0.09129 -0.182265,0.159401 l 0.142256,0.106689 c 0.03109,-0.04887 0.07308,-0.08639 0.126379,-0.113042 0.0533,-0.02813 0.1122448,-0.04255 0.1759138,-0.04255 0.09032,0 0.164953,0.02629 0.224179,0.07811 0.05923,0.05035 0.08892,0.117554 0.08892,0.201952 v 0.06923 c -0.03109,-0.01925 -0.07668,-0.03663 -0.135905,-0.05144 -0.05775,-0.01481 -0.120506,-0.02223 -0.188616,-0.02223 -0.1377018,0 -0.2519808,0.03413 -0.3423028,0.102243 -0.09032,0.06663 -0.13527,0.160131 -0.13527,0.280066 0,0.07256 0.01781,0.137219 0.05334,0.194966 0.03554,0.05626 0.086,0.100794 0.151147,0.133364 0.06514,0.03257 0.139356,0.0489 0.2222738,0.0489 0.08144,0 0.154585,-0.0193 0.219734,-0.05779 0.06515,-0.0385 0.114127,-0.08493 0.146701,-0.139715 h 0.0088 v 0.161942 h 0.179725 v -0.716988 c 0,-0.139183 -0.04453,-0.24901 -0.133364,-0.328966 -0.08736,-0.08144 -0.208,-0.121933 -0.36199,-0.121933 z m -1.9433123,0.170833 c 0.076995,0 0.1408135,0.01633 0.191156,0.0489 0.051824,0.03257 0.089352,0.07264 0.1130423,0.120028 0.023691,0.04738 0.037048,0.09488 0.04001,0.142255 H 7.7979588 c 0.01925,-0.09328 0.05932,-0.168549 0.1200282,-0.224814 0.062188,-0.05775 0.1378797,-0.08637 0.2267197,-0.08637 z m -1.6079961,0.273079 h 0.4172407 c 0.056266,0 0.1063017,0.01336 0.1492413,0.04001 0.04294,0.02517 0.076016,0.05931 0.099706,0.102243 0.02369,0.04145 0.035564,0.0845 0.035564,0.128918 0,0.04442 -0.011874,0.08789 -0.035564,0.130825 -0.022212,0.04145 -0.054861,0.0756 -0.097801,0.102243 -0.041459,0.02666 -0.088952,0.04001 -0.1422556,0.04001 H 6.5367109 Z m 3.5709964,0.153052 c 0.05775,0 0.112659,0.0074 0.164482,0.02223 0.05183,0.01481 0.09593,0.0341 0.13146,0.05779 0,0.06515 -0.01633,0.125575 -0.0489,0.18036 -0.03257,0.05478 -0.07667,0.09825 -0.13146,0.130825 -0.05478,0.03257 -0.113515,0.0489 -0.177184,0.0489 -0.07256,0 -0.1329778,-0.0193 -0.1803598,-0.05779 -0.04738,-0.0385 -0.07113,-0.08896 -0.07113,-0.151146 0,-0.06811 0.02629,-0.12345 0.07811,-0.166388 0.0533,-0.04294 0.1313288,-0.06478 0.2349758,-0.06478 z" />
  <path
     id="rect845"
     style="opacity:0.2;fill:#000000;stroke-width:0.999999"
     d="M 4 47 L 4 48 C 4 54.648 9.3519997 60 16 60 L 48 60 C 54.648 60 60 54.648 60 48 L 60 47 C 60 53.648 54.648 59 48 59 L 16 59 C 9.3519997 59 4 53.648 4 47 z "
     transform="scale(0.26458334)" />
  <path
     id="rect843"
     style="opacity:0.2;fill:#ffffff;stroke-width:0.999999"
     d="M 16 4 C 9.3519997 4 4 9.3519997 4 16 L 4 17 C 4 10.352 9.3519997 5 16 5 L 48 5 C 54.648 5 60 10.352 60 17 L 60 16 C 60 9.3519997 54.648 4 48 4 L 16 4 z "
     transform="scale(0.26458334)" />
</svg>
