<?xml version="1.0" encoding="UTF-8" standalone="no"?>
<!-- Created with Inkscape (http://www.inkscape.org/) -->

<svg
   width="64"
   height="64"
   viewBox="0 0 16.933333 16.933334"
   version="1.1"
   id="svg5"
   inkscape:version="1.2 (dc2aedaf03, 2022-05-15)"
   sodipodi:docname="google-sheets.svg"
   xmlns:inkscape="http://www.inkscape.org/namespaces/inkscape"
   xmlns:sodipodi="http://sodipodi.sourceforge.net/DTD/sodipodi-0.dtd"
   xmlns="http://www.w3.org/2000/svg"
   xmlns:svg="http://www.w3.org/2000/svg">
  <sodipodi:namedview
     id="namedview7"
     pagecolor="#ffffff"
     bordercolor="#666666"
     borderopacity="1.0"
     inkscape:pageshadow="2"
     inkscape:pageopacity="0.0"
     inkscape:pagecheckerboard="0"
     inkscape:document-units="px"
     showgrid="false"
     units="px"
     height="64px"
     inkscape:zoom="12.34375"
     inkscape:cx="32.040506"
     inkscape:cy="32"
     inkscape:window-width="1920"
     inkscape:window-height="1011"
     inkscape:window-x="0"
     inkscape:window-y="0"
     inkscape:window-maximized="1"
     inkscape:current-layer="svg5"
     inkscape:showpageshadow="2"
     inkscape:deskcolor="#d1d1d1" />
  <defs
     id="defs2" />
  <rect
     style="fill:#f8f8f8;stroke-width:0.264583;fill-opacity:1"
     id="rect846"
     width="14.816667"
     height="14.816667"
     x="1.0583335"
     y="1.0583333"
     ry="3.175" />
  <path
     id="rect1150"
     style="fill:#0dc54c;fill-opacity:1;stroke-width:0.273089"
     d="m 5.3504631,3.175 h 4.1745371 l 2.6458338,2.6458332 v 7.3495358 c 0,0.325732 -0.262231,0.587964 -0.587962,0.587964 H 5.3504631 c -0.3257315,0 -0.587963,-0.262232 -0.587963,-0.587964 V 3.7629622 C 4.7625001,3.4372311 5.0247316,3.175 5.3504631,3.175 Z"
     sodipodi:nodetypes="sccssssss" />
  <path
     id="rect10694"
     style="fill:#08962d;fill-opacity:1;stroke-width:0.587963"
     d="M 9.5249999,3.175 12.170834,5.8208332 H 9.5249999 Z"
     sodipodi:nodetypes="cccc" />
  <path
     id="rect20359"
     style="fill:#fdffff;stroke-width:0.545396"
     d="M 6.0854168,7.4083333 V 7.9375 8.7312499 9.2604166 10.054166 10.583333 H 10.31875 10.847918 V 10.054166 9.2604166 8.7312499 7.9375 7.4083333 H 10.31875 Z M 6.6145834,7.9375 h 1.5875 v 0.7937499 h -1.5875 z m 2.1166667,0 H 10.31875 V 8.7312499 H 8.7312501 Z M 6.6145834,9.2604166 h 1.5875 v 0.7937494 h -1.5875 z m 2.1166667,0 H 10.31875 V 10.054166 H 8.7312501 Z" />
  <path
     id="rect845"
     style="opacity:0.2;fill:#000000;stroke-width:0.999999"
     d="M 4 47 L 4 48 C 4 54.648 9.3519997 60 16 60 L 48 60 C 54.648 60 60 54.648 60 48 L 60 47 C 60 53.648 54.648 59 48 59 L 16 59 C 9.3519997 59 4 53.648 4 47 z "
     transform="scale(0.26458334)" />
  <path
     id="rect843"
     style="opacity:0.2;fill:#ffffff;stroke-width:0.999999"
     d="M 16 4 C 9.3519997 4 4 9.3519997 4 16 L 4 17 C 4 10.352 9.3519997 5 16 5 L 48 5 C 54.648 5 60 10.352 60 17 L 60 16 C 60 9.3519997 54.648 4 48 4 L 16 4 z "
     transform="scale(0.26458334)" />
</svg>
