<?xml version="1.0" encoding="UTF-8" standalone="no"?>
<!-- Created with Inkscape (http://www.inkscape.org/) -->

<svg
   width="64"
   height="64"
   viewBox="0 0 16.933333 16.933334"
   version="1.1"
   id="svg5"
   inkscape:version="1.2 (dc2aedaf03, 2022-05-15)"
   sodipodi:docname="help.svg"
   xmlns:inkscape="http://www.inkscape.org/namespaces/inkscape"
   xmlns:sodipodi="http://sodipodi.sourceforge.net/DTD/sodipodi-0.dtd"
   xmlns="http://www.w3.org/2000/svg"
   xmlns:svg="http://www.w3.org/2000/svg">
  <sodipodi:namedview
     id="namedview7"
     pagecolor="#ffffff"
     bordercolor="#666666"
     borderopacity="1.0"
     inkscape:pageshadow="2"
     inkscape:pageopacity="0.0"
     inkscape:pagecheckerboard="0"
     inkscape:document-units="px"
     showgrid="false"
     units="px"
     height="64px"
     inkscape:zoom="12.25"
     inkscape:cx="27.346939"
     inkscape:cy="32"
     inkscape:window-width="1920"
     inkscape:window-height="1011"
     inkscape:window-x="0"
     inkscape:window-y="0"
     inkscape:window-maximized="1"
     inkscape:current-layer="svg5"
     inkscape:showpageshadow="2"
     inkscape:deskcolor="#d1d1d1" />
  <defs
     id="defs2" />
  <rect
     style="fill:#55ce9f;stroke-width:0.264583;fill-opacity:1"
     id="rect846"
     width="14.816667"
     height="14.816667"
     x="1.0583335"
     y="1.0583333"
     ry="3.175" />
  <circle
     style="opacity:0.2;fill:#ffffff;fill-opacity:1;stroke-width:0.264583"
     id="path1074"
     cx="8.4666672"
     cy="8.4666672"
     r="5.8208332" />
  <path
     id="path849"
     style="fill:#ffffff;fill-opacity:1;stroke-width:2.38125;stroke-linecap:round;stroke-linejoin:round"
     d="M 8.4666667,3.4395834 A 5.0270835,5.0270835 0 0 0 3.4395834,8.4666667 5.0270835,5.0270835 0 0 0 8.4666667,13.49375 5.0270835,5.0270835 0 0 0 13.493749,8.4666667 5.0270835,5.0270835 0 0 0 8.4666667,3.4395834 Z m 0,0.5291667 a 4.4979166,4.4979166 0 0 1 2.1037473,0.5234823 l -1.4185178,1.418518 c 0.00619,0.00167 0.011525,0.00392 0.017571,0.00568 A 2.6458333,2.6458333 0 0 0 8.4666667,5.8208304 2.6458333,2.6458333 0 0 0 7.7452638,5.922633 c 0.01211,-0.00391 0.023696,-0.00855 0.036173,-0.011885 L 6.3660197,4.4953333 a 4.4979166,4.4979166 0 0 1 2.100647,-0.5265832 z m 0,2.3812499 A 2.1166666,2.1166666 0 0 1 10.583333,8.4666667 2.1166666,2.1166666 0 0 1 8.4666667,10.583334 2.1166666,2.1166666 0 0 1 6.35,8.4666667 2.1166666,2.1166666 0 0 1 8.4666667,6.35 Z M 12.4411,6.36292 A 4.4979166,4.4979166 0 0 1 12.964583,8.4666671 4.4979166,4.4979166 0 0 1 12.438,10.567314 L 11.022582,9.1518958 c -0.0031,0.01177 -0.0075,0.02309 -0.01137,0.03462 a 2.6458333,2.6458333 0 0 0 0.101287,-0.7198491 2.6458333,2.6458333 0 0 0 -0.09508,-0.7002156 c 0.0015,0.00509 0.0038,0.00984 0.0052,0.014986 z m -7.9457672,0.0031 1.4154176,1.4154174 c 0.00369,-0.013803 0.00818,-0.026512 0.012401,-0.039791 a 2.6458333,2.6458333 0 0 0 -0.102318,0.7250203 2.6458333,2.6458333 0 0 0 0.1033528,0.7286371 c -0.00446,-0.01451 -0.00947,-0.02857 -0.013435,-0.04341 L 4.4953331,10.567314 A 4.4979166,4.4979166 0 0 1 3.9687501,8.4666667 4.4979166,4.4979166 0 0 1 4.4953328,6.36602 Z m 1.4417725,2.8701098 a 2.6458333,2.6458333 0 0 0 0.013952,0.03824 c -0.00485,-0.01266 -0.00949,-0.02533 -0.013952,-0.03824 z m 3.3377809,1.7456292 c -0.012986,0.005 -0.025797,0.01036 -0.039274,0.01499 a 2.6458333,2.6458333 0 0 0 0.039274,-0.01499 z m -0.079582,0.02739 c -0.014552,0.0045 -0.028274,0.0094 -0.043408,0.01344 l 1.4154178,1.415417 a 4.4979166,4.4979166 0 0 1 -2.1006473,0.526582 4.4979166,4.4979166 0 0 1 -2.100647,-0.526582 l 1.4154174,-1.415418 c -0.014404,-0.0039 -0.027989,-0.0084 -0.041858,-0.01292 a 2.6458333,2.6458333 0 0 0 0.7270875,0.102837 2.6458333,2.6458333 0 0 0 0.7286376,-0.103353 z" />
  <path
     id="rect845"
     style="opacity:0.2;fill:#000000;stroke-width:0.999999"
     d="M 4 47 L 4 48 C 4 54.648 9.3519997 60 16 60 L 48 60 C 54.648 60 60 54.648 60 48 L 60 47 C 60 53.648 54.648 59 48 59 L 16 59 C 9.3519997 59 4 53.648 4 47 z "
     transform="scale(0.26458334)" />
  <path
     id="rect843"
     style="opacity:0.2;fill:#ffffff;stroke-width:0.999999"
     d="M 16 4 C 9.3519997 4 4 9.3519997 4 16 L 4 17 C 4 10.352 9.3519997 5 16 5 L 48 5 C 54.648 5 60 10.352 60 17 L 60 16 C 60 9.3519997 54.648 4 48 4 L 16 4 z "
     transform="scale(0.26458334)" />
</svg>
