<?xml version="1.0" encoding="UTF-8" standalone="no"?>
<!-- Created with Inkscape (http://www.inkscape.org/) -->

<svg
   width="64"
   height="64"
   viewBox="0 0 16.933333 16.933334"
   version="1.1"
   id="svg5"
   inkscape:version="1.1.2 (0a00cf5339, 2022-02-04, custom)"
   sodipodi:docname="internet-web-browser.svg"
   xmlns:inkscape="http://www.inkscape.org/namespaces/inkscape"
   xmlns:sodipodi="http://sodipodi.sourceforge.net/DTD/sodipodi-0.dtd"
   xmlns="http://www.w3.org/2000/svg"
   xmlns:svg="http://www.w3.org/2000/svg">
  <sodipodi:namedview
     id="namedview7"
     pagecolor="#ffffff"
     bordercolor="#666666"
     borderopacity="1.0"
     inkscape:pageshadow="2"
     inkscape:pageopacity="0.0"
     inkscape:pagecheckerboard="0"
     inkscape:document-units="px"
     showgrid="false"
     units="px"
     height="64px"
     inkscape:zoom="12.25"
     inkscape:cx="32"
     inkscape:cy="32"
     inkscape:window-width="1920"
     inkscape:window-height="1011"
     inkscape:window-x="0"
     inkscape:window-y="0"
     inkscape:window-maximized="1"
     inkscape:current-layer="svg5" />
  <defs
     id="defs2" />
  <rect
     style="fill:#f5f5f5;stroke-width:0.264583;fill-opacity:1"
     id="rect846"
     width="14.816667"
     height="14.816667"
     x="1.0583335"
     y="1.0583333"
     ry="3.175" />
  <circle
     style="fill:#02b3ff;fill-opacity:1;stroke-width:4.4354;stroke-linejoin:round"
     id="path1149"
     cx="8.4666672"
     cy="8.4666672"
     r="6.3499999" />
  <path
     id="rect2045"
     style="opacity:1;fill:#ffffff;fill-opacity:1;stroke-width:3;stroke-linejoin:round"
     d="M 31.5 10 L 31.5 16 L 32.5 16 L 32.5 10 L 31.5 10 z M 24.042969 11.482422 L 23.119141 11.865234 L 24.650391 15.560547 L 25.574219 15.179688 L 24.042969 11.482422 z M 39.957031 11.482422 L 38.425781 15.179688 L 39.349609 15.560547 L 40.880859 11.865234 L 39.957031 11.482422 z M 16.796875 16.089844 L 16.089844 16.796875 L 20.332031 21.039062 L 21.039062 20.332031 L 16.796875 16.089844 z M 47.203125 16.089844 L 42.960938 20.332031 L 43.667969 21.039062 L 47.910156 16.796875 L 47.203125 16.089844 z M 11.865234 23.119141 L 11.482422 24.042969 L 15.179688 25.574219 L 15.560547 24.650391 L 11.865234 23.119141 z M 52.134766 23.119141 L 48.439453 24.650391 L 48.820312 25.574219 L 52.517578 24.042969 L 52.134766 23.119141 z M 10 31.5 L 10 32.5 L 16 32.5 L 16 31.5 L 10 31.5 z M 48 31.5 L 48 32.5 L 54 32.5 L 54 31.5 L 48 31.5 z M 15.179688 38.425781 L 11.482422 39.957031 L 11.865234 40.880859 L 15.560547 39.349609 L 15.179688 38.425781 z M 48.820312 38.425781 L 48.439453 39.349609 L 52.134766 40.880859 L 52.517578 39.957031 L 48.820312 38.425781 z M 20.332031 42.960938 L 16.089844 47.203125 L 16.796875 47.910156 L 21.039062 43.667969 L 20.332031 42.960938 z M 43.667969 42.960938 L 42.960938 43.667969 L 47.203125 47.910156 L 47.910156 47.203125 L 43.667969 42.960938 z M 31.5 48 L 31.5 54 L 32.5 54 L 32.5 48 L 31.5 48 z M 24.650391 48.439453 L 23.119141 52.134766 L 24.042969 52.517578 L 25.574219 48.820312 L 24.650391 48.439453 z M 39.349609 48.439453 L 38.425781 48.820312 L 39.957031 52.517578 L 40.880859 52.134766 L 39.349609 48.439453 z "
     transform="scale(0.26458334)" />
  <path
     d="m 7.9054381,8.1698726 1.1225313,1.122532 3.4449596,-4.5676812 z m 0,0 1.1225313,1.122532 -4.5676228,3.4451654 z"
     style="opacity:0.2;fill:#000000;stroke-width:0.192487;stroke-linejoin:round"
     id="path5407"
     sodipodi:nodetypes="cccccccc" />
  <g
     id="g5342"
     transform="matrix(2.1213203,2.1213202,-2.8284271,2.828427,9.9634121,-2.0104095)">
    <path
       d="M 1.8520833,2.1166667 H 2.38125 L 2.1166844,3.5331413 Z"
       style="opacity:1;fill:#dedede;fill-opacity:1;stroke-width:0.210013;stroke-linejoin:round"
       id="path2848"
       sodipodi:nodetypes="cccc" />
    <path
       d="M 1.8520833,2.1166667 H 2.38125 L 2.1166222,0.70021828 Z"
       style="opacity:1;fill:#ef5555;fill-opacity:1;stroke-width:0.0555659;stroke-linejoin:round"
       id="path3048"
       sodipodi:nodetypes="cccc" />
    <path
       id="rect1132"
       style="opacity:0.3;fill:#ffffff;stroke-width:3;stroke-linejoin:round"
       d="M 47.142086,16.8572 29.878906,29.878906 32,32 Z"
       transform="matrix(0.06236289,-0.04677217,0.06236289,0.04677217,-1.8745585,2.1166667)"
       sodipodi:nodetypes="cccc" />
    <path
       d="m 1.8520833,2.1166667 h 0.2645832 l 1.79e-5,1.4164746 z"
       style="opacity:1;fill:#ffffff;stroke-width:0.017862;stroke-linejoin:round"
       id="path2166"
       sodipodi:nodetypes="cccc" />
  </g>
  <path
     id="rect845"
     style="opacity:0.2;fill:#000000;stroke-width:0.999999"
     d="M 4 47 L 4 48 C 4 54.648 9.3519997 60 16 60 L 48 60 C 54.648 60 60 54.648 60 48 L 60 47 C 60 53.648 54.648 59 48 59 L 16 59 C 9.3519997 59 4 53.648 4 47 z "
     transform="scale(0.26458334)" />
  <path
     id="rect843"
     style="opacity:0.2;fill:#ffffff;stroke-width:0.999999"
     d="M 16 4 C 9.3519997 4 4 9.3519997 4 16 L 4 17 C 4 10.352 9.3519997 5 16 5 L 48 5 C 54.648 5 60 10.352 60 17 L 60 16 C 60 9.3519997 54.648 4 48 4 L 16 4 z "
     transform="scale(0.26458334)" />
  <path
     id="path2459"
     style="opacity:0.2;fill:#000000;fill-opacity:1;stroke-width:3.27273;stroke-linejoin:round"
     d="M 32 8 A 24.000002 24.000002 0 0 0 8 32 A 24.000002 24.000002 0 0 0 8.0175781 32.490234 A 24.000002 24.000002 0 0 1 32 9 A 24.000002 24.000002 0 0 1 55.988281 32.296875 A 24.000002 24.000002 0 0 0 56 32 A 24.000002 24.000002 0 0 0 32 8 z "
     transform="scale(0.26458334)" />
</svg>
