<?xml version="1.0" encoding="UTF-8" standalone="no"?>
<!-- Created with Inkscape (http://www.inkscape.org/) -->

<svg
   width="64"
   height="64"
   viewBox="0 0 16.933333 16.933334"
   version="1.1"
   id="svg5"
   inkscape:version="1.1.2 (0a00cf5339, 2022-02-04, custom)"
   sodipodi:docname="kate.svg"
   xmlns:inkscape="http://www.inkscape.org/namespaces/inkscape"
   xmlns:sodipodi="http://sodipodi.sourceforge.net/DTD/sodipodi-0.dtd"
   xmlns="http://www.w3.org/2000/svg"
   xmlns:svg="http://www.w3.org/2000/svg">
  <sodipodi:namedview
     id="namedview7"
     pagecolor="#ffffff"
     bordercolor="#666666"
     borderopacity="1.0"
     inkscape:pageshadow="2"
     inkscape:pageopacity="0.0"
     inkscape:pagecheckerboard="0"
     inkscape:document-units="px"
     showgrid="false"
     units="px"
     height="64px"
     inkscape:zoom="12.25"
     inkscape:cx="32.040816"
     inkscape:cy="32"
     inkscape:window-width="1920"
     inkscape:window-height="1017"
     inkscape:window-x="0"
     inkscape:window-y="32"
     inkscape:window-maximized="1"
     inkscape:current-layer="svg5" />
  <defs
     id="defs2" />
  <rect
     style="fill:#16a3ff;stroke-width:0.264583;fill-opacity:1"
     id="rect846"
     width="14.816667"
     height="14.816667"
     x="1.0583335"
     y="1.0583333"
     ry="3.175" />
  <path
     id="path7643"
     style="opacity:0.4;fill:#1e61c4;fill-opacity:1;stroke-width:0.588529"
     d="M 38.410156 11.779297 C 25.249635 11.787801 28.947323 21.900572 17.654297 33.101562 L 20.236328 39.076172 L 41.160156 60 L 48 60 C 54.648 60 60 54.648 60 48 L 60 33.349609 L 38.410156 11.779297 z "
     transform="scale(0.26458334)" />
  <path
     id="path18"
     style="fill:#d4d4d4;fill-opacity:1;stroke-width:0.155715"
     d="M 8.1498903,2.6458348 C 7.2220343,2.6451204 6.1548793,2.9096122 5.1201008,3.6592095 4.1090258,4.3916752 3.6659783,4.592419 3.1755168,4.835882 3.6125433,4.8692055 6.2263943,4.4964004 6.6889973,6.0321913 6.9295133,5.9575886 7.7647183,5.72588 8.2935503,5.5722711 7.8777113,4.7618587 7.3394183,3.2234154 10.162687,3.1160903 9.6785953,2.8534231 8.9685866,2.646474 8.1498903,2.6458348 Z" />
  <path
     id="path24"
     style="fill:#eaeaea;fill-opacity:1;stroke-width:0.155715"
     d="M 13.657565,3.9196588 C 11.857362,4.533999 9.5354463,5.2414845 6.8404093,5.9877495 4.9545767,6.5099745 3.9006418,7.7156446 4.6968709,9.389609 c 0.7979174,1.677535 2.1765944,1.716476 3.8788334,2.855123 1.328949,0.888901 1.6539527,1.341355 2.5114747,2.573487 C 10.908887,13.115811 10.085329,10.921684 9.7001833,9.9549497 11.186877,10.844255 11.941741,11.043711 14.014649,11.260813 11.324793,9.346028 10.814033,8.9718876 9.2743696,7.6594826 c -1.0329563,0.05207 -0.9194413,0.0431 -1.5285893,0.07803 0.80191,1.131626 1.118364,2.7935094 -0.347782,3.0985194 C 6.0256253,11.121543 4.7025431,9.9369937 5.0787597,8.6682066 5.4873223,7.2904646 7.2507653,7.5548276 9.1007366,7.3158336 10.950708,7.0767986 12.641418,5.2625313 13.658081,3.9196588 Z" />
  <path
     id="path26"
     style="fill:#bcbcbc;fill-opacity:1;stroke-width:0.155715"
     d="m 9.2748866,7.6558646 c -1.0329563,0.05207 -0.9194413,0.0431 -1.5285893,0.07803 C 9.2653556,10.266471 11.311456,11.064298 14.015165,11.25771 11.325309,9.342928 10.81455,8.9682706 9.2748866,7.6558646 Z" />
  <path
     id="path28"
     style="fill:#f2f2f2;fill-opacity:1;stroke-width:0.155715"
     d="M 8.1498903,2.6463515 C 7.2220353,2.6456371 6.1548793,2.9101289 5.1201008,3.6597263 4.1090258,4.3921919 3.6654616,4.592419 3.175,4.835882 5.2691541,4.3697714 5.8172553,3.8322563 7.6930703,4.2276504 7.7034903,3.7866509 7.3394183,3.2239321 10.162687,3.1166071 9.6785953,2.8539401 8.9685866,2.6469907 8.1498903,2.6463515 Z" />
  <path
     id="path30"
     style="fill:#bcbcbc;fill-opacity:1;stroke-width:0.155715"
     d="m 8.6501183,2.7626234 c -1.403191,0.00222 -2.760875,0.8552003 -1.48363,3.1310749 C 7.6068903,5.777138 7.9640863,5.6679688 8.2935503,5.5722711 7.8777113,4.7618585 7.3399343,3.2239321 10.163204,3.1166071 9.7552863,2.8912726 9.1991926,2.7617503 8.6501183,2.7626234 Z" />
  <path
     id="path32"
     style="fill:#d8d8d8;fill-opacity:1;stroke-width:0.155715"
     d="M 13.658081,3.9206922 C 11.857704,4.5350322 9.4537406,5.0871539 6.7840823,5.9231541 4.1562782,6.7460784 3.8408703,8.3080746 5.0911623,10.027297 2.9119524,6.9690786 8.8779373,5.7420119 13.658081,3.9206922 Z" />
  <path
     id="rect845"
     style="opacity:0.2;fill:#000000;stroke-width:0.999999"
     d="M 4 47 L 4 48 C 4 54.648 9.3519997 60 16 60 L 48 60 C 54.648 60 60 54.648 60 48 L 60 47 C 60 53.648 54.648 59 48 59 L 16 59 C 9.3519997 59 4 53.648 4 47 z "
     transform="scale(0.26458334)" />
  <path
     id="rect843"
     style="opacity:0.2;fill:#ffffff;stroke-width:0.999999"
     d="M 16 4 C 9.3519997 4 4 9.3519997 4 16 L 4 17 C 4 10.352 9.3519997 5 16 5 L 48 5 C 54.648 5 60 10.352 60 17 L 60 16 C 60 9.3519997 54.648 4 48 4 L 16 4 z "
     transform="scale(0.26458334)" />
</svg>
