<?xml version="1.0" encoding="UTF-8" standalone="no"?>
<!-- Created with Inkscape (http://www.inkscape.org/) -->

<svg
   width="64"
   height="64"
   viewBox="0 0 16.933333 16.933334"
   version="1.1"
   id="svg5"
   inkscape:version="1.2 (dc2aedaf03, 2022-05-15)"
   sodipodi:docname="kde-framework.svg"
   xmlns:inkscape="http://www.inkscape.org/namespaces/inkscape"
   xmlns:sodipodi="http://sodipodi.sourceforge.net/DTD/sodipodi-0.dtd"
   xmlns="http://www.w3.org/2000/svg"
   xmlns:svg="http://www.w3.org/2000/svg">
  <sodipodi:namedview
     id="namedview7"
     pagecolor="#ffffff"
     bordercolor="#666666"
     borderopacity="1.0"
     inkscape:pageshadow="2"
     inkscape:pageopacity="0.0"
     inkscape:pagecheckerboard="0"
     inkscape:document-units="px"
     showgrid="false"
     units="px"
     height="64px"
     inkscape:zoom="12.421875"
     inkscape:cx="32"
     inkscape:cy="32"
     inkscape:window-width="1920"
     inkscape:window-height="1011"
     inkscape:window-x="0"
     inkscape:window-y="0"
     inkscape:window-maximized="1"
     inkscape:current-layer="svg5"
     inkscape:showpageshadow="2"
     inkscape:deskcolor="#d1d1d1" />
  <defs
     id="defs2" />
  <rect
     style="fill:#2696f7;fill-opacity:1;stroke-width:0.264583"
     id="rect846"
     width="14.816667"
     height="14.816667"
     x="1.0583334"
     y="1.0583334"
     ry="3.175" />
  <path
     id="path784"
     style="opacity:0.15;fill:#ffffff;stroke-width:1.00002"
     d="M 7.2310832 1.0583333 C 7.4143144 1.5013685 7.4681184 1.9272359 7.4899822 2.2561931 C 7.6272007 4.5418574 5.8859426 6.5057356 3.6002971 6.6430054 C 2.930459 6.6809957 1.8023483 6.5931662 1.0583333 6.012553 L 1.0583333 7.3897299 C 1.0981531 7.3697302 1.1402821 7.3398198 1.1880412 7.2920614 C 1.2660431 7.1950615 1.3563272 7.0673244 1.4743286 6.8993205 C 1.6613309 6.9793205 1.75585 6.9993824 1.9528524 7.0553834 C 1.9488524 7.6113938 1.9081718 7.8302589 2.1631755 7.8992595 C 2.3841782 7.9592595 2.4558309 7.761289 2.6458334 7.2062786 C 2.8258355 7.2292785 3.009051 7.2430694 3.1920533 7.2460694 C 3.332055 7.8520808 3.3770793 8.0602839 3.6090821 8.023283 C 3.8690853 7.982283 3.8532208 7.7604231 3.9062216 7.2104127 C 4.0882238 7.1854127 4.2693051 7.1499947 4.4483073 7.1049927 C 4.7063105 7.6410032 4.8001613 7.8302657 5.0141643 7.7452637 C 5.259167 7.6452618 5.1921344 7.4332442 5.1211345 6.8812338 C 5.2871363 6.8122339 5.4493747 6.7352085 5.6063762 6.6492066 C 6.0093808 7.1002149 6.1509776 7.2573299 6.3339804 7.115328 C 6.5419832 6.9533242 6.4202072 6.7671258 6.2022055 6.2611166 C 6.3502073 6.1481137 6.4898846 6.0262829 6.6238852 5.896281 C 7.1078914 6.2202867 7.2843512 6.3330818 7.4243531 6.1520793 C 7.5823549 5.9460755 7.4241444 5.7963238 7.0941407 5.3733155 C 7.2021426 5.2353129 7.3013128 5.0913034 7.3923137 4.9413005 C 7.9703208 5.1073033 8.1732076 5.1649887 8.2522096 4.9469849 C 8.3402095 4.7039805 8.1450613 4.607337 7.7080567 4.3103313 C 7.7810566 4.1373279 7.844158 3.9590674 7.8961589 3.778064 C 8.494166 3.797064 8.7061821 3.8023957 8.729183 3.5723918 C 8.754183 3.3153871 8.5399262 3.2701535 8.04292 3.0871501 C 8.06692 2.8991466 8.079127 2.7092296 8.080127 2.5192261 C 8.6471332 2.410224 8.8522676 2.3664086 8.8242677 2.1394043 C 8.7922677 1.8823995 8.5723433 1.8869446 8.0403362 1.8169434 C 8.0152662 1.63944 7.9797872 1.4639179 7.9349163 1.2903605 C 8.0359172 1.2383596 8.1131647 1.1969689 8.1891643 1.1549683 C 8.2272463 1.1159787 8.2365112 1.0847602 8.2268881 1.0583333 L 7.2310832 1.0583333 z M 8.2129355 5.6673544 L 7.8889242 5.7102458 C 7.8751142 5.7121458 7.862951 5.7194996 7.854301 5.7303996 C 7.846101 5.7420396 7.8418122 5.7559805 7.8429322 5.7701905 L 7.8491334 6.1743002 C 7.6135719 6.2332701 7.3881649 6.3277666 7.1809571 6.4543865 L 6.9060385 6.1644817 C 6.8970385 6.1534817 6.8844917 6.1461779 6.8703817 6.1443279 C 6.8562418 6.1421279 6.8415141 6.1455464 6.8300741 6.1541464 L 6.5701417 6.3520671 C 6.5587517 6.3611671 6.5513779 6.3747442 6.5499879 6.3892742 C 6.5488879 6.4033441 6.5527232 6.417175 6.5603231 6.429065 L 6.7603109 6.7794312 C 6.5873091 6.9474338 6.4402298 7.1400023 6.3262289 7.3520061 L 5.9458904 7.2414185 C 5.9182804 7.2304585 5.8872372 7.2438909 5.8761272 7.2713909 L 5.7490031 7.5711142 C 5.7434032 7.5845642 5.7434032 7.6000389 5.7490031 7.6134888 C 5.7554031 7.6265688 5.7659055 7.6371012 5.7789755 7.6434612 L 6.1272746 7.845516 C 6.0614947 8.0776315 6.0312377 8.3179901 6.0373576 8.5591676 L 5.6492676 8.6532187 C 5.6348076 8.6548187 5.6213306 8.6621725 5.6120606 8.6733725 C 5.6034606 8.6848125 5.6000421 8.6990233 5.6022421 8.7131633 L 5.6441 9.0371746 C 5.6461 9.0521746 5.6542538 9.0653481 5.6642538 9.0733481 C 5.6762538 9.0823481 5.6900447 9.0842001 5.7040447 9.0842001 L 6.1102214 9.0862672 C 6.1692214 9.3192719 6.2632723 9.543272 6.3892742 9.7492758 L 6.0993694 10.023161 C 6.0755194 10.041321 6.0706941 10.075405 6.0890341 10.099125 L 6.2890219 10.359058 C 6.2980219 10.370058 6.3111954 10.378212 6.3251954 10.379212 C 6.3392654 10.380412 6.3531262 10.377093 6.3649862 10.369393 L 6.7132854 10.169405 C 6.8822882 10.343408 7.0749238 10.489552 7.2879273 10.605554 L 7.1773398 10.984343 C 7.1721398 10.997523 7.1721398 11.011987 7.1773398 11.025167 C 7.1825397 11.038707 7.1929186 11.049529 7.2062786 11.055139 L 7.5060019 11.180196 C 7.5197419 11.185996 7.5356701 11.185996 7.5494101 11.180196 C 7.5624401 11.173796 7.5729524 11.163254 7.5793824 11.150224 L 7.7809205 10.803475 C 8.0130383 10.869235 8.253914 10.899492 8.4950888 10.893392 L 8.5881064 11.281482 C 8.5911064 11.296482 8.5982937 11.308139 8.6092937 11.317139 C 8.6207837 11.325639 8.6349546 11.329564 8.6490846 11.327474 L 8.9730958 11.285099 C 8.9872658 11.283499 9.0003793 11.276662 9.0092693 11.265462 C 9.0173693 11.253382 9.0210713 11.238621 9.0201213 11.224121 L 9.0221884 10.819495 C 9.2491899 10.761495 9.467141 10.67023 9.6681438 10.549227 L 9.9621827 10.82828 C 10.038183 10.83828 9.9843562 10.847434 9.9983562 10.848434 C 10.012486 10.850534 10.026657 10.846598 10.038147 10.838098 L 10.297046 10.639144 C 10.308206 10.630244 10.31555 10.617657 10.3172 10.603487 C 10.3184 10.589407 10.315081 10.57501 10.307381 10.56318 L 10.101192 10.219531 C 10.271194 10.054528 10.415106 9.8652956 10.530107 9.6572918 L 10.924398 9.7523764 C 10.994398 9.7223764 10.953256 9.7573764 10.966256 9.7523764 C 10.979616 9.7467764 10.990035 9.7359541 10.995195 9.7224041 L 11.120252 9.4211305 C 11.125852 9.4076805 11.125852 9.3927225 11.120252 9.3792726 C 11.113952 9.3661526 11.103399 9.3556002 11.090279 9.3493002 L 10.736296 9.1534465 C 10.798296 8.9404421 10.829347 8.7191596 10.830347 8.4971558 L 10.82828 8.4532309 L 11.215336 8.3385092 C 11.262336 8.2775093 11.242993 8.3283554 11.250993 8.3183554 C 11.259593 8.3069154 11.263528 8.2921878 11.261328 8.2780478 L 11.218954 7.9535198 C 11.217154 7.9396698 11.210317 7.9269598 11.199317 7.9183798 C 11.187607 7.9102798 11.173199 7.906061 11.159009 7.907011 L 10.755416 7.9142457 C 10.697746 7.6847272 10.606128 7.4648636 10.484115 7.2620891 L 10.764201 6.9680502 C 10.774201 6.8920503 10.782355 6.9453934 10.784355 6.9323935 C 10.786455 6.9182635 10.782519 6.9035758 10.774019 6.8920858 L 10.574032 6.6321534 C 10.565432 6.6212234 10.553218 6.6138996 10.539408 6.6119996 C 10.525328 6.6106996 10.510931 6.6146349 10.499101 6.6223349 L 10.154419 6.8290406 C 9.9896311 6.6591121 9.8003795 6.5146331 9.593213 6.4001262 L 9.6872641 6.0063518 C 9.6572641 5.9353519 9.6922641 5.9759771 9.6872641 5.9639771 C 9.6820641 5.9504371 9.6716853 5.9396148 9.6583253 5.9340048 L 9.3560182 5.8094646 C 9.3431982 5.8042646 9.3290473 5.8042646 9.3162273 5.8094646 C 9.3030573 5.8156646 9.292485 5.8262669 9.286255 5.8394369 L 9.0893678 6.194454 C 8.861903 6.1290641 8.6257999 6.0977064 8.3891521 6.1014364 L 8.2739137 5.7143799 C 8.2129137 5.66738 8.2642766 5.6872064 8.2542766 5.6782064 C 8.2425366 5.6694064 8.2273955 5.6660179 8.2129355 5.6683879 L 8.2129355 5.6673544 z M 8.4320435 6.6063152 C 11.012731 6.5469752 11.012731 10.448889 8.4320435 10.389547 C 5.9673405 10.332877 5.9673405 6.6629901 8.4320435 6.6063152 z M 14.572237 8.8242677 C 14.309235 8.8232677 14.289491 9.0435332 14.148491 9.5725424 C 13.966075 9.5661424 13.783196 9.570028 13.601237 9.584428 C 13.423235 9.0014179 13.361085 8.7971049 13.134082 8.8501059 C 12.877079 8.9101058 12.911404 9.1312539 12.897404 9.6872641 C 12.722402 9.7272641 12.551192 9.7770893 12.38219 9.8360922 C 12.069186 9.312083 11.960258 9.1301269 11.752254 9.2361288 C 11.514253 9.3571317 11.604415 9.564403 11.726416 10.123413 C 11.56883 10.205533 11.415562 10.296155 11.268046 10.395231 C 10.810041 9.9822239 10.652118 9.8384543 10.484115 10.001457 C 10.294114 10.185461 10.43642 10.356122 10.709424 10.839132 C 10.577179 10.96197 10.451812 11.092329 10.334253 11.229289 C 9.7902465 10.937283 9.6019754 10.835465 9.4779745 11.034469 C 9.3379727 11.259472 9.5183008 11.391306 9.9043051 11.800313 C 9.8103052 11.948316 9.7239239 12.101197 9.6459229 12.2592 C 9.1029158 12.143198 8.8973111 12.05937 8.7793092 12.295374 C 8.6743086 12.504377 8.8580168 12.61127 9.387024 12.924276 C 9.3333241 13.095004 9.2894811 13.26847 9.2552491 13.444141 C 8.705243 13.473141 8.4850435 13.447585 8.4320435 13.70459 C 8.3860436 13.931595 8.5889424 13.989521 9.1689495 14.149524 C 9.1619495 14.326528 9.1652848 14.503204 9.1792848 14.679208 C 8.6592786 14.86121 8.4400159 14.89831 8.4620159 15.160315 C 8.4810159 15.38832 8.6903623 15.389458 9.2743694 15.380457 C 9.3043694 15.51446 9.3429225 15.646363 9.3839234 15.778365 C 9.3939234 15.812365 9.4102981 15.840282 9.4262981 15.868282 L 10.206095 15.868282 C 9.9990936 15.024266 9.7482713 13.915415 10.196277 12.758394 C 10.279277 12.54139 10.379381 12.35456 10.492383 12.208557 C 10.980314 11.418224 11.719049 10.814548 12.590963 10.49445 C 12.733725 10.42933 12.884338 10.382971 13.038998 10.356474 C 13.164998 10.324474 13.293435 10.298442 13.422437 10.278442 C 13.559019 10.258243 13.696383 10.244585 13.834298 10.238135 C 14.536079 10.221509 15.23298 10.360444 15.875 10.644312 L 15.875 9.2495647 C 15.839104 9.2100448 15.796054 9.2015616 15.745292 9.2433635 C 15.64529 9.3403634 15.545358 9.5204111 15.377356 9.7844158 C 15.206577 9.7314358 15.033112 9.6878031 14.857491 9.6541912 C 14.819491 9.0381791 14.80724 8.8252677 14.572237 8.8242677 z " />
  <path
     d="M 9.3968771,3.175 7.5354176,3.3474343 V 10.620838 L 9.3968771,10.248961 V 7.2708343 L 11.630212,10.620838 13.491672,9.8770849 11.072398,6.7441822 13.49375,3.5479151 11.543995,3.175 9.3968771,6.3401045 Z M 5.3789498,4.8941492 c -0.047189,-0.00331 -0.093474,0.014139 -0.1267287,0.047783 L 4.461724,5.732429 c -0.073092,0.072762 -0.073092,0.1910833 0,0.2638454 L 5.2792288,7.2781051 C 5.2138668,7.4103084 5.1573044,7.5466828 5.1099108,7.6863386 L 3.6265603,8.0156255 C 3.5235114,8.0151654 3.4396972,8.0985145 3.4395834,8.201564 v 1.1166677 c 0,0.1031781 0.085926,0.1636005 0.1869769,0.185938 l 1.4833505,0.3303261 c 0.046271,0.1382799 0.1013415,0.2732442 0.165163,0.4040782 l -0.8195823,1.284947 c -0.055312,0.08669 -0.072863,0.189412 0,0.262806 l 0.790497,0.790497 c 0.072643,0.0724 0.1901631,0.0724 0.2628066,0 l 1.2859855,-0.818543 c 0.1328242,0.06615 0.2698963,0.123412 0.4103109,0.171395 l 0.3292874,1.483352 c 0,0.103178 0.08276,0.185938 0.185938,0.185938 h 1.1177064 c 0.1031781,0 0.163601,-0.08489 0.1859386,-0.185938 l 0.3292868,-1.48439 c 0.1403105,-0.04663 0.2773804,-0.102502 0.4103109,-0.167241 l 1.2797534,0.815427 c 0.07264,0.0724 0.190163,0.0724 0.262806,0 l 0.790497,-0.790497 c 0.07286,-0.07339 0.05531,-0.176115 0,-0.262806 L 11.747592,10.975055 11.486864,11.078931 10.653777,9.8282631 C 10.233606,10.762767 9.3048251,11.36434 8.2802088,11.365629 6.8407689,11.365744 5.6738435,10.198818 5.6739581,8.7593785 5.6753381,7.7543251 6.2545414,6.8396396 7.1625024,6.4086626 V 5.606739 C 7.0374094,5.649665 6.9149677,5.69996 6.7958199,5.7573598 L 5.5160665,4.9419322 c -0.040837,-0.027453 -0.088063,-0.04391 -0.1371167,-0.047783 z"
     style="fill:#ffffff;fill-opacity:1;stroke-width:0.531846"
     id="path407" />
  <path
     id="rect12059"
     style="opacity:0.2;fill:#ffffff;fill-opacity:1;stroke-width:0.999999"
     d="M 16 4 C 9.3519997 4 4 9.3519997 4 16 L 4 17 C 4 10.352 9.3519997 5 16 5 L 48 5 C 54.648 5 60 10.352 60 17 L 60 16 C 60 9.3519997 54.648 4 48 4 L 16 4 z "
     transform="scale(0.26458334)" />
  <path
     id="rect14210"
     style="opacity:0.2;fill:#000000;fill-opacity:1;stroke-width:0.999999"
     d="M 4 47 L 4 48 C 4 54.648 9.3519997 60 16 60 L 48 60 C 54.648 60 60 54.648 60 48 L 60 47 C 60 53.648 54.648 59 48 59 L 16 59 C 9.3519997 59 4 53.648 4 47 z "
     transform="scale(0.26458334)" />
</svg>
