<?xml version="1.0" encoding="UTF-8" standalone="no"?>
<!-- Created with Inkscape (http://www.inkscape.org/) -->

<svg
   width="64"
   height="64"
   viewBox="0 0 16.933333 16.933334"
   version="1.1"
   id="svg5"
   inkscape:version="1.2 (dc2aedaf03, 2022-05-15)"
   sodipodi:docname="keyring-manager.svg"
   xmlns:inkscape="http://www.inkscape.org/namespaces/inkscape"
   xmlns:sodipodi="http://sodipodi.sourceforge.net/DTD/sodipodi-0.dtd"
   xmlns="http://www.w3.org/2000/svg"
   xmlns:svg="http://www.w3.org/2000/svg">
  <sodipodi:namedview
     id="namedview7"
     pagecolor="#ffffff"
     bordercolor="#666666"
     borderopacity="1.0"
     inkscape:pageshadow="2"
     inkscape:pageopacity="0.0"
     inkscape:pagecheckerboard="0"
     inkscape:document-units="px"
     showgrid="false"
     units="px"
     height="64px"
     inkscape:zoom="12.34375"
     inkscape:cx="32"
     inkscape:cy="32"
     inkscape:window-width="1920"
     inkscape:window-height="1011"
     inkscape:window-x="0"
     inkscape:window-y="0"
     inkscape:window-maximized="1"
     inkscape:current-layer="svg5"
     inkscape:showpageshadow="2"
     inkscape:deskcolor="#d1d1d1" />
  <defs
     id="defs2" />
  <rect
     style="fill:#4d4d4d;stroke-width:0.264583;fill-opacity:1"
     id="rect846"
     width="14.816667"
     height="14.816667"
     x="1.0583335"
     y="1.0583333"
     ry="3.175" />
  <circle
     style="fill:#ececec;fill-opacity:1;stroke-width:2.63191;stroke-linecap:round;stroke-linejoin:round"
     id="path871"
     cx="8.46667"
     cy="8.4666672"
     r="5.5562501" />
  <circle
     style="fill:#2696f7;fill-opacity:1;stroke-width:2.11667;stroke-linecap:round;stroke-linejoin:round"
     id="path1579"
     cx="8.4666691"
     cy="8.4666662"
     r="4.2333331" />
  <circle
     style="fill:#ececec;fill-opacity:1;stroke-width:3.175;stroke-linecap:round;stroke-linejoin:round"
     id="path3491"
     cx="8.4666691"
     cy="8.4666662"
     r="3.175" />
  <path
     id="path4609"
     style="opacity:0.2;fill:#000000;fill-opacity:1;stroke-width:2.38125;stroke-linecap:round;stroke-linejoin:round"
     d="m 8.4666691,4.2333326 c -2.3380055,-3e-7 -4.2333336,1.8953278 -4.2333333,4.2333333 0.00103,0.044121 0.00275,0.088224 0.00517,0.1322916 0.071415,-2.2841809 1.9428693,-4.0993681 4.2281663,-4.1010416 2.2733259,1.966e-4 4.1406369,1.7958718 4.2297159,4.067452 0.0016,-0.032886 0.0028,-0.065788 0.0036,-0.098702 1e-6,-2.3380055 -1.895328,-4.2333336 -4.2333329,-4.2333333 z M 11.637535,8.5730739 C 11.580165,10.283267 10.177824,11.640354 8.4666691,11.64162 6.7653562,11.64062 5.3672076,10.298747 5.2963199,8.598912 c -0.00246,0.04406 -0.00402,0.088167 -0.00465,0.1322917 0,1.7535033 1.4214959,3.1749993 3.1749992,3.1749993 1.7535039,0 3.1749999,-1.421496 3.1749999,-3.1749993 -6.4e-5,-0.052736 -0.0015,-0.1054624 -0.0041,-0.1581298 z"
     sodipodi:nodetypes="scccccsccccscc" />
  <circle
     style="fill:#b3b3b3;fill-opacity:1;stroke-width:2.38125;stroke-linecap:round;stroke-linejoin:round"
     id="path7081"
     cx="8.4666691"
     cy="8.4666662"
     r="2.1166666" />
  <circle
     style="fill:#ececec;fill-opacity:1;stroke-width:2.08359;stroke-linecap:round;stroke-linejoin:round"
     id="path6779"
     cx="8.4666691"
     cy="8.4666662"
     r="1.8520833" />
  <path
     id="rect5340"
     style="fill:#4d4d4d;fill-opacity:1;stroke-width:2.17377;stroke-linecap:round;stroke-linejoin:round"
     d="m 8.069794,6.0854156 h 0.7937501 c 0.146579,0 0.264583,0.1180042 0.264583,0.2645833 v 2.3812502 l -0.529166,0.5291662 0.529166,0.529167 v 0.7937497 c 0,0.146579 -0.118004,0.264583 -0.264583,0.264583 H 8.069794 c -0.1465791,0 -0.2645833,-0.118004 -0.2645833,-0.264583 V 8.2020825 L 8.3343774,7.6729158 7.8052107,7.1437492 V 6.3499989 c 0,-0.1465791 0.1180042,-0.2645833 0.2645833,-0.2645833 z"
     sodipodi:nodetypes="ssscccsssscccss" />
  <path
     id="path7687"
     style="opacity:0.2;fill:#000000;fill-opacity:1;stroke-width:2.38125;stroke-linecap:round;stroke-linejoin:round"
     d="M 14.019818,8.5545157 A 5.5562502,5.5562502 0 0 1 8.4666691,14.022915 5.5562502,5.5562502 0 0 1 2.9155867,8.5989575 5.5562502,5.5562502 0 0 0 2.9104167,8.7312492 5.5562502,5.5562502 0 0 0 8.4666671,14.287499 5.5562502,5.5562502 0 0 0 14.022917,8.7312492 5.5562502,5.5562502 0 0 0 14.019818,8.5545157 Z" />
  <path
     id="rect845"
     style="opacity:0.2;fill:#000000;stroke-width:0.999999"
     d="M 4 47 L 4 48 C 4 54.648 9.3519997 60 16 60 L 48 60 C 54.648 60 60 54.648 60 48 L 60 47 C 60 53.648 54.648 59 48 59 L 16 59 C 9.3519997 59 4 53.648 4 47 z "
     transform="scale(0.26458334)" />
  <path
     id="rect843"
     style="opacity:0.2;fill:#ffffff;stroke-width:0.999999"
     d="M 16 4 C 9.3519997 4 4 9.3519997 4 16 L 4 17 C 4 10.352 9.3519997 5 16 5 L 48 5 C 54.648 5 60 10.352 60 17 L 60 16 C 60 9.3519997 54.648 4 48 4 L 16 4 z "
     transform="scale(0.26458334)" />
</svg>
