<?xml version="1.0" encoding="UTF-8" standalone="no"?>
<!-- Created with Inkscape (http://www.inkscape.org/) -->

<svg
   width="64"
   height="64"
   viewBox="0 0 16.933333 16.933334"
   version="1.1"
   id="svg5"
   inkscape:version="1.1.2 (0a00cf5339, 2022-02-04, custom)"
   sodipodi:docname="kodi.svg"
   xmlns:inkscape="http://www.inkscape.org/namespaces/inkscape"
   xmlns:sodipodi="http://sodipodi.sourceforge.net/DTD/sodipodi-0.dtd"
   xmlns="http://www.w3.org/2000/svg"
   xmlns:svg="http://www.w3.org/2000/svg">
  <sodipodi:namedview
     id="namedview7"
     pagecolor="#ffffff"
     bordercolor="#666666"
     borderopacity="1.0"
     inkscape:pageshadow="2"
     inkscape:pageopacity="0.0"
     inkscape:pagecheckerboard="0"
     inkscape:document-units="px"
     showgrid="false"
     units="px"
     height="64px"
     inkscape:zoom="12.25"
     inkscape:cx="32"
     inkscape:cy="32"
     inkscape:window-width="1920"
     inkscape:window-height="1011"
     inkscape:window-x="0"
     inkscape:window-y="0"
     inkscape:window-maximized="1"
     inkscape:current-layer="svg5" />
  <defs
     id="defs2" />
  <rect
     style="fill:#2696f7;fill-opacity:1;stroke-width:0.264583"
     id="rect846"
     width="14.816667"
     height="14.816667"
     x="1.0583334"
     y="1.0583334"
     ry="3.175" />
  <path
     d="m 8.466693,3.4845628 c -0.191294,0 -0.382587,0.073025 -0.529167,0.2196042 L 6.329918,5.3117753 V 9.5858545 L 10.603468,5.3117753 8.99586,3.704167 C 8.85574,3.5634375 8.665284,3.4843979 8.466693,3.4845628 Z m 3.419475,3.1099125 -2.137304,2.136775 2.137304,2.1367747 1.607609,-1.607608 c 0.293193,-0.2918595 0.293193,-0.7664739 0,-1.0583334 z M 4.6199163,7.0217774 3.4398746,8.2020836 c -0.2931935,0.2918595 -0.2931935,0.7664739 0,1.0583334 l 1.1800417,1.180306 z m 3.8467767,2.9916446 -2.136775,2.137303 1.607608,1.607874 c 0.29186,0.293193 0.766474,0.293193 1.058334,0 l 1.607608,-1.607874 z"
     style="fill:#000000;stroke-width:0.0700042;opacity:0.2"
     id="path937" />
  <path
     d="m 8.4666931,3.2199795 c -0.191294,0 -0.382587,0.073025 -0.529167,0.2196041 L 6.3299181,5.047192 V 9.3212713 L 10.603468,5.047192 8.9958601,3.4395836 C 8.8557401,3.2988541 8.6652841,3.2198146 8.4666931,3.2199795 Z M 11.886168,6.329892 9.7488641,8.4666671 11.886168,10.603442 13.493777,8.9958338 c 0.293193,-0.2918595 0.293193,-0.7664739 0,-1.0583334 z M 4.619916,6.7571941 3.4398743,7.9375004 c -0.2931935,0.2918595 -0.2931935,0.7664739 0,1.0583334 L 4.619916,10.17614 Z m 3.8467771,2.9916443 -2.136775,2.1373036 1.607608,1.607873 c 0.29186,0.293193 0.766474,0.293193 1.058334,0 l 1.6076079,-1.607873 z"
     style="fill:#ffffff;stroke-width:0.264583"
     id="path874"
     sodipodi:nodetypes="cccccccccccccccccccccccc" />
  <path
     id="rect12059"
     style="opacity:0.2;fill:#ffffff;fill-opacity:1;stroke-width:0.999999"
     d="M 16 4 C 9.3519997 4 4 9.3519997 4 16 L 4 17 C 4 10.352 9.3519997 5 16 5 L 48 5 C 54.648 5 60 10.352 60 17 L 60 16 C 60 9.3519997 54.648 4 48 4 L 16 4 z "
     transform="scale(0.26458334)" />
  <path
     id="rect14210"
     style="opacity:0.2;fill:#000000;fill-opacity:1;stroke-width:0.999999"
     d="M 4 47 L 4 48 C 4 54.648 9.3519997 60 16 60 L 48 60 C 54.648 60 60 54.648 60 48 L 60 47 C 60 53.648 54.648 59 48 59 L 16 59 C 9.3519997 59 4 53.648 4 47 z "
     transform="scale(0.26458334)" />
</svg>
