<?xml version="1.0" encoding="UTF-8" standalone="no"?>
<!-- Created with Inkscape (http://www.inkscape.org/) -->

<svg
   width="64"
   height="64"
   viewBox="0 0 16.933333 16.933334"
   version="1.1"
   id="svg5"
   inkscape:version="1.2 (dc2aedaf03, 2022-05-15)"
   sodipodi:docname="ksudoku.svg"
   xmlns:inkscape="http://www.inkscape.org/namespaces/inkscape"
   xmlns:sodipodi="http://sodipodi.sourceforge.net/DTD/sodipodi-0.dtd"
   xmlns="http://www.w3.org/2000/svg"
   xmlns:svg="http://www.w3.org/2000/svg">
  <sodipodi:namedview
     id="namedview7"
     pagecolor="#ffffff"
     bordercolor="#666666"
     borderopacity="1.0"
     inkscape:pageshadow="2"
     inkscape:pageopacity="0.0"
     inkscape:pagecheckerboard="0"
     inkscape:document-units="px"
     showgrid="false"
     units="px"
     height="64px"
     inkscape:zoom="12.421875"
     inkscape:cx="32"
     inkscape:cy="32"
     inkscape:window-width="1920"
     inkscape:window-height="1011"
     inkscape:window-x="0"
     inkscape:window-y="0"
     inkscape:window-maximized="1"
     inkscape:current-layer="svg5"
     inkscape:showpageshadow="2"
     inkscape:deskcolor="#d1d1d1" />
  <defs
     id="defs2" />
  <rect
     style="fill:#f5f5f5;stroke-width:0.264583;fill-opacity:1"
     id="rect846"
     width="14.816667"
     height="14.816667"
     x="1.0583335"
     y="1.0583333"
     ry="3.175" />
  <path
     id="rect1055"
     style="fill:#afc0cf;fill-opacity:1;stroke-width:2.38125;stroke-linecap:round;stroke-linejoin:round"
     d="M 6.0854165,1.0583333 V 6.0854166 H 1.0583333 V 10.847917 H 6.0854165 V 15.875 H 10.847917 V 10.847917 H 15.875 V 6.0854166 H 10.847917 V 1.0583333 Z" />
  <rect
     style="opacity:0.2;fill:#000000;fill-opacity:1;stroke-width:0.529167;stroke-linejoin:round"
     id="rect4638"
     width="6.3500004"
     height="6.3499994"
     x="5.291666"
     y="5.5562501"
     ry="0.79375005" />
  <rect
     style="opacity:1;fill:#fea010;fill-opacity:1;stroke-width:0.529167;stroke-linejoin:round"
     id="rect3960"
     width="6.3499999"
     height="6.3499999"
     x="5.2916665"
     y="5.291667"
     ry="0.79374999" />
  <path
     d="m 8.4339486,6.3499998 q 0.3982972,0 0.7368499,0.1820787 0.3413977,0.1792338 0.5576162,0.6145158 0.219063,0.435282 0.219063,1.1550621 0,0.722625 -0.190613,1.2375665 -0.187769,0.5120961 -0.5405465,0.7795251 -0.3499326,0.264583 -0.8335793,0.264583 -0.3584675,0 -0.6429655,-0.136559 Q 7.4552753,10.307368 7.2760415,10.059854 7.0968078,9.812341 7.0455981,9.4851682 h 0.5064065 q 0.071125,0.290188 0.2844981,0.4665768 0.2162185,0.176389 0.5462362,0.176389 0.3357077,0 0.5775311,-0.1849239 Q 9.2049383,9.7554414 9.3358074,9.3998188 9.4666765,9.0441963 9.4695215,8.5463247 h -0.0569 Q 9.2333881,8.8052179 8.957425,8.9503119 q -0.2731181,0.142249 -0.5974459,0.142249 -0.3670025,0 -0.6771054,-0.1735438 Q 7.3756159,8.7426283 7.1935371,8.4325255 7.0114584,8.1195776 7.0114584,7.7326603 q 0,-0.3812274 0.1763887,-0.6970202 Q 7.3642359,6.7198472 7.6857187,6.5349235 8.0100465,6.3499998 8.4339486,6.3499998 Z M 7.5121749,7.7269703 q 0,0.2532033 0.1166442,0.4637318 0.1194892,0.2076836 0.3300178,0.3300178 0.2105285,0.1223341 0.4751117,0.1223341 0.2617382,0 0.4808017,-0.1280241 Q 9.1338138,8.3841608 9.2618379,8.1707873 9.389862,7.9545688 9.389862,7.7155904 9.389862,7.479457 9.2675279,7.2689285 9.1451937,7.0583999 8.9289752,6.9303758 8.7156017,6.7995067 8.4510185,6.7995067 q -0.2645832,0 -0.4808017,0.1251791 Q 7.7539983,7.049865 7.6316641,7.2632385 7.5093299,7.476612 7.5121749,7.7269703 Z"
     style="font-size:5.82652px;line-height:1.25;font-family:Pretendard;-inkscape-font-specification:Pretendard;fill:#ffffff;fill-opacity:1;stroke-width:0.145663"
     id="path6491" />
  <path
     id="path6491-7"
     style="font-size:5.82652px;line-height:1.25;font-family:Pretendard;-inkscape-font-specification:Pretendard;opacity:0.2;fill:#000000;fill-opacity:1;stroke-width:0.145663"
     d="m 8.4511635,6.7995849 c -0.1763887,0 -0.3369619,0.041604 -0.4811075,0.1250569 -0.1441457,0.083453 -0.2569244,0.1962314 -0.3384806,0.3384807 -0.081556,0.1422487 -0.1212691,0.2971482 -0.1193726,0.4640543 0,0.04398 0.00246,0.086625 0.00775,0.1286743 C 7.535293,7.7400937 7.5726008,7.6305695 7.6315762,7.5277058 7.7131324,7.3854566 7.825911,7.2726779 7.9700568,7.1892252 8.1142024,7.1057724 8.2747756,7.0641683 8.4511643,7.0641683 c 0.176389,0 0.3357581,0.043495 0.4780071,0.1307412 0.1441455,0.08535 0.2569244,0.1981279 0.3384807,0.3384806 0.058205,0.1001665 0.095472,0.2048151 0.1121378,0.313676 0.00664,-0.043267 0.00982,-0.08681 0.00982,-0.1312582 0,-0.1574226 -0.0404,-0.3066489 -0.1219563,-0.4470011 C 9.1860961,7.1284541 9.0733172,7.0156757 8.9291717,6.9303261 8.7869227,6.8430803 8.6275536,6.7995849 8.4511646,6.7995849 Z m -1.434021,1.0655679 c -0.00363,0.043311 -0.00568,0.087634 -0.00568,0.1322916 0,0.2579447 0.060515,0.491067 0.181901,0.6996991 0.1213858,0.2067354 0.2845371,0.3686826 0.4893757,0.4862751 0.2067354,0.1156954 0.4328099,0.1736328 0.6774781,0.1736328 0.2162185,0 0.4153008,-0.047277 0.5973796,-0.1421101 0.1839754,-0.096729 0.3357804,-0.2315144 0.4552694,-0.4041098 h 0.044958 c 0.00706,-0.084583 0.011359,-0.1727385 0.011882,-0.2645833 H 9.4128625 C 9.2933735,8.7188436 9.1415686,8.8536287 8.9575932,8.950358 8.7755144,9.045191 8.5764321,9.092468 8.3602135,9.092468 8.1155454,9.092468 7.8894708,9.034531 7.6827355,8.9188352 7.4778969,8.8012428 7.3147456,8.6392955 7.1933598,8.4325602 7.0931338,8.2602963 7.0346143,8.0710356 7.0171425,7.8651528 Z M 9.9456457,8.439278 c -0.0111,0.4230769 -0.07383,0.7900902 -0.188619,1.1001914 -0.125179,0.3413972 -0.3053503,0.6009946 -0.5405353,0.7792806 -0.2332884,0.176389 -0.5111096,0.264583 -0.8335406,0.264583 -0.2389783,0 -0.4537065,-0.04539 -0.6433717,-0.136426 C 7.5499139,10.353973 7.3955308,10.22486 7.2760415,10.059851 7.207574,9.9653001 7.1531886,9.861779 7.1127439,9.7497923 h -0.067179 c 0.03414,0.2181145 0.1109879,0.4096327 0.2304769,0.5746417 0.1194893,0.16501 0.2738724,0.294121 0.4635376,0.387057 0.1896652,0.09104 0.4043934,0.136426 0.6433717,0.136426 0.322431,0 0.6002522,-0.0882 0.8335406,-0.264584 0.2351853,-0.178286 0.415356,-0.437883 0.540535,-0.7792803 0.127076,-0.3432942 0.190686,-0.7559005 0.190686,-1.2376507 0,-0.0432 -8.73e-4,-0.085461 -0.0021,-0.127124 z" />
  <path
     id="rect845"
     style="opacity:0.2;fill:#000000;stroke-width:0.999999"
     d="M 4 47 L 4 48 C 4 54.648 9.3519997 60 16 60 L 48 60 C 54.648 60 60 54.648 60 48 L 60 47 C 60 53.648 54.648 59 48 59 L 16 59 C 9.3519997 59 4 53.648 4 47 z "
     transform="scale(0.26458334)" />
  <path
     id="rect843"
     style="opacity:0.2;fill:#ffffff;stroke-width:0.999999"
     d="M 16 4 C 9.3519997 4 4 9.3519997 4 16 L 4 17 C 4 10.352 9.3519997 5 16 5 L 48 5 C 54.648 5 60 10.352 60 17 L 60 16 C 60 9.3519997 54.648 4 48 4 L 16 4 z "
     transform="scale(0.26458334)" />
</svg>
