<?xml version="1.0" encoding="UTF-8" standalone="no"?>
<!-- Created with Inkscape (http://www.inkscape.org/) -->

<svg
   width="64"
   height="64"
   viewBox="0 0 16.933333 16.933334"
   version="1.1"
   id="svg5"
   inkscape:version="1.1.2 (0a00cf5339, 2022-02-04, custom)"
   sodipodi:docname="kwalletmanager.svg"
   xmlns:inkscape="http://www.inkscape.org/namespaces/inkscape"
   xmlns:sodipodi="http://sodipodi.sourceforge.net/DTD/sodipodi-0.dtd"
   xmlns="http://www.w3.org/2000/svg"
   xmlns:svg="http://www.w3.org/2000/svg">
  <sodipodi:namedview
     id="namedview7"
     pagecolor="#ffffff"
     bordercolor="#666666"
     borderopacity="1.0"
     inkscape:pageshadow="2"
     inkscape:pageopacity="0.0"
     inkscape:pagecheckerboard="0"
     inkscape:document-units="px"
     showgrid="false"
     units="px"
     height="64px"
     inkscape:zoom="11.280563"
     inkscape:cx="29.652776"
     inkscape:cy="31.292765"
     inkscape:window-width="1920"
     inkscape:window-height="1017"
     inkscape:window-x="0"
     inkscape:window-y="32"
     inkscape:window-maximized="1"
     inkscape:current-layer="svg5" />
  <defs
     id="defs2" />
  <rect
     style="fill:#4d4d4d;stroke-width:0.264583;fill-opacity:1"
     id="rect846"
     width="14.816667"
     height="14.816667"
     x="1.0583335"
     y="1.0583333"
     ry="3.175" />
  <rect
     style="fill:#f0e2c3;fill-opacity:1;stroke-width:2.38125;stroke-linecap:round;stroke-linejoin:round"
     id="rect849"
     width="10.583333"
     height="7.9375"
     x="3.175"
     y="4.4979167"
     ry="0.79374999" />
  <path
     id="rect5268"
     style="fill:#25b1ef;stroke-width:2.38125;stroke-linecap:round;stroke-linejoin:round"
     d="M 4.2333335,5.0270835 H 12.7 c 0.293158,0 0.529166,0.2360083 0.529166,0.5291666 V 8.731249 c 0,0.2931583 -0.236008,0.5291667 -0.529166,0.5291667 H 4.2333335 c -0.2931583,0 -0.5291666,-0.2360084 -0.5291666,-0.5291667 V 5.5562501 c 0,-0.2931583 0.2360083,-0.5291666 0.5291666,-0.5291666 z" />
  <path
     id="rect4606"
     style="fill:#efc225;stroke-width:2.38125;stroke-linecap:round;stroke-linejoin:round"
     d="M 4.2333335,5.8208333 H 12.7 c 0.293158,0 0.529166,0.2360083 0.529166,0.5291666 v 3.1749994 c 0,0.2931583 -0.236008,0.5291667 -0.529166,0.5291667 H 4.2333335 c -0.2931583,0 -0.5291666,-0.2360084 -0.5291666,-0.5291667 V 6.3499999 c 0,-0.2931583 0.2360083,-0.5291666 0.5291666,-0.5291666 z" />
  <path
     id="rect3107"
     style="fill:#55bf5d;stroke-width:2.38125;stroke-linecap:round;stroke-linejoin:round"
     d="M 4.2333335,6.6145831 H 12.7 c 0.293158,0 0.529166,0.2360083 0.529166,0.5291667 v 3.1749992 c 0,0.293159 -0.236008,0.529167 -0.529166,0.529167 H 4.2333335 c -0.2931583,0 -0.5291666,-0.236008 -0.5291666,-0.529167 V 7.1437498 c 0,-0.2931584 0.2360083,-0.5291667 0.5291666,-0.5291667 z" />
  <path
     id="rect2181"
     style="fill:#f06767;stroke-width:2.45028;stroke-linecap:round;stroke-linejoin:round"
     d="M 4.2333335,7.4083334 H 12.7 c 0.293158,0 0.529166,0.2360083 0.529166,0.5291666 v 3.175 c 0,0.293158 -0.236008,0.529166 -0.529166,0.529166 H 4.2333335 c -0.2931583,0 -0.5291666,-0.236008 -0.5291666,-0.529166 v -3.175 c 0,-0.2931583 0.2360083,-0.5291666 0.5291666,-0.5291666 z" />
  <path
     id="rect1745"
     style="fill:#ecd496;fill-opacity:1;stroke-width:2.38125;stroke-linecap:round;stroke-linejoin:round"
     d="m 3.1750002,8.4666666 v 3.1749994 c 0,0.439738 0.3540125,0.79375 0.7937499,0.79375 h 8.9958329 c 0.439737,0 0.79375,-0.354012 0.79375,-0.79375 V 8.4666666 H 9.5239666 C 9.5124371,9.0424756 9.0425911,9.5033657 8.4666668,9.5038126 7.8907424,9.5033628 7.4208964,9.0424756 7.4093669,8.4666666 Z"
     sodipodi:nodetypes="cssssccccc" />
  <path
     id="rect1745-7"
     style="opacity:0.2;fill:#000000;fill-opacity:1;stroke-width:2.38125;stroke-linecap:round;stroke-linejoin:round"
     d="m 3.1750002,11.377083 v 0.264584 c 0,0.439738 0.3540125,0.79375 0.79375,0.79375 h 8.9958338 c 0.439737,0 0.79375,-0.354012 0.79375,-0.79375 v -0.264584 c 0,0.439738 -0.354013,0.79375 -0.79375,0.79375 H 3.9687502 c -0.439738,0 -0.79375,-0.354012 -0.79375,-0.79375 z" />
  <path
     id="rect1745-7-3-5"
     style="opacity:0.2;fill:#000000;fill-opacity:1;stroke-width:2.38125;stroke-linecap:round;stroke-linejoin:round"
     d="m 3.1750002,8.2020833 v 0.2645834 h 4.2343667 c 0.011529,0.575809 0.4813758,1.0366959 1.0572999,1.037146 0.5759241,-4.472e-4 1.0457698,-0.461337 1.0572999,-1.037146 H 13.758334 V 8.2020833 H 9.5239667 c -0.01153,0.575809 -0.4813758,1.0366989 -1.0572999,1.037146 -0.5759241,-4.5e-4 -1.0457709,-0.461337 -1.0572999,-1.037146 z" />
  <path
     id="rect845"
     style="opacity:0.2;fill:#000000;stroke-width:0.999999"
     d="M 4 47 L 4 48 C 4 54.648 9.3519997 60 16 60 L 48 60 C 54.648 60 60 54.648 60 48 L 60 47 C 60 53.648 54.648 59 48 59 L 16 59 C 9.3519997 59 4 53.648 4 47 z "
     transform="scale(0.26458334)" />
  <path
     id="rect843"
     style="opacity:0.2;fill:#ffffff;stroke-width:0.999999"
     d="M 16 4 C 9.3519997 4 4 9.3519997 4 16 L 4 17 C 4 10.352 9.3519997 5 16 5 L 48 5 C 54.648 5 60 10.352 60 17 L 60 16 C 60 9.3519997 54.648 4 48 4 L 16 4 z "
     transform="scale(0.26458334)" />
</svg>
