<?xml version="1.0" encoding="UTF-8" standalone="no"?>
<!-- Created with Inkscape (http://www.inkscape.org/) -->

<svg
   width="64"
   height="64"
   viewBox="0 0 16.933333 16.933334"
   version="1.1"
   id="svg5"
   inkscape:version="1.2 (dc2aedaf03, 2022-05-15)"
   sodipodi:docname="libreoffice-calc.svg"
   xmlns:inkscape="http://www.inkscape.org/namespaces/inkscape"
   xmlns:sodipodi="http://sodipodi.sourceforge.net/DTD/sodipodi-0.dtd"
   xmlns="http://www.w3.org/2000/svg"
   xmlns:svg="http://www.w3.org/2000/svg">
  <sodipodi:namedview
     id="namedview7"
     pagecolor="#ffffff"
     bordercolor="#666666"
     borderopacity="1.0"
     inkscape:pageshadow="2"
     inkscape:pageopacity="0.0"
     inkscape:pagecheckerboard="0"
     inkscape:document-units="px"
     showgrid="false"
     units="px"
     height="64px"
     inkscape:zoom="13.53125"
     inkscape:cx="32"
     inkscape:cy="32"
     inkscape:window-width="1409"
     inkscape:window-height="922"
     inkscape:window-x="234"
     inkscape:window-y="54"
     inkscape:window-maximized="0"
     inkscape:current-layer="svg5"
     inkscape:showpageshadow="2"
     inkscape:deskcolor="#d1d1d1"
     showguides="false" />
  <defs
     id="defs2" />
  <rect
     style="fill:#4a943e;fill-opacity:1;stroke-width:0.264583"
     id="rect846"
     width="14.816667"
     height="14.816667"
     x="1.0583334"
     y="1.0583334"
     ry="3.175" />
  <path
     id="rect14930"
     style="opacity:1;fill:#f8f8f8;fill-opacity:1;stroke-width:0.264583"
     d="M 4.2333267,2.1166666 C 3.0606944,2.1166666 2.11666,3.060701 2.11666,4.2333333 V 12.7 c 0,1.172632 0.9440344,2.116667 2.1166667,2.116667 h 8.4666663 c 1.172632,0 2.116667,-0.944035 2.116667,-2.116667 V 5.8208333 C 14.819154,5.3435331 14.468646,4.9793289 14.287493,4.7624999 L 12.234905,2.490804 C 11.899168,2.1515388 11.393909,2.1418966 11.112493,2.1166666 Z" />
  <path
     id="rect3581"
     style="opacity:0.2;fill:#000000;fill-opacity:1;stroke-width:0.264583"
     d="M 4.7625005,5.8208334 V 12.435416 H 8.9958336 V 12.7 c 0,0.146579 0.118005,0.264583 0.264584,0.264583 h 2.9104164 c 0.146579,0 0.264584,-0.118004 0.264584,-0.264583 v -2.645833 c 0,-0.1465793 -0.118005,-0.2645836 -0.264584,-0.2645836 v -3.96875 z" />
  <rect
     style="opacity:1;fill:#ffffff;stroke-width:0.27744"
     id="rect2853"
     width="7.1437502"
     height="4.7624998"
     x="4.8947916"
     y="7.2760415" />
  <path
     id="rect854"
     style="fill:#4b9e40;fill-opacity:1;stroke-width:1.43763;stroke-linejoin:round"
     d="M 4.7625001,5.5562501 V 12.170834 H 12.170834 V 5.5562501 Z M 5.0270834,5.8208334 H 11.90625 V 7.1437501 H 5.0270834 Z m 0,1.5875 H 7.1437501 V 8.73125 H 5.0270834 Z m 2.38125,0 H 9.525 V 8.73125 H 7.4083334 Z m 2.38125,0 H 11.90625 V 8.73125 H 9.7895834 Z m -4.7625,1.5875 H 7.1437501 V 10.31875 H 5.0270834 Z m 2.38125,0 H 9.525 V 10.31875 H 7.4083334 Z m 2.38125,0 H 11.90625 V 10.31875 H 9.7895834 Z m -4.7625,1.5875006 H 7.1437501 V 11.90625 H 5.0270834 Z m 2.38125,0 H 9.525 V 11.90625 H 7.4083334 Z m 2.38125,0 H 11.90625 V 11.90625 H 9.7895834 Z" />
  <rect
     style="fill:#aed99f;fill-opacity:1;stroke-width:0.529167;stroke-linejoin:round"
     id="rect855"
     width="6.8791666"
     height="1.3229166"
     x="5.0270839"
     y="5.8208332" />
  <rect
     style="fill:#b3b3b3;stroke-width:0.483319;stroke-linejoin:round"
     id="rect864"
     width="3.4395833"
     height="3.175"
     x="8.9958315"
     y="9.5249996"
     ry="0.26458332" />
  <rect
     style="fill:#ffffff;stroke-width:0.474913;stroke-linejoin:round"
     id="rect868"
     width="2.9104166"
     height="2.6458333"
     x="9.2604151"
     y="9.7895832" />
  <rect
     style="fill:#40bdff;fill-opacity:1;stroke-width:0.683151;stroke-linejoin:round"
     id="rect1289"
     width="0.52916718"
     height="1.3229166"
     x="9.5249987"
     y="11.1125"
     ry="0" />
  <rect
     style="fill:#ff9640;fill-opacity:1;stroke-width:0.748355;stroke-linejoin:round"
     id="rect2871"
     width="0.79374999"
     height="2.1166666"
     x="10.318748"
     y="10.31875" />
  <rect
     style="fill:#ffd140;fill-opacity:1;stroke-width:0.473301;stroke-linejoin:round"
     id="rect3261"
     width="0.52916718"
     height="1.0583333"
     x="11.377082"
     y="11.377084" />
  <path
     id="rect12059"
     style="opacity:0.2;fill:#ffffff;fill-opacity:1;stroke-width:0.999999"
     d="M 16 4 C 9.3519997 4 4 9.3519997 4 16 L 4 17 C 4 10.352 9.3519997 5 16 5 L 48 5 C 54.648 5 60 10.352 60 17 L 60 16 C 60 9.3519997 54.648 4 48 4 L 16 4 z "
     transform="scale(0.26458334)" />
  <path
     id="rect14210"
     style="opacity:0.2;fill:#000000;fill-opacity:1;stroke-width:0.999999"
     d="M 4 47 L 4 48 C 4 54.648 9.3519997 60 16 60 L 48 60 C 54.648 60 60 54.648 60 48 L 60 47 C 60 53.648 54.648 59 48 59 L 16 59 C 9.3519997 59 4 53.648 4 47 z "
     transform="scale(0.26458334)" />
</svg>
