<?xml version="1.0" encoding="UTF-8" standalone="no"?>
<!-- Created with Inkscape (http://www.inkscape.org/) -->

<svg
   width="64"
   height="64"
   viewBox="0 0 16.933333 16.933334"
   version="1.1"
   id="svg5"
   inkscape:version="1.2 (dc2aedaf03, 2022-05-15)"
   sodipodi:docname="libreoffice-impress.svg"
   xmlns:inkscape="http://www.inkscape.org/namespaces/inkscape"
   xmlns:sodipodi="http://sodipodi.sourceforge.net/DTD/sodipodi-0.dtd"
   xmlns="http://www.w3.org/2000/svg"
   xmlns:svg="http://www.w3.org/2000/svg">
  <sodipodi:namedview
     id="namedview7"
     pagecolor="#ffffff"
     bordercolor="#666666"
     borderopacity="1.0"
     inkscape:pageshadow="2"
     inkscape:pageopacity="0.0"
     inkscape:pagecheckerboard="0"
     inkscape:document-units="px"
     showgrid="false"
     units="px"
     height="64px"
     inkscape:zoom="13.53125"
     inkscape:cx="31.963048"
     inkscape:cy="32"
     inkscape:window-width="1920"
     inkscape:window-height="1024"
     inkscape:window-x="0"
     inkscape:window-y="32"
     inkscape:window-maximized="1"
     inkscape:current-layer="svg5"
     inkscape:showpageshadow="2"
     inkscape:deskcolor="#d1d1d1" />
  <defs
     id="defs2" />
  <rect
     style="fill:#ec790b;fill-opacity:1;stroke-width:0.264583"
     id="rect846"
     width="14.816667"
     height="14.816667"
     x="1.0583334"
     y="1.0583334"
     ry="3.175" />
  <path
     id="rect14930"
     style="opacity:1;fill:#f8f8f8;stroke-width:0.264583;fill-opacity:1"
     d="M 4.2333334 2.1166667 C 3.0607011 2.1166667 2.1166667 3.0607011 2.1166667 4.2333334 L 2.1166667 12.7 C 2.1166667 13.872632 3.0607011 14.816667 4.2333334 14.816667 L 12.7 14.816667 C 13.872632 14.816667 14.816667 13.872632 14.816667 12.7 L 14.816667 5.8208334 C 14.819161 5.3435332 14.468653 4.979329 14.2875 4.7625 L 12.234912 2.4908041 C 11.899175 2.1515389 11.393916 2.1418967 11.1125 2.1166667 L 4.2333334 2.1166667 z " />
  <path
     d="m 5.2916682,5.8208334 c -0.146579,0 -0.264584,0.1180044 -0.264584,0.2645833 v 4.7625003 c 0,0.146579 0.118005,0.264583 0.264584,0.264583 h 2.379182 v 0.267167 L 6.0854172,12.7 H 7.143756 l 1.1213732,-1.058333 h 0.271301 L 9.7896105,12.7 H 10.847917 L 9.1260582,11.377083 V 11.1125 h 2.5156088 c 0.146578,0 0.264582,-0.118004 0.264582,-0.264583 V 6.0854167 c 0,-0.1465789 -0.118004,-0.2645833 -0.264582,-0.2645833 z"
     style="opacity:0.2;fill:#000000;fill-opacity:1;stroke-width:0.529167;stroke-linejoin:round"
     id="path3936"
     sodipodi:nodetypes="ssssccccccccccsssss" />
  <path
     id="rect1688"
     style="fill:#787878;fill-opacity:1;stroke-width:0.529167;stroke-linejoin:round"
     d="m 7.670853,10.318749 h 1.45515 v 0.793739 l 1.721914,1.322928 H 9.7895563 l -1.2531453,-1.058334 -0.271304,-10e-7 -1.1213629,1.058335 -1.0583273,-10e-7 1.5854362,-1.320323 z"
     sodipodi:nodetypes="ccccccccccc" />
  <path
     id="rect1008"
     style="fill:#f2910c;fill-opacity:1;stroke-width:0.594037;stroke-linejoin:round"
     d="m 5.291667,5.5562501 h 6.35 c 0.146579,0 0.264583,0.1180042 0.264583,0.2645833 v 4.7624986 c 0,0.146579 -0.118004,0.264584 -0.264583,0.264584 h -6.35 c -0.1465791,0 -0.2645833,-0.118005 -0.2645833,-0.264584 V 5.8208334 c 0,-0.1465791 0.1180042,-0.2645833 0.2645833,-0.2645833 z"
     sodipodi:nodetypes="sssssssss" />
  <path
     id="rect2699"
     style="opacity:0.35;fill:#ffffff;fill-opacity:0.999779;stroke-width:0.382277;stroke-linejoin:round"
     d="m 5.5562502,6.0854167 v 0.79375 h 5.8208328 v -0.79375 z M 5.8208335,7.4083334 A 0.26458332,0.26458332 0 0 0 5.5562502,7.6729167 0.26458332,0.26458332 0 0 0 5.8208335,7.9375 0.26458332,0.26458332 0 0 0 6.0854168,7.6729167 0.26458332,0.26458332 0 0 0 5.8208335,7.4083334 Z m 0.79375,0 V 7.9375 h 1.5875 V 7.4083334 Z m -0.79375,1.0583333 A 0.26458332,0.26458332 0 0 0 5.5562502,8.73125 0.26458332,0.26458332 0 0 0 5.8208335,8.9958334 0.26458332,0.26458332 0 0 0 6.0854168,8.73125 0.26458332,0.26458332 0 0 0 5.8208335,8.4666667 Z m 0.79375,0 v 0.5291667 h 1.5875 V 8.4666667 Z M 5.8208335,9.525 A 0.26458332,0.26458311 0 0 0 5.5562502,9.7895827 0.26458332,0.26458311 0 0 0 5.8208335,10.054166 0.26458332,0.26458311 0 0 0 6.0854168,9.7895827 0.26458332,0.26458311 0 0 0 5.8208335,9.525 Z m 0.79375,0 v 0.529166 h 1.5875 V 9.525 Z" />
  <rect
     style="fill:#f3f3f3;fill-opacity:1;stroke-width:0.581237;stroke-linejoin:round"
     id="rect2869"
     width="2.645833"
     height="2.645833"
     x="8.7312498"
     y="7.4083328" />
  <path
     d="m 10.938162,7.7680567 c -0.03325,0.011052 -0.06075,0.03484 -0.07648,0.066146 L 10.391942,8.774197 9.8043817,8.480675 C 9.7391577,8.448132 9.6598996,8.474475 9.6271315,8.539585 L 9.0979649,9.597918 c -0.032826,0.065489 -0.00618,0.1451857 0.059428,0.1777667 0.065361,0.03248 0.1446761,0.0059 0.1772502,-0.05943 l 0.4697386,-0.9399939 0.5875603,0.293522 c 0.06522,0.032542 0.144482,0.0062 0.17725,-0.05891 l 0.529167,-1.0583316 c 0.0329,-0.065351 0.0065,-0.1449968 -0.05891,-0.177767 -0.03153,-0.015619 -0.06797,-0.018037 -0.101286,-0.00672 z"
     style="color:#000000;fill:#169403;fill-opacity:1;stroke-width:0.264583;stroke-linecap:round;stroke-linejoin:round;-inkscape-stroke:none"
     id="path458" />
  <path
     id="rect12059"
     style="opacity:0.2;fill:#ffffff;fill-opacity:1;stroke-width:0.999999"
     d="M 16 4 C 9.3519997 4 4 9.3519997 4 16 L 4 17 C 4 10.352 9.3519997 5 16 5 L 48 5 C 54.648 5 60 10.352 60 17 L 60 16 C 60 9.3519997 54.648 4 48 4 L 16 4 z "
     transform="scale(0.26458334)" />
  <path
     id="rect14210"
     style="opacity:0.2;fill:#000000;fill-opacity:1;stroke-width:0.999999"
     d="M 4 47 L 4 48 C 4 54.648 9.3519997 60 16 60 L 48 60 C 54.648 60 60 54.648 60 48 L 60 47 C 60 53.648 54.648 59 48 59 L 16 59 C 9.3519997 59 4 53.648 4 47 z "
     transform="scale(0.26458334)" />
</svg>
