<?xml version="1.0" encoding="UTF-8" standalone="no"?>
<!-- Created with Inkscape (http://www.inkscape.org/) -->

<svg
   width="64"
   height="64"
   viewBox="0 0 16.933333 16.933334"
   version="1.1"
   id="svg5"
   inkscape:version="1.1.2 (0a00cf5339, 2022-02-04, custom)"
   sodipodi:docname="preferences-system-login.svg"
   xmlns:inkscape="http://www.inkscape.org/namespaces/inkscape"
   xmlns:sodipodi="http://sodipodi.sourceforge.net/DTD/sodipodi-0.dtd"
   xmlns="http://www.w3.org/2000/svg"
   xmlns:svg="http://www.w3.org/2000/svg">
  <sodipodi:namedview
     id="namedview7"
     pagecolor="#ffffff"
     bordercolor="#666666"
     borderopacity="1.0"
     inkscape:pageshadow="2"
     inkscape:pageopacity="0.0"
     inkscape:pagecheckerboard="0"
     inkscape:document-units="px"
     showgrid="false"
     units="px"
     height="64px"
     inkscape:zoom="12.25"
     inkscape:cx="32.040816"
     inkscape:cy="32"
     inkscape:window-width="1920"
     inkscape:window-height="1017"
     inkscape:window-x="0"
     inkscape:window-y="32"
     inkscape:window-maximized="1"
     inkscape:current-layer="svg5" />
  <defs
     id="defs2" />
  <rect
     style="fill:#4bc4f7;stroke-width:0.264583;fill-opacity:1"
     id="rect846"
     width="14.816667"
     height="14.816667"
     x="1.0583335"
     y="1.0583333"
     ry="3.175" />
  <rect
     style="opacity:0.4;fill:#ffffff;fill-opacity:1;stroke-width:0.79375;stroke-linejoin:round"
     id="rect1300"
     width="12.7"
     height="10.054167"
     x="2.1166668"
     y="3.4395833"
     ry="1.5875" />
  <rect
     style="opacity:1;fill:#ffffff;fill-opacity:1;stroke-width:0.79375;stroke-linejoin:round"
     id="rect1840"
     width="8.9958334"
     height="2.6458333"
     x="3.9255526"
     y="7.1437502"
     ry="0.5291667" />
  <path
     id="path2046"
     style="opacity:1;fill:#4d4d4d;fill-opacity:1;stroke-width:3;stroke-linejoin:round"
     d="M 20 29 A 2.9999999 2.9999999 0 0 0 17 32 A 2.9999999 2.9999999 0 0 0 20 35 A 2.9999999 2.9999999 0 0 0 23 32 A 2.9999999 2.9999999 0 0 0 20 29 z M 28 29 A 2.9999999 2.9999999 0 0 0 25 32 A 2.9999999 2.9999999 0 0 0 28 35 A 2.9999999 2.9999999 0 0 0 31 32 A 2.9999999 2.9999999 0 0 0 28 29 z M 36 29 A 2.9999999 2.9999999 0 0 0 33 32 A 2.9999999 2.9999999 0 0 0 36 35 A 2.9999999 2.9999999 0 0 0 39 32 A 2.9999999 2.9999999 0 0 0 36 29 z "
     transform="scale(0.26458334)" />
  <path
     id="rect845"
     style="opacity:0.2;fill:#000000;stroke-width:0.999999"
     d="M 4 47 L 4 48 C 4 54.648 9.3519997 60 16 60 L 48 60 C 54.648 60 60 54.648 60 48 L 60 47 C 60 53.648 54.648 59 48 59 L 16 59 C 9.3519997 59 4 53.648 4 47 z "
     transform="scale(0.26458334)" />
  <path
     id="rect843"
     style="opacity:0.2;fill:#ffffff;stroke-width:0.999999"
     d="M 16 4 C 9.3519997 4 4 9.3519997 4 16 L 4 17 C 4 10.352 9.3519997 5 16 5 L 48 5 C 54.648 5 60 10.352 60 17 L 60 16 C 60 9.3519997 54.648 4 48 4 L 16 4 z "
     transform="scale(0.26458334)" />
  <circle
     style="fill:#e6e6e6;fill-opacity:1;stroke-width:0.846667;stroke-linejoin:round"
     id="path849"
     cx="12.170834"
     cy="12.170834"
     r="4.2333336" />
  <circle
     style="fill:#666666;fill-opacity:1;stroke-width:0.854808;stroke-linejoin:round"
     id="path1107"
     cx="12.170834"
     cy="12.170834"
     r="3.7041667" />
  <path
     d="m 13.989579,9.3440232 -0.142875,0.3815289 c -0.0093,0.02514 0,0.05821 0.02117,0.07461 l 0.168275,0.128587 c 0.02064,0.01587 0.05556,0.01667 0.07752,0.0011 l 0.331259,-0.2365383 c 0.02295,-0.01548 0.0536,-0.01284 0.07355,0.0063 l 0.138906,0.1386423 c 0.0191,0.02002 0.02164,0.05066 0.0061,0.07355 l -0.236538,0.3312589 c -0.0154,0.0237 -0.01488,0.05437 0.0013,0.07752 l 0.128852,0.168011 c 0.01588,0.02064 0.04974,0.03069 0.07461,0.02117 l 0.381,-0.142875 c 0.02614,-0.009 0.05501,0.0015 0.06932,0.02514 l 0.09816,0.169862 c 0.01376,0.02381 0.0077,0.05556 -0.01323,0.07276 l -0.314325,0.258762 c -0.02104,0.01885 -0.02848,0.04861 -0.01879,0.07514 l 0.0807,0.195792 c 0.01005,0.02381 0.03995,0.04233 0.06668,0.03969 l 0.405342,-0.03942 c 0.02646,-0.0026 0.05398,0.01614 0.06085,0.04207 l 0.05053,0.189706 c 0.0068,0.02682 -0.0063,0.05469 -0.03122,0.06668 l -0.371211,0.16854 c -0.02535,0.01275 -0.04027,0.03975 -0.03757,0.068 l 0.02778,0.20955 c 0.0051,0.02771 0.02642,0.04963 0.05397,0.05556 l 0.401902,0.06694 c 0.02646,0.0045 0.04763,0.02963 0.04763,0.05636 v 0.196321 c -5.56e-4,0.02763 -0.02045,0.05107 -0.04763,0.05609 l -0.401373,0.06694 c -0.0277,0.0057 -0.04911,0.02771 -0.05397,0.05556 l -0.02752,0.210079 c -0.0022,0.02813 0.01274,0.05483 0.03784,0.06773 l 0.370416,0.16854 c 0.02462,0.01228 0.03755,0.0399 0.03122,0.06668 l -0.05053,0.189441 c -0.0076,0.02681 -0.03307,0.04453 -0.06086,0.04233 l -0.404812,-0.03942 c -0.02828,-0.0018 -0.05474,0.01399 -0.06668,0.03969 l -0.08123,0.195792 c -0.0095,0.02654 -0.0021,0.05622 0.01878,0.07514 l 0.31459,0.258762 c 0.02064,0.0172 0.02646,0.04948 0.01323,0.07276 l -0.09843,0.169862 c -0.01434,0.02377 -0.04336,0.03425 -0.06959,0.02514 l -0.38153,-0.142875 c -0.02678,-0.0088 -0.05621,-3.97e-4 -0.07435,0.02117 l -0.128588,0.168011 c -0.01599,0.02323 -0.01651,0.05377 -0.0013,0.07752 l 0.236538,0.331523 c 0.01555,0.02289 0.01302,0.05353 -0.0061,0.07355 l -0.138906,0.138641 c -0.01996,0.01919 -0.0506,0.02183 -0.07355,0.0063 L 14.113897,14.44276 c -0.0237,-0.0154 -0.05437,-0.01488 -0.07752,0.0013 l -0.168275,0.128852 c -0.02138,0.01826 -0.02972,0.04756 -0.02117,0.07435 l 0.142875,0.381264 c 0.009,0.02614 -0.0015,0.05501 -0.02514,0.06932 l -0.169863,0.0979 c -0.02419,0.01335 -0.05443,0.0079 -0.07249,-0.01296 l -0.259027,-0.314325 c -0.01885,-0.02104 -0.04861,-0.02848 -0.07514,-0.01879 l -0.195527,0.0807 c -0.02535,0.01217 -0.04097,0.03832 -0.03969,0.06641 l 0.03916,0.405607 c 0.0026,0.02646 -0.01588,0.05371 -0.04207,0.06085 l -0.189442,0.05053 c -0.02689,0.0067 -0.05478,-0.0065 -0.06668,-0.03148 l -0.168804,-0.370946 c -0.01271,-0.02525 -0.03958,-0.04015 -0.06773,-0.03757 l -0.209815,0.02752 c -0.02779,0.0052 -0.04972,0.02658 -0.05556,0.05424 l -0.06694,0.401638 c -0.0053,0.02702 -0.02857,0.04678 -0.05609,0.04763 h -0.19632 c -0.02773,-4.23e-4 -0.05132,-0.02035 -0.05636,-0.04763 l -0.06668,-0.401372 c -0.0058,-0.0276 -0.02778,-0.04888 -0.05556,-0.05371 l -0.210079,-0.02752 c -0.02813,-0.0022 -0.05483,0.01274 -0.06773,0.03783 l -0.168539,0.370417 c -0.01228,0.02462 -0.0399,0.03755 -0.06668,0.03122 l -0.189707,-0.0508 c -0.0267,-0.0077 -0.04429,-0.03315 -0.04207,-0.06085 l 0.03916,-0.404813 c 0.0016,-0.02818 -0.01408,-0.05451 -0.03969,-0.06641 l -0.195791,-0.08123 c -0.02641,-0.0095 -0.05594,-0.0022 -0.07488,0.01852 l -0.259027,0.314855 c -0.01821,0.02086 -0.04847,0.02625 -0.07276,0.01296 l -0.169862,-0.09816 c -0.02367,-0.01442 -0.03404,-0.04343 -0.02487,-0.06959 l 0.142875,-0.381529 c 0.0088,-0.02678 3.97e-4,-0.05621 -0.02117,-0.07435 l -0.168275,-0.128852 c -0.02328,-0.01591 -0.05382,-0.01633 -0.07752,-0.0011 l -0.3312145,0.236661 c -0.02289,0.01555 -0.05353,0.01302 -0.07355,-0.0061 L 9.6837494,14.534356 c -0.0191,-0.02002 -0.02164,-0.05066 -0.0061,-0.07355 l 0.2365381,-0.331259 c 0.0154,-0.02369 0.01488,-0.05437 -0.0013,-0.07752 l -0.1291171,-0.16801 c -0.01822,-0.02127 -0.04738,-0.0296 -0.07408,-0.02117 l -0.3815295,0.142875 c -0.026143,0.009 -0.055006,-0.0015 -0.069321,-0.02513 l -0.097896,-0.169863 c -0.013496,-0.02426 -0.00808,-0.05466 0.012964,-0.07276 l 0.3145785,-0.258772 c 0.020947,-0.01891 0.028281,-0.04866 0.018521,-0.07514 l -0.080698,-0.195793 c -0.012137,-0.02526 -0.038147,-0.04087 -0.066146,-0.03969 l -0.4058708,0.03969 c -0.027628,0.0019 -0.052829,-0.01575 -0.06059,-0.04233 l -0.0508,-0.189442 c -0.00668,-0.02695 0.00662,-0.05487 0.03175,-0.06668 l 0.3706812,-0.168804 c 0.025355,-0.01263 0.040373,-0.03952 0.037835,-0.06773 l -0.027781,-0.209814 c -0.00513,-0.02771 -0.026421,-0.04963 -0.053975,-0.05556 l -0.4019014,-0.06694 c -0.027112,-0.0053 -0.046903,-0.02874 -0.047625,-0.05636 v -0.196057 c 4.234e-4,-0.02773 0.020352,-0.05132 0.047625,-0.05636 l 0.4013729,-0.06694 c 0.027598,-0.0058 0.048884,-0.02778 0.05371,-0.05556 l 0.027517,-0.209815 c 0.00233,-0.02817 -0.012488,-0.05497 -0.037571,-0.068 L 8.8741239,11.463337 c -0.024725,-0.0122 -0.037776,-0.03983 -0.031485,-0.06668 l 0.0508,-0.189442 c 0.00714,-0.02646 0.034396,-0.04498 0.060854,-0.04233 l 0.4048125,0.03942 c 0.028277,0.0018 0.054743,-0.01399 0.066675,-0.03969 l 0.081227,-0.195791 c 0.00954,-0.02654 0.00212,-0.05622 -0.018785,-0.07514 L 9.1736323,10.634926 c -0.020947,-0.01814 -0.026453,-0.04841 -0.013229,-0.07276 l 0.09816,-0.169862 c 0.014422,-0.02367 0.043427,-0.03404 0.069585,-0.02487 l 0.3817931,0.142875 c 0.02487,0.0093 0.05821,-2.65e-4 0.07408,-0.02117 l 0.1288521,-0.168275 c 0.01591,-0.02328 0.01633,-0.05382 0.0011,-0.07752 L 9.6773994,9.9118194 c -0.01534,-0.02289 -0.0127,-0.05337 0.0063,-0.07329 L 9.8226055,9.6996221 c 0.01996,-0.01919 0.0506,-0.02183 0.07355,-0.0063 L 10.22715,9.9298604 c 0.02369,0.0154 0.05437,0.01488 0.07752,-0.0013 l 0.16801,-0.128852 c 0.02138,-0.01826 0.02972,-0.04756 0.02117,-0.07435 L 10.351029,9.3442878 c -0.0091,-0.026284 0.0015,-0.055326 0.0254,-0.069585 l 0.169862,-0.097896 c 0.02419,-0.013351 0.05443,-0.00794 0.0725,0.012965 l 0.259027,0.314325 c 0.01693,0.020637 0.05054,0.029104 0.07488,0.01905 l 0.195792,-0.080963 c 0.02381,-0.010054 0.04233,-0.039687 0.03969,-0.06641 L 11.14876,8.9701676 c -0.002,-0.027724 0.01565,-0.053073 0.04233,-0.060854 l 0.189442,-0.050271 c 0.02682,-0.00675 0.05469,0.00629 0.06668,0.031221 l 0.168804,0.3709458 c 0.01271,0.025252 0.03958,0.040155 0.06773,0.037571 l 0.209815,-0.027517 c 0.02771,-0.00513 0.04963,-0.026421 0.05556,-0.053975 l 0.06694,-0.4019021 c 0.0042,-0.026458 0.02963,-0.047625 0.05609,-0.047625 h 0.196321 c 0.02763,5.556e-4 0.05107,0.020447 0.05609,0.047625 l 0.06694,0.4013729 c 0.0045,0.026458 0.0291,0.050271 0.05556,0.05371 l 0.210079,0.027517 c 0.02807,0.00222 0.05475,-0.012581 0.06773,-0.037571 l 0.168539,-0.370417 c 0.0122,-0.024725 0.03983,-0.037776 0.06668,-0.031485 l 0.189706,0.0508 c 0.02646,0.00714 0.04472,0.034131 0.04207,0.060854 l -0.03916,0.4048125 c -0.0016,0.028183 0.01408,0.054514 0.03969,0.06641 l 0.195792,0.081492 c 0.02381,0.00979 0.05821,0.00159 0.07488,-0.018785 l 0.259027,-0.3148541 c 0.01817,-0.020725 0.04827,-0.026107 0.0725,-0.012965 l 0.169862,0.09816 c 0.02381,0.013758 0.0344,0.044715 0.02514,0.069585 z M 13.339233,10.157089 C 12.810721,9.8508744 12.183286,9.7638724 11.591395,9.9147304 c -0.110066,0.02805 -0.04551,0.0127 -0.04551,0.0127 -0.153194,0.05239 -0.214312,0.2100796 -0.137054,0.3511026 0,0 -0.04445,-0.08123 0.0037,0.0061 l 0.687388,1.254125 c 0.103716,0.189442 0.362479,0.338931 0.578643,0.334698 l 1.523736,-0.03175 c 0.09419,-0.0021 0,0 0,0 0.156104,-0.0034 0.257969,-0.134937 0.223837,-0.28231 -0.163778,-0.592109 -0.554163,-1.095893 -1.086643,-1.402292 z m -0.03837,4.079081 c 0.534665,-0.295464 0.932337,-0.788589 1.107811,-1.373716 0.03281,-0.10848 0.0127,-0.04524 0.0127,-0.04524 0.0344,-0.158486 -0.06959,-0.291836 -0.230188,-0.29845 0,0 0.0926,0.0037 -0.0071,0 l -1.429015,-0.05689 c -0.215635,-0.0087 -0.477308,0.136261 -0.584729,0.323586 l -0.757767,1.322387 c -0.04683,0.08202 0,0 0,0 -0.07752,0.135996 -0.01693,0.290777 0.127,0.337344 0,0 -0.09102,-0.02513 0,0 0.59176,0.164566 1.224524,0.08948 1.761331,-0.209021 z M 10.52803,13.863108 c 0.112448,0.101071 0.277019,0.07593 0.3556,-0.05927 0,0 -0.04763,0.08149 0,0 l 0.766233,-1.31736 c 0.10848,-0.186796 0.103188,-0.485775 -0.01191,-0.668073 l -0.763587,-1.209146 c -0.05345,-0.08467 -0.0037,-0.0061 -0.0037,-0.0061 -0.08573,-0.135995 -0.25347,-0.159014 -0.373591,-0.05027 0,0 0.04498,-0.04921 -0.03281,0.0336 -0.418955,0.444552 -0.6471795,1.035483 -0.6357935,1.646237 0.0098,0.614261 0.2612325,1.199924 0.6998235,1.630098 z"
     style="fill:#ffffff;stroke-width:0.264583;image-rendering:optimizeSpeed"
     id="path864" />
  <rect
     style="opacity:1;fill:#ffffff;fill-opacity:1;stroke-width:0.79375;stroke-linejoin:round"
     id="rect1648"
     width="4.2333336"
     height="0.5291667"
     x="3.9255526"
     y="5.5562501" />
</svg>
