<?xml version="1.0" encoding="UTF-8" standalone="no"?>
<!-- Created with Inkscape (http://www.inkscape.org/) -->

<svg
   width="64"
   height="64"
   viewBox="0 0 16.933333 16.933334"
   version="1.1"
   id="svg5"
   inkscape:version="1.1.2 (0a00cf5339, 2022-02-04, custom)"
   sodipodi:docname="utilities-log-viewer.svg"
   xmlns:inkscape="http://www.inkscape.org/namespaces/inkscape"
   xmlns:sodipodi="http://sodipodi.sourceforge.net/DTD/sodipodi-0.dtd"
   xmlns="http://www.w3.org/2000/svg"
   xmlns:svg="http://www.w3.org/2000/svg">
  <sodipodi:namedview
     id="namedview7"
     pagecolor="#ffffff"
     bordercolor="#666666"
     borderopacity="1.0"
     inkscape:pageshadow="2"
     inkscape:pageopacity="0.0"
     inkscape:pagecheckerboard="0"
     inkscape:document-units="px"
     showgrid="false"
     units="px"
     height="64px"
     inkscape:zoom="12.25"
     inkscape:cx="32.040816"
     inkscape:cy="32"
     inkscape:window-width="1920"
     inkscape:window-height="1017"
     inkscape:window-x="0"
     inkscape:window-y="32"
     inkscape:window-maximized="1"
     inkscape:current-layer="svg5" />
  <defs
     id="defs2" />
  <rect
     style="fill:#cccccc;fill-opacity:1;stroke-width:0.264583"
     id="rect846"
     width="14.816667"
     height="14.816667"
     x="1.0583334"
     y="1.0583334"
     ry="3.175" />
  <path
     id="rect12059"
     style="opacity:0.2;fill:#ffffff;fill-opacity:1;stroke-width:0.999999"
     d="M 16 4 C 9.3519997 4 4 9.3519997 4 16 L 4 17 C 4 10.352 9.3519997 5 16 5 L 48 5 C 54.648 5 60 10.352 60 17 L 60 16 C 60 9.3519997 54.648 4 48 4 L 16 4 z "
     transform="scale(0.26458334)" />
  <path
     id="rect14210"
     style="opacity:0.2;fill:#000000;fill-opacity:1;stroke-width:0.999999"
     d="M 4 47 L 4 48 C 4 54.648 9.3519997 60 16 60 L 48 60 C 54.648 60 60 54.648 60 48 L 60 47 C 60 53.648 54.648 59 48 59 L 16 59 C 9.3519997 59 4 53.648 4 47 z "
     transform="scale(0.26458334)" />
  <rect
     style="opacity:1;fill:#333333;fill-opacity:1;stroke-width:0.264583"
     id="rect14930"
     width="13.229167"
     height="13.229167"
     x="1.8520833"
     y="1.8520833"
     ry="2.3812499" />
  <path
     id="rect1228"
     style="opacity:0.2;fill:#ffffff;fill-opacity:1;stroke-width:0.79375;stroke-linejoin:round"
     d="m 4.2333333,1.8520834 c -1.3192125,0 -2.38125,1.0620375 -2.38125,2.3812501 v 0.2645833 c 0,-1.3192125 1.0620375,-2.3812501 2.38125,-2.3812501 H 12.7 c 1.319213,0 2.38125,1.0620376 2.38125,2.3812501 V 4.2333335 c 0,-1.3192126 -1.062037,-2.3812501 -2.38125,-2.3812501 z" />
  <rect
     style="opacity:0.05;fill:#ffffff;stroke-width:0.79375;stroke-linejoin:round"
     id="rect847"
     width="11.1125"
     height="11.1125"
     x="2.9104166"
     y="2.9104166"
     ry="1.3229166" />
  <path
     id="path9285"
     style="font-size:3.83716px;line-height:1.25;font-family:'Ubuntu Mono';-inkscape-font-specification:'Ubuntu Mono';fill:#ffd031;fill-opacity:1;stroke-width:0.348281"
     d="m 29.355469,20.111328 c -0.1486,0 -0.316205,0.0043 -0.501953,0.01367 -0.185749,0.0093 -0.375275,0.02437 -0.570313,0.04297 -0.185749,0.0093 -0.370891,0.02683 -0.556641,0.05469 -0.176462,0.02785 -0.335299,0.06051 -0.474609,0.09766 v 8.498047 h 1.154297 v -3.40039 h 0.976562 0.210938 c 0.111451,0 0.192325,-0.0044 0.248047,-0.01367 0.306486,0.380787 0.622203,0.879212 0.947265,1.492187 0.334354,0.612974 0.641297,1.253175 0.919922,1.921875 h 1.226563 c -0.1486,-0.325041 -0.309866,-0.653931 -0.486328,-0.988281 -0.167176,-0.343638 -0.341115,-0.67446 -0.517578,-0.990234 -0.176464,-0.325063 -0.350882,-0.627625 -0.527344,-0.90625 -0.167177,-0.287912 -0.321627,-0.542725 -0.460938,-0.765625 0.473662,-0.2229 0.850281,-0.534231 1.128907,-0.933594 0.278624,-0.40865 0.417968,-0.876863 0.417968,-1.40625 10e-7,-0.900887 -0.265532,-1.580069 -0.794922,-2.035156 -0.5201,-0.455088 -1.299644,-0.681638 -2.339843,-0.681641 z M 13,20.195312 c 0.02786,0.770864 0.06051,1.546023 0.09766,2.326172 0.03715,0.780151 0.07856,1.542156 0.125,2.285157 0.05572,0.743 0.112244,1.457256 0.167969,2.144531 0.06502,0.677988 0.139068,1.300649 0.222656,1.867187 h 1.072266 l 1.337891,-4.291015 1.351562,4.291015 h 1.058594 c 0.0743,-0.575825 0.143969,-1.202871 0.208984,-1.880859 0.06501,-0.677988 0.125915,-1.383474 0.181641,-2.117188 0.05572,-0.743 0.101519,-1.505006 0.138672,-2.285156 0.04644,-0.78015 0.08151,-1.559693 0.109375,-2.339844 h -1.113282 l -0.152343,7.203126 -1.28125,-3.929688 h -1.003907 l -1.253906,3.929688 -0.152344,-7.203126 z m 9.320312,0 c -0.278624,0.687276 -0.544158,1.410299 -0.794921,2.171876 -0.250763,0.752287 -0.492422,1.505525 -0.72461,2.257812 -0.2229,0.752287 -0.431916,1.486033 -0.626953,2.201172 -0.195037,0.715137 -0.37141,1.379212 -0.529297,1.992187 h 1.171875 l 0.5,-2.257812 h 3.316406 l 0.515626,2.257812 h 1.210937 c -0.157887,-0.612975 -0.332308,-1.27705 -0.527344,-1.992187 -0.195037,-0.715139 -0.404052,-1.448885 -0.626953,-2.201172 -0.213612,-0.752287 -0.448456,-1.505525 -0.699219,-2.257812 -0.241475,-0.761577 -0.496288,-1.4846 -0.765625,-2.171876 z m 11.896485,0 v 8.623047 h 1.044922 v -6.882812 c 0.260061,0.492237 0.514866,0.984325 0.765625,1.476562 0.250768,0.482951 0.503143,0.998913 0.753906,1.546875 0.260062,0.547963 0.529969,1.137982 0.808594,1.769532 0.278615,0.622262 0.574853,1.31898 0.890625,2.089843 h 1.169922 v -8.623047 h -1.044922 v 6.63086 c -0.278635,-0.677988 -0.52906,-1.27239 -0.751953,-1.783203 -0.22289,-0.5201 -0.45383,-1.020955 -0.695313,-1.503907 -0.232188,-0.492237 -0.493338,-0.997478 -0.78125,-1.517578 -0.278628,-0.5201 -0.607495,-1.129607 -0.988281,-1.826172 z m 7.439453,0 v 0.97461 h 1.671875 v 6.671875 H 41.65625 v 0.976562 h 4.486328 v -0.976562 h -1.671875 v -6.671875 h 1.671875 v -0.97461 z m 6.492188,0 v 8.623047 h 1.044921 v -6.882812 c 0.26007,0.492237 0.514861,0.984325 0.765625,1.476562 0.250772,0.482951 0.501188,0.998913 0.751954,1.546875 0.260069,0.547963 0.529966,1.137982 0.808593,1.769532 0.278627,0.622262 0.57485,1.31898 0.890625,2.089843 H 53 v -8.623047 h -0.462891 v 6.63086 c -0.27863,-0.677988 -0.529055,-1.27239 -0.751953,-1.783203 -0.222894,-0.5201 -0.45578,-1.020955 -0.697265,-1.503907 -0.232188,-0.492237 -0.491384,-0.997478 -0.779297,-1.517578 -0.278623,-0.5201 -0.609447,-1.129607 -0.990235,-1.826172 z m -18.855469,0.90625 c 0.05282,-5.8e-4 0.106751,0 0.160156,0 0.250764,0 0.488037,0.02631 0.710937,0.08203 0.232185,0.04643 0.430481,0.135598 0.597657,0.265625 0.167176,0.120741 0.302135,0.288344 0.404297,0.501953 0.10216,0.213611 0.152343,0.487914 0.152343,0.822266 0,0.352924 -0.05018,0.64038 -0.152343,0.863281 -0.102161,0.213615 -0.250278,0.3856 -0.445313,0.515625 -0.185749,0.120737 -0.414255,0.203564 -0.683594,0.25 -0.26005,0.04643 -0.556276,0.07031 -0.890625,0.07031 H 28.40625 v -3.330078 c 0.08359,-0.01856 0.224887,-0.02734 0.419922,-0.02734 0.153245,-0.007 0.308329,-0.01193 0.466797,-0.01367 z m -6.304688,0.09766 c 0.213612,0.55725 0.442119,1.225709 0.683594,2.005859 0.250764,0.770863 0.481699,1.572328 0.695313,2.408203 h -2.785157 c 0.2229,-0.8173 0.460175,-1.609997 0.710938,-2.380859 0.250762,-0.770862 0.481699,-1.448091 0.695312,-2.033203 z m 18.5625,14.43178 c -0.482944,0 -0.924858,0.07849 -1.324219,0.236329 -0.390077,0.148611 -0.681918,0.29428 -0.876953,0.433593 l 0.445313,0.876953 c 0.185726,-0.120718 0.418642,-0.236198 0.697266,-0.347656 0.278626,-0.120718 0.618218,-0.18164 1.017578,-0.18164 0.390073,0 0.729665,0.102319 1.017578,0.30664 0.297184,0.195024 0.443359,0.528292 0.443359,1.001953 0,0.287887 -0.05459,0.525197 -0.166015,0.710938 -0.11146,0.185726 -0.259561,0.335792 -0.445313,0.447265 -0.176466,0.102123 -0.376697,0.174252 -0.599609,0.220704 -0.213581,0.03704 -0.550357,-0.13279 -0.626954,0.05664 h -0.404296 v 0.933594 h 0.292968 c 0.306482,0 0.60028,0.02827 0.878907,0.08398 0.278626,0.05571 0.522705,0.149281 0.736328,0.279297 0.213619,0.130016 0.385601,0.300034 0.515625,0.513672 0.130015,0.213619 0.195312,0.479146 0.195312,0.794922 0,0.49223 -0.158833,0.886394 -0.474609,1.183594 -0.306482,0.287886 -0.824882,0.43164 -1.558594,0.43164 -0.473662,0 -0.87416,-0.05018 -1.199219,-0.152343 -0.325077,-0.102162 -0.562349,-0.191319 -0.710937,-0.265626 l -0.220703,0.988282 c 0.06501,0.02797 0.169748,0.07124 0.318359,0.126953 0.157909,0.04645 0.334258,0.09226 0.529297,0.138672 0.195024,0.05575 0.406012,0.09714 0.628906,0.125 0.232177,0.03704 0.454346,0.05664 0.667969,0.05664 0.557246,0 1.036183,-0.0653 1.435547,-0.195312 0.40865,-0.130016 0.737521,-0.310804 0.988281,-0.542969 0.260069,-0.232176 0.449583,-0.506489 0.570313,-0.822266 0.130015,-0.325039 0.195312,-0.673416 0.195312,-1.044921 0,-0.622254 -0.161255,-1.118734 -0.486328,-1.490235 -0.325039,-0.380783 -0.712404,-0.635601 -1.158203,-0.765625 0.37149,-0.167206 0.674062,-0.41079 0.90625,-0.726562 0.241474,-0.31578 0.363281,-0.699212 0.363281,-1.154297 0,-0.325039 -0.05217,-0.623242 -0.154297,-0.892578 -0.102198,-0.278627 -0.259079,-0.518328 -0.472656,-0.722656 -0.204321,-0.204323 -0.469864,-0.363155 -0.794922,-0.47461 -0.325039,-0.111458 -0.714836,-0.167969 -1.169922,-0.167969 z m 9.431641,0.154297 c -0.761575,0.0094 -1.445147,0.129114 -2.048828,0.361328 -0.603685,0.232177 -1.119649,0.567401 -1.546875,1.003907 -0.417933,0.436516 -0.742418,0.978782 -0.97461,1.628906 -0.222878,0.640834 -0.333984,1.378975 -0.333984,2.214844 0,1.142362 0.237261,2.034947 0.710937,2.675781 0.473663,0.640834 1.187922,0.960937 2.144532,0.960937 0.464371,0 0.86487,-0.08478 1.199218,-0.251953 0.334376,-0.176466 0.60867,-0.398636 0.822266,-0.667968 0.213619,-0.278628 0.370484,-0.581185 0.472656,-0.90625 0.102161,-0.334339 0.152344,-0.658838 0.152344,-0.97461 0,-0.343635 -0.04581,-0.676891 -0.138672,-1.001953 -0.09286,-0.325039 -0.24098,-0.608124 -0.445312,-0.849609 -0.204322,-0.250772 -0.478627,-0.451021 -0.822266,-0.59961 -0.334337,-0.148611 -0.741665,-0.222656 -1.224609,-0.222656 -0.297222,0 -0.580273,0.03261 -0.84961,0.09766 -0.260069,0.06501 -0.501715,0.14784 -0.724609,0.25 0.11142,-0.50152 0.272694,-0.923943 0.486328,-1.267578 0.213619,-0.343635 0.47915,-0.622337 0.794922,-0.835937 0.315742,-0.222917 0.672906,-0.379786 1.072266,-0.472657 0.408646,-0.102274 0.859328,-0.158784 1.351562,-0.167968 z M 11,35.826312 v 1.009766 c 6.57e-4,-0.0018 0.0013,-0.0041 0.002,-0.0059 0.213611,0.557246 0.440167,1.225711 0.681641,2.00586 0.25076,0.770861 0.483654,1.574283 0.697265,2.410156 H 11 v 0.947265 h 1.644531 l 0.515625,2.25586 h 1.212891 C 14.215159,43.836391 14.038785,43.17426 13.84375,42.459124 13.648713,41.743989 13.439696,41.008284 13.216797,40.255999 13.003185,39.503715 12.770293,38.752425 12.519531,38.00014 12.278057,37.238569 12.023242,36.513585 11.753906,35.826312 Z m 3.677734,0 c 0.343639,0.919461 0.744133,1.820817 1.199219,2.703125 0.464374,0.882308 0.98034,1.78805 1.546875,2.716797 v 3.203125 h 1.142578 V 41.21889 c 0.557251,-0.95661 1.06249,-1.86869 1.517578,-2.732422 0.455085,-0.863732 0.858014,-1.749982 1.210938,-2.660156 h -1.251953 c -0.269356,0.742998 -0.571905,1.472364 -0.90625,2.1875 -0.325047,0.705849 -0.701682,1.452754 -1.128907,2.242187 -0.39936,-0.752299 -0.775981,-1.4797 -1.128906,-2.185547 -0.343636,-0.715131 -0.648633,-1.463993 -0.917968,-2.24414 z m 10.628907,0 v 1.003906 h 4.179687 c -0.315779,0.380788 -0.635875,0.866539 -0.960937,1.460938 -0.32504,0.585108 -0.623242,1.227268 -0.892579,1.923828 -0.269329,0.687273 -0.500277,1.403489 -0.695312,2.146484 -0.185726,0.733712 -0.303159,1.428484 -0.349609,2.087891 h 1.183593 c 0.05575,-0.770858 0.192659,-1.541643 0.40625,-2.3125 0.213619,-0.780148 0.462091,-1.509513 0.75,-2.1875 0.297185,-0.68727 0.610486,-1.305552 0.935547,-1.853516 0.32504,-0.54796 0.625674,-0.981577 0.904297,-1.306641 v -0.96289 z m 9.585937,2.160156 c -0.315779,0 -0.566212,0.106694 -0.751953,0.320313 -0.185726,0.213619 -0.279297,0.464043 -0.279297,0.751953 0,0.278627 0.09353,0.524655 0.279297,0.738281 0.185726,0.213581 0.436177,0.320313 0.751953,0.320313 0.306482,0 0.550587,-0.106694 0.736328,-0.320313 0.185726,-0.213619 0.28125,-0.459658 0.28125,-0.738281 0,-0.287887 -0.09549,-0.538353 -0.28125,-0.751953 C 35.44318,38.0932 35.19906,37.986468 34.892578,37.986468 Z m 13.820313,2.117188 c 0.03628,-8.7e-4 0.07222,0 0.109375,0 0.547959,0 0.948454,0.148101 1.199218,0.445312 0.26007,0.297222 0.388672,0.728386 0.388672,1.294922 0,0.195024 -0.02632,0.404059 -0.08203,0.626953 -0.04645,0.213581 -0.131197,0.409464 -0.251953,0.585938 -0.120756,0.176466 -0.273266,0.326532 -0.458984,0.447265 -0.185727,0.111459 -0.418643,0.166016 -0.697266,0.166016 -0.334337,0 -0.606686,-0.06967 -0.820313,-0.208984 -0.213619,-0.148613 -0.387554,-0.344472 -0.517578,-0.585938 -0.120756,-0.250772 -0.207961,-0.533834 -0.263672,-0.849609 -0.04645,-0.32504 -0.07031,-0.669039 -0.07031,-1.03125 v -0.279297 c 0,-0.09286 0.0046,-0.184443 0.01367,-0.277344 0.250771,-0.111458 0.498745,-0.196243 0.740234,-0.251953 0.219439,-0.04876 0.455971,-0.07595 0.710938,-0.08203 z m -13.820313,2.380859 c -0.315779,0 -0.566212,0.106693 -0.751953,0.320313 -0.185726,0.213618 -0.279297,0.465996 -0.279297,0.753906 0,0.278664 0.09353,0.524681 0.279297,0.738281 0.185726,0.213619 0.436177,0.320312 0.751953,0.320313 0.306482,0 0.550587,-0.106694 0.736328,-0.320313 0.185726,-0.213619 0.28125,-0.459654 0.28125,-0.738281 0,-0.287887 -0.09549,-0.54028 -0.28125,-0.753906 -0.185726,-0.213583 -0.429846,-0.320313 -0.736328,-0.320313 z"
     transform="scale(0.26458334)"
     sodipodi:nodetypes="sccccccccscccccccccscscscccccccscccccccccccccsccccccscccccccccccccccccccccccccccccccccccccccccccccccccccssccsscccscccsccccscsccccscscccsccssssscsscccccscccscccsccssccccssscccssccscccccccccccccccccsccccccccccscccccccccccccccccccccscssscscssscscscscccssccsssscsssss" />
</svg>
