<?xml version="1.0" encoding="UTF-8" standalone="no"?>
<!-- Created with Inkscape (http://www.inkscape.org/) -->

<svg
   width="64"
   height="64"
   viewBox="0 0 16.933333 16.933334"
   version="1.1"
   id="svg5"
   inkscape:version="1.2 (dc2aedaf03, 2022-05-15)"
   sodipodi:docname="lollypop.svg"
   xmlns:inkscape="http://www.inkscape.org/namespaces/inkscape"
   xmlns:sodipodi="http://sodipodi.sourceforge.net/DTD/sodipodi-0.dtd"
   xmlns="http://www.w3.org/2000/svg"
   xmlns:svg="http://www.w3.org/2000/svg">
  <sodipodi:namedview
     id="namedview7"
     pagecolor="#ffffff"
     bordercolor="#666666"
     borderopacity="1.0"
     inkscape:pageshadow="2"
     inkscape:pageopacity="0.0"
     inkscape:pagecheckerboard="0"
     inkscape:document-units="px"
     showgrid="false"
     units="px"
     height="64px"
     inkscape:zoom="6.171875"
     inkscape:cx="19.686076"
     inkscape:cy="30.865823"
     inkscape:window-width="1920"
     inkscape:window-height="1011"
     inkscape:window-x="0"
     inkscape:window-y="0"
     inkscape:window-maximized="1"
     inkscape:current-layer="svg5"
     inkscape:showpageshadow="2"
     inkscape:deskcolor="#d1d1d1" />
  <defs
     id="defs2" />
  <rect
     style="fill:#ed629e;stroke-width:0.264583;fill-opacity:1"
     id="rect846"
     width="14.816667"
     height="14.816667"
     x="1.0583335"
     y="1.0583333"
     ry="3.175" />
  <path
     d="M 7.6465194,7.185605 C 7.420056,7.062365 7.1441582,7.226035 7.1437503,7.483858 v 2.721557 c 4.079e-4,0.257825 0.2763057,0.421494 0.5027691,0.298254 L 10.141193,9.1434224 c 0.236743,-0.128846 0.236743,-0.4687254 0,-0.5975714 z M 8.4666672,3.4395834 c -2.9225061,0 -5.2916671,2.3691603 -5.2916671,5.2916667 0,2.9225079 2.369161,5.2916669 5.2916671,5.2916669 2.9225068,0 5.2916648,-2.369159 5.2916658,-5.2916669 -1e-6,-2.9225064 -2.369159,-5.2916667 -5.2916658,-5.2916667 z M 9.6644724,4.1516298 C 10.167155,4.2829677 10.644791,4.4961498 11.078231,4.7826267 10.553646,5.0729246 10.112019,5.457571 9.7471549,5.8710953 9.6296292,6.004405 9.6653229,6.212195 9.8205849,6.29865 10.271013,6.54937 10.642739,6.920093 10.89491,7.369712 c 0.06215,0.111232 0.191845,0.166113 0.314955,0.133271 0.580293,-0.154873 1.201254,-0.195471 1.821729,-0.02447 0.112317,0.408117 0.169399,0.829455 0.169717,1.2527451 -0.0047,0.09595 -0.01231,0.1917293 -0.02284,0.2872133 C 12.661543,8.713641 12.121941,8.519058 11.583573,8.41032 c -0.02214,-0.0044 -0.04386,-0.0062 -0.06527,-0.0055 -0.149899,0.0053 -0.274686,0.131959 -0.268173,0.289932 5.01e-4,0.01214 7.79e-4,0.02429 0.0011,0.03644 -0.0041,0.4981844 -0.14132,0.9863024 -0.39818,1.413214 -0.06589,0.109657 -0.04862,0.250102 0.04189,0.340521 0.421159,0.420124 0.741994,1.171771 0.922016,1.592179 -0.361444,0.36042 -0.778791,0.660021 -1.235883,0.887202 0.01021,-0.602389 -0.103915,-1.179778 -0.281228,-1.704234 -0.02712,-0.08009 -0.08916,-0.143534 -0.168628,-0.172437 -0.02977,-0.01087 -0.06098,-0.01644 -0.09193,-0.01686 -0.051581,-6.97e-4 -0.1027901,0.0129 -0.1479591,0.04025 -0.4283209,0.260315 -0.9191683,0.399401 -1.4202851,0.404164 -0.00432,-4.45e-4 -0.00874,-6.96e-4 -0.013054,-0.0011 -0.13612,-0.01433 -0.2624756,0.07237 -0.2980913,0.20453 -0.1548687,0.576551 -0.4276606,1.13122 -0.8807281,1.581887 C 6.7771371,13.170434 6.2998901,12.958733 5.8664991,12.673892 6.3905471,12.381565 6.8314276,11.994957 7.1953993,11.580528 7.3123719,11.447116 7.2764523,11.239804 7.1214203,11.153517 6.6732401,10.903833 6.3028671,10.535341 6.0509021,10.088437 5.9884221,9.9776234 5.8588001,9.9232214 5.7359481,9.9562544 c -0.580224,0.1566006 -1.201166,0.1995706 -1.822275,0.03101 -0.116651,-0.408621 -0.177761,-0.831084 -0.181683,-1.2560103 0.0045,-0.09339 0.01175,-0.1866331 0.02176,-0.2795971 0.511381,0.3050401 1.06217,0.4929174 1.599249,0.6010794 0.184827,0.0372 0.352441,-0.116131 0.331818,-0.3035323 -8.36e-4,-0.0077 -0.0013,-0.01515 -0.0022,-0.02284 0.005,-0.496458 0.141633,-0.982824 0.397638,-1.408318 0.06589,-0.109658 0.04862,-0.250103 -0.04189,-0.340521 C 5.6111601,6.551265 5.2630571,6.031272 5.1000531,5.4049199 5.4649511,5.0360903 5.8879911,4.729745 6.3522551,4.4981334 6.3420451,5.100524 6.4561711,5.6779125 6.6334831,6.202368 6.6905031,6.371412 6.8895184,6.444022 7.0419995,6.351414 7.4717594,6.090226 7.9643117,5.950031 8.467181,5.946162 c 0.00947,2.31e-4 0.01878,7.52e-4 0.028286,10e-4 C 8.6249515,5.951562 8.7403863,5.86613 8.7739757,5.7409998 8.9299663,5.1614513 9.2062852,4.603327 9.6644421,4.1515417 Z"
     style="color:#000000;fill:#000000;fill-opacity:1;stroke-width:0.574082;stroke-linecap:round;stroke-linejoin:round;stroke-miterlimit:1;opacity:0.2"
     id="path617" />
  <path
     d="m 7.6465195,6.9210215 c -0.2264634,-0.12324 -0.5023612,0.04043 -0.5027691,0.298253 v 2.721557 c 4.079e-4,0.2578255 0.2763057,0.4214945 0.5027691,0.2982545 L 10.141193,8.8788385 c 0.236743,-0.128846 0.236743,-0.468725 0,-0.597571 z M 8.4666674,3.175 C 5.5441608,3.175 3.175,5.5441602 3.175,8.4666665 c 0,2.9225085 2.3691608,5.2916675 5.2916674,5.2916675 2.9225066,0 5.2916646,-2.369159 5.2916656,-5.2916675 C 13.758332,5.5441602 11.389174,3.175 8.4666674,3.175 Z m 1.1978052,0.7120464 c 0.5026824,0.1313379 0.9803184,0.34452 1.4137584,0.6309969 -0.524585,0.2902979 -0.966212,0.6749442 -1.3310759,1.0884685 -0.1175257,0.1333097 -0.081832,0.3410997 0.07343,0.4275547 0.4504279,0.25072 0.8221539,0.621443 1.0743249,1.071062 0.06215,0.111232 0.191845,0.166113 0.314955,0.133271 0.580293,-0.154873 1.201254,-0.195471 1.821729,-0.02447 0.112317,0.408117 0.169399,0.829455 0.169717,1.252745 -0.0047,0.09595 -0.01231,0.191729 -0.02284,0.287213 -0.516928,-0.30483 -1.05653,-0.499413 -1.594898,-0.608151 -0.02214,-0.0044 -0.04386,-0.0062 -0.06527,-0.0055 -0.149899,0.0053 -0.274686,0.131959 -0.268173,0.289932 5.01e-4,0.01214 7.79e-4,0.02429 0.0011,0.03644 -0.0041,0.498184 -0.14132,0.986302 -0.39818,1.413214 -0.06589,0.109657 -0.04862,0.2501025 0.04189,0.3405215 0.421159,0.420124 0.741994,1.171771 0.922016,1.592179 -0.361444,0.36042 -0.778791,0.660021 -1.235883,0.887202 0.01021,-0.602389 -0.103915,-1.179778 -0.281228,-1.704234 -0.02712,-0.08009 -0.08916,-0.143534 -0.168628,-0.172437 -0.02977,-0.01087 -0.06098,-0.01644 -0.09193,-0.01686 -0.051581,-6.97e-4 -0.1027899,0.0129 -0.1479589,0.04025 -0.4283209,0.260315 -0.9191683,0.399401 -1.4202851,0.404164 -0.00432,-4.45e-4 -0.00874,-6.96e-4 -0.013054,-0.0011 -0.13612,-0.01433 -0.2624756,0.07237 -0.2980913,0.20453 C 8.005029,12.030589 7.7322371,12.585258 7.2791696,13.035925 6.7771369,12.905851 6.2998906,12.69415 5.8664989,12.409309 6.3905475,12.116982 6.8314277,11.730374 7.1953994,11.315945 7.312372,11.182533 7.2764524,10.975221 7.1214204,10.888934 6.6732405,10.63925 6.3028675,10.270758 6.0509023,9.8238535 5.9884183,9.7130395 5.8588005,9.6586375 5.7359479,9.6916705 5.1557238,9.8482715 4.534782,9.8912415 3.913673,9.7226815 3.797022,9.3140605 3.735912,8.8915975 3.73199,8.4666715 c 0.0045,-0.09339 0.01175,-0.186633 0.02176,-0.279597 0.511381,0.30504 1.06217,0.492917 1.5992497,0.601079 0.1848266,0.0372 0.3524404,-0.116131 0.3318173,-0.303532 -8.355e-4,-0.0077 -0.00134,-0.01515 -0.00217,-0.02284 0.00495,-0.496458 0.1416331,-0.982824 0.3976384,-1.408318 0.065895,-0.109658 0.04862,-0.250103 -0.041885,-0.340521 C 5.6111951,6.2866825 5.2630925,5.7666895 5.1000883,5.1403374 5.4649864,4.7715079 5.8880259,4.4651626 6.35229,4.233551 6.34208,4.8359416 6.4562058,5.41333 6.6335187,5.9377855 c 0.057021,0.169044 0.2560348,0.241654 0.4085159,0.149046 0.4297599,-0.261188 0.9223122,-0.401383 1.4251816,-0.405252 0.00947,2.31e-4 0.01878,7.52e-4 0.028286,0.001 0.1294845,0.0044 0.2449193,-0.081032 0.2785087,-0.2061622 0.1559906,-0.5795484 0.4323095,-1.1376727 0.8904664,-1.589458 z"
     style="color:#000000;fill:#ffffff;fill-opacity:1;stroke-width:0.574082;stroke-linecap:round;stroke-linejoin:round;stroke-miterlimit:1"
     id="path436"
     sodipodi:nodetypes="cccccccssssscccccccccccsccccccccccccccccccccccccccccccccccc" />
  <path
     id="rect845"
     style="opacity:0.2;fill:#000000;stroke-width:0.999999"
     d="M 4 47 L 4 48 C 4 54.648 9.3519997 60 16 60 L 48 60 C 54.648 60 60 54.648 60 48 L 60 47 C 60 53.648 54.648 59 48 59 L 16 59 C 9.3519997 59 4 53.648 4 47 z "
     transform="scale(0.26458334)" />
  <path
     id="rect843"
     style="opacity:0.2;fill:#ffffff;stroke-width:0.999999"
     d="M 16 4 C 9.3519997 4 4 9.3519997 4 16 L 4 17 C 4 10.352 9.3519997 5 16 5 L 48 5 C 54.648 5 60 10.352 60 17 L 60 16 C 60 9.3519997 54.648 4 48 4 L 16 4 z "
     transform="scale(0.26458334)" />
</svg>
