<?xml version="1.0" encoding="UTF-8" standalone="no"?>
<!-- Created with Inkscape (http://www.inkscape.org/) -->

<svg
   width="64"
   height="64"
   viewBox="0 0 16.933333 16.933334"
   version="1.1"
   id="svg5"
   inkscape:version="1.2 (dc2aedaf03, 2022-05-15)"
   sodipodi:docname="gnome-mahjongg.svg"
   xmlns:inkscape="http://www.inkscape.org/namespaces/inkscape"
   xmlns:sodipodi="http://sodipodi.sourceforge.net/DTD/sodipodi-0.dtd"
   xmlns="http://www.w3.org/2000/svg"
   xmlns:svg="http://www.w3.org/2000/svg">
  <sodipodi:namedview
     id="namedview7"
     pagecolor="#ffffff"
     bordercolor="#666666"
     borderopacity="1.0"
     inkscape:pageshadow="2"
     inkscape:pageopacity="0.0"
     inkscape:pagecheckerboard="0"
     inkscape:document-units="px"
     showgrid="false"
     units="px"
     height="64px"
     inkscape:zoom="12.34375"
     inkscape:cx="31.959494"
     inkscape:cy="32"
     inkscape:window-width="1920"
     inkscape:window-height="1011"
     inkscape:window-x="0"
     inkscape:window-y="0"
     inkscape:window-maximized="1"
     inkscape:current-layer="svg5"
     inkscape:showpageshadow="2"
     inkscape:deskcolor="#d1d1d1" />
  <defs
     id="defs2" />
  <rect
     style="fill:#4d4d4d;stroke-width:0.264583;fill-opacity:1"
     id="rect846"
     width="14.816667"
     height="14.816667"
     x="1.0583335"
     y="1.0583333"
     ry="3.175" />
  <rect
     style="opacity:0.2;fill:#000000;stroke-width:0.264583"
     id="rect633"
     width="6.8791666"
     height="10.054167"
     x="5.0270834"
     y="3.7041667"
     ry="0.5291667" />
  <path
     id="rect2098"
     style="fill:#faf5ec;fill-opacity:1;stroke-width:2.38125;stroke-linecap:round;stroke-linejoin:round"
     d="m 5.5562499,3.4395834 h 5.8208341 c 0.293158,0 0.529166,0.2360082 0.529166,0.5291665 v 8.9958341 c 0,0.293158 -0.236008,0.529166 -0.529166,0.529166 H 5.5562499 c -0.2931582,0 -0.5291665,-0.236008 -0.5291665,-0.529166 V 3.9687499 c 0,-0.2931583 0.2360083,-0.5291665 0.5291665,-0.5291665 z"
     sodipodi:nodetypes="sssssssss" />
  <path
     d="M 9.7604656,8.5964259 H 8.5552826 V 7.4222586 h 1.205183 z M 8.7192229,6.4076008 8.1830937,6.3500002 V 7.2937648 H 7.017788 L 6.6145834,7.1209629 v 2.0293155 h 0.062031 c 0.1506479,0 0.3057266,-0.084186 0.3057266,-0.1240629 V 8.7249197 h 1.2007522 v 1.7147273 h 0.070893 c 0.1462171,0 0.3012958,-0.09305 0.3012958,-0.141786 V 8.7249197 h 1.205183 v 0.3721889 h 0.062032 c 0.119632,0 0.305726,-0.075324 0.310157,-0.1063397 v -1.502048 c 0.08862,-0.017723 0.15951,-0.05317 0.186095,-0.088616 L 9.9066831,7.0810855 9.7161574,7.2937648 H 8.5552826 V 6.527233 C 8.6704839,6.5095097 8.7059304,6.4696323 8.7192229,6.4076008 Z M 6.9823415,8.5964259 V 7.4222586 h 1.2007522 v 1.1741673 z"
     style="font-weight:500;font-size:4.43082px;line-height:1.25;font-family:'Noto Serif CJK JP';-inkscape-font-specification:'Noto Serif CJK JP Medium';fill:#e43030;fill-opacity:1;stroke-width:0.110771"
     id="path14835" />
  <path
     id="rect845"
     style="opacity:0.2;fill:#000000;stroke-width:0.999999"
     d="M 4 47 L 4 48 C 4 54.648 9.3519997 60 16 60 L 48 60 C 54.648 60 60 54.648 60 48 L 60 47 C 60 53.648 54.648 59 48 59 L 16 59 C 9.3519997 59 4 53.648 4 47 z "
     transform="scale(0.26458334)" />
  <path
     id="rect843"
     style="opacity:0.2;fill:#ffffff;stroke-width:0.999999"
     d="M 16 4 C 9.3519997 4 4 9.3519997 4 16 L 4 17 C 4 10.352 9.3519997 5 16 5 L 48 5 C 54.648 5 60 10.352 60 17 L 60 16 C 60 9.3519997 54.648 4 48 4 L 16 4 z "
     transform="scale(0.26458334)" />
</svg>
