<?xml version="1.0" encoding="UTF-8" standalone="no"?>
<!-- Created with Inkscape (http://www.inkscape.org/) -->

<svg
   width="64"
   height="64"
   viewBox="0 0 16.933333 16.933334"
   version="1.1"
   id="svg5"
   inkscape:version="1.2 (dc2aedaf03, 2022-05-15)"
   sodipodi:docname="ms-onedrive.svg"
   xmlns:inkscape="http://www.inkscape.org/namespaces/inkscape"
   xmlns:sodipodi="http://sodipodi.sourceforge.net/DTD/sodipodi-0.dtd"
   xmlns="http://www.w3.org/2000/svg"
   xmlns:svg="http://www.w3.org/2000/svg">
  <sodipodi:namedview
     id="namedview7"
     pagecolor="#ffffff"
     bordercolor="#666666"
     borderopacity="1.0"
     inkscape:pageshadow="2"
     inkscape:pageopacity="0.0"
     inkscape:pagecheckerboard="0"
     inkscape:document-units="px"
     showgrid="false"
     units="px"
     height="64px"
     inkscape:zoom="13.53125"
     inkscape:cx="32.036952"
     inkscape:cy="32"
     inkscape:window-width="1920"
     inkscape:window-height="1024"
     inkscape:window-x="0"
     inkscape:window-y="32"
     inkscape:window-maximized="1"
     inkscape:current-layer="svg5"
     inkscape:showpageshadow="2"
     inkscape:deskcolor="#d1d1d1" />
  <defs
     id="defs2" />
  <rect
     style="fill:#f8f8f8;stroke-width:0.264583;fill-opacity:1"
     id="rect846"
     width="14.816667"
     height="14.816667"
     x="1.0583335"
     y="1.0583333"
     ry="3.175" />
  <path
     d="m 8.4667154,5.5562501 c -1.030089,6.25e-4 -1.995857,0.500943 -2.59054,1.342036 -0.890938,0.02822 -1.702798,0.526677 -2.129585,1.313615 l -0.0047,0.0016 c -0.193008,0.3558206 -0.302307,0.7635826 -0.302307,1.1968256 5.05e-4,1.0649753 0.666367,1.9852143 1.619022,2.3476603 0.02093,0.008 0.04236,0.01582 0.06356,0.02325 0.01509,0.0053 0.03024,0.0105 0.04547,0.0155 0.02748,0.009 0.05529,0.01772 0.0832,0.02584 0.01166,0.0034 0.02341,0.0066 0.03514,0.0098 0.02072,0.0057 0.04159,0.01084 0.06253,0.01602 0.0094,0.0023 0.01852,0.005 0.02791,0.0072 0.0297,0.007 0.0598,0.01319 0.08992,0.01912 0.01121,0.0022 0.02232,0.0047 0.03359,0.0067 0.03253,0.0059 0.0652,0.01081 0.09818,0.0155 0.0047,6.6e-4 0.0093,0.0014 0.01395,0.0021 0.03722,0.0051 0.07437,0.0095 0.112138,0.01292 v 0.01189 h 0.228927 5.4839016 0.04548 c 1.110553,0 2.011246,-0.900178 2.011246,-2.0107303 0,-1.094149 -0.874272,-1.9836426 -1.962154,-2.0096966 -0.374057,-1.384958 -1.6303466,-2.347033 -3.0649286,-2.347143 z"
     style="fill:#000000;fill-opacity:1;stroke-width:0.264583;opacity:0.2"
     id="path1935" />
  <circle
     style="fill:#056ab6;fill-opacity:1;stroke-width:0.264583"
     id="path349"
     cx="8.4666615"
     cy="8.4666662"
     r="3.175" />
  <path
     d="M 5.953118,6.6322238 C 5.0322197,6.6333338 4.1856559,7.1379487 3.746627,7.94746 L 3.742177,7.9488 C 3.5491696,8.3046219 3.4395834,8.7125237 3.4395834,9.145767 c 6.168e-4,1.299193 0.991226,2.383833 2.2850394,2.501941 v 0.01161 h 0.2284952 5.484095 c 0.760144,-5.45e-4 1.457995,-0.420367 1.814642,-1.09165 l -3.5266372,-2.1020582 -2.53318,-1.509822 -0.00803,0.00224 C 6.808475,6.7455798 6.3845775,6.6333758 5.9531175,6.6322159 Z"
     style="fill:#1581d9;stroke-width:0.335139"
     id="path1238" />
  <path
     d="m 11.482913,7.637641 c -0.284514,0.014096 -0.53144,0.066854 -0.763881,0.1518601 l -6.71e-4,6.7e-4 C 9.9735538,8.1007691 9.1998478,8.4238871 8.5275201,8.7046041 L 3.9219915,10.62182 c 0.4127241,0.566976 1.0563865,0.957582 1.8026816,1.025709 v 0.01178 h 5.7124199 0.04582 c 1.110554,0 2.010835,-0.900282 2.010835,-2.010836 0,-1.1105529 -0.900281,-2.0108341 -2.010836,-2.0108341 z"
     style="fill:#138fe6;stroke-width:0.335139"
     id="path1271" />
  <path
     d="M 9.4674808,8.3118629 C 9.1519388,8.443596 8.8160213,8.5841464 8.5275201,8.7046041 L 3.9219755,10.621836 c 0.1537685,0.211237 0.3399015,0.397737 0.5511469,0.552455 0.00508,0.0037 0.010602,0.0068 0.015709,0.01045 0.062309,0.04492 0.1266097,0.08715 0.1930977,0.126332 0.014818,0.0088 0.030152,0.01646 0.045165,0.02488 0.056303,0.03163 0.1138519,0.06169 0.1728062,0.08903 0.02232,0.01034 0.044743,0.02042 0.06742,0.0301 0.057186,0.02448 0.1154086,0.04649 0.1747698,0.06676 0.022047,0.0075 0.043781,0.01534 0.066112,0.02226 0.06267,0.01945 0.1270123,0.03514 0.1917887,0.04975 0.021457,0.0049 0.042476,0.01078 0.064148,0.01505 0.085315,0.01688 0.1721098,0.03055 0.2605182,0.03862 v 0.01178 h 0.2284447 5.4839753 c 0.760145,-5.22e-4 1.457817,-0.420521 1.814465,-1.091805 L 9.7253808,8.4656864 Z"
     style="fill:#38afec;stroke-width:0.335139"
     id="path1304" />
  <path
     id="rect845"
     style="opacity:0.2;fill:#000000;stroke-width:0.999999"
     d="M 4 47 L 4 48 C 4 54.648 9.3519997 60 16 60 L 48 60 C 54.648 60 60 54.648 60 48 L 60 47 C 60 53.648 54.648 59 48 59 L 16 59 C 9.3519997 59 4 53.648 4 47 z "
     transform="scale(0.26458334)" />
  <path
     id="rect843"
     style="opacity:0.2;fill:#ffffff;stroke-width:0.999999"
     d="M 16 4 C 9.3519997 4 4 9.3519997 4 16 L 4 17 C 4 10.352 9.3519997 5 16 5 L 48 5 C 54.648 5 60 10.352 60 17 L 60 16 C 60 9.3519997 54.648 4 48 4 L 16 4 z "
     transform="scale(0.26458334)" />
</svg>
