<?xml version="1.0" encoding="UTF-8" standalone="no"?>
<!-- Created with Inkscape (http://www.inkscape.org/) -->

<svg
   width="64"
   height="64"
   viewBox="0 0 16.933333 16.933334"
   version="1.1"
   id="svg5"
   inkscape:version="1.1.2 (0a00cf5339, 2022-02-04, custom)"
   sodipodi:docname="org.gnome.font-viewer.svg"
   xmlns:inkscape="http://www.inkscape.org/namespaces/inkscape"
   xmlns:sodipodi="http://sodipodi.sourceforge.net/DTD/sodipodi-0.dtd"
   xmlns="http://www.w3.org/2000/svg"
   xmlns:svg="http://www.w3.org/2000/svg">
  <sodipodi:namedview
     id="namedview7"
     pagecolor="#ffffff"
     bordercolor="#666666"
     borderopacity="1.0"
     inkscape:pageshadow="2"
     inkscape:pageopacity="0.0"
     inkscape:pagecheckerboard="0"
     inkscape:document-units="px"
     showgrid="false"
     units="px"
     height="64px"
     inkscape:zoom="12.25"
     inkscape:cx="32"
     inkscape:cy="32"
     inkscape:window-width="1920"
     inkscape:window-height="1011"
     inkscape:window-x="0"
     inkscape:window-y="0"
     inkscape:window-maximized="1"
     inkscape:current-layer="svg5" />
  <defs
     id="defs2" />
  <rect
     style="fill:#982caa;stroke-width:0.264583;fill-opacity:1"
     id="rect846"
     width="14.816667"
     height="14.816667"
     x="1.0583335"
     y="1.0583333"
     ry="3.175" />
  <path
     d="m 5.783048,4.1806813 c -0.680594,0 -1.216463,0.3585372 -1.216463,0.8195884 0,0.1683198 0.137841,0.3147095 0.311609,0.3147095 0.173768,0 0.325561,-0.146472 0.325561,-0.307475 0,-0.029272 -0.0072,-0.066078 -0.01447,-0.1173054 -0.01448,-0.065864 -0.0217,-0.1244713 -0.0217,-0.1757 0,-0.1975934 0.231799,-0.3586342 0.521415,-0.3586342 0.354776,0 0.608748,0.2125279 0.608748,0.6077148 V 5.5454559 C 5.300564,5.8429494 5.000912,5.9221021 4.689578,6.2001964 4.5302872,6.34656 4.4291283,6.5953477 4.4291283,6.8368503 c 0,0.4610511 0.3184987,0.7834146 0.7601607,0.7834146 0.318575,0 0.674033,-0.1537843 1.115694,-0.5343345 0.0362,0.3878675 0.232828,0.5343345 0.529683,0.5343345 0.246173,0 0.398228,-0.087775 0.65164,-0.3658692 V 7.0637097 C 7.363221,7.1661643 7.276585,7.2027194 7.167979,7.2027194 7.001451,7.2027194 6.950938,7.100459 6.950938,6.7784557 V 5.3511525 c 0,-0.3805502 -0.0366,-0.5927902 -0.145211,-0.7684286 C 6.646437,4.3192666 6.210228,4.1806813 5.783048,4.1806813 Z m 5.46375,0.05271 c -0.536044,0 -1.078156,0.138068 -1.445907,0.3901569 l 0.348816,0.6542238 c 0.243089,-0.1860658 0.611065,-0.3002401 0.966349,-0.3002401 0.523577,0 0.816488,0.3833415 0.816488,0.7854817 l -0.9679,-0.00414 c -1.02221,-0.00463 -1.439705,0.3811625 -1.439705,0.9513644 0,0.558196 0.426447,0.962732 1.211812,0.962732 0.492412,0 1.015034,-0.1404956 1.195793,-0.4345988 v 0.3979127 h 1.031978 V 5.6979006 c -5.8e-5,-0.9783424 -0.695503,-1.46451 -1.717724,-1.4645093 z M 6.297745,5.7211559 v 0.9255252 c 0,0.2195486 -0.03657,0.3002722 -0.188618,0.3880897 -0.18101,0.1024576 -0.43448,0.1607135 -0.586528,0.1607135 -0.253413,0 -0.456303,-0.2485869 -0.456303,-0.563273 V 6.6027557 C 5.073543,6.1636598 5.450623,6.0212039 6.297745,5.7211559 Z m 4.772836,0.63407 0.861963,0.00414 v 0.1865526 c 5.8e-5,0.3133185 -0.587453,0.5126302 -0.911572,0.5126302 -0.342818,0 -0.548804,-0.1560745 -0.548804,-0.390157 0,-0.2160743 0.143409,-0.3159691 0.598413,-0.3131592 z m -5.845122,3.434416 c -0.393669,-0.0055 -0.393669,0.5775261 0,0.5720571 h 1.438156 c 0.0016,1.43e-4 0.04156,0.0049 0.08527,0.02842 0.04458,0.02401 0.07109,0.02695 0.07855,0.134359 l 0.03566,0.880566 c -0.06705,-0.02523 -0.112138,-0.03566 -0.112138,-0.03566 l -0.03411,-0.0088 h -1.34566 c -0.630731,0 -0.8583455,0.624768 -0.8583455,0.624768 l -0.014986,0.04392 v 0.191203 c 0,0.433775 0.2083625,0.73337 0.4278815,0.868165 0.219518,0.134794 0.44545,0.133324 0.44545,0.133324 h 1.104842 l 0.494027,-0.315225 0.0026,0.04599 c 0.01305,0.391162 0.614983,0.356387 0.58136,-0.03359 L 7.408272,10.486728 v -0.0016 C 7.387782,10.189871 7.195728,9.9781623 7.02897,9.8883564 6.862211,9.7985564 6.700308,9.7901664 6.700308,9.7901664 l -0.0098,-5.292e-4 z m 6.175335,0 c -0.110459,0.0023 -0.244763,0.04484 -0.40256,0.1276408 -0.18034,0.09462 -0.363311,0.2365653 -0.548804,0.4258123 -0.185492,0.183992 -0.358068,0.4074 -0.517798,0.670244 -0.154577,0.262845 -0.267895,0.554729 -0.340031,0.875399 -0.05668,0.236561 -0.07695,0.441472 -0.0615,0.614949 0.01546,0.16822 0.05133,0.30767 0.108004,0.418062 0.05668,0.105141 0.126332,0.1811 0.208773,0.22841 0.08244,0.05257 0.159891,0.07906 0.232027,0.07906 0.154577,-0.01052 0.308961,-0.04449 0.463538,-0.102319 0.133966,-0.05257 0.275356,-0.134035 0.42478,-0.24443 0.149425,-0.115652 0.286133,-0.278581 0.409794,-0.488859 -0.0052,0.141936 0.0027,0.259878 0.02326,0.354501 0.02576,0.09462 0.05175,0.171096 0.07751,0.228927 0.03091,0.06834 0.06938,0.120813 0.115755,0.157612 0.04637,0.03154 0.100433,0.05253 0.162264,0.06304 0.06183,0.01577 0.126286,0.02077 0.19327,0.0155 0.07213,-0.0053 0.141791,-0.01825 0.208773,-0.03927 0.06698,-0.02103 0.126242,-0.04701 0.177767,-0.07855 0.07729,-0.05257 0.172414,-0.142034 0.285771,-0.268201 0.118509,-0.131419 0.237023,-0.273361 0.355533,-0.425813 0.123662,-0.157707 0.242179,-0.312638 0.355534,-0.465088 0.113356,-0.157706 0.2064,-0.289153 0.278536,-0.394291 0.06183,-0.08411 0.0977,-0.158091 0.108004,-0.221176 0.01545,-0.06308 0.01285,-0.110052 -0.0078,-0.141593 -0.02061,-0.03154 -0.0518,-0.04203 -0.09302,-0.03152 -0.04122,0.0053 -0.08229,0.03124 -0.123507,0.07855 -0.03091,0.04205 -0.08238,0.108038 -0.154512,0.197403 -0.06698,0.08937 -0.144434,0.191823 -0.232027,0.307475 -0.08759,0.115651 -0.182719,0.236603 -0.285771,0.362769 -0.0979,0.120907 -0.193026,0.233861 -0.285771,0.338997 -0.09275,0.09988 -0.180591,0.183843 -0.263033,0.252181 -0.08244,0.06308 -0.149496,0.09457 -0.201021,0.09457 -0.06183,0 -0.110694,-0.01299 -0.146761,-0.03927 -0.03091,-0.03154 -0.05431,-0.07103 -0.06976,-0.118339 -0.01546,-0.04731 -0.02534,-0.09729 -0.03049,-0.149862 0,-0.05783 0.0026,-0.1103 0.0078,-0.157613 0.01546,-0.07885 0.02794,-0.144833 0.03824,-0.197404 0.01031,-0.05257 0.01811,-0.09704 0.02326,-0.133842 0.01031,-0.04206 0.0181,-0.08154 0.02325,-0.118339 0.0103,-0.04205 0.0207,-0.08653 0.03101,-0.133842 0.05152,-0.241817 0.09259,-0.439245 0.123506,-0.591695 0.03091,-0.152449 0.05431,-0.273402 0.06976,-0.362768 0.01546,-0.08937 0.02325,-0.149844 0.02325,-0.181385 0,-0.0368 -0.0026,-0.06029 -0.0078,-0.0708 -0.01031,-0.0053 -0.0311,-0.0078 -0.06201,-0.0078 -0.02576,0 -0.06423,0.0025 -0.115756,0.0078 -0.04637,0.0053 -0.10563,0.01575 -0.177766,0.03152 0.108207,-0.16822 0.149271,-0.30216 0.123508,-0.402042 -0.02061,-0.105137 -0.06687,-0.1841087 -0.13901,-0.2366777 -0.08759,-0.05782 -0.200912,-0.09981 -0.34003,-0.1260899 -0.01481,-0.0013 -0.03021,-0.0019 -0.04599,-0.00159 z m -0.13591,0.4950591 c 0.01964,0.0011 0.03647,0.0073 0.05064,0.01912 0.01546,0.02103 0.02533,0.05002 0.03049,0.08682 0.0052,0.03154 0.0026,0.07601 -0.0078,0.133842 -0.0052,0.05257 -0.02803,0.121044 -0.06925,0.205155 0.04122,-0.0105 0.08228,-0.01851 0.123506,-0.02377 0.04122,-0.0053 0.07449,-0.01325 0.100252,-0.02377 0.03091,-0.0105 0.0595,-0.01799 0.08527,-0.02325 0.02061,-0.0053 0.02321,0.03673 0.0078,0.12609 -0.0103,0.08411 -0.0285,0.191556 -0.05426,0.322978 -0.02576,0.131424 -0.05643,0.268376 -0.0925,0.410311 -0.03607,0.141936 -0.06725,0.265381 -0.09302,0.37052 -0.0052,0.02628 -0.02803,0.06826 -0.06925,0.12609 -0.03607,0.05783 -0.08493,0.120797 -0.146761,0.189136 -0.05668,0.06834 -0.123732,0.134322 -0.201021,0.197404 -0.07214,0.06308 -0.146988,0.115559 -0.224276,0.157613 -0.07214,0.0368 -0.144389,0.05778 -0.216524,0.06305 -0.07214,0 -0.136593,-0.02899 -0.19327,-0.08682 -0.03091,-0.03154 -0.05119,-0.097 -0.0615,-0.196887 -0.0103,-0.105138 -0.0077,-0.226091 0.0078,-0.362768 0.02061,-0.136679 0.05388,-0.281117 0.100251,-0.433566 0.04637,-0.157707 0.108229,-0.305155 0.185519,-0.441834 0.185491,-0.331185 0.347673,-0.557085 0.486792,-0.677994 0.108204,-0.09462 0.192215,-0.140415 0.251147,-0.13746 z m -5.893697,1.647962 h 1.258321 c 0.01556,0.0045 0.07639,0.02047 0.150895,0.06925 0.08129,0.05323 0.127794,0.07218 0.130225,0.167432 l 0.02015,0.0801 -0.626835,0.400492 H 5.371187 c 0,0 -0.06535,-0.002 -0.136943,-0.04599 -0.07159,-0.04396 -0.153995,-0.1022 -0.153995,-0.383439 V 12.11147 c 0.01497,-0.04361 0.07767,-0.178801 0.290938,-0.178801 z"
     style="font-weight:bold;font-size:322.102px;line-height:1.25;font-family:Montserrat;letter-spacing:0px;word-spacing:0px;fill:#000000;stroke-width:0.00502425;opacity:0.2"
     id="path1115" />
  <path
     d="m 5.783048,3.916098 c -0.6805938,0 -1.2164632,0.3585372 -1.2164632,0.8195885 0,0.1683197 0.1378405,0.3147094 0.3116088,0.3147094 0.1737683,0 0.3255616,-0.146472 0.3255616,-0.3074749 0,-0.029272 -0.00724,-0.066078 -0.01447,-0.1173054 -0.014481,-0.065864 -0.021704,-0.1244714 -0.021704,-0.1757 0,-0.1975935 0.2317998,-0.3586343 0.5214151,-0.3586343 0.3547767,0 0.6087484,0.2125279 0.6087484,0.6077149 V 5.2808726 C 5.3005601,5.5783661 5.0009089,5.6575189 4.6895742,5.9356132 4.530284,6.0819767 4.429125,6.3307644 4.429125,6.5722669 c 0,0.461051 0.3184988,0.7834146 0.7601604,0.7834146 0.3185758,0 0.6740329,-0.1537841 1.1156942,-0.5343343 0.036202,0.3878673 0.2328283,0.5343343 0.5296834,0.5343343 0.2461723,0 0.3982279,-0.087775 0.65164,-0.3658691 V 6.7991264 C 7.3632175,6.901581 7.276582,6.9381359 7.1679761,6.9381359 7.0014479,6.9381359 6.950935,6.8358757 6.950935,6.5138725 V 5.0865692 C 6.950935,4.706019 6.91433,4.493779 6.8057242,4.3181406 6.6464371,4.0546833 6.2102281,3.916098 5.783048,3.916098 Z m 5.46375,0.05271 c -0.536044,0 -1.078156,0.138068 -1.4459074,0.3901569 l 0.3488164,0.6542239 c 0.243089,-0.1860659 0.611065,-0.3002402 0.966349,-0.3002402 0.523577,0 0.816488,0.3833416 0.816488,0.7854818 l -0.9679,-0.00414 c -1.0222104,-0.00463 -1.4397054,0.3811624 -1.4397054,0.9513644 0,0.558196 0.426447,0.962732 1.2118124,0.962732 0.492412,0 1.015034,-0.1404956 1.195793,-0.4345988 v 0.3979132 h 1.031978 V 5.4333181 C 12.964464,4.4549757 12.269019,3.9688081 11.246798,3.968808 Z M 6.2977451,5.4565726 v 0.925525 c 0,0.2195486 -0.036571,0.3002722 -0.1886188,0.38809 -0.1810097,0.1024573 -0.43448,0.1607135 -0.5865275,0.1607135 -0.2534135,0 -0.4563031,-0.2485869 -0.4563029,-0.5632731 V 6.3381725 C 5.0735429,5.8990766 5.4506226,5.7566207 6.2977451,5.4565726 Z m 4.7728359,0.6340698 0.861963,0.00414 v 0.1865519 c 5.8e-5,0.3133185 -0.587453,0.5126302 -0.911572,0.5126302 -0.342818,0 -0.548804,-0.1560745 -0.548804,-0.390157 0,-0.2160743 0.143409,-0.3159691 0.598413,-0.3131592 z M 5.2254592,9.5250585 c -0.3936698,-0.0055 -0.3936698,0.5775265 0,0.5720575 h 1.4381552 c 0.00161,1.43e-4 0.041556,0.0049 0.085266,0.02842 0.044584,0.02401 0.071094,0.02695 0.078548,0.134359 l 0.035657,0.880566 c -0.067053,-0.02523 -0.1121379,-0.03566 -0.1121379,-0.03566 l -0.034106,-0.0088 H 5.3711867 c -0.6307307,0 -0.8583454,0.624768 -0.8583454,0.624768 l -0.014986,0.04392 v 0.191203 c 0,0.433775 0.2083626,0.73337 0.427881,0.868164 0.2195182,0.134795 0.4454507,0.133325 0.4454507,0.133325 h 1.1048421 l 0.4940268,-0.315226 0.00259,0.04599 c 0.013054,0.391162 0.6149827,0.356387 0.5813597,-0.03359 l -0.1457365,-2.43241 v -0.0016 C 7.3877751,9.9252755 7.1957254,9.7135665 7.0289667,9.6237605 c -0.1667584,-0.0898 -0.328662,-0.09819 -0.328662,-0.09819 l -0.00982,-5.29e-4 z m 6.1753348,0 c -0.110459,0.0023 -0.244763,0.04484 -0.40256,0.127641 -0.18034,0.09462 -0.363311,0.236565 -0.548804,0.4258125 -0.185492,0.183992 -0.358068,0.4074 -0.5177984,0.670244 -0.154577,0.262845 -0.267895,0.554729 -0.340031,0.875398 -0.05668,0.236561 -0.07695,0.441472 -0.0615,0.61495 0.01546,0.168219 0.05133,0.307669 0.108004,0.418062 0.05668,0.10514 0.126332,0.181099 0.208773,0.22841 0.08244,0.05257 0.1598914,0.07906 0.2320274,0.07906 0.154577,-0.01052 0.308961,-0.04449 0.463538,-0.102319 0.133966,-0.05257 0.275356,-0.134035 0.42478,-0.24443 0.149425,-0.115652 0.286133,-0.278582 0.409794,-0.488859 -0.0052,0.141936 0.0027,0.259878 0.02326,0.354501 0.02576,0.09462 0.05175,0.171096 0.07751,0.228926 0.03091,0.06834 0.06938,0.120813 0.115755,0.157613 0.04637,0.03154 0.100433,0.05253 0.162264,0.06304 0.06183,0.01577 0.126286,0.02077 0.19327,0.0155 0.07213,-0.0053 0.141791,-0.01825 0.208773,-0.03927 0.06698,-0.02103 0.126242,-0.04701 0.177767,-0.07855 0.07729,-0.05257 0.172414,-0.142035 0.285771,-0.268201 0.118509,-0.13142 0.237023,-0.273362 0.355533,-0.425813 0.123662,-0.157707 0.242179,-0.312639 0.355534,-0.465088 0.113356,-0.157706 0.2064,-0.289154 0.278536,-0.394291 0.06183,-0.08411 0.0977,-0.158091 0.108004,-0.221176 0.01545,-0.06308 0.01285,-0.110052 -0.0078,-0.141593 -0.02061,-0.03154 -0.0518,-0.04203 -0.09302,-0.03152 -0.04122,0.0053 -0.08229,0.03124 -0.123507,0.07855 -0.03091,0.04205 -0.08238,0.108038 -0.154512,0.197403 -0.06698,0.08937 -0.144434,0.191823 -0.232027,0.307475 -0.08759,0.115651 -0.182719,0.236603 -0.285771,0.362769 -0.0979,0.120907 -0.193026,0.233861 -0.285771,0.338997 -0.09275,0.09988 -0.180591,0.183843 -0.263033,0.252181 -0.08244,0.06308 -0.149496,0.09457 -0.201021,0.09457 -0.06183,0 -0.110694,-0.01299 -0.146761,-0.03927 -0.03091,-0.03154 -0.05431,-0.07103 -0.06976,-0.118339 -0.01546,-0.04731 -0.02534,-0.09729 -0.03049,-0.149862 0,-0.05783 0.0026,-0.1103 0.0078,-0.157613 0.01546,-0.07885 0.02794,-0.144833 0.03824,-0.197404 0.01031,-0.05257 0.01811,-0.09704 0.02326,-0.133842 0.01031,-0.04206 0.0181,-0.08154 0.02325,-0.118339 0.0103,-0.04205 0.0207,-0.08653 0.03101,-0.133842 0.05152,-0.241817 0.09259,-0.439245 0.123506,-0.591695 0.03091,-0.152449 0.05431,-0.273402 0.06976,-0.362768 0.01546,-0.08937 0.02325,-0.149844 0.02325,-0.181385 0,-0.0368 -0.0026,-0.06029 -0.0078,-0.0708 -0.01031,-0.0053 -0.0311,-0.0078 -0.06201,-0.0078 -0.02576,0 -0.06423,0.0025 -0.115756,0.0078 -0.04637,0.0053 -0.10563,0.01575 -0.177766,0.03152 0.108205,-0.168221 0.149269,-0.3021605 0.123506,-0.4020425 -0.02061,-0.105137 -0.06687,-0.184109 -0.139009,-0.236678 -0.08759,-0.05782 -0.200913,-0.09981 -0.340031,-0.12609 -0.01481,-0.0013 -0.03021,-0.0019 -0.04599,-0.0016 z m -0.13591,0.4950595 c 0.01964,0.0011 0.03647,0.0073 0.05064,0.01912 0.01546,0.02103 0.02533,0.05002 0.03049,0.08682 0.0052,0.03154 0.0026,0.07601 -0.0078,0.133842 -0.0052,0.05257 -0.02803,0.121044 -0.06925,0.205155 0.04122,-0.0105 0.08228,-0.01851 0.123506,-0.02377 0.04122,-0.0053 0.07449,-0.01325 0.100252,-0.02377 0.03091,-0.0105 0.0595,-0.01799 0.08527,-0.02325 0.02061,-0.0053 0.02321,0.03673 0.0078,0.12609 -0.0103,0.08411 -0.0285,0.191556 -0.05426,0.322978 -0.02576,0.131424 -0.05643,0.268376 -0.0925,0.410311 -0.03607,0.141936 -0.06725,0.265381 -0.09302,0.37052 -0.0052,0.02628 -0.02803,0.06826 -0.06925,0.12609 -0.03607,0.05783 -0.08493,0.120797 -0.146761,0.189136 -0.05668,0.06834 -0.123732,0.134322 -0.201021,0.197404 -0.07214,0.06308 -0.146988,0.115559 -0.224276,0.157613 -0.07214,0.0368 -0.144389,0.05778 -0.216524,0.06305 -0.07214,0 -0.136593,-0.02899 -0.19327,-0.08682 -0.03091,-0.03154 -0.05119,-0.097 -0.0615,-0.196887 -0.0103,-0.105138 -0.0077,-0.226091 0.0078,-0.362769 0.02061,-0.136679 0.05388,-0.281116 0.100251,-0.433565 0.04637,-0.157707 0.108229,-0.305155 0.185519,-0.441834 0.185491,-0.331185 0.347673,-0.557085 0.486792,-0.677994 0.108204,-0.09462 0.192215,-0.140415 0.251147,-0.13746 z M 5.3711867,11.668079 H 6.629508 c 0.01556,0.0045 0.076394,0.02047 0.1508951,0.06925 0.081293,0.05323 0.1277935,0.07218 0.1302247,0.167432 l 0.020153,0.0801 -0.6268349,0.400492 H 5.3711864 c 0,0 -0.065354,-0.002 -0.1369425,-0.04599 -0.071589,-0.04396 -0.1539957,-0.102199 -0.1539957,-0.383439 v -0.109037 c 0.01497,-0.04361 0.077667,-0.178801 0.2909385,-0.178801 z"
     style="font-weight:bold;font-size:322.102px;line-height:1.25;font-family:Montserrat;letter-spacing:0px;word-spacing:0px;fill:#ffffff;stroke-width:0.0189893"
     id="path899"
     sodipodi:nodetypes="sssscsssccsscsccssscssccsccssccccscscsscccccssccccccccccsccsscccccccccccccccccccccccccccccccccccccccscccsccccccccccscsccccccccccccccccssccccccscccccccccscccccsccc" />
  <path
     id="rect847"
     style="opacity:0.2;fill:#000000;stroke-width:2.44949;stroke-linejoin:round"
     d="M 8 7.0429688 C 5.5433139 9.2373175 4 12.431628 4 16 L 4 48 C 4 51.568372 5.5433139 54.762682 8 56.957031 L 8 7.0429688 z "
     transform="scale(0.26458334)" />
  <path
     id="rect845"
     style="opacity:0.2;fill:#000000;stroke-width:0.999999"
     d="M 4 47 L 4 48 C 4 54.648 9.3519997 60 16 60 L 48 60 C 54.648 60 60 54.648 60 48 L 60 47 C 60 53.648 54.648 59 48 59 L 16 59 C 9.3519997 59 4 53.648 4 47 z "
     transform="scale(0.26458334)" />
  <path
     id="rect843"
     style="opacity:0.2;fill:#ffffff;stroke-width:0.999999"
     d="M 16 4 C 9.3519997 4 4 9.3519997 4 16 L 4 17 C 4 10.352 9.3519997 5 16 5 L 48 5 C 54.648 5 60 10.352 60 17 L 60 16 C 60 9.3519997 54.648 4 48 4 L 16 4 z "
     transform="scale(0.26458334)" />
</svg>
