<?xml version="1.0" encoding="UTF-8" standalone="no"?>
<!-- Created with Inkscape (http://www.inkscape.org/) -->

<svg
   width="64"
   height="64"
   viewBox="0 0 16.933333 16.933334"
   version="1.1"
   id="svg5"
   inkscape:version="1.2 (dc2aedaf03, 2022-05-15)"
   sodipodi:docname="plasma.svg"
   xmlns:inkscape="http://www.inkscape.org/namespaces/inkscape"
   xmlns:sodipodi="http://sodipodi.sourceforge.net/DTD/sodipodi-0.dtd"
   xmlns="http://www.w3.org/2000/svg"
   xmlns:svg="http://www.w3.org/2000/svg">
  <sodipodi:namedview
     id="namedview7"
     pagecolor="#ffffff"
     bordercolor="#666666"
     borderopacity="1.0"
     inkscape:pageshadow="2"
     inkscape:pageopacity="0.0"
     inkscape:pagecheckerboard="0"
     inkscape:document-units="px"
     showgrid="false"
     units="px"
     height="64px"
     inkscape:zoom="6.171875"
     inkscape:cx="16.76962"
     inkscape:cy="25.762025"
     inkscape:window-width="1920"
     inkscape:window-height="1024"
     inkscape:window-x="0"
     inkscape:window-y="32"
     inkscape:window-maximized="1"
     inkscape:current-layer="svg5"
     inkscape:showpageshadow="2"
     inkscape:deskcolor="#d1d1d1" />
  <defs
     id="defs2" />
  <rect
     style="fill:#3daee9;stroke-width:0.264583;fill-opacity:1"
     id="rect846"
     width="14.816667"
     height="14.816667"
     x="1.0583335"
     y="1.0583333"
     ry="3.175" />
  <path
     d="m 5.8208334,3.4395834 c -0.439737,0 -0.7937499,0.3540125 -0.7937499,0.79375 0,0.4397375 0.3540129,0.79375 0.7937499,0.79375 0.439738,0 0.79375,-0.3540125 0.79375,-0.79375 0,-0.4397375 -0.354012,-0.79375 -0.79375,-0.79375 z m 4.1578858,0 L 8.4666665,4.9211466 10.734745,7.1437502 8.4666665,9.3663536 9.9787192,10.847916 12.246281,8.6253135 13.758334,7.1437502 12.246281,5.662187 Z M 4.1010418,7.6729169 c -0.5130234,0 -0.9260417,0.4130109 -0.9260417,0.9260418 0,0.5130229 0.4130183,0.9260419 0.9260417,0.9260419 0.5130308,0 0.9260417,-0.413019 0.9260417,-0.9260419 0,-0.5130308 -0.4130109,-0.9260418 -0.9260417,-0.9260418 z m 3.0427086,3.7041661 c -0.732896,0 -1.322917,0.590021 -1.322917,1.322916 0,0.732896 0.590021,1.322917 1.322917,1.322917 0.732896,0 1.322916,-0.590021 1.322916,-1.322917 0,-0.732895 -0.59002,-1.322916 -1.322916,-1.322916 z"
     style="opacity:0.2;fill:#000000;stroke-width:0.264583"
     id="path1954" />
  <path
     id="rect845"
     style="opacity:0.2;fill:#000000;stroke-width:0.999999"
     d="M 4 47 L 4 48 C 4 54.648 9.3519997 60 16 60 L 48 60 C 54.648 60 60 54.648 60 48 L 60 47 C 60 53.648 54.648 59 48 59 L 16 59 C 9.3519997 59 4 53.648 4 47 z "
     transform="scale(0.26458334)" />
  <path
     id="rect843"
     style="opacity:0.2;fill:#ffffff;stroke-width:0.999999"
     d="M 16 4 C 9.3519997 4 4 9.3519997 4 16 L 4 17 C 4 10.352 9.3519997 5 16 5 L 48 5 C 54.648 5 60 10.352 60 17 L 60 16 C 60 9.3519997 54.648 4 48 4 L 16 4 z "
     transform="scale(0.26458334)" />
  <path
     d="m 5.8208335,3.1749997 c -0.439737,0 -0.79375,0.3540125 -0.79375,0.79375 0,0.4397375 0.354013,0.79375 0.79375,0.79375 0.439738,0 0.79375,-0.3540125 0.79375,-0.79375 0,-0.4397375 -0.354012,-0.79375 -0.79375,-0.79375 z m 4.1578859,0 L 8.4666666,4.6565629 10.734745,6.8791664 8.4666666,9.1017697 9.9787194,10.583332 12.246281,8.3607297 13.758333,6.8791664 12.246281,5.3976032 Z M 4.1010418,7.4083331 c -0.5130234,0 -0.9260417,0.4130109 -0.9260417,0.9260418 0,0.5130228 0.4130183,0.9260418 0.9260417,0.9260418 0.5130308,0 0.9260417,-0.413019 0.9260417,-0.9260418 0,-0.5130308 -0.4130109,-0.9260418 -0.9260417,-0.9260418 z m 3.0427087,3.7041659 c -0.732896,0 -1.322917,0.590021 -1.322917,1.322917 0,0.732896 0.590021,1.322917 1.322917,1.322917 0.732896,0 1.322916,-0.590021 1.322916,-1.322917 0,-0.732896 -0.59002,-1.322917 -1.322916,-1.322917 z"
     style="fill:#ffffff;stroke-width:0.264583"
     id="path1362"
     sodipodi:nodetypes="ssssscccccccccssssssssss" />
</svg>
