<?xml version="1.0" encoding="UTF-8" standalone="no"?>
<!-- Created with Inkscape (http://www.inkscape.org/) -->

<svg
   width="64"
   height="64"
   viewBox="0 0 16.933333 16.933334"
   version="1.1"
   id="svg5"
   inkscape:version="1.2 (dc2aedaf03, 2022-05-15)"
   sodipodi:docname="plasmadiscover.svg"
   xmlns:inkscape="http://www.inkscape.org/namespaces/inkscape"
   xmlns:sodipodi="http://sodipodi.sourceforge.net/DTD/sodipodi-0.dtd"
   xmlns="http://www.w3.org/2000/svg"
   xmlns:svg="http://www.w3.org/2000/svg">
  <sodipodi:namedview
     id="namedview7"
     pagecolor="#ffffff"
     bordercolor="#666666"
     borderopacity="1.0"
     inkscape:pageshadow="2"
     inkscape:pageopacity="0.0"
     inkscape:pagecheckerboard="0"
     inkscape:document-units="px"
     showgrid="false"
     units="px"
     height="64px"
     inkscape:zoom="12.34375"
     inkscape:cx="32"
     inkscape:cy="32"
     inkscape:window-width="1920"
     inkscape:window-height="1011"
     inkscape:window-x="0"
     inkscape:window-y="0"
     inkscape:window-maximized="1"
     inkscape:current-layer="svg5"
     inkscape:showpageshadow="2"
     inkscape:deskcolor="#d1d1d1" />
  <defs
     id="defs2" />
  <rect
     style="fill:#348af2;stroke-width:0.264583;fill-opacity:1"
     id="rect846"
     width="14.816667"
     height="14.816667"
     x="1.0583335"
     y="1.0583333"
     ry="3.175" />
  <path
     id="path415"
     style="opacity:0.1;fill:#000000;fill-opacity:1;stroke-width:0.999999;stroke-linecap:round;stroke-linejoin:round"
     d="M 6.6517904 4.1480673 L 5.7836264 5.0162313 L 10.506336 9.7389405 L 9.6934653 10.551811 L 14.476636 15.334981 C 15.321591 14.765632 15.875 13.799856 15.875 12.7 L 15.875 10.191109 L 12.964583 7.2806926 L 11.3745 8.8707765 L 6.6517904 4.1480673 z M 5.7143799 7.5793824 L 4.2674398 9.0263225 L 7.1297974 11.88868 L 6.3717042 12.646773 L 9.5999309 15.875 L 12.7 15.875 C 13.091279 15.875 13.465514 15.804377 13.811043 15.676046 L 5.7143799 7.5793824 z " />
  <path
     d="m 6.2177084,3.96875 c -0.3397973,0 -0.6133525,0.273555 -0.6133525,0.6133522 0,0.3397972 0.2735552,0.6133523 0.6133525,0.6133523 0.339797,0 0.6133521,-0.2735551 0.6133521,-0.6133523 C 6.8310605,4.242305 6.5575054,3.96875 6.2177084,3.96875 Z M 9.6933714,4.00948 8.4666664,5.2361845 10.511174,7.280692 8.4666664,9.3251998 9.6933714,10.551905 12.964584,7.2806921 Z M 4.9910036,7.2806927 c -0.5663284,0 -1.0222536,0.4559254 -1.0222536,1.0222537 0,0.5663291 0.4559252,1.0222535 1.0222536,1.0222535 0.5663288,0 1.022254,-0.4559245 1.022254,-1.0222535 0,-0.5663283 -0.4559252,-1.0222537 -1.022254,-1.0222537 z M 7.239962,10.551905 c -0.6795943,0 -1.2267044,0.54711 -1.2267044,1.226705 0,0.679594 0.5471101,1.226705 1.2267044,1.226705 0.6795944,0 1.2267044,-0.547111 1.2267044,-1.226705 0,-0.679595 -0.54711,-1.226705 -1.2267044,-1.226705 z"
     style="isolation:auto;mix-blend-mode:normal;fill:#f2fafe;fill-opacity:1;stroke-width:0.408901"
     id="path385" />
  <path
     id="rect845"
     style="opacity:0.2;fill:#000000;stroke-width:0.999999"
     d="M 4 47 L 4 48 C 4 54.648 9.3519997 60 16 60 L 48 60 C 54.648 60 60 54.648 60 48 L 60 47 C 60 53.648 54.648 59 48 59 L 16 59 C 9.3519997 59 4 53.648 4 47 z "
     transform="scale(0.26458334)" />
  <path
     id="rect843"
     style="opacity:0.2;fill:#ffffff;stroke-width:0.999999"
     d="M 16 4 C 9.3519997 4 4 9.3519997 4 16 L 4 17 C 4 10.352 9.3519997 5 16 5 L 48 5 C 54.648 5 60 10.352 60 17 L 60 16 C 60 9.3519997 54.648 4 48 4 L 16 4 z "
     transform="scale(0.26458334)" />
</svg>
