<?xml version="1.0" encoding="UTF-8" standalone="no"?>
<!-- Created with Inkscape (http://www.inkscape.org/) -->

<svg
   width="64"
   height="64"
   viewBox="0 0 16.933333 16.933334"
   version="1.1"
   id="svg5"
   inkscape:version="1.1.2 (0a00cf5339, 2022-02-04, custom)"
   sodipodi:docname="preferences-online-accounts.svg"
   xmlns:inkscape="http://www.inkscape.org/namespaces/inkscape"
   xmlns:sodipodi="http://sodipodi.sourceforge.net/DTD/sodipodi-0.dtd"
   xmlns="http://www.w3.org/2000/svg"
   xmlns:svg="http://www.w3.org/2000/svg">
  <sodipodi:namedview
     id="namedview7"
     pagecolor="#ffffff"
     bordercolor="#666666"
     borderopacity="1.0"
     inkscape:pageshadow="2"
     inkscape:pageopacity="0.0"
     inkscape:pagecheckerboard="0"
     inkscape:document-units="px"
     showgrid="false"
     units="px"
     height="64px"
     inkscape:zoom="12.25"
     inkscape:cx="32"
     inkscape:cy="32"
     inkscape:window-width="1920"
     inkscape:window-height="1011"
     inkscape:window-x="0"
     inkscape:window-y="0"
     inkscape:window-maximized="1"
     inkscape:current-layer="svg5" />
  <defs
     id="defs2" />
  <rect
     style="fill:#2696f7;fill-opacity:1;stroke-width:0.264583"
     id="rect846"
     width="14.816667"
     height="14.816667"
     x="1.0583334"
     y="1.0583334"
     ry="3.175" />
  <path
     id="rect12059"
     style="opacity:0.2;fill:#ffffff;fill-opacity:1;stroke-width:0.999999"
     d="M 16 4 C 9.3519997 4 4 9.3519997 4 16 L 4 17 C 4 10.352 9.3519997 5 16 5 L 48 5 C 54.648 5 60 10.352 60 17 L 60 16 C 60 9.3519997 54.648 4 48 4 L 16 4 z "
     transform="scale(0.26458334)" />
  <path
     id="rect14210"
     style="opacity:0.2;fill:#000000;fill-opacity:1;stroke-width:0.999999"
     d="M 4 47 L 4 48 C 4 54.648 9.3519997 60 16 60 L 48 60 C 54.648 60 60 54.648 60 48 L 60 47 C 60 53.648 54.648 59 48 59 L 16 59 C 9.3519997 59 4 53.648 4 47 z "
     transform="scale(0.26458334)" />
  <path
     d="m 8.669236,12.501427 c 0.7486982,0 1.614076,-0.204191 2.015976,-0.392175 l -0.226879,-0.709806 c -0.272254,0.09723 -1.020952,0.333836 -1.7469625,0.333836 -2.1812726,0 -3.3513164,-1.202456 -3.3513164,-3.3545579 0,-2.0613511 1.1570793,-3.3934509 3.231395,-3.3934509 1.8960539,0 3.0272049,1.2186605 3.0239629,2.8651486 0.0032,1.4066451 -0.178261,2.0386636 -0.768144,2.0386636 -0.333836,0 -0.51858,-0.2722539 -0.51858,-0.6125718 V 6.2687561 H 9.5313733 V 6.6317613 H 9.4892387 C 9.3920052,6.3465429 8.8280505,6.0904948 8.1506569,6.1715227 7.2139737,6.2817206 6.4101765,7.0563479 6.4101765,8.3333485 c 0,1.3320992 0.6806347,2.2234075 1.7728917,2.2655415 0.7389748,0.03241 1.2186605,-0.311148 1.3709929,-0.6935992 h 0.038893 c 0.077787,0.5218192 0.6417419,0.7519392 1.1959739,0.7324932 1.383957,-0.02593 1.646489,-1.3871987 1.646489,-2.7549509 0,-1.9511533 -1.335342,-3.6494993 -3.8115572,-3.6494993 -2.5961356,0 -4.1227025,1.5849069 -4.1259436,4.1389081 0.00324,2.6285471 1.4909146,4.1291851 4.1713198,4.1291851 z M 8.371053,9.8048162 c -0.8459318,0 -1.1376326,-0.7260105 -1.1408737,-1.5103611 0.00324,-0.7454573 0.4213455,-1.3385819 1.1538382,-1.3385819 0.794074,0 1.1505969,0.3500407 1.1538382,1.3353408 0.00324,1.0112288 -0.3241119,1.5136022 -1.1668027,1.5136022 z"
     style="font-weight:500;font-size:10.5145px;line-height:1.25;font-family:Inter;-inkscape-font-specification:'Inter Medium';fill:#f9f9f9;stroke-width:0.0603711"
     id="path7773" />
</svg>
