<?xml version="1.0" encoding="UTF-8" standalone="no"?>
<!-- Created with Inkscape (http://www.inkscape.org/) -->

<svg
   width="64"
   height="64"
   viewBox="0 0 16.933333 16.933334"
   version="1.1"
   id="svg5"
   inkscape:version="1.1.2 (0a00cf5339, 2022-02-04, custom)"
   sodipodi:docname="rhythmbox.svg"
   xmlns:inkscape="http://www.inkscape.org/namespaces/inkscape"
   xmlns:sodipodi="http://sodipodi.sourceforge.net/DTD/sodipodi-0.dtd"
   xmlns="http://www.w3.org/2000/svg"
   xmlns:svg="http://www.w3.org/2000/svg">
  <sodipodi:namedview
     id="namedview7"
     pagecolor="#ffffff"
     bordercolor="#666666"
     borderopacity="1.0"
     inkscape:pageshadow="2"
     inkscape:pageopacity="0.0"
     inkscape:pagecheckerboard="0"
     inkscape:document-units="px"
     showgrid="false"
     units="px"
     height="64px"
     inkscape:zoom="12.40625"
     inkscape:cx="31.959698"
     inkscape:cy="32"
     inkscape:window-width="1920"
     inkscape:window-height="1017"
     inkscape:window-x="0"
     inkscape:window-y="32"
     inkscape:window-maximized="1"
     inkscape:current-layer="svg5" />
  <defs
     id="defs2" />
  <rect
     style="fill:#eff0f1;stroke-width:0.264583;fill-opacity:1"
     id="rect846"
     width="14.816667"
     height="14.816667"
     x="1.0583335"
     y="1.0583333"
     ry="3.175" />
  <ellipse
     style="fill:#808080;stroke-width:0.264583"
     id="path1118"
     cx="8.597826"
     cy="8.9410973"
     rx="3.8194175"
     ry="3.7052145" />
  <circle
     style="fill:#444444;stroke-width:0.330728;fill-opacity:1"
     id="path1406"
     cx="8.4666662"
     cy="8.4666662"
     r="5.2916665" />
  <circle
     style="fill:#686868;stroke-width:0.345993;fill-opacity:1"
     id="path1678"
     cx="8.4666662"
     cy="8.4666662"
     r="4.4979167" />
  <circle
     style="fill:#e2c94f;fill-opacity:1;stroke-width:2.88336;stroke-linecap:round;stroke-linejoin:round"
     id="path2453"
     cx="8.4666662"
     cy="8.4666662"
     r="3.96875" />
  <circle
     style="fill:#151515;fill-opacity:1;stroke-width:4.16718;stroke-linecap:round;stroke-linejoin:round"
     id="path3067"
     cx="8.4666662"
     cy="8.4666662"
     r="1.8520833" />
  <circle
     style="fill:#424242;fill-opacity:1;stroke-width:8.20663;stroke-linecap:round;stroke-linejoin:round"
     id="path3261"
     cx="8.4666662"
     cy="8.4666662"
     r="1.5875" />
  <path
     id="path2912"
     style="fill:#999999;fill-opacity:1;stroke-width:0.261938"
     d="m 3.0427084,2.6458334 a 0.396875,0.396875 0 0 0 -0.396875,0.396875 0.396875,0.396875 0 0 0 0.396875,0.396875 0.396875,0.396875 0 0 0 0.396875,-0.396875 0.396875,0.396875 0 0 0 -0.396875,-0.396875 z m 10.8479166,0 a 0.396875,0.396875 0 0 0 -0.396875,0.396875 0.396875,0.396875 0 0 0 0.396875,0.396875 0.396875,0.396875 0 0 0 0.396875,-0.396875 0.396875,0.396875 0 0 0 -0.396875,-0.396875 z M 3.0427084,13.49375 a 0.396875,0.396875 0 0 0 -0.396875,0.396875 0.396875,0.396875 0 0 0 0.396875,0.396875 0.396875,0.396875 0 0 0 0.396875,-0.396875 0.396875,0.396875 0 0 0 -0.396875,-0.396875 z m 10.8479166,0 A 0.396875,0.396875 0 0 0 13.49375,13.890625 0.396875,0.396875 0 0 0 13.890625,14.2875 0.396875,0.396875 0 0 0 14.2875,13.890625 0.396875,0.396875 0 0 0 13.890625,13.49375 Z" />
  <path
     id="rect845"
     style="opacity:0.2;fill:#000000;stroke-width:0.999999"
     d="M 4 47 L 4 48 C 4 54.648 9.3519997 60 16 60 L 48 60 C 54.648 60 60 54.648 60 48 L 60 47 C 60 53.648 54.648 59 48 59 L 16 59 C 9.3519997 59 4 53.648 4 47 z "
     transform="scale(0.26458334)" />
  <path
     id="rect843"
     style="opacity:0.2;fill:#ffffff;stroke-width:0.999999"
     d="M 16 4 C 9.3519997 4 4 9.3519997 4 16 L 4 17 C 4 10.352 9.3519997 5 16 5 L 48 5 C 54.648 5 60 10.352 60 17 L 60 16 C 60 9.3519997 54.648 4 48 4 L 16 4 z "
     transform="scale(0.26458334)" />
</svg>
