<?xml version="1.0" encoding="UTF-8" standalone="no"?>
<!-- Created with Inkscape (http://www.inkscape.org/) -->

<svg
   width="64"
   height="64"
   viewBox="0 0 16.933333 16.933334"
   version="1.1"
   id="svg5"
   inkscape:version="1.1.2 (0a00cf5339, 2022-02-04, custom)"
   sodipodi:docname="steam.svg"
   xmlns:inkscape="http://www.inkscape.org/namespaces/inkscape"
   xmlns:sodipodi="http://sodipodi.sourceforge.net/DTD/sodipodi-0.dtd"
   xmlns="http://www.w3.org/2000/svg"
   xmlns:svg="http://www.w3.org/2000/svg">
  <sodipodi:namedview
     id="namedview7"
     pagecolor="#ffffff"
     bordercolor="#666666"
     borderopacity="1.0"
     inkscape:pageshadow="2"
     inkscape:pageopacity="0.0"
     inkscape:pagecheckerboard="0"
     inkscape:document-units="px"
     showgrid="false"
     units="px"
     height="64px"
     inkscape:zoom="10.025764"
     inkscape:cx="30.371751"
     inkscape:cy="29.523935"
     inkscape:window-width="1920"
     inkscape:window-height="1017"
     inkscape:window-x="0"
     inkscape:window-y="32"
     inkscape:window-maximized="1"
     inkscape:current-layer="svg5" />
  <defs
     id="defs2" />
  <rect
     style="fill:#2862b3;stroke-width:0.264583;fill-opacity:1"
     id="rect846"
     width="14.816667"
     height="14.816667"
     x="1.0583335"
     y="1.0583333"
     ry="3.175" />
  <path
     d="m 8.6352534,6.5348661 c 0,0.012525 0,0.025035 6.35e-4,0.036787 L 6.8151726,9.2165227 C 6.5202339,9.2031127 6.2242734,9.2548427 5.9436407,9.3704427 5.81993,9.4208927 5.704011,9.4828487 5.5952453,9.5543797 L 1.0583333,7.379355 c 3.13e-5,0 0,2.5531687 0,2.5531687 l 3.6582834,1.7984523 c 0.141913,0.634202 0.5769764,1.190485 1.2188418,1.458088 1.0501685,0.438767 2.2610269,-0.06131 2.6978779,-1.111929 0.113684,-0.274629 0.166694,-0.56267 0.15903,-0.850072 L 11.397509,9.3653337 c 0.02107,6.35e-4 0.04279,0.0013 0.06387,0.0013 1.558999,0 2.826124,-1.2709579 2.826124,-2.8317445 0,-1.5609146 -1.267125,-2.8307225 -2.826124,-2.8307225 -1.5583596,0 -2.8261236,1.2698079 -2.8261236,2.8307225 z m -0.436852,5.3596089 c -0.338113,0.811753 -1.2709576,1.196872 -2.0818158,0.859014 -0.37407,-0.155836 -0.656491,-0.441321 -0.8194161,-0.781735 l 0.920007,0.381288 c 0.5979887,0.249082 1.2840504,-0.03449 1.5326209,-0.632285 0.249338,-0.598437 -0.03353,-1.285649 -0.631199,-1.534731 L 6.1675518,9.7919657 c 0.366981,-0.13923 0.7841615,-0.14434 1.173943,0.01788 0.3929746,0.1635 0.6978766,0.4713403 0.8594606,0.8647623 0.161584,0.393423 0.160946,0.827719 -0.0025,1.219864 M 11.461417,8.4213744 c -1.037843,0 -1.8828056,-0.8462407 -1.8828056,-1.8865093 0,-1.0394389 0.8449626,-1.8859348 1.8828056,-1.8859348 1.03848,0 1.883444,0.8464959 1.883444,1.8859348 0,1.0402686 -0.844964,1.8865093 -1.883444,1.8865093 M 10.05055,6.5319919 c 0,-0.7825647 0.633563,-1.4172771 1.41402,-1.4172771 0.781096,0 1.414658,0.6347124 1.414658,1.4172771 0,0.7826288 -0.633562,1.4167662 -1.414658,1.4167662 -0.780457,0 -1.41402,-0.6341374 -1.41402,-1.4167662 z"
     style="fill:#ffffff;stroke-width:0.0168982"
     id="path863" />
  <path
     id="rect845"
     style="opacity:0.2;fill:#000000;stroke-width:0.999999"
     d="M 4 47 L 4 48 C 4 54.648 9.3519997 60 16 60 L 48 60 C 54.648 60 60 54.648 60 48 L 60 47 C 60 53.648 54.648 59 48 59 L 16 59 C 9.3519997 59 4 53.648 4 47 z "
     transform="scale(0.26458334)" />
  <path
     id="rect843"
     style="opacity:0.2;fill:#ffffff;stroke-width:0.999999"
     d="M 16 4 C 9.3519997 4 4 9.3519997 4 16 L 4 17 C 4 10.352 9.3519997 5 16 5 L 48 5 C 54.648 5 60 10.352 60 17 L 60 16 C 60 9.3519997 54.648 4 48 4 L 16 4 z "
     transform="scale(0.26458334)" />
</svg>
