<?xml version="1.0" encoding="UTF-8" standalone="no"?>
<!-- Created with Inkscape (http://www.inkscape.org/) -->

<svg
   width="64"
   height="64"
   viewBox="0 0 16.933333 16.933334"
   version="1.1"
   id="svg5"
   inkscape:version="1.2 (dc2aedaf03, 2022-05-15)"
   sodipodi:docname="teamviewer.svg"
   xmlns:inkscape="http://www.inkscape.org/namespaces/inkscape"
   xmlns:sodipodi="http://sodipodi.sourceforge.net/DTD/sodipodi-0.dtd"
   xmlns="http://www.w3.org/2000/svg"
   xmlns:svg="http://www.w3.org/2000/svg">
  <sodipodi:namedview
     id="namedview7"
     pagecolor="#ffffff"
     bordercolor="#666666"
     borderopacity="1.0"
     inkscape:pageshadow="2"
     inkscape:pageopacity="0.0"
     inkscape:pagecheckerboard="0"
     inkscape:document-units="px"
     showgrid="false"
     units="px"
     height="64px"
     inkscape:zoom="13.53125"
     inkscape:cx="32.073903"
     inkscape:cy="32.110855"
     inkscape:window-width="1391"
     inkscape:window-height="901"
     inkscape:window-x="46"
     inkscape:window-y="104"
     inkscape:window-maximized="0"
     inkscape:current-layer="svg5"
     inkscape:showpageshadow="2"
     inkscape:deskcolor="#d1d1d1" />
  <defs
     id="defs2" />
  <rect
     style="fill:#2696f7;stroke-width:0.264583;fill-opacity:1"
     id="rect846"
     width="14.816667"
     height="14.816667"
     x="1.0583335"
     y="1.0583333"
     ry="3.175" />
  <path
     d="m 8.4666669,3.1750001 c -3.068632,0 -5.5562501,2.4876182 -5.5562501,5.5562502 0,3.0686327 2.4876181,5.5562507 5.5562501,5.5562507 3.0686321,0 5.5562501,-2.487618 5.5562501,-5.5562507 0,-3.068632 -2.487618,-5.5562502 -5.5562501,-5.5562502 z M 6.3500002,6.6145836 V 7.6729169 H 10.583334 V 6.6145836 l 2.910417,2.1166667 -2.910417,2.1166667 V 9.7895839 H 6.3500002 V 10.847917 L 3.4395835,8.7312503 Z"
     style="fill:#000000;stroke-width:0.264583;opacity:0.2"
     id="path1104" />
  <path
     d="m 8.4666669,2.9104163 c -3.068632,0 -5.5562502,2.4876181 -5.5562502,5.5562501 0,3.0686326 2.4876182,5.5562506 5.5562502,5.5562506 3.0686321,0 5.5562501,-2.487618 5.5562501,-5.5562506 0,-3.068632 -2.487618,-5.5562501 -5.5562501,-5.5562501 z M 6.3500002,6.3499997 V 7.408333 H 10.583334 V 6.3499997 l 2.910417,2.1166667 -2.910417,2.1166666 V 9.5249998 H 6.3500002 V 10.583333 L 3.4395834,8.4666664 Z"
     style="fill:#ffffff;stroke-width:0.264583"
     id="path304"
     sodipodi:nodetypes="sssssccccccccccc" />
  <path
     id="rect845"
     style="opacity:0.2;fill:#000000;stroke-width:0.999999"
     d="M 4 47 L 4 48 C 4 54.648 9.3519997 60 16 60 L 48 60 C 54.648 60 60 54.648 60 48 L 60 47 C 60 53.648 54.648 59 48 59 L 16 59 C 9.3519997 59 4 53.648 4 47 z "
     transform="scale(0.26458334)" />
  <path
     id="rect843"
     style="opacity:0.2;fill:#ffffff;stroke-width:0.999999"
     d="M 16 4 C 9.3519997 4 4 9.3519997 4 16 L 4 17 C 4 10.352 9.3519997 5 16 5 L 48 5 C 54.648 5 60 10.352 60 17 L 60 16 C 60 9.3519997 54.648 4 48 4 L 16 4 z "
     transform="scale(0.26458334)" />
</svg>
