<?xml version="1.0" encoding="UTF-8" standalone="no"?>
<!-- Created with Inkscape (http://www.inkscape.org/) -->

<svg
   width="64"
   height="64"
   viewBox="0 0 16.933333 16.933334"
   version="1.1"
   id="svg5"
   inkscape:version="1.2 (dc2aedaf03, 2022-05-15)"
   sodipodi:docname="twitter.svg"
   xmlns:inkscape="http://www.inkscape.org/namespaces/inkscape"
   xmlns:sodipodi="http://sodipodi.sourceforge.net/DTD/sodipodi-0.dtd"
   xmlns="http://www.w3.org/2000/svg"
   xmlns:svg="http://www.w3.org/2000/svg">
  <sodipodi:namedview
     id="namedview7"
     pagecolor="#ffffff"
     bordercolor="#666666"
     borderopacity="1.0"
     inkscape:pageshadow="2"
     inkscape:pageopacity="0.0"
     inkscape:pagecheckerboard="0"
     inkscape:document-units="px"
     showgrid="false"
     units="px"
     height="64px"
     inkscape:zoom="12.25"
     inkscape:cx="32"
     inkscape:cy="32"
     inkscape:window-width="1920"
     inkscape:window-height="1011"
     inkscape:window-x="0"
     inkscape:window-y="0"
     inkscape:window-maximized="1"
     inkscape:current-layer="svg5"
     inkscape:showpageshadow="2"
     inkscape:deskcolor="#d1d1d1" />
  <defs
     id="defs2" />
  <rect
     style="fill:#1da1f2;stroke-width:0.264583;fill-opacity:1"
     id="rect846"
     width="14.816667"
     height="14.816667"
     x="1.0583335"
     y="1.0583333"
     ry="3.175" />
  <path
     d="m 9.9362021,3.819769 c -1.051359,0.3928835 -1.714549,1.3986692 -1.640686,2.5050331 l 0.02671,0.4258864 -0.421173,-0.05186 C 6.3719518,6.4992429 5.0345733,5.82191 3.8983501,4.6825445 L 3.3435969,4.1167897 3.2005869,4.5363913 C 2.8972798,5.4651696 3.090578,6.4489541 3.7207661,7.109001 4.0570753,7.4735968 3.9816415,7.525458 3.4001721,7.308585 3.1990151,7.2394318 3.021431,7.1875702 3.0041444,7.214293 2.9459964,7.275585 3.1487265,8.0660669 3.3074511,8.3803751 3.5258957,8.815691 3.9722123,9.241578 4.4593894,9.493024 L 4.872704,9.69261 4.385527,9.70211 c -0.4714619,0 -0.4871771,0.0095 -0.4400311,0.191728 0.1681541,0.565755 0.8329153,1.166082 1.5731106,1.426959 l 0.5217509,0.182298 -0.4541741,0.278163 a 4.6517551,4.6517551 0 0 1 -2.2520158,0.644337 c -0.3787409,0.0079 -0.6883341,0.04243 -0.6883341,0.06757 0,0.08643 1.0246435,0.57204 1.6218282,0.763769 1.7915542,0.565754 3.9194175,0.322166 5.5192445,-0.642757 1.1346509,-0.686764 2.2708749,-2.050861 2.8004839,-3.372526 0.28602,-0.705622 0.57204,-1.9911404 0.57204,-2.6134693 0,-0.3991708 0.02514,-0.4526032 0.496606,-0.9303509 0.278162,-0.278162 0.539038,-0.5814686 0.589326,-0.6694743 0.08486,-0.166584 0.07544,-0.166584 -0.353596,-0.0157 -0.715052,0.2608665 -0.8172,0.2278637 -0.462032,-0.16502 0.260876,-0.2781622 0.57204,-0.7810559 0.57204,-0.9287799 0,-0.025152 -0.12572,0.01408 -0.268732,0.094292 A 4.5260319,4.5260319 0 0 1 12.992846,4.3070261 L 12.5371,4.4547121 12.125356,4.1686931 C 11.899056,4.0115562 11.578461,3.8386876 11.410307,3.7852554 a 2.8209123,2.8209123 0 0 0 -1.4709619,0.034568"
     fill="#ffffff"
     id="path6"
     style="stroke-width:1.57153" />
  <path
     id="rect845"
     style="opacity:0.2;fill:#000000;stroke-width:0.999999"
     d="M 4 47 L 4 48 C 4 54.648 9.3519997 60 16 60 L 48 60 C 54.648 60 60 54.648 60 48 L 60 47 C 60 53.648 54.648 59 48 59 L 16 59 C 9.3519997 59 4 53.648 4 47 z "
     transform="scale(0.26458334)" />
  <path
     id="rect843"
     style="opacity:0.2;fill:#ffffff;stroke-width:0.999999"
     d="M 16 4 C 9.3519997 4 4 9.3519997 4 16 L 4 17 C 4 10.352 9.3519997 5 16 5 L 48 5 C 54.648 5 60 10.352 60 17 L 60 16 C 60 9.3519997 54.648 4 48 4 L 16 4 z "
     transform="scale(0.26458334)" />
</svg>
