<?xml version="1.0" encoding="UTF-8" standalone="no"?>
<!-- Created with Inkscape (http://www.inkscape.org/) -->

<svg
   width="64"
   height="64"
   viewBox="0 0 16.933333 16.933334"
   version="1.1"
   id="svg5"
   inkscape:version="1.2 (dc2aedaf03, 2022-05-15)"
   sodipodi:docname="ubuntusoftware.svg"
   xmlns:inkscape="http://www.inkscape.org/namespaces/inkscape"
   xmlns:sodipodi="http://sodipodi.sourceforge.net/DTD/sodipodi-0.dtd"
   xmlns="http://www.w3.org/2000/svg"
   xmlns:svg="http://www.w3.org/2000/svg">
  <sodipodi:namedview
     id="namedview7"
     pagecolor="#ffffff"
     bordercolor="#666666"
     borderopacity="1.0"
     inkscape:pageshadow="2"
     inkscape:pageopacity="0.0"
     inkscape:pagecheckerboard="0"
     inkscape:document-units="px"
     showgrid="false"
     units="px"
     height="64px"
     inkscape:zoom="12.34375"
     inkscape:cx="27.301266"
     inkscape:cy="32"
     inkscape:window-width="1920"
     inkscape:window-height="1011"
     inkscape:window-x="0"
     inkscape:window-y="0"
     inkscape:window-maximized="1"
     inkscape:current-layer="svg5"
     inkscape:showpageshadow="2"
     inkscape:deskcolor="#d1d1d1" />
  <defs
     id="defs2" />
  <rect
     style="fill:#f56433;stroke-width:0.264583;fill-opacity:1"
     id="rect846"
     width="14.816667"
     height="14.816667"
     x="1.0583335"
     y="1.0583333"
     ry="3.175" />
  <path
     id="rect967"
     style="fill:#ffffff;stroke-width:0.264583;opacity:0.2"
     d="M 4.2333335,15.875 H 12.7 c 1.75895,0 3.175,-1.41605 3.175,-3.175 V 8.4666667 H 1.0583335 V 12.7 c 0,1.75895 1.41605,3.175 3.175,3.175 z"
     sodipodi:nodetypes="sssccss" />
  <path
     id="path5807"
     style="opacity:0.2;fill:#000000;fill-opacity:1;stroke-width:0.399885"
     d="M 7.4186687 3.96875 C 7.0309001 4.7765994 6.7385316 5.3552325 6.383073 6.1846355 C 6.0276143 7.0032415 5.6671831 7.8647101 5.3009685 8.7694906 C 5.1638956 9.1184043 5.0242045 9.4835579 4.8839397 9.8484946 C 4.7975198 10.045903 4.7002107 10.281622 4.5480429 10.690304 C 4.2930511 11.36787 4.1214933 11.775935 3.8369751 12.527401 C 3.7333082 12.789626 3.6195639 13.083044 3.4395834 13.577983 L 5.5655518 13.577983 L 6.4636882 11.078394 L 6.915857 9.7859661 C 7.2497617 8.848879 7.2542667 8.9314103 7.5881674 8.0589397 C 7.8633851 7.3537013 8.1501605 6.6738992 8.4459962 6.0166871 L 8.4459962 6.0042847 C 8.4529962 5.9878497 8.4601335 5.9710843 8.4671835 5.9546754 C 8.4741835 5.9711103 8.4813009 5.9878337 8.4883709 6.0042847 L 8.4883709 6.0166871 C 8.7841786 6.6738991 9.0699254 7.3536614 9.3451661 8.0589397 C 9.6790788 8.9314106 9.6835788 8.848873 10.017476 9.7859661 L 10.470162 11.078394 L 11.367782 13.577983 L 13.49375 13.577983 C 13.313768 13.083044 13.200025 12.789605 13.096358 12.527401 C 12.81182 11.775935 12.641292 11.36787 12.386324 10.690304 C 12.234153 10.281622 12.136846 10.045919 12.050427 9.8484946 C 11.910167 9.4835709 11.769441 9.1184313 11.632365 8.7694906 C 11.266141 7.8647101 10.985301 7.2435368 10.629842 6.4249309 C 10.274393 5.595528 9.9029102 4.7765994 9.5151816 3.96875 L 9.4831422 3.96875 L 8.4082724 3.96875 L 8.3653809 3.96875 L 7.4507081 3.9697836 L 7.4186687 3.96875 z " />
  <path
     d="M 7.4189184,3.4395834 C 7.0311489,4.2474336 6.738735,4.8259548 6.3832759,5.6553585 6.0278176,6.4739653 5.6669875,7.3357774 5.3007719,8.2405591 5.1636988,8.5894724 5.0239676,8.9542219 4.8837032,9.3191584 4.7972792,9.5165664 4.7000303,9.7524228 4.5478615,10.161105 c -0.2549912,0.677567 -0.4262161,1.08551 -0.7107349,1.836977 -0.103667,0.262225 -0.2175625,0.555542 -0.3975432,1.050481 h 2.1259571 l 0.8981811,-2.499287 2.0033357,-0.08747 2.0033357,0.08747 0.897399,2.499287 H 13.49375 C 13.313768,12.553624 13.199874,12.260286 13.096207,11.998082 12.811668,11.246615 12.641219,10.838672 12.386251,10.161105 12.23408,9.7524228 12.136831,9.5165824 12.050412,9.3191584 11.910151,8.9542346 11.769638,8.5894997 11.632562,8.2405591 11.266338,7.3357774 10.98518,6.7145219 10.629721,5.8959152 10.274271,5.0665115 9.9029256,4.2474336 9.5151964,3.4395834 H 9.4831735 8.4084797 8.3655235 l -0.9145834,7.997e-4 z m 1.0481389,1.9861529 c 0.00704,0.016435 0.014011,0.032754 0.021085,0.049205 v 0.012499 C 8.7839503,6.144653 9.0696885,6.8245481 9.3449291,7.5298271 9.6788424,8.4022985 9.6834976,8.3195856 10.017394,9.2566794 L 8.4670573,9.3121274 6.915937,9.2566707 C 7.2498417,8.3195831 7.2545003,8.4022961 7.5884013,7.5298244 7.8636189,6.8245853 8.150134,6.1446503 8.4459698,5.4874375 v -0.012499 c 0.00704,-0.016435 0.014041,-0.032796 0.021087,-0.049205 z"
     style="fill:#fff9f2;fill-opacity:1;stroke-width:0.399885"
     id="path4390"
     sodipodi:nodetypes="ccccccccccccccccccccccccsccccccccccs" />
  <path
     d="M 9.5151968,3.4403621 8.4670577,5.426515 C 8.6413594,5.8391765 9.0664878,6.8089227 9.3457143,7.5306031 9.6796267,8.4030748 9.6842856,8.319581 10.018178,9.256674 l -0.5232881,0.01953 0.3623967,1.246519 0.6131064,0.02655 0.898181,2.500069 H 13.49375 C 13.313768,12.554406 13.200654,12.261068 13.096989,11.998862 12.812448,11.247396 12.641219,10.839453 12.386251,10.161886 12.23408,9.7532035 12.136829,9.5165821 12.050412,9.3191581 11.910151,8.9542343 11.77042,8.5902811 11.633342,8.2413405 11.26712,7.3365583 10.98518,6.714522 10.629721,5.8959152 10.373427,5.2978856 10.108499,4.7059103 9.8354176,4.1190775 Z"
     style="opacity:0.1;fill:#f34f17;fill-opacity:1;stroke-width:0.399885"
     id="path4781" />
  <rect
     style="opacity:0.2;fill:#000000;fill-opacity:1;stroke-width:0.264583"
     id="rect5924"
     width="10.583334"
     height="1.5874996"
     x="3.1750002"
     y="9.5249996"
     ry="0.79374981" />
  <rect
     style="fill:#ffffff;fill-opacity:1;stroke-width:0.143078;stroke-linecap:round;stroke-linejoin:round"
     id="rect4952"
     width="10.583333"
     height="1.5875"
     x="3.175"
     y="9.260417"
     ry="0.79374999" />
  <path
     id="rect845"
     style="opacity:0.2;fill:#000000;stroke-width:0.999999"
     d="M 4 47 L 4 48 C 4 54.648 9.3519997 60 16 60 L 48 60 C 54.648 60 60 54.648 60 48 L 60 47 C 60 53.648 54.648 59 48 59 L 16 59 C 9.3519997 59 4 53.648 4 47 z "
     transform="scale(0.26458334)" />
  <path
     id="rect843"
     style="opacity:0.2;fill:#ffffff;stroke-width:0.999999"
     d="M 16 4 C 9.3519997 4 4 9.3519997 4 16 L 4 17 C 4 10.352 9.3519997 5 16 5 L 48 5 C 54.648 5 60 10.352 60 17 L 60 16 C 60 9.3519997 54.648 4 48 4 L 16 4 z "
     transform="scale(0.26458334)" />
  <rect
     style="opacity:0.3;fill:#f34f17;fill-opacity:1;stroke-width:0.0881944"
     id="rect5019"
     width="9.5249996"
     height="0.5291667"
     x="3.7041669"
     y="9.7895832"
     ry="0.26458335" />
</svg>
