<?xml version="1.0" encoding="UTF-8" standalone="no"?>
<!-- Created with Inkscape (http://www.inkscape.org/) -->

<svg
   width="64"
   height="64"
   viewBox="0 0 16.933333 16.933334"
   version="1.1"
   id="svg5"
   inkscape:version="1.2 (dc2aedaf03, 2022-05-15)"
   sodipodi:docname="unity-tweak-tool.svg"
   xmlns:inkscape="http://www.inkscape.org/namespaces/inkscape"
   xmlns:sodipodi="http://sodipodi.sourceforge.net/DTD/sodipodi-0.dtd"
   xmlns="http://www.w3.org/2000/svg"
   xmlns:svg="http://www.w3.org/2000/svg">
  <sodipodi:namedview
     id="namedview7"
     pagecolor="#ffffff"
     bordercolor="#666666"
     borderopacity="1.0"
     inkscape:pageshadow="2"
     inkscape:pageopacity="0.0"
     inkscape:pagecheckerboard="0"
     inkscape:document-units="px"
     showgrid="false"
     units="px"
     height="64px"
     inkscape:zoom="14.196428"
     inkscape:cx="32.085536"
     inkscape:cy="32.085536"
     inkscape:window-width="1920"
     inkscape:window-height="1011"
     inkscape:window-x="0"
     inkscape:window-y="0"
     inkscape:window-maximized="1"
     inkscape:current-layer="svg5"
     inkscape:showpageshadow="2"
     inkscape:deskcolor="#d1d1d1" />
  <defs
     id="defs2" />
  <rect
     style="fill:#f4f4f4;stroke-width:0.264583;fill-opacity:1"
     id="rect846"
     width="14.816667"
     height="14.816667"
     x="1.0583335"
     y="1.0583333"
     ry="3.175" />
  <rect
     style="opacity:0.2;fill:#1a1a1a;fill-opacity:1;stroke-width:0.529167;stroke-linejoin:round"
     id="rect1540"
     width="10.054167"
     height="4.2333326"
     x="3.4395833"
     y="9.5249996"
     ry="2.1166663" />
  <rect
     style="fill:#999999;fill-opacity:1;stroke-width:2.46483;stroke-linecap:round;stroke-linejoin:round"
     id="rect875"
     width="10.054167"
     height="4.2333331"
     x="3.4395833"
     y="9.260417"
     ry="2.1166666" />
  <rect
     style="opacity:0.2;fill:#1a1a1a;fill-opacity:1;stroke-width:0.529167;stroke-linejoin:round"
     id="rect1486"
     width="10.054167"
     height="4.2333331"
     x="3.4395833"
     y="3.7041667"
     ry="2.1166666" />
  <rect
     style="fill:#77216f;fill-opacity:1;stroke-width:2.46483;stroke-linecap:round;stroke-linejoin:round"
     id="rect979"
     width="10.054167"
     height="4.2333331"
     x="3.4395833"
     y="3.4395833"
     ry="2.1166666" />
  <circle
     style="fill:#f4f4f4;fill-opacity:1;stroke-width:1.11981;stroke-linecap:round;stroke-linejoin:round"
     id="path3468-5"
     cx="11.377083"
     cy="11.377084"
     r="1.5875" />
  <circle
     style="fill:#f4f4f4;fill-opacity:1;stroke-width:1.11981;stroke-linecap:round;stroke-linejoin:round"
     id="path3468"
     cx="5.5562501"
     cy="5.5562501"
     r="1.5875" />
  <path
     id="rect845"
     style="opacity:0.2;fill:#000000;stroke-width:0.999999"
     d="M 4 47 L 4 48 C 4 54.648 9.3519997 60 16 60 L 48 60 C 54.648 60 60 54.648 60 48 L 60 47 C 60 53.648 54.648 59 48 59 L 16 59 C 9.3519997 59 4 53.648 4 47 z "
     transform="scale(0.26458334)" />
  <path
     id="rect843"
     style="opacity:0.2;fill:#ffffff;stroke-width:0.999999"
     d="M 16 4 C 9.3519997 4 4 9.3519997 4 16 L 4 17 C 4 10.352 9.3519997 5 16 5 L 48 5 C 54.648 5 60 10.352 60 17 L 60 16 C 60 9.3519997 54.648 4 48 4 L 16 4 z "
     transform="scale(0.26458334)" />
</svg>
