<?xml version="1.0" encoding="UTF-8" standalone="no"?>
<!-- Created with Inkscape (http://www.inkscape.org/) -->

<svg
   width="64"
   height="64"
   viewBox="0 0 16.933333 16.933334"
   version="1.1"
   id="svg5"
   inkscape:version="1.2 (dc2aedaf03, 2022-05-15)"
   sodipodi:docname="youtube.svg"
   xmlns:inkscape="http://www.inkscape.org/namespaces/inkscape"
   xmlns:sodipodi="http://sodipodi.sourceforge.net/DTD/sodipodi-0.dtd"
   xmlns="http://www.w3.org/2000/svg"
   xmlns:svg="http://www.w3.org/2000/svg">
  <sodipodi:namedview
     id="namedview7"
     pagecolor="#ffffff"
     bordercolor="#666666"
     borderopacity="1.0"
     inkscape:pageshadow="2"
     inkscape:pageopacity="0.0"
     inkscape:pagecheckerboard="0"
     inkscape:document-units="px"
     showgrid="false"
     units="px"
     height="64px"
     inkscape:zoom="13.53125"
     inkscape:cx="31.963048"
     inkscape:cy="32"
     inkscape:window-width="1920"
     inkscape:window-height="1024"
     inkscape:window-x="0"
     inkscape:window-y="32"
     inkscape:window-maximized="1"
     inkscape:current-layer="svg5"
     inkscape:showpageshadow="2"
     inkscape:deskcolor="#d1d1d1"
     inkscape:lockguides="false" />
  <defs
     id="defs2" />
  <rect
     style="fill:#f8f8f8;stroke-width:0.264583;fill-opacity:1"
     id="rect846"
     width="14.816667"
     height="14.816667"
     x="1.0583335"
     y="1.0583333"
     ry="3.175" />
  <path
     d="M 13.540347,6.1862697 C 13.4183,5.7330543 13.060873,5.3757109 12.607553,5.2536913 11.779371,5.0270834 8.4666446,5.0270834 8.4666446,5.0270834 c 0,0 -3.3127268,0 -4.1409082,0.2178921 C 3.8811337,5.3669955 3.5149902,5.7330543 3.3929424,6.1862697 3.175,7.0142601 3.175,8.7268925 3.175,8.7268925 c 0,0 0,1.7300635 0.2179424,2.5493385 0.1220481,0.453215 0.4794736,0.810559 0.932794,0.932578 0.8368992,0.226608 4.1409072,0.226608 4.1409072,0.226608 0,0 3.3127274,0 4.1409094,-0.217893 0.45332,-0.122019 0.810746,-0.479362 0.932793,-0.932577 0.217944,-0.827991 0.217944,-2.549339 0.217944,-2.549339 0,0 0.0086,-1.7213479 -0.217943,-2.5493383 z"
     style="opacity:0.2;fill:#000000;stroke-width:0.087167"
     id="path724" />
  <path
     d="M 13.540347,5.9216862 C 13.4183,5.4684708 13.060874,5.1111274 12.607554,4.9891078 11.779372,4.7625 8.466645,4.7625 8.466645,4.7625 c 0,0 -3.312727,0 -4.1409086,0.217892 C 3.8811337,5.1024119 3.5149902,5.4684708 3.3929424,5.9216862 3.175,6.7496766 3.175,8.4623088 3.175,8.4623088 c 0,0 0,1.7300632 0.2179424,2.5493382 0.1220481,0.453214 0.4794736,0.810559 0.932794,0.932578 0.8368994,0.226608 4.1409075,0.226608 4.1409075,0.226608 0,0 3.3127281,0 4.1409101,-0.217893 0.45332,-0.122019 0.810745,-0.479362 0.932792,-0.932578 0.217945,-0.82799 0.217945,-2.5493376 0.217945,-2.5493376 0,0 0.0086,-1.7213478 -0.217944,-2.5493382 z"
     style="fill:#e61919;fill-opacity:1;stroke-width:0.087167"
     id="path300"
     sodipodi:nodetypes="ccccccccccccc" />
  <path
     id="rect479"
     style="fill:#ffffff;stroke-width:0.323042"
     d="M 7.1437505,6.6145834 10.31875,8.4666675 7.1437501,10.31875 Z"
     sodipodi:nodetypes="cccc" />
  <path
     id="rect845"
     style="opacity:0.2;fill:#000000;stroke-width:0.999999"
     d="M 4 47 L 4 48 C 4 54.648 9.3519997 60 16 60 L 48 60 C 54.648 60 60 54.648 60 48 L 60 47 C 60 53.648 54.648 59 48 59 L 16 59 C 9.3519997 59 4 53.648 4 47 z "
     transform="scale(0.26458334)" />
  <path
     id="rect843"
     style="opacity:0.2;fill:#ffffff;stroke-width:0.999999"
     d="M 16 4 C 9.3519997 4 4 9.3519997 4 16 L 4 17 C 4 10.352 9.3519997 5 16 5 L 48 5 C 54.648 5 60 10.352 60 17 L 60 16 C 60 9.3519997 54.648 4 48 4 L 16 4 z "
     transform="scale(0.26458334)" />
</svg>
